<?xml version="1.0" encoding="UTF-8"?>
<svg version="1.1" xmlns="http://www.w3.org/2000/svg" width="250" height="250">
<path d="M0 0 C0.72429199 0.24057129 1.44858398 0.48114258 2.19482422 0.72900391 C10.35892348 3.54089395 17.77512776 7.28556461 25 12 C26.35544922 12.8353125 26.35544922 12.8353125 27.73828125 13.6875 C39.8872999 21.21552262 39.8872999 21.21552262 45 26 C45 26.66 45 27.32 45 28 C45.55042969 28.21785156 46.10085937 28.43570313 46.66796875 28.66015625 C49.75407866 30.43324787 51.94967924 32.8249235 54.3125 35.4375 C55.03663086 36.23124023 55.03663086 36.23124023 55.77539062 37.04101562 C59.54637849 41.27519559 62.6594601 45.74789297 65.5625 50.625 C66.91083814 52.96705975 66.91083814 52.96705975 68.4375 54.8046875 C73.78567448 62.31887264 78.06415804 72.3062051 80.29125977 81.23168945 C80.81115757 83.26238914 81.38040443 85.28062206 81.97729492 87.29003906 C85.0431559 98.1880686 85.67846501 108.40357183 85.5625 119.6875 C85.55660858 121.00486649 85.55660858 121.00486649 85.55059814 122.34884644 C85.46609633 135.75458597 84.59033874 148.28829271 80 161 C79.74347656 161.73476562 79.48695313 162.46953125 79.22265625 163.2265625 C77.09128489 169.2283346 74.99588405 174.96607903 71 180 C70.5875 180.86625 70.175 181.7325 69.75 182.625 C64.17124783 193.38402205 55.87949437 203.78425521 47 212 C46.34 212 45.68 212 45 212 C44.8040625 212.55945313 44.608125 213.11890625 44.40625 213.6953125 C42.42263143 216.94624294 39.58402855 218.75914686 36.5 220.875 C35.8714209 221.31408691 35.2428418 221.75317383 34.59521484 222.20556641 C18.8656051 233.09159507 2.90708931 240.46685705 -16 244 C-16.72251953 244.17128418 -17.44503906 244.34256836 -18.18945312 244.51904297 C-21.81281441 245.1390935 -25.39668589 245.22009467 -29.0625 245.2734375 C-30.2326339 245.29216164 -30.2326339 245.29216164 -31.42640686 245.31126404 C-48.18617575 245.52754929 -63.98011719 245.57145839 -80 240 C-81.23878906 239.59265625 -82.47757812 239.1853125 -83.75390625 238.765625 C-93.89790018 235.14528881 -102.90993106 229.82307321 -111.875 223.9375 C-112.50583496 223.52604736 -113.13666992 223.11459473 -113.78662109 222.69067383 C-117.62007771 220.12361785 -120.79687124 217.35079072 -124 214 C-124.78375 213.401875 -125.5675 212.80375 -126.375 212.1875 C-130.02775748 209.14353544 -132.9526846 205.63773275 -136 202 C-136.928125 200.93845703 -136.928125 200.93845703 -137.875 199.85546875 C-147.25731354 188.75180333 -154.54943585 175.83024775 -159 162 C-159.22026855 161.32404785 -159.44053711 160.6480957 -159.66748047 159.95166016 C-160.37941051 157.74373834 -161.06939342 155.53026717 -161.75 153.3125 C-161.96116455 152.63574219 -162.1723291 151.95898438 -162.38989258 151.26171875 C-165.3695933 141.11972303 -165.18223287 130.74212472 -165.1875 120.25 C-165.19974609 118.9815625 -165.21199219 117.713125 -165.22460938 116.40625 C-165.24292177 104.44214956 -164.07661436 92.894853 -160.3125 81.5 C-160.05122314 80.69667236 -159.78994629 79.89334473 -159.52075195 79.06567383 C-152.7701478 59.00953107 -140.45989441 39.4224798 -124 26 C-122.60587891 24.7934375 -122.60587891 24.7934375 -121.18359375 23.5625 C-115.14872903 18.35478338 -109.05201392 13.76899365 -102 10 C-101.06542969 9.49855469 -100.13085938 8.99710938 -99.16796875 8.48046875 C-69.19181217 -7.03798715 -32.32703394 -10.77567798 0 0 Z " fill="#54AED3" transform="translate(165,5)"/>
<path d="M0 0 C0 18.81 0 37.62 0 57 C-21.45 57 -42.9 57 -65 57 C-65 41.16 -65 25.32 -65 9 C-54.33731129 6.49113207 -44.67756802 4.34853318 -33.9375 3.375 C-25.37448205 2.69468345 -25.37448205 2.69468345 -17.00390625 0.9140625 C-13 0 -13 0 0 0 Z " fill="#FEFEFE" transform="translate(183,47)"/>
<path d="M0 0 C21.45 0 42.9 0 65 0 C65 18.81 65 37.62 65 57 C55.02870813 57 55.02870813 57 49.375 55.5625 C44.57802833 54.45629081 40.10398831 53.80832668 35.1875 53.625 C24.25799151 53.09241802 9.8418712 51.9209356 0 47 C0 31.49 0 15.98 0 0 Z " fill="#FEFEFE" transform="translate(118,111)"/>
<path d="M0 0 C0 15.84 0 31.68 0 48 C-16.17 48 -32.34 48 -49 48 C-49 34.14 -49 20.28 -49 6 C-46.69764786 4.84882393 -45.08332489 4.75718457 -42.51953125 4.5703125 C-41.15489746 4.46275635 -41.15489746 4.46275635 -39.76269531 4.35302734 C-38.78913086 4.27777832 -37.81556641 4.2025293 -36.8125 4.125 C-28.84881557 3.46976014 -21.25965318 2.46465304 -13.484375 0.5859375 C-10 0 -10 0 0 0 Z " fill="#FCFDFE" transform="translate(111,57)"/>
<path d="M0 0 C16.17 0 32.34 0 49 0 C49 15.84 49 31.68 49 48 C43.24632436 48 39.63504288 47.87372667 34.3125 46.625 C26.95276779 45.05373794 19.64064401 44.27316723 12.14575195 43.64697266 C11.29070068 43.57526855 10.43564941 43.50356445 9.5546875 43.4296875 C8.79655762 43.37022949 8.03842773 43.31077148 7.25732422 43.24951172 C4.81748227 42.97982553 2.40703284 42.48140657 0 42 C0 28.14 0 14.28 0 0 Z " fill="#FCFDFE" transform="translate(62,110)"/>
<path d="M0 0 C11.33333333 0 11.33333333 0 15 3 C15.515625 3.556875 16.03125 4.11375 16.5625 4.6875 C18.16789842 6.44951291 18.16789842 6.44951291 22 6 C22 10.62 22 15.24 22 20 C20.68 19.67 19.36 19.34 18 19 C17.67 18.01 17.34 17.02 17 16 C16.566875 16.474375 16.13375 16.94875 15.6875 17.4375 C11.47931737 21.3339654 5.33187577 20.06272795 0 20 C0 13.4 0 6.8 0 0 Z " fill="#98CEE4" transform="translate(111,172)"/>
<path d="M0 0 C0.66 0 1.32 0 2 0 C2.33 0.99 2.66 1.98 3 3 C4.78265886 4.3498008 4.78265886 4.3498008 7 5 C8.32 4.67 9.64 4.34 11 4 C11 8.62 11 13.24 11 18 C9.39125 18.04125 7.7825 18.0825 6.125 18.125 C4.76761719 18.15980469 4.76761719 18.15980469 3.3828125 18.1953125 C1 18 1 18 -1 16 C-1.33 16.66 -1.66 17.32 -2 18 C-10.21324503 18.61986755 -10.21324503 18.61986755 -13.0625 16.375 C-14.28314814 13.28269139 -14.47188036 11.30316253 -14 8 C-12.625 5.125 -12.625 5.125 -10 3 C-6.62636739 2.58226179 -3.3808573 2.7096592 0 3 C0 2.01 0 1.02 0 0 Z " fill="#62B5D6" transform="translate(62,174)"/>
<path d="M0 0 C0.66 0.99 1.32 1.98 2 3 C5.05429073 4.21284876 5.05429073 4.21284876 8 5 C8.66 4.34 9.32 3.68 10 3 C13.55600891 2.53617275 15.34990088 2.57230321 18.375 4.5625 C20.57432184 7.86148277 20.35376774 10.10855485 20 14 C19 17 19 17 17 18 C14.11629667 18.07194869 11.25760336 18.09291708 8.375 18.0625 C7.57320312 18.05798828 6.77140625 18.05347656 5.9453125 18.04882812 C3.96350994 18.03703168 1.98174567 18.01909605 0 18 C-1.32229189 15.35541621 -1.09677194 13.32238699 -1.0625 10.375 C-1.05347656 9.37210938 -1.04445312 8.36921875 -1.03515625 7.3359375 C-1.01775391 6.17964844 -1.01775391 6.17964844 -1 5 C-1.66 4.67 -2.32 4.34 -3 4 C-2.34 3.67 -1.68 3.34 -1 3 C-0.67 2.01 -0.34 1.02 0 0 Z " fill="#95CCE3" transform="translate(174,174)"/>
<path d="M0 0 C3.31211959 0.72705064 5.08751748 2.29965884 7.5625 4.5625 C8.09875 3.9025 8.635 3.2425 9.1875 2.5625 C11.5625 0.5625 11.5625 0.5625 14.8125 0.3125 C15.72 0.395 16.6275 0.4775 17.5625 0.5625 C17.5625 1.2225 17.5625 1.8825 17.5625 2.5625 C15.5825 3.2225 13.6025 3.8825 11.5625 4.5625 C10.88448966 7.46323181 10.88448966 7.46323181 10.5625 10.5625 C12.92203094 12.92203094 14.34145617 13.05391413 17.5625 13.5625 C17.5625 14.2225 17.5625 14.8825 17.5625 15.5625 C13.68536142 15.63706036 10.30321646 15.56961597 6.5625 14.5625 C6.2325 14.8925 5.9025 15.2225 5.5625 15.5625 C2.52775629 15.93126368 -0.40464331 15.95048707 -3.4375 15.5625 C-6.17475983 13.40587104 -6.36568389 12.0446939 -6.875 8.625 C-6.23562555 4.14937886 -4.60191237 1.06197978 0 0 Z " fill="#5BB1D5" transform="translate(151.4375,176.4375)"/>
<path d="M0 0 C7 0 7 0 9.4375 0.9375 C11.64614197 3.8529074 11.61889236 6.24353763 11.44921875 9.8359375 C11 12 11 12 8.875 14.5625 C6 16 6 16 0 16 C0 10.72 0 5.44 0 0 Z " fill="#5FB3D6" transform="translate(114,174)"/>
<path d="M0 0 C1.86328125 0.640625 1.86328125 0.640625 4 2 C5.23046875 4.609375 5.23046875 4.609375 6.1875 7.75 C6.51105469 8.77609375 6.83460937 9.8021875 7.16796875 10.859375 C7.97277422 13.89723226 8.53953328 16.89301247 9 20 C8.01 19.67 7.02 19.34 6 19 C6 17.68 6 16.36 6 15 C2.7 15 -0.6 15 -4 15 C-4.33 16.65 -4.66 18.3 -5 20 C-5.99 20 -6.98 20 -8 20 C-7.0531251 15.94619185 -5.55426441 12.16516957 -4 8.3125 C-3.59007812 7.27899414 -3.59007812 7.27899414 -3.171875 6.22460938 C-1.12669335 1.12669335 -1.12669335 1.12669335 0 0 Z " fill="#C0E1EE" transform="translate(37,172)"/>
<path d="M0 0 C4.05445642 -0.43132515 5.54970958 -0.30019361 9 2 C9.1875 5.625 9.1875 5.625 9 9 C6.03 9 3.06 9 0 9 C0.33 9.99 0.66 10.98 1 12 C3.31 12.33 5.62 12.66 8 13 C8 13.66 8 14.32 8 15 C5.03 15 2.06 15 -1 15 C-3.23082477 10.66957545 -3.0472723 7.71272535 -2 3 C-1.34 2.01 -0.68 1.02 0 0 Z " fill="#C0E0EE" transform="translate(92,177)"/>
<path d="M0 0 C0 4.62 0 9.24 0 14 C-1.65 14 -3.3 14 -5 14 C-5 13.34 -5 12.68 -5 12 C-5.99 12 -6.98 12 -8 12 C-8 8.7 -8 5.4 -8 2 C-5.09399739 0.74335022 -3.20395416 0 0 0 Z " fill="#7CC1DD" transform="translate(73,178)"/>
<path d="M0 0 C0.66 0 1.32 0 2 0 C2 1.32 2 2.64 2 4 C2.66 4 3.32 4 4 4 C4.66 5.65 5.32 7.3 6 9 C6.99 6.03 7.98 3.06 9 0 C9.99 0 10.98 0 12 0 C11.79503906 0.60328125 11.59007812 1.2065625 11.37890625 1.828125 C11.10949219 2.62734375 10.84007812 3.4265625 10.5625 4.25 C10.29566406 5.03890625 10.02882812 5.8278125 9.75390625 6.640625 C9.08045292 8.74821988 8.50849405 10.84753973 8 13 C7.34 13 6.68 13 6 13 C5.896875 13.94875 5.79375 14.8975 5.6875 15.875 C5 19 5 19 2 21 C1.01 21 0.02 21 -1 21 C-1 20.34 -1 19.68 -1 19 C-0.01 18.67 0.98 18.34 2 18 C3.29668151 12.22387328 2.49488426 9.28915463 0 4 C0 2.68 0 1.36 0 0 Z " fill="#CEE7F2" transform="translate(207,178)"/>
<path d="M0 0 C1 1 1 1 1.1875 4.4375 C1 8 1 8 -1 10 C-3.5 10.25 -3.5 10.25 -6 10 C-8 8 -8 8 -8.125 4.375 C-8.08375 3.26125 -8.0425 2.1475 -8 1 C-5.05549278 0.01849759 -3.06481021 -0.1613058 0 0 Z " fill="#5BB1D5" transform="translate(191,180)"/>
<path d="M0 0 C1.918125 -0.0825 3.83625 -0.165 5.8125 -0.25 C7.43091797 -0.31960937 7.43091797 -0.31960937 9.08203125 -0.390625 C12 0 12 0 13.875 1.71875 C15.14906635 4.30227344 15.31367478 5.89003839 15.1875 8.75 C15.16042969 9.54921875 15.13335937 10.3484375 15.10546875 11.171875 C15.07066406 11.77515625 15.03585938 12.3784375 15 13 C14.01 13.495 14.01 13.495 13 14 C12.96261719 13.30132812 12.92523438 12.60265625 12.88671875 11.8828125 C12.82097656 10.97273437 12.75523438 10.06265625 12.6875 9.125 C12.60048828 7.76761719 12.60048828 7.76761719 12.51171875 6.3828125 C12.2117961 3.63778399 12.2117961 3.63778399 9 2 C6.69 1.67 4.38 1.34 2 1 C2.33 6.61 2.66 12.22 3 18 C2.01 18 1.02 18 0 18 C0 12.06 0 6.12 0 0 Z " fill="#E0F0F6" transform="translate(112,173)"/>
<path d="M0 0 C2.375 0.4375 2.375 0.4375 4.375 2.4375 C4.5 5.0625 4.5 5.0625 4.375 7.4375 C3.385 6.1175 2.395 4.7975 1.375 3.4375 C-0.56574861 3.71367533 -0.56574861 3.71367533 -2.625 4.4375 C-3.615 5.9225 -3.615 5.9225 -4.625 7.4375 C-2.315 7.4375 -0.005 7.4375 2.375 7.4375 C2.375 7.7675 2.375 8.0975 2.375 8.4375 C0.065 8.4375 -2.245 8.4375 -4.625 8.4375 C-4.625 9.4275 -4.625 10.4175 -4.625 11.4375 C-0.17 12.4275 -0.17 12.4275 4.375 13.4375 C4.045 14.0975 3.715 14.7575 3.375 15.4375 C-3.04710386 15.92218708 -3.04710386 15.92218708 -5.5625 13.8125 C-6.94834316 10.71473293 -7.10586483 8.8035538 -6.625 5.4375 C-4.71013923 2.17514461 -3.80110257 0.6335171 0 0 Z " fill="#DEEFF6" transform="translate(151.625,176.5625)"/>
<path d="M0 0 C0.66 0 1.32 0 2 0 C2.33 0.99 2.66 1.98 3 3 C3.99 3.33 4.98 3.66 6 4 C6 4.66 6 5.32 6 6 C5.01 6 4.02 6 3 6 C3 9.3 3 12.6 3 16 C3.99 16 4.98 16 6 16 C6 16.66 6 17.32 6 18 C4.35 18 2.7 18 1 18 C-0.32229189 15.35541621 -0.09677194 13.32238699 -0.0625 10.375 C-0.05347656 9.37210938 -0.04445312 8.36921875 -0.03515625 7.3359375 C-0.01775391 6.17964844 -0.01775391 6.17964844 0 5 C-0.66 4.67 -1.32 4.34 -2 4 C-1.34 4 -0.68 4 0 4 C0 2.68 0 1.36 0 0 Z " fill="#B7DCEC" transform="translate(62,174)"/>
<path d="M0 0 C3.3 0 6.6 0 10 0 C10 0.33 10 0.66 10 1 C7.03 1 4.06 1 1 1 C1 6.94 1 12.88 1 19 C7.65547228 16.87681649 7.65547228 16.87681649 14 14 C14 17 14 17 12.85546875 18.67578125 C9.18351255 21.29639841 4.31547596 20.15231092 0 20 C0 13.4 0 6.8 0 0 Z " fill="#B8DDEC" transform="translate(111,172)"/>
<path d="M0 0 C0.66 0 1.32 0 2 0 C2 0.66 2 1.32 2 2 C5.3 1.67 8.6 1.34 12 1 C12 1.99 12 2.98 12 4 C9.03 4 6.06 4 3 4 C3.33 4.99 3.66 5.98 4 7 C6.31 7.33 8.62 7.66 11 8 C11 8.66 11 9.32 11 10 C8.03 10 5.06 10 2 10 C0.39644899 6.49223216 -0.22036864 3.85645121 0 0 Z " fill="#BEE0EE" transform="translate(89,182)"/>
<path d="M0 0 C0 0.66 0 1.32 0 2 C-1.98 2.66 -3.96 3.32 -6 4 C-6.67801034 6.90073181 -6.67801034 6.90073181 -7 10 C-4.64046906 12.35953094 -3.22104383 12.49141413 0 13 C0 13.66 0 14.32 0 15 C-6.40096618 15.48309179 -6.40096618 15.48309179 -8.9375 13.4375 C-10.41282332 10.05293473 -10.45674603 7.65396822 -10 4 C-7.21083461 -0.18374808 -4.85662887 -0.44151172 0 0 Z " fill="#D8ECF4" transform="translate(169,177)"/>
<path d="M0 0 C0.66 0 1.32 0 2 0 C2.99 2.97 3.98 5.94 5 9 C6.32 6.03 7.64 3.06 9 0 C9.66 0 10.32 0 11 0 C10.50269348 4.97306516 9.44697666 8.63799813 7 13 C5.109375 12.73828125 5.109375 12.73828125 3 12 C1.953125 10.29296875 1.953125 10.29296875 1.25 8.1875 C1.00765625 7.50042969 0.7653125 6.81335938 0.515625 6.10546875 C0 4 0 4 0 0 Z " fill="#D7EBF4" transform="translate(76,178)"/>
<path d="M0 0 C0 0.33 0 0.66 0 1 C-1.98 1.66 -3.96 2.32 -6 3 C-6 5.97 -6 8.94 -6 12 C-4.02 12 -2.04 12 0 12 C0 12.66 0 13.32 0 14 C-6.42210386 14.48468708 -6.42210386 14.48468708 -8.9375 12.375 C-10.30225246 9.32437685 -10.41407022 7.31256176 -10 4 C-7.82605633 -0.85940349 -4.92562519 -0.3717453 0 0 Z " fill="#CCE6F1" transform="translate(58,178)"/>
<path d="M0 0 C2.64 0 5.28 0 8 0 C8 0.66 8 1.32 8 2 C7.35546875 2.22429687 6.7109375 2.44859375 6.046875 2.6796875 C3.75611148 3.82889456 3.75611148 3.82889456 3.390625 6.3828125 C3.34421875 7.28773438 3.2978125 8.19265625 3.25 9.125 C3.19328125 10.03507813 3.1365625 10.94515625 3.078125 11.8828125 C3.03945312 12.93082031 3.03945312 12.93082031 3 14 C2.01 14 1.02 14 0 14 C0 9.38 0 4.76 0 0 Z " fill="#BEE0EE" transform="translate(197,178)"/>
<path d="M0 0 C2.31 0 4.62 0 7 0 C7 0.66 7 1.32 7 2 C6.01 2.33 5.02 2.66 4 3 C3.67 6.63 3.34 10.26 3 14 C2.01 14 1.02 14 0 14 C0 9.38 0 4.76 0 0 Z " fill="#C2E1EF" transform="translate(137,178)"/>
<path d="M0 0 C0.66 0.226875 1.32 0.45375 2 0.6875 C2.99 0.6875 3.98 0.6875 5 0.6875 C5 2.6675 5 4.6475 5 6.6875 C2.03 6.6875 -0.94 6.6875 -4 6.6875 C-4.33 7.3475 -4.66 8.0075 -5 8.6875 C-5.36253776 3.24943353 -5.36253776 3.24943353 -3.75 0.75 C-2 -0.3125 -2 -0.3125 0 0 Z " fill="#B4DBEB" transform="translate(152,179.3125)"/>
<path d="M0 0 C0.66 0.99 1.32 1.98 2 3 C2.99 3.66 3.98 4.32 5 5 C4.01 5.33 3.02 5.66 2 6 C2 8.97 2 11.94 2 15 C2.99 15.33 3.98 15.66 5 16 C5 16.66 5 17.32 5 18 C3.35 18 1.7 18 0 18 C-1.32229189 15.35541621 -1.09677194 13.32238699 -1.0625 10.375 C-1.05347656 9.37210938 -1.04445312 8.36921875 -1.03515625 7.3359375 C-1.01775391 6.17964844 -1.01775391 6.17964844 -1 5 C-1.66 4.67 -2.32 4.34 -3 4 C-2.34 3.67 -1.68 3.34 -1 3 C-0.67 2.01 -0.34 1.02 0 0 Z " fill="#E0EFF6" transform="translate(174,174)"/>
<path d="M0 0 C0 0.99 0 1.98 0 3 C-2.31 3.33 -4.62 3.66 -7 4 C-6.67 6.64 -6.34 9.28 -6 12 C-6.99 12.495 -6.99 12.495 -8 13 C-9.52846661 9.94306678 -9.23242445 7.37015453 -9 4 C-6.9285531 -0.48813496 -4.68078576 -0.41606985 0 0 Z " fill="#BDDFED" transform="translate(190,177)"/>
<path d="M0 0 C0.66 0 1.32 0 2 0 C2.33 0.99 2.66 1.98 3 3 C3.99 3.66 4.98 4.32 6 5 C4.68 5 3.36 5 2 5 C2 8.3 2 11.6 2 15 C1.67 15 1.34 15 1 15 C0.92652344 14.06027344 0.92652344 14.06027344 0.8515625 13.1015625 C0.77679688 12.28429687 0.70203125 11.46703125 0.625 10.625 C0.55539063 9.81289062 0.48578125 9.00078125 0.4140625 8.1640625 C0.17107412 5.79665809 0.17107412 5.79665809 -2 4 C-1.34 4 -0.68 4 0 4 C0 2.68 0 1.36 0 0 Z " fill="#DFEFF6" transform="translate(62,174)"/>
<path d="M0 0 C0.66 0.33 1.32 0.66 2 1 C2.59355614 3.64860427 2.74209269 6.29197322 3 9 C1.35 9.66 -0.3 10.32 -2 11 C-2.33 10.01 -2.66 9.02 -3 8 C-2.34 7.34 -1.68 6.68 -1 6 C-0.60235737 4.01178687 -0.26224651 2.01055661 0 0 Z " fill="#6FBADA" transform="translate(157,181)"/>
<path d="M0 0 C0 0.33 0 0.66 0 1 C-0.928125 1.185625 -1.85625 1.37125 -2.8125 1.5625 C-6.23787197 3.10727559 -6.5205979 3.38621238 -7.875 6.625 C-8.24625 7.73875 -8.6175 8.8525 -9 10 C-9.33 10 -9.66 10 -10 10 C-10.21691118 6.81863606 -10.25066255 4.56030453 -8.9375 1.625 C-6.06052441 -0.78794727 -3.62340201 -0.2734643 0 0 Z " fill="#E1F0F7" transform="translate(58,178)"/>
<path d="M0 0 C0.66 0 1.32 0 2 0 C4 3 4 3 4 6 C2.02 6 0.04 6 -2 6 C-1.49396008 3.83125748 -1.00016187 2.00032373 0 0 Z " fill="#69B7D8" transform="translate(37,178)"/>
<path d="M0 0 C0.66 0 1.32 0 2 0 C3.35439668 2.70879335 3.06501451 5.00933268 3 8 C-0.3 8 -3.6 8 -7 8 C-6.67 7.01 -6.34 6.02 -6 5 C-6 5.66 -6 6.32 -6 7 C-3.36 7 -0.72 7 2 7 C1.67 6.401875 1.34 5.80375 1 5.1875 C0 3 0 3 0 0 Z " fill="#EBF5F9" transform="translate(40,178)"/>
<path d="M0 0 C0.66 0 1.32 0 2 0 C2 0.99 2 1.98 2 3 C2.66 3 3.32 3 4 3 C3.67 5.31 3.34 7.62 3 10 C2.01 10 1.02 10 0 10 C-1.6415049 6.7169902 -0.51888624 3.57454967 0 0 Z " fill="#6DB9D9" transform="translate(86,177)"/>
<path d="M0 0 C0.94875 0.04125 1.8975 0.0825 2.875 0.125 C2.875 0.785 2.875 1.445 2.875 2.125 C1.92625 2.41375 0.9775 2.7025 0 3 C-3.17711578 3.89325109 -3.17711578 3.89325109 -5.125 6.125 C-5.785 6.125 -6.445 6.125 -7.125 6.125 C-4.34782609 0.17391304 -4.34782609 0.17391304 0 0 Z " fill="#C9E5F1" transform="translate(166.125,176.875)"/>
<path d="M0 0 C0.66 0 1.32 0 2 0 C2 0.66 2 1.32 2 2 C5.3 1.67 8.6 1.34 12 1 C12 1.66 12 2.32 12 3 C8.7 3 5.4 3 2 3 C1.67 3.99 1.34 4.98 1 6 C0 5 0 5 -0.0625 2.4375 C-0.041875 1.633125 -0.02125 0.82875 0 0 Z " fill="#E4F1F7" transform="translate(89,182)"/>
<path d="M0 0 C0.33 0 0.66 0 1 0 C1 2.97 1 5.94 1 9 C2.65 9.33 4.3 9.66 6 10 C6 10.66 6 11.32 6 12 C4.35 12 2.7 12 1 12 C-0.26237731 9.47524538 -0.09856404 7.68799534 -0.0625 4.875 C-0.05347656 3.96492187 -0.04445312 3.05484375 -0.03515625 2.1171875 C-0.02355469 1.41851562 -0.01195312 0.71984375 0 0 Z " fill="#BEDFEE" transform="translate(173,180)"/>
<path d="M0 0 C0.66 0 1.32 0 2 0 C1.25 6.75 1.25 6.75 -1 9 C-2.0326802 6.21176345 -2.04509293 5.1322726 -1.0625 2.25 C-0.711875 1.5075 -0.36125 0.765 0 0 Z " fill="#C4E2EF" transform="translate(85,178)"/>
<path d="M0 0 C2.375 -0.125 2.375 -0.125 5 0 C7 2 7 2 7.125 4.625 C7.08375 5.40875 7.0425 6.1925 7 7 C6.4121875 6.0409375 6.4121875 6.0409375 5.8125 5.0625 C3.61527704 2.56221181 2.24208567 2.35049575 -1 2 C-0.67 1.34 -0.34 0.68 0 0 Z " fill="#D1E9F3" transform="translate(149,177)"/>
<path d="M0 0 C1.125 1.75 1.125 1.75 2 4 C1.4375 6.1875 1.4375 6.1875 0 8 C-2.625 8.75 -2.625 8.75 -5 9 C-5 8.34 -5 7.68 -5 7 C-4.01 6.67 -3.02 6.34 -2 6 C-0.77479736 2.99152582 -0.77479736 2.99152582 0 0 Z " fill="#BEE0EE" transform="translate(211,190)"/>
<path d="M0 0 C1.32 0.33 2.64 0.66 4 1 C4 1.99 4 2.98 4 4 C2.02 4 0.04 4 -2 4 C-1.34 2.68 -0.68 1.36 0 0 Z " fill="#68B7D8" transform="translate(150,179)"/>
<path d="M0 0 C-1 1 -1 1 -3.5625 1.0625 C-4.7690625 1.0315625 -4.7690625 1.0315625 -6 1 C-6.28875 1.598125 -6.5775 2.19625 -6.875 2.8125 C-8 5 -8 5 -10 8 C-9.25 2.25 -9.25 2.25 -7 0 C-2.48387097 -1.24193548 -2.48387097 -1.24193548 0 0 Z " fill="#7FC2DE" transform="translate(171,179)"/>
<path d="M0 0 C0.33 0 0.66 0 1 0 C1.66 2.97 2.32 5.94 3 9 C1.68 9.33 0.36 9.66 -1 10 C-1.33 8.35 -1.66 6.7 -2 5 C-1.34 5 -0.68 5 0 5 C0 3.35 0 1.7 0 0 Z " fill="#76BEDC" transform="translate(47,182)"/>
<path d="M0 0 C2.62386487 3.06117568 3 3.73173127 3 8 C2.01 7.67 1.02 7.34 0 7 C0 4.69 0 2.38 0 0 Z " fill="#D0E8F2" transform="translate(43,184)"/>
<path d="M0 0 C1.65 0 3.3 0 5 0 C5 0.99 5 1.98 5 3 C3.02 3 1.04 3 -1 3 C-0.67 2.01 -0.34 1.02 0 0 Z " fill="#5EB2D5" transform="translate(93,180)"/>
<path d="M0 0 C1.258125 -0.04125 2.51625 -0.0825 3.8125 -0.125 C4.52019531 -0.14820313 5.22789062 -0.17140625 5.95703125 -0.1953125 C8 0 8 0 11 2 C10.01 2.99 9.02 3.98 8 5 C7.67 3.68 7.34 2.36 7 1 C4.69 1 2.38 1 0 1 C0 0.67 0 0.34 0 0 Z " fill="#7EC1DD" transform="translate(137,177)"/>
</svg>
