<?xml version="1.0" encoding="UTF-8"?>
<svg version="1.1" xmlns="http://www.w3.org/2000/svg" width="800" height="720">
<path d="M0 0 C1.45440865 -0.00302324 2.90881571 -0.00691359 4.36321998 -0.01159257 C8.34676093 -0.02185927 12.33021174 -0.01969412 16.31376004 -0.01541197 C20.61519414 -0.0129423 24.91660667 -0.02196199 29.21803284 -0.02944946 C37.64051115 -0.04219238 46.06295759 -0.04399061 54.48544392 -0.0416492 C61.33345701 -0.0398652 68.18146042 -0.04161745 75.02947235 -0.04587364 C76.00462627 -0.04646883 76.9797802 -0.04706402 77.98448424 -0.04767724 C79.96562419 -0.04888902 81.94676415 -0.05010315 83.9279041 -0.05131962 C102.50376817 -0.06219388 121.07961407 -0.06003338 139.65547916 -0.05393478 C156.63768496 -0.04876739 173.61983336 -0.06001656 190.6020278 -0.07903299 C208.04973591 -0.09842051 225.49741688 -0.10666568 242.94513583 -0.10290974 C252.73646607 -0.10099887 262.52774747 -0.10347402 272.31906891 -0.11762428 C280.65590306 -0.12955078 288.99265835 -0.13092884 297.32949361 -0.11883412 C301.58009641 -0.11295396 305.83055503 -0.11182198 310.08114815 -0.12383652 C313.97853963 -0.1347243 317.87566706 -0.1315578 321.77304634 -0.11757483 C323.17677982 -0.11493581 324.58053419 -0.11726927 325.98424712 -0.1253107 C342.02149106 -0.21074589 359.20757432 3.53793018 371.71746826 14.26069641 C371.71746826 14.92069641 371.71746826 15.58069641 371.71746826 16.26069641 C372.52184326 16.60100891 372.52184326 16.60100891 373.34246826 16.94819641 C377.53030999 19.26253 380.96560581 21.72279594 383.09246826 26.07319641 C383.29871826 26.79507141 383.50496826 27.51694641 383.71746826 28.26069641 C384.37746826 28.26069641 385.03746826 28.26069641 385.71746826 28.26069641 C386.9508667 29.92207336 386.9508667 29.92207336 388.32684326 32.24897766 C388.83473389 33.1016925 389.34262451 33.95440735 389.86590576 34.83296204 C390.39442139 35.73723938 390.92293701 36.64151672 391.46746826 37.57319641 C392.23703857 38.86580383 392.23703857 38.86580383 393.02215576 40.18452454 C395.66978052 44.6582121 398.2288832 49.16862947 400.70184326 53.74116516 C403.73015306 59.33581402 406.95278881 64.80146997 410.21746826 70.26069641 C414.00229 76.58970949 417.66567318 82.95654727 421.17254639 89.44380188 C423.92357366 94.45981843 426.82506516 99.3877968 429.71746826 104.32319641 C430.30785889 105.33446594 430.89824951 106.34573547 431.50653076 107.38764954 C434.23315336 112.0511351 436.97851323 116.7003547 439.77996826 121.31929016 C442.38171014 125.63671712 444.79117956 130.04097632 447.18621826 134.47554016 C449.74950523 139.13784528 452.48707378 143.69490611 455.21746826 148.26069641 C459.00229 154.58970949 462.66567318 160.95654727 466.17254639 167.44380188 C468.92357366 172.45981843 471.82506516 177.3877968 474.71746826 182.32319641 C475.30785889 183.33446594 475.89824951 184.34573547 476.50653076 185.38764954 C479.75833984 190.94938908 483.04229442 196.48935246 486.38250732 201.99848938 C487.80538605 204.40968073 489.14413219 206.85614124 490.46746826 209.32319641 C493.47726386 214.9071593 496.68890932 220.36152241 499.93914795 225.80781555 C502.2378285 229.67726114 504.45007496 233.57965599 506.59246826 237.53804016 C509.8452212 243.53920296 513.26634121 249.43442831 516.71746826 255.32319641 C517.30785889 256.33446594 517.89824951 257.34573547 518.50653076 258.38764954 C521.2992399 263.16416637 524.11409598 267.92411536 526.98309326 272.65522766 C528.99470756 275.99737161 530.82051187 279.34580961 532.46746826 282.88569641 C535.30961231 288.69746854 538.65090476 294.09130785 542.11053467 299.5460968 C545.16602337 304.36401174 548.0289096 309.22784575 550.71746826 314.26069641 C551.37277359 315.43570292 552.02912108 316.61012852 552.68621826 317.78413391 C556.56193524 324.77967502 559.90725422 331.40646194 561.71746826 339.26069641 C561.88730225 339.83424866 562.05713623 340.4078009 562.2321167 340.99873352 C567.97591401 367.76748706 558.22929837 389.23544591 544.71746826 411.26069641 C543.170752 413.82016882 541.63158665 416.38415012 540.09246826 418.94819641 C539.72000977 419.56630188 539.34755127 420.18440735 538.96380615 420.82124329 C535.34812491 426.83531837 531.89458181 432.93472087 528.46942139 439.05879211 C525.02168569 445.22154498 521.53153259 451.33855371 517.81121826 457.34272766 C516.57274925 459.3694279 516.57274925 459.3694279 515.71746826 462.26069641 C515.05746826 462.26069641 514.39746826 462.26069641 513.71746826 462.26069641 C513.59976074 462.82893127 513.48205322 463.39716614 513.36077881 463.98262024 C512.65981581 466.4648539 511.66607994 468.45033944 510.42449951 470.70991516 C509.95850342 471.55876282 509.49250732 472.40761047 509.01239014 473.28218079 C508.52319092 474.16196594 508.0339917 475.0417511 507.52996826 475.94819641 C507.06010498 476.80864563 506.5902417 477.66909485 506.10614014 478.55561829 C503.76356615 482.79654009 501.33553694 486.90228355 498.60418701 490.90522766 C496.34821185 494.22161679 494.48694007 497.54951035 492.75457764 501.16157532 C490.68093635 505.35864872 488.29800914 509.39002592 485.96746826 513.44819641 C485.17892456 514.82660706 485.17892456 514.82660706 484.37445068 516.23286438 C480.75814105 522.52646938 477.02907474 528.73182656 473.14324951 534.86225891 C471.59520984 537.2725646 471.59520984 537.2725646 470.71746826 540.26069641 C470.05746826 540.26069641 469.39746826 540.26069641 468.71746826 540.26069641 C468.60725342 540.81628235 468.49703857 541.37186829 468.38348389 541.94429016 C465.64083544 551.48323756 458.64204226 560.53409287 453.57293701 569.01069641 C450.86996854 573.55219952 448.23054006 578.11101824 445.71746826 582.76069641 C442.18873855 589.28954192 438.38125926 595.64238556 434.57293701 602.01069641 C431.34834783 607.42862191 428.26051657 612.89766195 425.26239014 618.44380188 C422.51136286 623.45981843 419.60987136 628.3877968 416.71746826 633.32319641 C416.12707764 634.33446594 415.53668701 635.34573547 414.92840576 636.38764954 C411.67659668 641.94938908 408.39264211 647.48935246 405.0524292 652.99848938 C403.62956242 655.40966047 402.29119285 657.8563797 400.96746826 660.32319641 C387.11695826 685.87938678 387.11695826 685.87938678 380.71746826 692.26069641 C380.05746826 692.26069641 379.39746826 692.26069641 378.71746826 692.26069641 C378.71746826 692.92069641 378.71746826 693.58069641 378.71746826 694.26069641 C378.05746826 694.26069641 377.39746826 694.26069641 376.71746826 694.26069641 C376.4893042 694.83948547 376.26114014 695.41827454 376.02606201 696.01460266 C370.72843492 705.10754468 357.15904213 710.18794178 347.4961338 712.85501528 C333.17727409 716.41665513 318.45916453 715.83118737 303.80936146 715.78359509 C299.63748961 715.7744525 295.46568186 715.78855941 291.29382324 715.79951477 C283.14471879 715.81720743 274.99576253 715.81350158 266.84665251 715.80186421 C260.21774305 715.79279346 253.58887483 715.79162154 246.95996094 715.79595947 C246.0128725 715.7965724 245.06578407 715.79718534 244.08999598 715.79781684 C242.16539874 715.79909587 240.24080152 715.80039273 238.31620431 715.80170721 C220.31188296 715.8130859 202.30764336 715.800042 184.30333543 715.77850574 C168.88860443 715.76063724 153.47399396 715.76374211 138.05926514 715.78218079 C120.11493385 715.80363556 102.17067403 715.81198751 84.22633171 715.79973173 C82.30921301 715.79845767 80.39209431 715.79720018 78.47497559 715.79595947 C77.53196425 715.79534237 76.58895292 715.79472527 75.61736548 715.79408947 C69.00417006 715.79065036 62.39102036 715.79643369 55.77783203 715.80587769 C47.70744613 715.81715042 39.63721565 715.81394762 31.56684732 715.79275471 C27.45716466 715.78231472 23.34774016 715.77800035 19.23806 715.79135132 C-6.5311221 715.86791086 -28.74228407 715.01790873 -49.58721924 697.95991516 C-51.28253174 696.26069641 -51.28253174 696.26069641 -51.28253174 694.26069641 C-51.94253174 694.26069641 -52.60253174 694.26069641 -53.28253174 694.26069641 C-53.28253174 693.60069641 -53.28253174 692.94069641 -53.28253174 692.26069641 C-53.87364746 692.02230042 -54.46476318 691.78390442 -55.0737915 691.5382843 C-62.28151734 687.36916423 -66.74509508 676.35095273 -70.84503174 669.32319641 C-71.65230713 667.95517883 -71.65230713 667.95517883 -72.47589111 666.55952454 C-75.15456311 661.99836825 -77.76253854 657.40969183 -80.27862549 652.75679016 C-83.30339617 647.17026949 -86.52238313 641.71234634 -89.78253174 636.26069641 C-93.54880657 629.96269765 -97.19231304 623.62730765 -100.67999268 617.17085266 C-102.45300578 613.95112137 -104.2931592 610.77671477 -106.14971924 607.60444641 C-106.80714111 606.48038391 -107.46456299 605.35632141 -108.14190674 604.19819641 C-109.16035407 602.46130949 -110.17893196 600.72448987 -111.20343018 598.99116516 C-112.21222341 597.28237361 -113.21236437 595.56848334 -114.21221924 593.85444641 C-114.80244873 592.85091125 -115.39267822 591.8473761 -116.00079346 590.81343079 C-117.28253174 588.26069641 -117.28253174 588.26069641 -117.28253174 585.26069641 C-117.94253174 585.26069641 -118.60253174 585.26069641 -119.28253174 585.26069641 C-119.64024658 584.593526 -119.99796143 583.92635559 -120.36651611 583.2389679 C-124.00911659 576.49626938 -127.83923254 569.89342277 -131.78253174 563.32319641 C-135.76883793 556.63943187 -139.54049787 549.98511931 -142.90362549 542.96772766 C-145.07553222 538.70389943 -147.64543525 534.70111158 -150.18878174 530.65132141 C-153.12788128 525.89173483 -155.87058005 521.03088965 -158.61846924 516.15913391 C-159.77091545 514.15182149 -160.9986152 512.18657122 -162.28253174 510.26069641 C-162.28253174 509.27069641 -162.28253174 508.28069641 -162.28253174 507.26069641 C-162.94253174 507.26069641 -163.60253174 507.26069641 -164.28253174 507.26069641 C-164.64604736 506.49886047 -165.00956299 505.73702454 -165.38409424 504.95210266 C-168.19020387 499.18878518 -171.13291211 493.79947056 -174.78253174 488.53413391 C-177.0147423 485.15093978 -178.8743205 481.58752943 -180.78253174 478.01460266 C-182.21593072 475.38297171 -183.72485598 472.82031464 -185.28253174 470.26069641 C-187.34313058 466.87085116 -189.28495825 463.44535393 -191.15753174 459.94819641 C-193.43084052 455.72462799 -195.86962356 451.64324916 -198.40753174 447.57319641 C-200.89006947 443.58708394 -203.15061181 439.63973167 -205.16534424 435.40522766 C-206.989566 431.90348729 -209.12767211 428.59521456 -211.22003174 425.24897766 C-213.89821226 420.94405045 -216.32828667 416.54698078 -218.71612549 412.07710266 C-220.49258339 408.88302249 -222.40640725 405.796372 -224.34503174 402.69819641 C-227.65728977 397.33549292 -230.81703123 392.06909975 -233.28253174 386.26069641 C-233.6756958 385.36608704 -234.06885986 384.47147766 -234.47393799 383.54975891 C-237.57029709 374.98352503 -237.67182655 366.60911655 -237.72003174 357.57319641 C-237.73010254 356.3378717 -237.74017334 355.102547 -237.75054932 353.82978821 C-237.64554289 342.71623575 -235.26758678 333.50910044 -230.40753174 323.57319641 C-230.08139893 322.87903625 -229.75526611 322.1848761 -229.41925049 321.46968079 C-227.38568738 317.22451889 -225.09839281 313.24051258 -222.56329346 309.27656555 C-220.38253868 305.84414234 -218.33917562 302.33090794 -216.28253174 298.82319641 C-215.84682861 298.08109924 -215.41112549 297.33900208 -214.96221924 296.57441711 C-211.24100358 290.22035781 -207.54760093 283.86371581 -204.28253174 277.26069641 C-203.62253174 277.26069641 -202.96253174 277.26069641 -202.28253174 277.26069641 C-202.17231689 276.5311676 -202.06210205 275.80163879 -201.94854736 275.05000305 C-201.24476502 272.10252749 -200.23708061 270.18533307 -198.62628174 267.63179016 C-198.08616455 266.76151184 -197.54604736 265.89123352 -196.98956299 264.99458313 C-196.42624268 264.09240051 -195.86292236 263.1902179 -195.28253174 262.26069641 C-194.20468066 260.46286429 -193.1317773 258.66205684 -192.06378174 256.85835266 C-191.52366455 255.94763 -190.98354736 255.03690735 -190.42706299 254.09858704 C-189.88436768 253.18270813 -189.34167236 252.26682922 -188.78253174 251.32319641 C-187.96848877 249.95517883 -187.96848877 249.95517883 -187.13800049 248.55952454 C-184.43755872 243.99970938 -181.80276859 239.41889717 -179.28253174 234.75679016 C-175.75269918 228.22996279 -171.94568635 221.87794308 -168.13800049 215.51069641 C-164.91601117 210.09713918 -161.82809994 204.63342249 -158.83233643 199.0917511 C-156.02973608 193.97219319 -153.08600797 188.93395152 -150.15753174 183.88569641 C-145.93421289 176.58978718 -141.72110499 169.28883285 -137.5569458 161.9589386 C-132.64870696 153.31952019 -127.63597686 144.75446178 -122.46539307 136.26899719 C-119.4362901 131.27620355 -116.60336646 126.20502016 -113.82696533 121.06782532 C-110.74370479 115.46375802 -107.42039299 109.99954277 -104.13800049 104.51069641 C-100.91437228 99.09438553 -97.82872218 93.62664562 -94.83184814 88.08198547 C-92.06346792 83.04079387 -89.13460847 78.0933188 -86.22003174 73.13569641 C-82.59745764 66.96679198 -78.99424338 60.79473849 -75.5401001 54.52973938 C-73.09909058 50.12540189 -70.59299168 45.75789823 -68.09503174 41.38569641 C-67.29549072 39.98190735 -67.29549072 39.98190735 -66.47979736 38.54975891 C-65.96739502 37.65257141 -65.45499268 36.75538391 -64.92706299 35.83100891 C-64.46662598 35.02421692 -64.00618896 34.21742493 -63.53179932 33.38618469 C-62.50678036 31.64223021 -61.40462334 29.94383382 -60.28253174 28.26069641 C-59.62253174 28.26069641 -58.96253174 28.26069641 -58.28253174 28.26069641 C-58.11753174 27.58007141 -57.95253174 26.89944641 -57.78253174 26.19819641 C-55.59261241 21.90960438 -52.16252175 19.06560586 -48.28253174 16.26069641 C-47.62253174 16.26069641 -46.96253174 16.26069641 -46.28253174 16.26069641 C-46.28253174 15.60069641 -46.28253174 14.94069641 -46.28253174 14.26069641 C-41.44542067 10.36431128 -36.59543432 7.84540769 -30.84503174 5.57319641 C-30.13282471 5.27864563 -29.42061768 4.98409485 -28.68682861 4.68061829 C-18.96260089 0.75029918 -10.44150693 -0.03077824 0 0 Z " fill="#4285FA" transform="translate(237.28253173828125,-0.2606964111328125)"/>
<path d="M0 0 C7.875 6.75 7.875 6.75 10.50067043 9.3776226 C11.10330162 9.97826275 11.70593282 10.57890289 12.32682556 11.19774425 C12.96400593 11.83783746 13.6011863 12.47793068 14.25767517 13.13742065 C14.95377649 13.83266755 15.64987782 14.52791445 16.36707312 15.24422944 C18.68321081 17.55872889 20.99577221 19.87676785 23.30834961 22.19482422 C24.9741707 23.86092756 26.64021238 25.52681037 28.30645752 27.19248962 C32.81847138 31.70421701 37.32739903 36.21901725 41.83577418 40.73438025 C46.07372388 44.97795385 50.31398553 49.21921554 54.55423398 53.46049191 C62.94900388 61.85744675 71.34154134 70.25662915 79.73266602 78.65722656 C87.88057812 86.81432723 96.02954696 94.97036984 104.17993164 103.125 C104.68289483 103.62822591 105.18585802 104.13145182 105.70406251 104.64992701 C108.22745888 107.17462847 110.75087595 109.69930924 113.27430332 112.22397971 C134.1860801 133.14611173 155.0941932 154.07190263 176 175 C174.74437758 178.87889305 173.41115452 182.33852109 171.375 185.875 C170.92898438 186.65617188 170.48296875 187.43734375 170.0234375 188.2421875 C169.68570313 188.82226562 169.34796875 189.40234375 169 190 C168.34 190 167.68 190 167 190 C166.88229248 190.56823486 166.76458496 191.13646973 166.64331055 191.72192383 C165.94234755 194.20415749 164.94861168 196.18964303 163.70703125 198.44921875 C163.24103516 199.29806641 162.77503906 200.14691406 162.29492188 201.02148438 C161.80572266 201.90126953 161.31652344 202.78105469 160.8125 203.6875 C160.10770508 204.97817383 160.10770508 204.97817383 159.38867188 206.29492188 C157.04609789 210.53584368 154.61806868 214.64158714 151.88671875 218.64453125 C149.63074359 221.96092038 147.76947181 225.28881394 146.03710938 228.90087891 C143.96346809 233.0979523 141.58054088 237.12932951 139.25 241.1875 C138.4614563 242.56591064 138.4614563 242.56591064 137.65698242 243.97216797 C134.04067279 250.26577297 130.31160648 256.47113015 126.42578125 262.6015625 C124.87774158 265.01186819 124.87774158 265.01186819 124 268 C123.34 268 122.68 268 122 268 C121.83467773 268.83337891 121.83467773 268.83337891 121.66601562 269.68359375 C118.92336717 279.22254115 111.924574 288.27339645 106.85546875 296.75 C104.15250028 301.29150311 101.5130718 305.85032183 99 310.5 C95.47127029 317.02884551 91.663791 323.38168915 87.85546875 329.75 C84.63087957 335.1679255 81.54304831 340.63696554 78.54492188 346.18310547 C75.7938946 351.19912202 72.8924031 356.12710038 70 361.0625 C69.40960937 362.07376953 68.81921875 363.08503906 68.2109375 364.12695312 C64.95912842 369.68869267 61.67517384 375.22865605 58.33496094 380.73779297 C56.91209416 383.14896406 55.57372459 385.59568329 54.25 388.0625 C40.39949 413.61869037 40.39949 413.61869037 34 420 C33.34 420 32.68 420 32 420 C32 420.66 32 421.32 32 422 C31.34 422 30.68 422 30 422 C29.65775391 422.86818359 29.65775391 422.86818359 29.30859375 423.75390625 C24.0129706 432.84340867 10.45010957 437.92046605 0.79325569 440.59756112 C-13.60922613 444.19072825 -28.43632778 443.54108319 -43.17196965 443.46426249 C-47.38027979 443.44680653 -51.5885693 443.45284686 -55.79690552 443.45587158 C-63.06817692 443.45795761 -70.3393035 443.44552757 -77.61053848 443.42292023 C-88.12318544 443.39025633 -98.63576317 443.37997858 -109.14845537 443.37496826 C-126.20919862 443.36623804 -143.26986489 443.33968451 -160.33056641 443.30175781 C-176.89241148 443.26497863 -193.45423555 443.23669587 -210.01611328 443.21972656 C-211.55030947 443.21815022 -211.55030947 443.21815022 -213.11549951 443.21654204 C-218.24714847 443.21132146 -223.37879758 443.20626673 -228.51044679 443.20129442 C-271.00701781 443.15990326 -313.50350491 443.08951718 -356 443 C-356 442.67 -356 442.34 -356 442 C-228.29 441.505 -228.29 441.505 -98 441 C-117.34625 421.66535156 -136.6925 402.33070313 -156.625 382.41015625 C-168.8388161 370.20144626 -181.05250951 357.99261391 -193.265625 345.78320312 C-199.67769614 339.37309001 -206.08979853 332.96300815 -212.50195312 326.55297852 C-213.3056677 325.74952769 -214.10938228 324.94607686 -214.93745184 324.11827904 C-227.93152562 311.12856062 -240.92736419 298.14060919 -253.92384934 285.15330345 C-267.25080023 271.83568726 -280.57586705 258.51618816 -293.89916801 245.19492048 C-302.12768923 236.96777488 -310.35769584 228.7421209 -318.58957815 220.51833832 C-324.22592224 214.88725942 -329.8604437 209.25436112 -335.49350405 203.61999733 C-338.74886215 200.36399549 -342.00504759 197.10883191 -345.26338959 193.85581589 C-348.24100623 190.88303116 -351.21634907 187.90799097 -354.18982959 184.93106931 C-355.27104522 183.84942778 -356.35312309 182.76864739 -357.43610692 181.68877626 C-358.89788382 180.23095982 -360.35660752 178.77015808 -361.81454468 177.30850315 C-362.62866507 176.49476248 -363.44278545 175.68102182 -364.28157616 174.84262234 C-366 173 -366 173 -366 172 C-355.11 172 -344.22 172 -333 172 C-333 149.23 -333 126.46 -333 103 C-321.78 103 -310.56 103 -299 103 C-299 125.77 -299 148.54 -299 172 C-287.45 172 -275.9 172 -264 172 C-264.08542506 153.31101161 -264.17900485 134.62212246 -264.28752708 115.9332552 C-264.33765324 107.25573299 -264.38409618 98.57822023 -264.421875 89.90063477 C-264.45481156 82.33743444 -264.49465201 74.77430743 -264.54279006 67.21118802 C-264.56803849 63.20641629 -264.58982467 59.2016931 -264.60334396 55.19686317 C-264.61617935 51.42693808 -264.63824964 47.65717955 -264.66738319 43.88734627 C-264.67644743 42.50427807 -264.68214652 41.12118306 -264.68421364 39.7380867 C-264.68754415 37.84804296 -264.70421202 35.95803682 -264.7215271 34.06806946 C-264.72705786 33.01077291 -264.73258862 31.95347635 -264.73828697 30.86414051 C-265.0109281 27.88040479 -265.82099693 25.73383538 -267 23 C-267.125 20.1875 -267.125 20.1875 -267 18 C-263.98984706 19.3510265 -261.88032534 20.86335687 -259.546875 23.1875 C-258.928125 23.80367188 -258.309375 24.41984375 -257.671875 25.0546875 C-257.03765625 25.69664062 -256.4034375 26.33859375 -255.75 27 C-254.77546875 27.96292969 -254.77546875 27.96292969 -253.78125 28.9453125 C-253.16765625 29.56148438 -252.5540625 30.17765625 -251.921875 30.8125 C-251.08027832 31.65748047 -251.08027832 31.65748047 -250.22167969 32.51953125 C-249 34 -249 34 -249 36 C-248.401875 36.268125 -247.80375 36.53625 -247.1875 36.8125 C-245.00152146 37.99917406 -243.58667406 39.09599113 -242 41 C-242 41.66 -242 42.32 -242 43 C-241.360625 43.268125 -240.72125 43.53625 -240.0625 43.8125 C-238 45 -238 45 -237 48 C-236.34 48 -235.68 48 -235 48 C-235 48.66 -235 49.32 -235 50 C-234.360625 50.268125 -233.72125 50.53625 -233.0625 50.8125 C-231 52 -231 52 -230 55 C-229.34 55 -228.68 55 -228 55 C-228 93.61 -228 132.22 -228 172 C-216.12 172 -204.24 172 -192 172 C-192 149.23 -192 126.46 -192 103 C-173.25 102.8125 -173.25 102.8125 -167.41113281 102.79223633 C-154.38103364 102.62708145 -143.75677029 100.67374758 -133.9765625 91.3203125 C-128.51518992 84.909136 -124.90956368 77.73836559 -124.83886719 69.2824707 C-124.82925964 68.35082596 -124.8196521 67.41918121 -124.80975342 66.45930481 C-124.80550354 65.45824203 -124.80125366 64.45717926 -124.796875 63.42578125 C-124.79117493 62.38737595 -124.78547485 61.34897064 -124.77960205 60.27909851 C-124.77015967 58.08101416 -124.7636211 55.8829157 -124.75976562 53.68481445 C-124.75008645 50.34235504 -124.71906617 47.0005176 -124.6875 43.65820312 C-124.68096681 41.5182328 -124.67571758 39.3782581 -124.671875 37.23828125 C-124.6533548 35.75186882 -124.6533548 35.75186882 -124.63446045 34.23542786 C-124.65434429 27.9583716 -125.61772994 22.81477549 -128 17 C-116.01980033 22.27033082 -105.26850698 34.43663202 -95.75 43.25 C-95.09043304 43.85927338 -94.43086609 44.46854675 -93.75131226 45.09628296 C-77.48039721 60.26118224 -64.95062412 73.80100625 -64.09051514 96.83673096 C-64.02632644 101.07252893 -64.20954942 105.27495258 -64.5 109.5 C-64.54767014 110.19358109 -64.59534027 110.88716217 -64.64445496 111.60176086 C-65.2813481 120.1840102 -66.55466467 128.48858086 -68 137 C-78.89 137 -89.78 137 -101 137 C-101 148.55 -101 160.1 -101 172 C-67.67 172 -34.34 172 0 172 C0 160.45 0 148.9 0 137 C-10.89 137 -21.78 137 -33 137 C-33 102.68 -33 68.36 -33 33 C-22.11 33 -11.22 33 0 33 C0 22.11 0 11.22 0 0 Z " fill="#3F79DE" transform="translate(584,272)"/>
<path d="M0 0 C0.91560699 -0.00524185 1.83121399 -0.0104837 2.77456665 -0.0158844 C4.69898471 -0.02226737 6.62344198 -0.02101631 8.54785156 -0.01245117 C11.46230898 -0.00394784 14.37479827 -0.03274428 17.2890625 -0.06445312 C32.00521853 -0.12037754 43.1839167 1.62559114 54.0078125 12.31640625 C60.63920687 19.48168406 64.23036295 26.57067953 64.22181702 36.38140869 C64.22387901 38.20711395 64.22387901 38.20711395 64.22598267 40.06970215 C64.22244379 41.41528345 64.21880898 42.7608645 64.21508789 44.10644531 C64.21480577 45.52573647 64.21496425 46.94502777 64.2155304 48.36431885 C64.21581739 52.21521162 64.20993649 56.06607327 64.20295644 59.91695881 C64.19670659 63.94217585 64.19611781 67.9673936 64.19493103 71.99261475 C64.19182253 79.61400458 64.18361562 87.23538008 64.17358154 94.8567636 C64.16240547 103.53383561 64.15690618 112.2109083 64.15188611 120.88798571 C64.14143262 138.7365315 64.1230931 156.58505764 64.1015625 174.43359375 C52.5515625 174.43359375 41.0015625 174.43359375 29.1015625 174.43359375 C29.1015625 151.66359375 29.1015625 128.89359375 29.1015625 105.43359375 C17.8815625 105.43359375 6.6615625 105.43359375 -4.8984375 105.43359375 C-4.8984375 128.20359375 -4.8984375 150.97359375 -4.8984375 174.43359375 C-16.4484375 174.43359375 -27.9984375 174.43359375 -39.8984375 174.43359375 C-39.98887859 155.84829821 -40.06250121 137.26318202 -40.10568619 118.67772198 C-40.12627444 110.04735601 -40.15432317 101.41713691 -40.20019531 92.78686523 C-40.24017797 85.26101335 -40.26589746 77.73526789 -40.27479148 70.20931274 C-40.27998698 66.22768683 -40.29211935 62.24636524 -40.32135773 58.26483727 C-40.34870803 54.50964132 -40.35684342 50.7548722 -40.35086823 46.99958611 C-40.35247635 44.97988282 -40.37389572 42.96022497 -40.39611816 40.94064331 C-40.34214774 28.89975317 -37.69761731 20.34819061 -29.2578125 11.66015625 C-20.37624152 3.27854125 -12.26525332 -0.04188668 0 0 Z " fill="#FBFCFE" transform="translate(255.8984375,269.56640625)"/>
<path d="M0 0 C0.91843689 -0.0066568 1.83687378 -0.0133136 2.78314209 -0.02017212 C4.71950288 -0.03025712 6.65589813 -0.03499043 8.59228516 -0.03466797 C11.52435929 -0.03902901 14.45491152 -0.07535934 17.38671875 -0.11328125 C30.87890896 -0.19501812 41.94290475 0.82393846 52.296875 10.3359375 C58.7094042 16.79310147 63.36125384 23.72876453 63.47387695 33.03759766 C63.49312981 34.43022324 63.49312981 34.43022324 63.51277161 35.85098267 C63.52015854 36.84890839 63.52754547 37.84683411 63.53515625 38.875 C63.543228 39.91103363 63.55129974 40.94706726 63.55961609 42.01449585 C63.5734406 44.20837744 63.58417005 46.40228038 63.59204102 48.59619141 C63.603542 50.82867785 63.62396373 53.06113721 63.65356445 55.29345703 C63.69646113 58.52916036 63.71244272 61.76404677 63.72265625 65 C63.74016434 65.98578033 63.75767242 66.97156067 63.77571106 67.98721313 C63.74062161 79.34955163 59.35318963 87.75027917 51.77734375 95.98828125 C42.6471727 104.71859079 31.92194795 105.9515351 19.88574219 105.78637695 C17.95891602 105.74085693 16.03208984 105.69533691 14.046875 105.6484375 C7.859375 105.5453125 1.671875 105.4421875 -4.703125 105.3359375 C-4.703125 128.1059375 -4.703125 150.8759375 -4.703125 174.3359375 C-16.253125 174.3359375 -27.803125 174.3359375 -39.703125 174.3359375 C-39.83881928 155.50713894 -39.94923872 136.67873923 -40.01399803 117.84957504 C-40.04487258 109.10591821 -40.08692967 100.36258785 -40.15576172 91.61914062 C-40.21576091 83.99402837 -40.25432063 76.36915267 -40.26765597 68.74381089 C-40.27544531 64.71001014 -40.29361569 60.67688582 -40.33750534 56.64330292 C-40.37857229 52.8378997 -40.39072657 49.03344421 -40.38177109 45.22784042 C-40.38340669 43.83957879 -40.39513869 42.45128175 -40.41835785 41.06321335 C-40.61286406 28.82343239 -37.15920219 19.0824354 -28.6875 10.0859375 C-20.05668569 2.47451071 -11.21675072 0.02869697 0 0 Z " fill="#FCFDFE" transform="translate(396.703125,269.6640625)"/>
<path d="M0 0 C33.33 0 66.66 0 101 0 C101 11.55 101 23.1 101 35 C90.11 35 79.22 35 68 35 C68 69.32 68 103.64 68 139 C78.89 139 89.78 139 101 139 C101 150.55 101 162.1 101 174 C67.67 174 34.34 174 0 174 C0 162.45 0 150.9 0 139 C10.89 139 21.78 139 33 139 C33 104.68 33 70.36 33 35 C22.11 35 11.22 35 0 35 C0 23.45 0 11.9 0 0 Z " fill="#FAFCFE" transform="translate(483,270)"/>
<path d="M0 0 C11.55 0 23.1 0 35 0 C35 12.21 35 24.42 35 37 C23.45 37 11.9 37 0 37 C0 24.79 0 12.58 0 0 Z " fill="#4880E0" transform="translate(391,304)"/>
<path d="M0 0 C11.22 0 22.44 0 34 0 C34 11.55 34 23.1 34 35 C22.78 35 11.56 35 0 35 C0 23.45 0 11.9 0 0 Z " fill="#407ADF" transform="translate(251,305)"/>
<path d="M0 0 C10.23 0 20.46 0 31 0 C31 10.23 31 20.46 31 31 C26.51378722 27.15467476 22.21724509 23.36724569 18.06640625 19.19921875 C17.28220558 18.41645317 17.28220558 18.41645317 16.48216248 17.61787415 C15.39288699 16.52927222 14.30484521 15.43943447 13.21801758 14.34838867 C11.54557806 12.67052316 9.86777456 10.99815174 8.18945312 9.32617188 C7.1272828 8.2633419 6.0654221 7.20020239 5.00390625 6.13671875 C4.24938927 5.38523811 4.24938927 5.38523811 3.47962952 4.61857605 C0 1.11499316 0 1.11499316 0 0 Z " fill="#407ADF" transform="translate(485,305)"/>
</svg>
