<?xml version="1.0" encoding="UTF-8"?>
<svg version="1.1" xmlns="http://www.w3.org/2000/svg" width="500" height="500">
<path d="M0 0 C1.28079262 -0.00538554 2.56158524 -0.01077108 3.88118976 -0.01631981 C7.3974183 -0.03064434 10.91340987 -0.02657102 14.42965066 -0.019153 C18.23679833 -0.01439121 22.04389691 -0.02695741 25.85102844 -0.03717041 C33.29358733 -0.05430365 40.73606159 -0.05521006 48.17863507 -0.04995751 C54.23038553 -0.04590526 60.28211111 -0.04737183 66.3338604 -0.05270576 C67.19732242 -0.05345419 68.06078445 -0.05420261 68.95041199 -0.05497371 C70.70486427 -0.05650528 72.45931656 -0.05804363 74.21376883 -0.05958868 C90.63887811 -0.07329324 107.06393965 -0.06788984 123.48904782 -0.05640347 C138.49866966 -0.04646748 153.50816829 -0.05942171 168.51777113 -0.08333766 C183.95422284 -0.10774731 199.3906172 -0.1173323 214.82708782 -0.11068493 C223.48376643 -0.1071976 232.14035027 -0.10939293 240.79701424 -0.12693596 C248.1639144 -0.14168106 255.53065298 -0.142263 262.89755005 -0.12486505 C266.65204726 -0.11637269 270.40625608 -0.11416204 274.16073799 -0.1295166 C278.23955214 -0.14599052 282.31767514 -0.13117171 286.39648438 -0.11352539 C287.57052954 -0.1231304 288.7445747 -0.1327354 289.95419699 -0.14263147 C303.30193304 -0.02420702 314.94073604 4.453733 324.88865662 13.41893005 C331.40012809 20.23929487 335.68031756 28.40005611 338.00975037 37.51268005 C338.59176265 39.66770995 338.59176265 39.66770995 339.63475037 41.38768005 C342.96205073 42.72822942 342.96205073 42.72822942 345.39256287 43.0165863 C352.7902056 44.24093484 359.02442949 48.6528918 364.63475037 53.38768005 C365.2315863 53.86592224 365.82842224 54.34416443 366.44334412 54.8368988 C373.08858681 60.71253656 378.45057587 70.39987174 379.57225037 79.26268005 C379.60318787 80.80955505 379.60318787 80.80955505 379.63475037 82.38768005 C380.37338318 82.3412738 381.11201599 82.29486755 381.87303162 82.24705505 C394.62362404 81.79341263 404.15478897 85.8557148 413.63475037 94.38768005 C426.83570937 108.60750502 426.21583199 124.74695084 426.13645935 143.00535583 C426.14024704 145.49186 426.14575078 147.97836204 426.15283203 150.46485901 C426.16530243 156.49142896 426.15926218 162.51771462 426.14415645 168.54425682 C426.12721159 175.57469054 426.13051716 182.60507295 426.13425053 189.6355208 C426.14011578 202.18527383 426.126009 214.73492621 426.1013031 227.28465271 C426.077376 239.44029002 426.07030455 251.59579295 426.08079529 263.75144958 C426.09222325 277.01667075 426.09411219 290.28182992 426.07969719 303.54705036 C426.07817149 304.96336738 426.07665113 306.3796844 426.07513618 307.79600143 C426.07437837 308.49270277 426.07362056 309.1894041 426.07283978 309.9072176 C426.06811225 314.79889897 426.0699374 319.6905525 426.07420158 324.58223343 C426.07966327 331.17333069 426.06881411 337.76426985 426.04724693 344.35534286 C426.04169758 346.76956304 426.04119668 349.18380109 426.0461998 351.59802246 C426.05218673 354.90206392 426.03958189 358.20554557 426.02243042 361.50953674 C426.03144549 362.93062483 426.03144549 362.93062483 426.04064268 364.38042176 C425.9227935 376.92875172 421.9792603 387.89452786 413.38475037 397.13768005 C401.3509233 408.25389504 387.15967499 409.85503544 371.30731201 409.76190186 C369.92125765 409.76465024 368.53520538 409.76870894 367.14915818 409.77394551 C363.38241473 409.78442703 359.61591223 409.7764728 355.84917963 409.76519501 C351.77077605 409.75628775 347.69240181 409.76481512 343.61399841 409.77105713 C335.64183819 409.78050865 327.66976897 409.77397779 319.69761554 409.76179419 C310.40354209 409.74812313 301.10948992 409.74981648 291.81540897 409.75192752 C275.22872226 409.75511195 258.64207861 409.74348012 242.05540466 409.72386169 C225.97791738 409.70485067 209.90048051 409.69777725 193.82298279 409.70335388 C176.29077357 409.70941716 158.75858648 409.70922526 141.2263791 409.69786805 C139.35566374 409.69666082 137.48494838 409.69545484 135.61423302 409.69425011 C134.69393374 409.69364657 133.77363446 409.69304303 132.82544732 409.6924212 C126.35379616 409.68854911 119.88215325 409.68893289 113.41050148 409.69083595 C105.52138241 409.69296207 97.63230738 409.68770207 89.7432007 409.6732224 C85.72156694 409.66599931 81.69999721 409.66188355 77.67835808 409.66646576 C73.99163126 409.6705641 70.30503622 409.66531491 66.61832931 409.65283968 C64.66467913 409.64855928 62.71101497 409.65397779 60.75736886 409.65982896 C46.41086206 409.58893315 33.76657962 407.36578669 22.82225037 397.38768005 C15.45494452 389.42991618 10.45773133 379.36286059 10.63475037 368.38768005 C9.5093988 368.24072693 9.5093988 368.24072693 8.36131287 368.09080505 C-5.85710944 366.01355444 -16.90441296 360.7238457 -26.05665588 349.2900238 C-30.76566565 342.4443887 -33.19751202 335.57927226 -34.36524963 327.38768005 C-35.10388245 327.24072693 -35.84251526 327.0937738 -36.60353088 326.94236755 C-50.64197523 323.83856919 -60.95506329 317.44959796 -69.32963943 305.610672 C-75.73012882 294.43470381 -75.34366234 283.60314014 -75.23927307 270.98924255 C-75.24549389 268.64538124 -75.25472179 266.30152629 -75.26670837 263.95768738 C-75.28996452 257.62690047 -75.2695604 251.29695615 -75.23966503 244.96622467 C-75.21695274 238.99603193 -75.22373698 233.02589138 -75.22899726 227.05567384 C-75.23804087 215.2241456 -75.21234159 203.39294532 -75.16798401 191.56150818 C-75.1250674 180.11217471 -75.11089523 168.66325568 -75.12696838 157.21385193 C-75.14448312 144.71031753 -75.14611991 132.20697033 -75.12038445 119.70344353 C-75.10687607 113.09792936 -75.09923976 106.49253778 -75.10785675 99.88700867 C-75.11454455 93.67492653 -75.09612535 87.46339561 -75.05884171 81.2514267 C-75.04908913 78.98038515 -75.04766727 76.70928909 -75.05548477 74.43824005 C-75.12057248 52.57109297 -70.23031101 37.14828595 -54.90040588 20.7665863 C-39.57731419 6.38790704 -20.81342723 -0.10674868 0 0 Z " fill="#070708" transform="translate(74.36524963378906,45.61231994628906)"/>
<path d="M0 0 C1.18539405 -0.00445784 2.3707881 -0.00891569 3.59210318 -0.01350862 C5.55519359 -0.01323207 5.55519359 -0.01323207 7.55794239 -0.01294994 C8.95726318 -0.0162487 10.35658302 -0.01997429 11.75590163 -0.02409142 C15.61021522 -0.03411825 19.46451322 -0.03782931 23.318838 -0.04048073 C27.47235806 -0.04438176 31.62586576 -0.05396024 35.77937794 -0.0626936 C45.81458682 -0.08246368 55.84979673 -0.09252489 65.88502023 -0.10142139 C70.60944845 -0.10580338 75.33387555 -0.11117042 80.05830288 -0.11641026 C95.76109268 -0.13342305 111.46388178 -0.14791759 127.16667938 -0.155159 C131.24239764 -0.15706893 135.31811588 -0.15898925 139.39383411 -0.16094494 C140.40684815 -0.16142868 141.41986218 -0.16191242 142.46357361 -0.16241082 C158.87652393 -0.17071246 175.28940139 -0.19605143 191.70231988 -0.22852562 C208.54867983 -0.26158597 225.39500274 -0.27960683 242.24139529 -0.28280324 C251.70182233 -0.28496928 261.16214313 -0.2937317 270.62253857 -0.31926441 C278.67891262 -0.34095742 286.73515464 -0.34902873 294.79155459 -0.33929763 C298.90193562 -0.33474886 303.01204413 -0.3366725 307.12238789 -0.35605907 C310.8872195 -0.37366263 314.65157924 -0.37271619 318.41641567 -0.35716178 C320.41955628 -0.35365594 322.42270169 -0.36983296 324.4257738 -0.38676625 C333.77365996 -0.3198345 340.42567694 1.42006043 347.343297 8.13422108 C348.80397118 11.05556942 349.60390989 13.96541916 350.343297 17.13422108 C350.673297 18.12422108 351.003297 19.11422108 351.343297 20.13422108 C351.4353014 22.29027998 351.46523091 24.44914686 351.46355152 26.60716724 C351.46483316 27.59719005 351.46483316 27.59719005 351.46614069 28.60721332 C351.46779022 30.8228677 351.46228273 33.03844669 351.4568224 35.25409412 C351.45654038 36.84072334 351.45669853 38.42735268 351.4572649 40.01398182 C351.45755233 44.32566152 351.45166435 48.63731352 351.44469094 52.94898677 C351.43844839 57.45334181 351.43785289 61.95769746 351.43666553 66.46205616 C351.43355489 74.99366891 351.42534507 83.52526888 351.41531605 92.056876 C351.40414666 101.76897186 351.39864237 111.48106832 351.39362061 121.193169 C351.38316225 141.17352683 351.36556794 161.15387315 351.343297 181.13422108 C348.23835076 179.62214839 345.56347973 177.93885038 342.780797 175.88422108 C341.81915638 175.17652576 340.85751575 174.46883045 339.8667345 173.73968983 C339.31856068 173.33411854 338.77038685 172.92854725 338.20560169 172.51068592 C336.08004915 170.93964958 333.95009407 169.37468397 331.8198595 167.81000233 C330.61704334 166.92550404 330.61704334 166.92550404 329.38992786 166.02313709 C327.72995006 164.80266594 326.06930192 163.58310602 324.40799427 162.36444569 C320.82677246 159.73105842 317.25843611 157.09173084 313.76907825 154.33734608 C303.58342906 146.35576182 295.45275812 143.69331048 282.343297 145.13422108 C275.45530799 146.69692327 270.34910566 149.83699372 264.780797 154.07172108 C264.00703724 154.64511219 263.23327747 155.2185033 262.43607044 155.80926991 C260.06265414 157.57238607 257.70196096 159.35143484 255.343297 161.13422108 C253.93356501 162.19207835 252.52342618 163.24939375 251.11282825 164.30609608 C249.11312288 165.80551415 247.11423273 167.30594294 245.11819935 168.81024647 C235.72551571 175.88120918 226.14823183 182.64718034 216.343297 189.13422108 C213.33498204 186.15092088 210.33019306 183.16412366 207.32840443 180.17426014 C206.31012409 179.16095956 205.29094226 178.14856396 204.27078724 177.13715076 C199.05003904 171.95997288 193.9380796 166.75877482 189.15604115 161.1674242 C185.25767843 156.79495758 181.01326994 152.74521278 176.843297 148.63422108 C166.6802209 138.61489428 166.6802209 138.61489428 163.030797 134.32172108 C157.68092435 128.07493943 151.68744929 122.41255025 145.843297 116.63422108 C131.99373223 102.94064497 131.99373223 102.94064497 126.76224232 96.79340076 C120.5422422 89.52032423 113.7269781 82.84720937 105.343297 78.13422108 C104.41646107 77.59539295 103.48962513 77.05656483 102.53470325 76.50140858 C94.85265227 73.21044426 84.52582481 74.24731873 76.69876575 76.93500233 C72.820451 78.90953405 69.63229311 81.62885266 66.374547 84.48968983 C64.343297 86.13422108 64.343297 86.13422108 62.343297 86.13422108 C61.848297 87.61922108 61.848297 87.61922108 61.343297 89.13422108 C59.70823162 90.59112468 58.00997376 91.97786294 56.280797 93.32172108 C52.77285645 96.11633524 49.45585397 98.90518589 46.343297 102.13422108 C42.56054333 106.0325375 38.4414359 109.37602085 34.2104845 112.77484608 C30.3139097 115.98129183 26.61219343 119.38004079 22.8979845 122.79437733 C20.08693706 125.3690217 17.22472149 127.87674628 14.34720325 130.37640858 C12.11525613 132.33425693 9.91708841 134.32672009 7.718297 136.32172108 C2.47239428 141.0568172 -2.88651161 145.65338088 -8.26217175 150.23968983 C-8.81308483 150.71068104 -9.36399792 151.18167225 -9.93160534 151.66693592 C-11.15109467 152.70417494 -12.3759173 153.73515897 -13.6044569 154.76166248 C-14.23658092 155.29323963 -14.86870495 155.82481678 -15.51998425 156.37250233 C-16.09659801 156.85372547 -16.67321178 157.33494862 -17.2672987 157.83075428 C-18.78649855 159.10520656 -18.78649855 159.10520656 -19.656703 161.13422108 C-20.646703 161.13422108 -21.636703 161.13422108 -22.656703 161.13422108 C-22.77364629 142.51446125 -22.86174492 123.89477623 -22.91576385 105.27472496 C-22.94151555 96.62856277 -22.97660774 87.98262913 -23.03390026 79.33661366 C-23.08382852 71.79832853 -23.11601606 64.26020897 -23.12714547 56.72176307 C-23.13364839 52.73230163 -23.14886785 48.74331374 -23.18535328 44.75400448 C-23.2194623 40.99382717 -23.22972635 37.2343154 -23.2222414 33.47399807 C-23.22425829 31.44672214 -23.25107509 29.41951759 -23.27880383 27.39243031 C-23.22845231 18.42576638 -21.70367188 12.2215252 -15.3051405 5.75922108 C-14.55490612 5.22297108 -13.80467175 4.68672108 -13.031703 4.13422108 C-12.27631237 3.57734608 -11.52092175 3.02047108 -10.7426405 2.44672108 C-7.11376351 0.16338275 -4.18882731 0.00729246 0 0 Z " fill="#D5EDF9" transform="translate(127.6567029953003,147.86577892303467)"/>
<path d="M0 0 C4.5082021 1.91021697 7.57400434 4.20662245 11.00390625 7.67578125 C11.90947266 8.58650391 12.81503906 9.49722656 13.74804688 10.43554688 C14.21073975 10.90855225 14.67343262 11.38155762 15.15014648 11.86889648 C16.55532275 13.30516394 17.97082263 14.73054914 19.38867188 16.15429688 C23.80572267 20.62172031 28.06819586 25.10060344 32 30 C34.51606095 32.64508971 37.02917766 35.02346899 39.875 37.3125 C43.01007902 39.87174818 45.52979767 42.82022502 48.1484375 45.89453125 C50.57318882 48.65179066 53.17206706 51.20061647 55.8125 53.75 C57.59108837 55.57940518 59.22605973 57.43263928 60.875 59.375 C66.55909014 65.91958139 72.84111759 71.90782028 79 78 C92.96517326 91.8139259 92.96517326 91.8139259 98.18359375 97.9609375 C102.54788408 102.86020535 107.33193527 107.39167284 112 112 C124.10880171 123.95384447 124.10880171 123.95384447 129.37207031 130.10546875 C132.43561356 133.67072004 135.6313414 137.09888225 138.875 140.5 C139.53113281 141.22703125 140.18726563 141.9540625 140.86328125 142.703125 C144.55568167 146.58867965 144.55568167 146.58867965 149.42260742 148.51538086 C153.07088007 148.58039085 155.35014992 148.36455005 158.5625 146.5625 C160.76679712 142.63310079 161.02639638 139.38417884 160 135 C158.19038804 131.82642679 155.62822366 129.51185956 153 127 C151.02409188 125.1030858 149.05395049 123.20100418 147.09399414 121.28759766 C145.70665366 119.93762172 144.30612678 118.60105614 142.89233398 117.27880859 C142.24723877 116.65570801 141.60214355 116.03260742 140.9375 115.390625 C140.34839844 114.83407227 139.75929688 114.27751953 139.15234375 113.70410156 C138 112 138 112 138.14453125 109.94824219 C139.82606558 106.11872051 143.6351229 103.79762328 147.15234375 101.7421875 C151.19426857 99.26935009 154.98239213 96.47389557 158.8125 93.6875 C159.96588867 92.8531543 159.96588867 92.8531543 161.14257812 92.00195312 C167.32910971 87.51737032 173.48854673 82.99951292 179.484375 78.26171875 C180.02707031 77.83439453 180.56976563 77.40707031 181.12890625 76.96679688 C182.22877108 76.09883126 183.32502206 75.22627036 184.41796875 74.34960938 C188.84777587 70.88118725 191.73058157 69.84550969 197.25 69.9375 C199.10625 69.9684375 199.10625 69.9684375 201 70 C201 70.66 201 71.32 201 72 C201.7415332 72.27223389 202.48306641 72.54446777 203.24707031 72.82495117 C205.84363622 73.93325835 207.79365642 75.12074504 210.046875 76.80078125 C210.80081543 77.35926758 211.55475586 77.91775391 212.33154297 78.49316406 C213.12963379 79.09354492 213.92772461 79.69392578 214.75 80.3125 C215.58547363 80.93479492 216.42094727 81.55708984 217.28173828 82.19824219 C226.87348866 89.36080706 236.36541239 96.65333229 245.84375 103.96484375 C246.44203613 104.42600586 247.04032227 104.88716797 247.65673828 105.36230469 C249.25922103 106.59820641 250.86014068 107.83613412 252.4609375 109.07421875 C254.26403595 110.44179957 256.11702012 111.74468008 258 113 C258.36749268 115.55389404 258.36749268 115.55389404 258.35644531 118.82324219 C258.36094696 120.6558963 258.36094696 120.6558963 258.36553955 122.52557373 C258.35352806 123.86601169 258.34104479 125.20644549 258.328125 126.546875 C258.32506667 127.91969598 258.32319111 129.29252006 258.32244873 130.66534424 C258.31784076 133.54719875 258.30340295 136.42877459 258.28125 139.31054688 C258.25307354 142.99355472 258.24204931 146.6763421 258.2375679 150.35944748 C258.2323917 153.8802847 258.21785038 157.40106724 258.203125 160.921875 C258.19887512 162.2408075 258.19462524 163.55973999 258.19024658 164.91864014 C258.17583527 166.77020721 258.17583527 166.77020721 258.16113281 168.65917969 C258.15089081 170.28228058 258.15089081 170.28228058 258.14044189 171.93817139 C257.99862821 175.02990702 257.57186465 177.96086032 257 181 C256.34 181 255.68 181 255 181 C254.814375 181.721875 254.62875 182.44375 254.4375 183.1875 C252.5043678 186.96971517 249.74316961 189.04088005 246 191 C245.01 191 244.02 191 243 191 C243 191.66 243 192.32 243 193 C199.55038622 193.0686489 156.10077818 193.12152004 112.65112087 193.15319599 C107.5228663 193.15694816 102.39461183 193.16083112 97.26635742 193.16479492 C96.24540334 193.16558185 95.22444926 193.16636878 94.17255718 193.16717956 C77.63589487 193.18023768 61.0992638 193.20389377 44.56262004 193.23145839 C27.59771202 193.25950128 10.63282038 193.2761739 -6.33210987 193.28226548 C-16.80252025 193.28638424 -27.27284231 193.29939857 -37.74322551 193.3237494 C-44.92067983 193.3395928 -52.09808841 193.34440352 -59.27555896 193.34050413 C-63.41815685 193.33858041 -67.56060027 193.34155391 -71.70317078 193.35761642 C-75.49636937 193.37221695 -79.28930962 193.37295146 -83.08252012 193.36269668 C-85.10343764 193.36082928 -87.12435214 193.37376666 -89.14522558 193.38724393 C-98.94373337 193.33868347 -104.71188805 191.96419586 -112 185 C-115.78965679 180.30748436 -116.59161255 176.59900328 -116.56518555 170.71899414 C-116.5770137 169.9100621 -116.58884186 169.10113007 -116.60102844 168.26768494 C-116.63379615 165.60656258 -116.63687263 162.94646674 -116.63671875 160.28515625 C-116.64703941 158.42719611 -116.65810322 156.56923996 -116.6698761 154.71128845 C-116.68928473 150.82182317 -116.69273759 146.93271732 -116.6862793 143.04321289 C-116.68028042 138.06831497 -116.72453863 133.09528111 -116.78216839 128.12076664 C-116.81920419 124.28501324 -116.82406761 120.44970795 -116.81989479 116.61379814 C-116.82276101 114.78020512 -116.83679079 112.94659316 -116.86237144 111.11317635 C-117.04101627 96.80799298 -117.04101627 96.80799298 -114.47842407 92.35739136 C-112.73639548 90.58476237 -111.10869838 89.29769854 -109 88 C-107.700625 86.9171875 -107.700625 86.9171875 -106.375 85.8125 C-105.59125 85.214375 -104.8075 84.61625 -104 84 C-100.30878016 81.10612825 -96.97724731 78.0926517 -93.71875 74.7265625 C-89.17871859 70.16589458 -84.18266626 65.81078402 -79 62 C-78.34 62 -77.68 62 -77 62 C-77 61.34 -77 60.68 -77 60 C-75.3623728 58.54597658 -73.66265804 57.16151322 -71.9375 55.8125 C-67.94392624 52.62070511 -64.24930868 49.37262635 -60.6953125 45.70703125 C-57.64081464 42.63141935 -54.45933324 39.61636928 -51 37 C-50.34 37 -49.68 37 -49 37 C-49 36.34 -49 35.68 -49 35 C-47.46804728 33.62787699 -45.87078919 32.3284554 -44.25 31.0625 C-40.0141465 27.67924778 -35.96149764 24.19895362 -32 20.5 C-27.30835078 16.13471976 -22.47610248 12.01051286 -17.4609375 8.015625 C-15.29620136 6.24260302 -13.32023698 4.3816435 -11.3125 2.4375 C-7.53752649 -0.81367336 -4.87487153 -0.69641022 0 0 Z " fill="#00B6E9" transform="translate(221,241)"/>
<path d="M0 0 C1.25201918 -0.00594224 2.50403837 -0.01188449 3.79399753 -0.0180068 C7.25305528 -0.03405815 10.71202983 -0.03772094 14.17112041 -0.03920174 C17.9081446 -0.0429183 21.64512639 -0.05802046 25.38212585 -0.07147217 C33.54541473 -0.09857467 41.70868387 -0.11067763 49.87201023 -0.11949348 C54.973157 -0.12502807 60.07429625 -0.13350442 65.17543793 -0.14250183 C79.31115365 -0.16687664 93.44686336 -0.18747874 107.58259964 -0.19425201 C108.48635658 -0.19469115 109.39011352 -0.19513028 110.32125704 -0.19558272 C111.22711576 -0.19601927 112.13297448 -0.19645583 113.06628346 -0.19690561 C114.90175327 -0.19779253 116.73722307 -0.19868566 118.57269287 -0.19958496 C119.48313987 -0.20002782 120.39358687 -0.20047068 121.33162317 -0.20092696 C136.08294573 -0.20882249 150.83407069 -0.24373377 165.58531693 -0.29030401 C180.74588236 -0.33777861 195.90634871 -0.3626578 211.06698966 -0.36498785 C219.57290915 -0.36681848 228.07857094 -0.37825059 236.58441925 -0.41462708 C243.8270479 -0.4454933 251.06933915 -0.45563245 258.31202111 -0.43915087 C262.00385347 -0.43136062 265.69500705 -0.43308226 269.38675499 -0.46126556 C273.39821427 -0.49160831 277.40815793 -0.47494467 281.41967773 -0.45410156 C282.57378781 -0.47021437 283.72789788 -0.48632718 284.91698098 -0.50292826 C294.02701893 -0.39260878 301.9347416 2.14230258 308.76612401 8.38470221 C312.65120714 12.55967084 315.46380615 16.41829791 315.46380615 22.28088379 C314.90058277 22.28235035 314.33735939 22.28381691 313.75706863 22.28532791 C300.05269491 22.32237931 286.34857191 22.38162454 272.64439774 22.46478653 C266.01713302 22.50433107 259.39000258 22.53648542 252.76263428 22.55187988 C246.36935718 22.56700033 239.97644905 22.60136416 233.58333588 22.64919281 C231.14168246 22.6640542 228.69997639 22.67192751 226.25827789 22.67276764 C222.84363758 22.67512466 219.43002747 22.70210377 216.01556396 22.73498535 C214.49426376 22.7274398 214.49426376 22.7274398 212.94223022 22.71974182 C207.52335798 22.73151055 207.52335798 22.73151055 202.83532715 25.17633057 C201.25693408 27.59832208 200.95252852 28.90847481 201.02630615 31.78088379 C201.02759521 32.53369629 201.02888428 33.28650879 201.0302124 34.06213379 C201.58419047 36.89690442 202.4708406 38.19156632 204.46380615 40.28088379 C206.92865884 40.87050966 206.92865884 40.87050966 209.76177979 40.75949097 C210.86067535 40.76473282 211.95957092 40.76997467 213.09176636 40.77537537 C214.9011116 40.75369041 214.9011116 40.75369041 216.74700928 40.73156738 C218.69699895 40.73264186 220.64698863 40.73372122 222.59697819 40.73498368 C224.69496697 40.73258059 226.79270411 40.72039707 228.89064026 40.70560837 C233.2710511 40.67571075 237.65107155 40.67829831 242.03155518 40.68630981 C252.91882206 40.70141121 263.8059812 40.67980139 274.69317627 40.63848877 C283.14174876 40.60647123 291.58986686 40.58737635 300.03849363 40.61000121 C304.38378117 40.62020603 308.72780266 40.60308987 313.0729208 40.56486106 C316.43053799 40.54304057 319.78778154 40.56041841 323.14544678 40.57141113 C324.33548309 40.55290604 325.52551941 40.53440094 326.75161743 40.51533508 C336.87553256 40.61356771 344.17365417 43.98021203 351.52630615 50.90588379 C354.46999532 53.97192678 356.43036274 56.55622775 356.51483154 60.91223145 C356.49799316 61.69388672 356.48115479 62.47554199 356.46380615 63.28088379 C355.4760542 63.282349 355.4760542 63.282349 354.46834767 63.28384382 C315.42932617 63.34213172 276.39036157 63.41594053 237.35140885 63.50987007 C232.6626379 63.52113806 227.97386666 63.53227654 223.28509521 63.54333496 C221.88493624 63.54664049 221.88493624 63.54664049 220.45649122 63.55001279 C205.34774994 63.58537306 190.23900871 63.61024437 175.13024141 63.63123081 C159.62412987 63.65300297 144.11807197 63.68606686 128.61200607 63.72958535 C119.046026 63.75607765 109.48011276 63.77379086 99.91409783 63.78022983 C93.35191395 63.78549111 86.7898141 63.80173297 80.22767527 63.82654945 C76.4431975 63.84053907 72.65887009 63.84974477 68.87436485 63.84589195 C64.76576455 63.84183614 60.65758917 63.8609324 56.54904175 63.88215637 C54.76593414 63.87488501 54.76593414 63.87488501 52.94680417 63.86746675 C40.04869226 63.97732989 31.04053675 67.44118924 21.45599365 76.09338379 C14.9303088 82.87331611 10.36155467 92.84027135 10.32514095 102.34945297 C10.31966651 103.15511475 10.31419207 103.96077653 10.30855173 104.79085231 C10.30757362 105.6702281 10.30659552 106.5496039 10.30558777 107.45562744 C10.30064979 108.39417863 10.29571181 109.33272982 10.2906242 110.29972196 C10.27523758 113.45196941 10.26688539 116.60419648 10.25848389 119.75646973 C10.24890628 122.01319051 10.23889627 124.26990949 10.22848511 126.52662659 C10.20141726 132.66048013 10.18041785 138.79434138 10.16048312 144.9282217 C10.13863519 151.3357681 10.11124066 157.74329068 10.08442688 164.15081787 C10.04016194 174.90786774 9.99932941 185.66492436 9.96112061 196.42199707 C9.92175623 207.50175938 9.88032775 218.58151079 9.83612061 229.66125488 C9.83339633 230.34422598 9.83067206 231.02719707 9.82786524 231.73086426 C9.8141856 235.15713417 9.80046536 238.58340392 9.78672493 242.0096736 C9.67278931 270.43338759 9.56604655 298.85712549 9.46380615 327.28088379 C1.8114624 327.40588379 1.8114624 327.40588379 -1.97369385 325.28088379 C-2.65302979 324.90963379 -3.33236572 324.53838379 -4.0322876 324.15588379 C-4.77672119 323.72275879 -4.77672119 323.72275879 -5.53619385 323.28088379 C-5.53619385 322.62088379 -5.53619385 321.96088379 -5.53619385 321.28088379 C-6.1394751 321.03080566 -6.74275635 320.78072754 -7.36431885 320.52307129 C-9.86032028 319.09550212 -10.79696546 317.84196727 -12.28619385 315.40588379 C-12.7141626 314.72783691 -13.14213135 314.04979004 -13.58306885 313.35119629 C-14.53619385 311.28088379 -14.53619385 311.28088379 -14.53619385 307.28088379 C-15.19619385 307.28088379 -15.85619385 307.28088379 -16.53619385 307.28088379 C-16.67316166 276.23959963 -16.77929929 245.19839561 -16.84258582 214.15688086 C-16.85008978 210.48955582 -16.85785574 206.82223138 -16.86578369 203.15490723 C-16.86735755 202.42482971 -16.86893142 201.6947522 -16.87055297 200.94255112 C-16.89663867 189.13163636 -16.94393377 177.32089738 -16.99911062 165.51008679 C-17.05528187 153.38501641 -17.08855962 141.2600379 -17.10072482 129.13484275 C-17.1089448 121.65690034 -17.13487647 114.17945484 -17.18369265 106.70166545 C-17.21925162 100.96113903 -17.22290933 95.2209288 -17.21483994 89.48031425 C-17.21648801 87.13014993 -17.2283886 84.77996646 -17.2514267 82.42991447 C-17.28140049 79.21411756 -17.27405986 76.00042479 -17.25772095 72.78457642 C-17.28393652 71.39834554 -17.28393652 71.39834554 -17.3106817 69.98411 C-17.19696415 61.67070438 -13.62878207 55.84639358 -8.26275635 49.65979004 C-7.56924072 49.06037598 -6.8757251 48.46096191 -6.16119385 47.84338379 C-5.47283447 47.22592285 -4.7844751 46.60846191 -4.07525635 45.97229004 C3.41209193 40.98456418 10.40922628 40.85437546 19.15032959 40.9119873 C21.02976006 40.90633759 21.02976006 40.90633759 22.94715881 40.90057373 C25.65754843 40.89415526 28.36733281 40.89300605 31.07765961 40.90075874 C35.36412688 40.91239598 39.65032639 40.90013615 43.93676758 40.88414001 C54.57648138 40.84804671 65.21618752 40.84171998 75.85595703 40.84423828 C84.13991995 40.84594917 92.42366253 40.83885872 100.70756364 40.80425972 C104.96836453 40.78746649 109.22862739 40.78925766 113.48942614 40.80508244 C116.75795794 40.81223329 120.0263641 40.79365232 123.29486084 40.7791748 C125.06380455 40.79379005 125.06380455 40.79379005 126.8684845 40.80870056 C127.94784775 40.79912323 129.027211 40.7895459 130.13928223 40.77967834 C131.07649487 40.77988763 132.0137075 40.78009691 132.97932053 40.78031254 C136.21334272 40.13021272 137.39265453 38.78801595 139.46380615 36.28088379 C140.88422436 33.44004738 140.77832887 31.42611101 140.46380615 28.28088379 C138.23174184 25.4330776 136.91387617 24.43090713 133.46380615 23.28088379 C131.72746717 23.18237791 129.98760238 23.14161659 128.24848938 23.13371277 C126.62755623 23.12297981 126.62755623 23.12297981 124.97387695 23.11203003 C123.19494049 23.10799667 123.19494049 23.10799667 121.38006592 23.10388184 C120.13093918 23.09731064 118.88181244 23.09073944 117.59483337 23.08396912 C113.44829062 23.06421112 109.30178663 23.05256185 105.1552124 23.04260254 C103.72440001 23.03855345 102.29358781 23.03443648 100.8627758 23.03025246 C94.13410376 23.01119619 87.40544265 22.99697083 80.67674881 22.98864049 C72.93124995 22.9788915 65.18603865 22.95263548 57.44064099 22.91213959 C51.44213875 22.88186381 45.44371834 22.86716048 39.44514126 22.86385947 C35.86874465 22.86152035 32.29265505 22.8527112 28.71634102 22.8273983 C24.71474639 22.79953497 20.71378299 22.80398344 16.71209717 22.81091309 C15.5443576 22.79810303 14.37661804 22.78529297 13.17349243 22.77209473 C2.18450678 22.84108702 -7.68623632 25.65267292 -16.53619385 32.28088379 C-17.21424072 32.78361816 -17.8922876 33.28635254 -18.59088135 33.80432129 C-27.17899733 40.70722206 -32.23897467 50.5795868 -34.53619385 61.28088379 C-34.62597108 62.61403058 -34.66965131 63.95082736 -34.67485905 65.28698349 C-34.68307071 66.47457579 -34.68307071 66.47457579 -34.69144827 67.68615985 C-34.69242638 68.54997185 -34.69340448 69.41378385 -34.69441223 70.30377197 C-34.69935021 71.22598895 -34.70428819 72.14820593 -34.7093758 73.09836888 C-34.72476077 76.19533817 -34.73311416 79.2922867 -34.74151611 82.38928223 C-34.75109385 84.60659468 -34.76110387 86.8239053 -34.77151489 89.04121399 C-34.79858134 95.06763274 -34.81958151 101.09405934 -34.83951688 107.12050533 C-34.86136568 113.41594311 -34.88875978 119.71135666 -34.91557312 126.0067749 C-34.95983712 136.57551009 -35.00066985 147.14425425 -35.03887939 157.7130127 C-35.07824436 168.59876476 -35.11967298 179.48450574 -35.16387939 190.37023926 C-35.16660367 191.04126237 -35.16932794 191.71228548 -35.17213476 192.40364262 C-35.18581441 195.76997626 -35.19953465 199.13630972 -35.21327507 202.50264311 C-35.32711802 230.42870066 -35.43395204 258.35478153 -35.53619385 286.28088379 C-43.99966172 285.10376726 -48.64299828 280.60665665 -54.22369385 274.40588379 C-57.72190461 268.74211398 -57.82539332 262.72109859 -57.79016113 256.26823425 C-57.79328111 255.38317807 -57.7964011 254.4981219 -57.79961562 253.58624583 C-57.80756729 250.63242053 -57.80128293 247.67880228 -57.79498291 244.72497559 C-57.79769408 242.60226318 -57.80125573 240.47955172 -57.80560303 238.35684204 C-57.81471588 232.59848081 -57.81118684 226.84019131 -57.80484486 221.08182883 C-57.7997772 215.05001875 -57.80447863 209.01821475 -57.80761719 202.98640442 C-57.81125543 192.85416564 -57.80646231 182.72195603 -57.79693604 172.58972168 C-57.78606058 160.88761577 -57.78957105 149.1855796 -57.80058885 137.48347539 C-57.80967626 127.42805342 -57.81093961 117.37265241 -57.80571151 107.31722766 C-57.80259868 101.31538775 -57.80216341 95.31358057 -57.80878448 89.31174278 C-57.81457814 83.66546886 -57.81052408 78.01928446 -57.79899597 72.37302017 C-57.7963598 70.30508002 -57.79709658 68.23713228 -57.8015213 66.16919518 C-57.80701972 63.33752444 -57.80009071 60.50613714 -57.79016113 57.67448425 C-57.79462258 56.86405173 -57.79908402 56.0536192 -57.80368066 55.21862811 C-57.69122626 38.58406181 -52.36175153 24.98410812 -40.53619385 13.28088379 C-28.45294774 3.21151203 -15.42220333 -0.02297969 0 0 Z " fill="#FAD466" transform="translate(76.53619384765625,65.7191162109375)"/>
<path d="M0 0 C1.25201918 -0.00594224 2.50403837 -0.01188449 3.79399753 -0.0180068 C7.25305528 -0.03405815 10.71202983 -0.03772094 14.17112041 -0.03920174 C17.9081446 -0.0429183 21.64512639 -0.05802046 25.38212585 -0.07147217 C33.54541473 -0.09857467 41.70868387 -0.11067763 49.87201023 -0.11949348 C54.973157 -0.12502807 60.07429625 -0.13350442 65.17543793 -0.14250183 C79.31115365 -0.16687664 93.44686336 -0.18747874 107.58259964 -0.19425201 C108.48635658 -0.19469115 109.39011352 -0.19513028 110.32125704 -0.19558272 C111.22711576 -0.19601927 112.13297448 -0.19645583 113.06628346 -0.19690561 C114.90175327 -0.19779253 116.73722307 -0.19868566 118.57269287 -0.19958496 C119.48313987 -0.20002782 120.39358687 -0.20047068 121.33162317 -0.20092696 C136.08294573 -0.20882249 150.83407069 -0.24373377 165.58531693 -0.29030401 C180.74588236 -0.33777861 195.90634871 -0.3626578 211.06698966 -0.36498785 C219.57290915 -0.36681848 228.07857094 -0.37825059 236.58441925 -0.41462708 C243.8270479 -0.4454933 251.06933915 -0.45563245 258.31202111 -0.43915087 C262.00385347 -0.43136062 265.69500705 -0.43308226 269.38675499 -0.46126556 C273.39821427 -0.49160831 277.40815793 -0.47494467 281.41967773 -0.45410156 C282.57378781 -0.47021437 283.72789788 -0.48632718 284.91698098 -0.50292826 C294.02701893 -0.39260878 301.9347416 2.14230258 308.76612401 8.38470221 C312.65120714 12.55967084 315.46380615 16.41829791 315.46380615 22.28088379 C314.90058277 22.28235035 314.33735939 22.28381691 313.75706863 22.28532791 C300.05269491 22.32237931 286.34857191 22.38162454 272.64439774 22.46478653 C266.01713302 22.50433107 259.39000258 22.53648542 252.76263428 22.55187988 C246.36935718 22.56700033 239.97644905 22.60136416 233.58333588 22.64919281 C231.14168246 22.6640542 228.69997639 22.67192751 226.25827789 22.67276764 C222.84363758 22.67512466 219.43002747 22.70210377 216.01556396 22.73498535 C214.49426376 22.7274398 214.49426376 22.7274398 212.94223022 22.71974182 C207.56018757 22.74337463 207.56018757 22.74337463 202.85119629 25.08062744 C200.96464475 28.07250181 200.73207199 30.79342788 200.46380615 34.28088379 C200.13380615 33.62088379 199.80380615 32.96088379 199.46380615 32.28088379 C193.19380615 32.28088379 186.92380615 32.28088379 180.46380615 32.28088379 C179.47380615 35.25088379 179.47380615 35.25088379 178.46380615 38.28088379 C176.77818778 40.64675171 175.9919215 41.18301934 173.1239624 41.71447754 C166.13817824 41.72498248 166.13817824 41.72498248 162.90130615 39.59338379 C161.46380615 37.28088379 161.46380615 37.28088379 160.46380615 32.28088379 C154.19380615 32.28088379 147.92380615 32.28088379 141.46380615 32.28088379 C140.47380615 29.97088379 139.48380615 27.66088379 138.46380615 25.28088379 C135.04009362 23.20786443 131.95665088 23.02756069 128.00798035 23.01345825 C126.92460892 23.00492828 125.84123749 22.99639832 124.72503662 22.98760986 C122.95688599 22.98896942 122.95688599 22.98896942 121.15301514 22.99035645 C119.90359634 22.98363922 118.65417755 22.976922 117.36689758 22.97000122 C113.94493502 22.95426722 110.52321523 22.94764648 107.10123324 22.94636965 C104.95848544 22.94494535 102.81576284 22.94067029 100.67302132 22.93537521 C93.18326334 22.91687555 85.69357645 22.90870376 78.20379639 22.91027832 C71.24704871 22.91147692 64.2906127 22.89043013 57.33394378 22.85879099 C51.34388137 22.83252932 45.35392004 22.82191527 39.36380059 22.82318914 C35.79415908 22.82369626 32.22479413 22.81815449 28.65521049 22.79683304 C24.66338166 22.77364124 20.67223718 22.78303149 16.68035889 22.79504395 C15.51576141 22.78380493 14.35116394 22.77256592 13.15127563 22.76098633 C2.17458515 22.84446231 -7.69594763 25.65994625 -16.53619385 32.28088379 C-17.21424072 32.78361816 -17.8922876 33.28635254 -18.59088135 33.80432129 C-27.17899733 40.70722206 -32.23897467 50.5795868 -34.53619385 61.28088379 C-34.62597108 62.61403058 -34.66965131 63.95082736 -34.67485905 65.28698349 C-34.68307071 66.47457579 -34.68307071 66.47457579 -34.69144827 67.68615985 C-34.69242638 68.54997185 -34.69340448 69.41378385 -34.69441223 70.30377197 C-34.69935021 71.22598895 -34.70428819 72.14820593 -34.7093758 73.09836888 C-34.72476077 76.19533817 -34.73311416 79.2922867 -34.74151611 82.38928223 C-34.75109385 84.60659468 -34.76110387 86.8239053 -34.77151489 89.04121399 C-34.79858134 95.06763274 -34.81958151 101.09405934 -34.83951688 107.12050533 C-34.86136568 113.41594311 -34.88875978 119.71135666 -34.91557312 126.0067749 C-34.95983712 136.57551009 -35.00066985 147.14425425 -35.03887939 157.7130127 C-35.07824436 168.59876476 -35.11967298 179.48450574 -35.16387939 190.37023926 C-35.16660367 191.04126237 -35.16932794 191.71228548 -35.17213476 192.40364262 C-35.18581441 195.76997626 -35.19953465 199.13630972 -35.21327507 202.50264311 C-35.32711802 230.42870066 -35.43395204 258.35478153 -35.53619385 286.28088379 C-43.99966172 285.10376726 -48.64299828 280.60665665 -54.22369385 274.40588379 C-57.72190461 268.74211398 -57.82539332 262.72109859 -57.79016113 256.26823425 C-57.79328111 255.38317807 -57.7964011 254.4981219 -57.79961562 253.58624583 C-57.80756729 250.63242053 -57.80128293 247.67880228 -57.79498291 244.72497559 C-57.79769408 242.60226318 -57.80125573 240.47955172 -57.80560303 238.35684204 C-57.81471588 232.59848081 -57.81118684 226.84019131 -57.80484486 221.08182883 C-57.7997772 215.05001875 -57.80447863 209.01821475 -57.80761719 202.98640442 C-57.81125543 192.85416564 -57.80646231 182.72195603 -57.79693604 172.58972168 C-57.78606058 160.88761577 -57.78957105 149.1855796 -57.80058885 137.48347539 C-57.80967626 127.42805342 -57.81093961 117.37265241 -57.80571151 107.31722766 C-57.80259868 101.31538775 -57.80216341 95.31358057 -57.80878448 89.31174278 C-57.81457814 83.66546886 -57.81052408 78.01928446 -57.79899597 72.37302017 C-57.7963598 70.30508002 -57.79709658 68.23713228 -57.8015213 66.16919518 C-57.80701972 63.33752444 -57.80009071 60.50613714 -57.79016113 57.67448425 C-57.79462258 56.86405173 -57.79908402 56.0536192 -57.80368066 55.21862811 C-57.69122626 38.58406181 -52.36175153 24.98410812 -40.53619385 13.28088379 C-28.45294774 3.21151203 -15.42220333 -0.02297969 0 0 Z " fill="#EB4E71" transform="translate(76.53619384765625,65.7191162109375)"/>
<path d="M0 0 C0.804375 0.29132813 1.60875 0.58265625 2.4375 0.8828125 C11.09817413 4.65865519 16.91240028 12.79781971 21 21 C21.33902344 21.598125 21.67804688 22.19625 22.02734375 22.8125 C26.0500428 31.11742707 25.24124726 43.47575087 22.375 52.0625 C17.58350891 63.22007113 8.57481782 71.92696153 -2.34375 77.11328125 C-13.05026465 80.68736776 -26.21499166 80.88223513 -36.5 76.125 C-48.27219939 69.40768301 -55.38450182 58.92147612 -59 46 C-60.27620921 32.64682154 -58.34061654 21.50967707 -49.6640625 10.80859375 C-36.78293376 -3.19131847 -17.63991679 -9.60902028 0 0 Z " fill="#050505" transform="translate(396,192)"/>
<path d="M0 0 C5.96268944 2.82743209 10.70626506 6.88105634 13.09765625 13.203125 C14.80049484 20.17166447 14.17176326 26.88145448 10.94140625 33.2734375 C7.61042305 38.27965202 3.28442833 41.40243254 -2.39453125 43.28125 C-9.44923485 44.18813267 -15.63184385 43.64581704 -21.39453125 39.28125 C-26.1823308 34.74892592 -29.80280791 30.39217003 -30.765625 23.703125 C-30.93758728 16.78417212 -29.94500688 11.65623842 -25.39453125 6.28125 C-17.69771857 -0.02217418 -9.96334327 -2.99062832 0 0 Z " fill="#F9D566" transform="translate(386.39453125,208.71875)"/>
<path d="M0 0 C39.02487079 -0.04575712 78.04973809 -0.08100888 117.07463033 -0.10213066 C121.67971779 -0.10463213 126.2848052 -0.10722077 130.88989258 -0.10986328 C131.80669976 -0.1103879 132.72350694 -0.11091252 133.66809616 -0.11145304 C148.52157107 -0.12016055 163.37503054 -0.13593243 178.22849628 -0.15430559 C193.46447665 -0.17299502 208.70044892 -0.1841147 223.93644029 -0.18817699 C233.34121856 -0.19092404 242.74595317 -0.19960682 252.15071801 -0.21583293 C258.59602322 -0.226388 265.04130579 -0.22960398 271.48661902 -0.22700275 C275.20768304 -0.22571916 278.92867064 -0.22771538 282.64972115 -0.23841095 C286.6811378 -0.24991421 290.71239091 -0.24598561 294.74382019 -0.24050903 C296.51375557 -0.24924756 296.51375557 -0.24924756 298.31944722 -0.25816262 C299.3988049 -0.25418052 300.47816259 -0.25019842 301.59022808 -0.24609566 C302.98626987 -0.24723482 302.98626987 -0.24723482 304.41051453 -0.24839699 C307.24963406 0.02394621 309.41509591 0.8227215 312 2 C312 2.33 312 2.66 312 3 C272.83067548 2.91828 233.66138825 2.82613321 194.49212207 2.71994839 C189.87072481 2.7074291 185.24932732 2.69499639 180.62792969 2.68261719 C179.24783953 2.6789182 179.24783953 2.6789182 177.83986875 2.67514448 C162.93077093 2.63539092 148.0216655 2.60265508 133.11254552 2.57250018 C117.8211755 2.54141641 102.52983783 2.50282025 87.23850417 2.45720994 C77.79842831 2.4292905 68.35837619 2.40727248 58.91827008 2.39273749 C52.45005651 2.38221774 45.98188884 2.36441916 39.51370981 2.34083296 C35.77860976 2.32742988 32.0435742 2.31729717 28.30844879 2.31578636 C24.26351119 2.31406661 20.21878438 2.29705089 16.17388916 2.2784729 C14.98712845 2.28040763 13.80036774 2.28234237 12.57764459 2.28433573 C10.95636954 2.27313749 10.95636954 2.27313749 9.30234146 2.26171303 C8.36822945 2.25943471 7.43411744 2.25715638 6.471699 2.25480902 C3.87605186 1.98722211 2.23247684 1.31604654 0 0 Z " fill="#B5415E" transform="translate(64,66)"/>
<path d="M0 0 C0.66 0.33 1.32 0.66 2 1 C1.72285156 1.67546875 1.44570313 2.3509375 1.16015625 3.046875 C0.79792969 3.93890625 0.43570313 4.8309375 0.0625 5.75 C-0.29714844 6.63171875 -0.65679687 7.5134375 -1.02734375 8.421875 C-2.38398661 12.01779582 -3.1236745 15.15991572 -3.1386652 19.0060997 C-3.14687687 20.193692 -3.14687687 20.193692 -3.15525442 21.40527606 C-3.15623253 22.26908806 -3.15721064 23.13290006 -3.15821838 24.02288818 C-3.16315636 24.94510516 -3.16809434 25.86732214 -3.17318195 26.81748509 C-3.18856692 29.91445438 -3.19692031 33.01140291 -3.20532227 36.10839844 C-3.2149 38.32571089 -3.22491002 40.54302151 -3.23532104 42.7603302 C-3.26238749 48.78674895 -3.28338766 54.81317555 -3.30332303 60.83962154 C-3.32517183 67.13505932 -3.35256593 73.43047287 -3.37937927 79.72589111 C-3.42364327 90.2946263 -3.464476 100.86337046 -3.50268555 111.43212891 C-3.54205051 122.31788097 -3.58347914 133.20362195 -3.62768555 144.08935547 C-3.63040982 144.76037858 -3.63313409 145.43140169 -3.63594092 146.12275884 C-3.64962056 149.48909247 -3.6633408 152.85542593 -3.67708123 156.22175932 C-3.79092417 184.14781687 -3.89775819 212.07389774 -4 240 C-8.99766643 239.33504438 -11.92061431 238.01097515 -16 235 C-14.68 234.01 -13.36 233.02 -12 232 C-10.68 232.66 -9.36 233.32 -8 234 C-8.99 234 -9.98 234 -11 234 C-11 234.66 -11 235.32 -11 236 C-9.68 236 -8.36 236 -7 236 C-6.99576806 234.85771502 -6.99153612 233.71543003 -6.98717594 232.53853035 C-6.88411606 204.78166521 -6.77538505 177.02482673 -6.66066074 149.26800728 C-6.64965584 146.59908173 -6.63865901 143.93015615 -6.62768555 141.26123047 C-6.62495724 140.59783861 -6.62222894 139.93444675 -6.61941796 139.25095211 C-6.57529973 128.4984794 -6.534681 117.74599617 -6.49534739 106.99350502 C-6.45493315 95.96681813 -6.41070296 84.94015132 -6.36312145 73.91349304 C-6.33650596 67.71731995 -6.31165255 61.5211508 -6.29092598 55.32495499 C-6.27138368 49.49905828 -6.24724719 43.67319909 -6.21950912 37.84733582 C-6.21012591 35.70348159 -6.20245523 33.55961912 -6.19658089 31.41575241 C-6.18834125 28.49995594 -6.17407069 25.58425107 -6.15821838 22.66848755 C-6.15724028 21.81052271 -6.15626217 20.95255787 -6.15525442 20.0685941 C-6.11412121 14.22824242 -6.11412121 14.22824242 -5 12 C-4.9310528 10.62657169 -4.91532292 9.24997898 -4.9375 7.875 C-4.958125 6.59625 -4.97875 5.3175 -5 4 C-4.360625 3.71125 -3.72125 3.4225 -3.0625 3.125 C-0.84793921 2.17176549 -0.84793921 2.17176549 0 0 Z " fill="#A74258" transform="translate(45,112)"/>
<path d="M0 0 C0.99 0.33 1.98 0.66 3 1 C2.83748025 1.62076259 2.6749605 2.24152517 2.50751591 2.88109875 C1.79949236 7.2322048 1.86608819 11.50109859 1.87974548 15.90242004 C1.87889106 16.9071625 1.87803663 17.91190495 1.87715632 18.94709414 C1.87550781 22.31736795 1.88101264 25.6875921 1.88647461 29.05786133 C1.88675664 31.47236123 1.88659843 33.88686123 1.8860321 36.30136108 C1.88580431 41.50146274 1.88864271 46.70155315 1.89426994 51.90165138 C1.90240065 59.42009913 1.90500178 66.93854081 1.90625793 74.45699247 C1.90844598 86.65549517 1.91509938 98.85399117 1.92456055 111.05249023 C1.93374105 122.90144823 1.94081877 134.7504044 1.94506836 146.59936523 C1.94533108 147.32986553 1.94559381 148.06036583 1.94586449 148.8130025 C1.94716954 152.47774678 1.94843324 156.14249106 1.94967639 159.80723536 C1.96004131 190.20482836 1.97772731 220.60241325 2 251 C1.67 249.68 1.34 248.36 1 247 C0.34 247 -0.32 247 -1 247 C-1.02279405 215.82249286 -1.04050008 184.64498792 -1.05106533 153.46747444 C-1.05231609 149.78983972 -1.05361041 146.11220501 -1.05493164 142.43457031 C-1.05519395 141.70239431 -1.05545626 140.97021832 -1.05572652 140.21585517 C-1.06008231 128.34789442 -1.06796936 116.47993851 -1.0771528 104.61198063 C-1.08649186 92.44173772 -1.09205615 80.27149735 -1.09408849 68.10125101 C-1.09546319 60.5866447 -1.09981094 53.07205203 -1.10791647 45.55744992 C-1.11380851 39.80315415 -1.11445832 34.0488672 -1.11310768 28.29456902 C-1.113384 25.92817412 -1.11538898 23.56177872 -1.11920547 21.19538689 C-1.12414306 17.97745734 -1.12299802 14.75958727 -1.12025452 11.54165649 C-1.12316736 10.59419984 -1.1260802 9.6467432 -1.12908131 8.67057574 C-1.12709026 7.81316172 -1.12509921 6.95574771 -1.12304783 6.07235146 C-1.12342755 5.32885905 -1.12380727 4.58536664 -1.1241985 3.81934416 C-1 2 -1 2 0 0 Z " fill="#D8B760" transform="translate(61,126)"/>
<path d="M0 0 C3.95403662 0.26360244 5.65370756 0.86143155 8.75 3.25 C11.26072644 7.01608966 10.91011363 8.76376627 10.26953125 13.0859375 C9.75 15.25 9.75 15.25 8.3125 17.8125 C4.23731981 20.09857669 0.30284429 19.96966757 -4.25 19.25 C-7.21421247 17.5871491 -7.9164927 16.36724945 -8.875 13.15625 C-9.32967004 10.72051763 -9.52676483 8.71452493 -9.25 6.25 C-6.875 3.25 -6.875 3.25 -4.25 1.25 C-3.25 0.25 -3.25 0.25 0 0 Z " fill="#130806" transform="translate(246.25,87.75)"/>
<path d="M0 0 C0.33 0 0.66 0 1 0 C1.79570734 8.78302299 2.13704661 17.46924394 2.09765625 26.28588867 C2.09619598 27.54278503 2.09473572 28.7996814 2.0932312 30.09466553 C2.08945256 32.7976874 2.08388894 35.5006312 2.07516479 38.20363426 C2.06150858 42.47725039 2.05572167 46.75085629 2.05102539 51.02449036 C2.03999517 60.07884114 2.02040639 69.13316625 2 78.1875 C1.9779445 88.00342539 1.95742072 97.819341 1.94658184 107.63528615 C1.94159821 111.88561661 1.93173952 116.13589952 1.91815186 120.3862108 C1.90896966 123.63661863 1.90617891 126.8870333 1.90234375 130.13745117 C1.89717743 131.31608231 1.89201111 132.49471344 1.88668823 133.70906067 C1.88661774 134.77844879 1.88654724 135.84783691 1.88647461 136.94963074 C1.884254 137.88219287 1.88203339 138.814755 1.87974548 139.77557659 C1.85407713 142.04005292 1.85407713 142.04005292 3 144 C2.505 144.99 2.505 144.99 2 146 C1.01 146 0.02 146 -1 146 C-1.02333542 127.25927575 -1.04098235 108.51855443 -1.05181217 89.77781868 C-1.05697376 81.07664632 -1.06401385 72.37548298 -1.07543945 63.67431641 C-1.08539047 56.09251839 -1.09185443 48.5107269 -1.09408849 40.92892253 C-1.09539489 36.91249781 -1.09847626 32.89609176 -1.10573006 28.879673 C-1.11249685 25.10244943 -1.11461561 21.32525229 -1.11310768 17.54802322 C-1.11338371 16.15883745 -1.11538494 14.76965083 -1.11920547 13.38047028 C-1.12415291 11.48942193 -1.12239515 9.59835952 -1.12025452 7.70730591 C-1.12117631 6.64724398 -1.1220981 5.58718204 -1.12304783 4.49499702 C-1 2 -1 2 0 0 Z " fill="#9EADB5" transform="translate(106,163)"/>
<path d="M0 0 C0.66 0.33 1.32 0.66 2 1 C1.39231763 4.57046234 0.35685423 7.57946097 -1.02838135 10.91351318 C-4.23320255 20.45780333 -3.57142838 30.43389948 -3.54589844 40.38378906 C-3.55464338 42.64169524 -3.56513236 44.89959523 -3.57722473 47.15748596 C-3.60499222 53.25787016 -3.60849145 59.35805121 -3.60750484 65.45848942 C-3.61064189 71.84466622 -3.6362766 78.2307526 -3.65948486 84.61688232 C-3.69539182 95.32613997 -3.71753326 106.03532323 -3.72900391 116.74462891 C-3.74085083 127.76972899 -3.76108299 138.79476173 -3.79248047 149.81982422 C-3.79441657 150.50069352 -3.79635267 151.18156283 -3.79834744 151.88306454 C-3.80811275 155.29916965 -3.81804173 158.71527425 -3.82805204 162.13137865 C-3.91073835 190.42088585 -3.96451383 218.71039692 -4 247 C-10.625 247.25 -10.625 247.25 -14 245 C-11.03 245.33 -8.06 245.66 -5 246 C-5.00553076 244.24905061 -5.00553076 244.24905061 -5.01117325 242.4627285 C-5.09794434 214.70690948 -5.16383179 186.95110108 -5.20426132 159.19517472 C-5.2092637 155.77334541 -5.21444103 152.35151638 -5.21972656 148.9296875 C-5.2207758 148.24850906 -5.22182505 147.56733063 -5.22290608 146.86551042 C-5.24027596 135.85919584 -5.27179463 124.85296546 -5.30861118 113.84670071 C-5.34611607 102.53973037 -5.36795685 91.23282216 -5.37635398 79.92578566 C-5.38155677 73.58046891 -5.3937371 67.23534267 -5.42292023 60.89008713 C-5.45020027 54.90980027 -5.45841955 48.92978127 -5.45243073 42.9494381 C-5.45352534 40.76222589 -5.46140364 38.57500413 -5.4768219 36.38784599 C-5.55625253 24.53223644 -5.19565755 14.22955009 -1 3 C-0.67 2.01 -0.34 1.02 0 0 Z " fill="#E5C674" transform="translate(90,146)"/>
<path d="M0 0 C0 3 0 3 -1 5 C-1.09292928 7.53285051 -1.12581684 10.03793593 -1.11352539 12.57080078 C-1.11367142 13.35137848 -1.11381744 14.13195618 -1.1139679 14.93618774 C-1.11326986 17.52259069 -1.10548257 20.10892209 -1.09765625 22.6953125 C-1.09579168 24.48607341 -1.09436796 26.27683483 -1.09336853 28.06759644 C-1.08954641 32.78584191 -1.07971871 37.5040567 -1.06866455 42.22229004 C-1.05844389 47.03490789 -1.0538695 51.84753068 -1.04882812 56.66015625 C-1.03809619 66.10678433 -1.0210234 75.55338962 -1 85 C-0.67 85 -0.34 85 0 85 C0.33 87.31 0.66 89.62 1 92 C1.66 92 2.32 92 3 92 C4.5078125 93.75 4.5078125 93.75 6.125 96 C6.66382812 96.7425 7.20265625 97.485 7.7578125 98.25 C8.37269531 99.11625 8.37269531 99.11625 9 100 C3.09814775 97.14910527 -0.78719971 93.78806803 -4 88 C-4.38025792 85.09261705 -4.54856422 82.57066789 -4.51757812 79.67138672 C-4.5245874 78.8576358 -4.53159668 78.04388489 -4.53881836 77.20547485 C-4.55634849 74.52985994 -4.54479595 71.85531216 -4.53125 69.1796875 C-4.53394583 67.31454262 -4.53782902 65.44939911 -4.54284668 63.58425903 C-4.54873451 59.68217541 -4.54019991 55.78045883 -4.52148438 51.87841797 C-4.49866349 46.87677336 -4.51184216 41.87598586 -4.53577423 36.87437248 C-4.55022454 33.02590467 -4.5456303 29.17764033 -4.53526306 25.32916641 C-4.53259529 23.48477197 -4.5358673 21.64035903 -4.54518127 19.79598618 C-4.55533788 17.22010028 -4.5398607 14.64560637 -4.51757812 12.06982422 C-4.52567505 11.30816956 -4.53377197 10.54651489 -4.54211426 9.76177979 C-4.48420649 6.14942068 -4.27981019 4.34479644 -1.96765137 1.49563599 C-1.31832642 1.00207611 -0.66900146 0.50851624 0 0 Z " fill="#0F7F9F" transform="translate(109,332)"/>
<path d="M0 0 C1.32 0.66 2.64 1.32 4 2 C4.02321255 9.98016809 4.04096044 17.96032197 4.05181217 25.94051552 C4.05702153 29.646391 4.0640837 33.35224332 4.07543945 37.05810547 C4.08633768 40.63722332 4.0922915 44.21631895 4.09487724 47.79545212 C4.09671902 49.15812912 4.10031549 50.52080496 4.10573006 51.88347244 C4.11303249 53.7981166 4.11340884 55.71278333 4.11352539 57.62744141 C4.115746 58.71554108 4.11796661 59.80364075 4.12025452 60.92471313 C3.99894288 64.02703394 3.57739005 66.9523429 3 70 C2.34 70 1.68 70 1 70 C0.79375 70.7425 0.5875 71.485 0.375 72.25 C-1.39615589 75.79231177 -3.63427951 77.02446841 -7 79 C-7.33 78.01 -7.66 77.02 -8 76 C-6.68 76 -5.36 76 -4 76 C-4.99 73.03 -4.99 73.03 -6 70 C-3 68 -3 68 2 68 C2 46.22 2 24.44 2 2 C1.34 2 0.68 2 0 2 C0 1.34 0 0.68 0 0 Z " fill="#12AFDA" transform="translate(475,352)"/>
<path d="M0 0 C0.66 0.33 1.32 0.66 2 1 C1.3503125 1.5878125 1.3503125 1.5878125 0.6875 2.1875 C-1.1011096 3.93768827 -1.1011096 3.93768827 -2.125 6.25 C-4.50651953 9.7428953 -7.4097393 11.78505002 -10.78515625 14.28515625 C-12.66707039 15.7422291 -14.21834922 17.18443077 -15.8125 18.9375 C-18 21 -18 21 -22 21 C-22 21.66 -22 22.32 -22 23 C-22.99 22.67 -23.98 22.34 -25 22 C-24.34 22 -23.68 22 -23 22 C-23 21.34 -23 20.68 -23 20 C-21.46804728 18.62787699 -19.87078919 17.3284554 -18.25 16.0625 C-11.89520275 10.98857866 -5.94157102 5.54754014 0 0 Z " fill="#0C97C0" transform="translate(195,256)"/>
<path d="M0 0 C-0.33 1.32 -0.66 2.64 -1 4 C-1.66 4 -2.32 4 -3 4 C-3.66 5.32 -4.32 6.64 -5 8 C-5.99 8 -6.98 8 -8 8 C-8.26167969 8.59425781 -8.52335938 9.18851562 -8.79296875 9.80078125 C-11.20260656 14.19115693 -15.15873799 17.45153897 -19.9375 18.875 C-20.618125 18.91625 -21.29875 18.9575 -22 19 C-21.34 18.67 -20.68 18.34 -20 18 C-20 17.34 -20 16.68 -20 16 C-18.3623728 14.54597658 -16.66265804 13.16151322 -14.9375 11.8125 C-10.77460622 8.49720572 -6.95668045 5.11466034 -3.33984375 1.21484375 C-2 0 -2 0 0 0 Z " fill="#0DA1C8" transform="translate(164,285)"/>
<path d="M0 0 C2.99394052 0.56026957 5.41090451 1.81919896 8.00390625 3.375 C7.34390625 4.035 6.68390625 4.695 6.00390625 5.375 C5.34390625 5.045 4.68390625 4.715 4.00390625 4.375 C3.01390625 4.54 2.02390625 4.705 1.00390625 4.875 C-1.99609375 5.375 -1.99609375 5.375 -3.99609375 4.375 C-6.33613545 4.65741883 -8.67114098 4.98750787 -10.99609375 5.375 C-7.66470441 1.21076332 -5.45980185 -0.33152497 0 0 Z " fill="#0CA4CC" transform="translate(218.99609375,240.625)"/>
<path d="M0 0 C1.32 0.33 2.64 0.66 4 1 C4 2.65 4 4.3 4 6 C4.763125 5.814375 5.52625 5.62875 6.3125 5.4375 C11.30269322 4.84544318 16.02603203 5.42471901 21 6 C21 5.01 21 4.02 21 3 C21.66 3.33 22.32 3.66 23 4 C22.67 5.32 22.34 6.64 22 8 C15.73 8 9.46 8 3 8 C2.01 5.36 1.02 2.72 0 0 Z " fill="#E3636B" transform="translate(215,90)"/>
<path d="M0 0 C0.33 0 0.66 0 1 0 C1 2.97 1 5.94 1 9 C0.67 8.34 0.34 7.68 0 7 C-6.27 7 -12.54 7 -19 7 C-18.67 6.01 -18.34 5.02 -18 4 C-17.01 4.33 -16.02 4.66 -15 5 C-14.67 4.34 -14.34 3.68 -14 3 C-13.34 3.33 -12.68 3.66 -12 4 C-10.12943209 4.2275015 -8.25314042 4.40962811 -6.375 4.5625 C-4.87066406 4.68818359 -4.87066406 4.68818359 -3.3359375 4.81640625 C-2.56507813 4.87699219 -1.79421875 4.93757813 -1 5 C-0.67 3.35 -0.34 1.7 0 0 Z " fill="#DC6167" transform="translate(276,91)"/>
<path d="M0 0 C0.33 0 0.66 0 1 0 C1 1.65 1 3.3 1 5 C0.34 5 -0.32 5 -1 5 C-1.20625 5.7425 -1.4125 6.485 -1.625 7.25 C-3.39615589 10.79231177 -5.63427951 12.02446841 -9 14 C-9.33 13.01 -9.66 12.02 -10 11 C-8.68 11 -7.36 11 -6 11 C-6.66 9.02 -7.32 7.04 -8 5 C-4.77208445 2.8480563 -3.71599191 2.79913557 0 3 C0 2.01 0 1.02 0 0 Z " fill="#08ADDD" transform="translate(477,417)"/>
<path d="M0 0 C0 3 0 3 -1.46875 4.578125 C-2.1390625 5.12984375 -2.809375 5.6815625 -3.5 6.25 C-4.22832031 6.85972656 -4.95664063 7.46945312 -5.70703125 8.09765625 C-6.46371094 8.72542969 -7.22039062 9.35320312 -8 10 C-9.39923652 11.22529121 -10.7952062 12.45432549 -12.1875 13.6875 C-15.06412886 16.20667794 -17.98592834 18.64525652 -21 21 C-21.66 20.67 -22.32 20.34 -23 20 C-15.54656976 13.04086356 -7.9774213 6.35995202 0 0 Z " fill="#222A2F" transform="translate(157,264)"/>
<path d="M0 0 C6.66768756 0.43846471 12.4214497 1.25644477 17.875 5.4375 C19.18542937 7.25754079 19.62120668 8.80299877 20 11 C17.16661778 9.62159784 14.44311194 8.13581614 11.75 6.5 C11.04359375 6.0771875 10.3371875 5.654375 9.609375 5.21875 C9.07828125 4.8165625 8.5471875 4.414375 8 4 C8 3.34 8 2.68 8 2 C4.7 2.33 1.4 2.66 -2 3 C-1.34 2.01 -0.68 1.02 0 0 Z " fill="#001D2C" transform="translate(414,309)"/>
<path d="M0 0 C0.66 0.33 1.32 0.66 2 1 C1.34 1.66 0.68 2.32 0 3 C0.33 3.66 0.66 4.32 1 5 C0.34 5 -0.32 5 -1 5 C-1 5.66 -1 6.32 -1 7 C-1.66 7 -2.32 7 -3 7 C-3.33 7.99 -3.66 8.98 -4 10 C-4.99 10.33 -5.98 10.66 -7 11 C-7 11.99 -7 12.98 -7 14 C-7.99 14 -8.98 14 -10 14 C-8.38798165 8.2683792 -4.12110332 4.12110332 0 0 Z " fill="#DDC163" transform="translate(72,112)"/>
<path d="M0 0 C0 0.99 0 1.98 0 3 C-0.66 3 -1.32 3 -2 3 C-2.33 3.99 -2.66 4.98 -3 6 C-3.99 6 -4.98 6 -6 6 C-6 6.99 -6 7.98 -6 9 C-6.66 9 -7.32 9 -8 9 C-8.66 10.32 -9.32 11.64 -10 13 C-10.66 13 -11.32 13 -12 13 C-10.97359462 7.73967244 -6.06649671 0 0 0 Z " fill="#B7C8D0" transform="translate(119,150)"/>
<path d="M0 0 C0.66 0.33 1.32 0.66 2 1 C0.8553125 2.3303125 0.8553125 2.3303125 -0.3125 3.6875 C-2.51546225 6.31864364 -4.24541036 9.04909925 -6 12 C-7 13 -8 14 -9 15 C-9.33 15.99 -9.66 16.98 -10 18 C-10.66 18 -11.32 18 -12 18 C-9.28141764 10.52389852 -5.75375747 5.36145583 0 0 Z " fill="#230509" transform="translate(57,99)"/>
<path d="M0 0 C0.33 0.66 0.66 1.32 1 2 C-0.1241176 3.29243468 -1.24932592 4.58392075 -2.375 5.875 C-3.00148438 6.59429687 -3.62796875 7.31359375 -4.2734375 8.0546875 C-7.4971316 11.68681344 -9.16397252 12.36921381 -14 13 C-9.55618306 8.41283413 -4.79771501 4.21237287 0 0 Z " fill="#0C9EC7" transform="translate(124,319)"/>
<path d="M0 0 C0.66 0 1.32 0 2 0 C0.49650623 3.66786393 -1.63728792 5.68910393 -4.625 8.25 C-5.44226563 8.95640625 -6.25953125 9.6628125 -7.1015625 10.390625 C-8.04128906 11.18726563 -8.04128906 11.18726563 -9 12 C-9.99 11.67 -10.98 11.34 -12 11 C-11.01 10.67 -10.02 10.34 -9 10 C-9 8.68 -9 7.36 -9 6 C-7.25 4.25 -7.25 4.25 -5 3 C-3.68 3 -2.36 3 -1 3 C-0.67 2.01 -0.34 1.02 0 0 Z " fill="#C6D7E1" transform="translate(164,255)"/>
<path d="M0 0 C0.99 1.98 1.98 3.96 3 6 C2.01 6.33 1.02 6.66 0 7 C-0.33 6.01 -0.66 5.02 -1 4 C-1.33 4.66 -1.66 5.32 -2 6 C-2.66 6 -3.32 6 -4 6 C-4 6.66 -4 7.32 -4 8 C-4.66 8 -5.32 8 -6 8 C-6.66 6.35 -7.32 4.7 -8 3 C-2.25 0 -2.25 0 0 0 Z " fill="#F4D168" transform="translate(238,100)"/>
<path d="M0 0 C0.66 0.33 1.32 0.66 2 1 C1.73445313 1.61746094 1.46890625 2.23492187 1.1953125 2.87109375 C-1.17189366 8.54720486 -2.8314502 13.9624927 -4 20 C-4.33 20 -4.66 20 -5 20 C-5 14.72 -5 9.44 -5 4 C-3.68 3.34 -2.36 2.68 -1 2 C-0.67 1.34 -0.34 0.68 0 0 Z " fill="#CD506D" transform="translate(45,112)"/>
<path d="M0 0 C0.99 0 1.98 0 3 0 C3 2.97 3 5.94 3 9 C-1.85714286 6.57142857 -1.85714286 6.57142857 -4 4 C-4 3.34 -4 2.68 -4 2 C-2.68 2.33 -1.36 2.66 0 3 C0 2.01 0 1.02 0 0 Z " fill="#D0E3EC" transform="translate(476,320)"/>
<path d="M0 0 C-1.50982731 3.42856619 -3.51713969 5.95678216 -6 8.75 C-7.051875 9.94882813 -7.051875 9.94882813 -8.125 11.171875 C-10 13 -10 13 -12 13 C-10.49017269 9.57143381 -8.48286031 7.04321784 -6 4.25 C-5.29875 3.45078125 -4.5975 2.6515625 -3.875 1.828125 C-2 0 -2 0 0 0 Z " fill="#535353" transform="translate(24,64)"/>
<path d="M0 0 C3.2826932 1.49076434 5.93077441 3.38620321 8.75 5.625 C9.94882812 6.57246094 9.94882812 6.57246094 11.171875 7.5390625 C11.77515625 8.02117187 12.3784375 8.50328125 13 9 C11.68 9.33 10.36 9.66 9 10 C9 9.01 9 8.02 9 7 C6.36 6.34 3.72 5.68 1 5 C0.67 3.35 0.34 1.7 0 0 Z " fill="#0EA6CA" transform="translate(451,334)"/>
<path d="M0 0 C0 2 0 2 -2.0625 4.125 C-2.51109375 4.55425781 -2.9596875 4.98351562 -3.421875 5.42578125 C-6.45742358 8.45381609 -9.2036577 11.75237479 -12 15 C-12.33 14.34 -12.66 13.68 -13 13 C-3.61290323 0 -3.61290323 0 0 0 Z " fill="#261D08" transform="translate(104,137)"/>
<path d="M0 0 C1.27350058 3.01009228 0.99687398 4.00781505 -0.25 7.125 C-2 10 -2 10 -5 12 C-6 9 -6 9 -5.0390625 6.9921875 C-4.57242187 6.29351562 -4.10578125 5.59484375 -3.625 4.875 C-3.16351562 4.17117187 -2.70203125 3.46734375 -2.2265625 2.7421875 C-1 1 -1 1 0 0 Z " fill="#D14A6B" transform="translate(29,87)"/>
<path d="M0 0 C4.52615993 3.67832017 8.39424999 7.41086363 12 12 C11.01 12.495 11.01 12.495 10 13 C8.62437146 11.71034824 7.29233607 10.37310707 6 9 C6 8.34 6 7.68 6 7 C4.35 6.67 2.7 6.34 1 6 C0.67 4.02 0.34 2.04 0 0 Z " fill="#0EA3C8" transform="translate(325,346)"/>
<path d="M0 0 C0.66 0.33 1.32 0.66 2 1 C2.625 3.0625 2.625 3.0625 3 5 C-3.5 7.125 -3.5 7.125 -8 6 C-5.36 4.02 -2.72 2.04 0 0 Z " fill="#0EA3CF" transform="translate(379,335)"/>
<path d="M0 0 C4.2694274 3.37582631 7.5820056 6.77248061 11 11 C12.31543863 12.35099103 13.64175118 13.69205669 15 15 C14.01 15.495 14.01 15.495 13 16 C10.44167148 13.51273616 8.05914373 11.07653895 5.875 8.25 C4.12568403 5.74947545 4.12568403 5.74947545 1 5 C0.67 3.35 0.34 1.7 0 0 Z " fill="#109AC0" transform="translate(242,260)"/>
<path d="M0 0 C-2.48479386 1.65652924 -4.9636255 3.16072474 -7.5625 4.625 C-8.34753906 5.07101563 -9.13257812 5.51703125 -9.94140625 5.9765625 C-12 7 -12 7 -14 7 C-13.67 5.68 -13.34 4.36 -13 3 C-12.01 3.33 -11.02 3.66 -10 4 C-10 3.01 -10 2.02 -10 1 C-6.52674819 -0.1577506 -3.63932552 -0.06866652 0 0 Z " fill="#E1C56B" transform="translate(116,130)"/>
<path d="M0 0 C0.33 0 0.66 0 1 0 C1.45164525 7.11341265 0.32797915 11.71546794 -3 18 C-4.231394 14.30581799 -3.64432764 11.7943739 -3 8 C-2.01 8 -1.02 8 0 8 C0 5.36 0 2.72 0 0 Z " fill="#EFD075" transform="translate(399,226)"/>
<path d="M0 0 C1.14926266 0.95421808 2.29430541 1.91352045 3.4375 2.875 C4.07558594 3.40867187 4.71367187 3.94234375 5.37109375 4.4921875 C7 6 7 6 8 8 C6.02 8.33 4.04 8.66 2 9 C2 8.01 2 7.02 2 6 C1.34 6 0.68 6 0 6 C0 4.02 0 2.04 0 0 Z " fill="#0BAADA" transform="translate(290,310)"/>
<path d="M0 0 C1.12894876 0.93274109 2.25300876 1.87140122 3.375 2.8125 C4.00148438 3.33457031 4.62796875 3.85664063 5.2734375 4.39453125 C7 6 7 6 9 9 C8.01 9.495 8.01 9.495 7 10 C6.67 9.34 6.34 8.68 6 8 C5.175 7.7525 4.35 7.505 3.5 7.25 C2.675 6.8375 1.85 6.425 1 6 C0.1875 2.875 0.1875 2.875 0 0 Z " fill="#109FC5" transform="translate(266,285)"/>
<path d="M0 0 C-0.3125 1.9375 -0.3125 1.9375 -1 4 C-1.99 4.33 -2.98 4.66 -4 5 C-4.33 4.34 -4.66 3.68 -5 3 C-7.01669827 1.86649466 -7.01669827 1.86649466 -9 1 C-5.64919071 -1.10976881 -3.77897651 -1.0497157 0 0 Z " fill="#EECE6C" transform="translate(377,209)"/>
<path d="M0 0 C-5.445 3.96 -5.445 3.96 -11 8 C-11.33 7.34 -11.66 6.68 -12 6 C-11.34 6 -10.68 6 -10 6 C-10 5.34 -10 4.68 -10 4 C-7.06047868 0.47257441 -4.50852904 -1.50284301 0 0 Z " fill="#001929" transform="translate(386,331)"/>
<path d="M0 0 C3.26008643 3.16952847 6.22237877 6.39937989 9 10 C7.68 10 6.36 10 5 10 C5 9.34 5 8.68 5 8 C4.01 7.67 3.02 7.34 2 7 C0.8125 3.4375 0.8125 3.4375 0 0 Z " fill="#0FA6CB" transform="translate(281,300)"/>
<path d="M0 0 C0.66 0.33 1.32 0.66 2 1 C1.27991594 5.60853797 -0.31295939 9.67237409 -2 14 C-2.33 14 -2.66 14 -3 14 C-2.58846263 9.02906176 -2.20399168 4.55491614 0 0 Z " fill="#D8BC65" transform="translate(90,146)"/>
<path d="M0 0 C1.4835001 0.42257276 2.96176424 0.86356322 4.4375 1.3125 C5.67306641 1.67794922 5.67306641 1.67794922 6.93359375 2.05078125 C7.61550781 2.36402344 8.29742187 2.67726563 9 3 C9.33 3.99 9.66 4.98 10 6 C10.66 6.33 11.32 6.66 12 7 C11.67 7.66 11.34 8.32 11 9 C9.16384919 7.69144447 7.33114211 6.37805538 5.5 5.0625 C4.4790625 4.33160156 3.458125 3.60070312 2.40625 2.84765625 C1.6121875 2.23792969 0.818125 1.62820313 0 1 C0 0.67 0 0.34 0 0 Z " fill="#00192C" transform="translate(446,329)"/>
<path d="M0 0 C1.32 0.66 2.64 1.32 4 2 C2.02 2.99 2.02 2.99 0 4 C0 4.66 0 5.32 0 6 C-1.98 6.99 -1.98 6.99 -4 8 C-3.50168276 4.31245243 -2.89932357 2.39509338 0 0 Z " fill="#001824" transform="translate(144,297)"/>
<path d="M0 0 C2.51083114 1.25541557 2.87125446 2.50063488 4 5 C2.02 5.99 2.02 5.99 0 7 C-0.99 5.68 -1.98 4.36 -3 3 C-2.01 2.01 -1.02 1.02 0 0 Z " fill="#CBDFE8" transform="translate(344,330)"/>
<path d="M0 0 C0.66 0 1.32 0 2 0 C2 0.66 2 1.32 2 2 C2.66 2 3.32 2 4 2 C5.5078125 3.75 5.5078125 3.75 7.125 6 C7.66382812 6.7425 8.20265625 7.485 8.7578125 8.25 C9.16773437 8.8275 9.57765625 9.405 10 10 C1.72709021 6.01348057 1.72709021 6.01348057 0.1875 1.75 C0.125625 1.1725 0.06375 0.595 0 0 Z " fill="#0E7E9E" transform="translate(108,422)"/>
<path d="M0 0 C2.475 0.495 2.475 0.495 5 1 C5.33 2.32 5.66 3.64 6 5 C8.64 5 11.28 5 14 5 C14 5.33 14 5.66 14 6 C6.17847534 6.92017937 6.17847534 6.92017937 3.2890625 4.6640625 C1.9375 3 1.9375 3 0 0 Z " fill="#002639" transform="translate(363,384)"/>
<path d="M0 0 C0.86625 0.556875 0.86625 0.556875 1.75 1.125 C0.76 1.125 -0.23 1.125 -1.25 1.125 C-1.25 1.785 -1.25 2.445 -1.25 3.125 C0.07 3.455 1.39 3.785 2.75 4.125 C-0.625 4.3125 -0.625 4.3125 -4.25 4.125 C-4.91 3.135 -5.57 2.145 -6.25 1.125 C-2.80384615 -1.09038462 -2.80384615 -1.09038462 0 0 Z " fill="#D04A69" transform="translate(35.25,344.875)"/>
<path d="M0 0 C0.33 0 0.66 0 1 0 C1.165 0.94875 1.33 1.8975 1.5 2.875 C2.62222102 6.08126412 2.62222102 6.08126412 4.9140625 6.84375 C6.92184864 7.32618625 8.96141284 7.67119562 11 8 C10.01 8.66 9.02 9.32 8 10 C8 9.34 8 8.68 8 8 C5.36 8 2.72 8 0 8 C0 5.36 0 2.72 0 0 Z " fill="#949494" transform="translate(411,81)"/>
<path d="M0 0 C1.32 0.33 2.64 0.66 4 1 C1.36 2.98 -1.28 4.96 -4 7 C-4 5.68 -4 4.36 -4 3 C-3.01 3 -2.02 3 -1 3 C-0.67 2.01 -0.34 1.02 0 0 Z " fill="#001522" transform="translate(196,252)"/>
<path d="M0 0 C-2.49409061 1.57035335 -3.70443416 2.0274945 -6.6875 1.75 C-7.8321875 1.37875 -7.8321875 1.37875 -9 1 C-9.33 0.34 -9.66 -0.32 -10 -1 C-6.18510326 -2.46726798 -3.70988378 -1.43336419 0 0 Z " fill="#05B2E0" transform="translate(229,246)"/>
<path d="M0 0 C3.875 4.75 3.875 4.75 5 7 C3.68 7 2.36 7 1 7 C1 6.34 1 5.68 1 5 C0.01 5.33 -0.98 5.66 -2 6 C-1.34 4.02 -0.68 2.04 0 0 Z " fill="#E9CC66" transform="translate(276,100)"/>
<path d="M0 0 C0.33 0 0.66 0 1 0 C1 3.63 1 7.26 1 11 C-0.98 11.66 -2.96 12.32 -5 13 C-4.360625 12.34 -3.72125 11.68 -3.0625 11 C-0.41087498 7.14309088 -0.31332879 4.62159967 0 0 Z " fill="#0A84A8" transform="translate(382,377)"/>
<path d="M0 0 C3.3 0.33 6.6 0.66 10 1 C9.67 1.99 9.34 2.98 9 4 C7.0625 4.75 7.0625 4.75 5 5 C4.34 4.67 3.68 4.34 3 4 C3 3.34 3 2.68 3 2 C2.01 1.67 1.02 1.34 0 1 C0 0.67 0 0.34 0 0 Z " fill="#DBC263" transform="translate(68,385)"/>
<path d="M0 0 C1.11375 0.598125 2.2275 1.19625 3.375 1.8125 C4.00148438 2.14894531 4.62796875 2.48539062 5.2734375 2.83203125 C7 4 7 4 9 7 C6.525 6.01 6.525 6.01 4 5 C4 5.66 4 6.32 4 7 C3.34 6.67 2.68 6.34 2 6 C2 4.68 2 3.36 2 2 C1.34 2 0.68 2 0 2 C0 1.34 0 0.68 0 0 Z " fill="#12A2C9" transform="translate(442,327)"/>
<path d="M0 0 C2.31 0.66 4.62 1.32 7 2 C7.33 3.98 7.66 5.96 8 8 C6.85073734 7.04578192 5.70569459 6.08647955 4.5625 5.125 C3.92441406 4.59132813 3.28632813 4.05765625 2.62890625 3.5078125 C1 2 1 2 0 0 Z " fill="#012439" transform="translate(279,298)"/>
<path d="M0 0 C0 0.99 0 1.98 0 3 C0.66 3 1.32 3 2 3 C2 3.66 2 4.32 2 5 C2.66 5 3.32 5 4 5 C3.67 5.66 3.34 6.32 3 7 C0.03 5.35 -2.94 3.7 -6 2 C-2 0 -2 0 0 0 Z " fill="#BCCCD3" transform="translate(436,293)"/>
<path d="M0 0 C1.98 0.66 3.96 1.32 6 2 C5.34 3.32 4.68 4.64 4 6 C2.62437146 4.71034824 1.29233607 3.37310707 0 2 C0 1.34 0 0.68 0 0 Z " fill="#EECD62" transform="translate(424,117)"/>
<path d="M0 0 C0.66 0.33 1.32 0.66 2 1 C0.38405168 3.04119788 -1.2856382 5.04072937 -3 7 C-3.66 7 -4.32 7 -5 7 C-5 7.66 -5 8.32 -5 9 C-5.66 8.67 -6.32 8.34 -7 8 C-4.69 5.36 -2.38 2.72 0 0 Z " fill="#3E0E17" transform="translate(57,99)"/>
<path d="M0 0 C0.66 0.33 1.32 0.66 2 1 C0.3125 3.5 0.3125 3.5 -2 6 C-4.75 6.3125 -4.75 6.3125 -7 6 C-4.83312509 3.72478134 -2.54379491 1.84205838 0 0 Z " fill="#0B96BB" transform="translate(401,319)"/>
<path d="M0 0 C0 3 0 3 -2 6 C-5.125 7.1875 -5.125 7.1875 -8 8 C-5.58443874 4.80800833 -3.31996462 2.25283313 0 0 Z " fill="#0D8DB1" transform="translate(133,311)"/>
<path d="M0 0 C3.3 0 6.6 0 10 0 C10 0.33 10 0.66 10 1 C8.4221875 1.1546875 8.4221875 1.1546875 6.8125 1.3125 C3.12569246 1.97733415 1.03361401 2.88566296 -2 5 C-2 4.01 -2 3.02 -2 2 C-1.34 2 -0.68 2 0 2 C0 1.34 0 0.68 0 0 Z " fill="#D15170" transform="translate(240,87)"/>
<path d="M0 0 C0.66 0 1.32 0 2 0 C0.50902342 3.7952131 -1.75700849 5.61042731 -5 8 C-5.66 7.67 -6.32 7.34 -7 7 C-5.47005208 5.76302083 -3.94010417 4.52604167 -2.41015625 3.2890625 C-0.86733563 2.0333609 -0.86733563 2.0333609 0 0 Z " fill="#252D31" transform="translate(190,234)"/>
<path d="M0 0 C3.465 1.98 3.465 1.98 7 4 C6.01 4.66 5.02 5.32 4 6 C3.01 5.67 2.02 5.34 1 5 C0.67 3.35 0.34 1.7 0 0 Z " fill="#0EA5CE" transform="translate(431,319)"/>
<path d="M0 0 C0.66 0.99 1.32 1.98 2 3 C-0.3125 4.5625 -0.3125 4.5625 -3 6 C-3.99 5.67 -4.98 5.34 -6 5 C-5.34 5 -4.68 5 -4 5 C-4 4.34 -4 3.68 -4 3 C-2 1.375 -2 1.375 0 0 Z " fill="#109EC7" transform="translate(148,298)"/>
<path d="M0 0 C-2.97 2.475 -2.97 2.475 -6 5 C-6.33 3.68 -6.66 2.36 -7 1 C-3.375 -1.125 -3.375 -1.125 0 0 Z " fill="#00121F" transform="translate(167,282)"/>
<path d="M0 0 C2.31 0.66 4.62 1.32 7 2 C7 2.99 7 3.98 7 5 C7.66 5.33 8.32 5.66 9 6 C4.58763974 6 3.21615077 3.9302707 0 1 C0 0.67 0 0.34 0 0 Z " fill="#BDCCD4" transform="translate(239,229)"/>
<path d="M0 0 C0 0.99 0 1.98 0 3 C-3.465 4.485 -3.465 4.485 -7 6 C-5.52522876 2.59668175 -4.14385429 0 0 0 Z " fill="#D4BD64" transform="translate(368,211)"/>
<path d="M0 0 C0.598125 0.20625 1.19625 0.4125 1.8125 0.625 C-1.1575 3.1 -1.1575 3.1 -4.1875 5.625 C-4.5175 4.305 -4.8475 2.985 -5.1875 1.625 C-2.1875 -0.375 -2.1875 -0.375 0 0 Z " fill="#C8D9E2" transform="translate(351.1875,196.375)"/>
<path d="M0 0 C0 3 0 3 -2 6 C-3.32 5.67 -4.64 5.34 -6 5 C-4.02 3.35 -2.04 1.7 0 0 Z " fill="#C04C68" transform="translate(38,78)"/>
<path d="M0 0 C0.33 0 0.66 0 1 0 C1 1.65 1 3.3 1 5 C0.34 5 -0.32 5 -1 5 C-1.33 5.99 -1.66 6.98 -2 8 C-2.66 6.68 -3.32 5.36 -4 4 C-2.68 3.67 -1.36 3.34 0 3 C0 2.01 0 1.02 0 0 Z " fill="#0D9FCD" transform="translate(477,417)"/>
<path d="M0 0 C5.75 1.625 5.75 1.625 8 5 C7.01 5 6.02 5 5 5 C5 4.34 5 3.68 5 3 C3.35 2.67 1.7 2.34 0 2 C0 1.34 0 0.68 0 0 Z " fill="#E3C76F" transform="translate(385,209)"/>
<path d="M0 0 C2 1.625 2 1.625 4 4 C4.25 7.25 4.25 7.25 4 10 C1.16625119 6.79663178 0.4794463 4.21912747 0 0 Z " fill="#531D20" transform="translate(214,90)"/>
<path d="M0 0 C0.33 1.32 0.66 2.64 1 4 C0.01 4.33 -0.98 4.66 -2 5 C-2 5.66 -2 6.32 -2 7 C-2.66 7 -3.32 7 -4 7 C-2.92598892 4.08482708 -2.22189824 2.22189824 0 0 Z " fill="#B44560" transform="translate(29,87)"/>
<path d="M0 0 C-0.66 1.65 -1.32 3.3 -2 5 C-4 5 -6 5 -8 5 C-2.25 0 -2.25 0 0 0 Z " fill="#5A5A5A" transform="translate(32,58)"/>
<path d="" fill="#FFFFFF" transform="translate(0,0)"/>
<path d="" fill="#FFFFFF" transform="translate(0,0)"/>
<path d="" fill="#FFFFFF" transform="translate(0,0)"/>
<path d="" fill="#FFFFFF" transform="translate(0,0)"/>
<path d="" fill="#FFFFFF" transform="translate(0,0)"/>
<path d="" fill="#FFFFFF" transform="translate(0,0)"/>
<path d="" fill="#FFFFFF" transform="translate(0,0)"/>
<path d="" fill="#FFFFFF" transform="translate(0,0)"/>
<path d="" fill="#FFFFFF" transform="translate(0,0)"/>
<path d="" fill="#FFFFFF" transform="translate(0,0)"/>
<path d="" fill="#FFFFFF" transform="translate(0,0)"/>
<path d="" fill="#FFFFFF" transform="translate(0,0)"/>
<path d="" fill="#FFFFFF" transform="translate(0,0)"/>
<path d="" fill="#FFFFFF" transform="translate(0,0)"/>
<path d="" fill="#FFFFFF" transform="translate(0,0)"/>
<path d="" fill="#FFFFFF" transform="translate(0,0)"/>
<path d="" fill="#FFFFFF" transform="translate(0,0)"/>
<path d="" fill="#FFFFFF" transform="translate(0,0)"/>
<path d="" fill="#FFFFFF" transform="translate(0,0)"/>
<path d="" fill="#FFFFFF" transform="translate(0,0)"/>
<path d="" fill="#FFFFFF" transform="translate(0,0)"/>
<path d="" fill="#FFFFFF" transform="translate(0,0)"/>
<path d="" fill="#FFFFFF" transform="translate(0,0)"/>
</svg>
