<?xml version="1.0" encoding="UTF-8"?>
<!DOCTYPE svg PUBLIC "-//W3C//DTD SVG 1.1//EN" "http://www.w3.org/Graphics/SVG/1.1/DTD/svg11.dtd">
<svg xmlns="http://www.w3.org/2000/svg" version="1.1" width="500px" height="500px" style="shape-rendering:geometricPrecision; text-rendering:geometricPrecision; image-rendering:optimizeQuality; fill-rule:evenodd; clip-rule:evenodd" xmlns:xlink="http://www.w3.org/1999/xlink">
<g><path style="opacity:0.004" fill="#fefffe" d="M 30.5,4.5 C 31.8333,5.16667 31.8333,5.16667 30.5,4.5 Z"/></g>
<g><path style="opacity:0.004" fill="#fefffe" d="M 312.5,8.5 C 313.833,9.16667 313.833,9.16667 312.5,8.5 Z"/></g>
<g><path style="opacity:0.004" fill="#fefffe" d="M 491.5,11.5 C 492.833,12.1667 492.833,12.1667 491.5,11.5 Z"/></g>
<g><path style="opacity:0.004" fill="#fefffe" d="M 111.5,16.5 C 112.833,17.1667 112.833,17.1667 111.5,16.5 Z"/></g>
<g><path style="opacity:0.004" fill="#fefffe" d="M 300.5,16.5 C 301.833,17.1667 301.833,17.1667 300.5,16.5 Z"/></g>
<g><path style="opacity:0.004" fill="#fefffe" d="M 269.5,18.5 C 270.833,19.1667 270.833,19.1667 269.5,18.5 Z"/></g>
<g><path style="opacity:0.004" fill="#fefffe" d="M 106.5,27.5 C 107.833,28.1667 107.833,28.1667 106.5,27.5 Z"/></g>
<g><path style="opacity:0.004" fill="#fefffe" d="M 153.5,29.5 C 154.833,30.1667 154.833,30.1667 153.5,29.5 Z"/></g>
<g><path style="opacity:0.004" fill="#fefffe" d="M 209.5,37.5 C 210.833,38.1667 210.833,38.1667 209.5,37.5 Z"/></g>
<g><path style="opacity:0.994" fill="#030306" d="M 472.5,41.5 C 480.639,45.3017 487.639,50.635 493.5,57.5C 493.75,59.674 494.75,61.3406 496.5,62.5C 496.41,65.1522 497.076,67.4855 498.5,69.5C 498.833,69.5 499.167,69.5 499.5,69.5C 499.5,163.833 499.5,258.167 499.5,352.5C 499.167,352.5 498.833,352.5 498.5,352.5C 495.792,359.89 491.792,366.556 486.5,372.5C 479.313,379.314 470.646,382.814 460.5,383C 438.094,383.822 415.761,383.655 393.5,382.5C 391.838,379.203 390.172,376.37 388.5,374C 388.643,371.849 389.643,370.182 391.5,369C 416.437,367.695 441.437,367.028 466.5,367C 475.427,363.74 481.261,357.573 484,348.5C 484.667,256.167 484.667,163.833 484,71.5C 480.615,63.9479 475.115,58.6145 467.5,55.5C 466.737,54.7321 465.737,54.2321 464.5,54C 320.5,53.3333 176.5,53.3333 32.5,54C 31.944,54.3826 31.6107,54.8826 31.5,55.5C 23.2198,57.9466 17.7198,63.2799 15,71.5C 14.1717,164.207 14.3384,256.874 15.5,349.5C 15.3284,350.492 15.6618,351.158 16.5,351.5C 20.0761,361.418 27.0761,366.751 37.5,367.5C 146.373,368.171 255.373,368.837 364.5,369.5C 366.73,370.775 368.063,372.775 368.5,375.5C 367.566,376.568 367.232,377.901 367.5,379.5C 366.599,381.727 364.933,382.727 362.5,382.5C 352.833,382.5 343.167,382.5 333.5,382.5C 333.263,383.791 333.596,384.791 334.5,385.5C 335.938,395.404 337.605,405.238 339.5,415C 356.574,415.181 373.574,415.681 390.5,416.5C 390.427,418.027 391.094,419.027 392.5,419.5C 393.66,431.326 393.826,443.326 393,455.5C 392.5,457.333 391.333,458.5 389.5,459C 296.138,460.258 202.804,460.091 109.5,458.5C 108.833,457.167 107.833,456.167 106.5,455.5C 105.167,443.5 105.167,431.5 106.5,419.5C 107.833,418.833 108.833,417.833 109.5,416.5C 126.005,415.833 142.672,415.167 159.5,414.5C 161.538,404.567 163.205,394.567 164.5,384.5C 165.043,384.44 165.376,384.107 165.5,383.5C 123.172,382.5 80.8386,382.167 38.5,382.5C 29.6459,382.891 21.9792,380.224 15.5,374.5C 15.0269,373.094 14.0269,372.427 12.5,372.5C 7.20788,366.556 3.20788,359.89 0.5,352.5C 0.166667,352.5 -0.166667,352.5 -0.5,352.5C -0.5,258.167 -0.5,163.833 -0.5,69.5C 0.166667,68.5 0.833333,67.5 1.5,66.5C 5.63703,56.0275 12.637,48.0275 22.5,42.5C 24.9542,41.3794 27.6209,40.546 30.5,40C 176.5,39.3333 322.5,39.3333 468.5,40C 470.058,40.21 471.391,40.71 472.5,41.5 Z"/></g>
<g><path style="opacity:0.039" fill="#cbcbcb" d="M 472.5,41.5 C 477.78,42.3059 482.446,44.4726 486.5,48C 489.848,50.5014 492.182,53.6681 493.5,57.5C 487.639,50.635 480.639,45.3017 472.5,41.5 Z"/></g>
<g><path style="opacity:0.11" fill="#cfcfcf" d="M 22.5,42.5 C 12.637,48.0275 5.63703,56.0275 1.5,66.5C 4.21241,54.7853 11.2124,46.7853 22.5,42.5 Z"/></g>
<g><path style="opacity:1" fill="#041429" d="M 467.5,55.5 C 466.5,55.5 465.5,55.5 464.5,55.5C 464.167,55.5 463.833,55.5 463.5,55.5C 319.64,54.1707 175.64,54.1707 31.5,55.5C 31.6107,54.8826 31.944,54.3826 32.5,54C 176.5,53.3333 320.5,53.3333 464.5,54C 465.737,54.2321 466.737,54.7321 467.5,55.5 Z"/></g>
<g><path style="opacity:1" fill="#213963" d="M 463.5,55.5 C 463.833,55.5 464.167,55.5 464.5,55.5C 469.913,57.9595 474.747,61.2929 479,65.5C 479.196,67.2861 480.029,68.6195 481.5,69.5C 482.324,72.7848 482.824,76.1182 483,79.5C 483.667,164.833 483.667,250.167 483,335.5C 482.667,337.833 482.333,340.167 482,342.5C 481.667,254.833 481.333,167.167 481,79.5C 480.059,77.9386 478.892,76.6053 477.5,75.5C 475.191,79.1442 474.024,83.1442 474,87.5C 473.167,169.835 473.333,252.169 474.5,334.5C 476.024,335.527 476.691,337.027 476.5,339C 476.546,340.728 476.046,342.228 475,343.5C 474,341.5 473,339.5 472,337.5C 471.667,250.167 471.333,162.833 471,75.5C 470.617,74.944 470.117,74.6107 469.5,74.5C 468.5,74.1667 467.833,73.5 467.5,72.5C 467.249,70.8297 466.582,69.3297 465.5,68C 460.69,67.0323 456.024,65.6989 451.5,64C 455.541,63.8265 459.541,63.3265 463.5,62.5C 323.835,61.3333 184.168,61.1667 44.5,62C 45.8333,62.6667 47.1667,63.3333 48.5,64C 47.3333,64.5 46.5,65.3333 46,66.5C 41.7981,64.8503 37.2981,63.1837 32.5,61.5C 30.3772,61.2199 29.0439,62.0532 28.5,64C 29.8462,66.3002 30.5129,68.4669 30.5,70.5C 29.3465,73.4788 28.1798,76.4788 27,79.5C 24.2942,76.1879 23.7942,72.5213 25.5,68.5C 25.3868,66.3587 24.7201,64.5253 23.5,63C 26.769,59.3943 30.769,57.061 35.5,56C 178.166,55.5 320.833,55.3333 463.5,55.5 Z"/></g>
<g><path style="opacity:0.035" fill="#d3d3d3" d="M 493.5,57.5 C 495.25,58.6594 496.25,60.326 496.5,62.5C 494.75,61.3406 493.75,59.674 493.5,57.5 Z"/></g>
<g><path style="opacity:1" fill="#1f3b63" d="M 467.5,72.5 C 467.167,72.5 466.833,72.5 466.5,72.5C 464.421,70.127 461.754,68.7936 458.5,68.5C 349.667,67.3341 240.667,67.1674 131.5,68C 127.709,69.0804 126.043,71.5804 126.5,75.5C 120.167,75.5 113.833,75.5 107.5,75.5C 107.269,72.9368 105.935,71.2702 103.5,70.5C 103.389,69.8826 103.056,69.3826 102.5,69C 80.5,68.3333 58.5,68.3333 36.5,69C 35.4734,69.5133 34.4734,70.0133 33.5,70.5C 32.5,70.5 31.5,70.5 30.5,70.5C 30.5129,68.4669 29.8462,66.3002 28.5,64C 29.0439,62.0532 30.3772,61.2199 32.5,61.5C 37.2981,63.1837 41.7981,64.8503 46,66.5C 46.5,65.3333 47.3333,64.5 48.5,64C 47.1667,63.3333 45.8333,62.6667 44.5,62C 184.168,61.1667 323.835,61.3333 463.5,62.5C 459.541,63.3265 455.541,63.8265 451.5,64C 456.024,65.6989 460.69,67.0323 465.5,68C 466.582,69.3297 467.249,70.8297 467.5,72.5 Z"/></g>
<g><path style="opacity:0.008" fill="#cccccc" d="M 496.5,62.5 C 497.924,64.5145 498.59,66.8478 498.5,69.5C 497.076,67.4855 496.41,65.1522 496.5,62.5 Z"/></g>
<g><path style="opacity:1" fill="#2d4768" d="M 458.5,68.5 C 349.833,68.3333 241.166,68.5 132.5,69C 128.993,70.3296 127.327,72.8296 127.5,76.5C 120.833,76.5 114.167,76.5 107.5,76.5C 107.5,76.1667 107.5,75.8333 107.5,75.5C 113.833,75.5 120.167,75.5 126.5,75.5C 126.043,71.5804 127.709,69.0804 131.5,68C 240.667,67.1674 349.667,67.3341 458.5,68.5 Z"/></g>
<g><path style="opacity:1" fill="#05162d" d="M 103.5,70.5 C 81.8764,69.3555 60.2097,69.1888 38.5,70C 36.8455,70.6077 35.1789,71.1077 33.5,71.5C 33.5,71.1667 33.5,70.8333 33.5,70.5C 34.4734,70.0133 35.4734,69.5133 36.5,69C 58.5,68.3333 80.5,68.3333 102.5,69C 103.056,69.3826 103.389,69.8826 103.5,70.5 Z"/></g>
<g><path style="opacity:1" fill="#010306" d="M 458.5,68.5 C 461.754,68.7936 464.421,70.127 466.5,72.5C 467.511,74.3716 468.345,76.3716 469,78.5C 469.5,166.833 469.667,255.166 469.5,343.5C 469.649,344.552 469.483,345.552 469,346.5C 467.301,348.696 465.467,350.696 463.5,352.5C 320.479,352.827 177.479,352.494 34.5,351.5C 31.8318,350.543 30.3318,348.543 30,345.5C 29.3333,255.5 29.3333,165.5 30,75.5C 30.66,73.6763 31.8267,72.343 33.5,71.5C 35.1789,71.1077 36.8455,70.6077 38.5,70C 60.2097,69.1888 81.8764,69.3555 103.5,70.5C 105.935,71.2702 107.269,72.9368 107.5,75.5C 107.5,75.8333 107.5,76.1667 107.5,76.5C 106.582,78.8205 105.248,80.9871 103.5,83C 83.8362,83.5 64.1695,83.6666 44.5,83.5C 44.5,168.5 44.5,253.5 44.5,338.5C 181.236,339.167 318.069,339.834 455,340.5C 456.299,339.91 457.132,338.91 457.5,337.5C 457.173,252.516 456.173,167.849 454.5,83.5C 348.001,82.6669 241.334,82.1669 134.5,82C 132.968,81.3005 131.968,80.1338 131.5,78.5C 130.311,77.5713 128.978,77.238 127.5,77.5C 127.5,77.1667 127.5,76.8333 127.5,76.5C 127.327,72.8296 128.993,70.3296 132.5,69C 241.166,68.5 349.833,68.3333 458.5,68.5 Z"/></g>
<g><path style="opacity:1" fill="#213b60" d="M 464.5,55.5 C 465.5,55.5 466.5,55.5 467.5,55.5C 475.115,58.6145 480.615,63.9479 484,71.5C 484.667,163.833 484.667,256.167 484,348.5C 481.261,357.573 475.427,363.74 466.5,367C 441.437,367.028 416.437,367.695 391.5,369C 389.643,370.182 388.643,371.849 388.5,374C 390.172,376.37 391.838,379.203 393.5,382.5C 389.871,381.583 387.871,379.25 387.5,375.5C 381.5,375.5 375.5,375.5 369.5,375.5C 369.167,375.5 368.833,375.5 368.5,375.5C 368.063,372.775 366.73,370.775 364.5,369.5C 255.838,367.502 146.838,366.835 37.5,367.5C 27.0761,366.751 20.0761,361.418 16.5,351.5C 20.1909,356.516 24.8575,360.516 30.5,363.5C 32.3381,362.888 34.0047,362.888 35.5,363.5C 36.6956,363.154 36.6956,362.654 35.5,362C 40.6024,361.312 40.4358,360.479 35,359.5C 32.9291,360.667 31.4291,360.001 30.5,357.5C 31.1667,357.167 31.8333,356.833 32.5,356.5C 35.0602,357.656 37.5602,357.656 40,356.5C 43.3494,356.999 46.516,357.999 49.5,359.5C 150.165,360.333 250.832,360.833 351.5,361C 353.937,362.375 356.603,362.875 359.5,362.5C 375.171,361.284 391.005,361.284 407,362.5C 414.99,361.01 423.157,360.344 431.5,360.5C 440.808,360.395 449.808,361.061 458.5,362.5C 460.774,362.03 462.774,361.03 464.5,359.5C 466.55,360.077 467.55,361.41 467.5,363.5C 473.738,362.811 474.738,360.311 470.5,356C 473.108,354.148 475.441,354.314 477.5,356.5C 479.16,353.23 479.494,349.897 478.5,346.5C 476.844,344.978 475.677,345.311 475,347.5C 474.517,346.552 474.351,345.552 474.5,344.5C 473.5,344.5 472.5,344.5 471.5,344.5C 470.296,346.734 469.13,349.067 468,351.5C 466.89,353.037 465.39,353.703 463.5,353.5C 463.5,353.167 463.5,352.833 463.5,352.5C 465.467,350.696 467.301,348.696 469,346.5C 469.483,345.552 469.649,344.552 469.5,343.5C 470.827,253.973 470.827,164.306 469.5,74.5C 470.117,74.6107 470.617,74.944 471,75.5C 471.333,162.833 471.667,250.167 472,337.5C 473,339.5 474,341.5 475,343.5C 476.046,342.228 476.546,340.728 476.5,339C 476.691,337.027 476.024,335.527 474.5,334.5C 473.333,252.169 473.167,169.835 474,87.5C 474.024,83.1442 475.191,79.1442 477.5,75.5C 478.892,76.6053 480.059,77.9386 481,79.5C 481.333,167.167 481.667,254.833 482,342.5C 482.333,340.167 482.667,337.833 483,335.5C 483.667,250.167 483.667,164.833 483,79.5C 482.824,76.1182 482.324,72.7848 481.5,69.5C 480.029,68.6195 479.196,67.2861 479,65.5C 474.747,61.2929 469.913,57.9595 464.5,55.5 Z"/></g>
<g><path style="opacity:1" fill="#213a5e" d="M 463.5,55.5 C 320.833,55.3333 178.166,55.5 35.5,56C 30.769,57.061 26.769,59.3943 23.5,63C 24.7201,64.5253 25.3868,66.3587 25.5,68.5C 23.7942,72.5213 24.2942,76.1879 27,79.5C 28.1798,76.4788 29.3465,73.4788 30.5,70.5C 31.5,70.5 32.5,70.5 33.5,70.5C 33.5,70.8333 33.5,71.1667 33.5,71.5C 31.8267,72.343 30.66,73.6763 30,75.5C 29.3333,165.5 29.3333,255.5 30,345.5C 30.3318,348.543 31.8318,350.543 34.5,351.5C 35.2625,352.268 36.2625,352.768 37.5,353C 176.833,353.5 316.166,353.667 455.5,353.5C 315.334,354.666 175.001,354.833 34.5,354C 31.0412,351.918 28.3745,349.085 26.5,345.5C 25.5344,347.396 25.2011,349.396 25.5,351.5C 23.3352,351.884 21.6685,351.217 20.5,349.5C 20.3722,259.75 20.5389,169.75 21,79.5C 21.5,78.5 22,77.5 22.5,76.5C 21.9149,73.4973 21.2482,70.4973 20.5,67.5C 18.1476,69.178 16.8143,71.5113 16.5,74.5C 17.4885,163.275 17.8218,251.941 17.5,340.5C 17.3221,343.737 16.6554,346.737 15.5,349.5C 14.3384,256.874 14.1717,164.207 15,71.5C 17.7198,63.2799 23.2198,57.9466 31.5,55.5C 175.64,54.1707 319.64,54.1707 463.5,55.5 Z"/></g>
<g><path style="opacity:1" fill="#001213" d="M 127.5,77.5 C 128.978,77.238 130.311,77.5713 131.5,78.5C 131.968,80.1338 132.968,81.3005 134.5,82C 241.334,82.1669 348.001,82.6669 454.5,83.5C 346.833,83.6667 239.166,83.5 131.5,83C 129.536,81.549 128.203,79.7157 127.5,77.5 Z"/></g>
<g><path style="opacity:1" fill="#142038" d="M 466.5,72.5 C 466.833,72.5 467.167,72.5 467.5,72.5C 467.833,73.5 468.5,74.1667 469.5,74.5C 470.827,164.306 470.827,253.973 469.5,343.5C 469.667,255.166 469.5,166.833 469,78.5C 468.345,76.3716 467.511,74.3716 466.5,72.5 Z"/></g>
<g><path style="opacity:1" fill="#42dade" d="M 454.5,84.5 C 454.5,168.833 454.5,253.167 454.5,337.5C 380.167,337.5 305.833,337.5 231.5,337.5C 231.044,332.213 232.378,327.546 235.5,323.5C 239.062,321.448 241.562,318.448 243,314.5C 243.5,304.506 243.666,294.506 243.5,284.5C 245.932,275.86 248.432,267.194 251,258.5C 251.383,259.056 251.883,259.389 252.5,259.5C 254.167,260.833 255.833,262.167 257.5,263.5C 260.017,264.973 262.85,265.64 266,265.5C 268.033,265.494 269.866,265.161 271.5,264.5C 277.558,263.275 281.058,259.609 282,253.5C 282.667,244.167 282.667,234.833 282,225.5C 280.609,221.275 277.776,218.608 273.5,217.5C 270.155,215.783 266.489,215.116 262.5,215.5C 262.833,212.167 263.167,208.833 263.5,205.5C 270.17,205.504 274.837,202.504 277.5,196.5C 278.616,186.862 278.783,177.195 278,167.5C 277.415,165.339 276.582,163.339 275.5,161.5C 277.324,154.539 278.99,147.539 280.5,140.5C 282.273,138.346 283.939,136.012 285.5,133.5C 284.415,130.227 284.248,126.894 285,123.5C 288.319,110.385 291.819,97.3847 295.5,84.5C 348.5,84.5 401.5,84.5 454.5,84.5 Z"/></g>
<g><path style="opacity:1" fill="#024d4c" d="M 428.5,110.5 C 429.209,109.596 430.209,109.263 431.5,109.5C 431.5,121.167 431.5,132.833 431.5,144.5C 431.159,132.963 430.159,121.63 428.5,110.5 Z"/></g>
<g><path style="opacity:1" fill="#175759" d="M 300.5,110.5 C 301.209,109.596 302.209,109.263 303.5,109.5C 303.5,120.833 303.5,132.167 303.5,143.5C 303.159,132.295 302.159,121.295 300.5,110.5 Z"/></g>
<g><path style="opacity:1" fill="#020708" d="M 431.5,144.5 C 431.5,132.833 431.5,121.167 431.5,109.5C 430.209,109.263 429.209,109.596 428.5,110.5C 427.178,110.67 426.011,110.337 425,109.5C 424.192,107.421 424.359,105.421 425.5,103.5C 429.689,99.2928 434.522,97.6262 440,98.5C 440.5,114.163 440.667,129.83 440.5,145.5C 437.287,145.81 434.287,145.477 431.5,144.5 Z"/></g>
<g><path style="opacity:1" fill="#060e0f" d="M 337.5,98.5 C 343.176,98.3339 348.843,98.5006 354.5,99C 357.433,101.526 359.933,104.36 362,107.5C 363.115,118.634 362.449,129.634 360,140.5C 357.92,142.123 355.754,143.623 353.5,145C 348.167,145.667 342.833,145.667 337.5,145C 334.272,143.437 332.105,140.937 331,137.5C 329.443,127.894 329.109,118.228 330,108.5C 331.213,104.131 333.713,100.797 337.5,98.5 Z"/></g>
<g><path style="opacity:1" fill="#4ad5d7" d="M 342.5,106.5 C 347.27,105.465 350.436,107.131 352,111.5C 352.667,118.5 352.667,125.5 352,132.5C 349.119,138.211 345.452,138.878 341,134.5C 340.333,125.833 340.333,117.167 341,108.5C 341.717,107.956 342.217,107.289 342.5,106.5 Z"/></g>
<g><path style="opacity:1" fill="#030a0b" d="M 385.5,98.5 C 390.844,98.334 396.177,98.5006 401.5,99C 404.562,100.061 407.062,101.894 409,104.5C 410.592,114.759 410.926,125.093 410,135.5C 409.332,139.499 407.165,142.332 403.5,144C 396.766,146.11 390.1,145.943 383.5,143.5C 381.501,141.507 380.001,139.173 379,136.5C 378.333,126.833 378.333,117.167 379,107.5C 380.259,103.756 382.426,100.756 385.5,98.5 Z"/></g>
<g><path style="opacity:1" fill="#45d4d7" d="M 390.5,106.5 C 393.807,106.063 396.807,106.73 399.5,108.5C 400.665,116.479 400.832,124.479 400,132.5C 398.923,137.115 396.09,138.615 391.5,137C 390.667,136.167 389.833,135.333 389,134.5C 388.333,126.167 388.333,117.833 389,109.5C 390.039,108.756 390.539,107.756 390.5,106.5 Z"/></g>
<g><path style="opacity:1" fill="#020507" d="M 303.5,143.5 C 303.5,132.167 303.5,120.833 303.5,109.5C 302.209,109.263 301.209,109.596 300.5,110.5C 299.178,110.67 298.011,110.337 297,109.5C 296.333,107.5 296.333,105.5 297,103.5C 299.748,101.542 302.582,99.7088 305.5,98C 307.568,97.3131 309.568,97.4798 311.5,98.5C 312.666,113.822 312.833,129.156 312,144.5C 310.6,145.116 309.1,145.449 307.5,145.5C 305.667,145.415 304.334,144.748 303.5,143.5 Z"/></g>
<g><path style="opacity:1" fill="#040b0d" d="M 275.5,161.5 C 276.582,163.339 277.415,165.339 278,167.5C 278.783,177.195 278.616,186.862 277.5,196.5C 274.837,202.504 270.17,205.504 263.5,205.5C 255.726,206.532 250.226,203.532 247,196.5C 246.333,186.167 246.333,175.833 247,165.5C 248.5,162 251,159.5 254.5,158C 262.071,156.649 269.071,157.815 275.5,161.5 Z"/></g>
<g><path style="opacity:1" fill="#070f11" d="M 322.5,194.5 C 322.271,184.468 322.604,174.468 323.5,164.5C 324.463,161.537 326.463,159.537 329.5,158.5C 349.001,154 357.334,161.667 354.5,181.5C 356.707,200.796 348.373,208.296 329.5,204C 325.569,201.958 323.236,198.791 322.5,194.5 Z"/></g>
<g><path style="opacity:1" fill="#091213" d="M 299.5,157.5 C 302.206,157.575 304.873,157.908 307.5,158.5C 307.824,173.745 307.491,188.911 306.5,204C 303.219,206.018 300.052,205.851 297,203.5C 296.667,191.833 296.333,180.167 296,168.5C 294.301,169.406 292.467,169.739 290.5,169.5C 290.338,167.473 290.505,165.473 291,163.5C 293.736,161.248 296.569,159.248 299.5,157.5 Z"/></g>
<g><path style="opacity:1" fill="#040e0f" d="M 375.5,157.5 C 377.591,157.318 379.591,157.652 381.5,158.5C 382.499,173.152 382.833,187.818 382.5,202.5C 380.176,205.435 377.176,206.102 373.5,204.5C 372.702,204.043 372.369,203.376 372.5,202.5C 372.5,191.5 372.5,180.5 372.5,169.5C 369.789,169.815 367.456,169.148 365.5,167.5C 365.343,166.127 365.51,164.793 366,163.5C 369.11,161.364 372.277,159.364 375.5,157.5 Z"/></g>
<g><path style="opacity:1" fill="#020608" d="M 404.5,157.5 C 406.591,157.318 408.591,157.652 410.5,158.5C 411.499,173.485 411.833,188.485 411.5,203.5C 409.945,204.633 408.111,205.299 406,205.5C 404.301,205.613 403.134,204.947 402.5,203.5C 402.5,191.833 402.5,180.167 402.5,168.5C 401.209,168.263 400.209,168.596 399.5,169.5C 398.167,169.5 396.833,169.5 395.5,169.5C 395.338,167.473 395.505,165.473 396,163.5C 398.599,161.121 401.433,159.121 404.5,157.5 Z"/></g>
<g><path style="opacity:1" fill="#020608" d="M 439.5,157.5 C 440.833,173.167 440.833,188.833 439.5,204.5C 438.033,204.894 436.533,205.227 435,205.5C 433.301,205.613 432.134,204.947 431.5,203.5C 431.5,191.833 431.5,180.167 431.5,168.5C 430.209,168.263 429.209,168.596 428.5,169.5C 427.167,169.5 425.833,169.5 424.5,169.5C 423.875,166.03 424.875,163.196 427.5,161C 430.95,158.051 434.95,156.884 439.5,157.5 Z"/></g>
<g><path style="opacity:1" fill="#4bb0af" d="M 404.5,157.5 C 405.793,156.842 407.293,156.508 409,156.5C 411.051,156.423 412.884,156.923 414.5,158C 412.851,173.101 411.851,188.267 411.5,203.5C 411.833,188.485 411.499,173.485 410.5,158.5C 408.591,157.652 406.591,157.318 404.5,157.5 Z"/></g>
<g><path style="opacity:1" fill="#52b0b1" d="M 365.5,167.5 C 367.456,169.148 369.789,169.815 372.5,169.5C 372.5,180.5 372.5,191.5 372.5,202.5C 371.506,192.013 371.172,181.346 371.5,170.5C 369.143,170.663 366.81,170.497 364.5,170C 365.252,169.329 365.586,168.496 365.5,167.5 Z"/></g>
<g><path style="opacity:1" fill="#044b4a" d="M 428.5,169.5 C 429.209,168.596 430.209,168.263 431.5,168.5C 431.5,180.167 431.5,191.833 431.5,203.5C 431.159,191.963 430.159,180.63 428.5,169.5 Z"/></g>
<g><path style="opacity:1" fill="#30bfc9" d="M 258.5,166.5 C 261.93,166.107 265.096,166.773 268,168.5C 268.667,176.833 268.667,185.167 268,193.5C 265.441,196.349 262.274,197.183 258.5,196C 257.809,194.933 257.309,193.766 257,192.5C 255.961,183.667 256.461,175 258.5,166.5 Z"/></g>
<g><path style="opacity:1" fill="#07393c" d="M 399.5,169.5 C 400.209,168.596 401.209,168.263 402.5,168.5C 402.5,180.167 402.5,191.833 402.5,203.5C 402.159,191.963 401.159,180.63 399.5,169.5 Z"/></g>
<g><path style="opacity:1" fill="#468d90" d="M 439.5,157.5 C 440.831,164.97 441.498,172.804 441.5,181C 441.498,189.196 440.831,197.03 439.5,204.5C 440.833,188.833 440.833,173.167 439.5,157.5 Z"/></g>
<g><path style="opacity:1" fill="#0e484c" d="M 323.5,164.5 C 322.604,174.468 322.271,184.468 322.5,194.5C 321.343,185.676 321.176,176.676 322,167.5C 322.232,166.263 322.732,165.263 323.5,164.5 Z"/></g>
<g><path style="opacity:1" fill="#47d5d8" d="M 334.5,166.5 C 336.857,166.337 339.19,166.503 341.5,167C 342.701,167.903 343.535,169.069 344,170.5C 344.667,177.5 344.667,184.5 344,191.5C 341.651,196.776 337.984,197.776 333,194.5C 332.333,185.833 332.333,177.167 333,168.5C 333.717,167.956 334.217,167.289 334.5,166.5 Z"/></g>
<g><path style="opacity:1" fill="#4dacac" d="M 382.5,202.5 C 382.833,187.818 382.499,173.152 381.5,158.5C 379.591,157.652 377.591,157.318 375.5,157.5C 377.343,156.717 379.343,156.05 381.5,155.5C 382.086,155.709 382.586,156.043 383,156.5C 383.828,172.006 383.661,187.339 382.5,202.5 Z"/></g>
<g><path style="opacity:1" fill="#040c0d" d="M 273.5,217.5 C 277.776,218.608 280.609,221.275 282,225.5C 282.667,234.833 282.667,244.167 282,253.5C 281.058,259.609 277.558,263.275 271.5,264.5C 266.797,264.563 262.13,264.229 257.5,263.5C 255.833,262.167 254.167,260.833 252.5,259.5C 250.452,248.294 249.952,236.96 251,225.5C 253.813,219.698 258.48,216.698 265,216.5C 267.817,217.031 270.65,217.364 273.5,217.5 Z"/></g>
<g><path style="opacity:1" fill="#020608" d="M 303.5,263.5 C 303.5,251.833 303.5,240.167 303.5,228.5C 302.209,228.263 301.209,228.596 300.5,229.5C 299.178,229.67 298.011,229.337 297,228.5C 296.333,226.5 296.333,224.5 297,222.5C 301.275,218.584 306.109,216.917 311.5,217.5C 312.666,232.822 312.833,248.156 312,263.5C 309.063,264.817 306.23,264.817 303.5,263.5 Z"/></g>
<g><path style="opacity:1" fill="#040b0c" d="M 389.5,216.5 C 395.735,216.286 401.568,217.62 407,220.5C 408,222.5 409,224.5 410,226.5C 410.667,235.5 410.667,244.5 410,253.5C 408.704,258.265 405.871,261.765 401.5,264C 396.5,264.667 391.5,264.667 386.5,264C 382.972,262.135 380.472,259.301 379,255.5C 378.333,245.833 378.333,236.167 379,226.5C 380.459,220.871 383.959,217.538 389.5,216.5 Z"/></g>
<g><path style="opacity:1" fill="#050d0f" d="M 433.5,216.5 C 435.591,216.318 437.591,216.652 439.5,217.5C 440.499,233.152 440.833,248.819 440.5,264.5C 437.223,264.784 434.057,264.451 431,263.5C 430.833,251.819 430.333,240.152 429.5,228.5C 426.169,230.278 424.502,229.278 424.5,225.5C 424.667,224.5 424.833,223.5 425,222.5C 427.988,220.601 430.821,218.601 433.5,216.5 Z"/></g>
<g><path style="opacity:1" fill="#050e0f" d="M 351.5,264.5 C 346.797,264.563 342.13,264.229 337.5,263.5C 335.983,263.489 334.816,262.823 334,261.5C 331.777,259.277 330.444,256.611 330,253.5C 329.333,244.833 329.333,236.167 330,227.5C 332.149,220.025 337.149,216.359 345,216.5C 351.885,216.276 357.219,218.943 361,224.5C 362.526,234.115 362.859,243.781 362,253.5C 360.615,259.382 357.115,263.048 351.5,264.5 Z"/></g>
<g><path style="opacity:1" fill="#4ca8aa" d="M 269.5,226.5 C 266.348,226.047 263.848,227.047 262,229.5C 261.5,237.159 261.334,244.826 261.5,252.5C 260.344,244.677 260.177,236.677 261,228.5C 263.396,225.574 266.229,224.907 269.5,226.5 Z"/></g>
<g><path style="opacity:1" fill="#43d7d9" d="M 269.5,226.5 C 270.15,226.804 270.817,227.137 271.5,227.5C 272.665,236.147 272.832,244.814 272,253.5C 267.741,257.836 264.241,257.503 261.5,252.5C 261.334,244.826 261.5,237.159 262,229.5C 263.848,227.047 266.348,226.047 269.5,226.5 Z"/></g>
<g><path style="opacity:1" fill="#4fd2d4" d="M 341.5,225.5 C 345.603,224.769 349.103,225.769 352,228.5C 352.667,236.167 352.667,243.833 352,251.5C 350.287,256.213 347.12,257.546 342.5,255.5C 341.749,254.624 341.249,253.624 341,252.5C 340.223,243.452 340.389,234.452 341.5,225.5 Z"/></g>
<g><path style="opacity:1" fill="#46d6d9" d="M 390.5,225.5 C 394.192,224.971 397.358,225.971 400,228.5C 400.667,236.5 400.667,244.5 400,252.5C 398.179,255.991 395.346,257.157 391.5,256C 390.299,255.097 389.465,253.931 389,252.5C 388.333,244.167 388.333,235.833 389,227.5C 389.717,226.956 390.217,226.289 390.5,225.5 Z"/></g>
<g><path style="opacity:1" fill="#165b5e" d="M 300.5,229.5 C 301.209,228.596 302.209,228.263 303.5,228.5C 303.5,240.167 303.5,251.833 303.5,263.5C 303.159,251.963 302.159,240.63 300.5,229.5 Z"/></g>
<g><path style="opacity:1" fill="#266e71" d="M 257.5,263.5 C 262.13,264.229 266.797,264.563 271.5,264.5C 269.866,265.161 268.033,265.494 266,265.5C 262.85,265.64 260.017,264.973 257.5,263.5 Z"/></g>
<g><path style="opacity:1" fill="#206467" d="M 337.5,263.5 C 342.13,264.229 346.797,264.563 351.5,264.5C 349.866,265.161 348.033,265.494 346,265.5C 342.85,265.64 340.017,264.973 337.5,263.5 Z"/></g>
<g><path style="opacity:1" fill="#1f6568" d="M 430.5,276.5 C 425.341,276.182 420.341,276.848 415.5,278.5C 416.347,277.034 417.68,276.2 419.5,276C 423.358,275.19 427.024,275.357 430.5,276.5 Z"/></g>
<g><path style="opacity:1" fill="#03070a" d="M 236.5,278.5 C 239.473,279.81 241.807,281.81 243.5,284.5C 243.666,294.506 243.5,304.506 243,314.5C 241.562,318.448 239.062,321.448 235.5,323.5C 229.801,324.914 224.134,324.747 218.5,323C 215.353,320.536 213.353,317.37 212.5,313.5C 212.334,304.494 212.5,295.494 213,286.5C 213.249,285.376 213.749,284.376 214.5,283.5C 217.696,281.072 221.029,278.905 224.5,277C 228.623,276.563 232.623,277.063 236.5,278.5 Z"/></g>
<g><path style="opacity:1" fill="#040b0c" d="M 299.5,275.5 C 306.451,274.428 312.285,276.428 317,281.5C 317.973,283.392 318.64,285.392 319,287.5C 319.917,296.909 319.584,306.242 318,315.5C 315.114,321.538 310.281,324.538 303.5,324.5C 296.069,325.207 290.902,322.207 288,315.5C 287.333,305.167 287.333,294.833 288,284.5C 290.345,279.431 294.179,276.431 299.5,275.5 Z"/></g>
<g><path style="opacity:1" fill="#010507" d="M 346.5,277.5 C 347.661,292.328 347.828,307.328 347,322.5C 344,323.833 341,323.833 338,322.5C 337.5,310.838 337.333,299.171 337.5,287.5C 336.389,286.357 335.223,285.357 334,284.5C 333.667,285.167 333.333,285.833 333,286.5C 331.895,282.93 333.229,280.93 337,280.5C 337.368,281.91 338.201,282.91 339.5,283.5C 340.466,281.604 340.799,279.604 340.5,277.5C 342.5,277.5 344.5,277.5 346.5,277.5 Z"/></g>
<g><path style="opacity:1" fill="#050d0f" d="M 430.5,276.5 C 435.68,277.512 439.18,280.512 441,285.5C 441.923,295.574 441.59,305.574 440,315.5C 438.181,320.336 434.681,323.169 429.5,324C 422.349,325.393 416.183,323.56 411,318.5C 408.063,306.932 407.729,295.266 410,283.5C 411.076,280.921 412.909,279.254 415.5,278.5C 420.341,276.848 425.341,276.182 430.5,276.5 Z"/></g>
<g><path style="opacity:1" fill="#060e0f" d="M 262.5,321.5 C 262.832,310.147 262.499,298.814 261.5,287.5C 260.893,287.624 260.56,287.957 260.5,288.5C 255.346,287.732 254.346,285.232 257.5,281C 260.71,278.896 264.043,277.063 267.5,275.5C 269.187,275.76 270.687,276.427 272,277.5C 272.667,292.5 272.667,307.5 272,322.5C 270.431,323.122 268.764,323.456 267,323.5C 265.014,323.431 263.514,322.765 262.5,321.5 Z"/></g>
<g><path style="opacity:1" fill="#0e2022" d="M 346.5,277.5 C 344.5,277.5 342.5,277.5 340.5,277.5C 340.799,279.604 340.466,281.604 339.5,283.5C 338.201,282.91 337.368,281.91 337,280.5C 333.229,280.93 331.895,282.93 333,286.5C 333.333,285.833 333.667,285.167 334,284.5C 335.223,285.357 336.389,286.357 337.5,287.5C 332.437,289.483 330.27,287.817 331,282.5C 335.159,278.497 339.993,276.331 345.5,276C 346.056,276.383 346.389,276.883 346.5,277.5 Z"/></g>
<g><path style="opacity:1" fill="#287774" d="M 305.5,285.5 C 302.212,285.016 299.545,286.016 297.5,288.5C 297.511,286.983 298.177,285.816 299.5,285C 301.712,284.211 303.712,284.378 305.5,285.5 Z"/></g>
<g><path style="opacity:1" fill="#050c0e" d="M 393.5,283.5 C 394.396,293.468 394.729,303.468 394.5,313.5C 392.087,321.065 386.753,324.731 378.5,324.5C 370.375,324.95 365.375,321.283 363.5,313.5C 363.024,302.724 363.69,292.057 365.5,281.5C 368.673,277.21 373.006,275.21 378.5,275.5C 382.739,275.783 386.739,276.95 390.5,279C 391.883,280.271 392.883,281.771 393.5,283.5 Z"/></g>
<g><path style="opacity:1" fill="#126368" d="M 222.5,287.5 C 222.222,296.553 222.556,305.553 223.5,314.5C 222.883,314.389 222.383,314.056 222,313.5C 221.176,304.657 221.343,295.99 222.5,287.5 Z"/></g>
<g><path style="opacity:1" fill="#044344" d="M 365.5,281.5 C 363.69,292.057 363.024,302.724 363.5,313.5C 362.342,304.343 362.176,295.009 363,285.5C 363.2,283.68 364.034,282.347 365.5,281.5 Z"/></g>
<g><path style="opacity:1" fill="#337173" d="M 393.5,283.5 C 394.268,284.263 394.768,285.263 395,286.5C 395.824,295.676 395.657,304.676 394.5,313.5C 394.729,303.468 394.396,293.468 393.5,283.5 Z"/></g>
<g><path style="opacity:1" fill="#051f26" d="M 236.5,278.5 C 232.623,277.063 228.623,276.563 224.5,277C 221.029,278.905 217.696,281.072 214.5,283.5C 213.749,284.376 213.249,285.376 213,286.5C 212.5,295.494 212.334,304.494 212.5,313.5C 211.834,309.012 211.501,304.346 211.5,299.5C 208.512,283.008 215.178,275.175 231.5,276C 233.653,276.099 235.319,276.933 236.5,278.5 Z"/></g>
<g><path style="opacity:1" fill="#4d8e90" d="M 260.5,288.5 C 260.56,287.957 260.893,287.624 261.5,287.5C 262.499,298.814 262.832,310.147 262.5,321.5C 261.833,310.5 261.167,299.5 260.5,288.5 Z"/></g>
<g><path style="opacity:1" fill="#30c1ca" d="M 223.5,314.5 C 222.556,305.553 222.222,296.553 222.5,287.5C 225.798,283.633 229.298,283.633 233,287.5C 233.167,291.5 233.333,295.5 233.5,299.5C 233.609,304.278 233.109,308.944 232,313.5C 229.415,315.735 226.582,316.069 223.5,314.5 Z"/></g>
<g><path style="opacity:1" fill="#45d8db" d="M 421.5,284.5 C 425.684,283.704 428.85,285.037 431,288.5C 431.667,296.5 431.667,304.5 431,312.5C 427.204,316.314 423.538,316.314 420,312.5C 418.952,302.96 419.452,293.627 421.5,284.5 Z"/></g>
<g><path style="opacity:1" fill="#2cbfca" d="M 107.5,76.5 C 114.167,76.5 120.833,76.5 127.5,76.5C 127.5,76.8333 127.5,77.1667 127.5,77.5C 128.203,79.7157 129.536,81.549 131.5,83C 239.166,83.5 346.833,83.6667 454.5,83.5C 454.5,83.8333 454.5,84.1667 454.5,84.5C 401.5,84.5 348.5,84.5 295.5,84.5C 291.819,97.3847 288.319,110.385 285,123.5C 284.248,126.894 284.415,130.227 285.5,133.5C 283.939,136.012 282.273,138.346 280.5,140.5C 278.99,147.539 277.324,154.539 275.5,161.5C 269.071,157.815 262.071,156.649 254.5,158C 251,159.5 248.5,162 247,165.5C 246.333,175.833 246.333,186.167 247,196.5C 250.226,203.532 255.726,206.532 263.5,205.5C 263.167,208.833 262.833,212.167 262.5,215.5C 266.489,215.116 270.155,215.783 273.5,217.5C 270.65,217.364 267.817,217.031 265,216.5C 258.48,216.698 253.813,219.698 251,225.5C 249.952,236.96 250.452,248.294 252.5,259.5C 251.883,259.389 251.383,259.056 251,258.5C 248.432,267.194 245.932,275.86 243.5,284.5C 241.807,281.81 239.473,279.81 236.5,278.5C 235.319,276.933 233.653,276.099 231.5,276C 215.178,275.175 208.512,283.008 211.5,299.5C 211.501,304.346 211.834,309.012 212.5,313.5C 213.353,317.37 215.353,320.536 218.5,323C 224.134,324.747 229.801,324.914 235.5,323.5C 232.378,327.546 231.044,332.213 231.5,337.5C 305.833,337.5 380.167,337.5 454.5,337.5C 318.001,338.5 181.334,338.833 44.5,338.5C 44.5,253.5 44.5,168.5 44.5,83.5C 64.1695,83.6666 83.8362,83.5 103.5,83C 105.248,80.9871 106.582,78.8205 107.5,76.5 Z"/></g>
<g><path style="opacity:1" fill="#0b525c" d="M 109.5,288.5 C 109.56,287.957 109.893,287.624 110.5,287.5C 111.499,299.148 111.832,310.814 111.5,322.5C 110.833,311.167 110.167,299.833 109.5,288.5 Z"/></g>
<g><path style="opacity:1" fill="#07191b" d="M 166.5,316.5 C 166.978,305.312 166.478,293.979 165,282.5C 164.667,282.833 164.333,283.167 164,283.5C 163.07,281.448 161.57,279.948 159.5,279C 156.168,278.751 153.001,277.918 150,276.5C 147.744,278.085 145.244,278.752 142.5,278.5C 151.594,273.61 159.76,274.944 167,282.5C 168.595,293.093 168.928,303.76 168,314.5C 167.283,315.044 166.783,315.711 166.5,316.5 Z"/></g>
<g><path style="opacity:1" fill="#01353c" d="M 120.5,321.5 C 120.667,307.163 120.5,292.829 120,278.5C 117.959,277.577 115.792,277.244 113.5,277.5C 115.879,274.86 118.379,274.86 121,277.5C 121.828,292.339 121.661,307.006 120.5,321.5 Z"/></g>
<g><path style="opacity:1" fill="#04090a" d="M 166.5,316.5 C 163.178,321.999 158.178,324.665 151.5,324.5C 144.327,324.485 139.494,321.152 137,314.5C 136.333,304.5 136.333,294.5 137,284.5C 137.992,281.677 139.825,279.677 142.5,278.5C 145.244,278.752 147.744,278.085 150,276.5C 153.001,277.918 156.168,278.751 159.5,279C 161.57,279.948 163.07,281.448 164,283.5C 164.333,283.167 164.667,282.833 165,282.5C 166.478,293.979 166.978,305.312 166.5,316.5 Z"/></g>
<g><path style="opacity:1" fill="#2fb8c1" d="M 149.5,284.5 C 152.747,284.415 155.581,285.415 158,287.5C 158.832,295.853 158.665,304.187 157.5,312.5C 154.277,315.995 150.777,316.329 147,313.5C 146.333,304.833 146.333,296.167 147,287.5C 147.698,286.309 148.531,285.309 149.5,284.5 Z"/></g>
<g><path style="opacity:1" fill="#020407" d="M 113.5,277.5 C 115.792,277.244 117.959,277.577 120,278.5C 120.5,292.829 120.667,307.163 120.5,321.5C 120.389,322.117 120.056,322.617 119.5,323C 116.633,323.801 113.966,323.634 111.5,322.5C 111.832,310.814 111.499,299.148 110.5,287.5C 109.893,287.624 109.56,287.957 109.5,288.5C 104.932,288.917 103.432,286.917 105,282.5C 107.313,279.928 110.146,278.261 113.5,277.5 Z"/></g>
<g><path style="opacity:1" fill="#030a0c" d="M 189.5,275.5 C 191.591,275.318 193.591,275.652 195.5,276.5C 196.666,291.822 196.833,307.156 196,322.5C 193,323.833 190,323.833 187,322.5C 186.833,310.819 186.333,299.152 185.5,287.5C 183.929,288.309 182.262,288.643 180.5,288.5C 180.192,286.076 180.526,283.743 181.5,281.5C 184.492,279.829 187.159,277.829 189.5,275.5 Z"/></g>
<g><path style="opacity:1" fill="#050d0f" d="M 68.5,276.5 C 74.2617,276.149 79.9284,276.649 85.5,278C 88.6667,279.167 90.8333,281.333 92,284.5C 93.5835,293.758 93.9168,303.091 93,312.5C 90.383,320.779 84.7164,324.779 76,324.5C 69.0077,324.844 64.0077,321.844 61,315.5C 60.3333,305.167 60.3333,294.833 61,284.5C 63.0282,281.308 65.5282,278.641 68.5,276.5 Z"/></g>
<g><path style="opacity:1" fill="#35bdc7" d="M 74.5,284.5 C 78.1816,283.725 80.6816,285.059 82,288.5C 82.6667,296.5 82.6667,304.5 82,312.5C 79.7965,315.202 76.9632,316.035 73.5,315C 72.2986,314.097 71.4652,312.931 71,311.5C 70.3333,303.833 70.3333,296.167 71,288.5C 71.6897,286.65 72.8564,285.316 74.5,284.5 Z"/></g>
<g><path style="opacity:1" fill="#105e66" d="M 172.5,229.5 C 173.209,228.596 174.209,228.263 175.5,228.5C 175.5,239.833 175.5,251.167 175.5,262.5C 175.159,251.295 174.159,240.295 172.5,229.5 Z"/></g>
<g><path style="opacity:1" fill="#2a767e" d="M 58.5,228.5 C 60.5,228.5 62.5,228.5 64.5,228.5C 64.5,239.833 64.5,251.167 64.5,262.5C 63.5054,251.679 63.1721,240.679 63.5,229.5C 61.5853,229.784 59.9187,229.451 58.5,228.5 Z"/></g>
<g><path style="opacity:1" fill="#030a0c" d="M 135.5,216.5 C 140.769,216.599 145.769,217.766 150.5,220C 152.102,221.935 153.269,224.101 154,226.5C 154.667,236.167 154.667,245.833 154,255.5C 148.657,264.911 140.824,267.745 130.5,264C 126.942,262.108 124.442,259.275 123,255.5C 122.333,245.833 122.333,236.167 123,226.5C 125.063,220.401 129.23,217.068 135.5,216.5 Z"/></g>
<g><path style="opacity:1" fill="#2fbcc6" d="M 135.5,225.5 C 138.972,224.963 141.805,225.963 144,228.5C 144.667,236.833 144.667,245.167 144,253.5C 139.164,258.065 135.498,257.399 133,251.5C 132.333,243.833 132.333,236.167 133,228.5C 134.045,227.627 134.878,226.627 135.5,225.5 Z"/></g>
<g><path style="opacity:1" fill="#020709" d="M 64.5,262.5 C 64.5,251.167 64.5,239.833 64.5,228.5C 62.5,228.5 60.5,228.5 58.5,228.5C 58.0548,225.635 58.7215,223.135 60.5,221C 63.4639,219.027 66.6306,217.527 70,216.5C 71.7106,216.439 73.044,217.106 74,218.5C 74.6667,233.5 74.6667,248.5 74,263.5C 71.2628,264.61 68.4294,264.777 65.5,264C 64.944,263.617 64.6107,263.117 64.5,262.5 Z"/></g>
<g><path style="opacity:1" fill="#081012" d="M 175.5,262.5 C 175.5,251.167 175.5,239.833 175.5,228.5C 174.209,228.263 173.209,228.596 172.5,229.5C 171.178,229.67 170.011,229.337 169,228.5C 168.192,226.421 168.359,224.421 169.5,222.5C 173.78,218.122 178.78,216.455 184.5,217.5C 185.499,232.819 185.833,248.152 185.5,263.5C 183.354,263.878 181.187,264.212 179,264.5C 177.319,264.392 176.152,263.725 175.5,262.5 Z"/></g>
<g><path style="opacity:1" fill="#02080b" d="M 98.5,216.5 C 100.861,216.674 103.194,217.007 105.5,217.5C 105.667,232.504 105.5,247.504 105,262.5C 102.163,264.585 99.1635,264.919 96,263.5C 95.5001,251.838 95.3335,240.171 95.5,228.5C 88.378,228.754 87.0447,226.254 91.5,221C 94.2387,219.974 96.572,218.474 98.5,216.5 Z"/></g>
<g><path style="opacity:1" fill="#050c0e" d="M 213.5,216.5 C 218.637,216.494 223.637,217.327 228.5,219C 231.754,221.342 233.588,224.509 234,228.5C 234.667,236.5 234.667,244.5 234,252.5C 229.84,264.282 221.673,268.116 209.5,264C 205.908,261.329 203.408,257.829 202,253.5C 201.333,244.833 201.333,236.167 202,227.5C 203.754,221.577 207.588,217.911 213.5,216.5 Z"/></g>
<g><path style="opacity:1" fill="#31c0ca" d="M 214.5,225.5 C 218.684,224.704 221.85,226.037 224,229.5C 224.667,236.5 224.667,243.5 224,250.5C 222.551,255.218 219.385,256.718 214.5,255C 213.874,254.25 213.374,253.416 213,252.5C 212.333,244.167 212.333,235.833 213,227.5C 213.717,226.956 214.217,226.289 214.5,225.5 Z"/></g>
<g><path style="opacity:1" fill="#02353a" d="M 201.5,164.5 C 200.6,174.802 200.267,185.135 200.5,195.5C 199.342,186.343 199.176,177.009 200,167.5C 200.232,166.263 200.732,165.263 201.5,164.5 Z"/></g>
<g><path style="opacity:1" fill="#174e56" d="M 134.5,160.5 C 136.562,162.41 138.062,164.743 139,167.5C 139.824,176.676 139.657,185.676 138.5,194.5C 138.666,185.827 138.5,177.16 138,168.5C 136.604,165.936 135.437,163.269 134.5,160.5 Z"/></g>
<g><path style="opacity:1" fill="#03090b" d="M 73.5,156.5 C 89.6845,156.864 96.0179,165.031 92.5,181C 95.3691,199.318 87.7025,207.318 69.5,205C 64.6643,203.181 61.831,199.681 61,194.5C 60.1303,184.115 60.4636,173.782 62,163.5C 64.9429,159.456 68.7762,157.122 73.5,156.5 Z"/></g>
<g><path style="opacity:1" fill="#2fbfca" d="M 72.5,166.5 C 74.8568,166.337 77.1902,166.503 79.5,167C 80.7014,167.903 81.5348,169.069 82,170.5C 82.6667,177.5 82.6667,184.5 82,191.5C 80.5514,196.218 77.3847,197.718 72.5,196C 71.8742,195.25 71.3742,194.416 71,193.5C 70.3333,185.167 70.3333,176.833 71,168.5C 71.7172,167.956 72.2172,167.289 72.5,166.5 Z"/></g>
<g><path style="opacity:1" fill="#040c0e" d="M 200.5,195.5 C 200.267,185.135 200.6,174.802 201.5,164.5C 204.384,158.991 209.051,156.324 215.5,156.5C 229.806,158.421 235.139,166.588 231.5,181C 234.361,199.344 226.694,207.344 208.5,205C 204.526,202.865 201.859,199.699 200.5,195.5 Z"/></g>
<g><path style="opacity:1" fill="#2dbac5" d="M 211.5,166.5 C 215.007,165.994 218.174,166.66 221,168.5C 221.667,177.167 221.667,185.833 221,194.5C 215.908,197.942 212.241,196.942 210,191.5C 209.006,183.03 209.506,174.697 211.5,166.5 Z"/></g>
<g><path style="opacity:1" fill="#040b0e" d="M 165.5,156.5 C 173.9,155.619 180.4,158.619 185,165.5C 185.667,175.167 185.667,184.833 185,194.5C 183.782,199.775 180.615,203.275 175.5,205C 165.844,207.918 158.678,205.084 154,196.5C 153.333,186.167 153.333,175.833 154,165.5C 156.331,160.435 160.165,157.435 165.5,156.5 Z"/></g>
<g><path style="opacity:1" fill="#2fc0ca" d="M 165.5,166.5 C 168.93,166.107 172.096,166.773 175,168.5C 175.667,176.167 175.667,183.833 175,191.5C 173.551,196.218 170.385,197.718 165.5,196C 164.809,194.933 164.309,193.766 164,192.5C 163.333,184.5 163.333,176.5 164,168.5C 164.717,167.956 165.217,167.289 165.5,166.5 Z"/></g>
<g><path style="opacity:1" fill="#050d0f" d="M 134.5,160.5 C 135.437,163.269 136.604,165.936 138,168.5C 138.5,177.16 138.666,185.827 138.5,194.5C 136.415,203.06 130.915,206.727 122,205.5C 114.733,205.692 109.733,202.359 107,195.5C 106.333,186.167 106.333,176.833 107,167.5C 109.521,160.306 114.688,156.64 122.5,156.5C 126.841,156.916 130.841,158.249 134.5,160.5 Z"/></g>
<g><path style="opacity:1" fill="#2fbbc5" d="M 119.5,166.5 C 122.685,166.02 125.519,166.686 128,168.5C 128.667,176.833 128.667,185.167 128,193.5C 125.431,196.57 122.264,197.237 118.5,195.5C 117.719,194.271 117.219,192.938 117,191.5C 116.333,184.5 116.333,177.5 117,170.5C 117.48,168.867 118.313,167.534 119.5,166.5 Z"/></g>
<g><path style="opacity:1" fill="#35a9b3" d="M 233.5,99.5 C 234.661,114.328 234.828,129.328 234,144.5C 231.095,146.093 227.929,147.093 224.5,147.5C 223.417,148.365 223.251,149.365 224,150.5C 228.098,149 228.598,150 225.5,153.5C 223.972,152.139 222.305,150.972 220.5,150C 222.952,148.194 222.619,146.694 219.5,145.5C 220.325,144.614 221.325,144.281 222.5,144.5C 222.828,132.988 222.495,121.654 221.5,110.5C 221.56,109.957 221.893,109.624 222.5,109.5C 223.333,121.152 223.833,132.819 224,144.5C 227.24,146.036 230.24,145.703 233,143.5C 233.5,128.837 233.667,114.17 233.5,99.5 Z"/></g>
<g><path style="opacity:1" fill="#2b7b81" d="M 62.5,110.5 C 62.56,109.957 62.8933,109.624 63.5,109.5C 64.4989,121.148 64.8322,132.814 64.5,144.5C 63.8333,133.167 63.1667,121.833 62.5,110.5 Z"/></g>
<g><path style="opacity:1" fill="#030a0c" d="M 64.5,144.5 C 64.8322,132.814 64.4989,121.148 63.5,109.5C 62.8933,109.624 62.56,109.957 62.5,110.5C 57.9315,110.917 56.4315,108.917 58,104.5C 62.6975,99.7112 68.1975,97.7112 74.5,98.5C 74.6666,113.837 74.4999,129.17 74,144.5C 70.8347,145.792 67.668,145.792 64.5,144.5 Z"/></g>
<g><path style="opacity:1" fill="#03090b" d="M 280.5,140.5 C 276.768,144.524 272.102,146.19 266.5,145.5C 258.289,146.777 253.123,143.444 251,135.5C 250.333,126.167 250.333,116.833 251,107.5C 253.7,100.623 258.867,97.2899 266.5,97.5C 280.767,99.4925 286.1,107.659 282.5,122C 282.708,128.307 282.041,134.473 280.5,140.5 Z"/></g>
<g><path style="opacity:1" fill="#32b7c1" d="M 262.5,106.5 C 266.29,105.899 269.456,106.899 272,109.5C 272.667,117.5 272.667,125.5 272,133.5C 270.309,137.213 267.475,138.379 263.5,137C 262.107,135.829 261.273,134.329 261,132.5C 260.333,124.833 260.333,117.167 261,109.5C 262.039,108.756 262.539,107.756 262.5,106.5 Z"/></g>
<g><path style="opacity:1" fill="#02070a" d="M 233.5,99.5 C 233.667,114.17 233.5,128.837 233,143.5C 230.24,145.703 227.24,146.036 224,144.5C 223.833,132.819 223.333,121.152 222.5,109.5C 221.893,109.624 221.56,109.957 221.5,110.5C 216.346,109.732 215.346,107.232 218.5,103C 221.71,100.896 225.043,99.0627 228.5,97.5C 230.3,97.9024 231.967,98.5691 233.5,99.5 Z"/></g>
<g><path style="opacity:1" fill="#060e10" d="M 178.5,98.5 C 183.844,98.334 189.177,98.5006 194.5,99C 199.099,100.598 201.932,103.765 203,108.5C 203.667,116.833 203.667,125.167 203,133.5C 202.077,138.412 199.577,142.245 195.5,145C 189.833,145.667 184.167,145.667 178.5,145C 175.999,142.861 173.832,140.361 172,137.5C 170.447,128.228 170.114,118.895 171,109.5C 172.026,104.767 174.526,101.101 178.5,98.5 Z"/></g>
<g><path style="opacity:1" fill="#31bfc9" d="M 183.5,106.5 C 186.602,106.154 189.435,106.821 192,108.5C 192.832,117.518 192.665,126.518 191.5,135.5C 188.297,138.122 185.13,138.122 182,135.5C 181.333,126.5 181.333,117.5 182,108.5C 182.717,107.956 183.217,107.289 183.5,106.5 Z"/></g>
<g><path style="opacity:1" fill="#02080a" d="M 98.5,97.5 C 100.861,97.6741 103.194,98.0074 105.5,98.5C 105.833,113.848 105.499,129.181 104.5,144.5C 101.833,145.833 99.1667,145.833 96.5,144.5C 95.8333,132.833 95.1667,121.167 94.5,109.5C 91.1667,111.167 89.1667,110.167 88.5,106.5C 88.5288,104.971 89.1955,103.804 90.5,103C 93.4068,101.391 96.0734,99.5576 98.5,97.5 Z"/></g>
<g><path style="opacity:1" fill="#030a0c" d="M 135.5,97.5 C 142,97.2612 147.667,99.2612 152.5,103.5C 153.154,105.115 153.654,106.782 154,108.5C 154.667,117.5 154.667,126.5 154,135.5C 152.904,140.26 150.071,143.427 145.5,145C 139.747,145.851 134.08,145.517 128.5,144C 125.533,141.9 123.7,139.066 123,135.5C 122.333,126.167 122.333,116.833 123,107.5C 125.328,101.653 129.495,98.3197 135.5,97.5 Z"/></g>
<g><path style="opacity:1" fill="#30bcc7" d="M 135.5,106.5 C 138.97,105.875 141.804,106.875 144,109.5C 144.667,117.833 144.667,126.167 144,134.5C 139.837,138.747 136.171,138.414 133,133.5C 132.333,125.5 132.333,117.5 133,109.5C 134.045,108.627 134.878,107.627 135.5,106.5 Z"/></g>
<g><path style="opacity:1" fill="#46d4d8" d="M 376.5,284.5 C 379.565,284.241 382.065,285.241 384,287.5C 384.667,295.833 384.667,304.167 384,312.5C 380.333,316.5 376.667,316.5 373,312.5C 372.168,304.147 372.335,295.813 373.5,287.5C 374.548,286.452 375.548,285.452 376.5,284.5 Z"/></g>
<g><path style="opacity:1" fill="#4fd6d8" d="M 305.5,285.5 C 307.411,285.574 308.578,286.574 309,288.5C 309.667,296.5 309.667,304.5 309,312.5C 306.177,315.571 302.844,316.238 299,314.5C 297.59,305.916 297.09,297.25 297.5,288.5C 299.545,286.016 302.212,285.016 305.5,285.5 Z"/></g>
<g><path style="opacity:1" fill="#091e21" d="M 454.5,83.5 C 456.173,167.849 457.173,252.516 457.5,337.5C 457.132,338.91 456.299,339.91 455,340.5C 318.069,339.834 181.236,339.167 44.5,338.5C 181.334,338.833 318.001,338.5 454.5,337.5C 454.5,253.167 454.5,168.833 454.5,84.5C 454.5,84.1667 454.5,83.8333 454.5,83.5 Z"/></g>
<g><path style="opacity:0.012" fill="#d6d4d6" d="M 498.5,352.5 C 497.523,361.143 493.523,367.809 486.5,372.5C 491.792,366.556 495.792,359.89 498.5,352.5 Z"/></g>
<g><path style="opacity:1" fill="#203963" d="M 455.5,353.5 C 458.167,353.5 460.833,353.5 463.5,353.5C 465.39,353.703 466.89,353.037 468,351.5C 469.13,349.067 470.296,346.734 471.5,344.5C 472.5,344.5 473.5,344.5 474.5,344.5C 474.351,345.552 474.517,346.552 475,347.5C 475.677,345.311 476.844,344.978 478.5,346.5C 479.494,349.897 479.16,353.23 477.5,356.5C 475.441,354.314 473.108,354.148 470.5,356C 474.738,360.311 473.738,362.811 467.5,363.5C 467.55,361.41 466.55,360.077 464.5,359.5C 462.774,361.03 460.774,362.03 458.5,362.5C 449.808,361.061 440.808,360.395 431.5,360.5C 423.157,360.344 414.99,361.01 407,362.5C 391.005,361.284 375.171,361.284 359.5,362.5C 356.603,362.875 353.937,362.375 351.5,361C 250.832,360.833 150.165,360.333 49.5,359.5C 46.516,357.999 43.3494,356.999 40,356.5C 37.5602,357.656 35.0602,357.656 32.5,356.5C 31.8333,356.833 31.1667,357.167 30.5,357.5C 31.4291,360.001 32.9291,360.667 35,359.5C 40.4358,360.479 40.6024,361.312 35.5,362C 36.6956,362.654 36.6956,363.154 35.5,363.5C 34.0047,362.888 32.3381,362.888 30.5,363.5C 24.8575,360.516 20.1909,356.516 16.5,351.5C 15.6618,351.158 15.3284,350.492 15.5,349.5C 16.6554,346.737 17.3221,343.737 17.5,340.5C 17.8218,251.941 17.4885,163.275 16.5,74.5C 16.8143,71.5113 18.1476,69.178 20.5,67.5C 21.2482,70.4973 21.9149,73.4973 22.5,76.5C 22,77.5 21.5,78.5 21,79.5C 20.5389,169.75 20.3722,259.75 20.5,349.5C 21.6685,351.217 23.3352,351.884 25.5,351.5C 25.2011,349.396 25.5344,347.396 26.5,345.5C 28.3745,349.085 31.0412,351.918 34.5,354C 175.001,354.833 315.334,354.666 455.5,353.5 Z"/></g>
<g><path style="opacity:1" fill="#131c2f" d="M 34.5,351.5 C 177.479,352.494 320.479,352.827 463.5,352.5C 463.5,352.833 463.5,353.167 463.5,353.5C 460.833,353.5 458.167,353.5 455.5,353.5C 316.166,353.667 176.833,353.5 37.5,353C 36.2625,352.768 35.2625,352.268 34.5,351.5 Z"/></g>
<g><path style="opacity:0.035" fill="#cdcdcd" d="M 0.5,352.5 C 3.20788,359.89 7.20788,366.556 12.5,372.5C 5.47698,367.809 1.47698,361.143 0.5,352.5 Z"/></g>
<g><path style="opacity:1" fill="#1f3966" d="M 359.5,362.5 C 367.422,363.302 375.422,363.802 383.5,364C 383.833,364.333 384.167,364.667 384.5,365C 383.584,365.374 382.75,365.874 382,366.5C 269.64,366.619 155.14,366.452 38.5,366C 41.5535,365.821 44.5535,365.321 47.5,364.5C 151.666,363.833 255.666,363.167 359.5,362.5 Z"/></g>
<g><path style="opacity:1" fill="#0c1426" d="M 37.5,367.5 C 146.838,366.835 255.838,367.502 364.5,369.5C 255.373,368.837 146.373,368.171 37.5,367.5 Z"/></g>
<g><path style="opacity:0.314" fill="#8d8d8d" d="M 12.5,372.5 C 14.0269,372.427 15.0269,373.094 15.5,374.5C 13.9731,374.573 12.9731,373.906 12.5,372.5 Z"/></g>
<g><path style="opacity:0.02" fill="#bbbbb9" d="M 368.5,375.5 C 368.833,375.5 369.167,375.5 369.5,375.5C 369.34,377.153 368.674,378.486 367.5,379.5C 367.232,377.901 367.566,376.568 368.5,375.5 Z"/></g>
<g><path style="opacity:0.102" fill="#949493" d="M 38.5,382.5 C 80.8386,382.167 123.172,382.5 165.5,383.5C 165.376,384.107 165.043,384.44 164.5,384.5C 122.5,383.833 80.5,383.167 38.5,382.5 Z"/></g>
<g><path style="opacity:1" fill="#101929" d="M 180.5,383.5 C 226.664,382.501 272.997,382.168 319.5,382.5C 319.5,383.833 319.5,385.167 319.5,386.5C 318.596,385.791 318.263,384.791 318.5,383.5C 272.5,383.5 226.5,383.5 180.5,383.5 Z"/></g>
<g><path style="opacity:0.12" fill="#8f8f8f" d="M 362.5,382.5 C 352.955,382.843 343.622,383.843 334.5,385.5C 333.596,384.791 333.263,383.791 333.5,382.5C 343.167,382.5 352.833,382.5 362.5,382.5 Z"/></g>
<g><path style="opacity:1" fill="#142b49" d="M 180.5,383.5 C 226.5,383.5 272.5,383.5 318.5,383.5C 318.263,384.791 318.596,385.791 319.5,386.5C 321.607,396.042 322.941,405.709 323.5,415.5C 322.167,415.5 320.833,415.5 319.5,415.5C 320.472,414.601 321.138,413.434 321.5,412C 320.066,406.59 319.399,401.09 319.5,395.5C 272.5,395.5 225.5,395.5 178.5,395.5C 179.04,391.358 179.706,387.358 180.5,383.5 Z"/></g>
<g><path style="opacity:1" fill="#1f3b62" d="M 178.5,395.5 C 225.5,395.5 272.5,395.5 319.5,395.5C 319.399,401.09 320.066,406.59 321.5,412C 321.138,413.434 320.472,414.601 319.5,415.5C 271.5,415.5 223.5,415.5 175.5,415.5C 176.068,408.757 177.068,402.091 178.5,395.5 Z"/></g>
<g><path style="opacity:0.004" fill="#fefffe" d="M 95.5,397.5 C 96.8333,398.167 96.8333,398.167 95.5,397.5 Z"/></g>
<g><path style="opacity:0.004" fill="#fefffe" d="M 399.5,402.5 C 400.833,403.167 400.833,403.167 399.5,402.5 Z"/></g>
<g><path style="opacity:0.004" fill="#fefffe" d="M 21.5,411.5 C 22.8333,412.167 22.8333,412.167 21.5,411.5 Z"/></g>
<g><path style="opacity:0.004" fill="#fefffe" d="M 125.5,412.5 C 126.833,413.167 126.833,413.167 125.5,412.5 Z"/></g>
<g><path style="opacity:0.004" fill="#fefffe" d="M 3.5,416.5 C 4.83333,417.167 4.83333,417.167 3.5,416.5 Z"/></g>
<g><path style="opacity:0.247" fill="#9e9e9e" d="M 109.5,416.5 C 108.833,417.833 107.833,418.833 106.5,419.5C 106.5,417.5 107.5,416.5 109.5,416.5 Z"/></g>
<g><path style="opacity:0.141" fill="#b5b5b5" d="M 390.5,416.5 C 391.906,416.973 392.573,417.973 392.5,419.5C 391.094,419.027 390.427,418.027 390.5,416.5 Z"/></g>
<g><path style="opacity:0.004" fill="#fefffe" d="M 486.5,430.5 C 487.833,431.167 487.833,431.167 486.5,430.5 Z"/></g>
<g><path style="opacity:0.004" fill="#fefffe" d="M 424.5,434.5 C 425.833,435.167 425.833,435.167 424.5,434.5 Z"/></g>
<g><path style="opacity:0.004" fill="#fefffe" d="M 422.5,437.5 C 423.833,438.167 423.833,438.167 422.5,437.5 Z"/></g>
<g><path style="opacity:0.004" fill="#fefffe" d="M 101.5,438.5 C 102.833,439.167 102.833,439.167 101.5,438.5 Z"/></g>
<g><path style="opacity:1" fill="#2e4364" d="M 120.5,430.5 C 206.5,430.5 292.5,430.5 378.5,430.5C 378.5,435.167 378.5,439.833 378.5,444.5C 292.5,444.5 206.5,444.5 120.5,444.5C 120.5,439.833 120.5,435.167 120.5,430.5 Z"/></g>
<g><path style="opacity:1" fill="#1f3a63" d="M 121.5,431.5 C 206.167,431.333 290.834,431.5 375.5,432C 376.46,435.73 376.793,439.563 376.5,443.5C 291.833,443.667 207.166,443.5 122.5,443C 121.54,439.27 121.207,435.437 121.5,431.5 Z"/></g>
<g><path style="opacity:0.004" fill="#fefffe" d="M 83.5,453.5 C 84.8333,454.167 84.8333,454.167 83.5,453.5 Z"/></g>
<g><path style="opacity:0.082" fill="#a1a1a1" d="M 106.5,455.5 C 107.833,456.167 108.833,457.167 109.5,458.5C 107.5,458.5 106.5,457.5 106.5,455.5 Z"/></g>
<g><path style="opacity:0.004" fill="#fefffe" d="M 179.5,465.5 C 180.833,466.167 180.833,466.167 179.5,465.5 Z"/></g>
<g><path style="opacity:0.004" fill="#fefffe" d="M 202.5,484.5 C 203.833,485.167 203.833,485.167 202.5,484.5 Z"/></g>
</svg>
