<?xml version="1.0" encoding="UTF-8"?>
<svg version="1.1" xmlns="http://www.w3.org/2000/svg" width="500" height="500">
<path d="M0 0 C2.47412109 0.48535156 2.47412109 0.48535156 3.91772461 1.94311523 C4.28824951 2.61060791 4.65877441 3.27810059 5.04052734 3.96582031 C5.45318848 4.69978027 5.86584961 5.43374023 6.29101562 6.18994141 C19.76453152 32.33067529 27.52204875 61.55898519 27.71240234 91.00488281 C27.72047409 92.21689865 27.72854584 93.42891449 27.73686218 94.67765808 C27.75066287 97.2470865 27.76140288 99.81653294 27.76928711 102.38598633 C27.78069262 104.95993599 27.80095741 107.53386421 27.83081055 110.10766602 C28.0938868 132.85126907 26.33037856 155.16192995 20.28662109 177.17285156 C19.99037842 178.2754834 19.69413574 179.37811523 19.38891602 180.51416016 C8.95697734 218.14451857 -9.44999184 253.54540354 -34.52587891 283.48535156 C-35.72277344 284.95875 -35.72277344 284.95875 -36.94384766 286.46191406 C-43.26186553 294.13075974 -50.0845689 301.25318857 -57.08837891 308.29785156 C-57.95035889 309.16901611 -58.81233887 310.04018066 -59.70043945 310.93774414 C-65.66552794 316.87460221 -71.92655122 322.26705105 -78.52587891 327.48535156 C-79.43865601 328.21757935 -79.43865601 328.21757935 -80.36987305 328.96459961 C-88.74673544 335.65683332 -97.4758251 341.74292012 -106.52587891 347.48535156 C-107.14849609 347.88189941 -107.77111328 348.27844727 -108.41259766 348.68701172 C-139.34807169 368.16519808 -173.52705652 380.6680225 -209.27587891 387.73535156 C-210.0296582 387.88657471 -210.7834375 388.03779785 -211.56005859 388.19360352 C-227.86753526 391.22599969 -244.20900849 391.83394451 -260.76000977 391.80102539 C-264.08789485 391.79785202 -267.41489876 391.82147852 -270.74267578 391.84667969 C-303.21387544 391.94292524 -333.83236474 384.1525525 -359.52587891 363.48535156 C-360.08210938 363.04578125 -360.63833984 362.60621094 -361.21142578 362.15332031 C-386.61901676 341.95530412 -404.50250356 313.38401287 -408.31494141 280.82666016 C-411.18683135 248.95001136 -402.84558161 216.64574054 -382.90869141 191.32519531 C-359.82789362 163.81742483 -331.18755022 146.66026433 -295.08837891 142.86035156 C-261.84773351 140.28174014 -229.87500493 149.83083627 -204.15869141 171.13378906 C-176.23390904 196.07550863 -160.82895431 227.39161032 -158.30712891 264.72363281 C-157.90437555 277.39358216 -160.55640328 289.59749507 -168.96337891 299.29785156 C-176.12485338 305.41130538 -181.11112405 306.85684795 -190.35009766 306.76660156 C-196.61598577 306.21168896 -201.61983157 304.10134822 -206.40087891 300.04785156 C-207.10212891 299.20222656 -207.80337891 298.35660156 -208.52587891 297.48535156 C-209.22712891 296.74285156 -209.92837891 296.00035156 -210.65087891 295.23535156 C-217.27730718 285.51659009 -216.66586344 273.63773444 -216.70166016 262.37207031 C-216.71210461 260.99354806 -216.72353051 259.61503294 -216.73588562 258.23652649 C-216.78796197 252.41495886 -216.83627754 246.59352414 -216.85180664 240.77172852 C-216.86196066 237.19721802 -216.89146208 233.62329695 -216.93312645 230.04902077 C-216.95120501 228.04746203 -216.94880542 226.0457514 -216.94587708 224.04411316 C-217.06883985 214.81341955 -218.6090984 207.90219061 -223.71337891 200.17285156 C-232.57005965 191.70980108 -242.26404857 190.17537447 -254.08837891 190.18457031 C-255.31186035 190.18028519 -256.5353418 190.17600006 -257.79589844 190.17158508 C-260.38475935 190.16584831 -262.97363637 190.1653367 -265.5625 190.16967773 C-269.48417452 190.17281817 -273.40507989 190.14943698 -277.32666016 190.12402344 C-279.8513988 190.12174816 -282.37613945 190.12104801 -284.90087891 190.12207031 C-286.63446655 190.10825569 -286.63446655 190.10825569 -288.40307617 190.09416199 C-311.59721527 190.22306695 -330.27347408 199.26168142 -346.46337891 215.41894531 C-360.42757948 230.41175888 -365.1121157 249.28351725 -364.79541016 269.24316406 C-364.07940446 288.66349601 -354.84777951 306.45190703 -341.07275391 319.87597656 C-324.57146688 334.40106155 -304.5078982 339.80437738 -282.890625 338.65673828 C-267.22925145 337.52166867 -249.33945376 329.04245845 -238.62744141 317.42675781 C-238.09892578 316.78609375 -237.57041016 316.14542969 -237.02587891 315.48535156 C-236.20087891 314.49535156 -235.37587891 313.50535156 -234.52587891 312.48535156 C-233.53587891 312.48535156 -232.54587891 312.48535156 -231.52587891 312.48535156 C-230.5723166 313.88163922 -229.62635109 315.28377323 -228.72119141 316.71191406 C-221.81392321 326.9599525 -209.53609366 332.52986307 -197.71728516 335.04785156 C-180.93395634 337.34862614 -166.77135213 333.9148249 -153.15478516 323.70800781 C-143.80669926 315.99938386 -138.47613971 305.78628083 -134.52587891 294.48535156 C-134.20490234 293.57140625 -133.88392578 292.65746094 -133.55322266 291.71582031 C-124.17887737 259.14542063 -136.00293191 219.01488257 -151.77587891 190.29785156 C-157.02346076 181.05787314 -163.30266878 171.6479274 -170.88134766 164.15722656 C-172.52587891 162.48535156 -172.52587891 162.48535156 -172.52587891 160.48535156 C-173.09951172 160.24558594 -173.67314453 160.00582031 -174.26416016 159.75878906 C-176.97905864 158.23019337 -178.61059465 156.41038814 -180.71337891 154.11035156 C-207.44899127 127.02398044 -247.11950178 114.02119982 -284.52587891 113.23535156 C-322.54333677 114.131741 -359.42376635 127.25251793 -387.34228516 153.47753906 C-389.52587891 155.48535156 -389.52587891 155.48535156 -392.10400391 157.52832031 C-395.73762678 160.46452202 -398.56204719 163.88846842 -401.52587891 167.48535156 C-402.30318359 168.42507812 -403.08048828 169.36480469 -403.88134766 170.33300781 C-410.48054305 178.50313236 -415.70971981 187.16663307 -420.52587891 196.48535156 C-420.84685547 197.1013623 -421.16783203 197.71737305 -421.49853516 198.35205078 C-429.45985779 213.84581728 -434.14042434 230.27091448 -436.52587891 247.48535156 C-436.65736328 248.4328125 -436.78884766 249.38027344 -436.92431641 250.35644531 C-441.03878516 286.88625574 -431.2508982 323.35671738 -410.52587891 353.48535156 C-410.14238281 354.04528809 -409.75888672 354.60522461 -409.36376953 355.18212891 C-386.23771135 388.34871752 -348.83751772 410.16233106 -309.39306641 417.48535156 C-294.99929812 419.93859652 -280.67344101 420.72261842 -266.08837891 420.73535156 C-264.87791901 420.73686218 -264.87791901 420.73686218 -263.64300537 420.73840332 C-248.11774483 420.7254169 -232.91498985 419.63828092 -217.52587891 417.48535156 C-216.04837158 417.28449951 -216.04837158 417.28449951 -214.54101562 417.07958984 C-171.15401202 410.97447677 -123.82256572 395.53060535 -88.15478516 369.44628906 C-86.52587891 368.48535156 -86.52587891 368.48535156 -83.52587891 368.48535156 C-83.88716615 373.54337295 -86.57754359 376.04627152 -90.08837891 379.36035156 C-90.91354004 380.15904663 -90.91354004 380.15904663 -91.75537109 380.97387695 C-93.33326417 382.49138439 -94.92514032 383.99200228 -96.52587891 385.48535156 C-97.18974609 386.10539062 -97.85361328 386.72542969 -98.53759766 387.36425781 C-100.49631924 389.12050481 -102.50115052 390.805329 -104.52587891 392.48535156 C-105.07195801 392.94522461 -105.61803711 393.40509766 -106.18066406 393.87890625 C-162.46557895 441.18830054 -234.99256803 459.76327719 -307.72558594 454.20117188 C-330.34853635 451.98025846 -352.19298163 445.58084304 -372.52587891 435.48535156 C-373.51273682 435.00412842 -373.51273682 435.00412842 -374.51953125 434.51318359 C-384.21630234 429.74590712 -392.94308907 424.03195216 -401.52587891 417.48535156 C-402.42435547 416.81246094 -403.32283203 416.13957031 -404.24853516 415.44628906 C-441.17764498 386.59368139 -463.78606596 344.33633063 -471.52587891 298.48535156 C-471.70022461 297.46352783 -471.87457031 296.4417041 -472.05419922 295.38891602 C-472.63687208 290.56678536 -472.74468572 285.81507631 -472.79931641 280.96191406 C-472.81193512 279.95143509 -472.82455383 278.94095612 -472.83755493 277.89985657 C-473.25748518 236.20949307 -473.25748518 236.20949307 -467.52587891 217.48535156 C-467.23116699 216.47875488 -466.93645508 215.4721582 -466.6328125 214.43505859 C-457.22674903 182.73422794 -441.26086893 156.34516119 -418.52587891 132.48535156 C-417.80013672 131.70675781 -417.07439453 130.92816406 -416.32666016 130.12597656 C-394.30277045 107.16576622 -364.41590254 92.02786741 -334.02587891 83.73535156 C-333.35234375 83.5486792 -332.67880859 83.36200684 -331.98486328 83.16967773 C-316.78822837 79.26352516 -301.59325071 78.04485889 -285.96337891 78.04394531 C-284.15274013 78.03211754 -282.3421109 78.01874065 -280.53149414 78.00392151 C-275.81751209 77.96818123 -271.10361463 77.94767526 -266.38952637 77.93237305 C-258.85023241 77.90730527 -251.31112524 77.86697614 -243.77200317 77.81047249 C-241.18071744 77.79451398 -238.58961906 77.79040166 -235.99829102 77.78746033 C-221.27275225 77.7223079 -206.35390104 76.93390244 -192.02587891 73.29785156 C-190.72553711 72.97421631 -190.72553711 72.97421631 -189.39892578 72.64404297 C-163.0595279 65.83890035 -138.74121719 53.4564112 -118.92822266 34.71191406 C-116.52587891 32.48535156 -116.52587891 32.48535156 -113.77978516 30.32128906 C-111.45360597 28.68333836 -111.45360597 28.68333836 -110.52587891 26.48535156 C-109.86587891 26.48535156 -109.20587891 26.48535156 -108.52587891 26.48535156 C-108.19587891 25.49535156 -107.86587891 24.50535156 -107.52587891 23.48535156 C-105.87587891 23.81535156 -104.22587891 24.14535156 -102.52587891 24.48535156 C-96.53916962 42.44547941 -111.68461017 72.99612481 -119.69775391 89.02441406 C-121.79412489 92.99318478 -124.05478749 96.74127367 -126.52587891 100.48535156 C-126.85587891 101.47535156 -127.18587891 102.46535156 -127.52587891 103.48535156 C-77.05787786 87.78018414 -38.74426483 63.47880746 -12.18603516 16.64550781 C-11.61030762 15.63810547 -11.03458008 14.63070312 -10.44140625 13.59277344 C-9.30310581 11.58699736 -8.18182294 9.57145296 -7.07910156 7.54589844 C-6.56009277 6.63001953 -6.04108398 5.71414062 -5.50634766 4.77050781 C-5.05155029 3.94429932 -4.59675293 3.11809082 -4.12817383 2.2668457 C-2.52587891 0.48535156 -2.52587891 0.48535156 0 0 Z " fill="#5C2D91" transform="translate(472.52587890625,22.5146484375)"/>
<path d="M0 0 C1.20850616 0.00045822 2.41701233 0.00091644 3.66213989 0.00138855 C6.20543404 0.00440035 8.74872651 0.01225439 11.29199219 0.0246582 C15.20253965 0.04300265 19.11285135 0.04516715 23.0234375 0.04492188 C25.49479373 0.04983405 27.96614835 0.05566106 30.4375 0.0625 C31.61343719 0.06361282 32.78937439 0.06472565 34.00094604 0.06587219 C35.07941803 0.07225204 36.15789001 0.0786319 37.26904297 0.08520508 C38.22277802 0.08901688 39.17651306 0.09282867 40.15914917 0.09675598 C42.3203125 0.23046875 42.3203125 0.23046875 43.3203125 1.23046875 C43.43459415 2.82357515 43.47990573 4.42169356 43.49731445 6.01879883 C43.51656731 7.55223686 43.51656731 7.55223686 43.53620911 9.11665344 C43.54359604 10.23315781 43.55098297 11.34966217 43.55859375 12.5 C43.5666655 13.64651535 43.57473724 14.7930307 43.58305359 15.97428894 C43.59692335 18.41310097 43.60763247 20.85193264 43.61547852 23.29077148 C43.63256391 26.98915762 43.67640951 30.68662009 43.72070312 34.38476562 C43.73084094 36.75650385 43.73935362 39.12824968 43.74609375 41.5 C43.76360184 42.59423782 43.78110992 43.68847565 43.79914856 44.81587219 C43.76432236 57.39808074 39.67723584 69.34563482 31.0625 78.67578125 C21.45513099 87.80127595 10.80703833 92.64158589 -2.4921875 92.54296875 C-3.28753906 92.5373291 -4.08289063 92.53168945 -4.90234375 92.52587891 C-17.3795845 92.26848485 -27.14755783 87.63752089 -36.3671875 79.23046875 C-44.89212463 70.26719266 -49.4646855 58.51631094 -49.9296875 46.23046875 C-49.48828289 32.51933803 -43.70530632 19.75837477 -33.6640625 10.33984375 C-23.12974874 2.12805586 -13.14064355 -0.08113333 0 0 Z " fill="#5C2D91" transform="translate(184.6796875,240.76953125)"/>
</svg>
