<?xml version="1.0" encoding="UTF-8"?>
<!DOCTYPE svg PUBLIC "-//W3C//DTD SVG 1.1//EN" "http://www.w3.org/Graphics/SVG/1.1/DTD/svg11.dtd">
<svg xmlns="http://www.w3.org/2000/svg" version="1.1" width="618px" height="618px" style="shape-rendering:geometricPrecision; text-rendering:geometricPrecision; image-rendering:optimizeQuality; fill-rule:evenodd; clip-rule:evenodd" xmlns:xlink="http://www.w3.org/1999/xlink">
<g><path style="opacity:0.971" fill="#020100" d="M 387.5,477.5 C 377.806,478.098 374.306,473.765 377,464.5C 392.248,457.601 405.582,447.934 417,435.5C 426.79,424.094 434.957,411.594 441.5,398C 437.343,391.198 435.01,383.865 434.5,376C 437.892,358.586 441.059,341.086 444,323.5C 446.222,303.436 445.888,283.436 443,263.5C 441.097,255.458 438.597,247.624 435.5,240C 438.221,231.222 443.387,229.388 451,234.5C 461.382,258.798 465.048,284.132 462,310.5C 460.378,332.478 456.878,354.145 451.5,375.5C 451.743,378.656 452.576,381.656 454,384.5C 459.46,396.229 465.293,407.729 471.5,419C 475.451,421.101 479.284,420.934 483,418.5C 502.193,395.282 518.193,369.948 531,342.5C 538.9,325.668 541.9,308.002 540,289.5C 529.093,251.392 512.093,216.392 489,184.5C 477.123,168.613 462.289,156.446 444.5,148C 434.894,144.13 424.894,142.463 414.5,143C 361.302,106.516 303.969,98.1828 242.5,118C 230.609,122.612 219.276,128.279 208.5,135C 193.498,136.444 179.831,141.444 167.5,150C 144.038,168.124 124.872,189.957 110,215.5C 95.2852,240.931 83.2852,267.597 74,295.5C 72.8988,312.892 75.8988,329.558 83,345.5C 95.7439,372.672 111.744,397.672 131,420.5C 134.795,423.803 138.962,424.303 143.5,422C 149.182,411.308 154.682,400.474 160,389.5C 161.753,386 162.92,382.333 163.5,378.5C 158.922,358.365 155.422,338.031 153,317.5C 151.957,299.761 152.623,282.094 155,264.5C 156.802,255.095 159.802,246.095 164,237.5C 171.591,232.376 176.757,234.209 179.5,243C 172.511,259.264 169.178,276.264 169.5,294C 169.747,307.207 170.581,320.373 172,333.5C 174.711,348.72 177.544,363.887 180.5,379C 179.98,386.059 177.98,392.726 174.5,399C 188.462,428.295 210.295,449.462 240,462.5C 243.375,471.762 240.209,476.762 230.5,477.5C 210.042,469.002 192.876,456.002 179,438.5C 174.276,432.618 169.776,426.618 165.5,420.5C 158.069,438.55 145.069,444.717 126.5,439C 122.759,437.262 119.592,434.762 117,431.5C 97.6756,408.207 81.3423,382.874 68,355.5C 58.3914,335.43 54.7248,314.43 57,292.5C 69.9889,250.522 89.3223,211.855 115,176.5C 127.91,160.255 142.743,146.089 159.5,134C 172.676,125.58 187.009,120.246 202.5,118C 261.139,84.554 321.806,80.554 384.5,106C 396.646,111.571 408.313,117.904 419.5,125C 440.031,125.772 458.364,132.438 474.5,145C 494.926,162.056 511.426,182.223 524,205.5C 537.774,231.045 548.774,257.712 557,285.5C 560.015,308.099 556.682,329.766 547,350.5C 533.92,379.217 517.254,405.55 497,429.5C 485.756,439.971 473.59,441.138 460.5,433C 456.557,428.945 453.224,424.445 450.5,419.5C 438.872,439.631 423.539,456.465 404.5,470C 399.047,473.062 393.38,475.562 387.5,477.5 Z"/></g>
<g><path style="opacity:1" fill="#f2a940" d="M 387.5,477.5 C 386.312,478.364 385.145,479.364 384,480.5C 383.667,480.167 383.333,479.833 383,479.5C 375.553,483.045 368.053,485.378 360.5,486.5C 363.816,469.333 365.15,452 364.5,434.5C 389.55,424.428 404.717,406.094 410,379.5C 410.667,375.167 410.667,370.833 410,366.5C 406.386,357.78 401.053,356.447 394,362.5C 395.221,378.807 390.387,392.973 379.5,405C 372.654,411.257 364.987,416.257 356.5,420C 352.167,420.667 347.833,420.667 343.5,420C 334.885,414.441 326.718,408.274 319,401.5C 318.667,393.167 318.333,384.833 318,376.5C 315.459,371.931 311.625,370.431 306.5,372C 304.622,373.543 303.122,375.376 302,377.5C 301.667,385.833 301.333,394.167 301,402.5C 294.833,407.333 288.667,412.167 282.5,417C 271.867,422.392 261.867,421.392 252.5,414C 233.785,402.404 225.285,385.571 227,363.5C 221.257,356.579 215.924,356.912 211,364.5C 208.478,387.941 216.311,407.108 234.5,422C 239.662,425.749 244.996,429.249 250.5,432.5C 250.906,448.968 252.573,465.302 255.5,481.5C 255.377,482.925 255.043,484.258 254.5,485.5C 252.626,483.872 250.626,483.538 248.5,484.5C 245.466,482.317 242.3,481.317 239,481.5C 236.579,479.303 233.745,477.97 230.5,477.5C 240.209,476.762 243.375,471.762 240,462.5C 210.295,449.462 188.462,428.295 174.5,399C 177.98,392.726 179.98,386.059 180.5,379C 177.544,363.887 174.711,348.72 172,333.5C 170.581,320.373 169.747,307.207 169.5,294C 169.178,276.264 172.511,259.264 179.5,243C 176.757,234.209 171.591,232.376 164,237.5C 159.802,246.095 156.802,255.095 155,264.5C 152.623,282.094 151.957,299.761 153,317.5C 155.422,338.031 158.922,358.365 163.5,378.5C 162.92,382.333 161.753,386 160,389.5C 154.682,400.474 149.182,411.308 143.5,422C 138.962,424.303 134.795,423.803 131,420.5C 111.744,397.672 95.7439,372.672 83,345.5C 75.8988,329.558 72.8988,312.892 74,295.5C 83.2852,267.597 95.2852,240.931 110,215.5C 124.872,189.957 144.038,168.124 167.5,150C 179.831,141.444 193.498,136.444 208.5,135C 219.276,128.279 230.609,122.612 242.5,118C 303.969,98.1828 361.302,106.516 414.5,143C 424.894,142.463 434.894,144.13 444.5,148C 462.289,156.446 477.123,168.613 489,184.5C 512.093,216.392 529.093,251.392 540,289.5C 541.9,308.002 538.9,325.668 531,342.5C 518.193,369.948 502.193,395.282 483,418.5C 479.284,420.934 475.451,421.101 471.5,419C 465.293,407.729 459.46,396.229 454,384.5C 452.576,381.656 451.743,378.656 451.5,375.5C 456.878,354.145 460.378,332.478 462,310.5C 465.048,284.132 461.382,258.798 451,234.5C 443.387,229.388 438.221,231.222 435.5,240C 438.597,247.624 441.097,255.458 443,263.5C 445.888,283.436 446.222,303.436 444,323.5C 441.059,341.086 437.892,358.586 434.5,376C 435.01,383.865 437.343,391.198 441.5,398C 434.957,411.594 426.79,424.094 417,435.5C 405.582,447.934 392.248,457.601 377,464.5C 374.306,473.765 377.806,478.098 387.5,477.5 Z"/></g>
<g><path style="opacity:1" fill="#050301" d="M 234.5,231.5 C 247.112,231.278 253.112,237.445 252.5,250C 253.674,256.215 251.341,260.215 245.5,262C 227.497,268.007 219.664,261.507 222,242.5C 224.708,237.079 228.875,233.413 234.5,231.5 Z"/></g>
<g><path style="opacity:1" fill="#070401" d="M 390.5,231.5 C 405.171,231.667 412.004,239.001 411,253.5C 407.524,262.654 401.024,266.154 391.5,264C 387.554,262.694 383.888,260.861 380.5,258.5C 379.129,252.11 379.296,245.776 381,239.5C 383.161,235.495 386.328,232.829 390.5,231.5 Z"/></g>
<g><path style="opacity:1" fill="#030201" d="M 325.5,364.5 C 317.824,360.482 314.324,354.149 315,345.5C 321.537,338.557 327.37,339.223 332.5,347.5C 335.531,345.984 338.531,344.484 341.5,343C 342.554,341.612 342.72,340.112 342,338.5C 340.263,334.458 338.43,330.458 336.5,326.5C 318.833,325.167 301.167,325.167 283.5,326.5C 281.095,332.051 279.095,337.717 277.5,343.5C 281.243,344.534 284.91,345.868 288.5,347.5C 294.096,338.73 299.929,338.396 306,346.5C 306.351,353.797 303.518,359.464 297.5,363.5C 292.871,364.481 288.204,364.648 283.5,364C 274.905,360.921 266.739,357.088 259,352.5C 257.578,349.97 257.245,347.303 258,344.5C 261.667,335.167 265.333,325.833 269,316.5C 271.742,312.884 275.242,310.384 279.5,309C 299.5,308.333 319.5,308.333 339.5,309C 344.371,309.864 348.204,312.364 351,316.5C 354.667,324.833 358.333,333.167 362,341.5C 362.667,344.167 362.667,346.833 362,349.5C 360.127,351.709 357.96,353.542 355.5,355C 348.802,358.349 342.136,361.682 335.5,365C 332.112,365.659 328.779,365.492 325.5,364.5 Z"/></g>
<g><path style="opacity:1" fill="#3d3d3d" d="M 325.5,364.5 C 316.159,364.333 306.826,364 297.5,363.5C 303.518,359.464 306.351,353.797 306,346.5C 299.929,338.396 294.096,338.73 288.5,347.5C 284.91,345.868 281.243,344.534 277.5,343.5C 279.095,337.717 281.095,332.051 283.5,326.5C 301.167,325.167 318.833,325.167 336.5,326.5C 338.43,330.458 340.263,334.458 342,338.5C 342.72,340.112 342.554,341.612 341.5,343C 338.531,344.484 335.531,345.984 332.5,347.5C 327.37,339.223 321.537,338.557 315,345.5C 314.324,354.149 317.824,360.482 325.5,364.5 Z"/></g>
<g><path style="opacity:0.989" fill="#030200" d="M 360.5,486.5 C 358.136,499.395 352.469,510.562 343.5,520C 334.254,525.312 324.254,527.812 313.5,527.5C 298.748,527.855 285.082,524.355 272.5,517C 268.578,513.749 265.412,509.916 263,505.5C 260.044,498.774 257.211,492.107 254.5,485.5C 255.043,484.258 255.377,482.925 255.5,481.5C 252.573,465.302 250.906,448.968 250.5,432.5C 244.996,429.249 239.662,425.749 234.5,422C 216.311,407.108 208.478,387.941 211,364.5C 215.924,356.912 221.257,356.579 227,363.5C 225.285,385.571 233.785,402.404 252.5,414C 261.867,421.392 271.867,422.392 282.5,417C 288.667,412.167 294.833,407.333 301,402.5C 301.333,394.167 301.667,385.833 302,377.5C 303.122,375.376 304.622,373.543 306.5,372C 311.625,370.431 315.459,371.931 318,376.5C 318.333,384.833 318.667,393.167 319,401.5C 326.718,408.274 334.885,414.441 343.5,420C 347.833,420.667 352.167,420.667 356.5,420C 364.987,416.257 372.654,411.257 379.5,405C 390.387,392.973 395.221,378.807 394,362.5C 401.053,356.447 406.386,357.78 410,366.5C 410.667,370.833 410.667,375.167 410,379.5C 404.717,406.094 389.55,424.428 364.5,434.5C 365.15,452 363.816,469.333 360.5,486.5 Z"/></g>
<g><path style="opacity:1" fill="#e85946" d="M 269.5,455.5 C 269.5,449.833 269.5,444.167 269.5,438.5C 271.415,438.784 273.081,438.451 274.5,437.5C 280.198,436.767 285.531,434.934 290.5,432C 296.729,426.767 303.229,421.934 310,417.5C 317.238,422.539 324.404,427.705 331.5,433C 336.489,435.747 341.822,437.247 347.5,437.5C 348.28,452.347 347.114,467.013 344,481.5C 341.977,489.236 338.977,496.569 335,503.5C 333.269,505.617 331.102,507.117 328.5,508C 314.996,510.456 301.662,509.79 288.5,506C 280.631,501.442 275.797,494.608 274,485.5C 270.874,475.741 269.374,465.741 269.5,455.5 Z"/></g>
<g><path style="opacity:1" fill="#863328" d="M 274.5,437.5 C 273.081,438.451 271.415,438.784 269.5,438.5C 269.5,444.167 269.5,449.833 269.5,455.5C 268.51,449.69 268.177,443.69 268.5,437.5C 270.5,437.5 272.5,437.5 274.5,437.5 Z"/></g>
</svg>
