<?xml version="1.0" encoding="UTF-8"?>
<!DOCTYPE svg PUBLIC "-//W3C//DTD SVG 1.1//EN" "http://www.w3.org/Graphics/SVG/1.1/DTD/svg11.dtd">
<svg xmlns="http://www.w3.org/2000/svg" version="1.1" width="256px" height="256px" style="shape-rendering:geometricPrecision; text-rendering:geometricPrecision; image-rendering:optimizeQuality; fill-rule:evenodd; clip-rule:evenodd" xmlns:xlink="http://www.w3.org/1999/xlink">
<g><path style="opacity:0.004" fill="#00fffe" d="M 27.5,49.5 C 28.8333,50.1667 28.8333,50.1667 27.5,49.5 Z"/></g>
<g><path style="opacity:0.008" fill="#7e7f7e" d="M 219.5,54.5 C 218.475,54.1034 218.308,53.4368 219,52.5C 219.464,53.0944 219.631,53.7611 219.5,54.5 Z"/></g>
<g><path style="opacity:0.008" fill="#bcbcbc" d="M 102.5,55.5 C 103.251,54.4265 104.251,54.2599 105.5,55C 104.552,55.4828 103.552,55.6495 102.5,55.5 Z"/></g>
<g><path style="opacity:0.012" fill="#595959" d="M 155.5,55.5 C 153.265,55.2053 151.265,55.5386 149.5,56.5C 147.621,56.6068 147.288,56.1068 148.5,55C 151.039,54.2042 153.372,54.3709 155.5,55.5 Z"/></g>
<g><path style="opacity:0.004" fill="#65c2c2" d="M 30.5,56.5 C 30.3433,55.1266 30.51,53.7932 31,52.5C 31.765,54.0657 31.5983,55.3991 30.5,56.5 Z"/></g>
<g><path style="opacity:0.012" fill="#000000" d="M 158.5,57.5 C 159.833,58.1667 159.833,58.1667 158.5,57.5 Z"/></g>
<g><path style="opacity:0.008" fill="#747f7f" d="M 29.5,56.5 C 29.8333,56.5 30.1667,56.5 30.5,56.5C 30.7845,58.4147 30.4511,60.0813 29.5,61.5C 29.5,59.8333 29.5,58.1667 29.5,56.5 Z"/></g>
<g><path style="opacity:0.957" fill="#414141" d="M 96.5,56.5 C 95.1667,56.8333 95.1667,57.1667 96.5,57.5C 96.5,58.1667 96.8333,58.5 97.5,58.5C 97.8333,59.8333 98.1667,59.8333 98.5,58.5C 100.267,57.7435 102.1,57.0769 104,56.5C 105.749,56.7483 106.582,57.7483 106.5,59.5C 105.833,64.5 105.167,69.5 104.5,74.5C 104.828,69.1254 104.495,63.7921 103.5,58.5C 102.893,58.6236 102.56,58.9569 102.5,59.5C 101.514,63.97 101.181,68.6367 101.5,73.5C 101.5,74.1667 101.5,74.8333 101.5,75.5C 100.206,74.7101 99.0391,73.7101 98,72.5C 97.5357,73.0944 97.369,73.7611 97.5,74.5C 89.8284,77.6385 84.9951,75.3052 83,67.5C 82.6667,68.5 82.3333,69.5 82,70.5C 81.3333,67.5 81.3333,64.5 82,61.5C 82.3333,62.8333 82.6667,64.1667 83,65.5C 83.9503,61.8553 85.117,58.6886 86.5,56C 90.1368,53.8549 93.4702,54.0216 96.5,56.5 Z M 99.5,63.5 C 99.5,64.5 99.5,65.5 99.5,66.5C 98.1266,66.3433 96.7932,66.51 95.5,67C 97.0581,67.21 98.3915,67.71 99.5,68.5C 97.4458,68.3653 95.7791,69.032 94.5,70.5C 94.1667,69.1667 93.8333,69.1667 93.5,70.5C 89.1996,70.1847 87.533,67.8514 88.5,63.5C 90.0418,62.6993 91.7085,62.366 93.5,62.5C 93.0825,61.7784 92.4158,61.2784 91.5,61C 92,60.8333 92.5,60.6667 93,60.5C 94.6942,62.4292 96.8609,63.4292 99.5,63.5 Z"/></g>
<g><path style="opacity:0.004" fill="#8e8e8e" d="M 96.5,57.5 C 96.5,57.1667 96.5,56.8333 96.5,56.5C 97.8333,56.5 98.5,57.1667 98.5,58.5C 98.1667,58.5 97.8333,58.5 97.5,58.5C 96.8333,58.5 96.5,58.1667 96.5,57.5 Z"/></g>
<g><path style="opacity:0.004" fill="#68d0cf" d="M 219.5,54.5 C 219.833,54.5 220.167,54.5 220.5,54.5C 220.5,56.1667 220.5,57.8333 220.5,59.5C 219.549,58.0813 219.216,56.4147 219.5,54.5 Z"/></g>
<g><path style="opacity:0.754" fill="#0d0d0d" d="M 104.5,74.5 C 103.508,74.6716 102.842,74.3382 102.5,73.5C 102.5,68.8333 102.5,64.1667 102.5,59.5C 102.56,58.9569 102.893,58.6236 103.5,58.5C 104.495,63.7921 104.828,69.1254 104.5,74.5 Z"/></g>
<g><path style="opacity:0.016" fill="#4e4e4e" d="M 108.5,60.5 C 107.475,60.1034 107.308,59.4368 108,58.5C 108.464,59.0944 108.631,59.7611 108.5,60.5 Z"/></g>
<g><path style="opacity:0.977" fill="#444444" d="M 141.5,63.5 C 137.864,63.4059 134.364,62.7393 131,61.5C 129.443,64.2945 129.11,67.2945 130,70.5C 130.333,69.1667 130.667,67.8333 131,66.5C 131.118,68.5733 132.118,69.9067 134,70.5C 136.319,69.1287 138.819,68.4621 141.5,68.5C 141.5,69.5 141.5,70.5 141.5,71.5C 140.662,71.8417 140.328,72.5084 140.5,73.5C 136.167,76.1667 131.833,76.1667 127.5,73.5C 126.251,69.0504 124.917,64.717 123.5,60.5C 123.5,59.8333 123.167,59.5 122.5,59.5C 122.5,58.8333 122.167,58.5 121.5,58.5C 121.5,57.8333 121.167,57.5 120.5,57.5C 120.5,57.1667 120.5,56.8333 120.5,56.5C 123.168,57.0989 125.002,58.7656 126,61.5C 126.51,59.4547 127.343,57.6213 128.5,56C 137.034,52.5698 141.368,55.0698 141.5,63.5 Z"/></g>
<g><path style="opacity:0.024" fill="#d1d1d1" d="M 106.5,59.5 C 106.5,64.8333 106.5,70.1667 106.5,75.5C 104.833,75.5 103.167,75.5 101.5,75.5C 101.5,74.8333 101.5,74.1667 101.5,73.5C 101.833,73.5 102.167,73.5 102.5,73.5C 102.842,74.3382 103.508,74.6716 104.5,74.5C 105.167,69.5 105.833,64.5 106.5,59.5 Z"/></g>
<g><path style="opacity:0.71" fill="#878787" d="M 120.5,56.5 C 119.833,56.5 119.5,56.8333 119.5,57.5C 117.167,57.5 114.833,57.5 112.5,57.5C 112.167,56.1667 111.833,56.1667 111.5,57.5C 109.893,60.778 110.227,63.778 112.5,66.5C 111.833,66.5 111.5,66.8333 111.5,67.5C 110.209,67.2627 109.209,67.596 108.5,68.5C 107.375,67.6522 107.375,66.6522 108.5,65.5C 109.833,64.8333 109.833,64.1667 108.5,63.5C 108.5,62.5 108.5,61.5 108.5,60.5C 109.954,59.4797 110.287,58.313 109.5,57C 112.459,54.6704 115.793,54.0037 119.5,55C 120.056,55.3826 120.389,55.8826 120.5,56.5 Z"/></g>
<g><path style="opacity:0.999" fill="#1b1b1b" d="M 111.5,57.5 C 111.833,57.5 112.167,57.5 112.5,57.5C 114.833,57.5 117.167,57.5 119.5,57.5C 119.833,57.5 120.167,57.5 120.5,57.5C 121.167,57.5 121.5,57.8333 121.5,58.5C 122.167,58.5 122.5,58.8333 122.5,59.5C 122.5,59.8333 122.5,60.1667 122.5,60.5C 121.646,62.9337 120.646,62.767 119.5,60C 117.288,59.2109 115.288,59.3775 113.5,60.5C 113.5,60.8333 113.5,61.1667 113.5,61.5C 112.167,61.8333 112.167,62.1667 113.5,62.5C 113.5,62.8333 113.5,63.1667 113.5,63.5C 114.167,64.8333 114.833,64.8333 115.5,63.5C 115.833,63.5 116.167,63.5 116.5,63.5C 119.074,64.9933 121.074,67.16 122.5,70C 122.333,70.5 122.167,71 122,71.5C 121.313,68.5744 119.48,67.2411 116.5,67.5C 115.432,66.5655 114.099,66.2322 112.5,66.5C 110.227,63.778 109.893,60.778 111.5,57.5 Z"/></g>
<g><path style="opacity:0.004" fill="#259090" d="M 220.5,59.5 C 220.833,59.5 221.167,59.5 221.5,59.5C 221.167,64.8333 220.833,64.8333 220.5,59.5 Z"/></g>
<g><path style="opacity:0.987" fill="#454545" d="M 155.5,55.5 C 157.027,55.427 158.027,56.0937 158.5,57.5C 157.167,57.8333 157.167,58.1667 158.5,58.5C 160.693,61.4182 161.693,64.7515 161.5,68.5C 159.354,74.7772 155.02,76.9439 148.5,75C 146.324,74.8371 144.491,74.0037 143,72.5C 142.617,73.056 142.117,73.3893 141.5,73.5C 141.5,72.8333 141.5,72.1667 141.5,71.5C 142.987,68.0551 144.154,64.3885 145,60.5C 146.397,58.9297 147.897,57.5964 149.5,56.5C 151.735,56.7947 153.735,56.4614 155.5,55.5 Z M 149.5,61.5 C 149.369,62.2389 149.536,62.9056 150,63.5C 153.111,61.728 154.944,62.5613 155.5,66C 155,69.8587 153,71.192 149.5,70C 150.056,70.3826 150.389,70.8826 150.5,71.5C 148.952,71.1788 148.285,70.1788 148.5,68.5C 147.133,65.9882 147.466,63.6548 149.5,61.5 Z"/></g>
<g><path style="opacity:0.012" fill="#6d6d6d" d="M 108.5,63.5 C 108.5,64.1667 108.5,64.8333 108.5,65.5C 107.167,64.8333 107.167,64.1667 108.5,63.5 Z"/></g>
<g><path style="opacity:0.022" fill="#1c1c1c" d="M 141.5,63.5 C 142.833,65.1667 142.833,66.8333 141.5,68.5C 140.737,67.7321 139.737,67.2321 138.5,67C 139.5,66.6667 140.5,66.3333 141.5,66C 140.402,65.2303 140.402,64.397 141.5,63.5 Z"/></g>
<g><path style="opacity:0.008" fill="#b8b8b8" d="M 162.5,68.5 C 162.34,66.8008 162.506,65.1341 163,63.5C 163.78,65.3869 163.613,67.0536 162.5,68.5 Z"/></g>
<g><path style="opacity:0.008" fill="#0000a7" d="M 233.5,66.5 C 233.369,65.7611 233.536,65.0944 234,64.5C 234.692,65.4368 234.525,66.1034 233.5,66.5 Z"/></g>
<g><path style="opacity:0.855" fill="#555555" d="M 113.5,60.5 C 115.288,59.3775 117.288,59.2109 119.5,60C 120.646,62.767 121.646,62.9337 122.5,60.5C 122.833,60.5 123.167,60.5 123.5,60.5C 124.644,64.9326 124.311,69.266 122.5,73.5C 121.778,73.9175 121.278,74.5842 121,75.5C 117.667,75.5 114.333,75.5 111,75.5C 110.722,74.5842 110.222,73.9175 109.5,73.5C 108.699,71.9582 108.366,70.2915 108.5,68.5C 109.791,68.7373 110.791,68.404 111.5,67.5C 112.167,67.5 112.5,67.1667 112.5,66.5C 114.099,66.2322 115.432,66.5655 116.5,67.5C 119.48,67.2411 121.313,68.5744 122,71.5C 122.167,71 122.333,70.5 122.5,70C 121.074,67.16 119.074,64.9933 116.5,63.5C 117.183,62.3559 116.849,62.3559 115.5,63.5C 114.833,64.8333 114.167,64.8333 113.5,63.5C 114.833,63.1667 114.833,62.8333 113.5,62.5C 113.5,62.1667 113.5,61.8333 113.5,61.5C 114.833,61.1667 114.833,60.8333 113.5,60.5 Z M 118.5,64.5 C 119.601,63.4017 120.934,63.235 122.5,64C 121.436,65.5106 120.103,65.6772 118.5,64.5 Z"/></g>
<g><path style="opacity:0.004" fill="#000000" d="M 234.5,67.5 C 235.833,68.1667 235.833,68.1667 234.5,67.5 Z"/></g>
<g><path style="opacity:0.004" fill="#000000" d="M 161.5,68.5 C 161.833,68.5 162.167,68.5 162.5,68.5C 162.167,71.1667 161.833,71.1667 161.5,68.5 Z"/></g>
<g><path style="opacity:0.008" fill="#7e7f7e" d="M 109.5,73.5 C 108.833,74.1667 108.833,74.1667 109.5,73.5 Z"/></g>
<g><path style="opacity:0.012" fill="#545554" d="M 122.5,73.5 C 123.833,74.1667 123.833,74.1667 122.5,73.5 Z"/></g>
<g><path style="opacity:0.004" fill="#000000" d="M 127.5,73.5 C 126.833,74.1667 126.833,74.1667 127.5,73.5 Z"/></g>
<g><path style="opacity:0.004" fill="#000000" d="M 140.5,73.5 C 140.833,73.5 141.167,73.5 141.5,73.5C 141.315,74.1701 140.981,74.1701 140.5,73.5 Z"/></g>
<g><path style="opacity:0.004" fill="#000000" d="M 97.5,74.5 C 98.8333,75.1667 98.8333,75.1667 97.5,74.5 Z"/></g>
<g><path style="opacity:0.667" fill="#68949a" d="M 28.5,61.5 C 28.8333,61.5 29.1667,61.5 29.5,61.5C 26.5737,82.5598 26.9071,103.56 30.5,124.5C 30.1667,124.5 29.8333,124.5 29.5,124.5C 29.7678,122.901 29.4345,121.568 28.5,120.5C 28.7845,118.585 28.4511,116.919 27.5,115.5C 27.8064,112.615 27.4731,109.948 26.5,107.5C 26.1667,66.1667 25.8333,66.1667 25.5,107.5C 24.3407,96.3409 24.1741,85.0076 25,73.5C 25.2784,72.5842 25.7784,71.9175 26.5,71.5C 26.3433,72.8734 26.51,74.2068 27,75.5C 27.4974,72.854 27.6641,70.1873 27.5,67.5C 28.4614,65.7354 28.7947,63.7354 28.5,61.5 Z"/></g>
<g><path style="opacity:0.004" fill="#fefffe" d="M 102.5,77.5 C 103.251,76.4265 104.251,76.2599 105.5,77C 104.552,77.4828 103.552,77.6495 102.5,77.5 Z"/></g>
<g><path style="opacity:0.011" fill="#3d3d3d" d="M 112.5,76.5 C 116.499,76.0912 120.166,76.9246 123.5,79C 118.5,79.6667 113.5,79.6667 108.5,79C 109.858,78.0656 111.192,77.2323 112.5,76.5 Z"/></g>
<g><path style="opacity:0.012" fill="#2d2d2d" d="M 76.5,77.5 C 80.5546,77.1758 84.5546,77.5091 88.5,78.5C 84.2047,79.6609 79.8713,79.8275 75.5,79C 76.056,78.6174 76.3893,78.1174 76.5,77.5 Z"/></g>
<g><path style="opacity:0.013" fill="#373737" d="M 89.5,77.5 C 94.4194,76.7892 99.4194,77.2892 104.5,79C 100.167,79.6667 95.8333,79.6667 91.5,79C 91.8333,78.6667 92.1667,78.3333 92.5,78C 91.552,77.5172 90.552,77.3505 89.5,77.5 Z"/></g>
<g><path style="opacity:0.01" fill="#292929" d="M 131.5,77.5 C 132.097,76.8614 132.93,76.528 134,76.5C 138.008,76.8899 141.841,77.7233 145.5,79C 141.167,79.6667 136.833,79.6667 132.5,79C 133.712,77.8932 133.379,77.3932 131.5,77.5 Z"/></g>
<g><path style="opacity:0.011" fill="#2c2c2c" d="M 156.5,77.5 C 161.032,77.0692 165.365,77.5692 169.5,79C 164.833,79.6667 160.167,79.6667 155.5,79C 156.056,78.6174 156.389,78.1174 156.5,77.5 Z"/></g>
<g><path style="opacity:0.014" fill="#717171" d="M 126.5,77.5 C 127.756,77.4614 128.756,77.9614 129.5,79C 128.167,79.6667 126.833,79.6667 125.5,79C 126.056,78.6174 126.389,78.1174 126.5,77.5 Z"/></g>
<g><path style="opacity:0.012" fill="#6a6a6a" d="M 149.5,76.5 C 151.199,76.3398 152.866,76.5065 154.5,77C 152.332,77.4104 150.999,78.2437 150.5,79.5C 149.833,79.3333 149.167,79.1667 148.5,79C 149.252,78.3292 149.586,77.4959 149.5,76.5 Z"/></g>
<g><path style="opacity:0.012" fill="#979797" d="M 62.5,78.5 C 65.6182,76.9932 68.2849,77.6599 70.5,80.5C 69.8333,80.5 69.5,80.8333 69.5,81.5C 68.8333,81.5 68.5,81.1667 68.5,80.5C 68.1667,79.1667 67.8333,79.1667 67.5,80.5C 65.8333,80.5 64.1667,80.5 62.5,80.5C 62.5,80.1667 62.5,79.8333 62.5,79.5C 67.8333,79.1667 67.8333,78.8333 62.5,78.5 Z"/></g>
<g><path style="opacity:0.008" fill="#575757" d="M 70.5,81.5 C 70.5,81.1667 70.5,80.8333 70.5,80.5C 71.5,80.5 72.5,80.5 73.5,80.5C 73.7373,81.791 73.404,82.791 72.5,83.5C 72.5,82.8333 72.1667,82.5 71.5,82.5C 71.5,81.8333 71.1667,81.5 70.5,81.5 Z"/></g>
<g><path style="opacity:0.004" fill="#000000" d="M 105.5,80.5 C 106.833,81.1667 106.833,81.1667 105.5,80.5 Z"/></g>
<g><path style="opacity:0.661" fill="#404141" d="M 117.5,83.5 C 118.952,82.6981 120.618,82.1981 122.5,82C 118.167,81.3333 113.833,81.3333 109.5,82C 111.382,82.1981 113.048,82.6981 114.5,83.5C 113.674,88.3165 113.174,93.3165 113,98.5C 112.501,93.8452 112.334,89.1785 112.5,84.5C 109.5,84.8333 108.167,83.5 108.5,80.5C 113.5,80.5 118.5,80.5 123.5,80.5C 124.353,100.346 124.353,101.679 123.5,84.5C 122.167,84.5 120.833,84.5 119.5,84.5C 119.666,88.5138 119.499,92.5138 119,96.5C 118.825,91.9805 118.325,87.6472 117.5,83.5 Z"/></g>
<g><path style="opacity:0.999" fill="#2a2b2a" d="M 75.5,80.5 C 79.8333,80.5 84.1667,80.5 88.5,80.5C 85.4521,82.1187 82.1188,83.1187 78.5,83.5C 78.5,84.8333 78.5,86.1667 78.5,87.5C 81.3583,88.166 84.3583,88.8326 87.5,89.5C 84.9135,90.48 82.2469,90.8134 79.5,90.5C 78.6286,95.8059 78.6286,96.1393 79.5,91.5C 79.8333,91.5 80.1667,91.5 80.5,91.5C 82.9686,92.3171 85.6353,92.8171 88.5,93C 85.8333,93.3333 83.1667,93.6667 80.5,94C 83.3647,94.1829 86.0314,94.6829 88.5,95.5C 84.6273,97.4302 80.294,98.0969 75.5,97.5C 75.5,91.8333 75.5,86.1667 75.5,80.5 Z"/></g>
<g><path style="opacity:1" fill="#161616" d="M 92.5,80.5 C 96.9315,80.2307 101.265,80.564 105.5,81.5C 108.121,84.5804 108.121,87.5804 105.5,90.5C 105.5,89.8333 105.167,89.5 104.5,89.5C 103.849,90.0906 103.182,90.7573 102.5,91.5C 99.9159,90.6072 97.2492,90.2739 94.5,90.5C 94.8076,92.924 94.4742,95.2573 93.5,97.5C 92.5046,91.8722 92.1712,86.2055 92.5,80.5 Z M 101.5,84.5 C 100.048,85.3019 98.3817,85.8019 96.5,86C 101.541,87.0076 101.208,87.5076 95.5,87.5C 95.5,86.1667 95.5,84.8333 95.5,83.5C 97.6208,83.3253 99.6208,83.6586 101.5,84.5 Z"/></g>
<g><path style="opacity:0.998" fill="#191919" d="M 117.5,83.5 C 117.5,88.5 117.5,93.5 117.5,98.5C 116.5,98.5 115.5,98.5 114.5,98.5C 114.5,93.5 114.5,88.5 114.5,83.5C 113.048,82.6981 111.382,82.1981 109.5,82C 113.833,81.3333 118.167,81.3333 122.5,82C 120.618,82.1981 118.952,82.6981 117.5,83.5 Z"/></g>
<g><path style="opacity:0.998" fill="#0f0f0f" d="M 133.5,80.5 C 137.5,80.5 141.5,80.5 145.5,80.5C 142.663,82.4023 139.329,83.069 135.5,82.5C 135.5,84.5 135.5,86.5 135.5,88.5C 138.5,88.5 141.5,88.5 144.5,88.5C 144.5,88.8333 144.5,89.1667 144.5,89.5C 141.5,89.5 138.5,89.5 135.5,89.5C 135.813,92.2469 135.48,94.9135 134.5,97.5C 133.505,91.8722 133.171,86.2055 133.5,80.5 Z"/></g>
<g><path style="opacity:0.999" fill="#202020" d="M 156.5,80.5 C 160.5,80.5 164.5,80.5 168.5,80.5C 165.663,82.4023 162.329,83.069 158.5,82.5C 158.5,84.5 158.5,86.5 158.5,88.5C 161.572,88.1826 164.572,88.5159 167.5,89.5C 165.257,90.4742 162.924,90.8076 160.5,90.5C 159.387,91.9464 159.22,93.6131 160,95.5C 162.937,94.1834 165.77,94.1834 168.5,95.5C 164.971,97.4228 160.971,98.0894 156.5,97.5C 156.5,91.8333 156.5,86.1667 156.5,80.5 Z"/></g>
<g><path style="opacity:0.005" fill="#eeeeee" d="M 172.5,81.5 C 172.5,86.8333 172.5,92.1667 172.5,97.5C 170.3,92.0629 170.3,86.7296 172.5,81.5 Z"/></g>
<g><path style="opacity:0.42" fill="#717272" d="M 102.5,83.5 C 101.833,83.5 101.5,83.8333 101.5,84.5C 101.833,84.5 102.167,84.5 102.5,84.5C 102.328,85.4916 102.662,86.1583 103.5,86.5C 101.012,88.3878 98.0122,89.0545 94.5,88.5C 94.5,86.5 94.5,84.5 94.5,82.5C 97.3854,82.1936 100.052,82.5269 102.5,83.5 Z M 101.5,84.5 C 99.6208,83.6586 97.6208,83.3253 95.5,83.5C 95.5,84.8333 95.5,86.1667 95.5,87.5C 101.208,87.5076 101.541,87.0076 96.5,86C 98.3817,85.8019 100.048,85.3019 101.5,84.5 Z"/></g>
<g><path style="opacity:0.202" fill="#bfc1bf" d="M 149.5,80.5 C 150.167,103.167 150.833,103.167 151.5,80.5C 152.49,86.31 152.823,92.31 152.5,98.5C 151.167,98.5 149.833,98.5 148.5,98.5C 148.177,92.31 148.51,86.31 149.5,80.5 Z"/></g>
<g><path style="opacity:0.898" fill="#0e0e0e" d="M 149.5,80.5 C 150.167,80.5 150.833,80.5 151.5,80.5C 150.833,103.167 150.167,103.167 149.5,80.5 Z"/></g>
<g><path style="opacity:0.027" fill="#707070" d="M 153.5,80.5 C 154.653,86.6529 154.82,92.9863 154,99.5C 153.5,93.1754 153.334,86.8421 153.5,80.5 Z"/></g>
<g><path style="opacity:0.999" fill="#373737" d="M 187.5,82.5 C 186.167,83.1667 186.167,83.8333 187.5,84.5C 187.5,85.1667 187.5,85.8333 187.5,86.5C 187.565,89.4715 186.731,92.1382 185,94.5C 184.667,91.1667 184.333,87.8333 184,84.5C 181.959,83.5769 179.792,83.2436 177.5,83.5C 176.167,87.5 176.167,91.5 177.5,95.5C 179.553,95.4021 181.22,96.0687 182.5,97.5C 182.5,97.8333 182.5,98.1667 182.5,98.5C 178.958,98.8128 175.625,98.4794 172.5,97.5C 172.5,92.1667 172.5,86.8333 172.5,81.5C 175.641,80.6787 178.975,80.1787 182.5,80C 179.167,79.6667 175.833,79.3333 172.5,79C 176.052,77.2966 179.718,77.2966 183.5,79C 185.324,79.66 186.657,80.8267 187.5,82.5 Z M 181.5,85.5 C 181.5,88.1667 181.5,90.8333 181.5,93.5C 180.85,93.8039 180.183,94.1373 179.5,94.5C 178.167,91.1667 178.167,87.8333 179.5,84.5C 180.183,84.8627 180.85,85.1961 181.5,85.5 Z"/></g>
<g><path style="opacity:0.28" fill="#b3b2b3" d="M 126.5,80.5 C 127.167,103.167 127.833,103.167 128.5,80.5C 129.49,86.31 129.823,92.31 129.5,98.5C 128.167,98.5 126.833,98.5 125.5,98.5C 125.177,92.31 125.51,86.31 126.5,80.5 Z"/></g>
<g><path style="opacity:0.981" fill="#070707" d="M 126.5,80.5 C 127.167,80.5 127.833,80.5 128.5,80.5C 127.833,103.167 127.167,103.167 126.5,80.5 Z"/></g>
<g><path style="opacity:0.02" fill="#969696" d="M 130.5,80.5 C 131.653,86.3188 131.819,92.3188 131,98.5C 130.501,92.5092 130.334,86.5092 130.5,80.5 Z"/></g>
<g><path style="opacity:0.008" fill="#789d9c" d="M 236.5,75.5 C 237.656,82.9887 237.822,90.6554 237,98.5C 236.5,90.8406 236.334,83.1739 236.5,75.5 Z"/></g>
<g><path style="opacity:0.004" fill="#000000" d="M 143.5,85.5 C 144.833,86.1667 144.833,86.1667 143.5,85.5 Z"/></g>
<g><path style="opacity:0.004" fill="#00fffe" d="M 242.5,86.5 C 241.833,85.1667 241.833,85.1667 242.5,86.5 Z"/></g>
<g><path style="opacity:0.004" fill="#000000" d="M 169.5,86.5 C 170.833,87.1667 170.833,87.1667 169.5,86.5 Z"/></g>
<g><path style="opacity:0.008" fill="#848484" d="M 187.5,82.5 C 188.79,83.0577 189.623,84.0577 190,85.5C 190.796,88.0385 190.629,90.3718 189.5,92.5C 189.795,90.2646 189.461,88.2646 188.5,86.5C 188.672,85.5084 188.338,84.8417 187.5,84.5C 187.5,83.8333 187.5,83.1667 187.5,82.5 Z"/></g>
<g><path style="opacity:0.004" fill="#fefffe" d="M 242.5,86.5 C 243.833,87.1667 243.833,87.1667 242.5,86.5 Z"/></g>
<g><path style="opacity:0.49" fill="#949494" d="M 88.5,80.5 C 89.2389,80.369 89.9056,80.5357 90.5,81C 90.7464,85.8141 90.4131,90.6475 89.5,95.5C 89.6655,91.4862 89.4988,87.4862 89,83.5C 86.5272,84.1197 84.0272,84.7864 81.5,85.5C 81.2907,86.086 80.9574,86.586 80.5,87C 82.8107,86.8446 85.144,86.8446 87.5,87C 88.3802,88.3561 88.7135,89.8561 88.5,91.5C 85.8333,91.5 83.1667,91.5 80.5,91.5C 80.1667,91.5 79.8333,91.5 79.5,91.5C 79.5,91.1667 79.5,90.8333 79.5,90.5C 82.2469,90.8134 84.9135,90.48 87.5,89.5C 84.3583,88.8326 81.3583,88.166 78.5,87.5C 79.8333,86.1667 79.8333,84.8333 78.5,83.5C 82.1188,83.1187 85.4521,82.1187 88.5,80.5 Z"/></g>
<g><path style="opacity:0.419" fill="#717171" d="M 145.5,80.5 C 146.791,81.5417 146.791,82.7083 145.5,84C 142.571,84.7772 139.737,84.6105 137,83.5C 136.333,84.8333 136.333,86.1667 137,87.5C 138.418,85.6368 140.251,85.1368 142.5,86C 141.167,86.3333 139.833,86.6667 138.5,87C 140.708,87.1909 142.708,87.6909 144.5,88.5C 141.5,88.5 138.5,88.5 135.5,88.5C 135.5,86.5 135.5,84.5 135.5,82.5C 139.329,83.069 142.663,82.4023 145.5,80.5 Z"/></g>
<g><path style="opacity:0.007" fill="#000000" d="M 145.5,87.5 C 146.573,88.2506 146.74,89.2506 146,90.5C 145.517,89.552 145.351,88.552 145.5,87.5 Z"/></g>
<g><path style="opacity:0.484" fill="#a0a0a0" d="M 168.5,80.5 C 169.249,81.531 169.915,82.6976 170.5,84C 166.909,84.7886 163.409,84.6219 160,83.5C 159.333,84.8333 159.333,86.1667 160,87.5C 163.013,86.8254 166.18,86.8254 169.5,87.5C 169.5,88.5 169.5,89.5 169.5,90.5C 166.396,91.7752 163.396,91.7752 160.5,90.5C 162.924,90.8076 165.257,90.4742 167.5,89.5C 164.572,88.5159 161.572,88.1826 158.5,88.5C 158.5,86.5 158.5,84.5 158.5,82.5C 162.329,83.069 165.663,82.4023 168.5,80.5 Z"/></g>
<g><path style="opacity:0.004" fill="#000000" d="M 244.5,88.5 C 245.833,89.1667 245.833,89.1667 244.5,88.5 Z"/></g>
<g><path style="opacity:0.004" fill="#000000" d="M 169.5,90.5 C 170.833,91.1667 170.833,91.1667 169.5,90.5 Z"/></g>
<g><path style="opacity:1" fill="#727372" d="M 92.5,80.5 C 92.1712,86.2055 92.5046,91.8722 93.5,97.5C 94.4742,95.2573 94.8076,92.924 94.5,90.5C 97.2492,90.2739 99.9159,90.6072 102.5,91.5C 103.182,90.7573 103.849,90.0906 104.5,89.5C 105.167,89.5 105.5,89.8333 105.5,90.5C 106.371,93.1123 107.037,95.779 107.5,98.5C 105.549,98.7733 104.049,98.1066 103,96.5C 102.667,97.1667 102.333,97.8333 102,98.5C 100.991,96.9751 100.491,95.3084 100.5,93.5C 98.8333,93.5 97.1667,93.5 95.5,93.5C 95.5,95.1667 95.5,96.8333 95.5,98.5C 94.1667,98.5 92.8333,98.5 91.5,98.5C 91.1771,92.31 91.5104,86.31 92.5,80.5 Z"/></g>
<g><path style="opacity:0.11" fill="#52a2a9" d="M 223.5,66.5 C 224.302,67.9516 224.802,69.6183 225,71.5C 225.71,86.5159 225.543,101.516 224.5,116.5C 224.167,116.5 223.833,116.5 223.5,116.5C 224.786,99.8351 224.786,83.1685 223.5,66.5 Z"/></g>
<g><path style="opacity:0.331" fill="#7c7c7c" d="M 133.5,80.5 C 133.171,86.2055 133.505,91.8722 134.5,97.5C 135.48,94.9135 135.813,92.2469 135.5,89.5C 138.5,89.5 141.5,89.5 144.5,89.5C 143.082,91.3079 141.082,91.9746 138.5,91.5C 138.167,91.5 137.833,91.5 137.5,91.5C 136.532,93.6074 136.198,95.9407 136.5,98.5C 135.167,98.5 133.833,98.5 132.5,98.5C 132.177,92.31 132.51,86.31 133.5,80.5 Z"/></g>
<g><path style="opacity:0.008" fill="#555555" d="M 137.5,91.5 C 137.833,91.5 138.167,91.5 138.5,91.5C 140.292,92.3091 142.292,92.8091 144.5,93C 143.333,93.1667 142.167,93.3333 141,93.5C 139.319,93.3917 138.152,92.7251 137.5,91.5 Z"/></g>
<g><path style="opacity:0.004" fill="#c3c3c3" d="M 160.5,93.5 C 163.64,92.3592 166.973,92.1925 170.5,93C 167.183,93.4983 163.85,93.665 160.5,93.5 Z"/></g>
<g><path style="opacity:0.012" fill="#393939" d="M 188.5,92.5 C 188.833,92.5 189.167,92.5 189.5,92.5C 189.672,93.4916 189.338,94.1583 188.5,94.5C 188.5,93.8333 188.5,93.1667 188.5,92.5 Z"/></g>
<g><path style="opacity:1" fill="#437984" d="M 12.5,120.5 C 10.6174,119.05 9.61744,117.05 9.5,114.5C 8.92963,108.128 8.09629,101.795 7,95.5C 4.8515,96.9774 3.51817,98.9774 3,101.5C 2.50038,108.492 2.33371,115.492 2.5,122.5C 2.16667,122.5 1.83333,122.5 1.5,122.5C 0.213593,114.828 0.213593,107.162 1.5,99.5C 4.3255,95.1834 6.49216,90.8501 8,86.5C 10.2056,88.3496 10.7056,90.8496 9.5,94C 9.66667,95.5 9.83333,97 10,98.5C 10.6543,97.3044 11.1543,97.3044 11.5,98.5C 10.8982,100.608 10.5649,102.775 10.5,105C 11.0054,110.197 11.672,115.363 12.5,120.5 Z"/></g>
<g><path style="opacity:0.004" fill="#878787" d="M 56.5,94.5 C 56.5,95.1667 56.8333,95.5 57.5,95.5C 57.44,96.0431 57.1067,96.3764 56.5,96.5C 55.2267,95.7435 55.2267,95.0768 56.5,94.5 Z"/></g>
<g><path style="opacity:1" fill="#5c5c5c" d="M 177.5,83.5 C 179.792,83.2436 181.959,83.5769 184,84.5C 184.333,87.8333 184.667,91.1667 185,94.5C 186.731,92.1382 187.565,89.4715 187.5,86.5C 187.833,86.5 188.167,86.5 188.5,86.5C 188.5,88.5 188.5,90.5 188.5,92.5C 187.662,92.8417 187.328,93.5084 187.5,94.5C 186.833,94.5 186.5,94.8333 186.5,95.5C 185.833,95.5 185.5,95.8333 185.5,96.5C 184.167,96.8333 184.167,97.1667 185.5,97.5C 185.027,98.9063 184.027,99.573 182.5,99.5C 182.5,99.1667 182.5,98.8333 182.5,98.5C 183.833,98.1667 183.833,97.8333 182.5,97.5C 181.22,96.0687 179.553,95.4021 177.5,95.5C 177.5,91.5 177.5,87.5 177.5,83.5 Z M 181.5,85.5 C 181.5,88.1667 181.5,90.8333 181.5,93.5C 180.85,93.8039 180.183,94.1373 179.5,94.5C 178.167,91.1667 178.167,87.8333 179.5,84.5C 180.183,84.8627 180.85,85.1961 181.5,85.5 Z"/></g>
<g><path style="opacity:0.004" fill="#767676" d="M 187.5,94.5 C 187.833,94.5 188.167,94.5 188.5,94.5C 188.5,95.8333 187.833,96.5 186.5,96.5C 186.5,96.1667 186.5,95.8333 186.5,95.5C 187.167,95.5 187.5,95.1667 187.5,94.5 Z"/></g>
<g><path style="opacity:0.99" fill="#424242" d="M 62.5,78.5 C 62.5,78.8333 62.5,79.1667 62.5,79.5C 61.1667,79.8333 61.1667,80.1667 62.5,80.5C 64.1667,80.5 65.8333,80.5 67.5,80.5C 67.8333,80.5 68.1667,80.5 68.5,80.5C 68.5,81.1667 68.8333,81.5 69.5,81.5C 69.8333,81.5 70.1667,81.5 70.5,81.5C 71.1667,81.5 71.5,81.8333 71.5,82.5C 72.1667,82.5 72.5,82.8333 72.5,83.5C 72.5,84.5 72.5,85.5 72.5,86.5C 73.5511,89.3442 73.5511,92.3442 72.5,95.5C 71.8333,95.5 71.5,95.8333 71.5,96.5C 70.8333,96.5 70.5,96.8333 70.5,97.5C 69.1667,97.8333 69.1667,98.1667 70.5,98.5C 67.6336,101.753 64.3003,102.253 60.5,100C 60.7914,98.0421 59.7914,96.5421 57.5,95.5C 56.8333,95.5 56.5,95.1667 56.5,94.5C 55.7007,90.7995 55.3673,87.1328 55.5,83.5C 57.0119,80.6509 59.3452,78.9842 62.5,78.5 Z M 62.5,84.5 C 63.5,83.1667 64.5,83.1667 65.5,84.5C 65.8333,84.5 66.1667,84.5 66.5,84.5C 66.8333,87.1667 67.1667,87.1667 67.5,84.5C 68.7791,85.968 70.4458,86.6347 72.5,86.5C 71.3915,87.29 70.0581,87.79 68.5,88C 73.8333,88.6667 73.8333,89.3333 68.5,90C 73.7937,90.8178 73.7937,91.3178 68.5,91.5C 68.7373,92.791 68.404,93.791 67.5,94.5C 65.8333,93.1667 64.1667,93.1667 62.5,94.5C 62.7618,91.7484 62.7618,88.7484 62.5,85.5C 63.8333,85.1667 63.8333,84.8333 62.5,84.5 Z"/></g>
<g><path style="opacity:0.009" fill="#656565" d="M 61.5,85.5 C 61.8333,85.5 62.1667,85.5 62.5,85.5C 62.7618,88.7484 62.7618,91.7484 62.5,94.5C 62.5,93.8333 62.1667,93.5 61.5,93.5C 61.5,90.8333 61.5,88.1667 61.5,85.5 Z"/></g>
<g><path style="opacity:0.004" fill="#272727" d="M 72.5,95.5 C 73.7574,96.6226 73.4241,97.2893 71.5,97.5C 71.5,97.1667 71.5,96.8333 71.5,96.5C 72.1667,96.5 72.5,96.1667 72.5,95.5 Z"/></g>
<g><path style="opacity:0.004" fill="#fefffe" d="M 108.5,96.5 C 109.525,96.8966 109.692,97.5632 109,98.5C 108.536,97.9056 108.369,97.2389 108.5,96.5 Z"/></g>
<g><path style="opacity:0.012" fill="#a9aaa9" d="M 185.5,96.5 C 185.833,96.5 186.167,96.5 186.5,96.5C 186.315,97.1701 185.981,97.1701 185.5,96.5 Z"/></g>
<g><path style="opacity:0.004" fill="#fefffe" d="M 70.5,97.5 C 70.8333,97.5 71.1667,97.5 71.5,97.5C 71.3147,98.1701 70.9813,98.1701 70.5,97.5 Z"/></g>
<g><path style="opacity:0.472" fill="#757676" d="M 75.5,80.5 C 75.5,86.1667 75.5,91.8333 75.5,97.5C 80.294,98.0969 84.6273,97.4302 88.5,95.5C 88.8333,95.5 89.1667,95.5 89.5,95.5C 89.5,96.5 89.5,97.5 89.5,98.5C 84.5,98.5 79.5,98.5 74.5,98.5C 74.1771,92.31 74.5104,86.31 75.5,80.5 Z"/></g>
<g><path style="opacity:0.475" fill="#707070" d="M 156.5,80.5 C 156.5,86.1667 156.5,91.8333 156.5,97.5C 160.971,98.0894 164.971,97.4228 168.5,95.5C 169.117,95.3893 169.617,95.056 170,94.5C 170.273,96.1012 170.773,97.6012 171.5,99C 170.906,99.4643 170.239,99.631 169.5,99.5C 165.03,98.5139 160.363,98.1805 155.5,98.5C 155.177,92.31 155.51,86.31 156.5,80.5 Z"/></g>
<g><path style="opacity:0.008" fill="#2b2b2b" d="M 1.5,99.5 C 1.16667,99.5 0.833333,99.5 0.5,99.5C 0.833333,96.8333 1.16667,96.8333 1.5,99.5 Z"/></g>
<g><path style="opacity:0.004" fill="#000000" d="M 95.5,98.5 C 96.8333,99.1667 96.8333,99.1667 95.5,98.5 Z"/></g>
<g><path style="opacity:0.008" fill="#7e7f7e" d="M 117.5,98.5 C 118.833,99.1667 118.833,99.1667 117.5,98.5 Z"/></g>
<g><path style="opacity:0.016" fill="#767d7c" d="M 89.5,98.5 C 90.1667,98.5 90.8333,98.5 91.5,98.5C 92.5676,99.4345 93.901,99.7678 95.5,99.5C 89.013,100.654 82.3464,100.821 75.5,100C 80.3514,99.8255 85.0181,99.3255 89.5,98.5 Z"/></g>
<g><path style="opacity:0.02" fill="#7d7d7d" d="M 103.5,100.5 C 104.601,99.4017 105.934,99.235 107.5,100C 106.207,100.49 104.873,100.657 103.5,100.5 Z"/></g>
<g><path style="opacity:0.02" fill="#6b6b6b" d="M 117.5,99.5 C 116.749,100.573 115.749,100.74 114.5,100C 115.448,99.5172 116.448,99.3505 117.5,99.5 Z"/></g>
<g><path style="opacity:0.02" fill="#4f4f4f" d="M 125.5,100.5 C 126.601,99.4017 127.934,99.235 129.5,100C 128.207,100.49 126.873,100.657 125.5,100.5 Z"/></g>
<g><path style="opacity:0.008" fill="#7a7a7a" d="M 132.5,100.5 C 133.601,99.4017 134.934,99.235 136.5,100C 135.207,100.49 133.873,100.657 132.5,100.5 Z"/></g>
<g><path style="opacity:0.02" fill="#687167" d="M 148.5,100.5 C 149.601,99.4017 150.934,99.235 152.5,100C 151.207,100.49 149.873,100.657 148.5,100.5 Z"/></g>
<g><path style="opacity:0.016" fill="#757575" d="M 169.5,99.5 C 165.019,100.648 160.352,100.815 155.5,100C 160.155,99.5008 164.821,99.3342 169.5,99.5 Z"/></g>
<g><path style="opacity:0.016" fill="#797979" d="M 182.5,99.5 C 179.36,100.641 176.027,100.808 172.5,100C 175.817,99.5017 179.15,99.335 182.5,99.5 Z"/></g>
<g><path style="opacity:0.004" fill="#2f5872" d="M 222.5,83.5 C 223.653,89.6529 223.82,95.9863 223,102.5C 222.5,96.1754 222.334,89.8421 222.5,83.5 Z"/></g>
<g><path style="opacity:0.016" fill="#78a5a9" d="M 242.5,87.5 C 242.833,88.5 243.5,89.1667 244.5,89.5C 244.5,90.1667 244.5,90.8333 244.5,91.5C 243.5,91.5 242.5,91.5 241.5,91.5C 240.356,90.8174 240.356,91.1507 241.5,92.5C 241.813,96.0419 241.479,99.3752 240.5,102.5C 239.589,94.6104 239.589,95.6104 240.5,105.5C 240.784,107.415 240.451,109.081 239.5,110.5C 239.657,109.127 239.49,107.793 239,106.5C 238.505,108.473 238.338,110.473 238.5,112.5C 237.549,113.919 237.216,115.585 237.5,117.5C 236.853,116.726 236.52,115.726 236.5,114.5C 237.913,105.892 238.746,97.2255 239,88.5C 239.333,88.8333 239.667,89.1667 240,89.5C 240.417,88.244 241.25,87.5774 242.5,87.5 Z"/></g>
<g><path style="opacity:0.008" fill="#527b7a" d="M -0.5,99.5 C -0.166667,99.5 0.166667,99.5 0.5,99.5C 0.737305,100.791 0.403972,101.791 -0.5,102.5C -0.5,101.5 -0.5,100.5 -0.5,99.5 Z"/></g>
<g><path style="opacity:0.008" fill="#6fbdbd" d="M 251.5,105.5 C 251.167,105.5 250.833,105.5 250.5,105.5C 250.768,103.901 250.434,102.568 249.5,101.5C 249.234,99.6526 249.568,98.986 250.5,99.5C 251.348,101.409 251.682,103.409 251.5,105.5 Z"/></g>
<g><path style="opacity:0.024" fill="#497b7e" d="M 13.5,73.5 C 13.8333,109.5 14.1667,109.5 14.5,73.5C 14.8333,73.5 15.1667,73.5 15.5,73.5C 15.6432,85.5065 15.9765,97.5065 16.5,109.5C 15.4738,113.73 15.4738,114.397 16.5,111.5C 18.4415,115.664 20.1082,119.998 21.5,124.5C 20.7542,125.736 20.4208,127.07 20.5,128.5C 19.3794,126.046 18.546,123.379 18,120.5C 17.79,122.058 17.29,123.391 16.5,124.5C 16.7678,122.901 16.4345,121.568 15.5,120.5C 13.6336,109.069 12.3003,97.5686 11.5,86C 12.0084,81.6653 12.6751,77.4986 13.5,73.5 Z"/></g>
<g><path style="opacity:0.999" fill="#13566b" d="M 29.5,56.5 C 28.5489,57.9187 28.2155,59.5853 28.5,61.5C 27.5386,63.2646 27.2053,65.2646 27.5,67.5C 26.5655,68.5676 26.2322,69.901 26.5,71.5C 25.7784,71.9175 25.2784,72.5842 25,73.5C 24.1741,85.0076 24.3407,96.3409 25.5,107.5C 25.8333,107.5 26.1667,107.5 26.5,107.5C 26.1936,110.385 26.5269,113.052 27.5,115.5C 27.2155,117.415 27.5489,119.081 28.5,120.5C 28.2322,122.099 28.5655,123.432 29.5,124.5C 29.2322,126.099 29.5655,127.432 30.5,128.5C 30.7424,132.479 31.7424,136.146 33.5,139.5C 33.4125,142.598 33.9125,142.932 35,140.5C 35.9704,142.274 36.8037,144.107 37.5,146C 36.6138,148.112 36.6138,150.278 37.5,152.5C 36.9556,154.58 36.1223,156.58 35,158.5C 34.2411,156.937 33.0744,155.937 31.5,155.5C 31.0679,154.29 30.4013,153.29 29.5,152.5C 29.6716,151.508 29.3382,150.842 28.5,150.5C 28.6716,149.508 28.3382,148.842 27.5,148.5C 27.6716,147.508 27.3382,146.842 26.5,146.5C 26.6716,145.508 26.3382,144.842 25.5,144.5C 25.6716,143.508 25.3382,142.842 24.5,142.5C 22.5861,138.004 21.2527,133.337 20.5,128.5C 20.4208,127.07 20.7542,125.736 21.5,124.5C 20.1082,119.998 18.4415,115.664 16.5,111.5C 16.5,110.833 16.5,110.167 16.5,109.5C 15.9765,97.5065 15.6432,85.5065 15.5,73.5C 15.1667,69.5 14.8333,69.5 14.5,73.5C 14.1667,73.5 13.8333,73.5 13.5,73.5C 13.372,71.3453 13.872,69.3453 15,67.5C 15.3333,68.1667 15.6667,68.8333 16,69.5C 18.4541,62.2407 22.6208,56.2407 28.5,51.5C 29.4519,53.0453 29.7852,54.712 29.5,56.5 Z"/></g>
<g><path style="opacity:0.008" fill="#bcbcbc" d="M 219.5,106.5 C 220.573,107.251 220.74,108.251 220,109.5C 219.517,108.552 219.351,107.552 219.5,106.5 Z"/></g>
<g><path style="opacity:0.772" fill="#979797" d="M 217.5,106.5 C 217.5,107.5 217.5,108.5 217.5,109.5C 156.167,109.5 94.8333,109.5 33.5,109.5C 33.5,108.167 33.5,106.833 33.5,105.5C 95.0023,105.168 156.336,105.501 217.5,106.5 Z"/></g>
<g><path style="opacity:0.096" fill="#fdfdfd" d="M 217.5,106.5 C 218.434,107.568 218.768,108.901 218.5,110.5C 156.095,110.833 94.4287,110.5 33.5,109.5C 94.8333,109.5 156.167,109.5 217.5,109.5C 217.5,108.5 217.5,107.5 217.5,106.5 Z"/></g>
<g><path style="opacity:0.008" fill="#c2c1c4" d="M 34.5,112.5 C 95.6653,111.335 156.999,111.168 218.5,112C 157.168,112.5 95.8342,112.667 34.5,112.5 Z"/></g>
<g><path style="opacity:1" fill="#085369" d="M 233.5,66.5 C 234.092,69.1272 234.425,71.7938 234.5,74.5C 234.666,81.8409 234.5,89.1742 234,96.5C 233.667,94.5 233.333,92.5 233,90.5C 231.701,90.9662 230.201,90.9662 228.5,90.5C 228.337,92.8568 228.503,95.1902 229,97.5C 229.333,95.5 229.667,93.5 230,91.5C 230.266,97.6169 231.1,103.617 232.5,109.5C 232.213,115.681 231.046,121.681 229,127.5C 227.887,128.711 226.72,128.711 225.5,127.5C 224.511,123.893 224.177,120.226 224.5,116.5C 225.543,101.516 225.71,86.5159 225,71.5C 224.802,69.6183 224.302,67.9516 223.5,66.5C 222.833,64.1667 222.167,61.8333 221.5,59.5C 221.784,57.5853 221.451,55.9187 220.5,54.5C 220.948,52.5354 221.948,52.2021 223.5,53.5C 227.096,57.7217 230.429,62.055 233.5,66.5 Z"/></g>
<g><path style="opacity:0.004" fill="#000000" d="M 234.5,114.5 C 235.573,115.251 235.74,116.251 235,117.5C 234.517,116.552 234.351,115.552 234.5,114.5 Z"/></g>
<g><path style="opacity:0.007" fill="#000000" d="M 67.5,117.5 C 68.2506,116.427 69.2506,116.26 70.5,117C 69.552,117.483 68.552,117.649 67.5,117.5 Z"/></g>
<g><path style="opacity:0.005" fill="#000000" d="M 100.5,117.5 C 101.251,116.427 102.251,116.26 103.5,117C 102.552,117.483 101.552,117.649 100.5,117.5 Z"/></g>
<g><path style="opacity:0.006" fill="#3b3b3b" d="M 108.5,117.5 C 109.251,116.427 110.251,116.26 111.5,117C 110.552,117.483 109.552,117.649 108.5,117.5 Z"/></g>
<g><path style="opacity:0.004" fill="#565656" d="M 130.5,117.5 C 131.946,116.387 133.613,116.22 135.5,117C 133.866,117.494 132.199,117.66 130.5,117.5 Z"/></g>
<g><path style="opacity:0.004" fill="#000000" d="M 155.5,117.5 C 156.946,116.387 158.613,116.22 160.5,117C 158.866,117.494 157.199,117.66 155.5,117.5 Z"/></g>
<g><path style="opacity:0.004" fill="#3f5737" d="M 181.5,117.5 C 182.946,116.387 184.613,116.22 186.5,117C 184.866,117.494 183.199,117.66 181.5,117.5 Z"/></g>
<g><path style="opacity:0.004" fill="#000000" d="M 181.5,117.5 C 181.5,117.833 181.5,118.167 181.5,118.5C 180.83,118.019 180.83,117.685 181.5,117.5 Z"/></g>
<g><path style="opacity:0.388" fill="#6f6f71" d="M 115.5,121.5 C 109.606,119.347 103.606,119.014 97.5,120.5C 97.9175,119.778 98.5842,119.278 99.5,119C 104.612,118.69 109.612,118.523 114.5,118.5C 114.517,119.394 114.851,120.394 115.5,121.5 Z"/></g>
<g><path style="opacity:0.008" fill="#497c7b" d="M -0.5,118.5 C 0.434475,119.568 0.767809,120.901 0.5,122.5C 0.166667,122.5 -0.166667,122.5 -0.5,122.5C -0.5,121.167 -0.5,119.833 -0.5,118.5 Z"/></g>
<g><path style="opacity:0.994" fill="#272828" d="M 76.5,122.5 C 76.5,123.167 76.8333,123.5 77.5,123.5C 77.5,124.167 77.8333,124.5 78.5,124.5C 78.5,125.167 78.8333,125.5 79.5,125.5C 79.9887,126.995 80.6554,128.329 81.5,129.5C 81.5,130.5 81.5,131.5 81.5,132.5C 79.1432,132.663 76.8098,132.497 74.5,132C 73.7734,130.601 73.2734,129.101 73,127.5C 71.6054,128.815 70.6054,128.481 70,126.5C 68.9505,127.517 67.7839,127.684 66.5,127C 69.1667,126.333 69.1667,125.667 66.5,125C 64.4473,124.675 62.4473,125.009 60.5,126C 61.7932,126.49 63.1266,126.657 64.5,126.5C 62.3432,127.407 60.0098,128.073 57.5,128.5C 57.1667,127.167 56.8333,127.167 56.5,128.5C 55.6618,128.842 55.3284,129.508 55.5,130.5C 54.596,131.209 54.2627,132.209 54.5,133.5C 53.1667,137.167 53.1667,140.833 54.5,144.5C 54.4914,146.308 54.9914,147.975 56,149.5C 56.957,147.291 58.1236,147.457 59.5,150C 63.9924,152.055 68.1591,151.555 72,148.5C 72.3333,148.833 72.6667,149.167 73,149.5C 73.4101,148.099 73.9101,146.766 74.5,145.5C 76.5,145.5 78.5,145.5 80.5,145.5C 80.5,146.5 80.5,147.5 80.5,148.5C 80.5,149.167 80.5,149.833 80.5,150.5C 79.1667,151.167 79.1667,151.833 80.5,152.5C 79.9202,154.749 78.5869,156.415 76.5,157.5C 76.1583,156.662 75.4916,156.328 74.5,156.5C 70.1065,157.746 65.7731,158.746 61.5,159.5C 59.1609,158.363 56.8275,158.196 54.5,159C 53.7114,156.291 52.0447,153.791 49.5,151.5C 49.0679,150.29 48.4013,149.29 47.5,148.5C 47.7373,147.209 47.404,146.209 46.5,145.5C 46.3343,141.154 46.501,136.821 47,132.5C 49.2668,127.428 51.7668,122.928 54.5,119C 56.9141,117.115 59.5808,116.448 62.5,117C 61.5,117.333 60.5,117.667 59.5,118C 63.1667,118.333 66.8333,118.667 70.5,119C 72.8867,119.564 74.8867,120.73 76.5,122.5 Z"/></g>
<g><path style="opacity:0.993" fill="#1b1b1b" d="M 115.5,121.5 C 115.833,121.5 116.167,121.5 116.5,121.5C 116.5,122.167 116.833,122.5 117.5,122.5C 119.891,124.615 121.224,127.281 121.5,130.5C 119.735,131.461 117.735,131.795 115.5,131.5C 115.5,130.833 115.167,130.5 114.5,130.5C 114.672,129.508 114.338,128.842 113.5,128.5C 113.5,128.167 113.5,127.833 113.5,127.5C 110.401,123.76 106.401,122.593 101.5,124C 100.058,124.377 99.0577,125.21 98.5,126.5C 98.5,126.833 98.5,127.167 98.5,127.5C 97.8333,127.5 97.5,127.833 97.5,128.5C 93.7005,135.283 93.5338,142.283 97,149.5C 97.414,149.043 97.914,148.709 98.5,148.5C 100.751,150.026 103.251,151.026 106,151.5C 108.055,150.308 110.055,150.308 112,151.5C 114.459,149.95 115.126,147.95 114,145.5C 114.69,146.738 115.19,146.738 115.5,145.5C 118.082,145.025 120.082,145.692 121.5,147.5C 121.5,148.5 121.5,149.5 121.5,150.5C 120.662,150.842 120.328,151.508 120.5,152.5C 119.833,152.5 119.5,152.833 119.5,153.5C 118.833,153.5 118.5,153.833 118.5,154.5C 117.833,154.833 117.167,155.167 116.5,155.5C 109.138,159.432 101.805,159.432 94.5,155.5C 92.4131,154.415 91.0798,152.749 90.5,150.5C 87.8333,142.833 87.8333,135.167 90.5,127.5C 91.8333,124.167 94.1667,121.833 97.5,120.5C 103.606,119.014 109.606,119.347 115.5,121.5 Z"/></g>
<g><path style="opacity:0.612" fill="#838484" d="M 181.5,118.5 C 183.527,118.338 185.527,118.505 187.5,119C 188.399,120.652 189.399,122.152 190.5,123.5C 190.833,125.5 191.167,127.5 191.5,129.5C 189.994,127.025 188.661,124.358 187.5,121.5C 185.141,120.286 182.808,120.286 180.5,121.5C 180.557,120.391 180.89,119.391 181.5,118.5 Z"/></g>
<g><path style="opacity:0.004" fill="#767676" d="M 116.5,121.5 C 116.56,120.957 116.893,120.624 117.5,120.5C 118.773,121.257 118.773,121.923 117.5,122.5C 116.833,122.5 116.5,122.167 116.5,121.5 Z"/></g>
<g><path style="opacity:0.993" fill="#181818" d="M 155.5,119.5 C 157.167,119.5 158.833,119.5 160.5,119.5C 160.5,132.5 160.5,145.5 160.5,158.5C 158.03,159.878 155.696,159.545 153.5,157.5C 153.167,156.167 152.833,156.167 152.5,157.5C 152.347,154.89 151.014,152.557 148.5,150.5C 148.672,149.508 148.338,148.842 147.5,148.5C 147.672,147.508 147.338,146.842 146.5,146.5C 146.5,145.833 146.167,145.5 145.5,145.5C 145.672,144.508 145.338,143.842 144.5,143.5C 143.719,141.678 142.552,141.011 141,141.5C 141.979,139.721 141.646,138.055 140,136.5C 139.667,137.167 139.333,137.833 139,138.5C 138.667,145.167 138.333,151.833 138,158.5C 137.185,150.254 137.352,142.088 138.5,134C 137.934,133.005 137.267,132.172 136.5,131.5C 135.507,139.984 135.174,148.651 135.5,157.5C 133.833,157.5 132.167,157.5 130.5,157.5C 130.5,145.167 130.5,132.833 130.5,120.5C 132.95,120.298 135.283,120.631 137.5,121.5C 138.315,122.429 139.148,123.429 140,124.5C 141.666,123.66 141.833,124.16 140.5,126C 142.066,128.326 143.732,130.492 145.5,132.5C 145.5,133.167 145.833,133.5 146.5,133.5C 146.5,134.167 146.833,134.5 147.5,134.5C 147.328,135.492 147.662,136.158 148.5,136.5C 149.167,138.167 149.833,139.833 150.5,141.5C 150.427,143.027 151.094,144.027 152.5,144.5C 153.167,144.5 153.5,144.833 153.5,145.5C 153.987,146.473 154.487,147.473 155,148.5C 155.5,138.839 155.666,129.172 155.5,119.5 Z"/></g>
<g><path style="opacity:0.995" fill="#262626" d="M 191.5,129.5 C 192.621,131.741 193.787,134.075 195,136.5C 195.333,135.833 195.667,135.167 196,134.5C 198.094,136.969 198.594,139.636 197.5,142.5C 198.337,145.507 199.67,148.174 201.5,150.5C 201.833,152.5 202.167,154.5 202.5,156.5C 201.082,158.308 199.082,158.975 196.5,158.5C 195.833,157.5 195.167,156.5 194.5,155.5C 194.672,154.508 194.338,153.842 193.5,153.5C 193.509,151.692 193.009,150.025 192,148.5C 191.667,149.167 191.333,149.833 191,150.5C 186.273,148.934 181.773,149.267 177.5,151.5C 177.167,147.5 176.833,147.5 176.5,151.5C 175.662,151.842 175.328,152.508 175.5,153.5C 174.596,154.209 174.263,155.209 174.5,156.5C 173.662,156.842 173.328,157.508 173.5,158.5C 171.283,159.369 168.95,159.702 166.5,159.5C 166.737,158.209 166.404,157.209 165.5,156.5C 165.491,154.692 165.991,153.025 167,151.5C 167.667,154.167 168.333,154.167 169,151.5C 169.849,148.479 170.683,145.479 171.5,142.5C 172.537,141.07 173.204,139.403 173.5,137.5C 174.338,137.158 174.672,136.492 174.5,135.5C 176.677,130.987 178.677,126.32 180.5,121.5C 182.808,120.286 185.141,120.286 187.5,121.5C 188.661,124.358 189.994,127.025 191.5,129.5 Z M 185.5,131.5 C 183.915,130.998 183.415,129.998 184,128.5C 185.039,129.244 185.539,130.244 185.5,131.5 Z M 186.5,136.5 C 186.5,137.5 186.5,138.5 186.5,139.5C 184.585,139.216 182.919,139.549 181.5,140.5C 181.167,140.5 180.833,140.5 180.5,140.5C 181.022,137.432 181.855,134.432 183,131.5C 183.669,133.59 184.836,135.257 186.5,136.5 Z"/></g>
<g><path style="opacity:0.008" fill="#505050" d="M 79.5,125.5 C 78.8333,125.5 78.5,125.167 78.5,124.5C 77.8333,124.5 77.5,124.167 77.5,123.5C 76.8333,123.5 76.5,123.167 76.5,122.5C 76.369,121.761 76.5357,121.094 77,120.5C 78,121.5 79,122.5 80,123.5C 80.6917,124.437 80.525,125.103 79.5,125.5 Z"/></g>
<g><path style="opacity:0.008" fill="#787878" d="M 128.5,119.5 C 128.667,132.504 128.5,145.504 128,158.5C 127.173,145.327 127.34,132.327 128.5,119.5 Z"/></g>
<g><path style="opacity:0.012" fill="#969696" d="M 152.5,144.5 C 151.094,144.027 150.427,143.027 150.5,141.5C 151.117,141.389 151.617,141.056 152,140.5C 152.333,133.5 152.667,126.5 153,119.5C 153.801,127.912 153.634,136.245 152.5,144.5 Z"/></g>
<g><path style="opacity:0.226" fill="#d1d3d3" d="M 155.5,119.5 C 157.265,118.539 159.265,118.205 161.5,118.5C 161.829,132.01 161.496,145.344 160.5,158.5C 160.5,145.5 160.5,132.5 160.5,119.5C 158.833,119.5 157.167,119.5 155.5,119.5 Z"/></g>
<g><path style="opacity:0.004" fill="#f8f8f8" d="M 162.5,119.5 C 163.66,132.327 163.827,145.327 163,158.5C 162.5,145.504 162.333,132.504 162.5,119.5 Z"/></g>
<g><path style="opacity:0.004" fill="#7aa3a2" d="M 233.5,123.5 C 233.443,118.495 234.11,118.328 235.5,123C 235.317,124.684 234.65,124.85 233.5,123.5 Z"/></g>
<g><path style="opacity:0.008" fill="#4e4e4e" d="M 190.5,123.5 C 190.369,122.761 190.536,122.094 191,121.5C 191.692,122.437 191.525,123.103 190.5,123.5 Z"/></g>
<g><path style="opacity:0.012" fill="#668da5" d="M 0.5,122.5 C 0.833333,122.5 1.16667,122.5 1.5,122.5C 1.5,123.833 1.5,125.167 1.5,126.5C 0.565525,125.432 0.232191,124.099 0.5,122.5 Z"/></g>
<g><path style="opacity:0.322" fill="#757575" d="M 113.5,127.5 C 112.833,127.5 112.5,127.833 112.5,128.5C 110.302,128.125 108.302,127.458 106.5,126.5C 110.221,126.207 110.055,125.541 106,124.5C 104.775,124.862 103.609,125.362 102.5,126C 103.167,126.333 103.833,126.667 104.5,127C 102.482,127.505 100.482,128.005 98.5,128.5C 98.5,128.167 98.5,127.833 98.5,127.5C 99.8333,127.167 99.8333,126.833 98.5,126.5C 99.0577,125.21 100.058,124.377 101.5,124C 106.401,122.593 110.401,123.76 113.5,127.5 Z"/></g>
<g><path style="opacity:0.004" fill="#000000" d="M 191.5,124.5 C 192.833,125.167 192.833,125.167 191.5,124.5 Z"/></g>
<g><path style="opacity:0.004" fill="#7fadac" d="M 30.5,124.5 C 31.8333,125.833 31.8333,127.167 30.5,128.5C 30.5,127.167 30.5,125.833 30.5,124.5 Z"/></g>
<g><path style="opacity:0.004" fill="#000000" d="M 64.5,125.5 C 65.8333,126.167 65.8333,126.167 64.5,125.5 Z"/></g>
<g><path style="opacity:0.004" fill="#000000" d="M 106.5,126.5 C 105.833,125.167 105.833,125.167 106.5,126.5 Z"/></g>
<g><path style="opacity:0.004" fill="#549f9e" d="M 232.5,123.5 C 232.833,123.5 233.167,123.5 233.5,123.5C 234.038,125.117 234.371,126.784 234.5,128.5C 233.833,128.167 233.167,127.833 232.5,127.5C 232.5,126.167 232.5,124.833 232.5,123.5 Z"/></g>
<g><path style="opacity:0.012" fill="#4f8383" d="M 1.5,126.5 C 1.83333,126.5 2.16667,126.5 2.5,126.5C 2.5,127.5 2.5,128.5 2.5,129.5C 1.59603,128.791 1.26269,127.791 1.5,126.5 Z"/></g>
<g><path style="opacity:0.016" fill="#5a5a5a" d="M 82.5,129.5 C 82.1667,129.5 81.8333,129.5 81.5,129.5C 81.8333,125.5 82.1667,125.5 82.5,129.5 Z"/></g>
<g><path style="opacity:1" fill="#306978" d="M 234.5,74.5 C 235.959,90.7611 235.292,107.094 232.5,123.5C 231.566,124.568 231.232,125.901 231.5,127.5C 230.262,129.214 229.595,131.214 229.5,133.5C 228.662,133.842 228.328,134.508 228.5,135.5C 227.596,136.209 227.263,137.209 227.5,138.5C 226.662,138.842 226.328,139.508 226.5,140.5C 225.662,140.842 225.328,141.508 225.5,142.5C 224.262,144.214 223.595,146.214 223.5,148.5C 222.094,148.973 221.427,149.973 221.5,151.5C 220.662,151.842 220.328,152.508 220.5,153.5C 219.662,153.842 219.328,154.508 219.5,155.5C 218.833,155.5 218.5,155.833 218.5,156.5C 217.662,156.842 217.328,157.508 217.5,158.5C 216.662,158.842 216.328,159.508 216.5,160.5C 215.833,160.5 215.5,160.833 215.5,161.5C 214.167,162.167 214.167,162.833 215.5,163.5C 213.807,164.853 212.474,166.52 211.5,168.5C 210.833,168.5 210.5,168.833 210.5,169.5C 209.833,169.5 209.5,169.833 209.5,170.5C 208.662,170.842 208.328,171.508 208.5,172.5C 207.833,172.5 207.5,172.833 207.5,173.5C 206.833,173.5 206.5,173.833 206.5,174.5C 205.167,174.833 205.167,175.167 206.5,175.5C 206.672,176.492 206.338,177.158 205.5,177.5C 205.167,176.167 204.833,176.167 204.5,177.5C 203.833,177.5 203.5,177.833 203.5,178.5C 202.833,178.5 202.5,178.833 202.5,179.5C 201.094,179.973 200.427,180.973 200.5,182.5C 199.833,182.5 199.5,182.833 199.5,183.5C 198.833,183.5 198.5,183.833 198.5,184.5C 197.167,184.833 197.167,185.167 198.5,185.5C 197.5,187.167 196.167,188.5 194.5,189.5C 194.167,188.167 193.833,188.167 193.5,189.5C 192.833,189.5 192.5,189.833 192.5,190.5C 191.833,190.5 191.5,190.833 191.5,191.5C 190.833,191.5 190.5,191.833 190.5,192.5C 187.924,194.117 186.924,193.783 187.5,191.5C 188.167,191.5 188.5,191.167 188.5,190.5C 189.167,190.5 189.5,190.167 189.5,189.5C 190.167,189.5 190.5,189.167 190.5,188.5C 191.401,187.71 192.068,186.71 192.5,185.5C 193.167,185.5 193.5,185.167 193.5,184.5C 194.338,184.158 194.672,183.492 194.5,182.5C 195.167,182.5 195.5,182.167 195.5,181.5C 196.167,181.5 196.5,181.167 196.5,180.5C 197.364,179.312 198.364,178.145 199.5,177C 198.151,175.365 198.318,173.865 200,172.5C 200.333,173.167 200.667,173.833 201,174.5C 202.966,170.374 205.132,166.374 207.5,162.5C 207.167,161.833 206.833,161.167 206.5,160.5C 208.114,157.385 209.781,155.052 211.5,153.5C 213.02,151.11 214.02,148.443 214.5,145.5C 215.404,144.791 215.737,143.791 215.5,142.5C 216.338,142.158 216.672,141.492 216.5,140.5C 217.404,139.791 217.737,138.791 217.5,137.5C 218.404,136.791 218.737,135.791 218.5,134.5C 219.404,133.791 219.737,132.791 219.5,131.5C 221.284,126.701 222.618,121.701 223.5,116.5C 223.833,116.5 224.167,116.5 224.5,116.5C 224.177,120.226 224.511,123.893 225.5,127.5C 226.72,128.711 227.887,128.711 229,127.5C 231.046,121.681 232.213,115.681 232.5,109.5C 231.1,103.617 230.266,97.6169 230,91.5C 229.667,93.5 229.333,95.5 229,97.5C 228.503,95.1902 228.337,92.8568 228.5,90.5C 230.201,90.9662 231.701,90.9662 233,90.5C 233.333,92.5 233.667,94.5 234,96.5C 234.5,89.1742 234.666,81.8409 234.5,74.5 Z"/></g>
<g><path style="opacity:0.008" fill="#8893d2" d="M 247.5,126.5 C 247.833,126.5 248.167,126.5 248.5,126.5C 248.167,130.5 247.833,130.5 247.5,126.5 Z"/></g>
<g><path style="opacity:0.004" fill="#000000" d="M 97.5,128.5 C 97.8333,128.5 98.1667,128.5 98.5,128.5C 98.3147,129.17 97.9813,129.17 97.5,128.5 Z"/></g>
<g><path style="opacity:0.008" fill="#535353" d="M 56.5,128.5 C 56.8333,128.5 57.1667,128.5 57.5,128.5C 57.6716,129.492 57.3382,130.158 56.5,130.5C 56.5,129.833 56.5,129.167 56.5,128.5 Z"/></g>
<g><path style="opacity:0.012" fill="#4e4e4e" d="M 88.5,129.5 C 87.6618,129.842 87.3284,130.508 87.5,131.5C 87.1667,131.5 86.8333,131.5 86.5,131.5C 86.3118,129.897 86.8118,128.563 88,127.5C 88.4643,128.094 88.631,128.761 88.5,129.5 Z"/></g>
<g><path style="opacity:0.004" fill="#c2c2c2" d="M 112.5,128.5 C 112.833,128.5 113.167,128.5 113.5,128.5C 113.5,129.167 113.5,129.833 113.5,130.5C 112.662,130.158 112.328,129.492 112.5,128.5 Z"/></g>
<g><path style="opacity:0.01" fill="#474747" d="M 122.5,130.5 C 122.793,126.779 123.459,126.945 124.5,131C 124.333,131.5 124.167,132 124,132.5C 123.722,131.584 123.222,130.918 122.5,130.5 Z"/></g>
<g><path style="opacity:0.004" fill="#2d353d" d="M 231.5,127.5 C 231.833,127.5 232.167,127.5 232.5,127.5C 233.028,128.847 233.195,130.181 233,131.5C 231.812,130.437 231.312,129.103 231.5,127.5 Z"/></g>
<g><path style="opacity:0.004" fill="#1f0f4f" d="M 31.5,129.5 C 32.525,129.897 32.6917,130.563 32,131.5C 31.5357,130.906 31.369,130.239 31.5,129.5 Z"/></g>
<g><path style="opacity:0.012" fill="#878787" d="M 82.5,129.5 C 83.5735,130.251 83.7401,131.251 83,132.5C 82.5172,131.552 82.3505,130.552 82.5,129.5 Z"/></g>
<g><path style="opacity:0.004" fill="#c2c2c2" d="M 55.5,130.5 C 55.8333,130.5 56.1667,130.5 56.5,130.5C 56.1667,133.167 55.8333,133.167 55.5,130.5 Z"/></g>
<g><path style="opacity:0.004" fill="#25a2a2" d="M 113.5,130.5 C 113.833,130.5 114.167,130.5 114.5,130.5C 114.167,133.167 113.833,133.167 113.5,130.5 Z"/></g>
<g><path style="opacity:0.361" fill="#989999" d="M 121.5,130.5 C 121.833,130.5 122.167,130.5 122.5,130.5C 121.848,131.725 120.681,132.392 119,132.5C 117.615,132.486 116.449,132.152 115.5,131.5C 117.735,131.795 119.735,131.461 121.5,130.5 Z"/></g>
<g><path style="opacity:0.145" fill="#757575" d="M 130.5,117.5 C 132.607,118.468 134.941,118.802 137.5,118.5C 137.5,119.5 137.5,120.5 137.5,121.5C 135.283,120.631 132.95,120.298 130.5,120.5C 130.5,132.833 130.5,145.167 130.5,157.5C 132.167,157.5 133.833,157.5 135.5,157.5C 135.174,148.651 135.507,139.984 136.5,131.5C 136.666,140.506 136.5,149.506 136,158.5C 134,159.833 132,159.833 130,158.5C 129.831,145.327 129.331,132.327 128.5,119.5C 128.833,118.5 129.5,117.833 130.5,117.5 Z"/></g>
<g><path style="opacity:0.004" fill="#38b9b8" d="M 2.5,129.5 C 2.83333,129.5 3.16667,129.5 3.5,129.5C 3.26269,130.791 3.59603,131.791 4.5,132.5C 4.5,133.5 4.5,134.5 4.5,135.5C 2.92606,133.898 2.25939,131.898 2.5,129.5 Z"/></g>
<g><path style="opacity:0.008" fill="#737373" d="M 86.5,131.5 C 86.6567,132.873 86.49,134.207 86,135.5C 85.235,133.934 85.4017,132.601 86.5,131.5 Z"/></g>
<g><path style="opacity:0.02" fill="#535353" d="M 147.5,133.5 C 147.167,133.5 146.833,133.5 146.5,133.5C 145.833,133.5 145.5,133.167 145.5,132.5C 146.301,130.207 146.968,130.54 147.5,133.5 Z"/></g>
<g><path style="opacity:0.004" fill="#000000" d="M 54.5,133.5 C 55.8333,134.167 55.8333,134.167 54.5,133.5 Z"/></g>
<g><path style="opacity:0.016" fill="#878787" d="M 74.5,134.5 C 76.6282,133.371 78.9615,133.204 81.5,134C 79.1902,134.497 76.8568,134.663 74.5,134.5 Z"/></g>
<g><path style="opacity:0.016" fill="#7a7a7a" d="M 115.5,134.5 C 117.288,133.378 119.288,133.211 121.5,134C 119.527,134.495 117.527,134.662 115.5,134.5 Z"/></g>
<g><path style="opacity:0.008" fill="#7e7f7e" d="M 147.5,133.5 C 148.833,134.167 148.833,134.167 147.5,133.5 Z"/></g>
<g><path style="opacity:0.016" fill="#444444" d="M 45.5,145.5 C 44.353,141.354 44.1864,137.02 45,132.5C 45.499,136.821 45.6657,141.154 45.5,145.5 Z"/></g>
<g><path style="opacity:0.004" fill="#000000" d="M 148.5,135.5 C 149.833,136.167 149.833,136.167 148.5,135.5 Z"/></g>
<g><path style="opacity:0.012" fill="#565656" d="M 174.5,135.5 C 173.662,135.842 173.328,136.508 173.5,137.5C 172.379,135.911 172.546,134.244 174,132.5C 174.483,133.448 174.649,134.448 174.5,135.5 Z"/></g>
<g><path style="opacity:0.004" fill="#000000" d="M 84.5,136.5 C 85.6129,137.946 85.7796,139.613 85,141.5C 84.5065,139.866 84.3398,138.199 84.5,136.5 Z"/></g>
<g><path style="opacity:0.511" fill="#686868" d="M 90.5,127.5 C 87.8333,135.167 87.8333,142.833 90.5,150.5C 90.1667,150.5 89.8333,150.5 89.5,150.5C 89.6716,149.508 89.3382,148.842 88.5,148.5C 88.6716,147.508 88.3382,146.842 87.5,146.5C 86.1667,141.5 86.1667,136.5 87.5,131.5C 88.3382,131.158 88.6716,130.492 88.5,129.5C 89.1667,128.833 89.8333,128.167 90.5,127.5 Z"/></g>
<g><path style="opacity:0.004" fill="#000000" d="M 95.5,136.5 C 96.6129,137.946 96.7796,139.613 96,141.5C 95.5065,139.866 95.3398,138.199 95.5,136.5 Z"/></g>
<g><path style="opacity:0.231" fill="#bbbfbd" d="M 155.5,119.5 C 155.666,129.172 155.5,138.839 155,148.5C 154.487,147.473 153.987,146.473 153.5,145.5C 154.167,136.833 154.833,128.167 155.5,119.5 Z"/></g>
<g><path style="opacity:0.02" fill="#617b8b" d="M 229.5,133.5 C 230.678,135.338 230.345,137.005 228.5,138.5C 228.5,137.5 228.5,136.5 228.5,135.5C 229.338,135.158 229.672,134.492 229.5,133.5 Z"/></g>
<g><path style="opacity:0.012" fill="#519194" d="M 219.5,131.5 C 218.596,132.209 218.263,133.209 218.5,134.5C 217.596,135.209 217.263,136.209 217.5,137.5C 216.596,138.209 216.263,139.209 216.5,140.5C 215.662,140.842 215.328,141.508 215.5,142.5C 215.167,142.5 214.833,142.5 214.5,142.5C 215.69,137.429 217.19,132.429 219,127.5C 219.49,128.793 219.657,130.127 219.5,131.5 Z"/></g>
<g><path style="opacity:0.004" fill="#25a2a2" d="M 33.5,139.5 C 33.369,138.761 33.5357,138.094 34,137.5C 34.6917,138.437 34.525,139.103 33.5,139.5 Z"/></g>
<g><path style="opacity:0.004" fill="#25a2a2" d="M 244.5,137.5 C 245.525,137.897 245.692,138.563 245,139.5C 244.536,138.906 244.369,138.239 244.5,137.5 Z"/></g>
<g><path style="opacity:0.008" fill="#61d2d2" d="M 227.5,138.5 C 227.833,138.5 228.167,138.5 228.5,138.5C 228.672,139.492 228.338,140.158 227.5,140.5C 227.5,139.833 227.5,139.167 227.5,138.5 Z"/></g>
<g><path style="opacity:0.008" fill="#7a7a7a" d="M 171.5,142.5 C 171.167,142.5 170.833,142.5 170.5,142.5C 170.833,138.5 171.167,138.5 171.5,142.5 Z"/></g>
<g><path style="opacity:0.008" fill="#5e5271" d="M 6.5,140.5 C 6.83333,140.5 7.16667,140.5 7.5,140.5C 7.16667,143.167 6.83333,143.167 6.5,140.5 Z"/></g>
<g><path style="opacity:0.008" fill="#62687f" d="M 226.5,140.5 C 226.833,140.5 227.167,140.5 227.5,140.5C 227.672,141.492 227.338,142.158 226.5,142.5C 226.5,141.833 226.5,141.167 226.5,140.5 Z"/></g>
<g><path style="opacity:0.004" fill="#b6d3d2" d="M 243.5,142.5 C 243.369,141.761 243.536,141.094 244,140.5C 244.692,141.437 244.525,142.103 243.5,142.5 Z"/></g>
<g><path style="opacity:0.004" fill="#000000" d="M 170.5,142.5 C 170.631,143.239 170.464,143.906 170,144.5C 169.308,143.563 169.475,142.897 170.5,142.5 Z"/></g>
<g><path style="opacity:0.004" fill="#000000" d="M 8.5,143.5 C 7.83333,144.167 7.83333,144.167 8.5,143.5 Z"/></g>
<g><path style="opacity:0.008" fill="#7e7f7e" d="M 21.5,143.5 C 22.8333,144.167 22.8333,144.167 21.5,143.5 Z"/></g>
<g><path style="opacity:0.008" fill="#51b5b5" d="M 24.5,142.5 C 24.5,143.167 24.5,143.833 24.5,144.5C 23.1667,143.833 23.1667,143.167 24.5,142.5 Z"/></g>
<g><path style="opacity:0.004" fill="#000000" d="M 54.5,143.5 C 55.8333,144.167 55.8333,144.167 54.5,143.5 Z"/></g>
<g><path style="opacity:0.012" fill="#589167" d="M 214.5,142.5 C 214.5,143.5 214.5,144.5 214.5,145.5C 214.167,145.5 213.833,145.5 213.5,145.5C 213.263,144.209 213.596,143.209 214.5,142.5 Z"/></g>
<g><path style="opacity:0.004" fill="#25a2a2" d="M 225.5,142.5 C 225.833,142.5 226.167,142.5 226.5,142.5C 226.167,145.167 225.833,145.167 225.5,142.5 Z"/></g>
<g><path style="opacity:0.008" fill="#55a2a2" d="M 242.5,142.5 C 242.833,142.5 243.167,142.5 243.5,142.5C 243.672,143.492 243.338,144.158 242.5,144.5C 242.5,143.833 242.5,143.167 242.5,142.5 Z"/></g>
<g><path style="opacity:0.031" fill="#d8d8d8" d="M 81.5,148.5 C 81.1667,148.5 80.8333,148.5 80.5,148.5C 80.5,147.5 80.5,146.5 80.5,145.5C 78.5,145.5 76.5,145.5 74.5,145.5C 74.5,144.5 74.5,143.5 74.5,142.5C 76.5273,142.338 78.5273,142.505 80.5,143C 80.1667,143.333 79.8333,143.667 79.5,144C 81.1066,145.049 81.7733,146.549 81.5,148.5 Z"/></g>
<g><path style="opacity:0.035" fill="#a5a5a5" d="M 122.5,150.5 C 122.737,149.209 122.404,148.209 121.5,147.5C 120.082,145.692 118.082,145.025 115.5,145.5C 115.5,144.5 115.5,143.5 115.5,142.5C 119.158,141.872 121.658,143.206 123,146.5C 123.333,146.167 123.667,145.833 124,145.5C 124.203,147.391 123.703,149.057 122.5,150.5 Z"/></g>
<g><path style="opacity:0.012" fill="#6d6d6d" d="M 144.5,143.5 C 144.5,144.167 144.5,144.833 144.5,145.5C 143.167,144.833 143.167,144.167 144.5,143.5 Z"/></g>
<g><path style="opacity:0.008" fill="#58c9c9" d="M 24.5,144.5 C 24.8333,144.5 25.1667,144.5 25.5,144.5C 25.5,145.167 25.5,145.833 25.5,146.5C 24.6618,146.158 24.3284,145.492 24.5,144.5 Z"/></g>
<g><path style="opacity:0.008" fill="#9d9d9d" d="M 82.5,148.5 C 82.3505,147.448 82.5172,146.448 83,145.5C 83.7401,146.749 83.5735,147.749 82.5,148.5 Z"/></g>
<g><path style="opacity:0.004" fill="#868686" d="M 86.5,146.5 C 85.4017,145.399 85.235,144.066 86,142.5C 86.49,143.793 86.6567,145.127 86.5,146.5 Z"/></g>
<g><path style="opacity:0.004" fill="#000000" d="M 168.5,145.5 C 169.833,146.167 169.833,146.167 168.5,145.5 Z"/></g>
<g><path style="opacity:0.02" fill="#525252" d="M 45.5,145.5 C 45.8333,145.5 46.1667,145.5 46.5,145.5C 46.5,146.5 46.5,147.5 46.5,148.5C 45.596,147.791 45.2627,146.791 45.5,145.5 Z"/></g>
<g><path style="opacity:0.008" fill="#191919" d="M 144.5,145.5 C 144.833,145.5 145.167,145.5 145.5,145.5C 146.167,145.5 146.5,145.833 146.5,146.5C 145.377,147.757 144.711,147.424 144.5,145.5 Z"/></g>
<g><path style="opacity:0.004" fill="#1f4e4e" d="M 213.5,145.5 C 213.631,146.239 213.464,146.906 213,147.5C 212.308,146.563 212.475,145.897 213.5,145.5 Z"/></g>
<g><path style="opacity:0.004" fill="#000000" d="M 8.5,147.5 C 9.83333,148.167 9.83333,148.167 8.5,147.5 Z"/></g>
<g><path style="opacity:0.008" fill="#58cbcb" d="M 25.5,146.5 C 25.8333,146.5 26.1667,146.5 26.5,146.5C 26.5,147.167 26.5,147.833 26.5,148.5C 25.6618,148.158 25.3284,147.492 25.5,146.5 Z"/></g>
<g><path style="opacity:0.02" fill="#4a5f70" d="M 241.5,144.5 C 241.833,144.5 242.167,144.5 242.5,144.5C 242.598,146.553 241.931,148.22 240.5,149.5C 240.5,148.5 240.5,147.5 240.5,146.5C 241.338,146.158 241.672,145.492 241.5,144.5 Z"/></g>
<g><path style="opacity:0.004" fill="#000000" d="M 147.5,148.5 C 146.833,149.167 146.833,149.167 147.5,148.5 Z"/></g>
<g><path style="opacity:0.006" fill="#000000" d="M 201.5,150.5 C 201.369,149.761 201.536,149.094 202,148.5C 202.692,149.437 202.525,150.103 201.5,150.5 Z"/></g>
<g><path style="opacity:0.004" fill="#000000" d="M 211.5,148.5 C 212.833,149.167 212.833,149.167 211.5,148.5 Z"/></g>
<g><path style="opacity:0.004" fill="#000000" d="M 223.5,148.5 C 224.833,149.167 224.833,149.167 223.5,148.5 Z"/></g>
<g><path style="opacity:0.998" fill="#235e6f" d="M 12.5,120.5 C 13.29,119.391 13.79,118.058 14,116.5C 14.21,118.058 14.71,119.391 15.5,120.5C 15.2322,122.099 15.5655,123.432 16.5,124.5C 17.5908,127.349 17.5908,130.182 16.5,133C 18.6678,140.22 21.3345,146.387 24.5,151.5C 23.1667,152.167 23.1667,152.833 24.5,153.5C 24.3284,154.492 24.6618,155.158 25.5,155.5C 25.3284,156.492 25.6618,157.158 26.5,157.5C 26.3284,158.492 26.6618,159.158 27.5,159.5C 27.5,160.167 27.8333,160.5 28.5,160.5C 28.6596,162.153 29.3263,163.486 30.5,164.5C 30.7548,167.879 32.2548,169.546 35,169.5C 35,170.833 35,172.167 35,173.5C 37.6667,176.833 40.3333,180.167 43,183.5C 44.6665,182.66 44.8331,183.16 43.5,185C 44.7051,186.376 46.0384,187.542 47.5,188.5C 47.5,189.167 47.8333,189.5 48.5,189.5C 50.5,192.167 52.8333,194.5 55.5,196.5C 55.5,197.167 55.8333,197.5 56.5,197.5C 57.1667,198.833 58.1667,199.833 59.5,200.5C 59.5,201.167 59.8333,201.5 60.5,201.5C 61.2905,202.401 62.2905,203.068 63.5,203.5C 64.5477,205.933 65.2144,205.933 65.5,203.5C 67.1376,204.657 68.8043,205.824 70.5,207C 69.1667,207.667 69.1667,208.333 70.5,209C 72.0548,210.646 73.7215,210.979 75.5,210C 75.1667,210.333 74.8333,210.667 74.5,211C 76.9042,211.508 77.5709,212.675 76.5,214.5C 74.1889,213.786 72.0223,212.786 70,211.5C 69.6667,212.167 69.3333,212.833 69,213.5C 66.0788,211.288 62.9121,209.455 59.5,208C 57.5011,205.334 55.0011,202.834 52,200.5C 51.6667,201.167 51.3333,201.833 51,202.5C 50.0975,201.299 48.9308,200.465 47.5,200C 46.4287,196.85 44.262,194.017 41,191.5C 40.2825,192.451 39.4491,192.617 38.5,192C 36.3369,187.945 33.3369,184.111 29.5,180.5C 29.1667,179.167 28.8333,179.167 28.5,180.5C 28.3468,177.89 27.0135,175.557 24.5,173.5C 24.5,172.833 24.1667,172.5 23.5,172.5C 22.9744,170.77 21.9744,169.436 20.5,168.5C 17.9733,166.118 16.6399,163.452 16.5,160.5C 16.6716,159.508 16.3382,158.842 15.5,158.5C 15.5,157.833 15.1667,157.5 14.5,157.5C 14.6716,156.508 14.3382,155.842 13.5,155.5C 13.6716,154.508 13.3382,153.842 12.5,153.5C 12.6716,152.508 12.3382,151.842 11.5,151.5C 11.0198,148.557 10.0198,145.89 8.5,143.5C 8.73731,142.209 8.40397,141.209 7.5,140.5C 7.16667,137.833 6.83333,137.833 6.5,140.5C 5.06873,139.22 4.40206,137.553 4.5,135.5C 5.83333,134.5 5.83333,133.5 4.5,132.5C 4.73731,131.209 4.40397,130.209 3.5,129.5C 3.73731,128.209 3.40397,127.209 2.5,126.5C 2.5,125.167 2.5,123.833 2.5,122.5C 2.33371,115.492 2.50038,108.492 3,101.5C 3.51817,98.9774 4.8515,96.9774 7,95.5C 8.09629,101.795 8.92963,108.128 9.5,114.5C 9.61744,117.05 10.6174,119.05 12.5,120.5 Z M 63.5,203.5 C 64.1667,203.5 64.8333,203.5 65.5,203.5C 65.2144,205.933 64.5477,205.933 63.5,203.5 Z"/></g>
<g><path style="opacity:0.004" fill="#b6d3d2" d="M 26.5,148.5 C 26.8333,148.5 27.1667,148.5 27.5,148.5C 27.5,149.167 27.5,149.833 27.5,150.5C 26.6618,150.158 26.3284,149.492 26.5,148.5 Z"/></g>
<g><path style="opacity:0.008" fill="#616161" d="M 46.5,148.5 C 46.8333,148.5 47.1667,148.5 47.5,148.5C 47.1667,151.167 46.8333,151.167 46.5,148.5 Z"/></g>
<g><path style="opacity:0.016" fill="#404040" d="M 86.5,146.5 C 86.8333,146.5 87.1667,146.5 87.5,146.5C 87.3284,147.492 87.6618,148.158 88.5,148.5C 88.5,149.167 88.5,149.833 88.5,150.5C 86.8958,149.713 86.2291,148.38 86.5,146.5 Z"/></g>
<g><path style="opacity:0.004" fill="#1f4e4e" d="M 10.5,151.5 C 9.47498,151.103 9.30831,150.437 10,149.5C 10.4643,150.094 10.631,150.761 10.5,151.5 Z"/></g>
<g><path style="opacity:0.012" fill="#55aaa9" d="M 27.5,150.5 C 27.8333,150.5 28.1667,150.5 28.5,150.5C 28.3147,151.17 27.9813,151.17 27.5,150.5 Z"/></g>
<g><path style="opacity:0.016" fill="#696982" d="M 40.5,156.5 C 40.6716,155.508 40.3382,154.842 39.5,154.5C 39.6716,153.508 39.3382,152.842 38.5,152.5C 38.2342,150.653 38.5675,149.986 39.5,150.5C 41.2034,152.507 41.5367,154.507 40.5,156.5 Z"/></g>
<g><path style="opacity:0.004" fill="#000000" d="M 148.5,150.5 C 147.833,151.167 147.833,151.167 148.5,150.5 Z"/></g>
<g><path style="opacity:0.008" fill="#007f7e" d="M 222.5,150.5 C 223.833,151.167 223.833,151.167 222.5,150.5 Z"/></g>
<g><path style="opacity:0.008" fill="#6677db" d="M 239.5,149.5 C 239.833,149.5 240.167,149.5 240.5,149.5C 240.672,150.492 240.338,151.158 239.5,151.5C 239.5,150.833 239.5,150.167 239.5,149.5 Z"/></g>
<g><path style="opacity:0.016" fill="#404040" d="M 81.5,148.5 C 81.8333,148.5 82.1667,148.5 82.5,148.5C 82.7709,150.38 82.1042,151.713 80.5,152.5C 80.5,151.833 80.5,151.167 80.5,150.5C 81.3382,150.158 81.6716,149.492 81.5,148.5 Z"/></g>
<g><path style="opacity:0.008" fill="#535353" d="M 88.5,150.5 C 88.8333,150.5 89.1667,150.5 89.5,150.5C 89.1667,153.167 88.8333,153.167 88.5,150.5 Z"/></g>
<g><path style="opacity:0.004" fill="#b5b5b5" d="M 121.5,150.5 C 121.833,150.5 122.167,150.5 122.5,150.5C 122.672,151.492 122.338,152.158 121.5,152.5C 121.5,151.833 121.5,151.167 121.5,150.5 Z"/></g>
<g><path style="opacity:0.006" fill="#000000" d="M 192.5,153.5 C 191.475,153.103 191.308,152.437 192,151.5C 192.464,152.094 192.631,152.761 192.5,153.5 Z"/></g>
<g><path style="opacity:0.004" fill="#000000" d="M 202.5,151.5 C 203.833,152.167 203.833,152.167 202.5,151.5 Z"/></g>
<g><path style="opacity:0.012" fill="#5d6565" d="M 226.5,151.5 C 225.662,151.842 225.328,152.508 225.5,153.5C 225.167,153.5 224.833,153.5 224.5,153.5C 224.491,151.692 224.991,150.025 226,148.5C 226.483,149.448 226.649,150.448 226.5,151.5 Z"/></g>
<g><path style="opacity:1" fill="#215e6f" d="M 241.5,91.5 C 242.5,91.5 243.5,91.5 244.5,91.5C 246.167,94.8333 247.833,98.1667 249.5,101.5C 249.334,107.176 249.501,112.843 250,118.5C 250.499,114.179 250.666,109.846 250.5,105.5C 250.833,105.5 251.167,105.5 251.5,105.5C 251.286,107.144 251.62,108.644 252.5,110C 251.997,115.782 250.664,121.282 248.5,126.5C 248.167,122.5 247.833,122.5 247.5,126.5C 246.055,129.937 245.055,133.603 244.5,137.5C 243.069,138.78 242.402,140.447 242.5,142.5C 241.662,142.842 241.328,143.508 241.5,144.5C 240.662,144.842 240.328,145.508 240.5,146.5C 239.596,147.209 239.263,148.209 239.5,149.5C 238.167,150.167 238.167,150.833 239.5,151.5C 239.291,152.922 238.791,154.255 238,155.5C 235.105,156.791 233.272,159.458 232.5,163.5C 231.662,163.842 231.328,164.508 231.5,165.5C 230.833,165.5 230.5,165.833 230.5,166.5C 229.662,166.842 229.328,167.508 229.5,168.5C 228.167,168.833 228.167,169.167 229.5,169.5C 229.573,171.027 228.906,172.027 227.5,172.5C 227.167,171.167 226.833,171.167 226.5,172.5C 225.833,172.5 225.5,172.833 225.5,173.5C 224.662,173.842 224.328,174.508 224.5,175.5C 223.662,175.842 223.328,176.508 223.5,177.5C 222.833,177.5 222.5,177.833 222.5,178.5C 221.833,178.5 221.5,178.833 221.5,179.5C 220.833,179.5 220.5,179.833 220.5,180.5C 219.833,180.5 219.5,180.833 219.5,181.5C 218.167,181.833 218.167,182.167 219.5,182.5C 218.92,184.749 217.587,186.415 215.5,187.5C 215.167,186.167 214.833,186.167 214.5,187.5C 213.833,187.5 213.5,187.833 213.5,188.5C 212.833,188.5 212.5,188.833 212.5,189.5C 211.833,189.5 211.5,189.833 211.5,190.5C 210.508,190.328 209.842,190.662 209.5,191.5C 208.833,191.5 208.5,191.833 208.5,192.5C 207.833,192.5 207.5,192.833 207.5,193.5C 206.833,193.5 206.5,193.833 206.5,194.5C 205.167,194.833 205.167,195.167 206.5,195.5C 205.415,197.587 203.749,198.92 201.5,199.5C 201.167,198.167 200.833,198.167 200.5,199.5C 199.167,199.833 199.167,200.167 200.5,200.5C 200.027,201.906 199.027,202.573 197.5,202.5C 197.5,202.167 197.5,201.833 197.5,201.5C 198.833,201.167 198.833,200.833 197.5,200.5C 196.133,201.853 195.133,201.519 194.5,199.5C 195.982,197.517 197.649,195.684 199.5,194C 197.934,193.7 196.601,194.2 195.5,195.5C 195.738,193.522 197.071,191.855 199.5,190.5C 199.833,193.167 200.167,193.167 200.5,190.5C 201.167,190.5 201.5,190.167 201.5,189.5C 202.833,189.167 202.833,188.833 201.5,188.5C 201.369,187.761 201.536,187.094 202,186.5C 204.366,183.554 206.866,181.554 209.5,180.5C 210.167,180.5 210.5,180.167 210.5,179.5C 212.153,176.869 213.819,174.203 215.5,171.5C 216.167,171.5 216.5,171.167 216.5,170.5C 217.338,170.158 217.672,169.492 217.5,168.5C 218.167,168.5 218.5,168.167 218.5,167.5C 220.351,166.134 220.684,164.467 219.5,162.5C 220.035,160.729 220.869,160.396 222,161.5C 223.454,158.929 224.62,156.262 225.5,153.5C 226.338,153.158 226.672,152.492 226.5,151.5C 227.339,150.359 228.006,149.026 228.5,147.5C 227.406,144.636 227.906,141.969 230,139.5C 230.667,142.167 231.333,142.167 232,139.5C 233.31,135.93 234.143,132.263 234.5,128.5C 236.258,125.146 237.258,121.479 237.5,117.5C 238.451,116.081 238.784,114.415 238.5,112.5C 239.338,112.158 239.672,111.492 239.5,110.5C 240.451,109.081 240.784,107.415 240.5,105.5C 240.5,104.5 240.5,103.5 240.5,102.5C 241.479,99.3752 241.813,96.0419 241.5,92.5C 241.5,92.1667 241.5,91.8333 241.5,91.5 Z"/></g>
<g><path style="opacity:0.004" fill="#b6d3d2" d="M 10.5,151.5 C 10.8333,151.5 11.1667,151.5 11.5,151.5C 11.5,152.167 11.5,152.833 11.5,153.5C 10.6618,153.158 10.3284,152.492 10.5,151.5 Z"/></g>
<g><path style="opacity:0.004" fill="#00fffe" d="M 29.5,152.5 C 28.8333,153.167 28.8333,153.167 29.5,152.5 Z"/></g>
<g><path style="opacity:0.004" fill="#a2a2a2" d="M 49.5,151.5 C 49.631,152.239 49.4643,152.906 49,153.5C 48.3083,152.563 48.475,151.897 49.5,151.5 Z"/></g>
<g><path style="opacity:0.012" fill="#545554" d="M 120.5,152.5 C 120.833,152.5 121.167,152.5 121.5,152.5C 121.315,153.17 120.981,153.17 120.5,152.5 Z"/></g>
<g><path style="opacity:0.004" fill="#000000" d="M 148.5,152.5 C 149.833,153.167 149.833,153.167 148.5,152.5 Z"/></g>
<g><path style="opacity:0.004" fill="#a2a2a2" d="M 211.5,153.5 C 210.475,153.103 210.308,152.437 211,151.5C 211.464,152.094 211.631,152.761 211.5,153.5 Z"/></g>
<g><path style="opacity:0.012" fill="#1a6e6d" d="M 221.5,151.5 C 221.833,151.5 222.167,151.5 222.5,151.5C 222.672,152.492 222.338,153.158 221.5,153.5C 221.5,152.833 221.5,152.167 221.5,151.5 Z"/></g>
<g><path style="opacity:0.02" fill="#656665" d="M 119.5,153.5 C 119.833,153.5 120.167,153.5 120.5,153.5C 120.315,154.17 119.981,154.17 119.5,153.5 Z"/></g>
<g><path style="opacity:0.008" fill="#007f7e" d="M 224.5,153.5 C 223.833,154.167 223.833,154.167 224.5,153.5 Z"/></g>
<g><path style="opacity:0.004" fill="#aec3c2" d="M 11.5,153.5 C 11.8333,153.5 12.1667,153.5 12.5,153.5C 12.5,154.167 12.5,154.833 12.5,155.5C 11.6618,155.158 11.3284,154.492 11.5,153.5 Z"/></g>
<g><path style="opacity:0.012" fill="#000000" d="M 118.5,154.5 C 118.833,154.5 119.167,154.5 119.5,154.5C 119.315,155.17 118.981,155.17 118.5,154.5 Z"/></g>
<g><path style="opacity:0.02" fill="#545454" d="M 176.5,151.5 C 176.833,151.5 177.167,151.5 177.5,151.5C 177.598,153.553 176.931,155.22 175.5,156.5C 175.5,155.5 175.5,154.5 175.5,153.5C 176.338,153.158 176.672,152.492 176.5,151.5 Z"/></g>
<g><path style="opacity:0.008" fill="#535353" d="M 192.5,153.5 C 192.833,153.5 193.167,153.5 193.5,153.5C 193.5,154.167 193.5,154.833 193.5,155.5C 192.662,155.158 192.328,154.492 192.5,153.5 Z"/></g>
<g><path style="opacity:0.008" fill="#535353" d="M 220.5,153.5 C 220.833,153.5 221.167,153.5 221.5,153.5C 221.672,154.492 221.338,155.158 220.5,155.5C 220.5,154.833 220.5,154.167 220.5,153.5 Z"/></g>
<g><path style="opacity:0.02" fill="#5c867f" d="M 24.5,151.5 C 26.642,153.765 28.3087,156.432 29.5,159.5C 29.3764,160.107 29.0431,160.44 28.5,160.5C 27.8333,160.5 27.5,160.167 27.5,159.5C 27.6716,158.508 27.3382,157.842 26.5,157.5C 26.6716,156.508 26.3382,155.842 25.5,155.5C 25.6716,154.508 25.3382,153.842 24.5,153.5C 24.5,152.833 24.5,152.167 24.5,151.5 Z"/></g>
<g><path style="opacity:0.004" fill="#00fffe" d="M 222.5,155.5 C 223.833,156.167 223.833,156.167 222.5,155.5 Z"/></g>
<g><path style="opacity:0.004" fill="#bed2d2" d="M 12.5,155.5 C 12.8333,155.5 13.1667,155.5 13.5,155.5C 13.5,156.167 13.5,156.833 13.5,157.5C 12.6618,157.158 12.3284,156.492 12.5,155.5 Z"/></g>
<g><path style="opacity:0.007" fill="#303030" d="M 116.5,156.5 C 118.793,157.301 118.46,157.968 115.5,158.5C 115.5,158.167 115.5,157.833 115.5,157.5C 116.167,157.5 116.5,157.167 116.5,156.5 Z"/></g>
<g><path style="opacity:0.012" fill="#a9aaa9" d="M 165.5,156.5 C 165.631,157.239 165.464,157.906 165,158.5C 164.308,157.563 164.475,156.897 165.5,156.5 Z"/></g>
<g><path style="opacity:0.016" fill="#5a5a5a" d="M 193.5,155.5 C 193.833,155.5 194.167,155.5 194.5,155.5C 194.167,159.5 193.833,159.5 193.5,155.5 Z"/></g>
<g><path style="opacity:0.008" fill="#535353" d="M 74.5,158.5 C 74.5,158.167 74.5,157.833 74.5,157.5C 75.1667,157.5 75.8333,157.5 76.5,157.5C 76.1583,158.338 75.4916,158.672 74.5,158.5 Z"/></g>
<g><path style="opacity:0.012" fill="#000000" d="M 152.5,157.5 C 152.833,157.5 153.167,157.5 153.5,157.5C 153.315,158.17 152.981,158.17 152.5,157.5 Z"/></g>
<g><path style="opacity:0.008" fill="#535353" d="M 174.5,156.5 C 174.833,156.5 175.167,156.5 175.5,156.5C 175.672,157.492 175.338,158.158 174.5,158.5C 174.5,157.833 174.5,157.167 174.5,156.5 Z"/></g>
<g><path style="opacity:0.008" fill="#535353" d="M 204.5,156.5 C 205.525,156.897 205.692,157.563 205,158.5C 204.536,157.906 204.369,157.239 204.5,156.5 Z"/></g>
<g><path style="opacity:0.016" fill="#747b7b" d="M 219.5,155.5 C 219.833,155.5 220.167,155.5 220.5,155.5C 220.573,157.027 219.906,158.027 218.5,158.5C 218.5,157.833 218.5,157.167 218.5,156.5C 219.167,156.5 219.5,156.167 219.5,155.5 Z"/></g>
<g><path style="opacity:0.314" fill="#8c8d8c" d="M 74.5,156.5 C 74.5,156.833 74.5,157.167 74.5,157.5C 73.8333,157.5 73.5,157.833 73.5,158.5C 69.5483,159.272 65.5483,159.605 61.5,159.5C 65.7731,158.746 70.1065,157.746 74.5,156.5 Z"/></g>
<g><path style="opacity:0.008" fill="#000000" d="M 73.5,158.5 C 73.8333,158.5 74.1667,158.5 74.5,158.5C 74.3147,159.17 73.9813,159.17 73.5,158.5 Z"/></g>
<g><path style="opacity:0.008" fill="#4e4e4e" d="M 97.5,158.5 C 97.1034,159.525 96.4368,159.692 95.5,159C 96.0944,158.536 96.7611,158.369 97.5,158.5 Z"/></g>
<g><path style="opacity:0.255" fill="#828585" d="M 94.5,155.5 C 101.805,159.432 109.138,159.432 116.5,155.5C 116.5,155.833 116.5,156.167 116.5,156.5C 115.833,156.5 115.5,156.833 115.5,157.5C 114.833,157.5 114.5,157.833 114.5,158.5C 113.209,158.263 112.209,158.596 111.5,159.5C 107.5,159.5 103.5,159.5 99.5,159.5C 99.1583,158.662 98.4916,158.328 97.5,158.5C 96.3065,157.728 95.3065,156.728 94.5,155.5 Z"/></g>
<g><path style="opacity:0.004" fill="#fefffe" d="M 114.5,158.5 C 114.833,158.5 115.167,158.5 115.5,158.5C 115.315,159.17 114.981,159.17 114.5,158.5 Z"/></g>
<g><path style="opacity:0.004" fill="#000000" d="M 173.5,158.5 C 173.833,158.5 174.167,158.5 174.5,158.5C 174.315,159.17 173.981,159.17 173.5,158.5 Z"/></g>
<g><path style="opacity:0.01" fill="#f4f4f4" d="M 202.5,156.5 C 203.404,157.209 203.737,158.209 203.5,159.5C 200.941,159.802 198.607,159.468 196.5,158.5C 199.082,158.975 201.082,158.308 202.5,156.5 Z"/></g>
<g><path style="opacity:0.016" fill="#6c8a8e" d="M 13.5,157.5 C 13.8333,157.5 14.1667,157.5 14.5,157.5C 15.1667,157.5 15.5,157.833 15.5,158.5C 15.3284,159.492 15.6618,160.158 16.5,160.5C 16.631,161.239 16.4643,161.906 16,162.5C 14.6283,161.09 13.795,159.423 13.5,157.5 Z"/></g>
<g><path style="opacity:0.012" fill="#393939" d="M 42.5,160.5 C 42.369,159.761 42.5357,159.094 43,158.5C 43.6917,159.437 43.525,160.103 42.5,160.5 Z"/></g>
<g><path style="opacity:0.004" fill="#000000" d="M 57.5,159.5 C 58.8333,160.167 58.8333,160.167 57.5,159.5 Z"/></g>
<g><path style="opacity:0.004" fill="#000000" d="M 71.5,159.5 C 72.8333,160.167 72.8333,160.167 71.5,159.5 Z"/></g>
<g><path style="opacity:0.004" fill="#000000" d="M 99.5,159.5 C 98.8333,160.167 98.8333,160.167 99.5,159.5 Z"/></g>
<g><path style="opacity:0.004" fill="#000000" d="M 111.5,159.5 C 112.239,159.369 112.906,159.536 113.5,160C 112.563,160.692 111.897,160.525 111.5,159.5 Z"/></g>
<g><path style="opacity:0.008" fill="#5b6c6c" d="M 217.5,158.5 C 217.833,158.5 218.167,158.5 218.5,158.5C 218.672,159.492 218.338,160.158 217.5,160.5C 217.5,159.833 217.5,159.167 217.5,158.5 Z"/></g>
<g><path style="opacity:0.004" fill="#a2a2a2" d="M 33.5,159.5 C 33.631,160.239 33.4643,160.906 33,161.5C 32.3083,160.563 32.475,159.897 33.5,159.5 Z"/></g>
<g><path style="opacity:0.012" fill="#55aaa9" d="M 216.5,160.5 C 216.833,160.5 217.167,160.5 217.5,160.5C 217.315,161.17 216.981,161.17 216.5,160.5 Z"/></g>
<g><path style="opacity:0.004" fill="#000000" d="M 234.5,160.5 C 235.833,161.167 235.833,161.167 234.5,160.5 Z"/></g>
<g><path style="opacity:0.008" fill="#7e7f7e" d="M 43.5,161.5 C 44.8333,162.167 44.8333,162.167 43.5,161.5 Z"/></g>
<g><path style="opacity:0.004" fill="#aec3c2" d="M 215.5,161.5 C 215.833,161.5 216.167,161.5 216.5,161.5C 216.672,162.492 216.338,163.158 215.5,163.5C 215.5,162.833 215.5,162.167 215.5,161.5 Z"/></g>
<g><path style="opacity:0.004" fill="#00fffe" d="M 233.5,162.5 C 234.833,163.167 234.833,163.167 233.5,162.5 Z"/></g>
<g><path style="opacity:0.004" fill="#1f4e4e" d="M 31.5,164.5 C 31.1667,164.5 30.8333,164.5 30.5,164.5C 30.8333,161.833 31.1667,161.833 31.5,164.5 Z"/></g>
<g><path style="opacity:0.99" fill="#386b77" d="M 37.5,152.5 C 37.8333,152.5 38.1667,152.5 38.5,152.5C 38.3284,153.492 38.6618,154.158 39.5,154.5C 39.3284,155.492 39.6618,156.158 40.5,156.5C 40.6596,158.153 41.3263,159.486 42.5,160.5C 42.3689,163.329 43.3689,164.662 45.5,164.5C 44.5396,165.812 44.7063,167.146 46,168.5C 46.3333,167.833 46.6667,167.167 47,166.5C 48.3717,167.91 49.205,169.577 49.5,171.5C 48.1667,172.167 48.1667,172.833 49.5,173.5C 49.5,174.167 49.8333,174.5 50.5,174.5C 51.3403,176.853 52.6736,178.853 54.5,180.5C 54.3284,181.492 54.6618,182.158 55.5,182.5C 56.0783,184.443 57.0783,184.777 58.5,183.5C 60.6049,185.592 62.2716,187.925 63.5,190.5C 62.1667,190.833 62.1667,191.167 63.5,191.5C 62.7387,192.391 61.7387,193.058 60.5,193.5C 60.9839,192.219 60.3173,191.219 58.5,190.5C 58.5,189.833 58.1667,189.5 57.5,189.5C 57.5,188.833 57.1667,188.5 56.5,188.5C 56.5,187.833 56.1667,187.5 55.5,187.5C 53.8036,185.475 52.137,183.475 50.5,181.5C 50.5,180.833 50.1667,180.5 49.5,180.5C 49.5,179.833 49.1667,179.5 48.5,179.5C 48.5,178.833 48.1667,178.5 47.5,178.5C 47.5,177.833 47.1667,177.5 46.5,177.5C 44.4884,174.795 42.4884,172.128 40.5,169.5C 39.719,167.678 38.5523,167.011 37,167.5C 35.1023,164.814 33.9356,162.147 33.5,159.5C 32.8333,158.167 32.1667,156.833 31.5,155.5C 33.0744,155.937 34.2411,156.937 35,158.5C 36.1223,156.58 36.9556,154.58 37.5,152.5 Z"/></g>
<g><path style="opacity:0.004" fill="#00fffe" d="M 31.5,164.5 C 32.8333,165.167 32.8333,165.167 31.5,164.5 Z"/></g>
<g><path style="opacity:0.004" fill="#33a3c4" d="M 232.5,163.5 C 232.833,163.5 233.167,163.5 233.5,163.5C 233.672,164.492 233.338,165.158 232.5,165.5C 232.5,164.833 232.5,164.167 232.5,163.5 Z"/></g>
<g><path style="opacity:0.012" fill="#55aaa9" d="M 231.5,165.5 C 231.833,165.5 232.167,165.5 232.5,165.5C 232.315,166.17 231.981,166.17 231.5,165.5 Z"/></g>
<g><path style="opacity:0.004" fill="#fe0000" d="M 32.5,166.5 C 33.8333,167.167 33.8333,167.167 32.5,166.5 Z"/></g>
<g><path style="opacity:0.004" fill="#00fffe" d="M 212.5,167.5 C 213.833,168.167 213.833,168.167 212.5,167.5 Z"/></g>
<g><path style="opacity:0.024" fill="#486868" d="M 218.5,167.5 C 217.833,167.5 217.5,167.833 217.5,168.5C 217.167,168.5 216.833,168.5 216.5,168.5C 217.032,165.54 217.699,165.207 218.5,167.5 Z"/></g>
<g><path style="opacity:0.008" fill="#535353" d="M 230.5,166.5 C 230.833,166.5 231.167,166.5 231.5,166.5C 231.672,167.492 231.338,168.158 230.5,168.5C 230.5,167.833 230.5,167.167 230.5,166.5 Z"/></g>
<g><path style="opacity:0.004" fill="#000000" d="M 20.5,168.5 C 19.8333,169.167 19.8333,169.167 20.5,168.5 Z"/></g>
<g><path style="opacity:0.008" fill="#007f7e" d="M 211.5,168.5 C 211.833,168.5 212.167,168.5 212.5,168.5C 212.315,169.17 211.981,169.17 211.5,168.5 Z"/></g>
<g><path style="opacity:0.016" fill="#3f7fbf" d="M 229.5,168.5 C 229.833,168.5 230.167,168.5 230.5,168.5C 230.315,169.17 229.981,169.17 229.5,168.5 Z"/></g>
<g><path style="opacity:0.004" fill="#000000" d="M 40.5,169.5 C 39.8333,170.167 39.8333,170.167 40.5,169.5 Z"/></g>
<g><path style="opacity:0.071" fill="#fefffe" d="M 56.5,169.5 C 56.5,170.5 56.5,171.5 56.5,172.5C 102.167,172.5 147.833,172.5 193.5,172.5C 147.67,173.499 101.67,173.832 55.5,173.5C 55.2322,171.901 55.5655,170.568 56.5,169.5 Z"/></g>
<g><path style="opacity:0.004" fill="#00fffe" d="M 20.5,170.5 C 21.8333,171.167 21.8333,171.167 20.5,170.5 Z"/></g>
<g><path style="opacity:0.004" fill="#767676" d="M 53.5,169.5 C 54.5735,170.251 54.7401,171.251 54,172.5C 53.5172,171.552 53.3505,170.552 53.5,169.5 Z"/></g>
<g><path style="opacity:0.888" fill="#878787" d="M 193.5,172.5 C 147.833,172.5 102.167,172.5 56.5,172.5C 56.5,171.5 56.5,170.5 56.5,169.5C 101.662,169.41 146.996,169.076 192.5,168.5C 193.429,169.689 193.762,171.022 193.5,172.5 Z"/></g>
<g><path style="opacity:0.012" fill="#949494" d="M 194.5,169.5 C 195.573,170.251 195.74,171.251 195,172.5C 194.517,171.552 194.351,170.552 194.5,169.5 Z"/></g>
<g><path style="opacity:0.016" fill="#466362" d="M 216.5,168.5 C 216.5,169.167 216.5,169.833 216.5,170.5C 215.833,170.5 215.5,170.833 215.5,171.5C 214.285,170.221 214.618,169.221 216.5,168.5 Z"/></g>
<g><path style="opacity:0.008" fill="#6c6c6c" d="M 210.5,169.5 C 210.833,169.5 211.167,169.5 211.5,169.5C 211.573,171.027 210.906,172.027 209.5,172.5C 209.5,171.833 209.5,171.167 209.5,170.5C 210.167,170.5 210.5,170.167 210.5,169.5 Z"/></g>
<g><path style="opacity:0.016" fill="#007f7e" d="M 226.5,172.5 C 226.833,172.5 227.167,172.5 227.5,172.5C 227.315,173.17 226.981,173.17 226.5,172.5 Z"/></g>
<g><path style="opacity:0.004" fill="#000000" d="M 41.5,173.5 C 42.8333,174.167 42.8333,174.167 41.5,173.5 Z"/></g>
<g><path style="opacity:0.016" fill="#1a6262" d="M 49.5,171.5 C 50.9063,171.973 51.573,172.973 51.5,174.5C 51.1667,174.5 50.8333,174.5 50.5,174.5C 49.8333,174.5 49.5,174.167 49.5,173.5C 49.5,172.833 49.5,172.167 49.5,171.5 Z"/></g>
<g><path style="opacity:0.016" fill="#007f7e" d="M 225.5,173.5 C 225.833,173.5 226.167,173.5 226.5,173.5C 226.315,174.17 225.981,174.17 225.5,173.5 Z"/></g>
<g><path style="opacity:0.012" fill="#637f89" d="M 23.5,172.5 C 24.1667,172.5 24.5,172.833 24.5,173.5C 24.2533,175.975 23.5866,175.975 22.5,173.5C 22.6236,172.893 22.9569,172.56 23.5,172.5 Z"/></g>
<g><path style="opacity:0.008" fill="#007f7e" d="M 51.5,174.5 C 52.8333,175.167 52.8333,175.167 51.5,174.5 Z"/></g>
<g><path style="opacity:0.004" fill="#fefffe" d="M 57.5,175.5 C 102.665,174.335 147.998,174.169 193.5,175C 148.168,175.5 102.835,175.667 57.5,175.5 Z"/></g>
<g><path style="opacity:0.004" fill="#7d8996" d="M 208.5,172.5 C 208.833,172.5 209.167,172.5 209.5,172.5C 209.5,174.5 208.5,175.5 206.5,175.5C 206.5,175.167 206.5,174.833 206.5,174.5C 207.167,174.5 207.5,174.167 207.5,173.5C 208.167,173.5 208.5,173.167 208.5,172.5 Z"/></g>
<g><path style="opacity:0.004" fill="#fefffe" d="M 224.5,175.5 C 225.833,176.167 225.833,176.167 224.5,175.5 Z"/></g>
<g><path style="opacity:0.008" fill="#7e7f7e" d="M 204.5,177.5 C 204.833,177.5 205.167,177.5 205.5,177.5C 205.315,178.17 204.981,178.17 204.5,177.5 Z"/></g>
<g><path style="opacity:0.004" fill="#000000" d="M 223.5,177.5 C 224.833,178.167 224.833,178.167 223.5,177.5 Z"/></g>
<g><path style="opacity:0.004" fill="#708f8e" d="M 46.5,177.5 C 47.1667,177.5 47.5,177.833 47.5,178.5C 48.1667,178.5 48.5,178.833 48.5,179.5C 49.1667,179.5 49.5,179.833 49.5,180.5C 50.1667,180.5 50.5,180.833 50.5,181.5C 48.3364,182.118 46.6697,181.118 45.5,178.5C 45.6236,177.893 45.9569,177.56 46.5,177.5 Z"/></g>
<g><path style="opacity:0.008" fill="#7e7f7e" d="M 203.5,178.5 C 203.833,178.5 204.167,178.5 204.5,178.5C 204.315,179.17 203.981,179.17 203.5,178.5 Z"/></g>
<g><path style="opacity:0.016" fill="#6fa497" d="M 210.5,179.5 C 209.833,179.5 209.5,179.833 209.5,180.5C 208.957,180.44 208.624,180.107 208.5,179.5C 209.257,178.227 209.923,178.227 210.5,179.5 Z"/></g>
<g><path style="opacity:0.004" fill="#000000" d="M 222.5,178.5 C 222.833,178.5 223.167,178.5 223.5,178.5C 223.315,179.17 222.981,179.17 222.5,178.5 Z"/></g>
<g><path style="opacity:0.004" fill="#000000" d="M 202.5,179.5 C 202.833,179.5 203.167,179.5 203.5,179.5C 203.315,180.17 202.981,180.17 202.5,179.5 Z"/></g>
<g><path style="opacity:0.008" fill="#000000" d="M 221.5,179.5 C 221.833,179.5 222.167,179.5 222.5,179.5C 222.315,180.17 221.981,180.17 221.5,179.5 Z"/></g>
<g><path style="opacity:0.004" fill="#000000" d="M 28.5,180.5 C 28.8333,180.5 29.1667,180.5 29.5,180.5C 29.3147,181.17 28.9813,181.17 28.5,180.5 Z"/></g>
<g><path style="opacity:0.031" fill="#467084" d="M 196.5,180.5 C 195.833,180.5 195.5,180.833 195.5,181.5C 194.833,181.5 194.5,181.833 194.5,182.5C 194.167,182.5 193.833,182.5 193.5,182.5C 193.685,180.804 194.519,179.471 196,178.5C 196.464,179.094 196.631,179.761 196.5,180.5 Z"/></g>
<g><path style="opacity:0.016" fill="#003f3e" d="M 220.5,180.5 C 220.833,180.5 221.167,180.5 221.5,180.5C 221.315,181.17 220.981,181.17 220.5,180.5 Z"/></g>
<g><path style="opacity:0.012" fill="#496060" d="M 55.5,182.5 C 55.6716,181.508 55.3382,180.842 54.5,180.5C 54.3932,178.621 54.8932,178.288 56,179.5C 56.7401,180.749 56.5735,181.749 55.5,182.5 Z"/></g>
<g><path style="opacity:0.004" fill="#000000" d="M 201.5,181.5 C 202.833,182.167 202.833,182.167 201.5,181.5 Z"/></g>
<g><path style="opacity:0.016" fill="#003f3e" d="M 219.5,181.5 C 219.833,181.5 220.167,181.5 220.5,181.5C 220.315,182.17 219.981,182.17 219.5,181.5 Z"/></g>
<g><path style="opacity:0.004" fill="#00fffe" d="M 200.5,182.5 C 200.833,182.5 201.167,182.5 201.5,182.5C 201.315,183.17 200.981,183.17 200.5,182.5 Z"/></g>
<g><path style="opacity:0.005" fill="#1c1c1c" d="M 193.5,182.5 C 193.5,183.167 193.5,183.833 193.5,184.5C 192.833,184.5 192.5,184.833 192.5,185.5C 191.285,184.221 191.618,183.221 193.5,182.5 Z"/></g>
<g><path style="opacity:0.008" fill="#7e7f7e" d="M 199.5,183.5 C 199.833,183.5 200.167,183.5 200.5,183.5C 200.315,184.17 199.981,184.17 199.5,183.5 Z"/></g>
<g><path style="opacity:0.008" fill="#7ffffe" d="M 198.5,184.5 C 198.833,184.5 199.167,184.5 199.5,184.5C 199.315,185.17 198.981,185.17 198.5,184.5 Z"/></g>
<g><path style="opacity:0.004" fill="#a2c9c8" d="M 47.5,188.5 C 47.56,187.957 47.8933,187.624 48.5,187.5C 49.7733,188.257 49.7733,188.923 48.5,189.5C 47.8333,189.5 47.5,189.167 47.5,188.5 Z"/></g>
<g><path style="opacity:0.008" fill="#7ffffe" d="M 214.5,187.5 C 214.833,187.5 215.167,187.5 215.5,187.5C 215.315,188.17 214.981,188.17 214.5,187.5 Z"/></g>
<g><path style="opacity:0.008" fill="#9da0a0" d="M 190.5,188.5 C 189.833,188.5 189.5,188.833 189.5,189.5C 188.833,189.5 188.5,189.833 188.5,190.5C 187.833,190.5 187.5,190.833 187.5,191.5C 186.475,191.103 186.308,190.437 187,189.5C 188,188.5 189,187.5 190,186.5C 190.464,187.094 190.631,187.761 190.5,188.5 Z"/></g>
<g><path style="opacity:0.016" fill="#8b8b8b" d="M 201.5,188.5 C 201.5,188.833 201.5,189.167 201.5,189.5C 200.833,189.5 200.5,189.833 200.5,190.5C 200.167,190.5 199.833,190.5 199.5,190.5C 199.5,189.167 200.167,188.5 201.5,188.5 Z"/></g>
<g><path style="opacity:0.008" fill="#7e7f7e" d="M 213.5,188.5 C 213.833,188.5 214.167,188.5 214.5,188.5C 214.315,189.17 213.981,189.17 213.5,188.5 Z"/></g>
<g><path style="opacity:0.004" fill="#55584c" d="M 55.5,187.5 C 56.1667,187.5 56.5,187.833 56.5,188.5C 57.1667,188.5 57.5,188.833 57.5,189.5C 58.1667,189.5 58.5,189.833 58.5,190.5C 56.732,191.507 55.3987,190.841 54.5,188.5C 54.6236,187.893 54.9569,187.56 55.5,187.5 Z"/></g>
<g><path style="opacity:0.008" fill="#7e7f7e" d="M 193.5,189.5 C 193.833,189.5 194.167,189.5 194.5,189.5C 194.315,190.17 193.981,190.17 193.5,189.5 Z"/></g>
<g><path style="opacity:0.008" fill="#7e7f7e" d="M 212.5,189.5 C 212.833,189.5 213.167,189.5 213.5,189.5C 213.315,190.17 212.981,190.17 212.5,189.5 Z"/></g>
<g><path style="opacity:0.004" fill="#000000" d="M 63.5,190.5 C 64.8333,191.167 64.8333,191.167 63.5,190.5 Z"/></g>
<g><path style="opacity:0.008" fill="#7e7f7e" d="M 192.5,190.5 C 192.833,190.5 193.167,190.5 193.5,190.5C 193.315,191.17 192.981,191.17 192.5,190.5 Z"/></g>
<g><path style="opacity:0.008" fill="#007f7e" d="M 211.5,190.5 C 211.833,190.5 212.167,190.5 212.5,190.5C 212.315,191.17 211.981,191.17 211.5,190.5 Z"/></g>
<g><path style="opacity:0.004" fill="#000000" d="M 191.5,191.5 C 191.833,191.5 192.167,191.5 192.5,191.5C 192.315,192.17 191.981,192.17 191.5,191.5 Z"/></g>
<g><path style="opacity:0.004" fill="#25a2a2" d="M 209.5,192.5 C 209.5,192.167 209.5,191.833 209.5,191.5C 210.167,191.5 210.833,191.5 211.5,191.5C 211.158,192.338 210.492,192.672 209.5,192.5 Z"/></g>
<g><path style="opacity:0.008" fill="#7e7f7e" d="M 190.5,192.5 C 190.833,192.5 191.167,192.5 191.5,192.5C 191.315,193.17 190.981,193.17 190.5,192.5 Z"/></g>
<g><path style="opacity:0.016" fill="#003f3e" d="M 208.5,192.5 C 208.833,192.5 209.167,192.5 209.5,192.5C 209.315,193.17 208.981,193.17 208.5,192.5 Z"/></g>
<g><path style="opacity:0.016" fill="#007f7e" d="M 207.5,193.5 C 207.833,193.5 208.167,193.5 208.5,193.5C 208.315,194.17 207.981,194.17 207.5,193.5 Z"/></g>
<g><path style="opacity:0.016" fill="#3f7f7e" d="M 206.5,194.5 C 206.833,194.5 207.167,194.5 207.5,194.5C 207.315,195.17 206.981,195.17 206.5,194.5 Z"/></g>
<g><path style="opacity:0.004" fill="#bdc8c8" d="M 55.5,196.5 C 55.56,195.957 55.8933,195.624 56.5,195.5C 57.7733,196.257 57.7733,196.923 56.5,197.5C 55.8333,197.5 55.5,197.167 55.5,196.5 Z"/></g>
<g><path style="opacity:0.008" fill="#626b75" d="M 59.5,200.5 C 60.4971,199.287 61.4971,199.454 62.5,201C 61.9056,201.464 61.2389,201.631 60.5,201.5C 59.8333,201.5 59.5,201.167 59.5,200.5 Z"/></g>
<g><path style="opacity:0.99" fill="#5c7f88" d="M 197.5,200.5 C 197.5,200.833 197.5,201.167 197.5,201.5C 197.5,201.833 197.5,202.167 197.5,202.5C 196.811,203.774 195.977,203.774 195,202.5C 194.764,204.119 193.931,205.119 192.5,205.5C 192.167,204.167 191.833,204.167 191.5,205.5C 190.508,205.328 189.842,205.662 189.5,206.5C 188.167,206.833 188.167,207.167 189.5,207.5C 187.664,209.588 185.331,210.921 182.5,211.5C 181.833,210.167 181.167,210.167 180.5,211.5C 178.254,212.455 175.921,213.122 173.5,213.5C 173.393,211.097 174.393,209.264 176.5,208C 181.356,205.74 185.689,202.74 189.5,199C 192.193,199.552 194.193,198.386 195.5,195.5C 196.601,194.2 197.934,193.7 199.5,194C 197.649,195.684 195.982,197.517 194.5,199.5C 195.133,201.519 196.133,201.853 197.5,200.5 Z"/></g>
<g><path style="opacity:0.012" fill="#00aaa9" d="M 200.5,199.5 C 200.833,199.5 201.167,199.5 201.5,199.5C 201.315,200.17 200.981,200.17 200.5,199.5 Z"/></g>
<g><path style="opacity:0.012" fill="#55aaa9" d="M 191.5,205.5 C 191.833,205.5 192.167,205.5 192.5,205.5C 192.315,206.17 191.981,206.17 191.5,205.5 Z"/></g>
<g><path style="opacity:0.004" fill="#bdc9dc" d="M 189.5,207.5 C 189.5,207.167 189.5,206.833 189.5,206.5C 190.167,206.5 190.833,206.5 191.5,206.5C 191.158,207.338 190.492,207.672 189.5,207.5 Z"/></g>
<g><path style="opacity:0.008" fill="#145353" d="M 180.5,212.5 C 180.5,212.167 180.5,211.833 180.5,211.5C 181.167,211.5 181.833,211.5 182.5,211.5C 182.158,212.338 181.492,212.672 180.5,212.5 Z"/></g>
<g><path style="opacity:0.004" fill="#00fffe" d="M 180.5,212.5 C 179.833,213.167 179.833,213.167 180.5,212.5 Z"/></g>
</svg>
