<?xml version="1.0" encoding="UTF-8"?>
<svg version="1.1" xmlns="http://www.w3.org/2000/svg" width="256" height="249">
<path d="M0 0 C84.48 0 168.96 0 256 0 C256 82.17 256 164.34 256 249 C171.52 249 87.04 249 0 249 C0 166.83 0 84.66 0 0 Z " fill="#A97CC3" transform="translate(0,0)"/>
<path d="M0 0 C2.30527865 1.79994617 4.13912931 3.75128081 6.05859375 5.9609375 C6.85007812 6.86328125 7.6415625 7.765625 8.45703125 8.6953125 C9.25367188 9.60796875 10.0503125 10.520625 10.87109375 11.4609375 C12.30627527 13.04637268 13.74375395 14.62973161 15.18359375 16.2109375 C21.90330463 23.67728292 28.38648082 31.35116992 34.8828125 39.01171875 C40.8366339 46.01678603 46.93756656 52.84713318 53.19921875 59.578125 C57.87470374 64.62272723 62.33752197 69.82400854 66.7644043 75.0871582 C71.59739128 80.82970784 76.52621122 86.44562851 81.6015625 91.9765625 C84.14311616 94.75871074 86.6219808 97.58960518 89.09375 100.43359375 C91.16468862 102.79582923 93.26622223 105.12889603 95.37109375 107.4609375 C99.24675333 111.75843758 103.08567695 116.0837558 106.87109375 120.4609375 C107.63486328 121.33105469 107.63486328 121.33105469 108.4140625 122.21875 C111.87109375 126.22774422 111.87109375 126.22774422 111.87109375 128.4609375 C111.25927246 128.7919043 110.64745117 129.12287109 110.01708984 129.46386719 C82.36244371 144.41395492 82.36244371 144.41395492 54.83837891 159.60229492 C48.54328584 163.10598374 42.20983287 166.53697312 35.87109375 169.9609375 C26.50916735 175.01805284 17.15794403 180.09560848 7.90112305 185.34350586 C6.44888766 186.14289027 4.97613103 186.90543473 3.49145508 187.64282227 C-1.51293711 190.19395177 -4.2498036 192.05719044 -6.56640625 197.3984375 C-7.01886719 198.39746094 -7.47132812 199.39648438 -7.9375 200.42578125 C-9.10865627 203.40934984 -10.15101598 206.40901018 -11.12890625 209.4609375 C-0.90741991 204.12631327 -0.90741991 204.12631327 9.05859375 198.3359375 C12.34184953 196.32327502 15.64885988 194.56293652 19.12109375 192.8984375 C29.94474355 187.5990661 40.21200603 181.13704968 50.49072266 174.86157227 C55.55550102 171.77978011 60.65507602 168.96834159 65.99609375 166.3984375 C70.81373389 164.0363336 75.4647627 161.6244842 79.953125 158.671875 C83.25959764 156.58428535 86.73587923 154.8019567 90.1796875 152.953125 C93.31606038 151.21423612 96.32197309 149.32085511 99.3125 147.34375 C100.87109375 146.4609375 100.87109375 146.4609375 102.87109375 146.4609375 C102.87109375 147.1209375 102.87109375 147.7809375 102.87109375 148.4609375 C104.19109375 148.1309375 105.51109375 147.8009375 106.87109375 147.4609375 C107.20109375 148.7809375 107.53109375 150.1009375 107.87109375 151.4609375 C106.91332031 151.99460938 105.95554688 152.52828125 104.96875 153.078125 C97.61636079 157.18788375 90.30606549 161.35603121 83.05859375 165.6484375 C77.5865042 168.88844188 72.07990461 172.02579702 66.4765625 175.03515625 C62.66169899 177.12275022 58.92377095 179.33667544 55.18359375 181.5546875 C51.47749196 183.68744419 47.72774409 185.7291907 43.97070312 187.77050781 C38.9285915 190.52031727 33.90971871 193.31186893 28.89013672 196.10253906 C27.1094037 197.09243592 25.32816201 198.08141295 23.546875 199.0703125 C16.74358926 202.85076599 9.96778777 206.66978269 3.23046875 210.56640625 C2.02734375 211.26041667 0.82421875 211.95442708 -0.37890625 212.6484375 C-0.98992187 213.00357422 -1.6009375 213.35871094 -2.23046875 213.72460938 C-6.60195564 216.23964605 -9.77452905 217.59650818 -14.81640625 217.5234375 C-15.62464844 217.51441406 -16.43289062 217.50539062 -17.265625 217.49609375 C-18.18794922 217.47869141 -18.18794922 217.47869141 -19.12890625 217.4609375 C-19.64445339 210.47240959 -19.09036684 205.35975472 -15.12890625 199.4609375 C-14.46890625 198.8009375 -13.80890625 198.1409375 -13.12890625 197.4609375 C-13.35482024 192.98030995 -15.23162023 190.81927656 -18.25390625 187.6484375 C-19.07503906 186.77058594 -19.89617187 185.89273438 -20.7421875 184.98828125 C-21.52980469 184.15425781 -22.31742187 183.32023438 -23.12890625 182.4609375 C-25.49220016 179.82023663 -27.81005102 177.14070405 -30.12890625 174.4609375 C-30.57137695 173.95014648 -31.01384766 173.43935547 -31.46972656 172.91308594 C-38.75082477 164.49777045 -45.83737565 155.97242559 -52.67578125 147.19140625 C-53.59728265 146.01012513 -54.51916657 144.82914233 -55.44140625 143.6484375 C-55.90466309 143.05506592 -56.36791992 142.46169434 -56.84521484 141.8503418 C-60.07409081 137.73939614 -63.41107156 133.73882114 -66.81640625 129.7734375 C-71.57567448 124.21817372 -75.90821772 118.43806163 -80.12890625 112.4609375 C-85.22504354 105.36163423 -90.45742061 98.39333549 -95.83203125 91.50390625 C-98.12890625 88.4609375 -98.12890625 88.4609375 -100.23828125 85.19921875 C-102.00888563 82.27406307 -102.00888563 82.27406307 -105.12890625 80.4609375 C-105.45890625 79.4709375 -105.78890625 78.4809375 -106.12890625 77.4609375 C-107.36640625 76.31625 -107.36640625 76.31625 -108.62890625 75.1484375 C-111.55339395 72.00461322 -111.90264674 70.68787656 -112.12890625 66.4609375 C-111.01953125 63.42578125 -111.01953125 63.42578125 -109.37890625 60.3984375 C-108.8478125 59.39683594 -108.31671875 58.39523438 -107.76953125 57.36328125 C-107.228125 56.40550781 -106.68671875 55.44773438 -106.12890625 54.4609375 C-105.75024414 53.6563208 -105.37158203 52.8517041 -104.98144531 52.02270508 C-102.52904942 48.63143068 -99.55067404 47.27464026 -95.84765625 45.5703125 C-95.12617401 45.22429993 -94.40469177 44.87828735 -93.66134644 44.52178955 C-91.32342211 43.40451145 -88.97648649 42.30776022 -86.62890625 41.2109375 C-85.01840638 40.44534812 -83.40854355 39.67841723 -81.79931641 38.91015625 C-77.25057278 36.74311434 -72.69114309 34.59939107 -68.12890625 32.4609375 C-64.58680299 30.79519742 -61.04526687 29.12825568 -57.50390625 27.4609375 C-56.78033936 27.12167236 -56.05677246 26.78240723 -55.3112793 26.43286133 C-49.55852156 23.71611535 -43.93976385 20.77509092 -38.33422852 17.76806641 C-32.92483603 14.86689006 -27.46973311 12.07375713 -21.96313477 9.36157227 C-18.66449416 7.73675803 -15.39386012 6.07969594 -12.15625 4.3359375 C-11.52033936 3.99965332 -10.88442871 3.66336914 -10.22924805 3.31689453 C-8.48721852 2.39335915 -6.75308684 1.45497024 -5.01953125 0.515625 C-2.12890625 -0.5390625 -2.12890625 -0.5390625 0 0 Z " fill="#462366" transform="translate(132.12890625,15.5390625)"/>
<path d="M0 0 C0.33 0.66 0.66 1.32 1 2 C0.67 2.5775 0.34 3.155 0 3.75 C-1.42036749 6.94582685 -1.01629115 8.68011557 0 12 C2.43750025 14.68767578 2.43750025 14.68767578 5 17 C5.33 17.99 5.66 18.98 6 20 C7.65115067 21.68203954 9.32003449 23.34673915 11 25 C12.4525022 26.82622995 13.86843326 28.68203415 15.25 30.5625 C16.04283833 31.63551304 16.83581059 32.70842714 17.62890625 33.78125 C18.41136719 34.8434375 19.19382813 35.905625 20 37 C21.39416947 38.85541807 22.79000617 40.70958453 24.1875 42.5625 C26.91034412 46.18189035 29.60069439 49.82035304 32.2578125 53.48828125 C38.15415064 61.60692749 44.11944641 69.53142628 50.74145508 77.07373047 C53.9847083 80.77581707 57.03783802 84.57002053 60 88.5 C66.71335475 97.38113833 74.03181775 105.74853643 81.5 114 C82.19867188 114.77730469 82.89734375 115.55460937 83.6171875 116.35546875 C84.92829777 117.81058621 86.24205069 119.26339037 87.56738281 120.70556641 C89.26791692 122.56181088 90.94731574 124.43560294 92.625 126.3125 C93.17091797 126.89966797 93.71683594 127.48683594 94.27929688 128.09179688 C98.01083035 132.31571898 98.01083035 132.31571898 97.95703125 135.71484375 C96.87095339 138.3081317 95.44476436 140.62030634 93.98828125 143.01953125 C92.26020904 146.48250599 91.65322294 150.20958793 91 154 C90.34 154 89.68 154 89 154 C87.66660731 152.36148313 86.41064089 150.65988207 85.1875 148.9375 C81.52261672 143.88683273 77.61652152 139.12627608 73.5 134.4375 C69.76201473 130.17786051 66.06343249 125.90843762 62.5 121.5 C57.38362076 115.18855408 52.04165316 109.07979874 46.70263672 102.95703125 C45.00615182 101.00707098 43.31641753 99.05147887 41.62890625 97.09375 C36.71371573 91.3950097 31.78252282 85.72658445 26.6875 80.1875 C22.87716334 76.03695471 19.32628592 71.75080039 15.88671875 67.2890625 C13.73761327 64.68165917 11.40520958 62.37450478 9 60 C0.87640597 51.60829682 -7.14918086 43.17043733 -14.3984375 34.00390625 C-15.99198824 31.93407561 -15.99198824 31.93407561 -18 30 C-17.61885588 26.05924206 -16.11504456 22.76970639 -14.5 19.1875 C-12.85381867 15.4445067 -11.79734883 12.64695155 -11.875 8.5625 C-11 5 -11 5 -8.50390625 3.40234375 C-5.70238354 2.12113782 -2.91322988 0.99827317 0 0 Z " fill="#E1DFE0" transform="translate(22,76)"/>
<path d="M0 0 C3.5707206 3.43823803 6.63142133 6.96775437 9.625 10.9375 C10.50455814 12.09554621 11.3847899 13.25308103 12.265625 14.41015625 C12.71615234 15.00328613 13.16667969 15.59641602 13.63085938 16.20751953 C15.85314342 19.11693634 18.1115939 21.99751986 20.375 24.875 C20.82955566 25.45306396 21.28411133 26.03112793 21.75244141 26.62670898 C25.64852704 31.57142628 29.58196888 36.48590151 33.52124023 41.39624023 C36.85455779 45.55522716 40.15465393 49.73860798 43.4375 53.9375 C48.54111917 60.45987513 53.75982056 66.88542833 58.9921875 73.3046875 C63.30238303 78.59361739 67.55379922 83.92901201 71.8046875 89.265625 C76.49516282 95.14331607 81.23708617 100.97752223 85.98852539 106.8059082 C90.22050011 112.00990212 94.38139166 117.26594437 98.4855957 122.57128906 C100.16995615 124.73694152 101.80406067 126.81551167 103.8046875 128.69921875 C105 130 105 130 105 133 C103.03125 134.60546875 103.03125 134.60546875 100.5 136.1875 C99.6646875 136.71730469 98.829375 137.24710938 97.96875 137.79296875 C97.3190625 138.19128906 96.669375 138.58960938 96 139 C92.18371168 137.45427224 90.02974257 135.11228755 87.3125 132.0625 C86.87752197 131.57595947 86.44254395 131.08941895 85.99438477 130.58813477 C82.26944435 126.38752628 78.73124025 122.04164729 75.20703125 117.671875 C73.08376662 115.1014095 70.88188151 112.64080637 68.625 110.1875 C64.66698094 105.83983139 61.03753013 101.30711701 57.43798828 96.66479492 C53.71125945 91.87007926 49.87554571 87.17498564 46 82.5 C37.69719885 72.46834084 29.69001703 62.22363392 21.76635742 51.89135742 C16.39981903 44.90058199 10.93524213 37.98648874 5.47558594 31.06835938 C4.45392102 29.77369114 3.43267318 28.47869365 2.41186523 27.18334961 C1.45142842 25.96463338 0.49004935 24.74665894 -0.47241211 23.52954102 C-6.01214595 16.49798375 -6.01214595 16.49798375 -5.9375 13.4375 C-4.62173748 8.61303744 -2.35360519 4.39455433 0 0 Z " fill="#E8E3E6" transform="translate(29,69)"/>
<path d="M0 0 C6.04406185 2.46239557 9.74556958 7.53720609 13 13 C13.75 15.375 13.75 15.375 14 17 C14.66 17 15.32 17 16 17 C17.65625 18.8984375 17.65625 18.8984375 19.5 21.375 C21.26366443 23.72904362 22.9191905 25.9191905 25 28 C25 28.99 25 29.98 25 31 C25.66 31 26.32 31 27 31 C28.53674364 32.88681265 29.96661069 34.77089083 31.375 36.75 C34.06205251 40.47053425 36.75374866 43.76817645 40 47 C40.75 49.25 40.75 49.25 41 51 C41.66 51 42.32 51 43 51 C44.21875 52.49609375 44.21875 52.49609375 45.5 54.4375 C47.2865363 57.22531847 47.2865363 57.22531847 50 59 C53 63.5 53 63.5 53 66 C54.485 66.495 54.485 66.495 56 67 C59.50246 70.81438392 62.44633255 75.02826417 64 80 C64.66 80 65.32 80 66 80 C67.2890625 81.4609375 67.2890625 81.4609375 68.625 83.375 C69.07101563 84.00148438 69.51703125 84.62796875 69.9765625 85.2734375 C71 87 71 87 71 89 C71.66 89 72.32 89 73 89 C74.48046875 90.6875 74.48046875 90.6875 76.1875 93 C78.59117655 96.18487142 81.0420844 99.2625048 83.6875 102.25 C91 110.51773649 91 110.51773649 91 113 C91.66 113 92.32 113 93 113 C94.18359375 114.4609375 94.18359375 114.4609375 95.4375 116.375 C97.21688245 119.08590869 98.19194031 120.12796021 101 122 C101.6875 124.625 101.6875 124.625 102 127 C105.465 126.505 105.465 126.505 109 126 C109 125.34 109 124.68 109 124 C111.08203125 122.52734375 111.08203125 122.52734375 113.8125 120.9375 C114.70582031 120.41027344 115.59914062 119.88304687 116.51953125 119.33984375 C119 118 119 118 122 117 C122.66 116.34 123.32 115.68 124 115 C125.98821313 114.60235737 127.98944339 114.26224651 130 114 C127.64296297 117.53555555 125.74222272 118.12888864 122 120 C121.06776611 120.9580957 121.06776611 120.9580957 120.11669922 121.93554688 C117.85109477 124.14522983 115.86130806 125.25255911 113.0078125 126.59375 C98.96386457 132.94629895 98.96386457 132.94629895 90.734375 145.2109375 C90.37085937 146.59152344 90.37085937 146.59152344 90 148 C89.33753353 150.00139517 88.67196934 152.00177538 88 154 C98.22148634 148.66537577 98.22148634 148.66537577 108.1875 142.875 C111.47075578 140.86233752 114.77776613 139.10199902 118.25 137.4375 C129.0736498 132.1381286 139.34091228 125.67611218 149.61962891 119.40063477 C154.68440727 116.31884261 159.78398227 113.50740409 165.125 110.9375 C169.94264014 108.5753961 174.59366895 106.1635467 179.08203125 103.2109375 C182.38850389 101.12334785 185.86478548 99.3410192 189.30859375 97.4921875 C192.44496663 95.75329862 195.45087934 93.85991761 198.44140625 91.8828125 C200 91 200 91 202 91 C202 91.66 202 92.32 202 93 C203.32 92.67 204.64 92.34 206 92 C206.33 93.32 206.66 94.64 207 96 C206.04222656 96.53367187 205.08445313 97.06734375 204.09765625 97.6171875 C196.74526704 101.72694625 189.43497174 105.89509371 182.1875 110.1875 C176.71541045 113.42750438 171.20881086 116.56485952 165.60546875 119.57421875 C161.79060524 121.66181272 158.0526772 123.87573794 154.3125 126.09375 C150.60639821 128.22650669 146.85665034 130.2682532 143.09960938 132.30957031 C138.05749775 135.05937977 133.03862496 137.85093143 128.01904297 140.64160156 C126.23830995 141.63149842 124.45706826 142.62047545 122.67578125 143.609375 C115.87249551 147.38982849 109.09669402 151.20884519 102.359375 155.10546875 C101.15625 155.79947917 99.953125 156.49348958 98.75 157.1875 C98.13898438 157.54263672 97.52796875 157.89777344 96.8984375 158.26367188 C92.52695061 160.77870855 89.3543772 162.13557068 84.3125 162.0625 C83.50425781 162.05347656 82.69601563 162.04445312 81.86328125 162.03515625 C80.94095703 162.01775391 80.94095703 162.01775391 80 162 C79.48445286 155.01147209 80.03853941 149.89881722 84 144 C84.66 143.34 85.32 142.68 86 142 C85.77408601 137.51937245 83.89728602 135.35833906 80.875 132.1875 C80.05386719 131.30964844 79.23273438 130.43179688 78.38671875 129.52734375 C77.20529297 128.27630859 77.20529297 128.27630859 76 127 C73.63670609 124.35929913 71.31885523 121.67976655 69 119 C68.33629395 118.23381348 68.33629395 118.23381348 67.65917969 117.45214844 C60.37808148 109.03683295 53.2915306 100.51148809 46.453125 91.73046875 C45.5316236 90.54918763 44.60973968 89.36820483 43.6875 88.1875 C42.99261475 87.29744263 42.99261475 87.29744263 42.28369141 86.3894043 C39.05481544 82.27845864 35.71783469 78.27788364 32.3125 74.3125 C27.55323177 68.75723622 23.22068853 62.97712413 19 57 C13.90386271 49.90069673 8.67148564 42.93239799 3.296875 36.04296875 C1 33 1 33 -1.109375 29.73828125 C-2.87997938 26.81312557 -2.87997938 26.81312557 -6 25 C-6.33 24.01 -6.66 23.02 -7 22 C-7.825 21.236875 -8.65 20.47375 -9.5 19.6875 C-12.30489036 16.67224287 -12.71862276 15.03307384 -13 11 C-8.9331528 12.35561573 -8.28262537 14.41481226 -6 18 C-4.33114525 20.18546943 -2.64990594 22.34957249 -0.9375 24.5 C0.04170269 25.73825277 1.0208683 26.97653485 2 28.21484375 C2.49757813 28.84245605 2.99515625 29.47006836 3.5078125 30.11669922 C5.86621482 33.09325607 8.21514097 36.0772308 10.5625 39.0625 C11.01971436 39.64338379 11.47692871 40.22426758 11.94799805 40.82275391 C14.95529767 44.65003216 17.92182393 48.50581455 20.875 52.375 C25.17847049 58.00420869 29.6311869 63.50384053 34.11499023 68.98999023 C37.6067593 73.26759919 41.0437281 77.58186698 44.4375 81.9375 C56.75322496 97.70515447 69.63974957 113.05193317 83.0859375 127.8671875 C85.46679068 130.52013819 87.74693653 133.23818026 90 136 C93.48249231 134.74243333 96.06465849 133.2268108 99 131 C99.66 131 100.32 131 101 131 C98.74631726 126.95968062 96.02762662 123.53461252 93 120.0625 C89.09658023 115.51933507 85.30323353 110.91483087 81.625 106.1875 C77.67892349 101.12155272 73.67988142 96.1043605 69.625 91.125 C69.08117676 90.45678223 68.53735352 89.78856445 67.97705078 89.10009766 C65.23790804 85.73772527 62.49255295 82.38054035 59.7421875 79.02734375 C53.56868859 71.48536269 47.55604666 63.84840638 41.66845703 56.08105469 C37.73101457 50.9051749 33.64008309 45.90392482 29.4453125 40.93359375 C25.37271235 36.04777472 21.47711698 31.02729605 17.57275391 26.00683594 C15.81682948 23.76627419 14.03994585 21.54320947 12.26171875 19.3203125 C10.98686405 17.713633 9.71212318 16.10686317 8.4375 14.5 C7.52532715 13.36957275 7.52532715 13.36957275 6.59472656 12.21630859 C3.48462368 8.27361443 1.20540391 4.97918479 0 0 Z " fill="#604280" transform="translate(33,71)"/>
<path d="M0 0 C-0.268125 0.66 -0.53625 1.32 -0.8125 2 C-2.25705047 5.64939067 -3.62871178 9.32245433 -5 13 C-5.66 13 -6.32 13 -7 13 C-7.33 13.99 -7.66 14.98 -8 16 C-14.26767452 20.75196238 -21.83502914 23.98030785 -28.8984375 27.38671875 C-31.90351078 28.84266927 -31.90351078 28.84266927 -34 30.5 C-37.68061376 33.26046032 -41.97041854 34.99697703 -46.1015625 36.98828125 C-49.95132476 38.91316238 -53.60486689 41.12180987 -57.28173828 43.35571289 C-71.96215183 52.23595227 -86.9393147 60.63783767 -102.08251953 68.69946289 C-107.02458497 71.33939619 -111.80206638 74.05676268 -116.43701172 77.21044922 C-116.95279785 77.47100098 -117.46858398 77.73155273 -118 78 C-118.66 77.67 -119.32 77.34 -120 77 C-119.25961141 74.95482824 -118.50721341 72.91400236 -117.75 70.875 C-117.33234375 69.73804688 -116.9146875 68.60109375 -116.484375 67.4296875 C-112.77228875 58.85281453 -108.28956025 56.05464723 -100.1875 51.9375 C-98.00932068 50.79636038 -95.83226447 49.65307482 -93.65625 48.5078125 C-91.99335938 47.63817871 -91.99335938 47.63817871 -90.296875 46.75097656 C-85.19972942 44.04387288 -80.19544729 41.18026612 -75.1875 38.3125 C-67.56071785 33.96576977 -59.87068818 29.78847955 -52.07885742 25.74633789 C-44.16400594 21.61499161 -36.44310698 17.15753804 -28.70703125 12.703125 C-23.51703382 9.71510035 -18.2898605 6.80762367 -13 4 C-12.25621094 3.59007812 -11.51242188 3.18015625 -10.74609375 2.7578125 C-7.04269347 0.77993758 -4.24074302 -0.53009288 0 0 Z " fill="#D3CCD7" transform="translate(240,148)"/>
<path d="M0 0 C0 0.66 0 1.32 0 2 C1.32 1.67 2.64 1.34 4 1 C4.495 2.98 4.495 2.98 5 5 C4.04222656 5.53367188 3.08445312 6.06734375 2.09765625 6.6171875 C-5.25473296 10.72694625 -12.56502826 14.89509371 -19.8125 19.1875 C-25.28458955 22.42750438 -30.79118914 25.56485952 -36.39453125 28.57421875 C-40.20939476 30.66181272 -43.9473228 32.87573794 -47.6875 35.09375 C-51.39360179 37.22650669 -55.14334966 39.2682532 -58.90039062 41.30957031 C-63.94250225 44.05937977 -68.96137504 46.85093143 -73.98095703 49.64160156 C-75.76169005 50.63149842 -77.54293174 51.62047545 -79.32421875 52.609375 C-86.14162198 56.39767331 -92.936952 60.2141878 -99.67578125 64.140625 C-101.49414062 65.1953125 -101.49414062 65.1953125 -103.3125 66.25 C-103.93189453 66.61351562 -104.55128906 66.97703125 -105.18945312 67.3515625 C-109.77443609 70 -109.77443609 70 -112 70 C-112.99 67.03 -112.99 67.03 -114 64 C-104.37776551 57.18425057 -93.99796738 51.35394381 -83.375 46.25 C-72.68241123 41.02120659 -62.53282694 34.59902603 -52.38037109 28.40063477 C-47.31559273 25.31884261 -42.21601773 22.50740409 -36.875 19.9375 C-32.05735986 17.5753961 -27.40633105 15.1635467 -22.91796875 12.2109375 C-19.61149611 10.12334785 -16.13521452 8.3410192 -12.69140625 6.4921875 C-9.55503337 4.75329862 -6.54912066 2.85991761 -3.55859375 0.8828125 C-2 0 -2 0 0 0 Z " fill="#371F4C" transform="translate(235,162)"/>
<path d="M0 0 C-0.66 0.61875 -1.32 1.2375 -2 1.875 C-4.2284549 3.75637427 -4.2284549 3.75637427 -4 6 C-4.7321875 6.41507813 -5.464375 6.83015625 -6.21875 7.2578125 C-11.9766503 10.53433196 -17.72128892 13.8291296 -23.4296875 17.19140625 C-34.83331252 23.90160544 -46.30006713 30.43331515 -57.98193359 36.64916992 C-62.95947441 39.30623393 -67.7745583 42.03572128 -72.44140625 45.21264648 C-73.21291016 45.60238647 -73.21291016 45.60238647 -74 46 C-74.66 45.67 -75.32 45.34 -76 45 C-75.25961141 42.95482824 -74.50721341 40.91400236 -73.75 38.875 C-73.12351562 37.16957031 -73.12351562 37.16957031 -72.484375 35.4296875 C-68.5798853 26.40826131 -63.39012383 23.52697045 -54.875 19.125 C-53.76511719 18.53203125 -52.65523437 17.9390625 -51.51171875 17.328125 C-43.32418275 13 -43.32418275 13 -41 13 C-41 13.66 -41 14.32 -41 15 C-40.071875 14.67 -39.14375 14.34 -38.1875 14 C-35 13 -35 13 -32 13 C-32.495 11.515 -32.495 11.515 -33 10 C-32.34 10 -31.68 10 -31 10 C-31 9.34 -31 8.68 -31 8 C-25.97887153 5.78479626 -21.48172315 5 -16 5 C-13.99598989 4.69169075 -11.99488234 4.36270588 -10 4 C-9.67 3.01 -9.34 2.02 -9 1 C-3.79245283 -1.26415094 -3.79245283 -1.26415094 0 0 Z " fill="#DACFDD" transform="translate(196,180)"/>
<path d="M0 0 C3.89856421 3.53328136 7.2524204 7.53671473 10.625 11.5625 C11.10195312 12.12646484 11.57890625 12.69042969 12.0703125 13.27148438 C13.39042072 14.83911289 14.69575051 16.41915271 16 18 C16.55196045 18.60875977 17.1039209 19.21751953 17.67260742 19.84472656 C20.7745292 24.88128449 18.08415873 32.16536865 17.00927734 37.64501953 C15.57842428 43.54867658 14.37686751 48.06194971 9.08569336 51.41186523 C6.2929282 52.78373157 3.45759145 53.92811042 0.53515625 54.99414062 C-2.3616379 56.14348499 -5.05630925 57.53042116 -7.8125 58.984375 C-9.83277721 60.03232281 -11.85360776 61.07920459 -13.875 62.125 C-14.82487793 62.62435059 -15.77475586 63.12370117 -16.75341797 63.63818359 C-23.34629389 66.86164829 -27.84017734 67.45329166 -35 66 C-36.27488281 65.82082031 -37.54976562 65.64164062 -38.86328125 65.45703125 C-49.3230174 63.50249392 -49.3230174 63.50249392 -52.375 59.9375 C-54 57 -54 57 -54 55 C-53.30438965 55.12640869 -52.6087793 55.25281738 -51.89208984 55.38305664 C-48.72148676 55.9532159 -45.54837456 56.50798299 -42.375 57.0625 C-41.28058594 57.26166016 -40.18617188 57.46082031 -39.05859375 57.66601562 C-37.99511719 57.84970703 -36.93164062 58.03339844 -35.8359375 58.22265625 C-34.37486572 58.48187866 -34.37486572 58.48187866 -32.88427734 58.74633789 C-27.39222112 59.22934504 -23.26611852 57.88404164 -18.41015625 55.41796875 C-17.37826172 54.89783203 -16.34636719 54.37769531 -15.28320312 53.84179688 C-14.22037109 53.29587891 -13.15753906 52.74996094 -12.0625 52.1875 C-11.00353516 51.65318359 -9.94457031 51.11886719 -8.85351562 50.56835938 C-4.46708202 48.34367408 -0.11268754 46.10465487 4.12890625 43.61328125 C7 42 7 42 9 42 C9.06058594 41.27554688 9.12117188 40.55109375 9.18359375 39.8046875 C9.26738281 38.83789062 9.35117188 37.87109375 9.4375 36.875 C9.51871094 35.92367187 9.59992188 34.97234375 9.68359375 33.9921875 C10 31 10 31 10.92578125 28.140625 C11.04435765 23.12297114 7.95949399 20.50166092 4.75 16.875 C3.55702895 15.47678661 2.36431253 14.07835592 1.171875 12.6796875 C0.6365918 12.06851074 0.10130859 11.45733398 -0.45019531 10.82763672 C-2.06083399 8.92826036 -3.6114181 7.06912452 -5 5 C-4.6875 2.75 -4.6875 2.75 -4 1 C-2.3125 0.1875 -2.3125 0.1875 0 0 Z " fill="#F4F0F7" transform="translate(169,81)"/>
<path d="M0 0 C1.42904663 0.2479834 1.42904663 0.2479834 2.88696289 0.50097656 C9.78877004 2.12551122 13.63602767 5.31225441 17.5625 11.1875 C17.5625 11.5175 17.5625 11.8475 17.5625 12.1875 C10.88774811 11.71073201 4.7347872 10.31853393 -1.67578125 8.47167969 C-9.14966131 6.43834467 -13.77615962 8.03068593 -20.3125 11.75 C-24.42616808 14.07471046 -28.46948009 16.25892222 -32.8671875 18.00390625 C-40.89567378 21.07013712 -40.89567378 21.07013712 -46.0390625 27.5234375 C-46.79479346 31.10361752 -47.17945459 34.54102226 -47.4375 38.1875 C-47.79249519 39.82190737 -48.18032149 41.45018178 -48.625 43.0625 C-48.893125 44.09375 -49.16125 45.125 -49.4375 46.1875 C-54.1875 45.3125 -54.1875 45.3125 -56.4375 44.1875 C-54.96862128 35.40878952 -53.25657645 26.64472936 -50.4375 18.1875 C-48.22213123 16.88830725 -46.06979541 15.77057313 -43.75 14.6875 C-38.77430714 12.3581386 -33.97588035 9.95448605 -29.2890625 7.078125 C-19.29741501 1.152528 -11.71633812 -2.035334 0 0 Z " fill="#F3EEF5" transform="translate(145.4375,62.8125)"/>
<path d="M0 0 C4.0668472 1.35561573 4.71737463 3.41481226 7 7 C8.66885475 9.18546943 10.35009406 11.34957249 12.0625 13.5 C13.04170269 14.73825277 14.0208683 15.97653485 15 17.21484375 C15.49757813 17.84245605 15.99515625 18.47006836 16.5078125 19.11669922 C18.86621482 22.09325607 21.21514097 25.0772308 23.5625 28.0625 C24.24832153 28.93382568 24.24832153 28.93382568 24.94799805 29.82275391 C27.95529767 33.65003216 30.92182393 37.50581455 33.875 41.375 C38.17847049 47.00420869 42.6311869 52.50384053 47.11499023 57.98999023 C50.6067593 62.26759919 54.0437281 66.58186698 57.4375 70.9375 C69.06308608 85.82157909 81.14895774 100.41671992 93.875 114.375 C97.52965764 118.3957891 100.8485858 122.57566163 104 127 C102.68 127.99 101.36 128.98 100 130 C99.6184375 129.31035156 99.236875 128.62070313 98.84375 127.91015625 C96.66514026 124.47146079 94.16859796 121.50169843 91.5 118.4375 C90.97245117 117.82616211 90.44490234 117.21482422 89.90136719 116.58496094 C86.4213402 112.57306117 82.86170296 108.64329984 79.25 104.75 C74.56455917 99.69769206 70.23464483 94.4332943 66 89 C64.69007604 87.35211565 63.37754222 85.70630278 62.0625 84.0625 C61.39863281 83.23234375 60.73476562 82.4021875 60.05078125 81.546875 C57.96502453 78.9565638 55.86028147 76.38286086 53.75 73.8125 C37.6473228 54.143832 37.6473228 54.143832 31.76171875 45.5078125 C29.26512458 41.95390239 26.58749997 38.54500284 23.91723633 35.12133789 C20.22232036 30.35608322 16.72803598 25.46129495 13.3112793 20.49316406 C11.35249735 17.68947287 9.88502121 15.92334748 7 14 C6.67 13.01 6.34 12.02 6 11 C5.175 10.236875 4.35 9.47375 3.5 8.6875 C0.69510964 5.67224287 0.28137724 4.03307384 0 0 Z " fill="#675980" transform="translate(20,82)"/>
<path d="M0 0 C2.01136276 2.55991624 3.62845496 5.04590299 5 8 C5.99 7.67 6.98 7.34 8 7 C8.33 8.32 8.66 9.64 9 11 C8.01 11.495 8.01 11.495 7 12 C7.33 14.64 7.66 17.28 8 20 C9.65 19.67 11.3 19.34 13 19 C13 20.32 13 21.64 13 23 C12.34 23.33 11.68 23.66 11 24 C11.66 27.3 12.32 30.6 13 34 C11.515 34.495 11.515 34.495 10 35 C9.01 32.69 8.02 30.38 7 28 C5.35 28.66 3.7 29.32 2 30 C2.66 33.3 3.32 36.6 4 40 C2.515 40.495 2.515 40.495 1 41 C-2 35.25 -2 35.25 -2 33 C-3.98 33.495 -3.98 33.495 -6 34 C-6.66 33.01 -7.32 32.02 -8 31 C-7.01 30.34 -6.02 29.68 -5 29 C-5.66 26.69 -6.32 24.38 -7 22 C-8.32 22.33 -9.64 22.66 -11 23 C-11.33 21.68 -11.66 20.36 -12 19 C-11.34 18.67 -10.68 18.34 -10 18 C-10.45822468 14.53058454 -10.89131683 11.32604951 -12 8 C-10.68 7.67 -9.36 7.34 -8 7 C-6.74335022 9.90600261 -6 11.79604584 -6 15 C-4.02 13.68 -2.04 12.36 0 11 C-0.66 7.7 -1.32 4.4 -2 1 C-1.34 0.67 -0.68 0.34 0 0 Z " fill="#EFE5F3" transform="translate(149,75)"/>
<path d="M0 0 C0.99 0 1.98 0 3 0 C3 0.66 3 1.32 3 2 C3.66 2 4.32 2 5 2 C6.18359375 3.4609375 6.18359375 3.4609375 7.4375 5.375 C9.21688245 8.08590869 10.19194031 9.12796021 13 11 C13.6875 13.625 13.6875 13.625 14 16 C17.465 15.505 17.465 15.505 21 15 C21 14.34 21 13.68 21 13 C23.08203125 11.52734375 23.08203125 11.52734375 25.8125 9.9375 C26.70582031 9.41027344 27.59914062 8.88304687 28.51953125 8.33984375 C31 7 31 7 34 6 C34.66 5.34 35.32 4.68 36 4 C37.98821313 3.60235737 39.98944339 3.26224651 42 3 C39.64296297 6.53555555 37.74222272 7.12888864 34 9 C33.06776611 9.9580957 33.06776611 9.9580957 32.11669922 10.93554688 C29.85109477 13.14522983 27.86130806 14.25255911 25.0078125 15.59375 C10.90860932 21.96373774 10.90860932 21.96373774 2.703125 34.296875 C2.47109375 35.18890625 2.2390625 36.0809375 2 37 C1.72671875 37.72703125 1.4534375 38.4540625 1.171875 39.203125 C0.38651869 41.20473282 0.38651869 41.20473282 0 44 C0.66 44.99 1.32 45.98 2 47 C1.67 48.32 1.34 49.64 1 51 C-1.97 51 -4.94 51 -8 51 C-8.51432014 44.02810477 -8.18979821 38.75398954 -4 33 C0.42407141 27.93792209 5.11274538 23.30260625 11 20 C11.66 20 12.32 20 13 20 C11.12538832 16.58159047 8.92594002 13.59877165 6.5 10.5625 C3.80859637 7.15983748 1.73030278 3.96951814 0 0 Z " fill="#64468B" transform="translate(121,182)"/>
<path d="M0 0 C2.5 1.5 2.5 1.5 4 3 C3.34 4.32 2.68 5.64 2 7 C1.46375 6.67 0.9275 6.34 0.375 6 C-2.65665399 4.72351411 -4.73102046 4.66643066 -8 5 C-11.78710063 6.72140938 -13.47877132 8.15872394 -15 12 C-15.41714162 17.78650293 -13.84447626 22.05762743 -10.3515625 26.58984375 C-7.65025199 29.4082631 -6.02348231 29.99772752 -2.125 30.375 C0.98024863 30.28350096 2.10509776 29.94186081 4.9375 28.375 C8.05345075 24.7869355 8 21.60209372 8 17 C9.9375 16.4375 9.9375 16.4375 12 16 C13.53971828 17.53971828 13.31779707 18.98485671 13.4375 21.125 C13.37746741 25.83755848 12.04967035 28.2400696 8.77734375 31.55859375 C5.16499916 34.48816552 1.67359302 35.7151331 -2.9375 36.5 C-9.24547828 35.47012599 -13.64840804 31.93366882 -17.5 26.9375 C-20.83556305 21.48759097 -21.01034555 16.21273888 -20 10 C-17.88405579 5.06279685 -14.93627412 2.8227976 -10.15625 0.69140625 C-6.52064338 -0.47435891 -3.81016251 -0.44451896 0 0 Z " fill="#F5EDF9" transform="translate(128,94)"/>
<path d="M0 0 C3.36015685 0.56347384 4.73373553 1.42875997 6.8125 4.10546875 C7.32458008 4.75241699 7.83666016 5.39936523 8.36425781 6.06591797 C8.90405273 6.76604004 9.44384766 7.46616211 10 8.1875 C11.1598609 9.65360892 12.32135349 11.11842828 13.484375 12.58203125 C14.07025391 13.32275879 14.65613281 14.06348633 15.25976562 14.82666016 C17.85540121 18.06829147 20.54012457 21.22868461 23.25 24.375 C23.74387207 24.94968018 24.23774414 25.52436035 24.74658203 26.11645508 C27.73939103 29.58278454 30.78966795 32.9904217 33.875 36.375 C37.52965764 40.3957891 40.8485858 44.57566163 44 49 C42.68 49.99 41.36 50.98 40 52 C39.6184375 51.31035156 39.236875 50.62070313 38.84375 49.91015625 C36.66514026 46.47146079 34.16859796 43.50169843 31.5 40.4375 C30.97245117 39.82616211 30.44490234 39.21482422 29.90136719 38.58496094 C26.42133923 34.57306005 22.86167879 30.64332346 19.25 26.75 C14.56547311 21.69809184 10.21619438 16.447394 6 11 C5.32453125 10.13503906 4.6490625 9.27007812 3.953125 8.37890625 C2.2973549 6.25620898 0.64636968 4.12999077 -1 2 C-0.67 1.34 -0.34 0.68 0 0 Z " fill="#716689" transform="translate(80,160)"/>
<path d="M0 0 C0.33 0.66 0.66 1.32 1 2 C1.66 2.33 2.32 2.66 3 3 C2.34 3.33 1.68 3.66 1 4 C1.66 4.33 2.32 4.66 3 5 C3 5.66 3 6.32 3 7 C1.25197854 7.81674796 -0.49850189 8.62823451 -2.25 9.4375 C-3.22453125 9.88996094 -4.1990625 10.34242188 -5.203125 10.80859375 C-7.50316964 11.78836137 -9.5864167 12.42283878 -12 13 C-13.68496298 13.96885372 -15.35178756 14.96986723 -17 16 C-18.32608822 16.68096422 -19.65686601 17.35330586 -21 18 C-21.16169042 22.0404226 -21.16169042 22.0404226 -20 26 C-24.455 28.97 -24.455 28.97 -29 32 C-29.66 31.67 -30.32 31.34 -31 31 C-30.25961141 28.95482824 -29.50721341 26.91400236 -28.75 24.875 C-28.33234375 23.73804688 -27.9146875 22.60109375 -27.484375 21.4296875 C-23.71662411 12.72419993 -18.96716133 9.84828723 -10.75 5.625 C-9.71875 5.07972656 -8.6875 4.53445312 -7.625 3.97265625 C-5.09009577 2.63479013 -2.54873504 1.31126883 0 0 Z " fill="#D6D0DB" transform="translate(151,194)"/>
<path d="M0 0 C6.04406185 2.46239557 9.74556958 7.53720609 13 13 C13.75 15.375 13.75 15.375 14 17 C14.66 17 15.32 17 16 17 C17.65625 18.8984375 17.65625 18.8984375 19.5 21.375 C21.26366443 23.72904362 22.9191905 25.9191905 25 28 C25 28.99 25 29.98 25 31 C25.66 31 26.32 31 27 31 C28.57637006 32.94987565 30.05017239 34.89708766 31.5 36.9375 C34.19693381 41.06353603 34.19693381 41.06353603 38 44 C37.505 44.99 37.505 44.99 37 46 C37.66 46.99 38.32 47.98 39 49 C38.505 49.99 38.505 49.99 38 51 C32.13713727 44.55685393 26.79965415 37.7330771 21.45263672 30.86425781 C19.5445796 28.41553106 17.62910639 25.97268901 15.71142578 23.53149414 C14.78526647 22.35205531 13.86044151 21.17156734 12.93701172 19.98999023 C10.84653181 17.32025266 8.73515497 14.68159081 6.56640625 12.07421875 C5.84324219 11.20410156 5.12007812 10.33398438 4.375 9.4375 C3.74335937 8.69371094 3.11171875 7.94992188 2.4609375 7.18359375 C0.84204951 4.76391892 0.37266859 2.86551932 0 0 Z " fill="#5D3C76" transform="translate(33,71)"/>
<path d="M0 0 C2.01136276 2.55991624 3.62845496 5.04590299 5 8 C5.99 7.67 6.98 7.34 8 7 C8.33 8.32 8.66 9.64 9 11 C8.01 11.495 8.01 11.495 7 12 C6.34444881 14.52733235 6.34444881 14.52733235 6 17 C5.01 17 4.02 17 3 17 C3 16.34 3 15.68 3 15 C1.824375 15.7425 1.824375 15.7425 0.625 16.5 C-2 18 -2 18 -4 18 C-3.67 19.98 -3.34 21.96 -3 24 C-3.99 24 -4.98 24 -6 24 C-6.66 23.34 -7.32 22.68 -8 22 C-8.99 22.33 -9.98 22.66 -11 23 C-11.33 21.68 -11.66 20.36 -12 19 C-11.34 18.67 -10.68 18.34 -10 18 C-10.45822468 14.53058454 -10.89131683 11.32604951 -12 8 C-10.68 7.67 -9.36 7.34 -8 7 C-6.74335022 9.90600261 -6 11.79604584 -6 15 C-4.02 13.68 -2.04 12.36 0 11 C-0.66 7.7 -1.32 4.4 -2 1 C-1.34 0.67 -0.68 0.34 0 0 Z " fill="#F1E9F5" transform="translate(149,75)"/>
<path d="M0 0 C-0.3125 1.875 -0.3125 1.875 -1 4 C-1.99 4.66 -2.98 5.32 -4 6 C-4.48138428 6.49411377 -4.96276855 6.98822754 -5.45874023 7.49731445 C-11.17780328 13.07324239 -22.17082635 17.55669306 -30.0625 17.5 C-31.361875 17.335 -32.66125 17.17 -34 17 C-28.73665688 12.60353236 -23.00693676 9.51152294 -17 6.25 C-15.91976562 5.64800781 -14.83953125 5.04601562 -13.7265625 4.42578125 C-12.68242187 3.85730469 -11.63828125 3.28882813 -10.5625 2.703125 C-9.61503906 2.18395508 -8.66757813 1.66478516 -7.69140625 1.12988281 C-4.88430711 -0.04856919 -3.00867383 -0.23616178 0 0 Z " fill="#C8C2C9" transform="translate(240,148)"/>
<path d="M0 0 C0.99 0.33 1.98 0.66 3 1 C1.89140625 1.60328125 0.7828125 2.2065625 -0.359375 2.828125 C-1.82311433 3.63505822 -3.28664508 4.44236986 -4.75 5.25 C-5.47960937 5.64574219 -6.20921875 6.04148438 -6.9609375 6.44921875 C-7.66992188 6.84238281 -8.37890625 7.23554688 -9.109375 7.640625 C-9.75874023 7.99672852 -10.40810547 8.35283203 -11.07714844 8.71972656 C-13.10783503 9.97404131 -13.10783503 9.97404131 -14.88745117 11.94482422 C-17.3111948 14.3027433 -19.70365996 15.66380099 -22.69140625 17.2421875 C-23.80193359 17.83386719 -24.91246094 18.42554688 -26.05664062 19.03515625 C-27.21357422 19.64230469 -28.37050781 20.24945313 -29.5625 20.875 C-31.83476704 22.08048109 -34.10690368 23.28620802 -36.37890625 24.4921875 C-37.48379395 25.07323242 -38.58868164 25.65427734 -39.72705078 26.25292969 C-43.81888053 28.43711092 -47.85041069 30.72294054 -51.87084961 33.03564453 C-52.57346924 33.35388184 -53.27608887 33.67211914 -54 34 C-54.66 33.67 -55.32 33.34 -56 33 C-55.4225 32.66226563 -54.845 32.32453125 -54.25 31.9765625 C-53.5075 31.53054687 -52.765 31.08453125 -52 30.625 C-51.2575 30.18414062 -50.515 29.74328125 -49.75 29.2890625 C-49.1725 28.86367187 -48.595 28.43828125 -48 28 C-48 27.34 -48 26.68 -48 26 C-47.030625 25.52691406 -46.06125 25.05382812 -45.0625 24.56640625 C-37.23376585 20.71565935 -29.54421251 16.69956949 -21.96655273 12.37524414 C-16.56952676 9.29933308 -11.10847275 6.35954371 -5.60717773 3.47460938 C-2.61189011 2.0141295 -2.61189011 2.0141295 0 0 Z " fill="#4F376A" transform="translate(210,158)"/>
<path d="M0 0 C2 1 2 1 3 3 C3.78375 2.484375 4.5675 1.96875 5.375 1.4375 C6.674375 0.7259375 6.674375 0.7259375 8 0 C8.66 0.33 9.32 0.66 10 1 C8.56839732 2.00842453 7.12948547 3.00647891 5.6875 4 C4.88699219 4.556875 4.08648437 5.11375 3.26171875 5.6875 C1 7 1 7 -2 7 C-1.67 7.99 -1.34 8.98 -1 10 C-1.81726563 10.07089844 -2.63453125 10.14179688 -3.4765625 10.21484375 C-7.99170032 11.22098865 -11.41960133 13.22716968 -15.375 15.5625 C-16.11105469 15.98724609 -16.84710938 16.41199219 -17.60546875 16.84960938 C-19.40839699 17.89156141 -21.20487053 18.94466854 -23 20 C-23 19.01 -23 18.02 -23 17 C-22.360625 16.71125 -21.72125 16.4225 -21.0625 16.125 C-18.84793921 15.17176549 -18.84793921 15.17176549 -18 13 C-18.99 12.67 -19.98 12.34 -21 12 C-18.79283537 10.72710095 -16.58432515 9.4566395 -14.375 8.1875 C-13.75753906 7.83107422 -13.14007813 7.47464844 -12.50390625 7.10742188 C-8.7262059 4.94021483 -4.89660942 2.94830471 -1 1 C-0.67 0.67 -0.34 0.34 0 0 Z " fill="#341D4B" transform="translate(208,176)"/>
<path d="M0 0 C1.11375 0.556875 1.11375 0.556875 2.25 1.125 C0.25 3.125 0.25 3.125 -1.75 4.125 C-2.74 4.785 -3.73 5.445 -4.75 6.125 C-6.2182692 6.61712706 -7.69891272 7.07325491 -9.1875 7.5 C-12.95409659 8.71266037 -15.31339895 9.8761986 -17.75 13.125 C-18.08 14.115 -18.41 15.105 -18.75 16.125 C-19.74 16.455 -20.73 16.785 -21.75 17.125 C-24.75 10.5 -24.75 10.5 -24.75 7.125 C-23.5125 6.856875 -22.275 6.58875 -21 6.3125 C-17.55966646 5.4675058 -15.56137066 4.28038417 -12.75 2.125 C-10.75714063 1.75133887 -8.75636471 1.41759485 -6.75 1.125 C-6.069375 0.733125 -5.38875 0.34125 -4.6875 -0.0625 C-2.75 -0.875 -2.75 -0.875 0 0 Z " fill="#DDD6E1" transform="translate(152.75,202.875)"/>
<path d="M0 0 C0.33 0.66 0.66 1.32 1 2 C1.99 2.33 2.98 2.66 4 3 C4.07427838 6.34252724 4.06546953 8.8035914 3 12 C3.99 13.485 3.99 13.485 5 15 C4.67 16.32 4.34 17.64 4 19 C1.03 19 -1.94 19 -5 19 C-5.51907013 11.96371602 -4.88567332 6.97675857 -1 1 C-0.67 0.67 -0.34 0.34 0 0 Z " fill="#6C6473" transform="translate(118,214)"/>
<path d="M0 0 C3 3.75 3 3.75 3 6 C3.99 6 4.98 6 6 6 C6 6.66 6 7.32 6 8 C4 9.625 4 9.625 2 11 C2.99 11.66 3.98 12.32 5 13 C3.625 14.5 3.625 14.5 2 16 C1.34 16 0.68 16 0 16 C0 16.66 0 17.32 0 18 C-2.31 18.66 -4.62 19.32 -7 20 C-7 19.34 -7 18.68 -7 18 C-7.66 17.67 -8.32 17.34 -9 17 C-8.34 17 -7.68 17 -7 17 C-6.9175 16.34 -6.835 15.68 -6.75 15 C-5.75240209 11.00960837 -3.92833317 7.61450357 -2 4 C-2.99 3.67 -3.98 3.34 -5 3 C-3.35 2.01 -1.7 1.02 0 0 Z " fill="#9971AD" transform="translate(242,144)"/>
<path d="M0 0 C4.0668472 1.35561573 4.71737463 3.41481226 7 7 C8.6688428 9.18545378 10.35048987 11.34928149 12.0625 13.5 C12.76789917 14.39489136 12.76789917 14.39489136 13.48754883 15.30786133 C16.02692823 18.52721374 18.58614173 21.729404 21.1640625 24.91796875 C21.6705835 25.54960938 22.17710449 26.18125 22.69897461 26.83203125 C23.67543786 28.04920703 24.65784639 29.26164209 25.64672852 30.46875 C29 34.66233425 29 34.66233425 29 38 C27.62437146 36.71034824 26.29233607 35.37310707 25 34 C25 33.34 25 32.68 25 32 C24.39551025 31.90323975 23.79102051 31.80647949 23.16821289 31.70678711 C20.52460244 30.84503142 19.8694132 29.9556852 18.30859375 27.69140625 C17.83873047 27.02689453 17.36886719 26.36238281 16.88476562 25.67773438 C16.40716797 24.97970703 15.92957031 24.28167969 15.4375 23.5625 C14.48248269 22.1855875 13.52300958 20.81175227 12.55859375 19.44140625 C12.13892334 18.82982666 11.71925293 18.21824707 11.28686523 17.58813477 C9.90514066 15.72208489 9.90514066 15.72208489 7 14 C6.67 13.01 6.34 12.02 6 11 C5.175 10.236875 4.35 9.47375 3.5 8.6875 C0.69510964 5.67224287 0.28137724 4.03307384 0 0 Z " fill="#55456B" transform="translate(20,82)"/>
<path d="M0 0 C0.66 0.33 1.32 0.66 2 1 C0.25615558 1.98211606 -1.48785755 2.96393361 -3.23266602 3.94433594 C-4.71090732 4.77782113 -6.1866409 5.61576862 -7.65991211 6.45800781 C-11.40395199 8.58988673 -15.1234229 10.50006157 -19.0625 12.25 C-24.92568871 15.39582625 -27.36135986 22.20517293 -30 28 C-30.33 27.01 -30.66 26.02 -31 25 C-31.66 24.67 -32.32 24.34 -33 24 C-32.14357651 18.23533435 -27.40669398 15.33173612 -23 12 C-19.12762064 9.58463392 -15.13713101 7.4890806 -11.0625 5.4375 C-10.02287109 4.89287109 -8.98324219 4.34824219 -7.91210938 3.78710938 C-2.26569212 0.8885907 -2.26569212 0.8885907 0 0 Z " fill="#5C5662" transform="translate(152,192)"/>
<path d="M0 0 C6.04406185 2.46239557 9.74556958 7.53720609 13 13 C13.35858516 14.32676508 13.7018576 15.65835921 14 17 C14.66 17.33 15.32 17.66 16 18 C16.268125 18.721875 16.53625 19.44375 16.8125 20.1875 C18.33224375 23.7868931 20.41732837 26.07750315 23 29 C22.67 29.66 22.34 30.32 22 31 C16.73766318 24.78596397 11.53614978 18.52421293 6.5 12.125 C5.27796875 10.58199219 5.27796875 10.58199219 4.03125 9.0078125 C2.0214406 6.03174858 0.9464983 3.44648838 0 0 Z " fill="#533770" transform="translate(33,71)"/>
<path d="M0 0 C4.24846075 0.47205119 6.26819288 2.88877522 9 6 C9 6.66 9 7.32 9 8 C9.55171875 8.05027344 10.1034375 8.10054687 10.671875 8.15234375 C14.06712546 9.38853394 15.95612752 11.8918723 18.25 14.5625 C18.70890625 15.08263672 19.1678125 15.60277344 19.640625 16.13867188 C20.7682143 17.41895555 21.88517315 18.70858798 23 20 C21.68 21.32 20.36 22.64 19 24 C18.62746094 23.319375 18.25492188 22.63875 17.87109375 21.9375 C15.569343 18.32389549 12.88272471 15.21526228 10.0625 12 C9.01095263 10.79233332 7.96015675 9.58401184 6.91015625 8.375 C6.41402832 7.80394531 5.91790039 7.23289063 5.40673828 6.64453125 C3.54917563 4.47296894 1.76575489 2.24655079 0 0 Z " fill="#786F92" transform="translate(101,188)"/>
<path d="M0 0 C-23.4305835 13.47686117 -23.4305835 13.47686117 -28 15 C-28.33 14.01 -28.66 13.02 -29 12 C-28.34 11.525625 -27.68 11.05125 -27 10.5625 C-26.34 10.046875 -25.68 9.53125 -25 9 C-25 8.67 -25 8.34 -25 8 C-23.783125 7.7525 -22.56625 7.505 -21.3125 7.25 C-17.36590207 6.28419522 -15.12128512 4.61513078 -12 2 C-9.4375 1.375 -9.4375 1.375 -7 1 C-6.29875 0.62875 -5.5975 0.2575 -4.875 -0.125 C-3 -1 -3 -1 0 0 Z " fill="#D2C7DD" transform="translate(163,203)"/>
<path d="M0 0 C0.66 0 1.32 0 2 0 C2.721875 0.78375 3.44375 1.5675 4.1875 2.375 C7.55551466 5.51848035 9.58355591 6.04743363 14 7 C14 7.33 14 7.66 14 8 C12.35 8 10.7 8 9 8 C9 8.99 9 9.98 9 11 C10.65 11 12.3 11 14 11 C14 11.33 14 11.66 14 12 C8.81905476 12.64761816 5.97561093 11.14747663 1.734375 8.484375 C-0.20447599 6.82499803 -1.02183877 5.33560948 -2 3 C-1.34 2.01 -0.68 1.02 0 0 Z " fill="#E8E0EF" transform="translate(114,118)"/>
<path d="M0 0 C2.87030999 2.46026571 4.90326143 4.85489214 7 8 C5.824375 8.185625 5.824375 8.185625 4.625 8.375 C1.85942178 8.79117993 1.85942178 8.79117993 0 11 C-3.61139896 7.12435233 -3.61139896 7.12435233 -5 5 C-4.8125 2.625 -4.8125 2.625 -4 1 C-2.3125 0.1875 -2.3125 0.1875 0 0 Z " fill="#F0EAF1" transform="translate(169,81)"/>
<path d="M0 0 C0.66 0.33 1.32 0.66 2 1 C1.67 1.99 1.34 2.98 1 4 C0.34 4 -0.32 4 -1 4 C-1.33 4.99 -1.66 5.98 -2 7 C-4.50390625 8.60546875 -4.50390625 8.60546875 -7.5625 10.1875 C-8.57441406 10.71730469 -9.58632812 11.24710938 -10.62890625 11.79296875 C-11.41136719 12.19128906 -12.19382813 12.58960938 -13 13 C-13.66 12.34 -14.32 11.68 -15 11 C-13.68 10.67 -12.36 10.34 -11 10 C-10.87431641 9.09314453 -10.87431641 9.09314453 -10.74609375 8.16796875 C-9.77563286 5.34804313 -8.61692493 4.7767906 -6.0625 3.3125 C-5.35222656 2.89613281 -4.64195312 2.47976562 -3.91015625 2.05078125 C-2.62062155 1.34140531 -1.31639324 0.65819662 0 0 Z " fill="#BFB9C6" transform="translate(234,157)"/>
<path d="M0 0 C-0.3125 1.875 -0.3125 1.875 -1 4 C-1.99 4.66 -2.98 5.32 -4 6 C-4.33 6.66 -4.66 7.32 -5 8 C-5.99 8 -6.98 8 -8 8 C-8 7.34 -8 6.68 -8 6 C-9.32 6 -10.64 6 -12 6 C-12.33 6.66 -12.66 7.32 -13 8 C-13.66 7.67 -14.32 7.34 -15 7 C-15 7.66 -15 8.32 -15 9 C-15.99 8.67 -16.98 8.34 -18 8 C-12.97301781 3.60139058 -6.99093436 -0.8738668 0 0 Z " fill="#BFB3BA" transform="translate(240,148)"/>
<path d="M0 0 C1.18198059 2.50301771 2.0172568 4.39601183 1.9375 7.1875 C1 9 1 9 -1.5625 10.25 C-2.366875 10.4975 -3.17125 10.745 -4 11 C-7 5.25 -7 5.25 -7 3 C-2.61538462 0 -2.61538462 0 0 0 Z " fill="#463060" transform="translate(152,90)"/>
<path d="M0 0 C0.33 0.66 0.66 1.32 1 2 C-0.98 4.97 -2.96 7.94 -5 11 C-6.65 10.67 -8.3 10.34 -10 10 C-10 8.35 -10 6.7 -10 5 C-6.7 3.35 -3.4 1.7 0 0 Z " fill="#E7E3EA" transform="translate(22,76)"/>
<path d="M0 0 C0 0.99 0 1.98 0 3 C-1.63064764 4.05771739 -3.30280873 5.05273046 -5 6 C-5.53625 6.53625 -6.0725 7.0725 -6.625 7.625 C-8 9 -8 9 -11 10 C-11.33 9.34 -11.66 8.68 -12 8 C-11.34 8 -10.68 8 -10 8 C-10.185625 7.030625 -10.37125 6.06125 -10.5625 5.0625 C-10.706875 4.051875 -10.85125 3.04125 -11 2 C-8.56079856 -0.43920144 -3.28707881 0 0 0 Z " fill="#D3CDD6" transform="translate(214,164)"/>
<path d="M0 0 C-2.97 1.65 -5.94 3.3 -9 5 C-8.67 5.66 -8.34 6.32 -8 7 C-11.96 8.98 -11.96 8.98 -16 11 C-16 10.34 -16 9.68 -16 9 C-16.66 8.67 -17.32 8.34 -18 8 C-14.25 5 -14.25 5 -12 5 C-12.33 3.68 -12.66 2.36 -13 1 C-12.01 0.67 -11.02 0.34 -10 0 C-10 0.66 -10 1.32 -10 2 C-8.906875 1.484375 -7.81375 0.96875 -6.6875 0.4375 C-3 -1 -3 -1 0 0 Z " fill="#3D2255" transform="translate(174,202)"/>
<path d="M0 0 C-0.66 0.61875 -1.32 1.2375 -2 1.875 C-4.2284549 3.75637427 -4.2284549 3.75637427 -4 6 C-5.64453125 7.32421875 -5.64453125 7.32421875 -7.8125 8.6875 C-8.52019531 9.14511719 -9.22789062 9.60273438 -9.95703125 10.07421875 C-12 11 -12 11 -15 10 C-13.73046875 8.53515625 -12.4609375 7.0703125 -11.19140625 5.60546875 C-9.79128769 3.89287029 -9.79128769 3.89287029 -9 1 C-3.79245283 -1.26415094 -3.79245283 -1.26415094 0 0 Z " fill="#DCD6E5" transform="translate(196,180)"/>
<path d="M0 0 C0.99 0 1.98 0 3 0 C3 0.66 3 1.32 3 2 C3.66 2 4.32 2 5 2 C6.296875 3.50390625 6.296875 3.50390625 7.75 5.5625 C10.27555109 9.08579967 12.98196486 12.24704141 15.99609375 15.359375 C17 17 17 17 16.66015625 19.203125 C16.44230469 19.79609375 16.22445312 20.3890625 16 21 C0 1.58956916 0 1.58956916 0 0 Z " fill="#766992" transform="translate(62,140)"/>
<path d="M0 0 C0.99 0.33 1.98 0.66 3 1 C2.64776076 3.74159541 2.30212174 4.75717901 0.109375 6.51953125 C-1.05851563 7.15955078 -1.05851563 7.15955078 -2.25 7.8125 C-3.01828125 8.25207031 -3.7865625 8.69164062 -4.578125 9.14453125 C-7.46838261 10.16544482 -9.09409294 9.83982775 -12 9 C-4.6 3 -4.6 3 -1 3 C-0.67 2.01 -0.34 1.02 0 0 Z " fill="#3E215B" transform="translate(237,163)"/>
<path d="M0 0 C4.07669984 1.35889995 4.72793691 3.39142922 7 7 C8.64470812 9.34958303 10.3241388 11.672415 12 14 C11.34 14.66 10.68 15.32 10 16 C7 14 7 14 6 11 C5.175 10.236875 4.35 9.47375 3.5 8.6875 C0.69510964 5.67224287 0.28137724 4.03307384 0 0 Z " fill="#574770" transform="translate(20,82)"/>
<path d="M0 0 C2.50768524 0.61790086 4.37069054 0.43531302 6.921875 0.09765625 C7.72109375 -0.00417969 8.5203125 -0.10601562 9.34375 -0.2109375 C9.94703125 -0.29472656 10.5503125 -0.37851563 11.171875 -0.46484375 C10.511875 0.85515625 9.851875 2.17515625 9.171875 3.53515625 C8.511875 3.53515625 7.851875 3.53515625 7.171875 3.53515625 C7.171875 4.19515625 7.171875 4.85515625 7.171875 5.53515625 C4.531875 5.86515625 1.891875 6.19515625 -0.828125 6.53515625 C-0.168125 5.54515625 0.491875 4.55515625 1.171875 3.53515625 C-0.478125 3.53515625 -2.128125 3.53515625 -3.828125 3.53515625 C-3.828125 2.54515625 -3.828125 1.55515625 -3.828125 0.53515625 C-1.828125 -0.46484375 -1.828125 -0.46484375 0 0 Z " fill="#E2DBE6" transform="translate(174.828125,185.46484375)"/>
<path d="M0 0 C2 1 2 1 3 3 C3.78375 2.484375 4.5675 1.96875 5.375 1.4375 C6.674375 0.7259375 6.674375 0.7259375 8 0 C8.66 0.33 9.32 0.66 10 1 C8.56839732 2.00842453 7.12948547 3.00647891 5.6875 4 C4.88699219 4.556875 4.08648437 5.11375 3.26171875 5.6875 C1 7 1 7 -2 7 C-1.67 7.99 -1.34 8.98 -1 10 C-1.9075 10.144375 -2.815 10.28875 -3.75 10.4375 C-6.21476956 10.86409473 -8.58847107 11.35074221 -11 12 C-8.89172965 9.73556148 -7.10393424 8.05691637 -4.375 6.5625 C-1.52647702 4.68847173 -0.95510587 3.21262885 0 0 Z " fill="#44265C" transform="translate(208,176)"/>
<path d="M0 0 C0.33 0.66 0.66 1.32 1 2 C1.66 2.33 2.32 2.66 3 3 C1.10807525 3.98669759 -0.78871978 4.9640602 -2.6875 5.9375 C-3.74324219 6.48277344 -4.79898438 7.02804688 -5.88671875 7.58984375 C-8.66234047 8.8470576 -11.00272126 9.56069569 -14 10 C-14.33 9.34 -14.66 8.68 -15 8 C-10.05 5.36 -5.1 2.72 0 0 Z " fill="#D2C9D9" transform="translate(151,194)"/>
<path d="M0 0 C0.66 0.33 1.32 0.66 2 1 C-6.96664158 6.0627211 -15.94014779 11.10537645 -25 16 C-23.52006835 12.04907297 -21.52723839 10.86133803 -17.84375 8.94921875 C-16.82152344 8.41619141 -15.79929688 7.88316406 -14.74609375 7.33398438 C-13.67488281 6.79064453 -12.60367188 6.24730469 -11.5 5.6875 C-10.42878906 5.12482422 -9.35757813 4.56214844 -8.25390625 3.98242188 C-2.35710075 0.94478626 -2.35710075 0.94478626 0 0 Z " fill="#37254B" transform="translate(152,192)"/>
<path d="M0 0 C4.35640775 3.16829655 7.39576574 6.75941216 10.625 11 C11.10195312 11.61617187 11.57890625 12.23234375 12.0703125 12.8671875 C14.40674499 15.89156956 16.71674545 18.9352288 19 22 C18.67 22.66 18.34 23.32 18 24 C17.34 24 16.68 24 16 24 C15.77570313 23.30261719 15.55140625 22.60523438 15.3203125 21.88671875 C13.70600605 18.35721442 11.41782807 15.69365954 8.875 12.8125 C4 7.25929752 4 7.25929752 4 5 C3.34 5 2.68 5 2 5 C1.34 3.35 0.68 1.7 0 0 Z " fill="#65587B" transform="translate(63,137)"/>
<path d="M0 0 C0 0.66 0 1.32 0 2 C-3.2878978 3.84015498 -6.58091326 5.67095047 -9.875 7.5 C-10.81214844 8.02464844 -11.74929687 8.54929688 -12.71484375 9.08984375 C-13.61074219 9.58613281 -14.50664062 10.08242187 -15.4296875 10.59375 C-16.25710449 11.05458984 -17.08452148 11.51542969 -17.93701172 11.99023438 C-20 13 -20 13 -22 13 C-22 12.34 -22 11.68 -22 11 C-18.37 9.02 -14.74 7.04 -11 5 C-11 4.34 -11 3.68 -11 3 C-9.6078125 2.814375 -9.6078125 2.814375 -8.1875 2.625 C-5.03685323 2.00722612 -3.08513228 0 0 0 Z " fill="#36144D" transform="translate(228,172)"/>
<path d="M0 0 C0.66 0.99 1.32 1.98 2 3 C-1 5 -1 5 -5 5 C-5.33 5.99 -5.66 6.98 -6 8 C-6 7.34 -6 6.68 -6 6 C-7.65 6 -9.3 6 -11 6 C-11 5.34 -11 4.68 -11 4 C-7.44239635 1.38411497 -4.35522853 0.50642192 0 0 Z " fill="#D6CBD6" transform="translate(182,179)"/>
<path d="M0 0 C2.53910197 0.38520564 3.72751123 0.70097943 5.484375 2.62890625 C5.90203125 3.26699219 6.3196875 3.90507812 6.75 4.5625 C7.17796875 5.20316406 7.6059375 5.84382812 8.046875 6.50390625 C8.36140625 6.99761719 8.6759375 7.49132812 9 8 C8.34 9.32 7.68 10.64 7 12 C4.36 8.7 1.72 5.4 -1 2 C-0.67 1.34 -0.34 0.68 0 0 Z " fill="#7C6C92" transform="translate(80,160)"/>
<path d="M0 0 C1.9375 0.5625 1.9375 0.5625 4 2 C4.75 5.625 4.75 5.625 5 9 C4.01 9 3.02 9 2 9 C1.34 8.34 0.68 7.68 0 7 C-0.99 7.33 -1.98 7.66 -3 8 C-3.33 6.68 -3.66 5.36 -4 4 C-2.68 3.67 -1.36 3.34 0 3 C0 2.01 0 1.02 0 0 Z " fill="#FCF4FB" transform="translate(141,90)"/>
<path d="M0 0 C1.9375 0.75 1.9375 0.75 4 2 C4.625 4.0625 4.625 4.0625 5 6 C5.66 6.33 6.32 6.66 7 7 C7.268125 7.721875 7.53625 8.44375 7.8125 9.1875 C9.33224375 12.7868931 11.41732837 15.07750315 14 18 C13.67 18.66 13.34 19.32 13 20 C11.36683159 18.11070739 9.74358315 16.21422373 8.125 14.3125 C7.43470703 13.51682617 7.43470703 13.51682617 6.73046875 12.70507812 C4.10813645 9.60768562 2.25064084 6.86382196 1 3 C0.67 2.01 0.34 1.02 0 0 Z " fill="#583C77" transform="translate(42,82)"/>
<path d="M0 0 C0.99 0 1.98 0 3 0 C4.60546875 1.75 4.60546875 1.75 6.1875 4 C6.71730469 4.7425 7.24710938 5.485 7.79296875 6.25 C8.19128906 6.8275 8.58960938 7.405 9 8 C6.03 7.67 3.06 7.34 0 7 C-1 3 -1 3 0 0 Z " fill="#EDE5F2" transform="translate(154,67)"/>
<path d="M0 0 C2.64752004 2.57784846 4.94432065 4.91648098 7 8 C7 8.99 7 9.98 7 11 C4.51339545 10.6121322 3.27654781 10.29037521 1.515625 8.44140625 C1.09796875 7.82136719 0.6803125 7.20132813 0.25 6.5625 C-0.17796875 5.94503906 -0.6059375 5.32757813 -1.046875 4.69140625 C-2 3 -2 3 -2 1 C-1.34 0.67 -0.68 0.34 0 0 Z " fill="#6F6087" transform="translate(57,129)"/>
<path d="M0 0 C2 3.75 2 3.75 2 6 C0.71349294 6.69710731 -0.57940665 7.38242876 -1.875 8.0625 C-2.59429687 8.44535156 -3.31359375 8.82820312 -4.0546875 9.22265625 C-4.69664062 9.47917969 -5.33859375 9.73570312 -6 10 C-6.66 9.67 -7.32 9.34 -8 9 C-6.68 8.01 -5.36 7.02 -4 6 C-4.99 5.34 -5.98 4.68 -7 4 C-4.69 2.68 -2.38 1.36 0 0 Z " fill="#C1BAC4" transform="translate(202,166)"/>
<path d="M0 0 C1.66666667 1.66666667 3.33333333 3.33333333 5 5 C5.928125 5.86625 6.85625 6.7325 7.8125 7.625 C10 10 10 10 10 13 C10.66 13 11.32 13 12 13 C12.33 14.32 12.66 15.64 13 17 C10.625 16.3125 10.625 16.3125 8 15 C7.27544365 13.35767228 6.62225605 11.68375165 6 10 C4.47969986 7.86502326 2.87837945 5.81672835 1.2421875 3.76953125 C0 2 0 2 0 0 Z " fill="#664087" transform="translate(48,89)"/>
<path d="M0 0 C0.66 0 1.32 0 2 0 C3.5078125 1.75 3.5078125 1.75 5.125 4 C5.66382812 4.7425 6.20265625 5.485 6.7578125 6.25 C7.16773437 6.8275 7.57765625 7.405 8 8 C6.68 8.99 5.36 9.98 4 11 C3.525625 10.195625 3.05125 9.39125 2.5625 8.5625 C1.23099846 6.15246512 1.23099846 6.15246512 0 5 C-0.04063832 3.33382885 -0.042721 1.66611905 0 0 Z " fill="#837991" transform="translate(116,201)"/>
<path d="M0 0 C3.1875 0.875 3.1875 0.875 6 2 C2.25572134 6.19813062 -0.8403063 8.07776117 -6 10 C-5 7 -5 7 -3 5.9375 C-2.34 5.628125 -1.68 5.31875 -1 5 C-0.67 4.34 -0.34 3.68 0 3 C-0.99 2.67 -1.98 2.34 -3 2 C-2.01 1.34 -1.02 0.68 0 0 Z " fill="#412857" transform="translate(190,186)"/>
<path d="M0 0 C0.33 0.99 0.66 1.98 1 3 C-4.75 6 -4.75 6 -7 6 C-7 5.34 -7 4.68 -7 4 C-8.32 4.33 -9.64 4.66 -11 5 C-11 4.01 -11 3.02 -11 2 C-9.68 2.33 -8.36 2.66 -7 3 C-7 2.34 -7 1.68 -7 1 C-4 0 -4 0 0 0 Z " fill="#CAC3C8" transform="translate(232,154)"/>
<path d="M0 0 C0.33 1.32 0.66 2.64 1 4 C-2.72965139 6.03435531 -4.66905042 7 -9 7 C-9 6.01 -9 5.02 -9 4 C-2.25 0 -2.25 0 0 0 Z " fill="#2B1D45" transform="translate(235,162)"/>
<path d="M0 0 C0.66 0.33 1.32 0.66 2 1 C1.67 1.66 1.34 2.32 1 3 C0.01 3.33 -0.98 3.66 -2 4 C-1.67 4.66 -1.34 5.32 -1 6 C-4.82320557 7.42258812 -7.91281305 8.24042276 -12 8 C-12 7.34 -12 6.68 -12 6 C-10.948125 5.566875 -9.89625 5.13375 -8.8125 4.6875 C-6.42053124 3.67551322 -4.41179855 2.63400799 -2.1875 1.25 C-1.1046875 0.63125 -1.1046875 0.63125 0 0 Z " fill="#C2BDC8" transform="translate(189,178)"/>
<path d="M0 0 C5.65596939 4.24197704 9.71924631 9.4045986 14 15 C13.01 15.495 13.01 15.495 12 16 C11.60167969 15.50628906 11.20335938 15.01257813 10.79296875 14.50390625 C9.99826172 13.54291016 9.99826172 13.54291016 9.1875 12.5625 C8.66542969 11.92441406 8.14335938 11.28632813 7.60546875 10.62890625 C5.99165589 8.7451725 5.99165589 8.7451725 3 8 C1.76132839 5.38502661 0.91496017 2.74488051 0 0 Z " fill="#665C7C" transform="translate(98,180)"/>
<path d="M0 0 C0.66 0.33 1.32 0.66 2 1 C-8.38851351 8.13344595 -8.38851351 8.13344595 -13 10 C-13.99 9.67 -14.98 9.34 -16 9 C-4.15114423 1.7642363 -4.15114423 1.7642363 0 0 Z " fill="#2F0F46" transform="translate(180,198)"/>
<path d="M0 0 C-1 3 -1 3 -2.84765625 4.16796875 C-3.57855469 4.50441406 -4.30945313 4.84085938 -5.0625 5.1875 C-5.79597656 5.53167969 -6.52945313 5.87585938 -7.28515625 6.23046875 C-8.13400391 6.61138672 -8.13400391 6.61138672 -9 7 C-9.33 5.68 -9.66 4.36 -10 3 C-6.27034861 0.96564469 -4.33094958 0 0 0 Z " fill="#301A41" transform="translate(190,189)"/>
<path d="M0 0 C-1 1.5 -1 1.5 -3 3 C-5.71846235 3.27345479 -8.25677199 3.13491285 -11 3 C-11 2.01 -11 1.02 -11 0 C-7.01803543 -1.05404945 -4.01804691 -0.84098656 0 0 Z " fill="#FBF4FC" transform="translate(134,126)"/>
<path d="M0 0 C0.99 0.33 1.98 0.66 3 1 C-1.95 3.64 -6.9 6.28 -12 9 C-11.67 7.35 -11.34 5.7 -11 4 C-10.37351563 3.79503906 -9.74703125 3.59007812 -9.1015625 3.37890625 C-8.28429687 3.10949219 -7.46703125 2.84007812 -6.625 2.5625 C-5.81289062 2.29566406 -5.00078125 2.02882812 -4.1640625 1.75390625 C-1.98968201 1.04820271 -1.98968201 1.04820271 0 0 Z " fill="#BAACC3" transform="translate(160,202)"/>
<path d="M0 0 C3.96 0.99 3.96 0.99 8 2 C8 2.33 8 2.66 8 3 C6.35 3 4.7 3 3 3 C3 3.99 3 4.98 3 6 C4.65 6 6.3 6 8 6 C8 6.33 8 6.66 8 7 C4.63295715 7.2295711 2.58629732 7.33943529 -0.375 5.625 C-0.91125 5.08875 -1.4475 4.5525 -2 4 C-2 3.34 -2 2.68 -2 2 C-1.34 2 -0.68 2 0 2 C0 1.34 0 0.68 0 0 Z " fill="#DFD3E7" transform="translate(120,123)"/>
<path d="M0 0 C-0.54087318 3.78611227 -2.11722332 5.55400767 -5 8 C-5.66 8 -6.32 8 -7 8 C-7.3125 5.6875 -7.3125 5.6875 -7 3 C-4.6167054 1.18116991 -3.04181663 0 0 0 Z " fill="#392354" transform="translate(107,84)"/>
<path d="M0 0 C-1.43457328 0.9834496 -2.87277406 1.96160921 -4.3125 2.9375 C-5.11300781 3.48277344 -5.91351563 4.02804688 -6.73828125 4.58984375 C-9 6 -9 6 -12 7 C-12.66 6.34 -13.32 5.68 -14 5 C-13.05125 4.54625 -12.1025 4.0925 -11.125 3.625 C-7.99686321 2.19761746 -7.99686321 2.19761746 -6 0 C-2.44444444 -1.22222222 -2.44444444 -1.22222222 0 0 Z " fill="#5A3D80" transform="translate(163,186)"/>
<path d="M0 0 C0.66 0.99 1.32 1.98 2 3 C0.71475739 3.86380259 -0.57842419 4.71580369 -1.875 5.5625 C-2.59429687 6.03816406 -3.31359375 6.51382813 -4.0546875 7.00390625 C-4.69664062 7.33261719 -5.33859375 7.66132813 -6 8 C-6.66 7.67 -7.32 7.34 -8 7 C-7.67 6.01 -7.34 5.02 -7 4 C-6.34 4 -5.68 4 -5 4 C-4.67 3.01 -4.34 2.02 -4 1 C-1.9375 0.3125 -1.9375 0.3125 0 0 Z " fill="#DCD2DC" transform="translate(197,170)"/>
<path d="M0 0 C0.99 0.66 1.98 1.32 3 2 C1.52307692 6.67692308 1.52307692 6.67692308 -1.125 8.3125 C-2.053125 8.6528125 -2.053125 8.6528125 -3 9 C-3.33 7.68 -3.66 6.36 -4 5 C-3.34 5 -2.68 5 -2 5 C-1.34 3.35 -0.68 1.7 0 0 Z " fill="#3D225E" transform="translate(161,81)"/>
<path d="M0 0 C0.99 0.33 1.98 0.66 3 1 C3.33 1.99 3.66 2.98 4 4 C4.99 4 5.98 4 7 4 C7.66 6.64 8.32 9.28 9 12 C5.74483572 8.83525695 2.67991207 5.67247209 0 2 C0 1.34 0 0.68 0 0 Z " fill="#EBE2EF" transform="translate(92,204)"/>
<path d="M0 0 C0.66 0 1.32 0 2 0 C2.33 1.32 2.66 2.64 3 4 C-1.75 8 -1.75 8 -4 8 C-4.33 6.35 -4.66 4.7 -5 3 C-2 4 -2 4 0 5 C-0.2784375 4.0409375 -0.2784375 4.0409375 -0.5625 3.0625 C-0.706875 2.381875 -0.85125 1.70125 -1 1 C-0.67 0.67 -0.34 0.34 0 0 Z " fill="#473261" transform="translate(147,82)"/>
<path d="M0 0 C1.625 1.625 1.625 1.625 3 4 C2.1875 7.25 2.1875 7.25 1 10 C-1.12508244 6.81237635 -1.5020163 4.73487777 -2 1 C-1.34 0.67 -0.68 0.34 0 0 Z " fill="#E9DAEE" transform="translate(149,75)"/>
<path d="M0 0 C1.65 1.65 3.3 3.3 5 5 C4.34 5.66 3.68 6.32 3 7 C3 6.34 3 5.68 3 5 C-0.11785113 5.64644661 -0.11785113 5.64644661 -1 8 C-1.66 8 -2.32 8 -3 8 C-1.125 1.125 -1.125 1.125 0 0 Z " fill="#E3D1E4" transform="translate(29,69)"/>
<path d="M0 0 C1.32 0.66 2.64 1.32 4 2 C0.04 3.98 0.04 3.98 -4 6 C-4 5.34 -4 4.68 -4 4 C-4.66 3.67 -5.32 3.34 -6 3 C-3.25 1.375 -3.25 1.375 0 0 Z " fill="#CFC9D8" transform="translate(213,170)"/>
<path d="M0 0 C4.455 0.99 4.455 0.99 9 2 C8.01 2.33 7.02 2.66 6 3 C6 3.66 6 4.32 6 5 C5.01 5.33 4.02 5.66 3 6 C0 2.25 0 2.25 0 0 Z " fill="#E3D9E9" transform="translate(115,136)"/>
<path d="M0 0 C0 0.66 0 1.32 0 2 C-2.3125 3.6875 -2.3125 3.6875 -5 5 C-5.99 4.67 -6.98 4.34 -8 4 C-7 1 -7 1 -5.125 -0.25 C-3 -1 -3 -1 0 0 Z " fill="#301F42" transform="translate(148,213)"/>
<path d="M0 0 C1.65 0 3.3 0 5 0 C5.77321882 2.98241547 6.41196203 5.97580475 7 9 C4.03595495 6.19195732 1.55500981 3.81684226 0 0 Z " fill="#7A6E96" transform="translate(94,179)"/>
<path d="M0 0 C0.66 0 1.32 0 2 0 C2 0.66 2 1.32 2 2 C2.9590625 2.2165625 2.9590625 2.2165625 3.9375 2.4375 C6 3 6 3 7 4 C7.04063832 5.66617115 7.042721 7.33388095 7 9 C4.03595495 6.19195732 1.55500981 3.81684226 0 0 Z " fill="#E1DAEE" transform="translate(61,168)"/>
<path d="M0 0 C0.33 1.32 0.66 2.64 1 4 C-2.50776784 5.60355101 -5.14354879 6.22036864 -9 6 C-6.11912454 3.59927045 -3.43595166 1.52708963 0 0 Z " fill="#B5AEB7" transform="translate(220,156)"/>
<path d="M0 0 C1.9451 2.91765 2.45276317 4.62537285 3 8 C2.01 8.33 1.02 8.66 0 9 C-2 6 -2 6 -1.6875 3.9375 C-1 2 -1 2 0 0 Z " fill="#E4DCF0" transform="translate(150,107)"/>
<path d="M0 0 C1.32 1.32 2.64 2.64 4 4 C3.01 4.33 2.02 4.66 1 5 C1 5.66 1 6.32 1 7 C0.34 7 -0.32 7 -1 7 C-1 6.34 -1 5.68 -1 5 C-1.66 5 -2.32 5 -3 5 C-1.125 1.125 -1.125 1.125 0 0 Z " fill="#D7D5DF" transform="translate(35,105)"/>
<path d="M0 0 C1 3 1 3 0.00390625 5.48046875 C-0.47175781 6.37378906 -0.94742187 7.26710938 -1.4375 8.1875 C-1.91058594 9.08855469 -2.38367188 9.98960938 -2.87109375 10.91796875 C-3.24363281 11.60503906 -3.61617187 12.29210937 -4 13 C-4.33 13 -4.66 13 -5 13 C-4.54996653 7.37458159 -3.31558515 4.38512875 0 0 Z " fill="#432658" transform="translate(26,72)"/>
<path d="M0 0 C-1 2 -1 2 -3.28515625 2.8515625 C-4.20167969 3.10679687 -5.11820313 3.36203125 -6.0625 3.625 C-7.44115234 4.01558594 -7.44115234 4.01558594 -8.84765625 4.4140625 C-9.55792969 4.60742188 -10.26820313 4.80078125 -11 5 C-11.33 4.34 -11.66 3.68 -12 3 C-7.77050005 0.58314288 -4.87664009 -0.34833144 0 0 Z " fill="#C8C0CB" transform="translate(148,199)"/>
<path d="M0 0 C0.66 0.99 1.32 1.98 2 3 C1.01 3.33 0.02 3.66 -1 4 C-0.67 5.32 -0.34 6.64 0 8 C-0.99 8.495 -0.99 8.495 -2 9 C-3.32 8.01 -4.64 7.02 -6 6 C-5.195625 5.38125 -4.39125 4.7625 -3.5625 4.125 C-0.96125481 2.25835959 -0.96125481 2.25835959 0 0 Z " fill="#ECE1F0" transform="translate(136,118)"/>
<path d="M0 0 C0.99 0 1.98 0 3 0 C3.25 2.8125 3.25 2.8125 3 6 C1 7.875 1 7.875 -1 9 C-1.33 8.01 -1.66 7.02 -2 6 C-1.34 5.34 -0.68 4.68 0 4 C0 2.68 0 1.36 0 0 Z " fill="#FAF3FC" transform="translate(137,116)"/>
<path d="M0 0 C2.475 0.99 2.475 0.99 5 2 C4.3125 3.9375 4.3125 3.9375 3 6 C0.375 6.75 0.375 6.75 -2 7 C-2 6.34 -2 5.68 -2 5 C-1.01 4.34 -0.02 3.68 1 3 C0.67 2.01 0.34 1.02 0 0 Z " fill="#2F1345" transform="translate(136,218)"/>
<path d="M0 0 C0.99 0.33 1.98 0.66 3 1 C2 4 2 4 0.125 5.25 C-2 6 -2 6 -5 5 C-3.35 3.35 -1.7 1.7 0 0 Z " fill="#36154B" transform="translate(155,210)"/>
<path d="M0 0 C0.66 0.66 1.32 1.32 2 2 C3.98 1.34 5.96 0.68 8 0 C8.33 0.99 8.66 1.98 9 3 C4.545 3.495 4.545 3.495 0 4 C0 2.68 0 1.36 0 0 Z " fill="#6E6479" transform="translate(114,228)"/>
<path d="M0 0 C0.99 0 1.98 0 3 0 C3.33 0.99 3.66 1.98 4 3 C-1.41538462 6.07692308 -1.41538462 6.07692308 -4.375 5.6875 C-4.91125 5.460625 -5.4475 5.23375 -6 5 C-5.195625 4.54625 -4.39125 4.0925 -3.5625 3.625 C-0.91143428 2.25274335 -0.91143428 2.25274335 0 0 Z " fill="#2D183C" transform="translate(132,219)"/>
<path d="M0 0 C0.33 0.66 0.66 1.32 1 2 C-2.63 3.98 -6.26 5.96 -10 8 C-7.95874182 3.91748364 -7.69699058 3.47606026 -3.875 1.75 C-3.15054688 1.41484375 -2.42609375 1.0796875 -1.6796875 0.734375 C-1.12539062 0.49203125 -0.57109375 0.2496875 0 0 Z " fill="#3B3048" transform="translate(137,200)"/>
<path d="M0 0 C0.99 0.66 1.98 1.32 3 2 C2.67 2.99 2.34 3.98 2 5 C0.125 5.8125 0.125 5.8125 -2 6 C-2.99 5.34 -3.98 4.68 -5 4 C-3.35 2.68 -1.7 1.36 0 0 Z " fill="#DFDDDC" transform="translate(221,162)"/>
<path d="M0 0 C2.62187494 1.04874998 3.79371361 1.64931313 5.25 4.125 C5.4975 4.74375 5.745 5.3625 6 6 C5.01 6.495 5.01 6.495 4 7 C3.34 6.01 2.68 5.02 2 4 C1.01 4.495 1.01 4.495 0 5 C-0.66 4.34 -1.32 3.68 -2 3 C-1.34 2.01 -0.68 1.02 0 0 Z " fill="#D6D7D8" transform="translate(42,116)"/>
<path d="M0 0 C0.33 0.66 0.66 1.32 1 2 C-0.3125 4 -0.3125 4 -2 6 C-2.99 6 -3.98 6 -5 6 C-5 5.34 -5 4.68 -5 4 C-5.66 3.67 -6.32 3.34 -7 3 C-4.69 2.01 -2.38 1.02 0 0 Z " fill="#E4D2EA" transform="translate(22,76)"/>
<path d="M0 0 C2.75 0.8125 2.75 0.8125 5 2 C4.34 2.66 3.68 3.32 3 4 C-0.625 3.625 -0.625 3.625 -4 3 C-2.3125 1.375 -2.3125 1.375 0 0 Z " fill="#E4DEE5" transform="translate(150,202)"/>
<path d="M0 0 C0.99 0.33 1.98 0.66 3 1 C3.33 3.31 3.66 5.62 4 8 C2 6.8125 2 6.8125 0 5 C-0.25 2.3125 -0.25 2.3125 0 0 Z " fill="#5B3A8A" transform="translate(131,192)"/>
<path d="M0 0 C0.66 0 1.32 0 2 0 C2.33 1.32 2.66 2.64 3 4 C1.68 4.99 0.36 5.98 -1 7 C-1 6.34 -1 5.68 -1 5 C-1.66 4.67 -2.32 4.34 -3 4 C-1.625 2 -1.625 2 0 0 Z " fill="#EDDEF0" transform="translate(155,82)"/>
<path d="M0 0 C0.99 0.33 1.98 0.66 3 1 C3 1.66 3 2.32 3 3 C1.68 3.33 0.36 3.66 -1 4 C-1 1 -1 1 0 0 Z M-5 3 C-4.01 3.33 -3.02 3.66 -2 4 C-2.66 4 -3.32 4 -4 4 C-4.33 4.66 -4.66 5.32 -5 6 C-5.66 5.34 -6.32 4.68 -7 4 C-6.34 3.67 -5.68 3.34 -5 3 Z " fill="#9D74B1" transform="translate(144,220)"/>
<path d="M0 0 C0.99 0.33 1.98 0.66 3 1 C2.25 2.9375 2.25 2.9375 1 5 C-1.125 5.75 -1.125 5.75 -3 6 C-3 4.68 -3 3.36 -3 2 C-2.01 1.34 -1.02 0.68 0 0 Z " fill="#E4DEE8" transform="translate(137,209)"/>
<path d="M0 0 C2 1 2 1 3 3 C0.6875 4.5625 0.6875 4.5625 -2 6 C-2.99 5.67 -3.98 5.34 -5 5 C-3.35 3.35 -1.7 1.7 0 0 Z " fill="#C6BCCC" transform="translate(186,185)"/>
<path d="M0 0 C1.32 0.66 2.64 1.32 4 2 C3.34 3.32 2.68 4.64 2 6 C1.01 5.67 0.02 5.34 -1 5 C-0.67 3.35 -0.34 1.7 0 0 Z " fill="#EEDBF3" transform="translate(128,95)"/>
<path d="M0 0 C2.5 2.3125 2.5 2.3125 5 5 C5 5.99 5 6.98 5 8 C2.5 6.25 2.5 6.25 0 4 C0 2.68 0 1.36 0 0 Z " fill="#473966" transform="translate(31,96)"/>
<path d="M0 0 C-5.445 2.475 -5.445 2.475 -11 5 C-10.67 3.68 -10.34 2.36 -10 1 C-3.375 -1.125 -3.375 -1.125 0 0 Z " fill="#47355A" transform="translate(133,63)"/>
<path d="M0 0 C0.33 0.99 0.66 1.98 1 3 C2.98 2.67 4.96 2.34 7 2 C4.14693203 4.32472205 1.45925163 5.7508258 -2 7 C-1.34 4.69 -0.68 2.38 0 0 Z " fill="#BDB1C8" transform="translate(122,219)"/>
<path d="M0 0 C-1.65 1.32 -3.3 2.64 -5 4 C-6.32 3.34 -7.64 2.68 -9 2 C-3.375 -1.125 -3.375 -1.125 0 0 Z " fill="#543D6C" transform="translate(155,144)"/>
<path d="M0 0 C4.8 3.44615385 4.8 3.44615385 5.8125 6.25 C5.874375 6.8275 5.93625 7.405 6 8 C4.68 7.67 3.36 7.34 2 7 C1.34 4.69 0.68 2.38 0 0 Z " fill="#6B488E" transform="translate(81,131)"/>
<path d="M0 0 C1.65 1.32 3.3 2.64 5 4 C4.67 5.32 4.34 6.64 4 8 C3.34 8 2.68 8 2 8 C0 2.25 0 2.25 0 0 Z " fill="#FCF4FB" transform="translate(115,119)"/>
<path d="M0 0 C0.99 0.33 1.98 0.66 3 1 C3.73046875 3.06640625 3.73046875 3.06640625 4.1875 5.5625 C4.34605469 6.38878906 4.50460938 7.21507813 4.66796875 8.06640625 C4.77753906 8.70449219 4.88710938 9.34257813 5 10 C1.32769295 6.92000054 0.43197635 4.7517398 0 0 Z " fill="#7D698B" transform="translate(20,82)"/>
<path d="M0 0 C0.33 0.99 0.66 1.98 1 3 C-1.31 3.33 -3.62 3.66 -6 4 C-6.33 3.01 -6.66 2.02 -7 1 C-4 0 -4 0 0 0 Z " fill="#D4CDCF" transform="translate(232,154)"/>
<path d="M0 0 C3.36720387 1.39332574 4.9859524 2.9789286 7 6 C6.67 6.66 6.34 7.32 6 8 C5.01 7.67 4.02 7.34 3 7 C1.875 4.5625 1.875 4.5625 1 2 C0.67 1.34 0.34 0.68 0 0 Z " fill="#66498C" transform="translate(97,152)"/>
<path d="M0 0 C0.8353125 0.37125 0.8353125 0.37125 1.6875 0.75 C-3.5859375 3.97265625 -3.5859375 3.97265625 -5.3125 4.75 C-5.9725 4.42 -6.6325 4.09 -7.3125 3.75 C-2.88173077 -0.31153846 -2.88173077 -0.31153846 0 0 Z " fill="#5C3377" transform="translate(240.3125,142.25)"/>
<path d="M0 0 C0.66 0.33 1.32 0.66 2 1 C2.72886734 3.7696959 3 6.12862585 3 9 C1.35 7.02 -0.3 5.04 -2 3 C-1 1 -1 1 0 0 Z " fill="#553970" transform="translate(87,137)"/>
<path d="M0 0 C2.475 0.495 2.475 0.495 5 1 C5.66666667 3.66666667 6.33333333 6.33333333 7 9 C4.04070881 6.24479785 1.96318174 3.53372712 0 0 Z " fill="#695B84" transform="translate(34,103)"/>
<path d="M0 0 C2.125 0.9375 2.125 0.9375 4 2 C3.67 2.66 3.34 3.32 3 4 C0.9375 4.625 0.9375 4.625 -1 5 C-1.33 3.68 -1.66 2.36 -2 1 C-1.34 0.67 -0.68 0.34 0 0 Z " fill="#EFE0F3" transform="translate(139,93)"/>
<path d="M0 0 C0.99 0.33 1.98 0.66 3 1 C2.34 1 1.68 1 1 1 C1 2.65 1 4.3 1 6 C-0.32 6 -1.64 6 -3 6 C-1.125 1.125 -1.125 1.125 0 0 Z " fill="#D4CEDA" transform="translate(126,213)"/>
<path d="M0 0 C2 1.3125 2 1.3125 4 3 C4 3.99 4 4.98 4 6 C2.0625 5.6875 2.0625 5.6875 0 5 C-0.33 4.01 -0.66 3.02 -1 2 C-0.67 1.34 -0.34 0.68 0 0 Z " fill="#D3CADB" transform="translate(130,196)"/>
<path d="M0 0 C1.875 0.3125 1.875 0.3125 4 1 C4.66 1.99 5.32 2.98 6 4 C5.01 4.495 5.01 4.495 4 5 C3.01 4.67 2.02 4.34 1 4 C0.3125 1.9375 0.3125 1.9375 0 0 Z " fill="#D9D5D8" transform="translate(88,176)"/>
<path d="M0 0 C2 3 2 3 2 6 C1.01 6.33 0.02 6.66 -1 7 C-1.33 5.35 -1.66 3.7 -2 2 C-1.34 2 -0.68 2 0 2 C0 1.34 0 0.68 0 0 Z " fill="#EFDDF4" transform="translate(160,103)"/>
<path d="M0 0 C2.75 0.8125 2.75 0.8125 5 2 C2 4 2 4 -2 4 C-2.66 3.67 -3.32 3.34 -4 3 C-2.3125 1.375 -2.3125 1.375 0 0 Z " fill="#EBDDF0" transform="translate(115,96)"/>
<path d="M0 0 C0.66 0 1.32 0 2 0 C3.38938077 1.96147874 4.7260411 3.96166576 6 6 C3 6 3 6 1.3125 4.6875 C0 3 0 3 0 0 Z " fill="#583A68" transform="translate(157,66)"/>
</svg>
