<?xml version="1.0" encoding="UTF-8"?>
<svg version="1.1" xmlns="http://www.w3.org/2000/svg" width="256" height="249">
<path d="M0 0 C4.16476948 3.25055179 7.60085023 6.68888364 11.0234375 10.70703125 C13.25359668 13.29419219 15.56031382 15.80074302 17.875 18.3125 C21.18336914 21.93523905 24.36012358 25.61692891 27.4375 29.4375 C31.57411397 34.56250846 35.96319216 39.39563155 40.4375 44.22265625 C43.10186139 47.1104016 45.69380703 50.04969384 48.265625 53.01953125 C50.27264538 55.31133155 52.32402851 57.55996752 54.375 59.8125 C57.44746773 63.21083552 60.38442622 66.67590523 63.25 70.25 C67.9089159 76.01234335 72.93327716 81.38492006 78 86.78515625 C80.80838799 89.78117361 83.52309884 92.84581276 86.203125 95.95703125 C88.08176735 98.09296592 90.00828331 100.18091413 91.94238281 102.26660156 C96.84629377 107.55827917 101.54486201 112.95394572 106.046875 118.59765625 C107.67074937 120.59502173 109.35895591 122.44456875 111.125 124.3125 C113 127 113 127 113.125 129.75 C112.08285607 132.76063803 110.79950479 135.16933063 109.25 137.9375 C107.34611015 141.33101626 107.34611015 141.33101626 107.375 145.05859375 C108.18444499 146.73891482 109.08869511 148.37266983 110 150 C109.86132812 152.03759766 109.86132812 152.03759766 109 154 C107.26367187 155.33349609 107.26367187 155.33349609 104.96875 156.5234375 C104.10846191 156.97960449 103.24817383 157.43577148 102.36181641 157.90576172 C101.41741699 158.39061035 100.47301758 158.87545898 99.5 159.375 C97.47576832 160.44641756 95.45236118 161.51939406 93.4296875 162.59375 C92.37104492 163.15191406 91.31240234 163.71007812 90.22167969 164.28515625 C84.98136125 167.0744861 79.80194696 169.97016432 74.625 172.875 C73.58512939 173.45725342 72.54525879 174.03950684 71.47387695 174.6394043 C63.15234355 179.31525242 54.91027046 184.12064307 46.67944336 188.95385742 C39.6039752 193.09691831 32.45849355 197.08910663 25.25830078 201.01049805 C15.41593135 206.38296608 5.67054519 211.95480994 -3.91796875 217.76953125 C-8.13819494 220.26366117 -12.1398439 220.42397106 -17 220 C-19.5546875 217.98046875 -19.5546875 217.98046875 -21.875 215.1875 C-22.29789307 214.68976074 -22.72078613 214.19202148 -23.15649414 213.67919922 C-24.45900591 212.13582364 -25.73111319 210.57107372 -27 209 C-27.74378906 208.10152344 -28.48757812 207.20304688 -29.25390625 206.27734375 C-30.72855521 204.4861333 -32.19451711 202.68774073 -33.65234375 200.8828125 C-36.22815032 197.71984203 -38.85697429 194.6067545 -41.5 191.5 C-44.83629932 187.57615821 -48.13271475 183.62738142 -51.375 179.625 C-59.77205703 169.3236104 -68.57698872 159.38488219 -77.58984375 149.62109375 C-81.73629404 145.11174505 -85.73765739 140.48551828 -89.70703125 135.8203125 C-95.10252558 129.48593521 -100.5543312 123.2298595 -106.20385742 117.12036133 C-109.2551574 113.82056428 -112.24147688 110.47708656 -115.16796875 107.06640625 C-116.61289538 105.4366276 -118.10503885 103.8487114 -119.61328125 102.27734375 C-120.06952881 101.79724854 -120.52577637 101.31715332 -120.99584961 100.82250977 C-122.30923759 99.44402201 -123.63478761 98.07715234 -124.9609375 96.7109375 C-127.26405784 93.6489346 -127.8660833 91.80632466 -128 88 C-127.07145991 86.10975768 -126.12645576 84.22436574 -125.0703125 82.40234375 C-123.75183081 79.4429779 -123.53300801 76.70842666 -123.125 73.5 C-122.21140327 68.97378077 -121.60854301 67.44907315 -117.83984375 64.66796875 C-115.96266856 63.63131976 -114.06005088 62.68632226 -112.12768555 61.75708008 C-106.48332576 59.00012095 -105.22073881 56.69667781 -103 51 C-99.89787487 48.85324069 -96.57551566 47.25007789 -93.16796875 45.64453125 C-91.74701904 44.97031128 -91.74701904 44.97031128 -90.29736328 44.2824707 C-89.2711084 43.79738037 -88.24485352 43.31229004 -87.1875 42.8125 C-76.93693496 37.93429255 -66.76736553 32.91123827 -56.625 27.8125 C-47.22571977 23.08904309 -37.80962614 18.42038068 -28.28100586 13.96166992 C-20.7824317 10.44931071 -13.39045115 6.73323361 -6 3 C-4.0004531 1.99909431 -2.00061237 0.99877432 0 0 Z " fill="#472467" transform="translate(131,14)"/>
<path d="M0 0 C0.33 0.66 0.66 1.32 1 2 C-0.19042851 4.08324989 -1.57393022 5.97842367 -2.96875 7.9296875 C-4.16734368 9.91478937 -4.16734368 9.91478937 -3.90625 12.0078125 C-2.72622179 14.60184004 -1.07580061 16.05957769 1 18 C6.44644596 24.38719572 11.41475927 31.17314993 16.43115234 37.89892578 C19.62124802 42.17411531 22.85218741 46.41291945 26.125 50.625 C29.59735556 55.11175156 32.92236681 59.67345216 36.1875 64.3125 C39.27316098 68.68685391 42.46601775 72.82995119 46.06640625 76.79296875 C48.77443055 79.88394598 51.32530863 83.09045711 53.875 86.3125 C54.36411865 86.92416016 54.8532373 87.53582031 55.35717773 88.16601562 C57.39994803 90.76151859 58.94716966 92.84150897 60 96 C60.66 96 61.32 96 62 96 C63.26953125 97.44140625 63.26953125 97.44140625 64.8125 99.5625 C68.15388175 103.9828696 71.67921366 108.19500565 75.3125 112.375 C75.87300049 113.02025635 76.43350098 113.6655127 77.01098633 114.33032227 C80.45244164 118.27310948 83.9536273 122.15146998 87.5 126 C91.01107234 129.82558208 94.12085257 133.68127885 97 138 C96.60167969 138.6290625 96.20335938 139.258125 95.79296875 139.90625 C92.5403507 145.16108792 89.95448384 150.13654848 88 156 C83.13153692 153.54773712 80.18890738 150.09996106 76.75 146 C76.17717285 145.32791504 75.6043457 144.65583008 75.01416016 143.96337891 C71.02611547 139.26833724 67.11047965 134.51510878 63.23046875 129.73046875 C59.36871155 125.00302867 55.4122659 120.35618395 51.45458984 115.70898438 C50.47460698 114.55761142 49.49578855 113.40524646 48.51806641 112.25195312 C42.30014265 104.91768007 35.97021985 97.71868374 29.4453125 90.65625 C25.28495473 86.13701153 21.27314465 81.49821391 17.29296875 76.8203125 C11.89747442 70.48593521 6.4456688 64.2298595 0.79614258 58.12036133 C-2.2551574 54.82056428 -5.24147688 51.47708656 -8.16796875 48.06640625 C-9.61289538 46.4366276 -11.10503885 44.8487114 -12.61328125 43.27734375 C-13.06952881 42.79724854 -13.52577637 42.31715332 -13.99584961 41.82250977 C-15.30923759 40.44402201 -16.63478761 39.07715234 -17.9609375 37.7109375 C-20.26405784 34.6489346 -20.8660833 32.80632466 -21 29 C-20.07145991 27.10975768 -19.12645576 25.22436574 -18.0703125 23.40234375 C-16.75183081 20.4429779 -16.53300801 17.70842666 -16.125 14.5 C-15.26107602 10.16017134 -14.29857479 7.87828057 -10.69921875 5.38671875 C-7.25149314 3.31931818 -3.6809558 1.60950643 0 0 Z " fill="#DFDDDF" transform="translate(24,73)"/>
<path d="M0 0 C1.32 0.66 2.64 1.32 4 2 C4 2.66 4 3.32 4 4 C4.66 4 5.32 4 6 4 C6.28875 4.639375 6.5775 5.27875 6.875 5.9375 C7.82823451 8.15206079 7.82823451 8.15206079 10 9 C10 10.32 10 11.64 10 13 C11.32 13.33 12.64 13.66 14 14 C14.12375 15.175625 14.12375 15.175625 14.25 16.375 C14.4975 17.24125 14.745 18.1075 15 19 C16.32407669 19.68486725 17.65909241 20.34870203 19 21 C19.639375 21.969375 20.27875 22.93875 20.9375 23.9375 C22.76758865 27.12850867 22.76758865 27.12850867 25.75 28.625 C26.4925 29.07875 27.235 29.5325 28 30 C28 31.32 28 32.64 28 34 C29.32 34.33 30.64 34.66 32 35 C32.0825 35.721875 32.165 36.44375 32.25 37.1875 C33.37635456 41.41132959 35.90767343 43.94180863 39 46.9375 C41.39391378 49.40622358 43.10945146 52.13368448 45 55 C45.556875 55.556875 46.11375 56.11375 46.6875 56.6875 C48 58 48 58 49 61 C49.845625 61.845625 50.69125 62.69125 51.5625 63.5625 C52.366875 64.366875 53.17125 65.17125 54 66 C54 66.66 54 67.32 54 68 C54.598125 68.226875 55.19625 68.45375 55.8125 68.6875 C58.60844922 70.36506953 59.42009727 72.16934094 61 75 C62.0828125 76.3303125 62.0828125 76.3303125 63.1875 77.6875 C65 80 65 80 65 82 C65.66 82 66.32 82 67 82 C72 87.35714286 72 87.35714286 72 91 C72.66 91 73.32 91 74 91 C78 95.47058824 78 95.47058824 78 98 C78.66 98 79.32 98 80 98 C80 98.66 80 99.32 80 100 C80.66 100 81.32 100 82 100 C82.95783721 101.36833887 83.90602278 102.74443569 84.8046875 104.15234375 C87.8135419 108.80328536 90.84343834 113.26972778 95.25 116.6875 C98.16772577 119.14104213 98.74905662 120.51522917 100 124 C101.68832016 126.4391141 101.68832016 126.4391141 104 128 C107.39154295 127.83849795 108.58296757 127.41703243 111 125 C112.32 125 113.64 125 115 125 C115 124.34 115 123.68 115 123 C117.91550125 121.45612206 120.83240827 119.91492368 123.75 118.375 C125.05312134 117.68712402 125.05312134 117.68712402 126.38256836 116.98535156 C131.08148189 114.51219325 135.79457648 112.08709488 140.5625 109.75 C145.01148169 107.55022572 149.24143637 105.11090775 153.4765625 102.52734375 C156.27604183 100.83292205 159.09236577 99.17922326 161.9375 97.5625 C162.83339844 97.04816406 163.72929687 96.53382813 164.65234375 96.00390625 C167 95 167 95 170 96 C169.2575 96.4125 168.515 96.825 167.75 97.25 C165.00406522 98.84202772 165.00406522 98.84202772 163.18481445 100.90844727 C160.71742707 103.27051093 158.31934481 104.63583332 155.29296875 106.21484375 C154.15988281 106.81232422 153.02679688 107.40980469 151.859375 108.02539062 C151.26060547 108.33710205 150.66183594 108.64881348 150.04492188 108.9699707 C146.87951319 110.61882909 143.72739369 112.29274268 140.57421875 113.96484375 C139.93592133 114.3026889 139.2976239 114.64053406 138.63998413 114.98861694 C132.53734675 118.22692331 126.5077512 121.58897259 120.5 125 C119.55898437 125.53383301 118.61796875 126.06766602 117.6484375 126.61767578 C111.72982558 129.98776058 105.84460696 133.409018 100.01171875 136.92578125 C98 138 98 138 96 138 C94.41906815 141.92277949 92.89057144 145.86403758 91.375 149.8125 C90.92898437 150.97394531 90.48296875 152.13539063 90.0234375 153.33203125 C89.68570313 154.21246094 89.34796875 155.09289062 89 156 C91.60465323 154.62591564 94.2087245 153.2507459 96.8125 151.875 C97.53115234 151.49601563 98.24980469 151.11703125 98.99023438 150.7265625 C109.49373961 145.17404872 119.84904085 139.40090586 130.125 133.4375 C136.7448876 129.5994958 143.36468831 125.76911252 150.06396484 122.07104492 C152.80792806 120.55304156 155.52926808 118.99668868 158.25 117.4375 C158.82081299 117.11088379 159.39162598 116.78426758 159.97973633 116.44775391 C162.82315087 114.82071576 165.66550642 113.19183712 168.50732422 111.56201172 C196.58067834 95.46375373 196.58067834 95.46375373 203 93 C203 93.66 203 94.32 203 95 C205.475 94.505 205.475 94.505 208 94 C208.33 95.32 208.66 96.64 209 98 C206.1886939 100.23611933 203.4329272 101.8471677 200.1875 103.375 C190.9548276 107.91309321 182.09312744 113.1231547 173.15576172 118.21044922 C167.90920827 121.18563387 162.64111877 124.12213503 157.375 127.0625 C139.87510704 136.8501651 122.50216306 146.84391284 105.1953125 156.96875 C90.19140808 165.73137572 90.19140808 165.73137572 82 165 C79.5625 163 79.5625 163 78 161 C81.33333333 154.33333333 84.66666667 147.66666667 88 141 C87.28714844 140.2265625 86.57429688 139.453125 85.83984375 138.65625 C80.48328411 132.83541142 75.16039767 126.99638209 70 121 C69.30874023 120.19828369 69.30874023 120.19828369 68.60351562 119.38037109 C67.00503791 117.52567565 65.40841603 115.66940005 63.8125 113.8125 C63.30082275 113.21775879 62.78914551 112.62301758 62.26196289 112.01025391 C54 102.37377502 54 102.37377502 54 100 C53.34 100 52.68 100 52 100 C50.62367695 98.32118837 49.32558818 96.57808258 48.0625 94.8125 C44.69840363 90.18452891 41.17669166 85.76743201 37.4375 81.4375 C33.43310922 76.77441994 29.7107366 72.00375917 26.14453125 66.9921875 C23.56461011 63.39251611 20.91250283 59.85130189 18.25 56.3125 C17.74251221 55.63775635 17.23502441 54.9630127 16.7121582 54.26782227 C15.66888864 52.88077958 14.62551177 51.49381759 13.58203125 50.10693359 C11.9982569 47.99767856 10.4201635 45.88429191 8.84375 43.76953125 C-0.32260101 30.7785944 -0.32260101 30.7785944 -11.0625 19.1875 C-11.701875 18.465625 -12.34125 17.74375 -13 17 C-12.8125 14.1875 -12.8125 14.1875 -12 12 C-9 13 -9 13 -7.6796875 15.60546875 C-6.84824219 17.28576172 -6.84824219 17.28576172 -6 19 C-4.16070451 21.53678519 -2.14199118 23.91581179 -0.125 26.3125 C4.59609046 32.01978861 9.20540045 37.7904579 13.6875 43.6875 C14.22777832 44.39769287 14.76805664 45.10788574 15.32470703 45.83959961 C16.38362734 47.23322873 17.44191287 48.62734044 18.49951172 50.02197266 C25.1715741 58.81745743 31.96225962 67.49243065 39 76 C43.37474188 81.30152741 47.71803193 86.61987329 51.93774414 92.0456543 C57.57611723 99.29213024 63.44785613 106.29528149 69.46630859 113.22802734 C71.55818383 115.6449058 73.63277006 118.07636947 75.70825195 120.50732422 C80.73940702 126.39811766 85.81899084 132.23993687 91 138 C94.46375188 136.68320176 97.05458362 135.2344538 100 133 C100.66 133 101.32 133 102 133 C99.74631726 128.95968062 97.02762662 125.53461252 94 122.0625 C90.09658023 117.51933507 86.30323353 112.91483087 82.625 108.1875 C78.67892349 103.12155272 74.67988142 98.1043605 70.625 93.125 C70.08117676 92.45678223 69.53735352 91.78856445 68.97705078 91.10009766 C66.23790804 87.73772527 63.49255295 84.38054035 60.7421875 81.02734375 C54.58981192 73.51096317 48.60296032 65.89861282 42.7409668 58.15356445 C38.96146547 53.18692307 35.02151783 48.39965879 30.95263672 43.66894531 C26.97099791 39.02103883 23.24602708 34.20293206 19.54296875 29.33203125 C16.83788093 25.7742642 14.07780292 22.26104512 11.3125 18.75 C10.85327148 18.16379883 10.39404297 17.57759766 9.92089844 16.97363281 C7.8772836 14.36717668 5.8194443 11.78055537 3.71484375 9.22265625 C3.06644531 8.42730469 2.41804688 7.63195312 1.75 6.8125 C1.18796875 6.13832031 0.6259375 5.46414062 0.046875 4.76953125 C-0.29859375 4.18558594 -0.6440625 3.60164063 -1 3 C-0.67 2.01 -0.34 1.02 0 0 Z " fill="#5C3D78" transform="translate(32,69)"/>
<path d="M0 0 C3.5707206 3.43823803 6.63142133 6.96775437 9.625 10.9375 C10.49932521 12.08905432 11.3743506 13.24007728 12.25 14.390625 C12.69988281 14.98294922 13.14976563 15.57527344 13.61328125 16.18554688 C15.92304997 19.20776538 18.27249435 22.19849656 20.625 25.1875 C21.08769287 25.7755542 21.55038574 26.3636084 22.02709961 26.96948242 C25.9915829 32.00092056 29.98827766 37.00615476 34 42 C37.96671967 46.93782532 41.9166672 51.88719163 45.8190918 56.87597656 C50.86340541 63.32333833 55.98850662 69.69816317 61.16503906 76.03979492 C64.63814972 80.30210888 68.05791233 84.60077818 71.4375 88.9375 C76.20712476 95.05487032 81.12662436 101.04120784 86.07421875 107.01513672 C89.6236714 111.30701654 93.09513383 115.64204444 96.46875 120.07421875 C98.74312447 122.93459276 101.21805133 125.60653395 103.71484375 128.2734375 C105 130 105 130 105 133 C103.03125 134.60546875 103.03125 134.60546875 100.5 136.1875 C99.6646875 136.71730469 98.829375 137.24710938 97.96875 137.79296875 C97.3190625 138.19128906 96.669375 138.58960938 96 139 C92.18371168 137.45427224 90.02974257 135.11228755 87.3125 132.0625 C86.87752197 131.57595947 86.44254395 131.08941895 85.99438477 130.58813477 C82.26944435 126.38752628 78.73124025 122.04164729 75.20703125 117.671875 C73.08376662 115.1014095 70.88188151 112.64080637 68.625 110.1875 C64.66944851 105.84254188 61.04223583 101.3127171 57.44458008 96.67358398 C53.65167906 91.7943762 49.75184165 87.01154731 45.8125 82.25 C37.33151592 71.98940705 29.09215509 61.56896679 21 51 C19.35536233 48.85324702 17.70962253 46.70734708 16.0625 44.5625 C15.65563965 44.03269531 15.2487793 43.50289062 14.82958984 42.95703125 C12.13678356 39.45796398 9.41955191 35.97901807 6.6862793 32.51147461 C5.73887207 31.30833346 4.7936702 30.103452 3.85083008 28.89672852 C1.91239095 26.41596085 -0.03419696 23.9593911 -2.0625 21.55078125 C-5.9457698 16.83152976 -5.9457698 16.83152976 -6.1875 13.125 C-4.45831157 8.57450413 -2.29665265 4.28821491 0 0 Z " fill="#E9E4E8" transform="translate(29,69)"/>
<path d="M0 0 C0 0.66 0 1.32 0 2 C-0.66 2.66 -1.32 3.32 -2 4 C0.475 4.495 0.475 4.495 3 5 C2.67 5.66 2.34 6.32 2 7 C1.01 7.33 0.02 7.66 -1 8 C-0.40157723 11.16495294 0.57915019 13.05183243 2.6171875 15.53125 C3.14183594 16.17707031 3.66648438 16.82289062 4.20703125 17.48828125 C5.03267578 18.48408203 5.03267578 18.48408203 5.875 19.5 C7.46594017 21.44616196 9.05571036 23.39324399 10.64282227 25.3425293 C11.71444663 26.65126429 12.80171913 27.94718569 13.89453125 29.23828125 C15.83990087 32.33849927 14.64402797 35.60500411 14 39 C13.93558716 40.07423218 13.93558716 40.07423218 13.86987305 41.17016602 C13.46380906 45.01693131 12.90129174 47.26029809 9.84301758 49.77026367 C6.95242163 51.42704017 4.02870051 52.86200276 1 54.25 C-0.50626953 54.98476562 -0.50626953 54.98476562 -2.04296875 55.734375 C-4.04535504 56.70836885 -6.0553278 57.66692777 -8.07275391 58.609375 C-10.88886063 59.94720185 -13.63914414 61.37765457 -16.3984375 62.828125 C-26.61060107 67.94031698 -38.32588885 64.27569882 -49 62 C-49 59.33333333 -49 56.66666667 -49 54 C-48.29875 54.04640625 -47.5975 54.0928125 -46.875 54.140625 C-38.73417691 54.45033023 -33.64796346 53.19196802 -27.5 47.8125 C-25.39164049 43.85932592 -25.65576896 40.38894582 -26 36 C-27.32 36 -28.64 36 -30 36 C-29.5359375 37.794375 -29.5359375 37.794375 -29.0625 39.625 C-28.72359234 42.34594436 -28.70361827 43.54299849 -30.2109375 45.8671875 C-33.20866776 48.70214507 -35.89719249 50.38997803 -40.0625 50.6875 C-44.59974678 49.89528231 -47.13763859 48.50596931 -50 45 C-53.24623485 40.1810551 -54.88980281 35.89494361 -54 30 C-51.87689359 26.5878647 -49.86522064 24.25051256 -46 23 C-41.89100705 22.65758392 -39.59872331 23.13859139 -36 25 C-35.01 24.67 -34.02 24.34 -33 24 C-33 23.34 -33 22.68 -33 22 C-32.34 22 -31.68 22 -31 22 C-31 21.01 -31 20.02 -31 19 C-32.299375 18.87625 -33.59875 18.7525 -34.9375 18.625 C-37.15234375 18.4140625 -37.15234375 18.4140625 -39 18 C-39.33 17.34 -39.66 16.68 -40 16 C-37.6120592 13.6120592 -36.23091381 13.64618276 -33 13 C-30.7763932 11.0745356 -30.7763932 11.0745356 -30 8 C-28 9 -28 9 -26.8125 11.25 C-25.91062919 14.30248582 -26.13638415 15.97734454 -27 19 C-27.66 19 -28.32 19 -29 19 C-28.34 19.99 -27.68 20.98 -27 22 C-26.01 21.67 -25.02 21.34 -24 21 C-22.4375 23.8125 -22.4375 23.8125 -21 27 C-22 30 -22 30 -24 32 C-23.21625 32.0825 -22.4325 32.165 -21.625 32.25 C-19 33 -19 33 -17.6875 34.8125 C-17 37 -17 37 -17 41 C-15.02 40.505 -15.02 40.505 -13 40 C-13.99 36.7 -14.98 33.4 -16 30 C-14.02 28.68 -12.04 27.36 -10 26 C-8.68 28.64 -7.36 31.28 -6 34 C-5.34 34 -4.68 34 -4 34 C-4.99 30.7 -5.98 27.4 -7 24 C-6.01 23.34 -5.02 22.68 -4 22 C-4 21.34 -4 20.68 -4 20 C-5.65 20 -7.3 20 -9 20 C-11.09230769 15.56923077 -11.09230769 15.56923077 -10.625 12.6875 C-10.41875 12.130625 -10.2125 11.57375 -10 11 C-9.34 11 -8.68 11 -8 11 C-8 10.01 -8 9.02 -8 8 C-7.34 8 -6.68 8 -6 8 C-5.34 6.02 -4.68 4.04 -4 2 C-6.475 1.505 -6.475 1.505 -9 1 C-9 0.67 -9 0.34 -9 0 C-3.375 -1.125 -3.375 -1.125 0 0 Z " fill="#442562" transform="translate(166,75)"/>
<path d="M0 0 C1 3 1 3 -0.03125 5.26953125 C-0.5159375 6.10871094 -1.000625 6.94789063 -1.5 7.8125 C-3.34587889 11.28559995 -4.02022184 12.60904445 -3.8125 16.625 C-3.544375 17.40875 -3.27625 18.1925 -3 19 C-4.32 19.33 -5.64 19.66 -7 20 C-7 19.34 -7 18.68 -7 18 C-7.77601563 18.49628906 -8.55203125 18.99257812 -9.3515625 19.50390625 C-16.31961267 23.88596167 -23.31638697 27.73654774 -30.71875 31.34765625 C-34.46986459 33.23661039 -38.02403594 35.34594191 -41.59765625 37.546875 C-44.0716557 39.04334296 -46.58187571 40.43702119 -49.125 41.8125 C-61.25248223 48.37521005 -73.18579777 55.23417004 -85.02270508 62.30688477 C-91.2688498 66.02629238 -97.59981417 69.55328054 -104 73 C-105.42854923 73.77834524 -106.85695028 74.55696256 -108.28515625 75.3359375 C-109.54403334 76.01606477 -110.80314101 76.69576546 -112.0625 77.375 C-112.71154297 77.72949219 -113.36058594 78.08398438 -114.02929688 78.44921875 C-118.77138634 81 -118.77138634 81 -121 81 C-118.90181653 72.78211473 -116.59954854 64.41689232 -108.98632812 59.77124023 C-106.4058018 58.32988186 -103.80227935 56.94074352 -101.1875 55.5625 C-99.17748742 54.48605012 -97.1683995 53.40787219 -95.16015625 52.328125 C-94.13164551 51.77576172 -93.10313477 51.22339844 -92.04345703 50.65429688 C-87.36365301 48.11054972 -82.74729546 45.45882087 -78.125 42.8125 C-68.16832373 37.13519749 -58.06775964 31.75569946 -47.93161011 26.40893555 C-37.17470821 20.73127872 -26.53608646 14.87774301 -15.98046875 8.83203125 C-10.69708716 5.80795558 -5.35396128 2.89684471 0 0 Z " fill="#D8CFDE" transform="translate(242,144)"/>
<path d="M0 0 C0 0.66 0 1.32 0 2 C2.475 1.505 2.475 1.505 5 1 C5.495 2.98 5.495 2.98 6 5 C3.1886939 7.23611933 0.4329272 8.8471677 -2.8125 10.375 C-12.0451724 14.91309321 -20.90687256 20.1231547 -29.84423828 25.21044922 C-35.09079173 28.18563387 -40.35888123 31.12213503 -45.625 34.0625 C-76.01681962 50.67221599 -76.01681962 50.67221599 -105.5625 68.68334961 C-108 70 -108 70 -112 70 C-112.99 67.03 -112.99 67.03 -114 64 C-111.34446512 60.86077841 -108.16834217 59.45268677 -104.5 57.6875 C-93.66834046 52.45463745 -83.27554163 46.47320431 -72.875 40.4375 C-66.2551124 36.5994958 -59.63531169 32.76911252 -52.93603516 29.07104492 C-50.19207194 27.55304156 -47.47073192 25.99668868 -44.75 24.4375 C-44.17918701 24.11088379 -43.60837402 23.78426758 -43.02026367 23.44775391 C-40.17684913 21.82071576 -37.33449358 20.19183712 -34.49267578 18.56201172 C-14.85860897 7.30314071 -14.85860897 7.30314071 -6.9609375 3.0859375 C-1.38848921 0 -1.38848921 0 0 0 Z " fill="#37204C" transform="translate(235,162)"/>
<path d="M0 0 C1 3 1 3 -0.03125 5.26953125 C-0.5159375 6.10871094 -1.000625 6.94789063 -1.5 7.8125 C-3.34587889 11.28559995 -4.02022184 12.60904445 -3.8125 16.625 C-3.544375 17.40875 -3.27625 18.1925 -3 19 C-4.32 19.33 -5.64 19.66 -7 20 C-7 19.34 -7 18.68 -7 18 C-7.77601563 18.49628906 -8.55203125 18.99257812 -9.3515625 19.50390625 C-16.31961267 23.88596167 -23.31638697 27.73654774 -30.71875 31.34765625 C-34.45455714 33.22890199 -37.99508468 35.32855459 -41.5546875 37.51953125 C-47.49175379 41.11401707 -53.50520132 44.52801199 -60 47 C-60.495 45.515 -60.495 45.515 -61 44 C-62.98 44.495 -62.98 44.495 -65 45 C-65 43.33333333 -65 41.66666667 -65 40 C-63.02 39.34 -61.04 38.68 -59 38 C-59 37.01 -59 36.02 -59 35 C-61.475 35.495 -61.475 35.495 -64 36 C-61.22108805 33.82329827 -58.42156494 32.0509586 -55.30859375 30.390625 C-53.91072632 29.64039063 -53.91072632 29.64039063 -52.48461914 28.875 C-51.47906982 28.33875 -50.47352051 27.8025 -49.4375 27.25 C-40.10570172 22.23662882 -30.81707456 17.15413712 -21.5625 12 C-19.88595337 11.06655762 -19.88595337 11.06655762 -18.17553711 10.11425781 C-16.0791991 8.94637267 -13.98307561 7.77810236 -11.88720703 6.609375 C-7.92717029 4.4019877 -3.96397424 2.20030672 0 0 Z " fill="#C7C0CC" transform="translate(242,144)"/>
<path d="M0 0 C3.10803952 2.02173444 4.84528953 4.74903711 6.9765625 7.7421875 C8.94230156 10.40636094 8.94230156 10.40636094 11.640625 12.46875 C15.66292272 16.05944499 17.82824029 18.69620998 18.20654297 24.08251953 C17.93391243 32.22719838 16.84993792 41.90415205 11.30712891 48.26464844 C7.1892926 51.53852082 2.53923537 53.41322284 -2.3515625 55.25195312 C-5.17283701 56.38255276 -7.80289221 57.7144852 -10.48828125 59.13671875 C-12.32116778 60.09070268 -14.15449233 61.04384558 -15.98828125 61.99609375 C-16.83519531 62.4439624 -17.68210938 62.89183105 -18.5546875 63.35327148 C-24.80085898 66.39876883 -29.21889304 66.60201273 -35.98828125 65.30859375 C-37.26316406 65.12941406 -38.53804687 64.95023437 -39.8515625 64.765625 C-50.31129865 62.81108767 -50.31129865 62.81108767 -53.36328125 59.24609375 C-54.98828125 56.30859375 -54.98828125 56.30859375 -54.98828125 54.30859375 C-53.828125 54.52515625 -52.66796875 54.74171875 -51.47265625 54.96484375 C-49.89462773 55.24663456 -48.316497 55.52785345 -46.73828125 55.80859375 C-45.9803125 55.95167969 -45.22234375 56.09476563 -44.44140625 56.2421875 C-32.13210966 58.3963144 -23.73715137 57.61383137 -12.67578125 51.55859375 C-11.64388672 51.01976562 -10.61199219 50.4809375 -9.54882812 49.92578125 C-5.27238175 47.67934561 -1.04999953 45.36076539 3.1171875 42.91796875 C6.01171875 41.30859375 6.01171875 41.30859375 8.01171875 41.30859375 C8.07230469 40.75171875 8.13289063 40.19484375 8.1953125 39.62109375 C8.27910156 38.85796875 8.36289063 38.09484375 8.44921875 37.30859375 C8.53042969 36.56609375 8.61164063 35.82359375 8.6953125 35.05859375 C9.01171875 32.30859375 9.01171875 32.30859375 9.90234375 28.4765625 C10.34268819 24.94635054 9.7186431 23.28051007 7.625 20.421875 C6.54727258 19.13572539 5.44610108 17.86891476 4.32421875 16.62109375 C3.78087891 15.98365234 3.23753906 15.34621094 2.67773438 14.68945312 C1.13624507 12.88328247 -0.42440037 11.09536723 -1.98828125 9.30859375 C-5.99643021 4.60195629 -5.99643021 4.60195629 -5.92578125 2.05859375 C-4.48228888 -0.63592534 -2.81035288 -0.97727399 0 0 Z " fill="#F5EFF7" transform="translate(169.98828125,81.69140625)"/>
<path d="M0 0 C0.99193359 0.14574463 1.98386719 0.29148926 3.00585938 0.44165039 C10.35095043 1.88124354 13.96026268 4.74954175 18.1875 10.875 C14.79098401 12.007172 13.68657908 11.70829988 10.29296875 10.84375 C9.33712891 10.61042969 8.38128906 10.37710938 7.39648438 10.13671875 C5.39317801 9.63168353 3.39056216 9.12390075 1.38867188 8.61328125 C-7.73522277 6.39511479 -12.75115204 7.49507491 -20.8125 12 C-29.46078829 16.80313499 -29.46078829 16.80313499 -33.9296875 18.5703125 C-40.81386769 21.24468506 -40.81386769 21.24468506 -45.2734375 26.84765625 C-46.06723668 30.20754881 -46.49248248 33.43987527 -46.8125 36.875 C-47.18650091 38.81683254 -47.58002982 40.75508821 -48 42.6875 C-48.27287532 44.08293558 -48.544569 45.47860666 -48.8125 46.875 C-52.2775 45.39 -52.2775 45.39 -55.8125 43.875 C-55.18653097 40.20019356 -54.51100048 36.53670439 -53.8125 32.875 C-53.59464844 31.72515625 -53.37679687 30.5753125 -53.15234375 29.390625 C-52.91644531 28.25109375 -52.68054688 27.1115625 -52.4375 25.9375 C-52.22351563 24.87660156 -52.00953125 23.81570312 -51.7890625 22.72265625 C-50.39839724 18.66747635 -48.12784199 16.63299827 -44.4375 14.50634766 C-43.57125 14.10464355 -42.705 13.70293945 -41.8125 13.2890625 C-40.84957031 12.83539307 -39.88664062 12.38172363 -38.89453125 11.91430664 C-36.80884703 10.95721153 -34.72290197 10.00068467 -32.63671875 9.04467773 C-26.34446933 6.21415655 -26.34446933 6.21415655 -20.4375 2.68359375 C-13.57888509 -1.87860992 -7.85138955 -1.20889386 0 0 Z " fill="#F2ECF4" transform="translate(144.8125,63.125)"/>
<path d="M0 0 C3 1 3 1 4.3203125 3.60546875 C4.87460937 4.72566406 5.42890625 5.84585938 6 7 C7.83929549 9.53678519 9.85800882 11.91581179 11.875 14.3125 C16.59609046 20.01978861 21.20540045 25.7904579 25.6875 31.6875 C26.22777832 32.39769287 26.76805664 33.10788574 27.32470703 33.83959961 C28.38362734 35.23322873 29.44191287 36.62734044 30.49951172 38.02197266 C37.1715741 46.81745743 43.96225962 55.49243065 51 64 C55.37474188 69.30152741 59.71803193 74.61987329 63.93774414 80.0456543 C69.57611723 87.29213024 75.44785613 94.29528149 81.46630859 101.22802734 C83.03284608 103.03794919 84.59010037 104.85545454 86.14453125 106.67578125 C86.66063965 107.27986816 87.17674805 107.88395508 87.70849609 108.50634766 C88.72424881 109.6964868 89.73892436 110.88754624 90.75244141 112.07958984 C94.29236381 116.22703149 97.96259181 120.2270902 101.76953125 124.1328125 C103 126 103 126 102.69921875 128.2421875 C102.46847656 128.82226562 102.23773438 129.40234375 102 130 C97.00976989 126.28931607 93.42477306 121.9411299 89.5546875 117.09375 C86.84812755 113.7580055 83.93827849 110.63128032 81 107.5 C66 91.44976077 66 91.44976077 66 88 C65.34 88 64.68 88 64 88 C62.62367695 86.32118837 61.32558818 84.57808258 60.0625 82.8125 C56.69840363 78.18452891 53.17669166 73.76743201 49.4375 69.4375 C45.43310922 64.77441994 41.7107366 60.00375917 38.14453125 54.9921875 C35.56461011 51.39251611 32.91250283 47.85130189 30.25 44.3125 C29.74251221 43.63775635 29.23502441 42.9630127 28.7121582 42.26782227 C27.66888864 40.88077958 26.62551177 39.49381759 25.58203125 38.10693359 C23.9982569 35.99767856 22.4201635 33.88429191 20.84375 31.76953125 C11.67739899 18.7785944 11.67739899 18.7785944 0.9375 7.1875 C0.298125 6.465625 -0.34125 5.74375 -1 5 C-0.8125 2.1875 -0.8125 2.1875 0 0 Z " fill="#726788" transform="translate(20,81)"/>
<path d="M0 0 C2.40921705 2.40921705 3.53812156 4.94334509 5 8 C5.99 7.67 6.98 7.34 8 7 C8.33 8.32 8.66 9.64 9 11 C8.01 11.495 8.01 11.495 7 12 C7.33 14.64 7.66 17.28 8 20 C9.65 19.67 11.3 19.34 13 19 C13 20.32 13 21.64 13 23 C12.34 23.33 11.68 23.66 11 24 C11.66 27.3 12.32 30.6 13 34 C11.515 34.495 11.515 34.495 10 35 C8.68 32.36 7.36 29.72 6 27 C4.68 27.99 3.36 28.98 2 30 C2.66 33.3 3.32 36.6 4 40 C2.02 40.495 2.02 40.495 0 41 C-0.66 38.36 -1.32 35.72 -2 33 C-3.98 33.495 -3.98 33.495 -6 34 C-6.66 33.01 -7.32 32.02 -8 31 C-7.01 30.34 -6.02 29.68 -5 29 C-5.66 26.69 -6.32 24.38 -7 22 C-8.32 22.33 -9.64 22.66 -11 23 C-11.33 21.68 -11.66 20.36 -12 19 C-11.34 18.67 -10.68 18.34 -10 18 C-10.53725895 14.62294375 -11.11064623 11.303314 -12 8 C-10.68 7.34 -9.36 6.68 -8 6 C-7.34 8.97 -6.68 11.94 -6 15 C-5.21625 14.505 -4.4325 14.01 -3.625 13.5 C-1 12 -1 12 1 12 C0.7834375 11.45730469 0.566875 10.91460937 0.34375 10.35546875 C0.0653125 9.64003906 -0.213125 8.92460938 -0.5 8.1875 C-0.7784375 7.47980469 -1.056875 6.77210937 -1.34375 6.04296875 C-2 4 -2 4 -2 1 C-1.34 0.67 -0.68 0.34 0 0 Z " fill="#F2E7F6" transform="translate(149,75)"/>
<path d="M0 0 C-0.7425 0.4125 -1.485 0.825 -2.25 1.25 C-4.99593478 2.84202772 -4.99593478 2.84202772 -6.81518555 4.90844727 C-9.28257293 7.27051093 -11.68065519 8.63583332 -14.70703125 10.21484375 C-15.84011719 10.81232422 -16.97320312 11.40980469 -18.140625 12.02539062 C-18.73939453 12.33710205 -19.33816406 12.64881348 -19.95507812 12.9699707 C-23.12048681 14.61882909 -26.27260631 16.29274268 -29.42578125 17.96484375 C-30.06407867 18.3026889 -30.7023761 18.64053406 -31.36001587 18.98861694 C-37.46265325 22.22692331 -43.4922488 25.58897259 -49.5 29 C-50.44101563 29.53383301 -51.38203125 30.06766602 -52.3515625 30.61767578 C-58.27017442 33.98776058 -64.15539304 37.409018 -69.98828125 40.92578125 C-72 42 -72 42 -74 42 C-75.40338027 45.48948607 -76.79138333 48.98320344 -78.125 52.5 C-78.47820312 53.4178125 -78.83140625 54.335625 -79.1953125 55.28125 C-80.38556409 59.30268256 -80.41800357 63.02959002 -79 67 C-78.34 67.33 -77.68 67.66 -77 68 C-80.71016634 69.18725323 -84.12790678 69.34572261 -88 69 C-90.4375 67 -90.4375 67 -92 65 C-91.72800781 64.46117187 -91.45601563 63.92234375 -91.17578125 63.3671875 C-90.32348059 61.65125993 -89.48991728 59.92598418 -88.66796875 58.1953125 C-82.40314914 45.202837 -75.10758292 39.07609048 -61.96875 33.17578125 C-59.66836645 32.09233715 -59.66836645 32.09233715 -59 29 C-57.68 29 -56.36 29 -55 29 C-55 28.34 -55 27.68 -55 27 C-52.08449875 25.45612206 -49.16759173 23.91492368 -46.25 22.375 C-45.38125244 21.91641602 -44.51250488 21.45783203 -43.61743164 20.98535156 C-38.91851811 18.51219325 -34.20542352 16.08709488 -29.4375 13.75 C-24.98851831 11.55022572 -20.75856363 9.11090775 -16.5234375 6.52734375 C-13.72395817 4.83292205 -10.90763423 3.17922326 -8.0625 1.5625 C-7.16660156 1.04816406 -6.27070313 0.53382813 -5.34765625 0.00390625 C-3 -1 -3 -1 0 0 Z " fill="#4F3667" transform="translate(202,165)"/>
<path d="M0 0 C2.5 1.5 2.5 1.5 4 3 C3.34 4.32 2.68 5.64 2 7 C1.46375 6.67 0.9275 6.34 0.375 6 C-2.65665399 4.72351411 -4.73102046 4.66643066 -8 5 C-11.49406769 6.66762322 -12.82670681 7.74006022 -15 11 C-15.70362999 16.98085489 -14.24527444 21.09484749 -11 26 C-8.00287439 29.33013957 -6.53243615 29.92393769 -2.0625 30.5625 C0.97100344 30.38405862 3.00332766 29.74117811 5.5 28 C8.07453271 24.91056075 8.36170295 24.43061846 8.375 20.6875 C8.25125 19.470625 8.1275 18.25375 8 17 C9.9375 16.4375 9.9375 16.4375 12 16 C13.53971828 17.53971828 13.31779707 18.98485671 13.4375 21.125 C13.37746741 25.83755848 12.04967035 28.2400696 8.77734375 31.55859375 C5.16499916 34.48816552 1.67359302 35.7151331 -2.9375 36.5 C-9.24547828 35.47012599 -13.64840804 31.93366882 -17.5 26.9375 C-20.83556305 21.48759097 -21.01034555 16.21273888 -20 10 C-17.88405579 5.06279685 -14.93627412 2.8227976 -10.15625 0.69140625 C-6.52064338 -0.47435891 -3.81016251 -0.44451896 0 0 Z " fill="#F2E6F6" transform="translate(128,94)"/>
<path d="M0 0 C0.495 0.99 0.495 0.99 1 2 C-0.15628906 2.58007812 -0.15628906 2.58007812 -1.3359375 3.171875 C-2.33882812 3.69265625 -3.34171875 4.2134375 -4.375 4.75 C-5.37273437 5.26046875 -6.37046875 5.7709375 -7.3984375 6.296875 C-10.14637848 8.09582735 -10.69971958 9.10778747 -12 12 C-12.99 12.33 -13.98 12.66 -15 13 C-14.505 13.99 -14.505 13.99 -14 15 C-14.969375 15.54527344 -15.93875 16.09054688 -16.9375 16.65234375 C-17.57768066 17.01279785 -18.21786133 17.37325195 -18.87744141 17.74462891 C-20.30559158 18.5472447 -21.73497879 19.34766291 -23.16552734 20.14599609 C-26.94662826 22.2602045 -30.70033909 24.40599227 -34.4140625 26.63671875 C-35.12046875 27.05381104 -35.826875 27.47090332 -36.5546875 27.90063477 C-37.90902431 28.70157805 -39.25582783 29.51543424 -40.59375 30.34350586 C-43.83169501 32.23832508 -45.67192344 33.02443911 -49.4609375 32.7421875 C-50.29882812 32.49726563 -51.13671875 32.25234375 -52 32 C-50.625 30.5 -50.625 30.5 -49 29 C-48.34 29 -47.68 29 -47 29 C-47 28.01 -47 27.02 -47 26 C-46.34 26 -45.68 26 -45 26 C-44.67 25.01 -44.34 24.02 -44 23 C-42.67203709 22.64587656 -41.33783393 22.31478446 -40 22 C-39.54625 21.525625 -39.0925 21.05125 -38.625 20.5625 C-36.39041187 18.41385756 -33.91355912 17.95007362 -31 17 C-30.67 16.34 -30.34 15.68 -30 15 C-28.35 15 -26.7 15 -25 15 C-25.33 13.35 -25.66 11.7 -26 10 C-20.25 8 -20.25 8 -18 8 C-18 7.34 -18 6.68 -18 6 C-17.23429687 6.35384766 -17.23429687 6.35384766 -16.453125 6.71484375 C-12.69402938 7.15180869 -9.96415511 5.29696785 -6.75 3.5625 C-6.1003125 3.22412109 -5.450625 2.88574219 -4.78125 2.53710938 C-3.18185506 1.70213113 -1.59014141 0.85246886 0 0 Z " fill="#D5D0DC" transform="translate(235,155)"/>
<path d="M0 0 C7.66742597 5.96583144 7.66742597 5.96583144 9 11 C9.66 11 10.32 11 11 11 C16 16.35714286 16 16.35714286 16 20 C16.66 20 17.32 20 18 20 C22 24.47058824 22 24.47058824 22 27 C22.66 27 23.32 27 24 27 C24 27.66 24 28.32 24 29 C24.66 29 25.32 29 26 29 C26.95783721 30.36833887 27.90602278 31.74443569 28.8046875 33.15234375 C31.8135419 37.80328536 34.84343834 42.26972778 39.25 45.6875 C42.16772577 48.14104213 42.74905662 49.51522917 44 53 C45.56304526 55.47981752 45.56304526 55.47981752 48 57 C51.69432511 56.85387105 51.69432511 56.85387105 55 56 C52.22719294 59.08089673 49.93673644 60.68775452 46 62 C45.4121875 60.94619141 45.4121875 60.94619141 44.8125 59.87109375 C42.79902126 56.68163928 40.47093352 53.8961913 38 51.0625 C34.0965837 46.51933909 30.30314091 41.91490171 26.625 37.1875 C22.51591724 31.91047054 18.3457745 26.68821004 14.125 21.5 C13.58955566 20.84153076 13.05411133 20.18306152 12.50244141 19.50463867 C10.09205165 16.54663921 7.66673617 13.60643561 5.1953125 10.69921875 C3.10124386 8.12448311 2.01464711 6.12849524 1 3 C0.67 2.01 0.34 1.02 0 0 Z " fill="#644583" transform="translate(88,140)"/>
<path d="M0 0 C0.495 0.99 0.495 0.99 1 2 C0.175 2.433125 -0.65 2.86625 -1.5 3.3125 C-2.325 3.869375 -3.15 4.42625 -4 5 C-4 5.99 -4 6.98 -4 8 C-5.32 7.67 -6.64 7.34 -8 7 C-8.33 7.66 -8.66 8.32 -9 9 C-9.99 8.67 -10.98 8.34 -12 8 C-13.99673484 7.64763503 -15.99650739 7.31165441 -18 7 C-18 7.66 -18 8.32 -18 9 C-13.60563789 9.85743651 -9.47427924 10.08948558 -5 10 C-8.27867787 12.90036888 -10.65513455 13.61964141 -15 14 C-18.40206552 13.69876786 -21.71254283 13.09180765 -25.0625 12.4375 C-25.94744141 12.29248047 -26.83238281 12.14746094 -27.74414062 11.99804688 C-32.1167808 11.15500972 -35.145075 10.41796624 -38.12109375 6.97265625 C-40 4 -40 4 -40 2 C-38.25976562 2.32484375 -38.25976562 2.32484375 -36.484375 2.65625 C-17.63204798 6.2770668 -17.63204798 6.2770668 0 0 Z " fill="#F4EBF7" transform="translate(155,134)"/>
<path d="M0 0 C1 3 1 3 -0.03125 5.26953125 C-0.75828125 6.52830078 -0.75828125 6.52830078 -1.5 7.8125 C-3.34587889 11.28559995 -4.02022184 12.60904445 -3.8125 16.625 C-3.544375 17.40875 -3.27625 18.1925 -3 19 C-4.32 19.33 -5.64 19.66 -7 20 C-7 19.34 -7 18.68 -7 18 C-11.62 20.64 -16.24 23.28 -21 26 C-21.66 25.34 -22.32 24.68 -23 24 C-21.68 23.67 -20.36 23.34 -19 23 C-18.91363281 22.39542969 -18.82726562 21.79085937 -18.73828125 21.16796875 C-17.78867557 18.37944413 -16.69683794 17.78830728 -14.1875 16.3125 C-13.50042969 15.89613281 -12.81335938 15.47976562 -12.10546875 15.05078125 C-10.06629047 14.03308374 -8.22560412 13.45512354 -6 13 C-8.83967231 13 -11.23735711 13.40267181 -14 14 C-13.67 13.01 -13.34 12.02 -13 11 C-13.99 11.495 -13.99 11.495 -15 12 C-15.66 11.67 -16.32 11.34 -17 11 C-17.33 11.66 -17.66 12.32 -18 13 C-18.66 12.34 -19.32 11.68 -20 11 C-13.4 7.37 -6.8 3.74 0 0 Z " fill="#C6BAC5" transform="translate(242,144)"/>
<path d="M0 0 C3 1 3 1 4.3203125 3.60546875 C4.87460937 4.72566406 5.42890625 5.84585938 6 7 C7.83929662 9.53678675 9.85806362 11.9157645 11.875 14.3125 C21.70092691 26.19621265 31.03242442 38.45623114 40 51 C39.505 51.99 39.505 51.99 39 53 C38.5875 52.38125 38.175 51.7625 37.75 51.125 C36.19961988 48.9206195 36.19961988 48.9206195 34.109375 48.15625 C31.37907979 46.65964374 30.26446649 44.93657196 28.5 42.375 C27.8090625 41.39402344 27.118125 40.41304687 26.40625 39.40234375 C26.02597656 38.86077637 25.64570312 38.31920898 25.25390625 37.76123047 C14.16020934 21.53235161 14.16020934 21.53235161 0.9375 7.1875 C0.298125 6.465625 -0.34125 5.74375 -1 5 C-0.8125 2.1875 -0.8125 2.1875 0 0 Z " fill="#5A4F70" transform="translate(20,81)"/>
<path d="M0 0 C2.25552839 4.51105678 2.40564287 8.05115699 2 13 C1.01 13.66 0.02 14.32 -1 15 C-0.34 18.3 0.32 21.6 1 25 C-0.32 25.33 -1.64 25.66 -3 26 C-3.66 23.36 -4.32 20.72 -5 18 C-6.32 18.33 -7.64 18.66 -9 19 C-9.66 18.01 -10.32 17.02 -11 16 C-10.01 15.34 -9.02 14.68 -8 14 C-9.21044132 9.39257135 -9.21044132 9.39257135 -11 5 C-9.68 5.33 -8.36 5.66 -7 6 C-7 5.01 -7 4.02 -7 3 C-2.77777778 0 -2.77777778 0 0 0 Z " fill="#EEE1F2" transform="translate(152,90)"/>
<path d="M0 0 C2.5 2.3125 2.5 2.3125 5 5 C5 5.99 5 6.98 5 8 C4.38817871 8.3309668 3.77635742 8.66193359 3.14599609 9.00292969 C1.29071193 10.00673825 -0.56441598 11.01083566 -2.41943359 12.01513672 C-4.57028144 13.17918278 -6.72165567 14.3422567 -8.87353516 15.50439453 C-14.40686869 18.49624095 -19.92763057 21.50719478 -25.421875 24.5703125 C-26.42395996 25.1262207 -27.42604492 25.68212891 -28.45849609 26.25488281 C-30.38172645 27.32323679 -32.30142622 28.39797484 -34.21728516 29.47949219 C-35.51351807 30.19733887 -35.51351807 30.19733887 -36.8359375 30.9296875 C-37.59438965 31.35491699 -38.3528418 31.78014648 -39.13427734 32.21826172 C-39.74996582 32.47623535 -40.3656543 32.73420898 -41 33 C-41.66 32.67 -42.32 32.34 -43 32 C-41.35 31.01 -39.7 30.02 -38 29 C-38.33 28.34 -38.66 27.68 -39 27 C-37.40671875 26.22076172 -37.40671875 26.22076172 -35.78125 25.42578125 C-26.13552878 20.7118104 -26.13552878 20.7118104 -16.92578125 15.21484375 C-14.470728 13.66611847 -11.93230183 12.31029523 -9.375 10.9375 C-5.42049676 8.80899826 -1.67292551 6.58097468 2 4 C1.34 2.68 0.68 1.36 0 0 Z " fill="#452E5A" transform="translate(239,136)"/>
<path d="M0 0 C0.515625 0.2475 1.03125 0.495 1.5625 0.75 C0.26955999 4.62882002 -1.01755459 4.89643543 -4.57421875 6.78125 C-5.62673828 7.34457031 -6.67925781 7.90789062 -7.76367188 8.48828125 C-9.4275293 9.36033203 -9.4275293 9.36033203 -11.125 10.25 C-12.21490234 10.83136719 -13.30480469 11.41273438 -14.42773438 12.01171875 C-19.39990526 14.65668366 -24.39381272 17.24379679 -29.4375 19.75 C-29.3125 17.5 -29.3125 17.5 -28.4375 14.75 C-23.46452703 10.75 -23.46452703 10.75 -19.4375 10.75 C-19.7675 9.76 -20.0975 8.77 -20.4375 7.75 C-19.4475 7.42 -18.4575 7.09 -17.4375 6.75 C-16.22867904 4.74983534 -16.22867904 4.74983534 -15.4375 2.75 C-14.1690625 3.12125 -14.1690625 3.12125 -12.875 3.5 C-9.2592397 3.76296439 -8.69565491 3.568318 -5.8125 1.75 C-2.4375 -0.25 -2.4375 -0.25 0 0 Z " fill="#381C50" transform="translate(223.4375,173.25)"/>
<path d="M0 0 C0.99 0.33 1.98 0.66 3 1 C3 1.66 3 2.32 3 3 C3.99 3 4.98 3 6 3 C5.979375 4.2375 5.95875 5.475 5.9375 6.75 C5.92728645 10.95966434 5.92728645 10.95966434 7 15 C7.66 15.33 8.32 15.66 9 16 C5.28983366 17.18725323 1.87209322 17.34572261 -2 17 C-4.4375 15 -4.4375 15 -6 13 C-5.71382813 12.43796875 -5.42765625 11.8759375 -5.1328125 11.296875 C-3.98584069 8.97129077 -2.92160206 6.62229799 -1.875 4.25 C-1.52179688 3.45078125 -1.16859375 2.6515625 -0.8046875 1.828125 C-0.53914063 1.22484375 -0.27359375 0.6215625 0 0 Z " fill="#635D6B" transform="translate(116,217)"/>
<path d="M0 0 C0.495 0.99 0.495 0.99 1 2 C-0.15628906 2.58007812 -0.15628906 2.58007812 -1.3359375 3.171875 C-2.33882812 3.69265625 -3.34171875 4.2134375 -4.375 4.75 C-5.37273437 5.26046875 -6.37046875 5.7709375 -7.3984375 6.296875 C-10.14637848 8.09582735 -10.69971958 9.10778747 -12 12 C-12.99 12.33 -13.98 12.66 -15 13 C-14.67 13.66 -14.34 14.32 -14 15 C-14.86625 15.12375 -15.7325 15.2475 -16.625 15.375 C-19.91304347 15.98389694 -22.8519543 16.88506715 -26 18 C-28 18.66666667 -30 19.33333333 -32 20 C-32.33 19.34 -32.66 18.68 -33 18 C-31.8125 16.5 -31.8125 16.5 -30 15 C-27.3125 14.8125 -27.3125 14.8125 -25 15 C-25.33 13.35 -25.66 11.7 -26 10 C-20.25 8 -20.25 8 -18 8 C-18 7.34 -18 6.68 -18 6 C-17.48953125 6.23589844 -16.9790625 6.47179687 -16.453125 6.71484375 C-12.69402938 7.15180869 -9.96415511 5.29696785 -6.75 3.5625 C-6.1003125 3.22412109 -5.450625 2.88574219 -4.78125 2.53710938 C-3.18185506 1.70213113 -1.59014141 0.85246886 0 0 Z " fill="#E7E4EA" transform="translate(235,155)"/>
<path d="M0 0 C0 0.99 0 1.98 0 3 C0.66 3.33 1.32 3.66 2 4 C1.01 4.99 0.02 5.98 -1 7 C-0.67 7.66 -0.34 8.32 0 9 C3.02934491 9.65772428 3.02934491 9.65772428 6 10 C2.4912812 13.09592835 -0.49197399 14.74194623 -5 16 C-5.66 14.68 -6.32 13.36 -7 12 C-7.66 12 -8.32 12 -9 12 C-9.33 11.01 -9.66 10.02 -10 9 C-11.65 8.67 -13.3 8.34 -15 8 C-12.23612808 5.84821844 -9.43466931 4.01629579 -6.375 2.3125 C-5.59898437 1.87550781 -4.82296875 1.43851563 -4.0234375 0.98828125 C-2 0 -2 0 0 0 Z " fill="#DBD0DA" transform="translate(169,185)"/>
<path d="M0 0 C1.65 0 3.3 0 5 0 C5 3 5 3 3.625 4.5625 C3.08875 5.036875 2.5525 5.51125 2 6 C1.34 6.66 0.68 7.32 0 8 C0 8.66 0 9.32 0 10 C-1.78881736 11.00508801 -3.58114696 12.00392736 -5.375 13 C-6.37273437 13.556875 -7.37046875 14.11375 -8.3984375 14.6875 C-11 16 -11 16 -13 16 C-10.80371094 7.38378906 -10.80371094 7.38378906 -8 4 C-4.375 2.8125 -4.375 2.8125 -1 2 C-0.67 1.34 -0.34 0.68 0 0 Z " fill="#DAD3E2" transform="translate(134,209)"/>
<path d="M0 0 C3.15831622 1.05277207 3.81762951 1.64975486 6 4 C7.11375 5.08861328 7.11375 5.08861328 8.25 6.19921875 C11.20170298 9.20542761 13.92136034 12.33521584 16.625 15.5625 C17.10195312 16.12646484 17.57890625 16.69042969 18.0703125 17.27148438 C19.39042072 18.83911289 20.69575051 20.41915271 22 22 C22.62648438 22.73089844 23.25296875 23.46179688 23.8984375 24.21484375 C24.26195313 24.80394531 24.62546875 25.39304688 25 26 C24.67 26.99 24.34 27.98 24 29 C20.21262783 27.48505113 18.3296818 25.28867112 15.8125 22.125 C15.03390625 21.14660156 14.2553125 20.16820312 13.453125 19.16015625 C12.63362812 18.10816166 11.81595336 17.0547454 11 16 C10.58427734 15.46358887 10.16855469 14.92717773 9.74023438 14.37451172 C1.90061986 4.20922618 1.90061986 4.20922618 0 0 Z " fill="#695B7E" transform="translate(54,129)"/>
<path d="M0 0 C0.66 0 1.32 0 2 0 C3.51984883 1.67535459 4.96706453 3.41705622 6.375 5.1875 C7.53128906 6.63189453 7.53128906 6.63189453 8.7109375 8.10546875 C10.20809587 9.99863318 11.67343072 11.91751807 13.1015625 13.86328125 C13.72804688 14.56839844 14.35453125 15.27351562 15 16 C15.99 16 16.98 16 18 16 C18 16.66 18 17.32 18 18 C18.99 18 19.98 18 21 18 C21 18.99 21 19.98 21 21 C21.66 21 22.32 21 23 21 C23 21.66 23 22.32 23 23 C23.66 23 24.32 23 25 23 C28.13864685 26.27510976 29.90423575 30.6358355 31 35 C30.67 35.66 30.34 36.32 30 37 C24.61255364 31.12857501 19.41993683 25.14907371 14.4140625 18.94921875 C12.63990673 16.78176307 10.84865739 14.64311562 9.0234375 12.51953125 C8.52118652 11.93405518 8.01893555 11.3485791 7.50146484 10.74536133 C6.51848388 9.60270589 5.53195637 8.46308956 4.54150391 7.3269043 C2.44267139 4.88255535 1.03016011 3.09048034 0 0 Z " fill="#C8AFD1" transform="translate(78,190)"/>
<path d="M0 0 C0.33 0.66 0.66 1.32 1 2 C-1.31 5.3 -3.62 8.6 -6 12 C-6.99 11.67 -7.98 11.34 -9 11 C-9 11.66 -9 12.32 -9 13 C-9.99 13 -10.98 13 -12 13 C-13.76892524 17.92772031 -14.9318153 22.88634986 -16 28 C-16.66 28 -17.32 28 -18 28 C-18.99 30.475 -18.99 30.475 -20 33 C-20.609375 31.21484375 -20.609375 31.21484375 -21 29 C-20.05395515 27.14169761 -19.09537062 25.28857048 -18.0703125 23.47265625 C-16.77577287 20.48198624 -16.53637161 17.72739727 -16.125 14.5 C-15.26107602 10.16017134 -14.29857479 7.87828057 -10.69921875 5.38671875 C-7.25149314 3.31931818 -3.6809558 1.60950643 0 0 Z " fill="#EAE0EF" transform="translate(24,73)"/>
<path d="M0 0 C1.32 0.66 2.64 1.32 4 2 C4 2.66 4 3.32 4 4 C4.66 4 5.32 4 6 4 C6.28875 4.639375 6.5775 5.27875 6.875 5.9375 C7.82823451 8.15206079 7.82823451 8.15206079 10 9 C10 10.32 10 11.64 10 13 C11.32 13.33 12.64 13.66 14 14 C14.12375 15.175625 14.12375 15.175625 14.25 16.375 C14.4975 17.24125 14.745 18.1075 15 19 C15.66 19.33 16.32 19.66 17 20 C17.66 20.33 18.32 20.66 19 21 C19.86029934 23.79597286 20 26.07171074 20 29 C15.11846864 23.55656575 10.54066749 17.95122794 6.125 12.125 C5.54492188 11.36703125 4.96484375 10.6090625 4.3671875 9.828125 C0.13632015 4.27264031 0.13632015 4.27264031 -1 2 C-0.67 1.34 -0.34 0.68 0 0 Z " fill="#573C72" transform="translate(32,69)"/>
<path d="M0 0 C0.99 0.33 1.98 0.66 3 1 C0.76118156 3.43047521 -1.52516288 5.04424529 -4.37890625 6.69921875 C-5.21744141 7.18583984 -6.05597656 7.67246094 -6.91992188 8.17382812 C-7.79197266 8.67333984 -8.66402344 9.17285156 -9.5625 9.6875 C-10.43841797 10.19861328 -11.31433594 10.70972656 -12.21679688 11.23632812 C-18.74417974 15 -18.74417974 15 -21 15 C-21 14.01 -21 13.02 -21 12 C-20.01 11.67 -19.02 11.34 -18 11 C-18.66 10.67 -19.32 10.34 -20 10 C-6.85714286 0.14285714 -6.85714286 0.14285714 0 1 C0 0.67 0 0.34 0 0 Z " fill="#4E2C62" transform="translate(151,214)"/>
<path d="M0 0 C0.66 0.33 1.32 0.66 2 1 C1.814375 1.556875 1.62875 2.11375 1.4375 2.6875 C0.92448835 5.399133 1.3359276 7.34371039 2 10 C0.68 10.33 -0.64 10.66 -2 11 C-2 10.34 -2 9.68 -2 9 C-6.62 11.64 -11.24 14.28 -16 17 C-16.66 16.34 -17.32 15.68 -18 15 C-16.68 14.67 -15.36 14.34 -14 14 C-13.91363281 13.39414063 -13.82726562 12.78828125 -13.73828125 12.1640625 C-12.78778758 9.37795937 -11.70781492 8.82453177 -9.1875 7.375 C-8.50042969 6.97023437 -7.81335938 6.56546875 -7.10546875 6.1484375 C-5 5 -5 5 -2.80078125 4.0390625 C-0.65307235 3.06532181 -0.65307235 3.06532181 0 0 Z " fill="#BDB8C6" transform="translate(237,153)"/>
<path d="M0 0 C1.66666667 1.66666667 3.33333333 3.33333333 5 5 C5.598125 5.53625 6.19625 6.0725 6.8125 6.625 C8 8 8 8 8 11 C6.13671875 12.640625 6.13671875 12.640625 3.6875 14.25 C2.48673828 15.06210938 2.48673828 15.06210938 1.26171875 15.890625 C-1 17 -1 17 -4 16 C-3.67 15.34 -3.34 14.68 -3 14 C-2.34 14 -1.68 14 -1 14 C-1.01160156 13.32453125 -1.02320312 12.6490625 -1.03515625 11.953125 C-1.04869141 10.61507812 -1.04869141 10.61507812 -1.0625 9.25 C-1.07410156 8.36828125 -1.08570312 7.4865625 -1.09765625 6.578125 C-1.00826198 4.2181162 -0.66912821 2.25501476 0 0 Z " fill="#DED7E0" transform="translate(126,191)"/>
<path d="M0 0 C0.66 0.33 1.32 0.66 2 1 C0.62664309 4.35552151 -0.63934426 5.75106712 -3.875 7.375 C-4.55304688 7.73335937 -5.23109375 8.09171875 -5.9296875 8.4609375 C-8 9 -8 9 -10.2578125 8.1015625 C-11.12019531 7.55628906 -11.12019531 7.55628906 -12 7 C-12 7.66 -12 8.32 -12 9 C-14.95664519 10.4783226 -17.74229737 10.06032783 -21 10 C-15.46718514 4.03084327 -8.95614645 1.56829618 -1 1 C-0.67 0.67 -0.34 0.34 0 0 Z " fill="#BCB3C3" transform="translate(229,154)"/>
<path d="M0 0 C0.66 0.33 1.32 0.66 2 1 C1.67 1.99 1.34 2.98 1 4 C1.66 4 2.32 4 3 4 C3.66 5.65 4.32 7.3 5 9 C2.93847611 9.64894237 0.87573742 10.2940264 -1.1875 10.9375 C-2.33605469 11.29714844 -3.48460937 11.65679687 -4.66796875 12.02734375 C-7.44353006 12.83756036 -10.15687548 13.49134307 -13 14 C-13 13.01 -13 12.02 -13 11 C-9.04 9.02 -5.08 7.04 -1 5 C-1.33 3.68 -1.66 2.36 -2 1 C-1.34 0.67 -0.68 0.34 0 0 Z " fill="#E2D9E4" transform="translate(159,193)"/>
<path d="M0 0 C0.66 0.66 1.32 1.32 2 2 C1.01 2.33 0.02 2.66 -1 3 C-2.08742694 5.21433941 -2.08742694 5.21433941 -3 8 C-5.47297297 14.74447174 -5.47297297 14.74447174 -8.0625 16 C-10 16 -10 16 -12 15 C-11.57842836 10.22218804 -9.36152701 7.24591893 -6 4 C-4.05537349 2.51642344 -2.09851858 1.2688717 0 0 Z " fill="#635C68" transform="translate(129,204)"/>
<path d="M0 0 C0.33 1.65 0.66 3.3 1 5 C-3.5056687 8.26660981 -7.735171 10.18454172 -13 12 C-13.33 11.34 -13.66 10.68 -14 10 C-13.34 10 -12.68 10 -12 10 C-12 9.01 -12 8.02 -12 7 C-10.35 6.34 -8.7 5.68 -7 5 C-7.66 4.67 -8.32 4.34 -9 4 C-9 3.34 -9 2.68 -9 2 C-5.86501708 0.14223235 -3.62528568 -0.20140476 0 0 Z " fill="#D7D2DA" transform="translate(158,193)"/>
<path d="M0 0 C0.66 0 1.32 0 2 0 C3.53851766 1.71951974 5.00731759 3.50187497 6.4375 5.3125 C9.45169418 9.16950793 9.45169418 9.16950793 12.8046875 12.71875 C13.19914062 13.1415625 13.59359375 13.564375 14 14 C13.6875 16.1875 13.6875 16.1875 13 18 C6.98273203 13.52562126 2.6208429 7.86333621 -2 2 C-1.34 1.34 -0.68 0.68 0 0 Z " fill="#746A8A" transform="translate(109,193)"/>
<path d="M0 0 C0.66 0.33 1.32 0.66 2 1 C1.67 1.99 1.34 2.98 1 4 C1.66 4 2.32 4 3 4 C3 4.66 3 5.32 3 6 C3.66 6.33 4.32 6.66 5 7 C3.4493684 8.03877263 1.88390319 9.05542555 0.3125 10.0625 C-0.55761719 10.63097656 -1.42773438 11.19945312 -2.32421875 11.78515625 C-5.42822437 13.19442012 -6.8040576 13.00772958 -10 12 C-10 11.34 -10 10.68 -10 10 C-7.69 8.68 -5.38 7.36 -3 6 C-3.66 5.01 -4.32 4.02 -5 3 C-2.625 1.4375 -2.625 1.4375 0 0 Z " fill="#45295A" transform="translate(181,191)"/>
<path d="M0 0 C0.66 0 1.32 0 2 0 C2.67119549 1.4562545 3.33681807 2.91507867 4 4.375 C4.556875 5.59316406 4.556875 5.59316406 5.125 6.8359375 C6 9 6 9 6 11 C1.61538462 14 1.61538462 14 -1 14 C-1.66 11.03 -2.32 8.06 -3 5 C-2.01 4.34 -1.02 3.68 0 3 C0 2.01 0 1.02 0 0 Z " fill="#41245B" transform="translate(144,76)"/>
<path d="M0 0 C0.33 1.65 0.66 3.3 1 5 C-2.54937325 7.43385594 -4.70513532 8.33037421 -9 8 C-10.32 8 -11.64 8 -13 8 C-13 7.01 -13 6.02 -13 5 C-11.58957044 4.15615325 -10.17135868 3.32530504 -8.75 2.5 C-7.56664063 1.80390625 -7.56664063 1.80390625 -6.359375 1.09375 C-4 0 -4 0 0 0 Z " fill="#3F255D" transform="translate(134,71)"/>
<path d="M0 0 C0.33 0.66 0.66 1.32 1 2 C0.24074219 2.38671875 -0.51851562 2.7734375 -1.30078125 3.171875 C-2.29464844 3.69265625 -3.28851563 4.2134375 -4.3125 4.75 C-5.29863281 5.26046875 -6.28476563 5.7709375 -7.30078125 6.296875 C-9.95450276 7.97129263 -11.33102197 9.37976145 -13 12 C-13.763125 11.67 -14.52625 11.34 -15.3125 11 C-17.99069135 9.82563314 -17.99069135 9.82563314 -21 10 C-21 10.66 -21 11.32 -21 12 C-21.99 12.33 -22.98 12.66 -24 13 C-24.66 12.67 -25.32 12.34 -26 12 C-25.67 11.01 -25.34 10.02 -25 9 C-21.535 8.505 -21.535 8.505 -18 8 C-18 7.34 -18 6.68 -18 6 C-17.48953125 6.23589844 -16.9790625 6.47179687 -16.453125 6.71484375 C-12.69402938 7.15180869 -9.96415511 5.29696785 -6.75 3.5625 C-6.1003125 3.22412109 -5.450625 2.88574219 -4.78125 2.53710938 C-3.18185506 1.70213113 -1.59014141 0.85246886 0 0 Z " fill="#D6D3D5" transform="translate(235,155)"/>
<path d="M0 0 C3.48872415 1.16290805 4.09976864 2.13967609 6.1875 5.0625 C6.71730469 5.79597656 7.24710938 6.52945313 7.79296875 7.28515625 C8.19128906 7.85105469 8.58960938 8.41695312 9 9 C7.10399631 8.68853528 5.20820413 8.37578283 3.3125 8.0625 C2.25675781 7.88847656 1.20101562 7.71445313 0.11328125 7.53515625 C-2.60249604 7.06832879 -5.30124235 6.55577384 -8 6 C-7.01 5.67 -6.02 5.34 -5 5 C-5 4.01 -5 3.02 -5 2 C-3.35 1.67 -1.7 1.34 0 1 C0 0.67 0 0.34 0 0 Z " fill="#EFE7F4" transform="translate(154,66)"/>
<path d="M0 0 C0.66 1.32 1.32 2.64 2 4 C1.34 4.66 0.68 5.32 0 6 C0.66 6 1.32 6 2 6 C2.33 6.99 2.66 7.98 3 9 C3.763125 8.938125 4.52625 8.87625 5.3125 8.8125 C8 9 8 9 9.8125 10.5 C10.204375 10.995 10.59625 11.49 11 12 C7.28983366 13.18725323 3.87209322 13.34572261 0 13 C-2.4375 11 -2.4375 11 -4 9 C-3.71125 8.443125 -3.4225 7.88625 -3.125 7.3125 C-1.9586747 4.91505355 -0.9660119 2.48403061 0 0 Z " fill="#8A7B94" transform="translate(114,221)"/>
<path d="M0 0 C0.763125 0.474375 1.52625 0.94875 2.3125 1.4375 C4.96410548 3.10106097 4.96410548 3.10106097 8 4 C9.3743291 5.29103643 10.70896357 6.6256709 12 8 C12.66 8.66 13.32 9.32 14 10 C14.33 10.99 14.66 11.98 15 13 C15.66 13.33 16.32 13.66 17 14 C16.67 14.99 16.34 15.98 16 17 C13.10820032 15.69985934 11.13291606 14.35656066 8.984375 12.03125 C8.45585938 11.46019531 7.92734375 10.88914063 7.3828125 10.30078125 C6.84398437 9.70652344 6.30515625 9.11226562 5.75 8.5 C5.19570313 7.90574219 4.64140625 7.31148437 4.0703125 6.69921875 C0 2.25796644 0 2.25796644 0 0 Z " fill="#CAB9D8" transform="translate(51,159)"/>
<path d="M0 0 C0 0.66 0 1.32 0 2 C1.65 1.67 3.3 1.34 5 1 C5.33 2.32 5.66 3.64 6 5 C4.375 6.5625 4.375 6.5625 2 8 C-1.25 7.6875 -1.25 7.6875 -4 7 C-3.67 6.34 -3.34 5.68 -3 5 C-4.98 5 -6.96 5 -9 5 C-2.40909091 0 -2.40909091 0 0 0 Z " fill="#322346" transform="translate(235,162)"/>
<path d="M0 0 C1.18198059 2.50301771 2.0172568 4.39601183 1.9375 7.1875 C1 9 1 9 -1.5625 10.25 C-2.366875 10.4975 -3.17125 10.745 -4 11 C-7 5.25 -7 5.25 -7 3 C-2.61538462 0 -2.61538462 0 0 0 Z " fill="#422B58" transform="translate(152,90)"/>
<path d="M0 0 C2.97 0.495 2.97 0.495 6 1 C5.40075776 5.19469571 4.42500059 9.00999834 3 13 C2.01 12.67 1.02 12.34 0 12 C-1.25 9.0625 -1.25 9.0625 -2 6 C-1.67 5.34 -1.34 4.68 -1 4 C-0.64830932 2.67139075 -0.31229724 1.33841672 0 0 Z " fill="#F5EDF2" transform="translate(109,216)"/>
<path d="M0 0 C0.99 0.33 1.98 0.66 3 1 C3.63019694 9.03501094 3.63019694 9.03501094 1 13.0625 C0.34 13.701875 -0.32 14.34125 -1 15 C-1.99 14.67 -2.98 14.34 -4 14 C-3.67 13.34 -3.34 12.68 -3 12 C-1.71312989 8.13938967 -1.86242382 5.05849717 -2 1 C-1.34 0.67 -0.68 0.34 0 0 Z " fill="#F1E4F5" transform="translate(138,110)"/>
<path d="M0 0 C5.75 4.625 5.75 4.625 8 8 C11.465 7.505 11.465 7.505 15 7 C12.22719294 10.08089673 9.93673644 11.68775452 6 13 C5.566875 12.2575 5.13375 11.515 4.6875 10.75 C3.1082257 8.03763693 3.1082257 8.03763693 1.3125 5.9375 C0 4 0 4 0 0 Z " fill="#604085" transform="translate(128,189)"/>
<path d="M0 0 C2.6875 0.3125 2.6875 0.3125 5 1 C4.79375 1.61875 4.5875 2.2375 4.375 2.875 C4.25125 3.57625 4.1275 4.2775 4 5 C4.66 5.66 5.32 6.32 6 7 C3 9 3 9 -1 9 C-1.66 7.02 -2.32 5.04 -3 3 C-1.8125 1.4375 -1.8125 1.4375 0 0 Z " fill="#3B244D" transform="translate(124,223)"/>
<path d="M0 0 C0.66 0 1.32 0 2 0 C2 0.66 2 1.32 2 2 C2.66 2.33 3.32 2.66 4 3 C2.04480616 4.17192047 0.0857461 5.3373929 -1.875 6.5 C-2.96554688 7.1496875 -4.05609375 7.799375 -5.1796875 8.46875 C-8 10 -8 10 -10 10 C-10 9.34 -10 8.68 -10 8 C-10.66 7.67 -11.32 7.34 -12 7 C-8.60830861 3.9851632 -8.60830861 3.9851632 -5.4375 4.0625 C-4.633125 4.041875 -3.82875 4.02125 -3 4 C-1.29467677 2.05990478 -1.29467677 2.05990478 0 0 Z " fill="#4B2D63" transform="translate(168,203)"/>
<path d="M0 0 C4.54109672 4.26587874 8.24735246 9.03612328 12 14 C10.02 14.99 10.02 14.99 8 16 C7.34 15.34 6.68 14.68 6 14 C6 13.01 6 12.02 6 11 C5.34 11 4.68 11 4 11 C3.34 9.02 2.68 7.04 2 5 C1.34 5.66 0.68 6.32 0 7 C-1.04449911 3.86650268 -0.93423645 3.01031744 0 0 Z " fill="#E2D8E3" transform="translate(62,111)"/>
<path d="M0 0 C0.33 0.99 0.66 1.98 1 3 C-4.94 6.465 -4.94 6.465 -11 10 C-11.33 9.01 -11.66 8.02 -12 7 C-8.8380314 3.47318887 -4.98182478 0 0 0 Z " fill="#452460" transform="translate(206,183)"/>
<path d="M0 0 C0.598125 0.20625 1.19625 0.4125 1.8125 0.625 C1.4825 1.285 1.1525 1.945 0.8125 2.625 C1.4725 2.955 2.1325 3.285 2.8125 3.625 C2.4825 4.285 2.1525 4.945 1.8125 5.625 C1.1525 5.625 0.4925 5.625 -0.1875 5.625 C-0.5175 6.285 -0.8475 6.945 -1.1875 7.625 C-1.1875 6.965 -1.1875 6.305 -1.1875 5.625 C-2.1775 6.12 -2.1775 6.12 -3.1875 6.625 C-2.8575 7.285 -2.5275 7.945 -2.1875 8.625 C-3.5075 8.295 -4.8275 7.965 -6.1875 7.625 C-5.875 4.75 -5.875 4.75 -5.1875 1.625 C-2.1875 -0.375 -2.1875 -0.375 0 0 Z " fill="#D2CCD8" transform="translate(208.1875,164.375)"/>
<path d="M0 0 C0.66 0.33 1.32 0.66 2 1 C1.57742724 2.4835001 1.13643678 3.96176424 0.6875 5.4375 C0.44386719 6.26121094 0.20023437 7.08492188 -0.05078125 7.93359375 C-0.36402344 8.61550781 -0.67726563 9.29742187 -1 10 C-1.99 10.33 -2.98 10.66 -4 11 C-4.33 11.66 -4.66 12.32 -5 13 C-5.61538462 5.73846154 -5.61538462 5.73846154 -2.5 2 C-1.675 1.34 -0.85 0.68 0 0 Z " fill="#F8EEFA" transform="translate(113,99)"/>
<path d="M0 0 C2.475 0.99 2.475 0.99 5 2 C3.03617993 3.50559539 1.21736634 4.89131683 -1 6 C-1 6.99 -1 7.98 -1 9 C-3.375 9.625 -3.375 9.625 -6 10 C-6.66 9.34 -7.32 8.68 -8 8 C-6.35 7.34 -4.7 6.68 -3 6 C-3 5.01 -3 4.02 -3 3 C-2.34 3 -1.68 3 -1 3 C-0.67 2.01 -0.34 1.02 0 0 Z " fill="#DCD6E5" transform="translate(191,178)"/>
<path d="M0 0 C6.25350037 5.10489826 12.59573688 10.5272273 16 18 C15.44570312 17.57847656 14.89140625 17.15695313 14.3203125 16.72265625 C13.59585938 16.17480469 12.87140625 15.62695312 12.125 15.0625 C11.40570313 14.51722656 10.68640625 13.97195312 9.9453125 13.41015625 C7.62043419 11.7248529 5.747218 10.91573933 3 10 C3.061875 9.236875 3.12375 8.47375 3.1875 7.6875 C2.96666486 4.52219632 2.30301466 4.01513783 0 2 C0 1.34 0 0.68 0 0 Z " fill="#774D92" transform="translate(205,98)"/>
<path d="M0 0 C0.66 0.33 1.32 0.66 2 1 C1.80664062 1.68964844 1.61328125 2.37929687 1.4140625 3.08984375 C-0.23238147 9.03171334 -1.71485619 14.96970983 -3 21 C-3.66 21 -4.32 21 -5 21 C-5.99 23.475 -5.99 23.475 -7 26 C-7.609375 24.21484375 -7.609375 24.21484375 -8 22 C-7.06119272 20.15591428 -6.11463198 18.31518402 -5.12109375 16.5 C-3.27824109 12.39050279 -2.51656055 8.05544267 -1.61328125 3.66015625 C-1 1 -1 1 0 0 Z " fill="#BA9FC6" transform="translate(11,80)"/>
<path d="M0 0 C0.93423645 3.01031744 1.04449911 3.86650268 0 7 C-3.0625 8.6875 -3.0625 8.6875 -6 10 C-6 10.66 -6 11.32 -6 12 C-6.99 12.33 -7.98 12.66 -9 13 C-9.66 12.34 -10.32 11.68 -11 11 C-10.4946875 10.66226563 -9.989375 10.32453125 -9.46875 9.9765625 C-8.8190625 9.53054687 -8.169375 9.08453125 -7.5 8.625 C-6.8503125 8.18414062 -6.200625 7.74328125 -5.53125 7.2890625 C-5.0259375 6.86367187 -4.520625 6.43828125 -4 6 C-4 5.34 -4 4.68 -4 4 C-4.66 3.67 -5.32 3.34 -6 3 C-4.02 2.01 -2.04 1.02 0 0 Z " fill="#C0B9C6" transform="translate(202,166)"/>
<path d="M0 0 C3.24208567 0.35049575 4.61527704 0.56221181 6.8125 3.0625 C7.204375 3.701875 7.59625 4.34125 8 5 C6.35 6.65 4.7 8.3 3 10 C2.896875 9.236875 2.79375 8.47375 2.6875 7.6875 C1.95635961 4.82940576 1.23048087 3.84257115 -1 2 C-0.67 1.34 -0.34 0.68 0 0 Z " fill="#EAE6EA" transform="translate(113,206)"/>
<path d="M0 0 C0 0.99 0 1.98 0 3 C-2.31 3.66 -4.62 4.32 -7 5 C-7 5.66 -7 6.32 -7 7 C-6.34 7.33 -5.68 7.66 -5 8 C-8.69541586 8.95024979 -11.30458414 8.95024979 -15 8 C-12.23612808 5.84821844 -9.43466931 4.01629579 -6.375 2.3125 C-5.59898437 1.87550781 -4.82296875 1.43851563 -4.0234375 0.98828125 C-2 0 -2 0 0 0 Z " fill="#C5B9CB" transform="translate(169,185)"/>
<path d="M0 0 C-1.2179755 3.65392651 -2.14396506 3.95831699 -5.4375 5.75 C-6.64212891 6.42289063 -6.64212891 6.42289063 -7.87109375 7.109375 C-8.57363281 7.40328125 -9.27617187 7.6971875 -10 8 C-10.66 7.67 -11.32 7.34 -12 7 C-6.35714286 -2.27040816 -6.35714286 -2.27040816 0 0 Z " fill="#4A2862" transform="translate(225,174)"/>
<path d="M0 0 C0.66 0.33 1.32 0.66 2 1 C-8.56341463 8.94912892 -8.56341463 8.94912892 -15 10 C-15.99 9.67 -16.98 9.34 -18 9 C-15.04817547 7.46627858 -12.08760757 5.95027306 -9.125 4.4375 C-8.28324219 3.99986328 -7.44148438 3.56222656 -6.57421875 3.11132812 C-5.76855469 2.70205078 -4.96289062 2.29277344 -4.1328125 1.87109375 C-3.38918457 1.48880615 -2.64555664 1.10651855 -1.87939453 0.71264648 C-1.25919434 0.47747314 -0.63899414 0.2422998 0 0 Z " fill="#7F599F" transform="translate(90,34)"/>
<path d="M0 0 C0.66 0.33 1.32 0.66 2 1 C0.90300781 1.61488281 -0.19398438 2.22976562 -1.32421875 2.86328125 C-2.77866735 3.67964917 -4.23309323 4.49605756 -5.6875 5.3125 C-6.40873047 5.71662109 -7.12996094 6.12074219 -7.87304688 6.53710938 C-8.57880859 6.93349609 -9.28457031 7.32988281 -10.01171875 7.73828125 C-10.70056152 8.12322754 -11.3894043 8.50817383 -12.09912109 8.90478516 C-13.70999493 9.83291 -15.27694894 10.83662172 -16.83203125 11.85546875 C-17.90517578 12.42201172 -17.90517578 12.42201172 -19 13 C-19.99 12.67 -20.98 12.34 -22 12 C-17.52566847 9.24931315 -12.93667994 6.73662433 -8.3125 4.25 C-7.15524414 3.61384766 -7.15524414 3.61384766 -5.97460938 2.96484375 C-5.23662109 2.56910156 -4.49863281 2.17335937 -3.73828125 1.765625 C-3.06837158 1.40243164 -2.39846191 1.03923828 -1.70825195 0.66503906 C-1.14452881 0.44557617 -0.58080566 0.22611328 0 0 Z " fill="#38284C" transform="translate(152,192)"/>
<path d="M0 0 C0.66 0.33 1.32 0.66 2 1 C0.61469871 4.42717768 -0.67477227 5.7293493 -4 7.3125 C-4.70125 7.65925781 -5.4025 8.00601563 -6.125 8.36328125 C-7.053125 8.67845703 -7.053125 8.67845703 -8 9 C-8.66 8.67 -9.32 8.34 -10 8 C-9.67 7.38125 -9.34 6.7625 -9 6.125 C-7.85806765 4.08981656 -7.85806765 4.08981656 -8 2 C-6.2984375 1.7834375 -6.2984375 1.7834375 -4.5625 1.5625 C-1.19222799 1.38828522 -1.19222799 1.38828522 0 0 Z " fill="#CEC9CC" transform="translate(229,154)"/>
<path d="M0 0 C1.65 0 3.3 0 5 0 C5.33 1.65 5.66 3.3 6 5 C3.1875 7.0625 3.1875 7.0625 0 9 C-0.99 8.67 -1.98 8.34 -3 8 C-2.67 7.34 -2.34 6.68 -2 6 C-1.34 6 -0.68 6 0 6 C0 4.02 0 2.04 0 0 Z " fill="#DFDCDC" transform="translate(125,199)"/>
<path d="M0 0 C0.33 0.99 0.66 1.98 1 3 C-0.9375 5.6875 -0.9375 5.6875 -3 8 C-3.33 7.01 -3.66 6.02 -4 5 C-4.66 5 -5.32 5 -6 5 C-6.33 6.32 -6.66 7.64 -7 9 C-9.97 8.505 -9.97 8.505 -13 8 C-10.20375042 5.81302498 -7.36692128 4.00847187 -4.25 2.3125 C-3.45078125 1.87550781 -2.6515625 1.43851563 -1.828125 0.98828125 C-1.22484375 0.66214844 -0.6215625 0.33601562 0 0 Z " fill="#B6A9B0" transform="translate(242,144)"/>
<path d="M0 0 C3.59478576 3.49207759 7.00247775 6.97475584 10 11 C10 12.32 10 13.64 10 15 C9.34 15 8.68 15 8 15 C7.773125 14.278125 7.54625 13.55625 7.3125 12.8125 C5.74537323 9.45437121 3.671784 7.5381948 1 5 C0.34 4.01 -0.32 3.02 -1 2 C-0.67 1.34 -0.34 0.68 0 0 Z " fill="#48355F" transform="translate(171,95)"/>
<path d="M0 0 C1.65 0 3.3 0 5 0 C5 3 5 3 3.75 4.625 C1.71036212 6.22757262 0.60928057 6.92093089 -2 7 C-4.25 5.0625 -4.25 5.0625 -6 3 C-5.195625 2.87625 -4.39125 2.7525 -3.5625 2.625 C-2.716875 2.41875 -1.87125 2.2125 -1 2 C-0.67 1.34 -0.34 0.68 0 0 Z " fill="#E3DDE6" transform="translate(134,209)"/>
<path d="M0 0 C0.33 0.66 0.66 1.32 1 2 C1.99 2 2.98 2 4 2 C4 2.99 4 3.98 4 5 C3.01 5.495 3.01 5.495 2 6 C3.65 6 5.3 6 7 6 C6.01 6.33 5.02 6.66 4 7 C4 7.66 4 8.32 4 9 C4.66 9.33 5.32 9.66 6 10 C3.125 10.125 3.125 10.125 0 10 C-0.66 9.34 -1.32 8.68 -2 8 C-1.67 7.236875 -1.34 6.47375 -1 5.6875 C0.17436686 3.00930865 0.17436686 3.00930865 0 0 Z " fill="#E2D7E6" transform="translate(169,185)"/>
<path d="M0 0 C0.33 0.66 0.66 1.32 1 2 C0.175 2.433125 -0.65 2.86625 -1.5 3.3125 C-2.325 3.869375 -3.15 4.42625 -4 5 C-4 5.99 -4 6.98 -4 8 C-5.32 7.67 -6.64 7.34 -8 7 C-8.33 7.66 -8.66 8.32 -9 9 C-9.99 8.67 -10.98 8.34 -12 8 C-13.99673484 7.64763503 -15.99650739 7.31165441 -18 7 C-18 6.67 -18 6.34 -18 6 C-17.05640625 5.85304687 -17.05640625 5.85304687 -16.09375 5.703125 C-10.05761911 4.64862021 -5.35559155 2.97532864 0 0 Z " fill="#E1D8E6" transform="translate(155,134)"/>
<path d="M0 0 C3.11956076 1.03985359 3.84927828 1.67722054 6 4 C6.721875 4.598125 7.44375 5.19625 8.1875 5.8125 C10.54252454 8.65477099 10.32654951 10.40795541 10 14 C6.95483798 11.16667533 4.83131399 8.34499689 2.75 4.75 C2.22921875 3.85796875 1.7084375 2.9659375 1.171875 2.046875 C0.78515625 1.37140625 0.3984375 0.6959375 0 0 Z " fill="#726889" transform="translate(54,129)"/>
<path d="M0 0 C3 1 3 1 4.5625 3.875 C5.036875 4.90625 5.51125 5.9375 6 7 C6.99 8.485 6.99 8.485 8 10 C7.01 11.485 7.01 11.485 6 13 C5.5875 12.236875 5.175 11.47375 4.75 10.6875 C3.04124191 8.0633358 1.58982247 6.69678024 -1 5 C-0.67 3.35 -0.34 1.7 0 0 Z " fill="#5E4E6E" transform="translate(20,81)"/>
<path d="M0 0 C-3.0622744 2.48627517 -6.1457054 4.09989404 -9.75 5.6875 C-10.73484375 6.12449219 -11.7196875 6.56148438 -12.734375 7.01171875 C-13.48203125 7.33785156 -14.2296875 7.66398437 -15 8 C-14.67 6.68 -14.34 5.36 -14 4 C-13.01 4 -12.02 4 -11 4 C-11 3.34 -11 2.68 -11 2 C-7.17679443 0.57741188 -4.08718695 -0.24042276 0 0 Z " fill="#45315A" transform="translate(133,62)"/>
<path d="M0 0 C-3.07182681 3.395177 -6.13959595 5.87597306 -10.8125 6.1875 C-11.534375 6.125625 -12.25625 6.06375 -13 6 C-12 3 -12 3 -9.3125 1.3125 C-5.91018714 -0.03558623 -3.61672729 -0.25833766 0 0 Z " fill="#301C44" transform="translate(222,172)"/>
<path d="M0 0 C-2.28874173 1.33858524 -4.58069656 2.67101014 -6.875 4 C-7.52597656 4.3815625 -8.17695313 4.763125 -8.84765625 5.15625 C-13.7734375 8 -13.7734375 8 -16 8 C-15.33984375 5.6484375 -15.33984375 5.6484375 -14 3 C-11.50390625 1.6015625 -11.50390625 1.6015625 -8.5625 0.625 C-7.11037109 0.11839844 -7.11037109 0.11839844 -5.62890625 -0.3984375 C-3 -1 -3 -1 0 0 Z " fill="#BAACC3" transform="translate(163,203)"/>
<path d="M0 0 C2.33333333 2.33333333 4.66666667 4.66666667 7 7 C6.625 9.125 6.625 9.125 6 11 C0.125 6.375 0.125 6.375 -1 3 C-0.67 2.01 -0.34 1.02 0 0 Z " fill="#81798F" transform="translate(116,200)"/>
<path d="M0 0 C2.91517292 1.07401108 4.77810176 1.77810176 7 4 C7.69258229 5.99117408 8.35747635 7.9921136 9 10 C9.63815344 11.34721283 10.29325371 12.68747118 11 14 C6.38598541 10.74304853 2.99637562 6.75713243 0 2 C0 1.34 0 0.68 0 0 Z " fill="#5B4175" transform="translate(97,153)"/>
<path d="M0 0 C1.48206495 0.254496 2.96068615 0.52911762 4.4375 0.8125 C5.67306641 1.03873047 5.67306641 1.03873047 6.93359375 1.26953125 C7.95646484 1.63111328 7.95646484 1.63111328 9 2 C9.33 2.99 9.66 3.98 10 5 C9.34 5.66 8.68 6.32 8 7 C4.77013073 6.83436568 3.41837418 6.44722757 1.1875 4.0625 C0 2 0 2 0 0 Z " fill="#EBE0F1" transform="translate(115,136)"/>
<path d="M0 0 C1.65 1.65 3.3 3.3 5 5 C4.67 5.99 4.34 6.98 4 8 C1.1875 9.0625 1.1875 9.0625 -2 10 C-3.34721283 10.63815344 -4.68747118 11.29325371 -6 12 C-6.33 11.34 -6.66 10.68 -7 10 C-4.03 8.02 -1.06 6.04 2 4 C1.34 2.68 0.68 1.36 0 0 Z " fill="#583170" transform="translate(239,136)"/>
<path d="M0 0 C2 2 2 2 2.375 5.125 C1.92205289 9.80545346 0.33503416 12.98666004 -2 17 C-2.33 17 -2.66 17 -3 17 C-3 15.02 -3 13.04 -3 11 C-2.34 11 -1.68 11 -1 11 C-0.67 7.37 -0.34 3.74 0 0 Z " fill="#3C215B" transform="translate(100,93)"/>
<path d="M0 0 C-3.5087188 3.09592835 -6.49197399 4.74194623 -11 6 C-11.66 5.34 -12.32 4.68 -13 4 C-12.67 3.01 -12.34 2.02 -12 1 C-11.34 1.66 -10.68 2.32 -10 3 C-9.46375 2.505 -8.9275 2.01 -8.375 1.5 C-5.40641555 -0.37489544 -3.44687573 -0.23501425 0 0 Z " fill="#D0C2D7" transform="translate(175,195)"/>
<path d="M0 0 C5.03372844 1.43820813 6.98955889 3.90245515 10 8 C10.33 8.99 10.66 9.98 11 11 C11.66 11.66 12.32 12.32 13 13 C12.01 13 11.02 13 10 13 C7.7734375 10.6640625 7.7734375 10.6640625 5.375 7.625 C4.57835938 6.62726563 3.78171875 5.62953125 2.9609375 4.6015625 C1 2 1 2 0 0 Z " fill="#796C90" transform="translate(64,143)"/>
<path d="M0 0 C0.721875 0.33 1.44375 0.66 2.1875 1 C2.1875 1.99 2.1875 2.98 2.1875 4 C1.5275 4 0.8675 4 0.1875 4 C-0.1425 4.66 -0.4725 5.32 -0.8125 6 C-1.328125 5.360625 -1.84375 4.72125 -2.375 4.0625 C-5.47185623 1.44208319 -7.83317623 1.30610183 -11.8125 1 C-7.62990174 -1.47857675 -4.5722456 -1.62568732 0 0 Z " fill="#482F61" transform="translate(132.8125,93)"/>
<path d="M0 0 C0.66 0 1.32 0 2 0 C2.66 2.64 3.32 5.28 4 8 C3.34 8 2.68 8 2 8 C1.67 9.32 1.34 10.64 1 12 C0.01 8.7 -0.98 5.4 -2 2 C-1.34 1.34 -0.68 0.68 0 0 Z " fill="#E5D5EB" transform="translate(139,81)"/>
<path d="M0 0 C1.65 0 3.3 0 5 0 C6.0625 1.8125 6.0625 1.8125 7 4 C6.67 4.99 6.34 5.98 6 7 C3.53199953 5.84826645 1.95216435 4.95216435 0 3 C0 2.01 0 1.02 0 0 Z " fill="#F9F3F7" transform="translate(164,83)"/>
<path d="M0 0 C0.33 0.99 0.66 1.98 1 3 C-0.28524261 3.86380259 -1.57842419 4.71580369 -2.875 5.5625 C-3.59429687 6.03816406 -4.31359375 6.51382813 -5.0546875 7.00390625 C-5.69664062 7.33261719 -6.33859375 7.66132813 -7 8 C-7.66 7.67 -8.32 7.34 -9 7 C-8.67 6.01 -8.34 5.02 -8 4 C-7.34 4 -6.68 4 -6 4 C-5.67 3.01 -5.34 2.02 -5 1 C-3 0 -3 0 0 0 Z " fill="#DAD1DD" transform="translate(198,170)"/>
<path d="M0 0 C-0.33 0.33 -0.66 0.66 -1 1 C-0.34 1.66 0.32 2.32 1 3 C-0.2684375 2.9690625 -0.2684375 2.9690625 -1.5625 2.9375 C-5.11892777 3.00216232 -8.49093503 3.4385496 -12 4 C-8.14101327 -0.27244959 -5.61655982 -1.8053228 0 0 Z " fill="#291744" transform="translate(233,167)"/>
<path d="M0 0 C2.6855594 2.6855594 3.06049974 5.37621328 4 9 C2.68 9.33 1.36 9.66 0 10 C-0.66 7.03 -1.32 4.06 -2 1 C-1.34 0.67 -0.68 0.34 0 0 Z " fill="#ECDDF1" transform="translate(149,75)"/>
<path d="M0 0 C0.99 0.33 1.98 0.66 3 1 C4.32 1 5.64 1 7 1 C1.85714286 5.42857143 1.85714286 5.42857143 -2 6 C-2 2 -2 2 0 0 Z " fill="#C5BECE" transform="translate(200,176)"/>
<path d="M0 0 C2.97 0.495 2.97 0.495 6 1 C5 3 5 3 2.3125 4 C1.219375 4.33 0.12625 4.66 -1 5 C-2.11375 5.37125 -3.2275 5.7425 -4.375 6.125 C-5.24125 6.41375 -6.1075 6.7025 -7 7 C-7.33 6.34 -7.66 5.68 -8 5 C-6.8125 3.5 -6.8125 3.5 -5 2 C-2.3125 1.8125 -2.3125 1.8125 0 2 C0 1.34 0 0.68 0 0 Z " fill="#DEDAE1" transform="translate(210,168)"/>
<path d="M0 0 C3.26008643 3.16952847 6.22237877 6.39937989 9 10 C8.67 10.66 8.34 11.32 8 12 C5 11 5 11 4 9.25 C3.67 8.5075 3.34 7.765 3 7 C2.46375 6.13375 1.9275 5.2675 1.375 4.375 C0 2 0 2 0 0 Z " fill="#DED5E5" transform="translate(91,148)"/>
<path d="M0 0 C0.66 0.99 1.32 1.98 2 3 C1.70630173 4.34262065 1.3721042 5.67696283 1 7 C1.33 7.99 1.66 8.98 2 10 C1.0625 12.1875 1.0625 12.1875 0 14 C-1.99475484 9.88581814 -2.34358086 6.55244646 -2 2 C-1.34 1.34 -0.68 0.68 0 0 Z " fill="#52386A" transform="translate(114,103)"/>
<path d="M0 0 C3.9252025 3.70090521 6.94580156 7.54959656 10 12 C9.01 12.495 9.01 12.495 8 13 C5.02859871 10.23352293 3.02818571 7.50322987 1 4 C0.34 3.34 -0.32 2.68 -1 2 C-0.67 1.34 -0.34 0.68 0 0 Z " fill="#E3D5E7" transform="translate(46,91)"/>
<path d="M0 0 C1.875 0.0625 1.875 0.0625 4 1 C5.75 4.0625 5.75 4.0625 7 7 C6.01 7.495 6.01 7.495 5 8 C0.34751773 5.84397163 0.34751773 5.84397163 -0.875 2.875 C-0.91625 2.25625 -0.9575 1.6375 -1 1 C-0.67 0.67 -0.34 0.34 0 0 Z " fill="#452D5D" transform="translate(185,96)"/>
<path d="M0 0 C1.875 0.9375 1.875 0.9375 4 3 C4.95351561 5.95485056 5.51196718 8.9369519 6 12 C1.34012809 8.9342948 0.14514798 6.41342681 -1 1 C-0.67 0.67 -0.34 0.34 0 0 Z " fill="#D7C9DF" transform="translate(103,215)"/>
<path d="M0 0 C7.32735426 3.69775785 7.32735426 3.69775785 8.9765625 6.890625 C9.5 8.8125 9.5 8.8125 10 12 C6.15216516 8.93922229 2.85267377 6.05957421 0 2 C0 1.34 0 0.68 0 0 Z " fill="#BBA5C5" transform="translate(68,178)"/>
<path d="M0 0 C-1 3 -1 3 -3 4 C-3 4.66 -3 5.32 -3 6 C-4.98 6.66 -6.96 7.32 -9 8 C-9 6.68 -9 5.36 -9 4 C-2.25 0 -2.25 0 0 0 Z " fill="#301B48" transform="translate(207,178)"/>
<path d="M0 0 C0.66 0 1.32 0 2 0 C2.6875 2.8125 2.6875 2.8125 3 6 C1.5625 7.875 1.5625 7.875 0 9 C-0.99 8.67 -1.98 8.34 -3 8 C-2.01 5.36 -1.02 2.72 0 0 Z " fill="#FAF1FC" transform="translate(137,116)"/>
<path d="M0 0 C1.9451 2.91765 2.45276317 4.62537285 3 8 C1.68 8.33 0.36 8.66 -1 9 C-1.66 6.36 -2.32 3.72 -3 1 C-2.01 0.67 -1.02 0.34 0 0 Z " fill="#E5D9ED" transform="translate(150,107)"/>
<path d="M0 0 C0.33 0.66 0.66 1.32 1 2 C-0.98 4.97 -0.98 4.97 -3 8 C-3.99 7.34 -4.98 6.68 -6 6 C-8.64632287 6.3121764 -8.64632287 6.3121764 -11 7 C-7.54319097 4.23455278 -3.85658398 2.15078722 0 0 Z " fill="#C1A1CF" transform="translate(24,73)"/>
<path d="M0 0 C0.66 0.33 1.32 0.66 2 1 C0.27559635 1.98753064 -1.45475026 2.96468806 -3.1875 3.9375 C-4.15042969 4.48277344 -5.11335938 5.02804688 -6.10546875 5.58984375 C-8.80662842 6.90579333 -11.04356101 7.57301887 -14 8 C-11.52010087 5.14181117 -8.86353122 3.80106607 -5.4375 2.25 C-4.46683594 1.80140625 -3.49617188 1.3528125 -2.49609375 0.890625 C-1.67238281 0.59671875 -0.84867188 0.3028125 0 0 Z " fill="#885AA9" transform="translate(107,26)"/>
<path d="M0 0 C0.99 0.33 1.98 0.66 3 1 C3 1.66 3 2.32 3 3 C3.99 3 4.98 3 6 3 C6 4.98 6 6.96 6 9 C5.34 9 4.68 9 4 9 C4 8.34 4 7.68 4 7 C3.34 7 2.68 7 2 7 C2 6.01 2 5.02 2 4 C1.01 4 0.02 4 -1 4 C-0.67 2.68 -0.34 1.36 0 0 Z " fill="#6E6775" transform="translate(116,217)"/>
<path d="M0 0 C0.66 0.66 1.32 1.32 2 2 C1.01 2.33 0.02 2.66 -1 3 C-1.70211894 4.65204456 -2.36971413 6.31923769 -3 8 C-3.99 8.495 -3.99 8.495 -5 9 C-5 8.34 -5 7.68 -5 7 C-5.66 6.67 -6.32 6.34 -7 6 C-4.74259377 3.66475218 -2.7194239 1.81294927 0 0 Z " fill="#554F59" transform="translate(129,204)"/>
<path d="M0 0 C0.66 0.33 1.32 0.66 2 1 C2 1.66 2 2.32 2 3 C-3.445 5.475 -3.445 5.475 -9 8 C-9 7.01 -9 6.02 -9 5 C-7.68 5 -6.36 5 -5 5 C-5 4.34 -5 3.68 -5 3 C-2.625 1.3125 -2.625 1.3125 0 0 Z " fill="#593E79" transform="translate(152,189)"/>
<path d="M0 0 C1.32 0 2.64 0 4 0 C4.38218767 1.65614657 4.71395102 3.32457024 5 5 C4.67 5.33 4.34 5.66 4 6 C4.66 6.66 5.32 7.32 6 8 C3.69 7.67 1.38 7.34 -1 7 C-0.01 6.01 0.98 5.02 2 4 C1.34 4 0.68 4 0 4 C0 2.68 0 1.36 0 0 Z " fill="#563E6E" transform="translate(123,131)"/>
<path d="M0 0 C3.14947449 2.3833861 5.9972676 4.55084975 8 8 C7.67 8.99 7.34 9.98 7 11 C7 10.34 7 9.68 7 9 C6.401875 8.731875 5.80375 8.46375 5.1875 8.1875 C2.95762543 6.97699666 1.54509308 6.008621 0 4 C0 2.68 0 1.36 0 0 Z " fill="#493D60" transform="translate(27,91)"/>
<path d="M0 0 C2.31 0 4.62 0 7 0 C7.33 0.66 7.66 1.32 8 2 C5 3 5 3 2 2 C2 2.99 2 3.98 2 5 C0.68 4.67 -0.64 4.34 -2 4 C-1.34 2.68 -0.68 1.36 0 0 Z " fill="#FCF8FC" transform="translate(147,66)"/>
<path d="M0 0 C-0.625 1.875 -0.625 1.875 -2 4 C-5.125 5.25 -5.125 5.25 -8 6 C-7.6875 4.125 -7.6875 4.125 -7 2 C-4 0 -4 0 0 0 Z " fill="#2E183F" transform="translate(190,189)"/>
<path d="M0 0 C3.24838923 1.08279641 4.04282583 1.89036845 6.1875 4.4375 C6.71730469 5.05496094 7.24710937 5.67242187 7.79296875 6.30859375 C9 8 9 8 9 10 C7.0625 9.6875 7.0625 9.6875 5 9 C4.67 8.01 4.34 7.02 4 6 C3.319375 5.505 2.63875 5.01 1.9375 4.5 C1.298125 4.005 0.65875 3.51 0 3 C0 2.01 0 1.02 0 0 Z " fill="#D5D0DD" transform="translate(92,179)"/>
<path d="M0 0 C2.4375 0.75 2.4375 0.75 5 2 C5.5625 3.8125 5.5625 3.8125 6 6 C7.28062485 7.7074998 8.6072711 9.38263741 10 11 C9.67 11.66 9.34 12.32 9 13 C7.4941255 11.21326795 5.9954515 9.42046492 4.5 7.625 C3.6646875 6.62726563 2.829375 5.62953125 1.96875 4.6015625 C0 2 0 2 0 0 Z " fill="#5D4171" transform="translate(113,173)"/>
<path d="M0 0 C1.65 0.33 3.3 0.66 5 1 C4.67 1.66 4.34 2.32 4 3 C2.68 3 1.36 3 0 3 C0.33 5.64 0.66 8.28 1 11 C-0.5625 9.875 -0.5625 9.875 -2 8 C-1.75528519 5.00224356 -1.34661086 2.69322172 0 0 Z " fill="#533B68" transform="translate(136,108)"/>
<path d="M0 0 C0.66 0 1.32 0 2 0 C2 0.66 2 1.32 2 2 C3.97746603 2.73080266 5.98072489 3.39421747 8 4 C8.66 3.67 9.32 3.34 10 3 C9.67 4.32 9.34 5.64 9 7 C7.68 7 6.36 7 5 7 C5 6.01 5 5.02 5 4 C4.01 4.33 3.02 4.66 2 5 C1.34 3.35 0.68 1.7 0 0 Z " fill="#492D61" transform="translate(87,105)"/>
<path d="M0 0 C1.65 0 3.3 0 5 0 C5.33 0.66 5.66 1.32 6 2 C5.16855469 2.39832031 5.16855469 2.39832031 4.3203125 2.8046875 C3.23363281 3.33449219 3.23363281 3.33449219 2.125 3.875 C1.40570313 4.22304687 0.68640625 4.57109375 -0.0546875 4.9296875 C-2.15135019 5.96557543 -2.15135019 5.96557543 -4 8 C-4 6.35 -4 4.7 -4 3 C-2.68 3 -1.36 3 0 3 C0 2.01 0 1.02 0 0 Z " fill="#4D3360" transform="translate(114,93)"/>
<path d="M0 0 C-0.1875 1.875 -0.1875 1.875 -1 4 C-3.5 5.125 -3.5 5.125 -6 6 C-6.33 6.66 -6.66 7.32 -7 8 C-7.3125 5.6875 -7.3125 5.6875 -7 3 C-4.6167054 1.18116991 -3.04181663 0 0 0 Z " fill="#392451" transform="translate(107,84)"/>
<path d="M0 0 C2.31 0 4.62 0 7 0 C7.33 0.66 7.66 1.32 8 2 C4.6828589 3.4216319 1.55780196 4.39009109 -2 5 C-1.34 3.35 -0.68 1.7 0 0 Z " fill="#CEC7D0" transform="translate(127,209)"/>
<path d="M0 0 C0.66 0.33 1.32 0.66 2 1 C1.814375 1.556875 1.62875 2.11375 1.4375 2.6875 C0.92448835 5.399133 1.3359276 7.34371039 2 10 C0.68 10.33 -0.64 10.66 -2 11 C-2.19622241 6.78121808 -1.80230168 3.82989106 0 0 Z " fill="#956FA7" transform="translate(237,153)"/>
<path d="M0 0 C-0.33 1.32 -0.66 2.64 -1 4 C-6.75 5.125 -6.75 5.125 -9 4 C-3.375 0 -3.375 0 0 0 Z " fill="#483061" transform="translate(179,131)"/>
<path d="M0 0 C0.625 2.3125 0.625 2.3125 1 5 C0.01 6.485 0.01 6.485 -1 8 C-1.33 7.01 -1.66 6.02 -2 5 C-3.65 5 -5.3 5 -7 5 C-7 4.34 -7 3.68 -7 3 C-2.61538462 0 -2.61538462 0 0 0 Z " fill="#4B3862" transform="translate(152,90)"/>
<path d="M0 0 C2 3 2 3 2 5 C-2.38461538 8 -2.38461538 8 -5 8 C-5.33 6.35 -5.66 4.7 -6 3 C-5.01 3 -4.02 3 -3 3 C-3 3.66 -3 4.32 -3 5 C-2.34 5 -1.68 5 -1 5 C-0.67 3.35 -0.34 1.7 0 0 Z " fill="#4C3A62" transform="translate(148,82)"/>
<path d="M0 0 C1.65 1.65 3.3 3.3 5 5 C4.01 5.66 3.02 6.32 2 7 C2 6.34 2 5.68 2 5 C0.35 5.66 -1.3 6.32 -3 7 C-2.01 4.69 -1.02 2.38 0 0 Z " fill="#E2CFE7" transform="translate(29,69)"/>
<path d="M0 0 C0.99 0.33 1.98 0.66 3 1 C3.33 1.99 3.66 2.98 4 4 C-1.445 6.475 -1.445 6.475 -7 9 C-7 8.34 -7 7.68 -7 7 C-4 5 -4 5 -1 5 C-0.67 3.35 -0.34 1.7 0 0 Z " fill="#46305E" transform="translate(113,67)"/>
<path d="M0 0 C4.6875 3.61328125 4.6875 3.61328125 6 5 C6 5.99 6 6.98 6 8 C5.34 8.66 4.68 9.32 4 10 C1.16625119 6.79663178 0.4794463 4.21912747 0 0 Z " fill="#756B89" transform="translate(87,167)"/>
<path d="M0 0 C2.97 0.495 2.97 0.495 6 1 C3.11912454 3.40072955 0.43595166 5.47291037 -3 7 C-3.66 6.34 -4.32 5.68 -5 5 C-3.68 4.67 -2.36 4.34 -1 4 C-0.67 2.68 -0.34 1.36 0 0 Z " fill="#B7B1C1" transform="translate(224,163)"/>
<path d="M0 0 C2.66666667 2.66666667 5.33333333 5.33333333 8 8 C7.67 8.99 7.34 9.98 7 11 C6.38125 10.360625 5.7625 9.72125 5.125 9.0625 C3.17402388 6.96116416 3.17402388 6.96116416 1 6 C0.375 2.9375 0.375 2.9375 0 0 Z " fill="#5E5376" transform="translate(63,137)"/>
<path d="M0 0 C1.9375 0.6875 1.9375 0.6875 2.9375 2.6875 C-3.6875 3.6875 -3.6875 3.6875 -7.0625 3.6875 C-3.08781646 -0.46785098 -3.08781646 -0.46785098 0 0 Z " fill="#E5E0E6" transform="translate(152.0625,202.3125)"/>
<path d="M0 0 C0 0.99 0 1.98 0 3 C-3.08809695 4.76462683 -4.23312136 5 -8 5 C-7.67 3.68 -7.34 2.36 -7 1 C-2.25 0 -2.25 0 0 0 Z " fill="#431A5A" transform="translate(192,192)"/>
<path d="M0 0 C0.33 0.66 0.66 1.32 1 2 C-0.76371818 3.03307771 -2.53625033 4.05112049 -4.3125 5.0625 C-5.79169922 5.91521484 -5.79169922 5.91521484 -7.30078125 6.78515625 C-10 8 -10 8 -13 7 C-8.8004541 4.37528381 -4.44365551 2.17220877 0 0 Z " fill="#EEE8EB" transform="translate(235,155)"/>
<path d="M0 0 C1 2 1 2 1 5 C-0.3125 6.6875 -0.3125 6.6875 -2 8 C-2.99 8 -3.98 8 -5 8 C-3.8141763 4.62496331 -2.72426311 2.35277269 0 0 Z " fill="#F0E5F5" transform="translate(135,120)"/>
<path d="M0 0 C1.32 0.33 2.64 0.66 4 1 C4 1.99 4 2.98 4 4 C6.475 4.99 6.475 4.99 9 6 C8.67 6.66 8.34 7.32 8 8 C6.25 7.9375 6.25 7.9375 4 7 C2.40498463 4.75835678 1.25456982 2.46433357 0 0 Z " fill="#E5D8EA" transform="translate(11,112)"/>
<path d="M0 0 C0.66 0 1.32 0 2 0 C5.11450382 4.15267176 5.11450382 4.15267176 4.6875 7.3125 C4.460625 7.869375 4.23375 8.42625 4 9 C-0.00390625 4.60546875 -0.00390625 4.60546875 -1 3 C-0.67 2.01 -0.34 1.02 0 0 Z " fill="#635875" transform="translate(41,109)"/>
<path d="M0 0 C2 6.625 2 6.625 2 10 C0.99406757 8.8803014 -0.0045849 7.7540588 -1 6.625 C-1.556875 5.99851563 -2.11375 5.37203125 -2.6875 4.7265625 C-4 3 -4 3 -4 1 C-1 0 -1 0 0 0 Z " fill="#E4D8EC" transform="translate(39,137)"/>
<path d="M0 0 C1.98 0 3.96 0 6 0 C6.33 1.32 6.66 2.64 7 4 C5.35 4.33 3.7 4.66 2 5 C1.34 4.01 0.68 3.02 0 2 C-0.33 2.66 -0.66 3.32 -1 4 C-0.67 2.68 -0.34 1.36 0 0 Z " fill="#472E5E" transform="translate(120,98)"/>
<path d="M0 0 C1 3 1 3 0.00390625 5.26171875 C-0.47175781 6.06222656 -0.94742187 6.86273438 -1.4375 7.6875 C-1.91058594 8.49574219 -2.38367188 9.30398437 -2.87109375 10.13671875 C-3.24363281 10.75160156 -3.61617187 11.36648437 -4 12 C-4.65234375 10.265625 -4.65234375 10.265625 -5 8 C-4.00390625 5.859375 -4.00390625 5.859375 -2.5625 3.75 C-2.08941406 3.04359375 -1.61632812 2.3371875 -1.12890625 1.609375 C-0.75636719 1.07828125 -0.38382813 0.5471875 0 0 Z " fill="#3F2550" transform="translate(26,72)"/>
<path d="M0 0 C2 1.3125 2 1.3125 4 3 C4 3.99 4 4.98 4 6 C3.01 6.33 2.02 6.66 1 7 C0.87625 6.360625 0.7525 5.72125 0.625 5.0625 C0.315625 4.0415625 0.315625 4.0415625 0 3 C-0.66 2.67 -1.32 2.34 -2 2 C-1.34 1.34 -0.68 0.68 0 0 Z " fill="#D6CCDF" transform="translate(130,196)"/>
<path d="M0 0 C2 1 2 1 3 3 C0.525 4.485 0.525 4.485 -2 6 C-2 5.34 -2 4.68 -2 4 C-3.65 4.33 -5.3 4.66 -7 5 C-4.702779 3.25728062 -2.40133271 1.60088848 0 0 Z " fill="#C2B6C9" transform="translate(185,175)"/>
<path d="M0 0 C-3.96 1.98 -3.96 1.98 -8 4 C-8.66 3.34 -9.32 2.68 -10 2 C-4.5 -1.125 -4.5 -1.125 0 0 Z " fill="#422E59" transform="translate(162,131)"/>
<path d="M0 0 C1.65 0 3.3 0 5 0 C5 2.31 5 4.62 5 7 C3.0625 6.3125 3.0625 6.3125 1 5 C0.25 2.375 0.25 2.375 0 0 Z " fill="#4A2C6A" transform="translate(142,108)"/>
<path d="M0 0 C2.1385485 2.1385485 2.42655063 3.13275314 3 6 C1 6 1 6 -0.625 4.5 C-1.07875 4.005 -1.5325 3.51 -2 3 C-1.67 3.99 -1.34 4.98 -1 6 C-2.32 6 -3.64 6 -5 6 C-3.63016497 2.83884224 -3.0109362 2.0072908 0 0 Z " fill="#49345B" transform="translate(155,101)"/>
<path d="M0 0 C1.9375 0.8125 1.9375 0.8125 4 2 C5 5 5 5 4 9 C2.35 6.69 0.7 4.38 -1 2 C-0.67 1.34 -0.34 0.68 0 0 Z " fill="#52366C" transform="translate(32,69)"/>
<path d="M0 0 C4.455 0.99 4.455 0.99 9 2 C8.01 2.99 7.02 3.98 6 5 C4.68 5 3.36 5 2 5 C1.34 3.35 0.68 1.7 0 0 Z " fill="#4B3260" transform="translate(121,227)"/>
<path d="M0 0 C0.33 0.66 0.66 1.32 1 2 C1.61875 1.79375 2.2375 1.5875 2.875 1.375 C3.57625 1.25125 4.2775 1.1275 5 1 C5.66 1.66 6.32 2.32 7 3 C1.25 6 1.25 6 -1 6 C-0.67 4.02 -0.34 2.04 0 0 Z " fill="#CABCD4" transform="translate(122,219)"/>
<path d="M0 0 C-2.64 1.65 -5.28 3.3 -8 5 C-8.33 3.68 -8.66 2.36 -9 1 C-2.25 -1.125 -2.25 -1.125 0 0 Z " fill="#6A528B" transform="translate(143,197)"/>
<path d="M0 0 C0.99 0.66 1.98 1.32 3 2 C-1.95 4.475 -1.95 4.475 -7 7 C-7 6.01 -7 5.02 -7 4 C-4.69 2.68 -2.38 1.36 0 0 Z " fill="#53266A" transform="translate(201,186)"/>
<path d="M0 0 C2.64752004 2.57784846 4.94432065 4.91648098 7 8 C6.34 8.66 5.68 9.32 5 10 C4.71125 9.360625 4.4225 8.72125 4.125 8.0625 C3.17176549 5.84793921 3.17176549 5.84793921 1 5 C0.375 2.4375 0.375 2.4375 0 0 Z " fill="#DED1E2" transform="translate(112,174)"/>
<path d="M0 0 C-0.33 2.64 -0.66 5.28 -1 8 C-1.99 7.67 -2.98 7.34 -4 7 C-3.67 6.01 -3.34 5.02 -3 4 C-3.99 3.67 -4.98 3.34 -6 3 C-3.89377581 0.89377581 -2.98199855 0 0 0 Z " fill="#E6E3E7" transform="translate(71,169)"/>
<path d="M0 0 C1.32 0.33 2.64 0.66 4 1 C3.67 1.66 3.34 2.32 3 3 C3.66 3.33 4.32 3.66 5 4 C4.67 4.66 4.34 5.32 4 6 C3.34 6 2.68 6 2 6 C1.67 6.66 1.34 7.32 1 8 C0.2341972 5.22396483 0 2.89326812 0 0 Z " fill="#CAC4CF" transform="translate(206,164)"/>
<path d="M0 0 C0.66 0.33 1.32 0.66 2 1 C-0.51830747 4.12270126 -1.7261549 4.94523098 -5.75 5.75 C-7.35875 5.87375 -7.35875 5.87375 -9 6 C-6.45368965 3.02930459 -3.57769851 1.5224249 0 0 Z " fill="#ECE5F0" transform="translate(176,123)"/>
<path d="M0 0 C0 1.98 0 3.96 0 6 C-1.98 5.34 -3.96 4.68 -6 4 C-2.17391304 0 -2.17391304 0 0 0 Z " fill="#F6EAF7" transform="translate(150,103)"/>
<path d="M0 0 C2 3 2 3 1.75 5.375 C0.99786647 8.00746736 0.07799802 10.48467129 -1 13 C-1.33 13 -1.66 13 -2 13 C-1.85769192 11.58297487 -1.71099254 10.1663904 -1.5625 8.75 C-1.48128906 7.96109375 -1.40007813 7.1721875 -1.31640625 6.359375 C-1.02365007 4.17635361 -0.57935581 2.1226818 0 0 Z " fill="#E3D4E7" transform="translate(11,84)"/>
<path d="M0 0 C1.67542976 0.28604898 3.34385343 0.61781233 5 1 C2.06279492 2.52299523 -0.9168649 3.80100302 -4 5 C-4.66 4.01 -5.32 3.02 -6 2 C-4.7934375 1.7834375 -4.7934375 1.7834375 -3.5625 1.5625 C-1.07896294 1.25864751 -1.07896294 1.25864751 0 0 Z " fill="#D7C9DE" transform="translate(159,200)"/>
<path d="M0 0 C2.3125 0.8125 2.3125 0.8125 4 2 C0.535 3.485 0.535 3.485 -3 5 C-3.66 4.34 -4.32 3.68 -5 3 C-2.75 1.375 -2.75 1.375 0 0 Z " fill="#CAC1D8" transform="translate(194,181)"/>
<path d="M0 0 C0.66 0.33 1.32 0.66 2 1 C1.6875 2.875 1.6875 2.875 1 5 C-2 7 -2 7 -5 7 C-5 6.34 -5 5.68 -5 5 C-4.360625 4.731875 -3.72125 4.46375 -3.0625 4.1875 C-0.66868314 3.11332248 -0.66868314 3.11332248 0 0 Z " fill="#714C8C" transform="translate(239,163)"/>
<path d="M0 0 C0.66 0 1.32 0 2 0 C1.75 1.875 1.75 1.875 1 4 C-0.875 5.3125 -0.875 5.3125 -3 6 C-3.99 5.67 -4.98 5.34 -6 5 C-5.34 4.34 -4.68 3.68 -4 3 C-3.01 3 -2.02 3 -1 3 C-0.67 2.01 -0.34 1.02 0 0 Z " fill="#42245E" transform="translate(237,163)"/>
<path d="M0 0 C0.99 0.66 1.98 1.32 3 2 C2.67 2.99 2.34 3.98 2 5 C2.87483915 7.16715557 2.87483915 7.16715557 4 9 C1.5 6.6875 1.5 6.6875 -1 4 C-1 1 -1 1 0 0 Z " fill="#553A6E" transform="translate(87,137)"/>
<path d="M0 0 C0.66 0 1.32 0 2 0 C3.38938077 1.96147874 4.7260411 3.96166576 6 6 C5.67 6.66 5.34 7.32 5 8 C4.01 7.67 3.02 7.34 2 7 C0.8125 3.4375 0.8125 3.4375 0 0 Z " fill="#6A4987" transform="translate(81,131)"/>
<path d="M0 0 C0.66 0 1.32 0 2 0 C3.38938077 1.96147874 4.7260411 3.96166576 6 6 C5.67 6.66 5.34 7.32 5 8 C4.01 7.67 3.02 7.34 2 7 C0.8125 3.4375 0.8125 3.4375 0 0 Z " fill="#664580" transform="translate(62,107)"/>
<path d="M0 0 C1.65 0 3.3 0 5 0 C4.67 1.65 4.34 3.3 4 5 C2.68 4.67 1.36 4.34 0 4 C0 2.68 0 1.36 0 0 Z " fill="#3E225C" transform="translate(105,98)"/>
<path d="M0 0 C1.98 0 3.96 0 6 0 C6.33 0.99 6.66 1.98 7 3 C4.69 3.33 2.38 3.66 0 4 C0 2.68 0 1.36 0 0 Z " fill="#FCF5FE" transform="translate(141,89)"/>
<path d="M0 0 C0.66 0 1.32 0 2 0 C2.33 1.32 2.66 2.64 3 4 C1.68 4.99 0.36 5.98 -1 7 C-1.625 4.625 -1.625 4.625 -2 2 C-1.34 1.34 -0.68 0.68 0 0 Z " fill="#EADBEF" transform="translate(155,82)"/>
<path d="M0 0 C4.75 0.75 4.75 0.75 7 3 C3.7 3 0.4 3 -3 3 C-2.01 2.67 -1.02 2.34 0 2 C0 1.34 0 0.68 0 0 Z " fill="#7C6890" transform="translate(118,230)"/>
<path d="M0 0 C0.66 0.33 1.32 0.66 2 1 C2 2.66666667 2 4.33333333 2 6 C-0.31 5.34 -2.62 4.68 -5 4 C-3.35 2.68 -1.7 1.36 0 0 Z " fill="#CDC4D5" transform="translate(136,202)"/>
<path d="M0 0 C3.16115776 1.36983503 3.9927092 1.9890638 6 5 C5.67 5.99 5.34 6.98 5 8 C0 2.25 0 2.25 0 0 Z " fill="#ECE2F5" transform="translate(82,192)"/>
<path d="M0 0 C0.66 0.33 1.32 0.66 2 1 C2 1.99 2 2.98 2 4 C0.35 4.66 -1.3 5.32 -3 6 C-3.33 4.68 -3.66 3.36 -4 2 C-2.125 0.9375 -2.125 0.9375 0 0 Z " fill="#4B2B65" transform="translate(211,179)"/>
<path d="M0 0 C0.33 0.66 0.66 1.32 1 2 C0.67 2.99 0.34 3.98 0 5 C-1.65 5.33 -3.3 5.66 -5 6 C-4.75 4.125 -4.75 4.125 -4 2 C-1.9375 0.75 -1.9375 0.75 0 0 Z " fill="#C9C4CF" transform="translate(230,159)"/>
<path d="M0 0 C0.33 0.99 0.66 1.98 1 3 C-0.9375 5.6875 -0.9375 5.6875 -3 8 C-3 6.68 -3 5.36 -3 4 C-3.66 3.67 -4.32 3.34 -5 3 C-3.35 2.01 -1.7 1.02 0 0 Z " fill="#A17A9D" transform="translate(242,144)"/>
<path d="M0 0 C0 0.66 0 1.32 0 2 C-3.3 2.33 -6.6 2.66 -10 3 C-4.28571429 -1.28571429 -4.28571429 -1.28571429 0 0 Z " fill="#563F6E" transform="translate(164,140)"/>
<path d="M0 0 C1.9375 0.8125 1.9375 0.8125 4 2 C4.33 2.99 4.66 3.98 5 5 C3.02 5 1.04 5 -1 5 C-0.67 3.35 -0.34 1.7 0 0 Z " fill="#E2D3E7" transform="translate(123,125)"/>
<path d="M0 0 C2.475 0.495 2.475 0.495 5 1 C4.67 1.99 4.34 2.98 4 4 C4.87483915 6.16715557 4.87483915 6.16715557 6 8 C1.2 4.55384615 1.2 4.55384615 0.1875 1.75 C0.125625 1.1725 0.06375 0.595 0 0 Z " fill="#563C6D" transform="translate(66,114)"/>
<path d="M0 0 C0.33 0 0.66 0 1 0 C1 2.64 1 5.28 1 8 C0.01 8.33 -0.98 8.66 -2 9 C-1.125 1.125 -1.125 1.125 0 0 Z " fill="#543E6C" transform="translate(188,104)"/>
<path d="M0 0 C0.66 0 1.32 0 2 0 C4.1875 2.3125 4.1875 2.3125 6 5 C5.67 5.99 5.34 6.98 5 8 C4.01 7.67 3.02 7.34 2 7 C1.375 5.125 1.375 5.125 1 3 C0.67 2.01 0.34 1.02 0 0 Z " fill="#684781" transform="translate(50,92)"/>
<path d="M0 0 C-0.8125 1.9375 -0.8125 1.9375 -2 4 C-2.99 4.33 -3.98 4.66 -5 5 C-5.99 4.34 -6.98 3.68 -8 3 C-2.25 0 -2.25 0 0 0 Z " fill="#6B4189" transform="translate(123,19)"/>
<path d="M0 0 C1.98 0.495 1.98 0.495 4 1 C3.67 2.65 3.34 4.3 3 6 C1.68 5.01 0.36 4.02 -1 3 C-0.67 2.01 -0.34 1.02 0 0 Z " fill="#ECE3EF" transform="translate(91,201)"/>
<path d="M0 0 C3.23475448 1.61737724 4.70572021 2.47629223 7 5 C6.67 5.99 6.34 6.98 6 8 C4.02 5.36 2.04 2.72 0 0 Z " fill="#E2D8EC" transform="translate(95,175)"/>
<path d="M0 0 C1.98 0 3.96 0 6 0 C3.14693203 2.32472205 0.45925163 3.7508258 -3 5 C-3 4.34 -3 3.68 -3 3 C-2.34 3 -1.68 3 -1 3 C-0.67 2.01 -0.34 1.02 0 0 Z " fill="#49345A" transform="translate(147,135)"/>
<path d="M0 0 C4.875 4.75 4.875 4.75 6 7 C4.125 6.6875 4.125 6.6875 2 6 C0 3 0 3 0 0 Z " fill="#E1D6E9" transform="translate(75,128)"/>
<path d="M0 0 C0.99 0.33 1.98 0.66 3 1 C3 2.65 3 4.3 3 6 C2.01 6 1.02 6 0 6 C-1.125 2.25 -1.125 2.25 0 0 Z " fill="#786685" transform="translate(20,81)"/>
<path d="M0 0 C0.99 0.33 1.98 0.66 3 1 C2.67 1.99 2.34 2.98 2 4 C0.35 4.33 -1.3 4.66 -3 5 C-2.625 3.0625 -2.625 3.0625 -2 1 C-1.34 0.67 -0.68 0.34 0 0 Z " fill="#382052" transform="translate(111,81)"/>
<path d="M0 0 C-0.33 0.66 -0.66 1.32 -1 2 C-4.0625 2.625 -4.0625 2.625 -7 3 C-7.33 2.34 -7.66 1.68 -8 1 C-4.93251126 -0.86240388 -3.40254489 -1.2151946 0 0 Z " fill="#C8BECD" transform="translate(146,200)"/>
<path d="M0 0 C-0.33 0.66 -0.66 1.32 -1 2 C-1.66 2 -2.32 2 -3 2 C-3.33 2.66 -3.66 3.32 -4 4 C-4.99 2.68 -5.98 1.36 -7 0 C-4.3333581 -1.33332095 -2.83319697 -0.67102033 0 0 Z " fill="#E4D9E3" transform="translate(169,195)"/>
<path d="M0 0 C2.5 2.3125 2.5 2.3125 5 5 C5 5.99 5 6.98 5 8 C4.01 7.34 3.02 6.68 2 6 C2 5.34 2 4.68 2 4 C1.34 4 0.68 4 0 4 C0 2.68 0 1.36 0 0 Z " fill="#E6D7EF" transform="translate(120,184)"/>
<path d="M0 0 C0.99 0.33 1.98 0.66 3 1 C3 1.66 3 2.32 3 3 C3.66 3 4.32 3 5 3 C5.33 3.99 5.66 4.98 6 6 C4.35 5.67 2.7 5.34 1 5 C0.67 3.35 0.34 1.7 0 0 Z " fill="#684C86" transform="translate(94,148)"/>
<path d="M0 0 C1.65 1.65 3.3 3.3 5 5 C4.67 5.99 4.34 6.98 4 8 C3.01 7.67 2.02 7.34 1 7 C1 5.68 1 4.36 1 3 C0.67 2.01 0.34 1.02 0 0 Z " fill="#6E478A" transform="translate(239,136)"/>
<path d="M0 0 C0 0.66 0 1.32 0 2 C0.99 2.33 1.98 2.66 3 3 C0.36 3 -2.28 3 -5 3 C-5.33 2.34 -5.66 1.68 -6 1 C-3 0 -3 0 0 0 Z " fill="#412A54" transform="translate(122,134)"/>
<path d="M0 0 C0.66 0 1.32 0 2 0 C2.33 2.31 2.66 4.62 3 7 C2.01 6.67 1.02 6.34 0 6 C0 4.02 0 2.04 0 0 Z " fill="#44305B" transform="translate(146,110)"/>
<path d="M0 0 C1.98 0 3.96 0 6 0 C5 3 5 3 2.9375 4.1875 C2.298125 4.455625 1.65875 4.72375 1 5 C0.67 3.35 0.34 1.7 0 0 Z " fill="#492F69" transform="translate(151,108)"/>
<path d="M0 0 C1.32 0.33 2.64 0.66 4 1 C3.01 1 2.02 1 1 1 C1.33 2.32 1.66 3.64 2 5 C0.02 5.99 0.02 5.99 -2 7 C-2 5.35 -2 3.7 -2 2 C-1.34 2 -0.68 2 0 2 C0 1.34 0 0.68 0 0 Z " fill="#4D316D" transform="translate(156,74)"/>
<path d="" fill="#FF00FF" transform="translate(0,0)"/>
<path d="" fill="#FF00FF" transform="translate(0,0)"/>
<path d="" fill="#FF00FF" transform="translate(0,0)"/>
<path d="" fill="#FF00FF" transform="translate(0,0)"/>
<path d="" fill="#FF00FF" transform="translate(0,0)"/>
<path d="" fill="#FF00FF" transform="translate(0,0)"/>
<path d="" fill="#FF00FF" transform="translate(0,0)"/>
<path d="" fill="#FF00FF" transform="translate(0,0)"/>
<path d="" fill="#FF00FF" transform="translate(0,0)"/>
<path d="" fill="#FF00FF" transform="translate(0,0)"/>
<path d="" fill="#FF00FF" transform="translate(0,0)"/>
<path d="" fill="#FF00FF" transform="translate(0,0)"/>
<path d="" fill="#FF00FF" transform="translate(0,0)"/>
<path d="" fill="#FF00FF" transform="translate(0,0)"/>
<path d="" fill="#FF00FF" transform="translate(0,0)"/>
<path d="" fill="#FF00FF" transform="translate(0,0)"/>
<path d="" fill="#FF00FF" transform="translate(0,0)"/>
<path d="" fill="#FF00FF" transform="translate(0,0)"/>
<path d="" fill="#FF00FF" transform="translate(0,0)"/>
<path d="" fill="#FF00FF" transform="translate(0,0)"/>
<path d="" fill="#FF00FF" transform="translate(0,0)"/>
<path d="" fill="#FF00FF" transform="translate(0,0)"/>
<path d="" fill="#FF00FF" transform="translate(0,0)"/>
<path d="" fill="#FFFFFF" transform="translate(0,0)"/>
<path d="" fill="#FF00FF" transform="translate(0,0)"/>
<path d="" fill="#FF00FF" transform="translate(0,0)"/>
<path d="" fill="#FF00FF" transform="translate(0,0)"/>
<path d="" fill="#FF00FF" transform="translate(0,0)"/>
<path d="" fill="#FF00FF" transform="translate(0,0)"/>
<path d="" fill="#FF00FF" transform="translate(0,0)"/>
<path d="" fill="#FF00FF" transform="translate(0,0)"/>
<path d="" fill="#FF00FF" transform="translate(0,0)"/>
<path d="" fill="#FF00FF" transform="translate(0,0)"/>
<path d="" fill="#FF00FF" transform="translate(0,0)"/>
<path d="" fill="#FF00FF" transform="translate(0,0)"/>
<path d="" fill="#FF00FF" transform="translate(0,0)"/>
<path d="" fill="#FF00FF" transform="translate(0,0)"/>
<path d="" fill="#FF00FF" transform="translate(0,0)"/>
<path d="" fill="#FF00FF" transform="translate(0,0)"/>
<path d="" fill="#FF00FF" transform="translate(0,0)"/>
<path d="" fill="#FF00FF" transform="translate(0,0)"/>
<path d="" fill="#FF00FF" transform="translate(0,0)"/>
<path d="" fill="#FF00FF" transform="translate(0,0)"/>
<path d="" fill="#FF00FF" transform="translate(0,0)"/>
<path d="" fill="#FF00FF" transform="translate(0,0)"/>
<path d="" fill="#FF00FF" transform="translate(0,0)"/>
<path d="" fill="#FF00FF" transform="translate(0,0)"/>
<path d="" fill="#FF00FF" transform="translate(0,0)"/>
<path d="" fill="#FF00FF" transform="translate(0,0)"/>
<path d="" fill="#FF00FF" transform="translate(0,0)"/>
</svg>
