<?xml version="1.0" encoding="UTF-8"?>
<!-- Generator: https://ezgif.com/webp-to-svg -->
<svg version="1.1" xmlns="http://www.w3.org/2000/svg" width="256" height="256">
<path d="M0 0 C84.48 0 168.96 0 256 0 C256 84.48 256 168.96 256 256 C171.52 256 87.04 256 0 256 C0 171.52 0 87.04 0 0 Z " fill="#073C2A" transform="translate(0,0)"/>
<path d="M0 0 C5.22 4.42 8.71 8.6 11.11 15.01 C11.11 16.33 11.11 17.65 11.11 19.01 C0.1 21.7 0.1 21.7 -2.89 21.01 C-6.89 16.04 -6.89 16.04 -6.89 13.01 C-14.02 9.32 -19.83 8.02 -27.89 9.01 C-34.4 11.3 -37.95 15.96 -40.89 22.01 C-44.21 31.95 -41.69 42.59 -37.64 51.89 C-34.01 56.3 -30.96 57.76 -25.38 58.43 C-18.85 58.67 -12.81 58.85 -7.41 54.79 C-4.43 51.3 -3.28 47.34 -1.89 43.01 C-8.49 43.01 -15.09 43.01 -21.89 43.01 C-21.89 39.05 -21.89 35.09 -21.89 31.01 C-10.67 31.01 0.55 31.01 12.11 31.01 C12.11 44.54 12.11 58.07 12.11 72.01 C8.15 72.01 4.19 72.01 0.11 72.01 C-0.39 68.05 -0.39 68.05 -0.89 64.01 C-1.32 64.41 -1.74 64.81 -2.18 65.22 C-2.77 65.75 -3.35 66.28 -3.96 66.82 C-4.53 67.35 -5.09 67.87 -5.68 68.41 C-13.81 74.3 -23.25 74.3 -32.89 73.01 C-41.49 70.52 -48 65.46 -52.89 58.01 C-59.16 45.84 -61.37 32.02 -57.33 18.7 C-53.19 7.93 -47.11 1.06 -36.81 -4.02 C-25.24 -8.67 -10.23 -7.03 0 0 Z " fill="#F7F8F1" transform="translate(99.89453125,93.98828125)"/>
<path d="M0 0 C16.17 0 32.34 0 49 0 C49 4.95 49 9.9 49 15 C37.78 15 26.56 15 15 15 C15 20.94 15 26.88 15 33 C24.57 33 34.14 33 44 33 C44 37.29 44 41.58 44 46 C34.43 46 24.86 46 15 46 C15 56.23 15 66.46 15 77 C10.05 77 5.1 77 0 77 C0 51.59 0 26.18 0 0 Z " fill="#FCFAF3" transform="translate(124,89)"/>
<path d="M0 0 C5.8 2.63 10.03 7 12.78 12.71 C14.6 18.29 14.68 24.45 12.7 29.99 C8.98 37.05 4.25 40.82 -3.36 43.35 C-11.02 44.36 -16.91 42.42 -23.05 37.73 C-28.21 33 -30.51 27.29 -30.92 20.35 C-30.65 14.83 -28.89 10.6 -25.36 6.35 C-17.61 -0.01 -10.04 -2.76 0 0 Z " fill="#8BC23C" transform="translate(47.359375,16.6484375)"/>
<path d="M0 0 C4.95 0 9.9 0 15 0 C15 25.41 15 50.82 15 77 C9.72 77 4.44 77 -1 77 C-1 58.19 -1 39.38 -1 20 C-2.65 20.99 -4.3 21.98 -6 23 C-9.72 23.38 -13.25 23.14 -17 23 C-17 19.37 -17 15.74 -17 12 C-15.47 11.28 -13.95 10.56 -12.38 9.81 C-5.05 6.19 -5.05 6.19 0 0 Z " fill="#FBF9F3" transform="translate(195,89)"/>
<path d="M0 0 C5.8 2.63 9.99 6.99 12.79 12.69 C13.77 15.76 13.91 18.32 13.89 21.54 C13.9 23.11 13.9 23.11 13.91 24.71 C13.64 27.35 13.64 27.35 11.64 29.35 C11.58 28.29 11.52 27.23 11.46 26.14 C11.37 24.75 11.29 23.36 11.2 21.98 C11.16 21.28 11.12 20.58 11.08 19.86 C10.9 15.98 10.9 15.98 9.64 12.35 C9.45 14.3 9.45 14.3 9.27 16.29 C9.05 18.5 9.05 18.5 8.64 20.35 C7.65 20.85 7.65 20.85 6.64 21.35 C7.14 23.33 7.14 23.33 7.64 25.35 C5.99 26.67 4.34 27.99 2.64 29.35 C2.39 28.73 2.15 28.11 1.89 27.48 C0.38 24.91 -0.63 24.45 -3.36 23.35 C-5.48 23.08 -5.48 23.08 -7.69 23.16 C-8.49 23.16 -9.29 23.17 -10.11 23.18 C-10.93 23.19 -11.76 23.21 -12.61 23.23 C-13.87 23.24 -13.87 23.24 -15.16 23.25 C-17.22 23.28 -19.29 23.31 -21.36 23.35 C-21.36 22.03 -21.36 20.71 -21.36 19.35 C-16.72 17.98 -11.96 17.93 -7.16 17.63 C-4.46 17.66 -4.46 17.66 -3.36 16.35 C-3.95 16.37 -4.55 16.38 -5.16 16.4 C-7.85 16.46 -10.54 16.5 -13.23 16.54 C-14.17 16.56 -15.11 16.59 -16.07 16.62 C-17.42 16.63 -17.42 16.63 -18.79 16.64 C-20.03 16.67 -20.03 16.67 -21.3 16.69 C-21.98 16.58 -22.66 16.47 -23.36 16.35 C-24.02 15.36 -24.68 14.37 -25.36 13.35 C-28.04 16.03 -27.75 17.74 -27.98 21.48 C-28.06 22.57 -28.13 23.67 -28.21 24.8 C-28.26 25.64 -28.31 26.48 -28.36 27.35 C-30.79 24.92 -30.71 24.14 -30.8 20.79 C-30.65 15.01 -29.06 10.8 -25.36 6.35 C-17.61 -0.01 -10.04 -2.76 0 0 Z " fill="#81B942" transform="translate(47.359375,16.6484375)"/>
<path d="M0 0 C4.95 0 9.9 0 15 0 C15 25.41 15 50.82 15 77 C9.72 77 4.44 77 -1 77 C-1 58.19 -1 39.38 -1 20 C-2.65 20.99 -4.3 21.98 -6 23 C-9.72 23.38 -13.25 23.14 -17 23 C-17 19.37 -17 15.74 -17 12 C-12.22 9.71 -9.32 9 -4 9 C-0.7 7.6 -0.7 7.6 2 6 C2 5.34 2 4.68 2 4 C5.3 4.33 8.6 4.66 12 5 C12 5.99 12 6.98 12 8 C11.01 8 10.02 8 9 8 C9 8.99 9 9.98 9 11 C9.99 11 10.98 11 12 11 C12 11.99 12 12.98 12 14 C7.25 15 7.25 15 5 15 C3.03 16.97 3.34 20.35 3 23 C2.34 23 1.68 23 1 23 C1.33 40.16 1.66 57.32 2 75 C5.96 75.33 9.92 75.66 14 76 C14 51.25 14 26.5 14 1 C9.38 1 4.76 1 0 1 C0 0.67 0 0.34 0 0 Z " fill="#E4E8E1" transform="translate(195,89)"/>
<path d="M0 0 C16.17 0 32.34 0 49 0 C49 4.95 49 9.9 49 15 C37.78 15 26.56 15 15 15 C15.33 14.01 15.66 13.02 16 12 C18.06 11.31 18.06 11.31 20 11 C20 10.34 20 9.68 20 9 C27.92 9.33 35.84 9.66 44 10 C44 8.02 44 6.04 44 4 C42.88 4.01 41.75 4.02 40.59 4.03 C36.41 4.07 32.22 4.09 28.04 4.11 C26.23 4.12 24.42 4.13 22.61 4.15 C20.01 4.18 17.4 4.19 14.8 4.2 C13.59 4.21 13.59 4.21 12.36 4.23 C11.6 4.23 10.84 4.23 10.06 4.23 C9.06 4.23 9.06 4.23 8.04 4.24 C6 4 6 4 1 2 C1 26.42 1 50.84 1 76 C7.44 75.5 7.44 75.5 14 75 C14 65.76 14 56.52 14 47 C14.33 47 14.66 47 15 47 C15 56.9 15 66.8 15 77 C10.05 77 5.1 77 0 77 C0 51.59 0 26.18 0 0 Z " fill="#E1EBE2" transform="translate(124,89)"/>
<path d="M0 0 C2.58 2.58 3 3.32 3 7 C3.99 7 4.98 7 6 7 C5.67 5.68 5.34 4.36 5 3 C6.32 3.33 7.64 3.66 9 4 C8.68 6.95 8.04 7.96 5.88 10.06 C-0.25 14.19 -5.68 16 -13 15 C-15.51 14.2 -17.64 13.21 -20 12 C-17.63 11.36 -15.31 10.89 -12.88 10.5 C-10.07 10.15 -10.07 10.15 -8 9 C-8 7.35 -8 5.7 -8 4 C-10.64 4.33 -13.28 4.66 -16 5 C-16 4.34 -16 3.68 -16 3 C-13.03 2.34 -10.06 1.68 -7 1 C-11.62 1 -16.24 1 -21 1 C-21 0.01 -21 -0.98 -21 -2 C-13.76 -4.41 -6.73 -3.31 0 0 Z " fill="#8CC23A" transform="translate(48,45)"/>
<path d="M0 0 C-0.99 0.66 -1.98 1.32 -3 2 C-0.69 2.66 1.62 3.32 4 4 C4 4.66 4 5.32 4 6 C2.68 6 1.36 6 0 6 C0.66 6.66 1.32 7.32 2 8 C0.68 8 -0.64 8 -2 8 C-2 7.34 -2 6.68 -2 6 C-2.99 6.66 -3.98 7.32 -5 8 C-6.99 8.23 -6.99 8.23 -9.23 8.2 C-10.43 8.19 -10.43 8.19 -11.66 8.18 C-12.5 8.16 -13.33 8.14 -14.19 8.12 C-15.03 8.12 -15.88 8.11 -16.75 8.1 C-18.83 8.07 -20.92 8.04 -23 8 C-23 7.01 -23 6.02 -23 5 C-21.17 3.43 -21.17 3.43 -18.75 1.88 C-17.57 1.1 -17.57 1.1 -16.36 0.3 C-10.74 -2.8 -5.8 -2.65 0 0 Z " fill="#8EC433" transform="translate(46,19)"/>
<path d="M0 0 C0.72 2.11 0.72 2.11 1 4 C-5.58 3.11 -5.58 3.11 -7.94 2.47 C-10.27 1.94 -12.37 1.89 -14.77 1.9 C-15.66 1.91 -16.54 1.91 -17.46 1.91 C-18.38 1.92 -19.3 1.93 -20.25 1.94 C-21.65 1.94 -21.65 1.94 -23.09 1.95 C-25.39 1.96 -27.7 1.98 -30 2 C-30 0.68 -30 -0.64 -30 -2 C-21.13 -4.89 -8.27 -4.13 0 0 Z " fill="#15481D" transform="translate(54,31)"/>
<path d="M0 0 C0.66 0.45 1.32 0.91 2 1.38 C1.67 2.03 1.34 2.7 1 3.38 C-4.75 2.5 -4.75 2.5 -7 1.38 C-8.38 1.29 -9.75 1.27 -11.13 1.28 C-11.94 1.28 -12.74 1.28 -13.57 1.29 C-14.84 1.3 -14.84 1.3 -16.12 1.31 C-17.4 1.32 -17.4 1.32 -18.7 1.33 C-20.8 1.34 -22.9 1.36 -25 1.38 C-25 0.05 -25 -1.27 -25 -2.62 C-16.7 -5 -7.58 -4.1 0 0 Z " fill="#144817" transform="translate(51,38.625)"/>
<path d="M0 0 C9.57 0 19.14 0 29 0 C29 0.33 29 0.66 29 1 C19.76 1 10.52 1 1 1 C1.33 1.66 1.66 2.32 2 3 C2.08 4.67 2.11 6.34 2.1 8.01 C2.09 9.49 2.09 9.49 2.09 11 C2.08 12.03 2.07 13.06 2.06 14.12 C2.06 15.17 2.05 16.21 2.05 17.28 C2.04 19.85 2.02 22.43 2 25 C2.99 25 3.98 25 5 25 C5 25.66 5 26.32 5 27 C4.01 27 3.02 27 2 27 C1.67 28.32 1.34 29.64 1 31 C0.67 31 0.34 31 0 31 C0 20.77 0 10.54 0 0 Z " fill="#335545" transform="translate(139,135)"/>
<path d="M0 0 C0.99 1.48 0.99 1.48 2 3 C1.01 3.49 1.01 3.49 0 4 C-0.91 3.53 -1.81 3.05 -2.75 2.56 C-8.43 -0.1 -14.88 0.77 -21 1 C-21 0.01 -21 -0.98 -21 -2 C-13.74 -4.42 -6.77 -3.26 0 0 Z " fill="#12410C" transform="translate(48,45)"/>
<path d="M0 0 C0.33 0.99 0.66 1.98 1 3 C-0.32 3.33 -1.64 3.66 -3 4 C-3 4.66 -3 5.32 -3 6 C-2.34 6 -1.68 6 -1 6 C-0.67 7.32 -0.34 8.64 0 10 C-0.8 10.12 -1.61 10.25 -2.44 10.38 C-3.28 10.58 -4.13 10.79 -5 11 C-5.33 11.66 -5.66 12.32 -6 13 C-0.06 12.5 -0.06 12.5 6 12 C4 14 4 14 1.4 14.2 C-1.4 14.13 -4.2 14.07 -7 14 C-7 10.37 -7 6.74 -7 3 C-4.69 2.01 -2.38 1.02 0 0 Z " fill="#D0DDD5" transform="translate(185,98)"/>
<path d="M0 0 C0.33 0 0.66 0 1 0 C1.17 0.77 1.34 1.55 1.52 2.34 C3.01 8.77 4.79 14.24 8 20 C5.83 19.49 4 19 2 18 C1.59 15.68 1.26 13.34 1 11 C0.34 11 -0.32 11 -1 11 C-1.03 9.54 -1.05 8.08 -1.06 6.62 C-1.07 5.81 -1.09 5 -1.1 4.16 C-1 2 -1 2 0 0 Z " fill="#224939" transform="translate(41,134)"/>
<path d="M0 0 C1.91 0.04 1.91 0.04 3.86 0.08 C5.32 0.13 5.32 0.13 6.81 0.19 C5.82 1.67 5.82 1.67 4.81 3.19 C2.19 3.41 -0.2 3.47 -2.81 3.38 C-3.52 3.36 -4.23 3.35 -4.95 3.33 C-6.7 3.3 -8.44 3.24 -10.19 3.19 C-7.46 -0.68 -4.45 -0.12 0 0 Z " fill="#053517" transform="translate(35.1875,27.8125)"/>
<path d="M0 0 C1.79 -0.03 3.58 -0.05 5.38 -0.06 C6.37 -0.07 7.37 -0.09 8.4 -0.1 C11 0 11 0 13 1 C13 1.66 13 2.32 13 3 C9.04 3 5.08 3 1 3 C0.67 2.01 0.34 1.02 0 0 Z " fill="#D8DFD5" transform="translate(74,153)"/>
<path d="M0 0 C0.99 0 1.98 0 3 0 C3.66 0.66 4.32 1.32 5 2 C5.66 2.33 6.32 2.66 7 3 C6.67 3.66 6.34 4.32 6 5 C2.37 4.34 -1.26 3.68 -5 3 C-3.68 2.34 -2.36 1.68 -1 1 C-0.67 0.67 -0.34 0.34 0 0 Z " fill="#244939" transform="translate(89,86)"/>
<path d="M0 0 C0.66 0 1.32 0 2 0 C2.33 3.3 2.66 6.6 3 10 C2.01 10.66 1.02 11.32 0 12 C0 8.04 0 4.08 0 0 Z " fill="#E6E9E2" transform="translate(100,154)"/>
<path d="M0 0 C6.88 0.88 6.88 0.88 8 2 C9.35 2.23 10.7 2.41 12.06 2.56 C13.36 2.71 14.66 2.85 16 3 C16 3.33 16 3.66 16 4 C9.8 4.38 5.55 3.84 0 1 C0 0.67 0 0.34 0 0 Z " fill="#6FA941" transform="translate(28,56)"/>
<path d="M0 0 C3.3 0.33 6.6 0.66 10 1 C10 1.66 10 2.32 10 3 C3.38 3.12 3.38 3.12 0 2 C0 1.34 0 0.68 0 0 Z " fill="#DAE6DF" transform="translate(64,164)"/>
<path d="M0 0 C2 2 2 2 2 6 C1.34 6 0.68 6 0 6 C-0.66 7.98 -1.32 9.96 -2 12 C-2.33 12 -2.66 12 -3 12 C-2.14 3.43 -2.14 3.43 0 0 Z " fill="#365A4C" transform="translate(60,112)"/>
<path d="M0 0 C0.9 0.01 1.8 0.02 2.73 0.03 C3.42 0.04 4.1 0.05 4.81 0.06 C4.81 0.39 4.81 0.72 4.81 1.06 C1.84 1.06 -1.13 1.06 -4.19 1.06 C-4.52 2.05 -4.85 3.04 -5.19 4.06 C-6.18 4.06 -7.17 4.06 -8.19 4.06 C-8.19 3.07 -8.19 2.08 -8.19 1.06 C-5.17 0.06 -3.15 -0.04 0 0 Z " fill="#305F22" transform="translate(35.1875,41.9375)"/>
<path d="M0 0 C2 3 2 3 2 7 C1.01 7 0.02 7 -1 7 C-1 7.66 -1 8.32 -1 9 C-1.66 8.67 -2.32 8.34 -3 8 C-2.01 5.36 -1.02 2.72 0 0 Z " fill="#E3E8E1" transform="translate(98,137)"/>
</svg>
