<?xml version="1.0" encoding="UTF-8"?>
<!DOCTYPE svg PUBLIC "-//W3C//DTD SVG 1.1//EN" "http://www.w3.org/Graphics/SVG/1.1/DTD/svg11.dtd">
<svg xmlns="http://www.w3.org/2000/svg" version="1.1" width="256px" height="256px" style="shape-rendering:geometricPrecision; text-rendering:geometricPrecision; image-rendering:optimizeQuality; fill-rule:evenodd; clip-rule:evenodd" xmlns:xlink="http://www.w3.org/1999/xlink">
<g><path style="opacity:0.999" fill="#e0e0d0" d="M 98.5,-0.5 C 100.167,-0.5 101.833,-0.5 103.5,-0.5C 105.5,0.833333 107.5,0.833333 109.5,-0.5C 121.5,-0.5 133.5,-0.5 145.5,-0.5C 148.596,0.948213 151.929,1.44821 155.5,1C 153.942,0.78997 152.609,0.28997 151.5,-0.5C 153.167,-0.5 154.833,-0.5 156.5,-0.5C 157.609,0.28997 158.942,0.78997 160.5,1C 159.167,1.33333 157.833,1.66667 156.5,2C 158.813,2.66198 161.146,3.16198 163.5,3.5C 166.33,4.73451 169.33,5.73451 172.5,6.5C 183.763,9.6262 194.43,14.7929 204.5,22C 205.925,23.3619 206.758,24.8619 207,26.5C 207.718,25.5494 208.551,25.3828 209.5,26C 209.574,28.3153 210.908,30.1486 213.5,31.5C 213.5,32.1667 213.833,32.5 214.5,32.5C 214.5,33.1667 214.833,33.5 215.5,33.5C 215.5,34.1667 215.833,34.5 216.5,34.5C 216.5,35.1667 216.833,35.5 217.5,35.5C 217.5,36.1667 217.833,36.5 218.5,36.5C 218.5,37.1667 218.833,37.5 219.5,37.5C 219.5,38.1667 219.833,38.5 220.5,38.5C 226.244,44.9025 231.577,51.5692 236.5,58.5C 237.584,61.0041 238.917,63.3374 240.5,65.5C 241.584,68.0041 242.917,70.3374 244.5,72.5C 245.925,77.0008 247.591,81.3342 249.5,85.5C 251.527,93.6097 253.527,101.61 255.5,109.5C 255.5,121.167 255.5,132.833 255.5,144.5C 253.933,150.663 252.599,156.996 251.5,163.5C 250.262,165.214 249.595,167.214 249.5,169.5C 248.596,170.209 248.263,171.209 248.5,172.5C 247.596,173.209 247.263,174.209 247.5,175.5C 246.662,175.842 246.328,176.508 246.5,177.5C 245.069,178.78 244.402,180.447 244.5,182.5C 243.662,182.842 243.328,183.508 243.5,184.5C 242.662,184.842 242.328,185.508 242.5,186.5C 241.094,186.973 240.427,187.973 240.5,189.5C 239.662,189.842 239.328,190.508 239.5,191.5C 238.662,191.842 238.328,192.508 238.5,193.5C 237.094,193.973 236.427,194.973 236.5,196.5C 235.662,196.842 235.328,197.508 235.5,198.5C 234.833,198.5 234.5,198.833 234.5,199.5C 233.662,199.842 233.328,200.508 233.5,201.5C 232.833,201.5 232.5,201.833 232.5,202.5C 231.833,202.5 231.5,202.833 231.5,203.5C 230.662,203.842 230.328,204.508 230.5,205.5C 229.833,205.5 229.5,205.833 229.5,206.5C 228.833,206.5 228.5,206.833 228.5,207.5C 227.662,207.842 227.328,208.508 227.5,209.5C 226.833,209.5 226.5,209.833 226.5,210.5C 225.833,210.5 225.5,210.833 225.5,211.5C 224.833,211.5 224.5,211.833 224.5,212.5C 223.833,212.5 223.5,212.833 223.5,213.5C 222.833,213.5 222.5,213.833 222.5,214.5C 221.833,214.5 221.5,214.833 221.5,215.5C 220.833,215.5 220.5,215.833 220.5,216.5C 219.833,216.5 219.5,216.833 219.5,217.5C 218.833,217.5 218.5,217.833 218.5,218.5C 217.833,218.5 217.5,218.833 217.5,219.5C 216.833,219.5 216.5,219.833 216.5,220.5C 215.833,220.5 215.5,220.833 215.5,221.5C 214.833,221.5 214.5,221.833 214.5,222.5C 213.833,222.5 213.5,222.833 213.5,223.5C 212.833,223.5 212.5,223.833 212.5,224.5C 211.833,224.5 211.5,224.833 211.5,225.5C 210.833,225.5 210.5,225.833 210.5,226.5C 209.167,226.833 209.167,227.167 210.5,227.5C 210.027,228.906 209.027,229.573 207.5,229.5C 207.167,228.167 206.833,228.167 206.5,229.5C 205.167,229.833 205.167,230.167 206.5,230.5C 197.916,237.961 188.249,243.627 177.5,247.5C 176.833,246.167 176.167,246.167 175.5,247.5C 174.209,247.263 173.209,247.596 172.5,248.5C 171.209,248.263 170.209,248.596 169.5,249.5C 168.508,249.328 167.842,249.662 167.5,250.5C 165.901,250.232 164.568,250.566 163.5,251.5C 162.209,251.263 161.209,251.596 160.5,252.5C 156.107,252.457 155.774,252.957 159.5,254C 158.263,254.232 157.263,254.732 156.5,255.5C 154.833,255.5 153.167,255.5 151.5,255.5C 152.609,254.71 153.942,254.21 155.5,254C 151.929,253.552 148.596,254.052 145.5,255.5C 133.5,255.5 121.5,255.5 109.5,255.5C 107.5,254.167 105.5,254.167 103.5,255.5C 101.833,255.5 100.167,255.5 98.5,255.5C 97.7375,254.732 96.7375,254.232 95.5,254C 99.2259,252.957 98.8926,252.457 94.5,252.5C 92.4855,251.076 90.1522,250.41 87.5,250.5C 85.2084,248.733 82.5418,247.733 79.5,247.5C 69.3505,244.426 59.6839,239.592 50.5,233C 49.0753,231.638 48.242,230.138 48,228.5C 46.1291,229.668 44.6291,229.168 43.5,227C 43.8333,226.667 44.1667,226.333 44.5,226C 42.9625,224.293 41.2959,222.793 39.5,221.5C 39.5,220.833 39.1667,220.5 38.5,220.5C 38.5,219.833 38.1667,219.5 37.5,219.5C 37.5,218.833 37.1667,218.5 36.5,218.5C 36.5,217.833 36.1667,217.5 35.5,217.5C 35.5,216.833 35.1667,216.5 34.5,216.5C 34.5,215.833 34.1667,215.5 33.5,215.5C 31.1377,212.808 28.8044,210.141 26.5,207.5C 25.4884,206.128 24.4884,204.795 23.5,203.5C 22.4884,202.128 21.4884,200.795 20.5,199.5C 20.0679,198.29 19.4013,197.29 18.5,196.5C 18.573,194.973 17.9063,193.973 16.5,193.5C 16.6716,192.508 16.3382,191.842 15.5,191.5C 15.6716,190.508 15.3382,189.842 14.5,189.5C 14.573,187.973 13.9063,186.973 12.5,186.5C 12.6716,185.508 12.3382,184.842 11.5,184.5C 11.6716,183.508 11.3382,182.842 10.5,182.5C 10.5979,180.447 9.93127,178.78 8.5,177.5C 8.20414,175.597 7.53747,173.93 6.5,172.5C 3.82477,163.132 1.49144,153.799 -0.5,144.5C -0.5,132.833 -0.5,121.167 -0.5,109.5C 2.12335,96.9536 5.79002,84.6203 10.5,72.5C 12.0828,70.3374 13.4161,68.0041 14.5,65.5C 20.0285,56.296 26.3618,47.6293 33.5,39.5C 34.1667,39.5 34.5,39.1667 34.5,38.5C 35.1667,38.5 35.5,38.1667 35.5,37.5C 36.1667,37.5 36.5,37.1667 36.5,36.5C 37.1667,36.5 37.5,36.1667 37.5,35.5C 38.1667,35.5 38.5,35.1667 38.5,34.5C 39.1667,34.5 39.5,34.1667 39.5,33.5C 40.1667,33.5 40.5,33.1667 40.5,32.5C 41.1667,32.5 41.5,32.1667 41.5,31.5C 43.1442,29.4714 44.8108,27.3048 46.5,25C 55.0423,18.2262 64.3756,12.7262 74.5,8.5C 75.1667,8.83333 75.8333,9.16667 76.5,9.5C 83.537,6.14904 90.8703,3.64904 98.5,2C 97.1667,1.66667 95.8333,1.33333 94.5,1C 96.0581,0.78997 97.3915,0.28997 98.5,-0.5 Z"/></g>
<g><path style="opacity:0.012" fill="#f9fccf" d="M 163.5,3.5 C 164.251,2.42654 165.251,2.25988 166.5,3C 165.552,3.48278 164.552,3.64945 163.5,3.5 Z"/></g>
<g><path style="opacity:0.012" fill="#a7a79b" d="M 172.5,6.5 C 172.897,5.47498 173.563,5.30831 174.5,6C 173.906,6.46434 173.239,6.63101 172.5,6.5 Z"/></g>
<g><path style="opacity:0.004" fill="#646759" d="M 213.5,31.5 C 214.623,30.2426 215.289,30.5759 215.5,32.5C 215.167,32.5 214.833,32.5 214.5,32.5C 213.833,32.5 213.5,32.1667 213.5,31.5 Z"/></g>
<g><path style="opacity:0.008" fill="#b4b7a3" d="M 41.5,31.5 C 40.8333,31.5 40.5,31.8333 40.5,32.5C 40.1667,32.5 39.8333,32.5 39.5,32.5C 39.7107,30.5759 40.3774,30.2426 41.5,31.5 Z"/></g>
<g><path style="opacity:0.006" fill="#e4e5e0" d="M 39.5,32.5 C 39.5,32.8333 39.5,33.1667 39.5,33.5C 38.8333,33.5 38.5,33.8333 38.5,34.5C 37.8333,34.5 37.5,34.8333 37.5,35.5C 36.8333,35.5 36.5,35.8333 36.5,36.5C 35.8333,36.5 35.5,36.8333 35.5,37.5C 34.8333,37.5 34.5,37.8333 34.5,38.5C 33.8333,38.5 33.5,38.8333 33.5,39.5C 32.475,39.1034 32.3083,38.4368 33,37.5C 34.7772,35.2101 36.9438,33.5434 39.5,32.5 Z"/></g>
<g><path style="opacity:0.008" fill="#f3f2ed" d="M 215.5,33.5 C 215.5,33.1667 215.5,32.8333 215.5,32.5C 217.716,33.2026 219.549,34.5359 221,36.5C 221.692,37.4368 221.525,38.1034 220.5,38.5C 219.833,38.5 219.5,38.1667 219.5,37.5C 218.833,37.5 218.5,37.1667 218.5,36.5C 217.833,36.5 217.5,36.1667 217.5,35.5C 216.833,35.5 216.5,35.1667 216.5,34.5C 215.833,34.5 215.5,34.1667 215.5,33.5 Z"/></g>
<g><path style="opacity:0.012" fill="#f9f8f1" d="M 237.5,58.5 C 237.167,58.5 236.833,58.5 236.5,58.5C 236.833,55.8333 237.167,55.8333 237.5,58.5 Z"/></g>
<g><path style="opacity:0.008" fill="#fefffb" d="M 237.5,58.5 C 238.833,59.1667 238.833,59.1667 237.5,58.5 Z"/></g>
<g><path style="opacity:1" fill="#c75d5c" d="M 177.5,56.5 C 189.971,62.4649 199.805,71.4649 207,83.5C 207.5,118.165 207.667,152.832 207.5,187.5C 205.127,193.536 200.794,197.536 194.5,199.5C 154.832,199.667 115.165,199.5 75.5,199C 74.255,198.209 72.9217,197.709 71.5,197.5C 67.7267,195.059 65.06,191.726 63.5,187.5C 63.5,186.5 63.5,185.5 63.5,184.5C 63.3334,159.831 63.5,135.164 64,110.5C 65.045,109.627 65.8783,108.627 66.5,107.5C 67.1667,107.167 67.8333,106.833 68.5,106.5C 69.2389,106.631 69.9056,106.464 70.5,106C 77.755,98.5839 84.755,91.0839 91.5,83.5C 96.2738,79.9021 100.94,76.0688 105.5,72C 105.833,71.8333 106.167,71.6667 106.5,71.5C 107.429,72.6888 107.762,74.0222 107.5,75.5C 108.833,75.5 110.167,75.5 111.5,75.5C 111.387,72.9512 112.054,70.6179 113.5,68.5C 112.975,67.8076 112.308,67.3076 111.5,67C 112.595,65.3247 114.095,64.158 116,63.5C 116.483,62.552 116.649,61.552 116.5,60.5C 119.5,60.8333 120.833,59.5 120.5,56.5C 139.5,56.5 158.5,56.5 177.5,56.5 Z"/></g>
<g><path style="opacity:0.004" fill="#f9f9f9" d="M 14.5,65.5 C 14.1667,65.5 13.8333,65.5 13.5,65.5C 13.8333,62.8333 14.1667,62.8333 14.5,65.5 Z"/></g>
<g><path style="opacity:0.004" fill="#f8f8f2" d="M 241.5,65.5 C 241.167,65.5 240.833,65.5 240.5,65.5C 240.833,62.8333 241.167,62.8333 241.5,65.5 Z"/></g>
<g><path style="opacity:0.012" fill="#a9aaab" d="M 13.5,65.5 C 12.8333,66.1667 12.8333,66.1667 13.5,65.5 Z"/></g>
<g><path style="opacity:0.012" fill="#abada7" d="M 241.5,65.5 C 242.833,66.1667 242.833,66.1667 241.5,65.5 Z"/></g>
<g><path style="opacity:1" fill="#525e72" d="M 109.5,63.5 C 103.921,70.4194 97.9209,77.0861 91.5,83.5C 85.0861,89.9209 78.4194,95.9209 71.5,101.5C 68.473,96.0514 69.1397,91.0514 73.5,86.5C 77.2787,84.9885 77.9453,82.8219 75.5,80C 68.0307,75.6209 60.0307,72.6209 51.5,71C 50.6266,69.955 49.6266,69.1217 48.5,68.5C 45.9164,61.6666 48.083,57.3333 55,55.5C 67.7161,57.5281 79.0494,62.5281 89,70.5C 92.4888,67.6804 95.9888,64.847 99.5,62C 103.149,61.037 106.482,61.537 109.5,63.5 Z"/></g>
<g><path style="opacity:1" fill="#b96263" d="M 177.5,56.5 C 158.5,56.5 139.5,56.5 120.5,56.5C 120.833,59.5 119.5,60.8333 116.5,60.5C 116.649,61.552 116.483,62.552 116,63.5C 114.095,64.158 112.595,65.3247 111.5,67C 112.308,67.3076 112.975,67.8076 113.5,68.5C 112.054,70.6179 111.387,72.9512 111.5,75.5C 110.167,75.5 108.833,75.5 107.5,75.5C 107.762,74.0222 107.429,72.6888 106.5,71.5C 106.167,71.6667 105.833,71.8333 105.5,72C 100.94,76.0688 96.2738,79.9021 91.5,83.5C 97.9209,77.0861 103.921,70.4194 109.5,63.5C 112.899,61.6117 115.899,59.1117 118.5,56C 138.338,55.1709 158.004,55.3376 177.5,56.5 Z"/></g>
<g><path style="opacity:0.012" fill="#f0f5d7" d="M 10.5,72.5 C 10.1667,72.5 9.83333,72.5 9.5,72.5C 9.83333,69.8333 10.1667,69.8333 10.5,72.5 Z"/></g>
<g><path style="opacity:0.012" fill="#f5f7d9" d="M 245.5,72.5 C 245.167,72.5 244.833,72.5 244.5,72.5C 244.833,69.8333 245.167,69.8333 245.5,72.5 Z"/></g>
<g><path style="opacity:0.012" fill="#c4c6bc" d="M 9.5,72.5 C 9.63101,73.2389 9.46434,73.9056 9,74.5C 8.30831,73.5632 8.47498,72.8966 9.5,72.5 Z"/></g>
<g><path style="opacity:0.012" fill="#cacbc3" d="M 245.5,72.5 C 246.525,72.8966 246.692,73.5632 246,74.5C 245.536,73.9056 245.369,73.2389 245.5,72.5 Z"/></g>
<g><path style="opacity:1" fill="#b8baaf" d="M 48.5,68.5 C 49.6266,69.1217 50.6266,69.955 51.5,71C 60.0307,72.6209 68.0307,75.6209 75.5,80C 77.9453,82.8219 77.2787,84.9885 73.5,86.5C 69.9522,85.4838 66.6188,83.9838 63.5,82C 59.5,81 55.5,80 51.5,79C 47.6117,76.1943 46.6117,72.6943 48.5,68.5 Z"/></g>
<g><path style="opacity:1" fill="#bfb5a8" d="M 189.5,105.5 C 191.384,100.095 190.551,95.0953 187,90.5C 183.278,86.9013 179.444,83.4013 175.5,80C 171.642,79.1901 167.976,79.3567 164.5,80.5C 161.548,78.2149 158.882,75.5483 156.5,72.5C 162.807,71.3361 169.141,71.1694 175.5,72C 177.514,74.345 179.847,76.345 182.5,78C 184.963,81.4646 187.796,84.6312 191,87.5C 191.831,93.8595 191.664,100.193 190.5,106.5C 189.893,106.376 189.56,106.043 189.5,105.5 Z"/></g>
<g><path style="opacity:1" fill="#e0dcca" d="M 164.5,80.5 C 167.976,79.3567 171.642,79.1901 175.5,80C 179.444,83.4013 183.278,86.9013 187,90.5C 190.551,95.0953 191.384,100.095 189.5,105.5C 181.5,96.8333 173.167,88.5 164.5,80.5 Z"/></g>
<g><path style="opacity:0.016" fill="#ddddd0" d="M 250.5,85.5 C 250.167,85.5 249.833,85.5 249.5,85.5C 249.833,81.5 250.167,81.5 250.5,85.5 Z"/></g>
<g><path style="opacity:0.012" fill="#c3c6a6" d="M 250.5,85.5 C 251.525,85.8966 251.692,86.5632 251,87.5C 250.536,86.9056 250.369,86.2389 250.5,85.5 Z"/></g>
<g><path style="opacity:1" fill="#a0626a" d="M 91.5,83.5 C 84.755,91.0839 77.755,98.5839 70.5,106C 69.9056,106.464 69.2389,106.631 68.5,106.5C 69.925,105.078 70.925,103.411 71.5,101.5C 78.4194,95.9209 85.0861,89.9209 91.5,83.5 Z"/></g>
<g><path style="opacity:1" fill="#e1c2b8" d="M 66.5,107.5 C 65.8783,108.627 65.045,109.627 64,110.5C 63.5,135.164 63.3334,159.831 63.5,184.5C 62.3367,159.67 62.17,134.67 63,109.5C 63.7096,108.027 64.8762,107.36 66.5,107.5 Z"/></g>
<g><path style="opacity:0.004" fill="#c1c0ba" d="M 255.5,151.5 C 255.5,153.167 255.5,154.833 255.5,156.5C 255.167,156.5 254.833,156.5 254.5,156.5C 254.216,154.585 254.549,152.919 255.5,151.5 Z"/></g>
<g><path style="opacity:0.012" fill="#a1a291" d="M 254.5,156.5 C 254.768,158.099 254.434,159.432 253.5,160.5C 253.232,158.901 253.566,157.568 254.5,156.5 Z"/></g>
<g><path style="opacity:0.012" fill="#d5d5c2" d="M 253.5,160.5 C 253.737,161.791 253.404,162.791 252.5,163.5C 252.263,162.209 252.596,161.209 253.5,160.5 Z"/></g>
<g><path style="opacity:0.012" fill="#d9dfa3" d="M 251.5,163.5 C 251.833,163.5 252.167,163.5 252.5,163.5C 252.167,167.5 251.833,167.5 251.5,163.5 Z"/></g>
<g><path style="opacity:0.008" fill="#d9dcc0" d="M 250.5,169.5 C 250.369,168.761 250.536,168.094 251,167.5C 251.692,168.437 251.525,169.103 250.5,169.5 Z"/></g>
<g><path style="opacity:0.016" fill="#deddd8" d="M 249.5,169.5 C 249.833,169.5 250.167,169.5 250.5,169.5C 250.737,170.791 250.404,171.791 249.5,172.5C 249.5,171.5 249.5,170.5 249.5,169.5 Z"/></g>
<g><path style="opacity:0.008" fill="#f8f8eb" d="M 6.5,172.5 C 6.64945,173.552 6.48278,174.552 6,175.5C 5.25988,174.251 5.42654,173.251 6.5,172.5 Z"/></g>
<g><path style="opacity:0.008" fill="#fcfbf4" d="M 248.5,172.5 C 248.833,172.5 249.167,172.5 249.5,172.5C 249.737,173.791 249.404,174.791 248.5,175.5C 248.5,174.5 248.5,173.5 248.5,172.5 Z"/></g>
<g><path style="opacity:0.008" fill="#fbfed6" d="M 247.5,175.5 C 247.833,175.5 248.167,175.5 248.5,175.5C 248.672,176.492 248.338,177.158 247.5,177.5C 247.5,176.833 247.5,176.167 247.5,175.5 Z"/></g>
<g><path style="opacity:0.008" fill="#fffefa" d="M 8.5,177.5 C 8.63101,178.239 8.46434,178.906 8,179.5C 7.30831,178.563 7.47498,177.897 8.5,177.5 Z"/></g>
<g><path style="opacity:0.008" fill="#fefff1" d="M 246.5,177.5 C 246.833,177.5 247.167,177.5 247.5,177.5C 247.167,180.167 246.833,180.167 246.5,177.5 Z"/></g>
<g><path style="opacity:0.004" fill="#e5e4e3" d="M 9.5,182.5 C 8.47498,182.103 8.30831,181.437 9,180.5C 9.46434,181.094 9.63101,181.761 9.5,182.5 Z"/></g>
<g><path style="opacity:0.004" fill="#e4e4d9" d="M 245.5,182.5 C 245.369,181.761 245.536,181.094 246,180.5C 246.692,181.437 246.525,182.103 245.5,182.5 Z"/></g>
<g><path style="opacity:0.004" fill="#eceecc" d="M 9.5,182.5 C 9.83333,182.5 10.1667,182.5 10.5,182.5C 10.5,183.167 10.5,183.833 10.5,184.5C 9.66175,184.158 9.32842,183.492 9.5,182.5 Z"/></g>
<g><path style="opacity:0.004" fill="#edf0cd" d="M 244.5,182.5 C 244.833,182.5 245.167,182.5 245.5,182.5C 245.672,183.492 245.338,184.158 244.5,184.5C 244.5,183.833 244.5,183.167 244.5,182.5 Z"/></g>
<g><path style="opacity:0.004" fill="#e4e6cd" d="M 10.5,184.5 C 10.8333,184.5 11.1667,184.5 11.5,184.5C 11.5,185.167 11.5,185.833 11.5,186.5C 10.6618,186.158 10.3284,185.492 10.5,184.5 Z"/></g>
<g><path style="opacity:0.004" fill="#e4e5ce" d="M 243.5,184.5 C 243.833,184.5 244.167,184.5 244.5,184.5C 244.672,185.492 244.338,186.158 243.5,186.5C 243.5,185.833 243.5,185.167 243.5,184.5 Z"/></g>
<g><path style="opacity:0.012" fill="#fafbea" d="M 11.5,186.5 C 11.8333,186.5 12.1667,186.5 12.5,186.5C 12.3147,187.17 11.9813,187.17 11.5,186.5 Z"/></g>
<g><path style="opacity:0.012" fill="#f7f8ea" d="M 242.5,186.5 C 242.833,186.5 243.167,186.5 243.5,186.5C 243.315,187.17 242.981,187.17 242.5,186.5 Z"/></g>
<g><path style="opacity:0.012" fill="#aeada8" d="M 13.5,189.5 C 12.8333,188.167 12.8333,188.167 13.5,189.5 Z"/></g>
<g><path style="opacity:0.012" fill="#afaeac" d="M 241.5,188.5 C 242.833,189.167 242.833,189.167 241.5,188.5 Z"/></g>
<g><path style="opacity:0.008" fill="#fcfbf8" d="M 13.5,189.5 C 13.8333,189.5 14.1667,189.5 14.5,189.5C 14.5,190.167 14.5,190.833 14.5,191.5C 13.6618,191.158 13.3284,190.492 13.5,189.5 Z"/></g>
<g><path style="opacity:0.008" fill="#fcfcfa" d="M 240.5,189.5 C 240.833,189.5 241.167,189.5 241.5,189.5C 241.672,190.492 241.338,191.158 240.5,191.5C 240.5,190.833 240.5,190.167 240.5,189.5 Z"/></g>
<g><path style="opacity:0.004" fill="#e4e3df" d="M 14.5,191.5 C 14.8333,191.5 15.1667,191.5 15.5,191.5C 15.5,192.167 15.5,192.833 15.5,193.5C 14.6618,193.158 14.3284,192.492 14.5,191.5 Z"/></g>
<g><path style="opacity:0.004" fill="#e3e3e0" d="M 239.5,191.5 C 239.833,191.5 240.167,191.5 240.5,191.5C 240.672,192.492 240.338,193.158 239.5,193.5C 239.5,192.833 239.5,192.167 239.5,191.5 Z"/></g>
<g><path style="opacity:0.012" fill="#a5a59d" d="M 15.5,193.5 C 15.8333,193.5 16.1667,193.5 16.5,193.5C 16.3147,194.17 15.9813,194.17 15.5,193.5 Z"/></g>
<g><path style="opacity:0.012" fill="#adaca9" d="M 238.5,193.5 C 238.833,193.5 239.167,193.5 239.5,193.5C 239.315,194.17 238.981,194.17 238.5,193.5 Z"/></g>
<g><path style="opacity:0.008" fill="#fdfdf8" d="M 17.5,196.5 C 16.8333,195.167 16.8333,195.167 17.5,196.5 Z"/></g>
<g><path style="opacity:0.008" fill="#fefffa" d="M 237.5,195.5 C 238.833,196.167 238.833,196.167 237.5,195.5 Z"/></g>
<g><path style="opacity:0.004" fill="#fbfbf8" d="M 17.5,196.5 C 17.8333,196.5 18.1667,196.5 18.5,196.5C 18.1667,199.167 17.8333,199.167 17.5,196.5 Z"/></g>
<g><path style="opacity:0.004" fill="#fbfbf6" d="M 236.5,196.5 C 236.833,196.5 237.167,196.5 237.5,196.5C 237.672,197.492 237.338,198.158 236.5,198.5C 236.5,197.833 236.5,197.167 236.5,196.5 Z"/></g>
<g><path style="opacity:0.008" fill="#fbfced" d="M 235.5,198.5 C 235.833,198.5 236.167,198.5 236.5,198.5C 236.315,199.17 235.981,199.17 235.5,198.5 Z"/></g>
<g><path style="opacity:0.004" fill="#f9fadb" d="M 20.5,199.5 C 20.631,200.239 20.4643,200.906 20,201.5C 19.3083,200.563 19.475,199.897 20.5,199.5 Z"/></g>
<g><path style="opacity:1" fill="#bab8ac" d="M 63.5,187.5 C 65.06,191.726 67.7267,195.059 71.5,197.5C 71.5,198.5 71.5,199.5 71.5,200.5C 112.67,200.832 153.67,200.499 194.5,199.5C 200.794,197.536 205.127,193.536 207.5,187.5C 208.185,196.975 204.185,203.475 195.5,207C 155.5,207.667 115.5,207.667 75.5,207C 66.8404,203.537 62.8404,197.037 63.5,187.5 Z"/></g>
<g><path style="opacity:1" fill="#c7aaa1" d="M 71.5,197.5 C 72.9217,197.709 74.255,198.209 75.5,199C 115.165,199.5 154.832,199.667 194.5,199.5C 153.67,200.499 112.67,200.832 71.5,200.5C 71.5,199.5 71.5,198.5 71.5,197.5 Z"/></g>
<g><path style="opacity:0.004" fill="#edf6ac" d="M 234.5,199.5 C 234.833,199.5 235.167,199.5 235.5,199.5C 235.672,200.492 235.338,201.158 234.5,201.5C 234.5,200.833 234.5,200.167 234.5,199.5 Z"/></g>
<g><path style="opacity:0.008" fill="#fcfee8" d="M 233.5,201.5 C 233.833,201.5 234.167,201.5 234.5,201.5C 234.315,202.17 233.981,202.17 233.5,201.5 Z"/></g>
<g><path style="opacity:0.012" fill="#a5a59d" d="M 232.5,202.5 C 232.833,202.5 233.167,202.5 233.5,202.5C 233.315,203.17 232.981,203.17 232.5,202.5 Z"/></g>
<g><path style="opacity:0.004" fill="#d4d5c9" d="M 23.5,203.5 C 23.631,204.239 23.4643,204.906 23,205.5C 22.3083,204.563 22.475,203.897 23.5,203.5 Z"/></g>
<g><path style="opacity:0.004" fill="#d3d1cf" d="M 231.5,203.5 C 231.833,203.5 232.167,203.5 232.5,203.5C 232.672,204.492 232.338,205.158 231.5,205.5C 231.5,204.833 231.5,204.167 231.5,203.5 Z"/></g>
<g><path style="opacity:0.008" fill="#f7f8ee" d="M 230.5,205.5 C 230.833,205.5 231.167,205.5 231.5,205.5C 231.315,206.17 230.981,206.17 230.5,205.5 Z"/></g>
<g><path style="opacity:0.012" fill="#f2f2e6" d="M 229.5,206.5 C 229.833,206.5 230.167,206.5 230.5,206.5C 230.315,207.17 229.981,207.17 229.5,206.5 Z"/></g>
<g><path style="opacity:0.004" fill="#fdfdf7" d="M 26.5,207.5 C 26.631,208.239 26.4643,208.906 26,209.5C 25.3083,208.563 25.475,207.897 26.5,207.5 Z"/></g>
<g><path style="opacity:0.004" fill="#fdfcf4" d="M 228.5,207.5 C 228.833,207.5 229.167,207.5 229.5,207.5C 229.672,208.492 229.338,209.158 228.5,209.5C 228.5,208.833 228.5,208.167 228.5,207.5 Z"/></g>
<g><path style="opacity:0.004" fill="#f9f9ed" d="M 227.5,209.5 C 227.833,209.5 228.167,209.5 228.5,209.5C 228.315,210.17 227.981,210.17 227.5,209.5 Z"/></g>
<g><path style="opacity:0.008" fill="#fefff5" d="M 226.5,210.5 C 226.833,210.5 227.167,210.5 227.5,210.5C 227.315,211.17 226.981,211.17 226.5,210.5 Z"/></g>
<g><path style="opacity:0.012" fill="#afafa6" d="M 225.5,211.5 C 225.833,211.5 226.167,211.5 226.5,211.5C 226.315,212.17 225.981,212.17 225.5,211.5 Z"/></g>
<g><path style="opacity:0.012" fill="#fbfbf1" d="M 224.5,212.5 C 224.833,212.5 225.167,212.5 225.5,212.5C 225.315,213.17 224.981,213.17 224.5,212.5 Z"/></g>
<g><path style="opacity:0.012" fill="#fefff8" d="M 223.5,213.5 C 223.833,213.5 224.167,213.5 224.5,213.5C 224.315,214.17 223.981,214.17 223.5,213.5 Z"/></g>
<g><path style="opacity:0.012" fill="#edf0d3" d="M 222.5,214.5 C 222.833,214.5 223.167,214.5 223.5,214.5C 223.315,215.17 222.981,215.17 222.5,214.5 Z"/></g>
<g><path style="opacity:0.005" fill="#f5f5f1" d="M 33.5,215.5 C 34.1667,215.5 34.5,215.833 34.5,216.5C 35.1667,216.5 35.5,216.833 35.5,217.5C 36.1667,217.5 36.5,217.833 36.5,218.5C 37.1667,218.5 37.5,218.833 37.5,219.5C 38.1667,219.5 38.5,219.833 38.5,220.5C 39.1667,220.5 39.5,220.833 39.5,221.5C 39.1034,222.525 38.4368,222.692 37.5,222C 36,220.5 34.5,219 33,217.5C 32.3083,216.563 32.475,215.897 33.5,215.5 Z"/></g>
<g><path style="opacity:0.006" fill="#f7f7ec" d="M 221.5,215.5 C 221.833,215.5 222.167,215.5 222.5,215.5C 221.167,218.833 218.833,221.167 215.5,222.5C 215.5,222.167 215.5,221.833 215.5,221.5C 216.167,221.5 216.5,221.167 216.5,220.5C 217.167,220.5 217.5,220.167 217.5,219.5C 218.167,219.5 218.5,219.167 218.5,218.5C 219.167,218.5 219.5,218.167 219.5,217.5C 220.167,217.5 220.5,217.167 220.5,216.5C 221.167,216.5 221.5,216.167 221.5,215.5 Z"/></g>
<g><path style="opacity:0.004" fill="#63625f" d="M 214.5,222.5 C 214.833,222.5 215.167,222.5 215.5,222.5C 215.5,223.833 214.833,224.5 213.5,224.5C 213.5,224.167 213.5,223.833 213.5,223.5C 214.167,223.5 214.5,223.167 214.5,222.5 Z"/></g>
<g><path style="opacity:0.012" fill="#f0f0e9" d="M 212.5,224.5 C 212.833,224.5 213.167,224.5 213.5,224.5C 213.315,225.17 212.981,225.17 212.5,224.5 Z"/></g>
<g><path style="opacity:0.008" fill="#fefff8" d="M 211.5,225.5 C 211.833,225.5 212.167,225.5 212.5,225.5C 212.315,226.17 211.981,226.17 211.5,225.5 Z"/></g>
<g><path style="opacity:0.008" fill="#f6f7eb" d="M 210.5,226.5 C 210.833,226.5 211.167,226.5 211.5,226.5C 211.315,227.17 210.981,227.17 210.5,226.5 Z"/></g>
<g><path style="opacity:0.012" fill="#fefff1" d="M 206.5,229.5 C 206.833,229.5 207.167,229.5 207.5,229.5C 207.315,230.17 206.981,230.17 206.5,229.5 Z"/></g>
<g><path style="opacity:0.012" fill="#c9c9c1" d="M 79.5,247.5 C 79.1034,248.525 78.4368,248.692 77.5,248C 78.0944,247.536 78.7611,247.369 79.5,247.5 Z"/></g>
<g><path style="opacity:0.008" fill="#e6e6e2" d="M 175.5,247.5 C 176.167,247.5 176.833,247.5 177.5,247.5C 176.833,248.833 176.167,248.833 175.5,247.5 Z"/></g>
<g><path style="opacity:0.012" fill="#9d9f8f" d="M 172.5,249.5 C 172.5,249.167 172.5,248.833 172.5,248.5C 175.167,248.833 175.167,249.167 172.5,249.5 Z"/></g>
<g><path style="opacity:0.016" fill="#fbfde2" d="M 169.5,250.5 C 169.5,250.167 169.5,249.833 169.5,249.5C 170.5,249.5 171.5,249.5 172.5,249.5C 171.791,250.404 170.791,250.737 169.5,250.5 Z"/></g>
<g><path style="opacity:0.012" fill="#fefbfd" d="M 87.5,250.5 C 87.1034,251.525 86.4368,251.692 85.5,251C 86.0944,250.536 86.7611,250.369 87.5,250.5 Z"/></g>
<g><path style="opacity:0.008" fill="#fdfbf8" d="M 167.5,250.5 C 168.167,250.5 168.833,250.5 169.5,250.5C 168.833,251.833 168.167,251.833 167.5,250.5 Z"/></g>
<g><path style="opacity:0.012" fill="#dcdbc7" d="M 163.5,252.5 C 163.5,252.167 163.5,251.833 163.5,251.5C 167.5,251.833 167.5,252.167 163.5,252.5 Z"/></g>
<g><path style="opacity:0.012" fill="#fbfaf4" d="M 94.5,252.5 C 93.7494,253.573 92.7494,253.74 91.5,253C 92.448,252.517 93.448,252.351 94.5,252.5 Z"/></g>
<g><path style="opacity:0.012" fill="#fbf9f9" d="M 160.5,252.5 C 161.5,252.5 162.5,252.5 163.5,252.5C 162.5,253.833 161.5,253.833 160.5,252.5 Z"/></g>
</svg>
