<?xml version="1.0" encoding="UTF-8"?>
<!-- Generator: https://ezgif.com/webp-to-svg -->
<svg version="1.1" xmlns="http://www.w3.org/2000/svg" width="256" height="222">
<path d="M0 0 C2.39 0.02 4.79 0.02 7.18 0.01 C14.75 0.03 21.77 0.38 29.13 2.34 C30.96 2.21 30.96 2.21 32.82 2.09 C39.21 1.83 45.47 5.66 51.13 8.34 C51.13 9 51.13 9.66 51.13 10.34 C52.01 10.43 52.88 10.53 53.79 10.63 C61.33 12.22 68.08 17.63 73.13 23.34 C74.95 25.4 74.95 25.4 77.07 26.15 C79.13 27.34 79.13 27.34 80.57 29.77 C81.97 32.52 81.97 32.52 84.76 33.9 C87.13 35.34 87.13 35.34 87.7 37.4 C87.91 38.36 87.91 38.36 88.13 39.34 C89.45 40.04 90.78 40.7 92.13 41.34 C92.46 42.33 92.79 43.32 93.13 44.34 C93.79 45.33 94.45 46.32 95.13 47.34 C95.46 48.33 95.79 49.32 96.13 50.34 C97.02 51.93 97.91 53.53 98.81 55.12 C103.55 63.53 106.81 71.95 109.13 81.34 C109.32 82.07 109.5 82.81 109.69 83.56 C113.55 100.5 112.66 119.88 107.13 136.34 C106.92 136.98 106.7 137.62 106.48 138.28 C100.57 155.52 90.35 169.64 77.23 182.11 C75.07 184.18 75.07 184.18 74.03 186.56 C73.13 188.34 73.13 188.34 70.13 189.34 C69.56 189.92 68.99 190.5 68.4 191.11 C65.49 193.97 62.31 195.93 58.82 198.02 C58.18 198.43 57.54 198.83 56.88 199.24 C52.57 201.85 49.16 202.95 44.13 203.34 C44.13 204 44.13 204.66 44.13 205.34 C42.15 205.34 40.17 205.34 38.13 205.34 C38.13 206 38.13 206.66 38.13 207.34 C34.65 208.77 31.74 209.45 28.02 209.34 C23.1 209.28 18.32 209.76 13.45 210.34 C8.31 210.94 3.31 211.47 -1.87 211.34 C0.77 211.67 3.41 212 6.13 212.34 C6.13 212.67 6.13 213 6.13 213.34 C0.12 213.55 -5.71 213.13 -11.68 212.46 C-12.42 212.38 -13.16 212.3 -13.93 212.22 C-17.61 211.79 -20.7 211.32 -23.87 209.34 C-27.55 207.05 -30.59 207.17 -34.87 207.34 C-34.87 206.68 -34.87 206.02 -34.87 205.34 C-39.53 203.94 -39.53 203.94 -44.29 202.93 C-53.14 200.89 -62.1 194.19 -68.87 188.34 C-69.2 187.35 -69.53 186.36 -69.87 185.34 C-70.76 185.18 -70.76 185.18 -71.68 185.02 C-75.05 183.97 -75.95 181.22 -77.87 178.34 C-78.92 177.63 -79.97 176.93 -81.05 176.21 C-83.87 174.34 -83.87 174.34 -84.29 172.59 C-85.13 169.33 -87 167.16 -88.99 164.46 C-105.18 141.68 -111.12 114.56 -106.61 86.93 C-102.23 65.82 -92.51 48.28 -77.85 32.53 C-75.22 29.62 -73.04 26.59 -70.87 23.34 C-69.88 23.01 -68.89 22.68 -67.87 22.34 C-67.15 21.6 -66.44 20.86 -65.7 20.09 C-62.27 16.76 -58.63 14.58 -54.49 12.21 C-53.76 11.78 -53.03 11.35 -52.28 10.91 C-40.55 4.1 -40.55 4.1 -34.24 3.84 C-30.37 3.58 -26.91 2.85 -23.17 1.82 C-15.41 -0.01 -7.92 -0.08 0 0 Z M-18.87 209.34 C-18.87 209.67 -18.87 210 -18.87 210.34 C-17.22 210.34 -15.57 210.34 -13.87 210.34 C-13.87 210.01 -13.87 209.68 -13.87 209.34 C-15.52 209.34 -17.17 209.34 -18.87 209.34 Z " fill="#28ABAE" transform="translate(124.8671875,-0.336181640625)"/>
<path d="M0 0 C3.5 0.14 7 0.29 10.5 0.44 C11.48 0.48 12.46 0.52 13.48 0.56 C19.04 0.8 24.49 1.22 30 2 C30 2.66 30 3.32 30 4 C30.76 4.41 31.53 4.83 32.31 5.25 C35.6 7.39 36.46 9.45 38 13 C38.5 13.5 38.5 13.5 39 14 C39.35 16.8 39.61 19.56 39.81 22.38 C39.89 23.16 39.97 23.94 40.04 24.74 C40.45 30.47 40.45 30.47 38.26 33.04 C36 34 36 34 32 34 C32.43 34.72 32.87 35.44 33.31 36.19 C35.66 40.09 35.66 40.09 38 44 C38.84 45.08 38.84 45.08 39.69 46.19 C42.15 51.47 41.18 56.96 40.69 62.62 C38 68.01 33.21 71.13 28 74 C26.68 74 25.36 74 24 74 C24 74.66 24 75.32 24 76 C15.92 77.62 8.58 76.97 0.56 75.56 C-0.66 75.36 -0.66 75.36 -1.9 75.15 C-7.86 74.14 -7.86 74.14 -9 73 C-9.07 70.47 -9.09 67.97 -9.06 65.44 C-9.06 64.73 -9.05 64.02 -9.05 63.28 C-9.04 61.52 -9.02 59.76 -9 58 C-8.36 57.71 -7.72 57.42 -7.06 57.12 C-4.85 56.17 -4.85 56.17 -4 54 C-4.66 54 -5.32 54 -6 54 C-6 54.66 -6 55.32 -6 56 C-8.97 56.5 -8.97 56.5 -12 57 C-12.33 48.42 -12.66 39.84 -13 31 C-13.99 30.67 -14.98 30.34 -16 30 C-16 27.36 -16 24.72 -16 22 C-14.68 22 -13.36 22 -12 22 C-12 24.64 -12 27.28 -12 30 C-8.04 30 -4.08 30 0 30 C0 28.02 0 26.04 0 24 C0.66 24 1.32 24 2 24 C2 23.01 2 22.02 2 21 C1.46 21.21 0.93 21.41 0.38 21.62 C-2 22 -2 22 -8 20 C-8 14.06 -8 8.12 -8 2 C-5.36 2.33 -2.72 2.66 0 3 C0 2.01 0 1.02 0 0 Z " fill="#2CA9AB" transform="translate(148,66)"/>
<path d="M0 0 C3.3 0 6.6 0 10 0 C10 8.91 10 17.82 10 27 C21.55 27 33.1 27 45 27 C45 18.09 45 9.18 45 0 C47.97 0 50.94 0 54 0 C54 22.77 54 45.54 54 69 C51.03 69 48.06 69 45 69 C45 57.78 45 46.56 45 35 C33.45 35 21.9 35 10 35 C10 46.55 10 58.1 10 70 C6.7 70 3.4 70 0 70 C0 46.9 0 23.8 0 0 Z " fill="#F7FDFC" transform="translate(69,70)"/>
<path d="M0 0 C3.16 2.34 4.77 4.63 5.43 8.62 C5.64 13.17 5.34 16.29 3.38 20.44 C0.78 23.23 -1.67 25.16 -5 27 C-5.99 27 -6.98 27 -8 27 C-8 27.66 -8 28.32 -8 29 C-6.64 29.19 -6.64 29.19 -5.25 29.38 C-1.59 30.08 0.89 30.83 3.48 33.56 C7.33 39.26 8.05 44.22 7 51 C5.19 57.2 1.4 61.55 -4 65 C-13.25 69.8 -23.62 68.96 -33.31 66 C-35.21 65.35 -37.11 64.69 -39 64 C-39 60.7 -39 57.4 -39 54 C-37.66 54.45 -36.32 54.91 -34.94 55.38 C-33.29 55.92 -31.65 56.46 -30 57 C-28.82 57.39 -27.65 57.78 -26.44 58.19 C-19.52 59.82 -14.35 59.54 -8 56 C-4.99 53.61 -4.13 51.94 -3.62 48.15 C-3.19 42 -3.19 42 -5.83 36.7 C-10.69 32.89 -17.04 32.63 -23 32 C-23 29.69 -23 27.38 -23 25 C-22.44 24.99 -21.89 24.97 -21.31 24.96 C-15.16 24.57 -10.79 22.93 -6 19 C-4.43 15.87 -4.15 12.37 -5 9 C-7.82 5.92 -9.52 5.07 -13.67 4.47 C-15.03 4.45 -16.39 4.46 -17.75 4.5 C-18.46 4.51 -19.16 4.52 -19.89 4.52 C-25 4.69 -28.95 5.65 -33.4 8.12 C-35 9 -35 9 -37 9 C-37 5.7 -37 2.4 -37 -1 C-24.31 -5.36 -11.78 -8.24 0 0 Z " fill="#F1FBFB" transform="translate(179,73)"/>
<path d="M0 0 C3.3 0 6.6 0 10 0 C10 8.91 10 17.82 10 27 C21.22 27 32.44 27 44 27 C43.67 27.66 43.34 28.32 43 29 C41.96 29.01 40.92 29.02 39.85 29.03 C35.99 29.07 32.13 29.13 28.27 29.21 C26.6 29.24 24.93 29.26 23.26 29.27 C20.85 29.29 18.45 29.34 16.05 29.39 C15.3 29.39 14.56 29.39 13.79 29.39 C10.18 29.5 8.34 29.72 5.5 32.04 C4.76 33.01 4.76 33.01 4 34 C3 33 3 33 2.89 30.5 C2.89 29.42 2.9 28.33 2.9 27.21 C2.91 25.46 2.91 25.46 2.91 23.67 C2.92 22.44 2.93 21.21 2.94 19.94 C2.94 18.7 2.95 17.47 2.95 16.19 C2.96 13.13 2.98 10.06 3 7 C3.66 6.67 4.32 6.34 5 6 C5 11.28 5 16.56 5 22 C5.66 21.67 6.32 21.34 7 21 C7 14.73 7 8.46 7 2 C5.35 1.67 3.7 1.34 2 1 C2.01 1.82 2.03 2.64 2.04 3.49 C2.18 11.23 2.32 18.97 2.44 26.71 C2.51 30.69 2.58 34.67 2.65 38.65 C2.72 42.49 2.78 46.33 2.84 50.17 C2.87 51.63 2.89 53.1 2.92 54.57 C2.96 56.62 2.99 58.66 3.02 60.71 C3.04 61.88 3.06 63.05 3.08 64.25 C3 67 3 67 2 69 C4.31 69 6.62 69 9 69 C9 58.11 9 47.22 9 36 C9.33 36 9.66 36 10 36 C10 47.22 10 58.44 10 70 C6.7 70 3.4 70 0 70 C0 46.9 0 23.8 0 0 Z " fill="#D0F3F3" transform="translate(69,70)"/>
<path d="M0 0 C1.32 0.66 2.64 1.32 4 2 C4.02 11.09 4.04 20.18 4.05 29.28 C4.06 33.5 4.06 37.72 4.08 41.94 C4.09 46.01 4.09 50.09 4.09 54.16 C4.1 55.71 4.1 57.27 4.11 58.82 C4.11 61 4.11 63.17 4.11 65.35 C4.12 66.59 4.12 67.83 4.12 69.1 C4 72 4 72 3 74 C-5.57 74.29 -5.57 74.29 -9 72 C-9 71.34 -9 70.68 -9 70 C-6.03 70 -3.06 70 0 70 C0 46.9 0 23.8 0 0 Z " fill="#25A1A3" transform="translate(123,70)"/>
<path d="M0 0 C0.66 0.33 1.32 0.66 2 1 C2.28 3.77 2.52 6.54 2.75 9.31 C2.83 10.1 2.91 10.88 3 11.69 C3.44 17.48 3.44 17.48 1.27 20.04 C-1 21 -1 21 -5 21 C-4.57 21.72 -4.13 22.44 -3.69 23.19 C-2.12 25.79 -0.56 28.4 1 31 C1.56 31.72 2.11 32.44 2.69 33.19 C5.15 38.47 4.18 43.96 3.69 49.62 C1 55.01 -3.79 58.13 -9 61 C-10.32 61 -11.64 61 -13 61 C-13 61.66 -13 62.32 -13 63 C-20.97 64.59 -28.11 64.02 -36 62.5 C-36.77 62.36 -37.55 62.21 -38.35 62.07 C-40.23 61.72 -42.12 61.36 -44 61 C-44 60.34 -44 59.68 -44 59 C-37.48 59.89 -37.48 59.89 -34.64 60.52 C-25.48 62.19 -16.21 61.61 -8 57 C-3.35 53.06 -0.43 48.44 0.34 42.32 C0.42 36.1 -0.05 32.82 -4 28 C-4 27.34 -4 26.68 -4 26 C-7.3 25.01 -10.6 24.02 -14 23 C-14 22.34 -14 21.68 -14 21 C-12.78 20.5 -11.57 20.01 -10.31 19.5 C-5.49 17.06 -3 13.99 -1 9 C-0.38 5.99 -0.08 3.07 0 0 Z " fill="#2C9092" transform="translate(185,79)"/>
<path d="M0 0 C11.22 0 22.44 0 34 0 C34 11.22 34 22.44 34 34 C33.67 34 33.34 34 33 34 C33 23.44 33 12.88 33 2 C22.77 2 12.54 2 2 2 C2 12.89 2 23.78 2 35 C-3.62 36.12 -3.62 36.12 -7 34 C-4.69 34 -2.38 34 0 34 C0 22.78 0 11.56 0 0 Z " fill="#26878B" transform="translate(79,106)"/>
<path d="M0 0 C0.66 0.33 1.32 0.66 2 1 C2.02 10.11 2.04 19.22 2.05 28.33 C2.06 32.56 2.06 36.79 2.08 41.02 C2.09 45.1 2.09 49.17 2.09 53.25 C2.1 54.81 2.1 56.37 2.11 57.93 C2.11 60.11 2.11 62.28 2.11 64.46 C2.12 65.7 2.12 66.94 2.12 68.22 C2 71 2 71 1 72 C-0.69 72.07 -2.38 72.08 -4.06 72.06 C-5.44 72.05 -5.44 72.05 -6.85 72.04 C-7.56 72.02 -8.27 72.01 -9 72 C-9 71.34 -9 70.68 -9 70 C-6.03 70 -3.06 70 0 70 C0 46.9 0 23.8 0 0 Z " fill="#2A8483" transform="translate(123,70)"/>
<path d="M0 0 C0.99 0.33 1.98 0.66 3 1 C3.33 9.25 3.66 17.5 4 26 C2.68 26.33 1.36 26.66 0 27 C0 18.09 0 9.18 0 0 Z " fill="#288C91" transform="translate(79,70)"/>
<path d="M0 0 C5.61 0.33 11.22 0.66 17 1 C17 1.33 17 1.66 17 2 C14.03 2 11.06 2 8 2 C8 10.91 8 19.82 8 29 C7.01 28.34 6.02 27.68 5 27 C4.66 24.48 4.66 24.48 4.71 21.34 C4.72 20.21 4.73 19.09 4.74 17.94 C4.76 16.76 4.79 15.59 4.81 14.38 C4.83 13.19 4.84 12.01 4.85 10.79 C4.89 7.86 4.94 4.93 5 2 C3.35 2 1.7 2 0 2 C0 1.34 0 0.68 0 0 Z " fill="#51BABB" transform="translate(106,68)"/>
<path d="M0 0 C0.33 0 0.66 0 1 0 C1.31 5.94 0.93 9.77 -2 15 C-4.12 16.19 -4.12 16.19 -6 17 C-6.81 19.05 -6.81 19.05 -7 21 C-9.31 20.67 -11.62 20.34 -14 20 C-14 19.34 -14 18.68 -14 18 C-12.78 17.5 -11.57 17.01 -10.31 16.5 C-5.49 14.09 -3.15 10.88 -1 6 C-0.14 2.69 -0.14 2.69 0 0 Z " fill="#328886" transform="translate(185,82)"/>
<path d="M0 0 C0.74 0.01 1.48 0.02 2.24 0.03 C4.06 0.05 5.87 0.09 7.69 0.12 C8.02 0.78 8.35 1.44 8.69 2.12 C7.28 2.2 7.28 2.2 5.84 2.27 C3.97 2.39 3.97 2.39 2.06 2.5 C0.83 2.57 -0.4 2.64 -1.66 2.71 C-5.16 3.11 -8.02 3.95 -11.31 5.12 C-14.19 5.25 -14.19 5.25 -16.31 5.12 C-11.81 -0.09 -6.52 -0.15 0 0 Z " fill="#2E8484" transform="translate(161.3125,76.875)"/>
<path d="M0 0 C2.97 0 5.94 0 9 0 C9 0.66 9 1.32 9 2 C10.2 1.98 11.39 1.96 12.62 1.94 C16.18 1.93 19.51 2.3 23 3 C23 3.33 23 3.66 23 4 C14.74 4.35 7.76 3.94 0 1 C0 0.67 0 0.34 0 0 Z " fill="#CAEDED" transform="translate(143,137)"/>
<path d="M0 0 C1.13 -0.01 2.25 -0.03 3.41 -0.04 C6.38 0.19 6.38 0.19 9.38 2.19 C2.19 2.9 -4.5 3.45 -11.62 2.19 C-11.62 1.86 -11.62 1.53 -11.62 1.19 C-7.71 0.27 -4.02 0.02 0 0 Z " fill="#CAEEEF" transform="translate(162.625,67.8125)"/>
<path d="M0 0 C0 0.99 0 1.98 0 3 C-2.64 3 -5.28 3 -8 3 C-7.67 5.97 -7.34 8.94 -7 12 C-7.66 12 -8.32 12 -9 12 C-9 8.7 -9 5.4 -9 2 C-5.63 0.5 -3.8 0 0 0 Z " fill="#D1F6F7" transform="translate(151,70)"/>
<path d="M0 0 C-2.47 1.48 -2.47 1.48 -5 3 C-4.67 4.32 -4.34 5.64 -4 7 C-5.65 6.67 -7.3 6.34 -9 6 C-9.33 5.01 -9.66 4.02 -10 3 C-3.38 -1.12 -3.38 -1.12 0 0 Z " fill="#1E9597" transform="translate(84,7)"/>
<path d="M0 0 C0.33 0 0.66 0 1 0 C1.96 4 2.1 7.71 2.06 11.81 C2.05 12.97 2.04 14.14 2.04 15.33 C2.02 16.21 2.01 17.09 2 18 C1.67 18 1.34 18 1 18 C0.67 12.06 0.34 6.12 0 0 Z " fill="#31A19F" transform="translate(236,85)"/>
<path d="M0 0 C0.33 0 0.66 0 1 0 C1 4.29 1 8.58 1 13 C0.67 13 0.34 13 0 13 C0 8.71 0 4.42 0 0 Z " fill="#3BA19F" transform="translate(237,106)"/>
<path d="M0 0 C0.33 0 0.66 0 1 0 C1 4.29 1 8.58 1 13 C0.67 13 0.34 13 0 13 C0 8.71 0 4.42 0 0 Z " fill="#14A3A6" transform="translate(15,98)"/>
<path d="M0 0 C3.63 0 7.26 0 11 0 C11 0.33 11 0.66 11 1 C7.37 1 3.74 1 0 1 C0 0.67 0 0.34 0 0 Z " fill="#3FAEAE" transform="translate(131,211)"/>
<path d="M0 0 C0.33 0 0.66 0 1 0 C1 2.64 1 5.28 1 8 C0.67 8 0.34 8 0 8 C0 5.36 0 2.72 0 0 Z " fill="#2A9095" transform="translate(16,113)"/>
<path d="M0 0 C0.33 0 0.66 0 1 0 C1 2.64 1 5.28 1 8 C0.67 8 0.34 8 0 8 C0 5.36 0 2.72 0 0 Z " fill="#359395" transform="translate(16,88)"/>
<path d="M0 0 C1.98 0 3.96 0 6 0 C6 0.33 6 0.66 6 1 C4.02 1 2.04 1 0 1 C0 0.67 0 0.34 0 0 Z " fill="#20BFC1" transform="translate(142,210)"/>
<path d="M0 0 C0.33 0 0.66 0 1 0 C1 1.98 1 3.96 1 6 C0.67 6 0.34 6 0 6 C0 4.02 0 2.04 0 0 Z " fill="#21B6AE" transform="translate(236,119)"/>
<path d="M0 0 C1.65 0 3.3 0 5 0 C5 0.33 5 0.66 5 1 C3.35 1 1.7 1 0 1 C0 0.67 0 0.34 0 0 Z " fill="#45B5B4" transform="translate(148,209)"/>
<path d="M0 0 C0 0.99 0 1.98 0 3 C-0.66 2.67 -1.32 2.34 -2 2 C-1.34 1.34 -0.68 0.68 0 0 Z " fill="#217B7A" transform="translate(207,177)"/>
<path d="M0 0 C0.33 0 0.66 0 1 0 C1 1.65 1 3.3 1 5 C0.67 5 0.34 5 0 5 C0 3.35 0 1.7 0 0 Z " fill="#209C9A" transform="translate(17,122)"/>
<path d="M0 0 C0.33 0 0.66 0 1 0 C1 1.65 1 3.3 1 5 C0.67 5 0.34 5 0 5 C0 3.35 0 1.7 0 0 Z " fill="#24AEB2" transform="translate(17,83)"/>
<path d="M0 0 C0.33 0 0.66 0 1 0 C1 1.65 1 3.3 1 5 C0.67 5 0.34 5 0 5 C0 3.35 0 1.7 0 0 Z " fill="#1F7D80" transform="translate(235,80)"/>
<path d="M0 0 C1.65 0 3.3 0 5 0 C5 0.33 5 0.66 5 1 C3.35 1 1.7 1 0 1 C0 0.67 0 0.34 0 0 Z " fill="#1EAAAC" transform="translate(99,0)"/>
<path d="M0 0 C4 1 4 1 4 1 Z " fill="#1ACBC6" transform="translate(97,208)"/>
<path d="M0 0 C1 4 1 4 1 4 Z " fill="#0EB8B2" transform="translate(234,129)"/>
<path d="M0 0 C1 4 1 4 1 4 Z " fill="#4ABFC0" transform="translate(235,125)"/>
<path d="M0 0 C1 4 1 4 1 4 Z " fill="#53A79F" transform="translate(18,127)"/>
<path d="M0 0 C1 4 1 4 1 4 Z " fill="#3AC0BB" transform="translate(18,79)"/>
<path d="M0 0 C1 4 1 4 1 4 Z " fill="#11A297" transform="translate(19,75)"/>
<path d="M0 0 C1 4 1 4 1 4 Z " fill="#2E9D9C" transform="translate(233,73)"/>
<path d="M0 0 C0 3 0 3 0 3 Z " fill="#339C8E" transform="translate(40,37)"/>
<path d="M0 0 C4 1 4 1 4 1 Z " fill="#3992A3" transform="translate(92,2)"/>
<path d="M0 0 C4 1 4 1 4 1 Z " fill="#296A65" transform="translate(154,1)"/>
<path d="M0 0 C4 1 4 1 4 1 Z " fill="#218D8C" transform="translate(150,0)"/>
<path d="M0 0 C3 1 3 1 3 1 Z " fill="#3EB9B8" transform="translate(94,207)"/>
<path d="M0 0 C3 1 3 1 3 1 Z " fill="#3FADA8" transform="translate(163,205)"/>
<path d="M0 0 C3 1 3 1 3 1 Z " fill="#2AB2B9" transform="translate(85,204)"/>
<path d="" fill="#25807A" transform="translate(0,0)"/>
<path d="" fill="#20A5A2" transform="translate(0,0)"/>
<path d="" fill="#4EC9C5" transform="translate(0,0)"/>
<path d="" fill="#3CB0B2" transform="translate(0,0)"/>
<path d="" fill="#1EB6B7" transform="translate(0,0)"/>
<path d="" fill="#2B8D94" transform="translate(0,0)"/>
<path d="" fill="#0E979A" transform="translate(0,0)"/>
<path d="" fill="#2CBEC5" transform="translate(0,0)"/>
<path d="" fill="#18918D" transform="translate(0,0)"/>
<path d="" fill="#26C5C6" transform="translate(0,0)"/>
<path d="" fill="#289195" transform="translate(0,0)"/>
<path d="" fill="#0C6B6E" transform="translate(0,0)"/>
<path d="M0 0 C3 1 3 1 3 1 Z " fill="#2F7F7A" transform="translate(89,3)"/>
<path d="M0 0 C3 1 3 1 3 1 Z " fill="#2C888E" transform="translate(96,1)"/>
<path d="M0 0 C2 1 2 1 2 1 Z " fill="#50A9A6" transform="translate(88,205)"/>
<path d="M0 0 C2 1 2 1 2 1 Z " fill="#287A70" transform="translate(169,203)"/>
<path d="M0 0 C2 1 2 1 2 1 Z " fill="#23A2A0" transform="translate(83,203)"/>
<path d="" fill="#13B9BC" transform="translate(0,0)"/>
<path d="" fill="#13D0CF" transform="translate(0,0)"/>
<path d="" fill="#057F87" transform="translate(0,0)"/>
<path d="" fill="#2DD2D2" transform="translate(0,0)"/>
<path d="" fill="#10CECD" transform="translate(0,0)"/>
<path d="" fill="#54C3BC" transform="translate(0,0)"/>
<path d="" fill="#0E5E60" transform="translate(0,0)"/>
<path d="" fill="#2EBAB6" transform="translate(0,0)"/>
<path d="" fill="#29ACA8" transform="translate(0,0)"/>
<path d="" fill="#16C4B6" transform="translate(0,0)"/>
<path d="" fill="#0B6060" transform="translate(0,0)"/>
<path d="" fill="#39E4DB" transform="translate(0,0)"/>
<path d="" fill="#12D9D5" transform="translate(0,0)"/>
<path d="" fill="#3BCFD8" transform="translate(0,0)"/>
<path d="" fill="#3CCAC8" transform="translate(0,0)"/>
<path d="" fill="#046661" transform="translate(0,0)"/>
<path d="" fill="#188692" transform="translate(0,0)"/>
<path d="" fill="#009888" transform="translate(0,0)"/>
<path d="" fill="#139292" transform="translate(0,0)"/>
<path d="" fill="#040208" transform="translate(0,0)"/>
<path d="" fill="#20C4D4" transform="translate(0,0)"/>
<path d="" fill="#349499" transform="translate(0,0)"/>
<path d="" fill="#099691" transform="translate(0,0)"/>
<path d="" fill="#1CC4C6" transform="translate(0,0)"/>
<path d="" fill="#42B4BC" transform="translate(0,0)"/>
<path d="" fill="#3DBABE" transform="translate(0,0)"/>
<path d="" fill="#029AA0" transform="translate(0,0)"/>
<path d="" fill="#52C6CB" transform="translate(0,0)"/>
<path d="" fill="#129B9B" transform="translate(0,0)"/>
<path d="" fill="#56BBBF" transform="translate(0,0)"/>
<path d="" fill="#24BAB4" transform="translate(0,0)"/>
<path d="" fill="#49C2C6" transform="translate(0,0)"/>
<path d="" fill="#158C8C" transform="translate(0,0)"/>
<path d="" fill="#61BAC0" transform="translate(0,0)"/>
<path d="" fill="#13C8C9" transform="translate(0,0)"/>
<path d="" fill="#3DAAA5" transform="translate(0,0)"/>
<path d="" fill="#0D8179" transform="translate(0,0)"/>
<path d="" fill="#286362" transform="translate(0,0)"/>
<path d="" fill="#0B5F5D" transform="translate(0,0)"/>
<path d="" fill="#57C2C1" transform="translate(0,0)"/>
<path d="M0 0 C2 1 2 1 2 1 Z " fill="#488A8A" transform="translate(176,9)"/>
<path d="" fill="#189C92" transform="translate(0,0)"/>
<path d="" fill="#08A398" transform="translate(0,0)"/>
<path d="" fill="#3DB8B7" transform="translate(0,0)"/>
<path d="" fill="#45B4A8" transform="translate(0,0)"/>
<path d="" fill="#4FC4BF" transform="translate(0,0)"/>
<path d="" fill="#249A99" transform="translate(0,0)"/>
<path d="" fill="#47BDB5" transform="translate(0,0)"/>
<path d="" fill="#2DB1A2" transform="translate(0,0)"/>
<path d="" fill="#37E1E7" transform="translate(0,0)"/>
<path d="" fill="#179E9E" transform="translate(0,0)"/>
<path d="" fill="#7EFEFA" transform="translate(0,0)"/>
<path d="" fill="#57A9C4" transform="translate(0,0)"/>
<path d="" fill="#30E9F4" transform="translate(0,0)"/>
<path d="" fill="#1F6D92" transform="translate(0,0)"/>
<path d="" fill="#39BECA" transform="translate(0,0)"/>
<path d="" fill="#4EC2CD" transform="translate(0,0)"/>
<path d="" fill="#4BB4CC" transform="translate(0,0)"/>
<path d="" fill="#3B9BD3" transform="translate(0,0)"/>
<path d="" fill="#118EAF" transform="translate(0,0)"/>
<path d="" fill="#50B3B8" transform="translate(0,0)"/>
<path d="" fill="#057D80" transform="translate(0,0)"/>
<path d="" fill="#099193" transform="translate(0,0)"/>
<path d="" fill="#047779" transform="translate(0,0)"/>
<path d="" fill="#219F9B" transform="translate(0,0)"/>
<path d="" fill="#65F0EC" transform="translate(0,0)"/>
<path d="" fill="#2FE7E4" transform="translate(0,0)"/>
<path d="" fill="#18A6CD" transform="translate(0,0)"/>
<path d="" fill="#1AAEBE" transform="translate(0,0)"/>
<path d="" fill="#14B4AE" transform="translate(0,0)"/>
<path d="" fill="#45D9CD" transform="translate(0,0)"/>
<path d="" fill="#20ACA6" transform="translate(0,0)"/>
<path d="" fill="#2E9A95" transform="translate(0,0)"/>
<path d="" fill="#1DB9B2" transform="translate(0,0)"/>
<path d="" fill="#57ABAA" transform="translate(0,0)"/>
<path d="" fill="#13A99B" transform="translate(0,0)"/>
<path d="" fill="#16A49D" transform="translate(0,0)"/>
<path d="" fill="#17A5A3" transform="translate(0,0)"/>
<path d="" fill="#5CC2C4" transform="translate(0,0)"/>
<path d="" fill="#239CA5" transform="translate(0,0)"/>
<path d="" fill="#4DDFDE" transform="translate(0,0)"/>
<path d="" fill="#0B9E97" transform="translate(0,0)"/>
<path d="" fill="#5DAFAE" transform="translate(0,0)"/>
<path d="" fill="#03A09F" transform="translate(0,0)"/>
<path d="" fill="#55D7D2" transform="translate(0,0)"/>
<path d="" fill="#0EA5B2" transform="translate(0,0)"/>
<path d="" fill="#3ABCC5" transform="translate(0,0)"/>
<path d="" fill="#10A6A5" transform="translate(0,0)"/>
<path d="" fill="#07817A" transform="translate(0,0)"/>
<path d="" fill="#42A59F" transform="translate(0,0)"/>
<path d="" fill="#44A59F" transform="translate(0,0)"/>
<path d="" fill="#40828E" transform="translate(0,0)"/>
<path d="" fill="#0D7576" transform="translate(0,0)"/>
<path d="" fill="#43818E" transform="translate(0,0)"/>
<path d="" fill="#47D4F4" transform="translate(0,0)"/>
<path d="" fill="#5AB5AB" transform="translate(0,0)"/>
<path d="" fill="#0290B7" transform="translate(0,0)"/>
<path d="" fill="#56B8A9" transform="translate(0,0)"/>
<path d="" fill="#12848F" transform="translate(0,0)"/>
<path d="" fill="#51A5A2" transform="translate(0,0)"/>
<path d="" fill="#4EA2A4" transform="translate(0,0)"/>
<path d="" fill="#0A767A" transform="translate(0,0)"/>
<path d="" fill="#1A9594" transform="translate(0,0)"/>
<path d="" fill="#32B1B4" transform="translate(0,0)"/>
<path d="" fill="#3DC3C3" transform="translate(0,0)"/>
<path d="" fill="#3BC3C9" transform="translate(0,0)"/>
</svg>
