<?xml version="1.0" encoding="UTF-8"?>
<!-- Generator: https://ezgif.com/webp-to-svg -->
<svg version="1.1" xmlns="http://www.w3.org/2000/svg" width="256" height="222">
<path d="M0 0 C1.35 0 1.35 0 2.73 0 C3.69 0.01 4.65 0.01 5.63 0.02 C6.63 0.02 7.62 0.02 8.64 0.02 C11.8 0.03 14.96 0.04 18.11 0.05 C20.26 0.06 22.4 0.06 24.55 0.06 C29.8 0.08 35.05 0.09 40.3 0.11 C40.3 0.77 40.3 1.43 40.3 2.11 C41.85 2.05 41.85 2.05 43.43 1.99 C47.17 2.11 49.84 2.76 53.3 4.11 C53.3 4.77 53.3 5.43 53.3 6.11 C54.32 6.21 55.34 6.31 56.4 6.41 C65.13 7.98 73.41 13.63 80.3 19.11 C80.63 19.77 80.96 20.43 81.3 21.11 C82.29 21.44 83.28 21.77 84.3 22.11 C84.63 23.1 84.96 24.09 85.3 25.11 C85.92 25.26 86.54 25.4 87.18 25.55 C90.05 26.31 90.67 27.7 92.3 30.11 C94.24 32.21 95.88 33.5 98.3 35.11 C98.43 35.68 98.56 36.26 98.7 36.84 C99.6 40.24 101.82 42.68 103.93 45.43 C111.89 56.22 117.04 68.08 120.3 81.11 C120.48 81.82 120.65 82.52 120.84 83.25 C124.7 100.23 123.84 119.61 118.3 136.11 C118.09 136.76 117.87 137.4 117.65 138.06 C114.4 147.55 109.76 155.75 104.3 164.11 C102.6 166.83 101.32 169.06 100.3 172.11 C98.97 172.79 97.64 173.45 96.3 174.11 C94.54 175.69 92.84 177.32 91.18 178.99 C90.31 179.85 89.44 180.72 88.54 181.61 C86.27 183.92 86.27 183.92 85.18 186.37 C84.3 188.11 84.3 188.11 81.3 189.11 C80.47 189.98 80.47 189.98 79.61 190.86 C74.79 195.55 70.02 198.31 63.3 199.11 C62.64 199.77 61.98 200.43 61.3 201.11 C58.21 204.09 55.68 204.35 51.51 204.82 C47.99 205.29 44.6 206.2 41.18 207.11 C22.48 212.03 2.05 211.85 -16.7 207.11 C-18.43 206.73 -20.16 206.36 -21.89 205.99 C-23.14 205.7 -24.4 205.41 -25.7 205.11 C-26.44 205.01 -27.18 204.9 -27.94 204.79 C-31.77 203.85 -35.07 202.15 -38.57 200.36 C-39.26 200.03 -39.94 199.69 -40.64 199.35 C-52.58 193.34 -52.58 193.34 -54.7 189.11 C-55.69 188.78 -56.68 188.45 -57.7 188.11 C-58.01 187.45 -58.32 186.79 -58.64 186.11 C-58.99 185.45 -59.34 184.79 -59.7 184.11 C-60.63 183.93 -60.63 183.93 -61.57 183.74 C-64.92 182.75 -65.84 179.95 -67.7 177.11 C-69.02 176.43 -70.36 175.76 -71.7 175.11 C-72.03 173.78 -72.37 172.45 -72.7 171.11 C-73.36 170.78 -74.02 170.45 -74.7 170.11 C-75.36 169.78 -76.02 169.45 -76.7 169.11 C-76.82 168.57 -76.94 168.02 -77.07 167.46 C-77.79 164.76 -79.12 162.73 -80.63 160.4 C-95.41 137.53 -100.24 109.76 -94.7 83.11 C-90.98 68.18 -84.86 54.45 -75.26 42.35 C-73.58 40.25 -73.58 40.25 -73.23 37.94 C-72.7 36.11 -72.7 36.11 -70.86 35.07 C-70.15 34.76 -69.43 34.44 -68.7 34.11 C-66.81 32.54 -66.81 32.54 -65.07 30.74 C-64.48 30.15 -63.89 29.57 -63.28 28.97 C-61.61 27.18 -61.61 27.18 -60.68 24.95 C-59.7 23.11 -59.7 23.11 -56.7 22.11 C-55.98 21.37 -55.25 20.63 -54.51 19.86 C-50.85 16.29 -46.59 12.8 -41.51 11.6 C-40.92 11.44 -40.32 11.28 -39.7 11.11 C-39.37 10.45 -39.04 9.79 -38.7 9.11 C-36.37 8.77 -34.03 8.44 -31.7 8.11 C-31.04 7.45 -30.38 6.79 -29.7 6.11 C-27.13 5.26 -24.65 4.63 -22.01 4.05 C-21.2 3.87 -20.39 3.7 -19.56 3.52 C-18.95 3.38 -18.33 3.25 -17.7 3.11 C-17.7 2.45 -17.7 1.79 -17.7 1.11 C-15.78 1.15 -13.86 1.18 -11.94 1.21 C-9.66 1.17 -9.66 1.17 -7.35 0.61 C-4.82 0.14 -2.57 -0.01 0 0 Z " fill="#46D0FB" transform="translate(113.698486328125,-0.113525390625)"/>
<path d="M0 0 C0 14.19 0 28.38 0 43 C3.3 43 6.6 43 10 43 C10 45.31 10 47.62 10 50 C6.7 50 3.4 50 0 50 C0 56.27 0 62.54 0 69 C-2.97 69 -5.94 69 -9 69 C-9 62.73 -9 56.46 -9 50 C-19.89 50 -30.78 50 -42 50 C-42 38 -42 38 -39.88 34.55 C-38.93 33.67 -37.98 32.79 -37 31.88 C-35.98 30.88 -34.96 29.88 -33.95 28.88 C-33.44 28.39 -32.94 27.91 -32.42 27.41 C-30.38 25.38 -28.63 23.15 -26.88 20.88 C-23.44 16.49 -19.8 12.36 -16.02 8.27 C-14.33 6.37 -12.93 4.47 -11.5 2.38 C-9 0 -9 0 0 0 Z " fill="#E6FAFC" transform="translate(178,70)"/>
<path d="M0 0 C2.97 0 5.94 0 9 0 C9 8.91 9 17.82 9 27 C20.55 27 32.1 27 44 27 C44 18.09 44 9.18 44 0 C47.3 0 50.6 0 54 0 C54 23.1 54 46.2 54 70 C50.7 70 47.4 70 44 70 C44 58.78 44 47.56 44 36 C32.78 36 21.56 36 10 36 C10 47.22 10 58.44 10 70 C6.7 70 3.4 70 0 70 C0 46.9 0 23.8 0 0 Z " fill="#EEFBFD" transform="translate(69,70)"/>
<path d="M0 0 C2.97 0 5.94 0 9 0 C9 14.19 9 28.38 9 43 C12.3 43 15.6 43 19 43 C19 45.31 19 47.62 19 50 C15.7 50 12.4 50 9 50 C9 56.27 9 62.54 9 69 C6.03 69 3.06 69 0 69 C-0.5 59.59 -0.5 59.59 -1 50 C-11.23 49.67 -21.46 49.34 -32 49 C-31.01 48.01 -30.02 47.02 -29 46 C-28.34 46 -27.68 46 -27 46 C-27 45.34 -27 44.68 -27 44 C-24.37 42.69 -22.27 42.79 -19.34 42.68 C-17.82 42.63 -17.82 42.63 -16.27 42.57 C-14.34 42.5 -14.34 42.5 -12.38 42.44 C-8.29 42.29 -4.21 42.15 0 42 C0 31.44 0 20.88 0 10 C-0.99 9.67 -1.98 9.34 -3 9 C-2.01 6.03 -1.02 3.06 0 0 Z " fill="#F8FEFE" transform="translate(169,70)"/>
<path d="M0 0 C0.33 0 0.66 0 1 0 C1 9.9 1 19.8 1 30 C-7.58 30 -16.16 30 -25 30 C-21.13 24.84 -17.28 19.86 -13.06 15 C-12.54 14.4 -12.02 13.8 -11.49 13.18 C-10.46 11.99 -9.44 10.81 -8.41 9.62 C-7.17 8.19 -5.94 6.76 -4.7 5.32 C-4.08 4.6 -3.46 3.87 -2.81 3.12 C-2.02 2.2 -2.02 2.2 -1.21 1.26 C-0.81 0.84 -0.41 0.43 0 0 Z " fill="#49CAF3" transform="translate(168,82)"/>
<path d="M0 0 C1.98 0 3.96 0 6 0 C6 21.78 6 43.56 6 66 C3.03 66.5 3.03 66.5 0 67 C-0.77 44.61 -1.24 22.39 0 0 Z " fill="#FDFDFD" transform="translate(115,71)"/>
<path d="M0 0 C0.66 0 1.32 0 2 0 C2 2.64 2 5.28 2 8 C13.22 8 24.44 8 36 8 C36 14.27 36 20.54 36 27 C38.97 27 41.94 27 45 27 C45 20.73 45 14.46 45 8 C48.63 8 52.26 8 56 8 C56 5.36 56 2.72 56 0 C56.33 0 56.66 0 57 0 C57.03 1.48 57.05 2.96 57.06 4.44 C57.07 5.26 57.09 6.08 57.1 6.93 C57 9 57 9 56 10 C52.5 10.5 52.5 10.5 49 11 C47.49 12.51 47.79 13.92 47.68 16.04 C47.62 17.25 47.62 17.25 47.56 18.49 C47.52 19.34 47.48 20.19 47.44 21.06 C47.37 22.34 47.37 22.34 47.31 23.65 C47.2 25.77 47.1 27.88 47 30 C45.4 30.05 43.79 30.09 42.19 30.12 C41.29 30.15 40.4 30.17 39.48 30.2 C37 30 37 30 34 28 C33.78 25.21 33.72 22.65 33.81 19.88 C33.83 18.74 33.83 18.74 33.85 17.59 C33.89 15.73 33.94 13.86 34 12 C32.61 12.02 32.61 12.02 31.19 12.03 C27.75 12.07 24.31 12.09 20.87 12.11 C19.38 12.12 17.89 12.13 16.4 12.15 C14.26 12.18 12.12 12.19 9.98 12.2 C8.69 12.21 7.4 12.22 6.07 12.23 C3 12 3 12 1 10 C0.34 10 -0.32 10 -1 10 C-0.67 6.7 -0.34 3.4 0 0 Z " fill="#4DBDDE" transform="translate(133,112)"/>
<path d="M0 0 C3.3 0 6.6 0 10 0 C10 23.1 10 46.2 10 70 C6.7 70 3.4 70 0 70 C0 58.78 0 47.56 0 36 C-11.22 36 -22.44 36 -34 36 C-34 35.67 -34 35.34 -34 35 C-22.45 35 -10.9 35 1 35 C1 46.22 1 57.44 1 69 C3.64 69 6.28 69 9 69 C8.67 46.89 8.34 24.78 8 2 C6.02 1.67 4.04 1.34 2 1 C2 10.24 2 19.48 2 29 C-9.88 28.67 -21.76 28.34 -34 28 C-34 27.67 -34 27.34 -34 27 C-22.78 27 -11.56 27 0 27 C0 18.09 0 9.18 0 0 Z " fill="#B2E9F5" transform="translate(113,70)"/>
<path d="M0 0 C11.22 0 22.44 0 34 0 C34 0.66 34 1.32 34 2 C24.1 2 14.2 2 4 2 C3.94 4.37 3.88 6.74 3.82 9.18 C3.75 11.47 3.69 13.76 3.63 16.04 C3.58 17.64 3.54 19.23 3.5 20.83 C3.45 23.11 3.38 25.4 3.32 27.68 C3.29 28.76 3.29 28.76 3.27 29.86 C3.11 34.89 3.11 34.89 2 36 C0.15 36.07 -1.71 36.08 -3.56 36.06 C-4.57 36.05 -5.59 36.04 -6.63 36.04 C-7.41 36.02 -8.19 36.01 -9 36 C-9 35.34 -9 34.68 -9 34 C-6.03 34 -3.06 34 0 34 C0 22.78 0 11.56 0 0 Z " fill="#3DABD0" transform="translate(79,106)"/>
<path d="M0 0 C0.33 0 0.66 0 1 0 C1 1.65 1 3.3 1 5 C0.4 5.23 -0.2 5.45 -0.81 5.69 C-3.56 7.33 -4.42 9.27 -6 12 C-6.66 12 -7.32 12 -8 12 C-8.09 12.84 -8.09 12.84 -8.19 13.69 C-9.35 16.99 -11.4 18.72 -14 21 C-14.66 21 -15.32 21 -16 21 C-16.33 22.65 -16.66 24.3 -17 26 C-17.99 26.33 -18.98 26.66 -20 27 C-20.33 27.99 -20.66 28.98 -21 30 C-22.32 29.67 -23.64 29.34 -25 29 C-21.6 25.02 -18.2 21.05 -14.79 17.08 C-13.58 15.68 -12.38 14.27 -11.17 12.86 C-9.39 10.78 -7.6 8.7 -5.81 6.62 C-5.25 5.96 -4.68 5.3 -4.1 4.62 C-2.76 3.06 -1.38 1.53 0 0 Z " fill="#46A0BA" transform="translate(168,82)"/>
<path d="M0 0 C0.33 0 0.66 0 1 0 C1.03 1.48 1.05 2.96 1.06 4.44 C1.07 5.26 1.09 6.08 1.1 6.93 C1 9 1 9 0 10 C-2.33 10.33 -4.67 10.67 -7 11 C-8.51 12.51 -8.21 13.92 -8.32 16.04 C-8.36 16.84 -8.4 17.65 -8.44 18.49 C-8.48 19.34 -8.52 20.19 -8.56 21.06 C-8.61 21.92 -8.65 22.77 -8.69 23.65 C-8.8 25.77 -8.9 27.88 -9 30 C-12.3 30 -15.6 30 -19 30 C-19 29.34 -19 28.68 -19 28 C-16.36 28 -13.72 28 -11 28 C-11 21.4 -11 14.8 -11 8 C-7.37 8 -3.74 8 0 8 C0 5.36 0 2.72 0 0 Z " fill="#43A8C8" transform="translate(189,112)"/>
<path d="M0 0 C0.99 0 1.98 0 3 0 C3 0.66 3 1.32 3 2 C5.64 2 8.28 2 11 2 C10.67 11.57 10.34 21.14 10 31 C9.67 31 9.34 31 9 31 C9 22.09 9 13.18 9 4 C5.7 4.33 2.4 4.66 -1 5 C-0.67 3.35 -0.34 1.7 0 0 Z " fill="#79D2F1" transform="translate(69,66)"/>
<path d="M0 0 C9.24 0 18.48 0 28 0 C28 0.33 28 0.66 28 1 C18.76 1 9.52 1 0 1 C0 0.67 0 0.34 0 0 Z " fill="#67E5EC" transform="translate(113,211)"/>
<path d="M0 0 C0.33 0 0.66 0 1 0 C1.96 4 2.1 7.71 2.06 11.81 C2.05 12.97 2.04 14.14 2.04 15.33 C2.02 16.21 2.01 17.09 2 18 C1.67 18 1.34 18 1 18 C0.67 12.06 0.34 6.12 0 0 Z " fill="#53CDEA" transform="translate(236,85)"/>
<path d="M0 0 C0.33 0 0.66 0 1 0 C1 4.29 1 8.58 1 13 C0.67 13 0.34 13 0 13 C0 8.71 0 4.42 0 0 Z " fill="#4FCDE7" transform="translate(237,106)"/>
<path d="M0 0 C0.33 0 0.66 0 1 0 C1 4.29 1 8.58 1 13 C0.67 13 0.34 13 0 13 C0 8.71 0 4.42 0 0 Z " fill="#49E3F5" transform="translate(15,98)"/>
<path d="M0 0 C0.33 0 0.66 0 1 0 C1 2.64 1 5.28 1 8 C0.67 8 0.34 8 0 8 C0 5.36 0 2.72 0 0 Z " fill="#41B5E1" transform="translate(16,113)"/>
<path d="M0 0 C0.33 0 0.66 0 1 0 C1 2.64 1 5.28 1 8 C0.67 8 0.34 8 0 8 C0 5.36 0 2.72 0 0 Z " fill="#58BBE5" transform="translate(16,88)"/>
<path d="M0 0 C1.98 0 3.96 0 6 0 C6 0.33 6 0.66 6 1 C4.02 1 2.04 1 0 1 C0 0.67 0 0.34 0 0 Z " fill="#48D2F1" transform="translate(141,210)"/>
<path d="M0 0 C1.98 0 3.96 0 6 0 C6 0.33 6 0.66 6 1 C4.02 1 2.04 1 0 1 C0 0.67 0 0.34 0 0 Z " fill="#42CEF2" transform="translate(107,210)"/>
<path d="M0 0 C0.33 0 0.66 0 1 0 C1 1.98 1 3.96 1 6 C0.67 6 0.34 6 0 6 C0 4.02 0 2.04 0 0 Z " fill="#42E1F0" transform="translate(236,119)"/>
<path d="M0 0 C1.65 0 3.3 0 5 0 C5 0.33 5 0.66 5 1 C3.35 1 1.7 1 0 1 C0 0.67 0 0.34 0 0 Z " fill="#59D0E8" transform="translate(147,209)"/>
<path d="M0 0 C0.33 0 0.66 0 1 0 C1 1.65 1 3.3 1 5 C0.67 5 0.34 5 0 5 C0 3.35 0 1.7 0 0 Z " fill="#3EDBF8" transform="translate(17,122)"/>
<path d="M0 0 C0.33 0 0.66 0 1 0 C1 1.65 1 3.3 1 5 C0.67 5 0.34 5 0 5 C0 3.35 0 1.7 0 0 Z " fill="#3CDEF2" transform="translate(17,83)"/>
<path d="M0 0 C0.33 0 0.66 0 1 0 C1 1.65 1 3.3 1 5 C0.67 5 0.34 5 0 5 C0 3.35 0 1.7 0 0 Z " fill="#4696D7" transform="translate(235,80)"/>
<path d="M0 0 C4 1 4 1 4 1 Z " fill="#79E4EC" transform="translate(102,209)"/>
<path d="M0 0 C4 1 4 1 4 1 Z " fill="#48CEF0" transform="translate(152,208)"/>
<path d="M0 0 C4 1 4 1 4 1 Z " fill="#56D1EB" transform="translate(156,207)"/>
<path d="M0 0 C1 4 1 4 1 4 Z " fill="#56F6FD" transform="translate(234,129)"/>
<path d="M0 0 C1 4 1 4 1 4 Z " fill="#48D1E5" transform="translate(18,127)"/>
<path d="M0 0 C1 4 1 4 1 4 Z " fill="#5FE4EE" transform="translate(235,125)"/>
<path d="M0 0 C1 4 1 4 1 4 Z " fill="#65E4EE" transform="translate(18,79)"/>
<path d="M0 0 C1 4 1 4 1 4 Z " fill="#45E8F8" transform="translate(19,75)"/>
<path d="M0 0 C1 4 1 4 1 4 Z " fill="#41A4BC" transform="translate(233,73)"/>
<path d="M0 0 C0.99 0.49 0.99 0.49 2 1 C1.67 1.66 1.34 2.32 1 3 C0.67 2.01 0.34 1.02 0 0 Z " fill="#37E7F4" transform="translate(215,40)"/>
<path d="M0 0 C4 1 4 1 4 1 Z " fill="#42B5E7" transform="translate(100,0)"/>
<path d="M0 0 C3 1 3 1 3 1 Z " fill="#65CDF4" transform="translate(98,208)"/>
<path d="M0 0 C3 1 3 1 3 1 Z " fill="#43A6E2" transform="translate(94,207)"/>
<path d="M0 0 C3 1 3 1 3 1 Z " fill="#42FDFF" transform="translate(160,206)"/>
<path d="M0 0 C3 1 3 1 3 1 Z " fill="#40D9F1" transform="translate(91,206)"/>
<path d="M0 0 C3 1 3 1 3 1 Z " fill="#54EFF5" transform="translate(163,205)"/>
<path d="M0 0 C3 1 3 1 3 1 Z " fill="#50E4ED" transform="translate(88,205)"/>
<path d="" fill="#2975B7" transform="translate(0,0)"/>
<path d="" fill="#6CD3E8" transform="translate(0,0)"/>
<path d="" fill="#50ECF3" transform="translate(0,0)"/>
<path d="" fill="#22CFDF" transform="translate(0,0)"/>
<path d="" fill="#4CFBFF" transform="translate(0,0)"/>
<path d="" fill="#64F1F2" transform="translate(0,0)"/>
<path d="" fill="#48BAE4" transform="translate(0,0)"/>
<path d="" fill="#4CD5FD" transform="translate(0,0)"/>
<path d="" fill="#33A8ED" transform="translate(0,0)"/>
<path d="" fill="#53DBEA" transform="translate(0,0)"/>
<path d="" fill="#4CB2E5" transform="translate(0,0)"/>
<path d="" fill="#2D8EAC" transform="translate(0,0)"/>
<path d="" fill="#3E9BEB" transform="translate(0,0)"/>
<path d="M0 0 C3 1 3 1 3 1 Z " fill="#47B3E0" transform="translate(87,4)"/>
<path d="M0 0 C3 1 3 1 3 1 Z " fill="#53DAF1" transform="translate(90,3)"/>
<path d="M0 0 C3 1 3 1 3 1 Z " fill="#71E1EE" transform="translate(93,2)"/>
<path d="M0 0 C3 1 3 1 3 1 Z " fill="#4BCAF3" transform="translate(154,1)"/>
<path d="M0 0 C2 1 2 1 2 1 Z " fill="#48BFF5" transform="translate(166,204)"/>
<path d="M0 0 C2 1 2 1 2 1 Z " fill="#71F5FC" transform="translate(175,200)"/>
<path d="M0 0 C2 1 2 1 2 1 Z " fill="#61D3E9" transform="translate(177,199)"/>
<path d="M0 0 C2 1 2 1 2 1 Z " fill="#6CF0FF" transform="translate(179,198)"/>
<path d="" fill="#57EAF0" transform="translate(0,0)"/>
<path d="" fill="#3C83B3" transform="translate(0,0)"/>
<path d="" fill="#3F86DC" transform="translate(0,0)"/>
<path d="" fill="#5BBFF8" transform="translate(0,0)"/>
<path d="" fill="#3294B4" transform="translate(0,0)"/>
<path d="" fill="#3C93BF" transform="translate(0,0)"/>
<path d="" fill="#5DC6EC" transform="translate(0,0)"/>
<path d="" fill="#46F6FB" transform="translate(0,0)"/>
<path d="" fill="#4DBBDC" transform="translate(0,0)"/>
<path d="" fill="#2FFCFF" transform="translate(0,0)"/>
<path d="" fill="#53F1F4" transform="translate(0,0)"/>
<path d="" fill="#3CE2FB" transform="translate(0,0)"/>
<path d="" fill="#49C6F0" transform="translate(0,0)"/>
<path d="" fill="#74F2FF" transform="translate(0,0)"/>
<path d="" fill="#2BBCEE" transform="translate(0,0)"/>
<path d="" fill="#45EFF9" transform="translate(0,0)"/>
<path d="" fill="#050FA1" transform="translate(0,0)"/>
<path d="" fill="#72D8EE" transform="translate(0,0)"/>
<path d="" fill="#48A1BD" transform="translate(0,0)"/>
<path d="" fill="#6BD8F4" transform="translate(0,0)"/>
<path d="" fill="#5DE1F7" transform="translate(0,0)"/>
<path d="" fill="#57CBEA" transform="translate(0,0)"/>
<path d="" fill="#28F5FE" transform="translate(0,0)"/>
<path d="" fill="#51E1F0" transform="translate(0,0)"/>
<path d="" fill="#52E0FA" transform="translate(0,0)"/>
<path d="" fill="#57EBF0" transform="translate(0,0)"/>
<path d="" fill="#18A2E8" transform="translate(0,0)"/>
<path d="" fill="#47EEF3" transform="translate(0,0)"/>
<path d="" fill="#5CEAF7" transform="translate(0,0)"/>
<path d="" fill="#3D8BB9" transform="translate(0,0)"/>
<path d="" fill="#2CF9F8" transform="translate(0,0)"/>
<path d="" fill="#299FD1" transform="translate(0,0)"/>
<path d="" fill="#4BC4D9" transform="translate(0,0)"/>
<path d="" fill="#348AE1" transform="translate(0,0)"/>
<path d="" fill="#3290D8" transform="translate(0,0)"/>
<path d="" fill="#5EE9EE" transform="translate(0,0)"/>
<path d="" fill="#58DEF4" transform="translate(0,0)"/>
<path d="M0 0 C2 1 2 1 2 1 Z " fill="#61D7F5" transform="translate(72,11)"/>
<path d="M0 0 C2 1 2 1 2 1 Z " fill="#5FE7F1" transform="translate(78,8)"/>
<path d="M0 0 C2 1 2 1 2 1 Z " fill="#56C8EA" transform="translate(80,7)"/>
<path d="M0 0 C2 1 2 1 2 1 Z " fill="#54AEDE" transform="translate(82,6)"/>
<path d="M0 0 C2 1 2 1 2 1 Z " fill="#24BDF7" transform="translate(167,5)"/>
<path d="" fill="#73EBFF" transform="translate(0,0)"/>
<path d="" fill="#48ACD3" transform="translate(0,0)"/>
<path d="" fill="#47B5F7" transform="translate(0,0)"/>
<path d="" fill="#6BE8FF" transform="translate(0,0)"/>
<path d="" fill="#64F7F3" transform="translate(0,0)"/>
<path d="" fill="#4AF1FF" transform="translate(0,0)"/>
<path d="" fill="#3EC8DB" transform="translate(0,0)"/>
<path d="" fill="#59FAFF" transform="translate(0,0)"/>
<path d="" fill="#71FEFF" transform="translate(0,0)"/>
<path d="" fill="#47F1FF" transform="translate(0,0)"/>
<path d="" fill="#3FD1ED" transform="translate(0,0)"/>
<path d="" fill="#89F2FC" transform="translate(0,0)"/>
<path d="" fill="#41C6F9" transform="translate(0,0)"/>
<path d="" fill="#8DF4FF" transform="translate(0,0)"/>
<path d="" fill="#4EC9F3" transform="translate(0,0)"/>
<path d="" fill="#728FCB" transform="translate(0,0)"/>
<path d="" fill="#43C1F1" transform="translate(0,0)"/>
<path d="" fill="#5EDCFF" transform="translate(0,0)"/>
<path d="" fill="#2DB3EE" transform="translate(0,0)"/>
<path d="" fill="#4BBDEF" transform="translate(0,0)"/>
<path d="" fill="#5ACBFF" transform="translate(0,0)"/>
<path d="" fill="#38C2F3" transform="translate(0,0)"/>
<path d="" fill="#3ECAEB" transform="translate(0,0)"/>
<path d="" fill="#63F2FF" transform="translate(0,0)"/>
<path d="" fill="#69F4F7" transform="translate(0,0)"/>
<path d="" fill="#5EF3FC" transform="translate(0,0)"/>
<path d="" fill="#73E7FF" transform="translate(0,0)"/>
<path d="" fill="#A0EAFF" transform="translate(0,0)"/>
<path d="" fill="#41CDFE" transform="translate(0,0)"/>
<path d="" fill="#8CE5FF" transform="translate(0,0)"/>
<path d="" fill="#4EB1F2" transform="translate(0,0)"/>
<path d="" fill="#85F2FF" transform="translate(0,0)"/>
<path d="" fill="#9BE5FF" transform="translate(0,0)"/>
<path d="" fill="#8BFCFF" transform="translate(0,0)"/>
<path d="" fill="#5BF3FF" transform="translate(0,0)"/>
<path d="" fill="#5CB9FF" transform="translate(0,0)"/>
<path d="" fill="#52A2E6" transform="translate(0,0)"/>
<path d="" fill="#50B4FB" transform="translate(0,0)"/>
<path d="" fill="#3CBFE5" transform="translate(0,0)"/>
<path d="" fill="#70F0FF" transform="translate(0,0)"/>
<path d="" fill="#84F7FF" transform="translate(0,0)"/>
<path d="" fill="#57F4FF" transform="translate(0,0)"/>
<path d="" fill="#7FE7FF" transform="translate(0,0)"/>
<path d="" fill="#53DDE3" transform="translate(0,0)"/>
<path d="" fill="#65F1FB" transform="translate(0,0)"/>
<path d="" fill="#7CF7FF" transform="translate(0,0)"/>
<path d="" fill="#47B5F7" transform="translate(0,0)"/>
<path d="" fill="#70E6FF" transform="translate(0,0)"/>
<path d="" fill="#71FDFF" transform="translate(0,0)"/>
<path d="" fill="#41C1F3" transform="translate(0,0)"/>
<path d="" fill="#44C3E5" transform="translate(0,0)"/>
<path d="" fill="#48C8FE" transform="translate(0,0)"/>
<path d="" fill="#3DA8B6" transform="translate(0,0)"/>
<path d="" fill="#83EEFC" transform="translate(0,0)"/>
<path d="" fill="#71F1F8" transform="translate(0,0)"/>
<path d="" fill="#08848C" transform="translate(0,0)"/>
<path d="" fill="#6CF4FA" transform="translate(0,0)"/>
<path d="" fill="#5CA0CB" transform="translate(0,0)"/>
<path d="" fill="#77F7FF" transform="translate(0,0)"/>
<path d="" fill="#9EE3FF" transform="translate(0,0)"/>
<path d="" fill="#3CBED8" transform="translate(0,0)"/>
<path d="" fill="#62EBFF" transform="translate(0,0)"/>
<path d="" fill="#3FCAD8" transform="translate(0,0)"/>
<path d="" fill="#81EDFF" transform="translate(0,0)"/>
<path d="" fill="#40A3CF" transform="translate(0,0)"/>
<path d="" fill="#5EDFFF" transform="translate(0,0)"/>
<path d="" fill="#5BF6FF" transform="translate(0,0)"/>
<path d="" fill="#45D1EB" transform="translate(0,0)"/>
<path d="" fill="#53C0ED" transform="translate(0,0)"/>
</svg>
