<?xml version="1.0" encoding="UTF-8"?>
<!-- Generator: https://ezgif.com/webp-to-svg -->
<svg version="1.1" xmlns="http://www.w3.org/2000/svg" width="256" height="222">
<path d="M0 0 C2.39 0.02 4.79 0.02 7.18 0.01 C14.75 0.03 21.77 0.38 29.13 2.34 C30.96 2.21 30.96 2.21 32.82 2.09 C39.21 1.83 45.47 5.66 51.13 8.34 C51.13 9 51.13 9.66 51.13 10.34 C52.71 10.55 52.71 10.55 54.32 10.77 C58.78 11.86 62.28 14.18 66.01 16.77 C66.86 17.37 66.86 17.37 67.74 17.97 C70.48 19.94 72.24 21.5 74.13 24.34 C74.77 24.62 75.41 24.91 76.07 25.21 C78.82 26.71 79.57 28.66 81.13 31.34 C83.07 33.04 83.07 33.04 85.13 34.34 C88.13 36.34 88.13 36.34 88.63 38.4 C88.8 39.04 88.96 39.68 89.13 40.34 C90.12 40.67 91.11 41 92.13 41.34 C92.46 42.33 92.79 43.32 93.13 44.34 C93.79 44.67 94.45 45 95.13 45.34 C95.33 46.39 95.33 46.39 95.52 47.47 C96.3 51.13 98.04 54.01 99.88 57.21 C111.86 78.89 115.43 106.44 109.05 130.5 C105.74 141.61 101.12 152.42 95.13 162.34 C94.8 163 94.47 163.66 94.13 164.34 C93.02 165.44 91.91 166.55 90.79 167.65 C84.78 173.76 78.89 180.19 74.13 187.34 C73.14 187.67 72.15 188 71.13 188.34 C70.8 189 70.47 189.66 70.13 190.34 C69.14 190.67 68.15 191 67.13 191.34 C66.17 192.33 66.17 192.33 65.2 193.34 C62.99 195.47 62.02 195.69 59.13 196.34 C58.56 196.98 58.56 196.98 57.98 197.64 C55.26 200.14 52.02 201.46 48.7 202.96 C48.03 203.27 47.36 203.59 46.67 203.91 C43.51 205.36 40.5 206.51 37.13 207.34 C35.72 207.82 35.72 207.82 34.28 208.32 C22.41 212.11 11.04 211.59 -1.3 211.09 C-3.4 211.02 -5.5 210.95 -7.6 210.89 C-12.69 210.73 -17.78 210.54 -22.87 210.34 C-22.87 209.68 -22.87 209.02 -22.87 208.34 C-24.58 208.02 -26.28 207.71 -27.99 207.4 C-28.99 207.21 -30 207.03 -31.03 206.84 C-33.15 206.46 -35.29 206.14 -37.43 205.84 C-39.87 205.34 -39.87 205.34 -41.87 203.34 C-44.08 202.07 -46.15 201.25 -48.6 200.51 C-52.2 199.22 -55.17 197.53 -58.43 195.52 C-60.07 194.52 -60.07 194.52 -61.75 193.5 C-65.46 190.93 -68.38 187.95 -71.43 184.65 C-72.83 183.24 -72.83 183.24 -74.74 182.46 C-77.71 180.89 -79.65 178.85 -81.87 176.34 C-82.06 175.43 -82.06 175.43 -82.26 174.5 C-83.12 171.45 -84.88 169.6 -86.87 167.15 C-103.96 145.11 -110.47 118.02 -107.18 90.4 C-104.31 72.83 -97.1 57.17 -87.21 42.47 C-85.72 40.29 -85.72 40.29 -84.87 37.34 C-83.54 36.65 -82.21 35.99 -80.87 35.34 C-79.28 33.93 -77.74 32.47 -76.24 30.96 C-75.47 30.19 -74.69 29.42 -73.89 28.63 C-71.82 26.48 -71.82 26.48 -70.78 24.11 C-69.87 22.34 -69.87 22.34 -66.87 21.34 C-66.27 20.74 -65.67 20.14 -65.05 19.52 C-62.11 16.58 -58.92 13.83 -54.8 12.84 C-52.67 12.43 -52.67 12.43 -50.68 10.52 C-44.82 5.97 -39.05 4.05 -31.7 3.64 C-28.72 3.32 -26.06 2.62 -23.18 1.83 C-15.42 -0.01 -7.93 -0.08 0 0 Z M27.13 207.34 C31.13 208.34 31.13 208.34 31.13 208.34 Z M22.13 208.34 C26.13 209.34 26.13 209.34 26.13 209.34 Z M16.13 209.34 C16.13 209.67 16.13 210 16.13 210.34 C18.11 210.34 20.09 210.34 22.13 210.34 C22.13 210.01 22.13 209.68 22.13 209.34 C20.15 209.34 18.17 209.34 16.13 209.34 Z " fill="#002344" transform="translate(124.8671875,-0.336181640625)"/>
<path d="M0 0 C3.3 0 6.6 0 10 0 C10 8.91 10 17.82 10 27 C21.22 27 32.44 27 44 27 C44 18.09 44 9.18 44 0 C47.3 0 50.6 0 54 0 C54 23.1 54 46.2 54 70 C50.7 70 47.4 70 44 70 C44 58.78 44 47.56 44 36 C32.78 36 21.56 36 10 36 C10 47.22 10 58.44 10 70 C6.7 70 3.4 70 0 70 C0 46.9 0 23.8 0 0 Z " fill="#FAFCFC" transform="translate(69,70)"/>
<path d="M0 0 C13.86 0 27.72 0 42 0 C42 2.64 42 5.28 42 8 C31.11 8 20.22 8 9 8 C9 13.94 9 19.88 9 26 C11.25 25.92 13.5 25.84 15.81 25.75 C23.28 25.66 30.84 26.37 36.71 31.5 C38.06 33.06 38.06 33.06 40 36 C40.66 36.99 41.32 37.98 42 39 C42.81 46.99 43.29 55.47 38 62 C33.17 67.21 28.01 70.64 20.87 71.28 C12.89 71.49 5.57 70.56 -2 68 C-3 67 -3 67 -3.1 64.71 C-3.09 63.8 -3.07 62.88 -3.06 61.94 C-3.05 61.02 -3.04 60.1 -3.04 59.15 C-3.02 58.44 -3.01 57.73 -3 57 C2.56 58.81 2.56 58.81 4.83 59.8 C10.92 62.41 16.87 63.24 23.31 61.31 C26.8 59.78 28.7 58.4 31 55.31 C32.45 50.49 33.04 45.6 31.13 40.83 C29.27 37.81 26.48 36.46 23.15 35.42 C20.72 34.94 18.49 34.89 16.02 34.9 C15.17 34.9 14.33 34.91 13.46 34.91 C12.4 34.92 11.34 34.93 10.25 34.94 C5.18 34.97 5.18 34.97 0 35 C0 23.45 0 11.9 0 0 Z " fill="#F6F9FB" transform="translate(144,70)"/>
<path d="M0 0 C0.33 0 0.66 0 1 0 C1 22.77 1 45.54 1 69 C3.64 69 6.28 69 9 69 C9 57.78 9 46.56 9 35 C20.88 35 32.76 35 45 35 C45 46.22 45 57.44 45 69 C47.64 69 50.28 69 53 69 C53 52.17 53 35.34 53 18 C52.34 18 51.68 18 51 18 C50.5 20.47 50.5 20.47 50 23 C49.67 23 49.34 23 49 23 C49 16.4 49 9.8 49 3 C48.34 3 47.68 3 47 3 C47 11.91 47 20.82 47 30 C35.12 29.67 23.24 29.34 11 29 C10.67 28.34 10.34 27.68 10 27 C21.22 27 32.44 27 44 27 C44 18.09 44 9.18 44 0 C47.3 0 50.6 0 54 0 C54 23.1 54 46.2 54 70 C50.7 70 47.4 70 44 70 C44 58.78 44 47.56 44 36 C32.78 36 21.56 36 10 36 C10 47.22 10 58.44 10 70 C6.7 70 3.4 70 0 70 C0 46.9 0 23.8 0 0 Z " fill="#BCC8D2" transform="translate(69,70)"/>
<path d="M0 0 C1.46 0.03 1.46 0.03 2.96 0.05 C3.69 0.08 4.43 0.1 5.19 0.12 C5.52 1.12 5.85 2.1 6.19 3.12 C3.28 4.1 1.29 4.29 -1.75 4.31 C-2.6 4.33 -3.46 4.34 -4.34 4.36 C-6.95 4.11 -8.57 3.44 -10.81 2.12 C-7.04 0.37 -4.15 -0.1 0 0 Z " fill="#203952" transform="translate(161.8125,128.875)"/>
<path d="M0 0 C6.27 0.66 12.54 1.32 19 2 C17 4 17 4 14.06 4.27 C7.05 4.24 0.77 3.87 -6 2 C-2.25 0.88 -2.25 0.88 0 2 C0 1.34 0 0.68 0 0 Z " fill="#D2DEE5" transform="translate(151,137)"/>
<path d="M0 0 C2.34 2.26 4.19 4.28 6 7 C5.62 9.19 5.62 9.19 5 11 C5 10.34 5 9.68 5 9 C3.02 8.34 1.04 7.68 -1 7 C-0.67 4.69 -0.34 2.38 0 0 Z " fill="#E6ECF0" transform="translate(180,102)"/>
<path d="M0 0 C1.77 -0.08 3.54 -0.14 5.31 -0.19 C6.3 -0.22 7.28 -0.26 8.3 -0.29 C11 0 11 0 12.86 1.51 C13.23 2 13.61 2.49 14 3 C12.04 3.22 10.08 3.43 8.12 3.62 C6.49 3.8 6.49 3.8 4.82 3.98 C3.42 3.99 3.42 3.99 2 4 C1.34 3.34 0.68 2.68 0 2 C0 1.34 0 0.68 0 0 Z " fill="#16364F" transform="translate(109,67)"/>
<path d="M0 0 C8.91 0 17.82 0 27 0 C27 0.33 27 0.66 27 1 C18.09 1 9.18 1 0 1 C0 0.67 0 0.34 0 0 Z " fill="#061E35" transform="translate(113,211)"/>
<path d="M0 0 C0 3 0 3 -1 5 C-3.31 5 -5.62 5 -8 5 C-5.37 3.25 -2.71 1.61 0 0 Z " fill="#DEEAF1" transform="translate(173,128)"/>
<path d="M0 0 C0.33 0 0.66 0 1 0 C1 4.29 1 8.58 1 13 C0.67 13 0.34 13 0 13 C0 8.71 0 4.42 0 0 Z " fill="#050C2A" transform="translate(237,106)"/>
<path d="M0 0 C0.33 0 0.66 0 1 0 C1 4.29 1 8.58 1 13 C0.67 13 0.34 13 0 13 C0 8.71 0 4.42 0 0 Z " fill="#00033F" transform="translate(15,98)"/>
<path d="M0 0 C0.33 0 0.66 0 1 0 C1 4.29 1 8.58 1 13 C0.67 13 0.34 13 0 13 C0 8.71 0 4.42 0 0 Z " fill="#060F2A" transform="translate(237,90)"/>
<path d="M0 0 C0.33 0 0.66 0 1 0 C1 2.64 1 5.28 1 8 C0.67 8 0.34 8 0 8 C0 5.36 0 2.72 0 0 Z " fill="#06102E" transform="translate(16,113)"/>
<path d="M0 0 C0.33 0 0.66 0 1 0 C1 2.64 1 5.28 1 8 C0.67 8 0.34 8 0 8 C0 5.36 0 2.72 0 0 Z " fill="#05082F" transform="translate(16,88)"/>
<path d="M0 0 C1.98 0 3.96 0 6 0 C6 0.33 6 0.66 6 1 C4.02 1 2.04 1 0 1 C0 0.67 0 0.34 0 0 Z " fill="#051440" transform="translate(107,210)"/>
<path d="M0 0 C0.33 0 0.66 0 1 0 C1 1.98 1 3.96 1 6 C0.67 6 0.34 6 0 6 C0 4.02 0 2.04 0 0 Z " fill="#040D2F" transform="translate(17,121)"/>
<path d="M0 0 C0.33 0 0.66 0 1 0 C1 1.98 1 3.96 1 6 C0.67 6 0.34 6 0 6 C0 4.02 0 2.04 0 0 Z " fill="#010E3D" transform="translate(236,119)"/>
<path d="M0 0 C0.33 0 0.66 0 1 0 C1 1.65 1 3.3 1 5 C0.67 5 0.34 5 0 5 C0 3.35 0 1.7 0 0 Z " fill="#041740" transform="translate(236,85)"/>
<path d="M0 0 C0.33 0 0.66 0 1 0 C1 1.65 1 3.3 1 5 C0.67 5 0.34 5 0 5 C0 3.35 0 1.7 0 0 Z " fill="#01133D" transform="translate(17,83)"/>
<path d="M0 0 C0.33 0 0.66 0 1 0 C1 1.65 1 3.3 1 5 C0.67 5 0.34 5 0 5 C0 3.35 0 1.7 0 0 Z " fill="#050D36" transform="translate(235,80)"/>
<path d="M0 0 C1.65 0 3.3 0 5 0 C5 0.33 5 0.66 5 1 C3.35 1 1.7 1 0 1 C0 0.67 0 0.34 0 0 Z " fill="#050D3C" transform="translate(99,0)"/>
<path d="M0 0 C4 1 4 1 4 1 Z " fill="#010043" transform="translate(98,208)"/>
<path d="M0 0 C4 1 4 1 4 1 Z " fill="#091636" transform="translate(94,207)"/>
<path d="M0 0 C0 3 0 3 0 3 Z " fill="#000733" transform="translate(214,169)"/>
<path d="M0 0 C1 4 1 4 1 4 Z " fill="#000338" transform="translate(234,129)"/>
<path d="M0 0 C1 4 1 4 1 4 Z " fill="#051228" transform="translate(18,127)"/>
<path d="M0 0 C1 4 1 4 1 4 Z " fill="#0A0D4B" transform="translate(235,125)"/>
<path d="M0 0 C1 4 1 4 1 4 Z " fill="#05122D" transform="translate(18,79)"/>
<path d="M0 0 C1 4 1 4 1 4 Z " fill="#061828" transform="translate(19,75)"/>
<path d="M0 0 C1 4 1 4 1 4 Z " fill="#060445" transform="translate(233,73)"/>
<path d="M0 0 C4 1 4 1 4 1 Z " fill="#080D22" transform="translate(92,2)"/>
<path d="M0 0 C4 1 4 1 4 1 Z " fill="#031536" transform="translate(154,1)"/>
<path d="M0 0 C4 1 4 1 4 1 Z " fill="#09174E" transform="translate(150,0)"/>
<path d="M0 0 C3 1 3 1 3 1 Z " fill="#0A1433" transform="translate(91,206)"/>
<path d="" fill="#040D35" transform="translate(0,0)"/>
<path d="" fill="#040D2C" transform="translate(0,0)"/>
<path d="" fill="#000736" transform="translate(0,0)"/>
<path d="" fill="#01013C" transform="translate(0,0)"/>
<path d="" fill="#020233" transform="translate(0,0)"/>
<path d="" fill="#02042D" transform="translate(0,0)"/>
<path d="" fill="#081B3A" transform="translate(0,0)"/>
<path d="" fill="#071256" transform="translate(0,0)"/>
<path d="" fill="#051535" transform="translate(0,0)"/>
<path d="" fill="#091445" transform="translate(0,0)"/>
<path d="" fill="#000138" transform="translate(0,0)"/>
<path d="" fill="#000134" transform="translate(0,0)"/>
<path d="M0 0 C3 1 3 1 3 1 Z " fill="#0A2542" transform="translate(89,3)"/>
<path d="M0 0 C3 1 3 1 3 1 Z " fill="#081330" transform="translate(96,1)"/>
<path d="M0 0 C2 1 2 1 2 1 Z " fill="#0F1B58" transform="translate(81,202)"/>
<path d="M0 0 C2 1 2 1 2 1 Z " fill="#010544" transform="translate(79,201)"/>
<path d="M0 0 C2 1 2 1 2 1 Z " fill="#000730" transform="translate(184,195)"/>
<path d="" fill="#010508" transform="translate(0,0)"/>
<path d="" fill="#0D1552" transform="translate(0,0)"/>
<path d="" fill="#00020F" transform="translate(0,0)"/>
<path d="" fill="#040948" transform="translate(0,0)"/>
<path d="" fill="#03053E" transform="translate(0,0)"/>
<path d="" fill="#000138" transform="translate(0,0)"/>
<path d="" fill="#000525" transform="translate(0,0)"/>
<path d="" fill="#01013E" transform="translate(0,0)"/>
<path d="" fill="#00043B" transform="translate(0,0)"/>
<path d="" fill="#02042A" transform="translate(0,0)"/>
<path d="" fill="#03034D" transform="translate(0,0)"/>
<path d="" fill="#00012C" transform="translate(0,0)"/>
<path d="" fill="#00062B" transform="translate(0,0)"/>
<path d="" fill="#000869" transform="translate(0,0)"/>
<path d="" fill="#000A48" transform="translate(0,0)"/>
<path d="" fill="#000C44" transform="translate(0,0)"/>
<path d="" fill="#03062D" transform="translate(0,0)"/>
<path d="" fill="#000228" transform="translate(0,0)"/>
<path d="" fill="#060B46" transform="translate(0,0)"/>
<path d="" fill="#000100" transform="translate(0,0)"/>
<path d="" fill="#060452" transform="translate(0,0)"/>
<path d="" fill="#00082A" transform="translate(0,0)"/>
<path d="" fill="#000334" transform="translate(0,0)"/>
<path d="" fill="#000128" transform="translate(0,0)"/>
<path d="" fill="#030135" transform="translate(0,0)"/>
<path d="" fill="#000721" transform="translate(0,0)"/>
<path d="" fill="#020336" transform="translate(0,0)"/>
<path d="" fill="#00094D" transform="translate(0,0)"/>
<path d="" fill="#000237" transform="translate(0,0)"/>
<path d="" fill="#000770" transform="translate(0,0)"/>
<path d="" fill="#000239" transform="translate(0,0)"/>
<path d="" fill="#00072F" transform="translate(0,0)"/>
<path d="" fill="#000435" transform="translate(0,0)"/>
<path d="" fill="#000019" transform="translate(0,0)"/>
<path d="" fill="#020344" transform="translate(0,0)"/>
<path d="" fill="#000532" transform="translate(0,0)"/>
<path d="" fill="#020B39" transform="translate(0,0)"/>
<path d="" fill="#000432" transform="translate(0,0)"/>
<path d="" fill="#000335" transform="translate(0,0)"/>
<path d="" fill="#000337" transform="translate(0,0)"/>
<path d="M0 0 C2 1 2 1 2 1 Z " fill="#000038" transform="translate(70,12)"/>
<path d="M0 0 C2 1 2 1 2 1 Z " fill="#010645" transform="translate(178,10)"/>
<path d="M0 0 C2 1 2 1 2 1 Z " fill="#000A3E" transform="translate(176,9)"/>
<path d="" fill="#000144" transform="translate(0,0)"/>
<path d="" fill="#000F2E" transform="translate(0,0)"/>
<path d="" fill="#000C2A" transform="translate(0,0)"/>
<path d="" fill="#063D56" transform="translate(0,0)"/>
<path d="" fill="#000B46" transform="translate(0,0)"/>
<path d="" fill="#002C34" transform="translate(0,0)"/>
<path d="" fill="#000A33" transform="translate(0,0)"/>
<path d="" fill="#000E2C" transform="translate(0,0)"/>
<path d="" fill="#03123F" transform="translate(0,0)"/>
<path d="" fill="#000A2E" transform="translate(0,0)"/>
<path d="" fill="#000D37" transform="translate(0,0)"/>
<path d="" fill="#152C54" transform="translate(0,0)"/>
<path d="" fill="#000537" transform="translate(0,0)"/>
<path d="" fill="#000D2F" transform="translate(0,0)"/>
<path d="" fill="#0E4A5D" transform="translate(0,0)"/>
<path d="" fill="#154262" transform="translate(0,0)"/>
<path d="" fill="#0E3D44" transform="translate(0,0)"/>
<path d="" fill="#08136A" transform="translate(0,0)"/>
<path d="" fill="#00363F" transform="translate(0,0)"/>
<path d="" fill="#00082A" transform="translate(0,0)"/>
<path d="" fill="#000036" transform="translate(0,0)"/>
<path d="" fill="#000435" transform="translate(0,0)"/>
<path d="" fill="#000D49" transform="translate(0,0)"/>
<path d="" fill="#1B3A51" transform="translate(0,0)"/>
<path d="" fill="#001431" transform="translate(0,0)"/>
<path d="" fill="#000548" transform="translate(0,0)"/>
<path d="" fill="#000A37" transform="translate(0,0)"/>
<path d="" fill="#030B65" transform="translate(0,0)"/>
<path d="" fill="#081253" transform="translate(0,0)"/>
<path d="" fill="#000146" transform="translate(0,0)"/>
<path d="" fill="#00044B" transform="translate(0,0)"/>
<path d="" fill="#000A2E" transform="translate(0,0)"/>
<path d="" fill="#080041" transform="translate(0,0)"/>
<path d="" fill="#000448" transform="translate(0,0)"/>
<path d="" fill="#000E3E" transform="translate(0,0)"/>
<path d="" fill="#0B1C3D" transform="translate(0,0)"/>
<path d="" fill="#030E68" transform="translate(0,0)"/>
<path d="" fill="#00063E" transform="translate(0,0)"/>
<path d="" fill="#000843" transform="translate(0,0)"/>
<path d="" fill="#000E33" transform="translate(0,0)"/>
<path d="" fill="#000148" transform="translate(0,0)"/>
<path d="" fill="#00073F" transform="translate(0,0)"/>
<path d="" fill="#000C44" transform="translate(0,0)"/>
<path d="" fill="#000D36" transform="translate(0,0)"/>
<path d="" fill="#00092E" transform="translate(0,0)"/>
<path d="" fill="#111745" transform="translate(0,0)"/>
<path d="" fill="#111948" transform="translate(0,0)"/>
<path d="" fill="#000452" transform="translate(0,0)"/>
<path d="" fill="#062636" transform="translate(0,0)"/>
<path d="" fill="#000A5D" transform="translate(0,0)"/>
<path d="" fill="#012B36" transform="translate(0,0)"/>
<path d="" fill="#040051" transform="translate(0,0)"/>
<path d="" fill="#073F37" transform="translate(0,0)"/>
<path d="" fill="#060051" transform="translate(0,0)"/>
<path d="" fill="#093E37" transform="translate(0,0)"/>
<path d="" fill="#000255" transform="translate(0,0)"/>
<path d="" fill="#09253C" transform="translate(0,0)"/>
<path d="" fill="#00054D" transform="translate(0,0)"/>
<path d="" fill="#031833" transform="translate(0,0)"/>
<path d="" fill="#091642" transform="translate(0,0)"/>
<path d="" fill="#031040" transform="translate(0,0)"/>
<path d="" fill="#001139" transform="translate(0,0)"/>
<path d="" fill="#013148" transform="translate(0,0)"/>
<path d="" fill="#000951" transform="translate(0,0)"/>
</svg>
