<?xml version="1.0" encoding="UTF-8"?>
<!-- Generator: https://ezgif.com/webp-to-svg -->
<svg version="1.1" xmlns="http://www.w3.org/2000/svg" width="256" height="222">
<path d="M0 0 C1.35 0 1.35 0 2.73 0 C3.69 0.01 4.65 0.01 5.63 0.02 C6.63 0.02 7.62 0.02 8.64 0.02 C11.8 0.03 14.96 0.04 18.11 0.05 C20.26 0.06 22.4 0.06 24.55 0.06 C29.8 0.08 35.05 0.09 40.3 0.11 C40.3 0.77 40.3 1.43 40.3 2.11 C41.85 2.05 41.85 2.05 43.43 1.99 C47.17 2.11 49.84 2.76 53.3 4.11 C53.3 4.77 53.3 5.43 53.3 6.11 C54.32 6.21 55.34 6.31 56.4 6.41 C65.13 7.98 73.41 13.63 80.3 19.11 C80.63 19.77 80.96 20.43 81.3 21.11 C82.29 21.44 83.28 21.77 84.3 22.11 C84.63 23.1 84.96 24.09 85.3 25.11 C85.92 25.26 86.54 25.4 87.18 25.55 C90.05 26.31 90.67 27.7 92.3 30.11 C94.24 32.21 95.88 33.5 98.3 35.11 C98.43 35.68 98.56 36.26 98.7 36.84 C99.6 40.24 101.82 42.68 103.93 45.43 C111.89 56.22 117.04 68.08 120.3 81.11 C120.48 81.82 120.65 82.52 120.84 83.25 C124.7 100.23 123.84 119.61 118.3 136.11 C118.09 136.76 117.87 137.4 117.65 138.06 C114.4 147.55 109.76 155.75 104.3 164.11 C102.6 166.83 101.32 169.06 100.3 172.11 C98.97 172.79 97.64 173.45 96.3 174.11 C94.54 175.69 92.84 177.32 91.18 178.99 C90.31 179.85 89.44 180.72 88.54 181.61 C86.27 183.92 86.27 183.92 85.18 186.37 C84.3 188.11 84.3 188.11 81.3 189.11 C80.47 189.98 80.47 189.98 79.61 190.86 C74.79 195.55 70.02 198.31 63.3 199.11 C62.64 199.77 61.98 200.43 61.3 201.11 C58.21 204.09 55.68 204.35 51.51 204.82 C47.99 205.29 44.6 206.2 41.18 207.11 C22.48 212.03 2.05 211.85 -16.7 207.11 C-18.43 206.73 -20.16 206.36 -21.89 205.99 C-23.14 205.7 -24.4 205.41 -25.7 205.11 C-26.44 205.01 -27.18 204.9 -27.94 204.79 C-31.77 203.85 -35.07 202.15 -38.57 200.36 C-39.26 200.03 -39.94 199.69 -40.64 199.35 C-52.58 193.34 -52.58 193.34 -54.7 189.11 C-55.69 188.78 -56.68 188.45 -57.7 188.11 C-58.01 187.45 -58.32 186.79 -58.64 186.11 C-58.99 185.45 -59.34 184.79 -59.7 184.11 C-60.63 183.93 -60.63 183.93 -61.57 183.74 C-64.92 182.75 -65.84 179.95 -67.7 177.11 C-69.02 176.43 -70.36 175.76 -71.7 175.11 C-72.03 173.78 -72.37 172.45 -72.7 171.11 C-73.36 170.78 -74.02 170.45 -74.7 170.11 C-75.36 169.78 -76.02 169.45 -76.7 169.11 C-76.82 168.57 -76.94 168.02 -77.07 167.46 C-77.79 164.76 -79.12 162.73 -80.63 160.4 C-95.41 137.53 -100.24 109.76 -94.7 83.11 C-90.98 68.18 -84.86 54.45 -75.26 42.35 C-73.58 40.25 -73.58 40.25 -73.23 37.94 C-72.7 36.11 -72.7 36.11 -70.86 35.07 C-70.15 34.76 -69.43 34.44 -68.7 34.11 C-66.81 32.54 -66.81 32.54 -65.07 30.74 C-64.48 30.15 -63.89 29.57 -63.28 28.97 C-61.61 27.18 -61.61 27.18 -60.68 24.95 C-59.7 23.11 -59.7 23.11 -56.7 22.11 C-55.98 21.37 -55.25 20.63 -54.51 19.86 C-50.85 16.29 -46.59 12.8 -41.51 11.6 C-40.92 11.44 -40.32 11.28 -39.7 11.11 C-39.37 10.45 -39.04 9.79 -38.7 9.11 C-36.37 8.77 -34.03 8.44 -31.7 8.11 C-31.04 7.45 -30.38 6.79 -29.7 6.11 C-27.13 5.26 -24.65 4.63 -22.01 4.05 C-21.2 3.87 -20.39 3.7 -19.56 3.52 C-18.95 3.38 -18.33 3.25 -17.7 3.11 C-17.7 2.45 -17.7 1.79 -17.7 1.11 C-15.78 1.15 -13.86 1.18 -11.94 1.21 C-9.66 1.17 -9.66 1.17 -7.35 0.61 C-4.82 0.14 -2.57 -0.01 0 0 Z " fill="#F3B584" transform="translate(113.698486328125,-0.113525390625)"/>
<path d="M0 0 C0.78 0.01 1.56 0.02 2.36 0.03 C4.26 0.05 6.16 0.09 8.06 0.12 C8.06 3.42 8.06 6.72 8.06 10.12 C7.07 9.8 6.08 9.47 5.06 9.12 C-6.22 8.25 -6.22 8.25 -15.94 13.12 C-19.59 16.62 -21.75 20.17 -22.94 25.12 C-22.94 26.44 -22.94 27.77 -22.94 29.12 C-21.91 28.63 -20.88 28.14 -19.81 27.62 C-12.65 24.96 -3.51 24.53 3.56 27.69 C8.72 30.83 12.17 34.93 14.44 40.5 C15.85 48.7 15.43 54.86 11.06 62.12 C8.56 65 8.56 65 6.06 67.12 C5.42 67.68 4.78 68.24 4.12 68.81 C-1.83 72.6 -8.08 72.76 -14.94 72.12 C-21.21 70.24 -26.67 66.68 -30.23 61.1 C-35.85 50.21 -36.05 34.68 -33.07 22.93 C-29.83 13.96 -24.41 6.72 -15.94 2.12 C-10.46 0.21 -5.71 -0.13 0 0 Z " fill="#FDF9F3" transform="translate(172.9375,68.875)"/>
<path d="M0 0 C2.64 0 5.28 0 8 0 C8 8.91 8 17.82 8 27 C19.55 27 31.1 27 43 27 C43 18.09 43 9.18 43 0 C45.97 0 48.94 0 52 0 C52 22.77 52 45.54 52 69 C49.36 69 46.72 69 44 69 C44 57.78 44 46.56 44 35 C32.12 35 20.24 35 8 35 C8 46.22 8 57.44 8 69 C5.36 69 2.72 69 0 69 C0 46.23 0 23.46 0 0 Z " fill="#FEFCF8" transform="translate(70,70)"/>
<path d="M0 0 C3.77 2.87 6.07 5.14 6.89 9.91 C6.78 21.12 6.78 21.12 2.36 25.79 C-1.75 29.51 -5.3 29.41 -10.66 29.26 C-14.55 28.65 -16.61 27.5 -19.31 24.68 C-24.25 17.69 -24.02 10.05 -23.64 1.79 C-16.45 -1.6 -7.51 -3.44 0 0 Z " fill="#EFB485" transform="translate(171.64453125,104.2109375)"/>
<path d="M0 0 C5.22 -0.18 9.07 0.03 14 2 C14.19 3.79 14.38 5.58 14.56 7.38 C14.72 8.87 14.72 8.87 14.88 10.4 C15 13 15 13 14 15 C12.68 15 11.36 15 10 15 C10 16.32 10 17.64 10 19 C8.68 19 7.36 19 6 19 C6 18.34 6 17.68 6 17 C3.36 17 0.72 17 -2 17 C-2 17.99 -2 18.98 -2 20 C-3.32 20 -4.64 20 -6 20 C-5.34 21.65 -4.68 23.3 -4 25 C-0.7 25.33 2.6 25.66 6 26 C6 26.99 6 27.98 6 29 C7.32 29 8.64 29 10 29 C12.25 30.88 12.25 30.88 14 33 C14 33.66 14 34.32 14 35 C14.66 35 15.32 35 16 35 C17.76 38.09 18 39.23 18 43 C18.66 43 19.32 43 20 43 C20.82 60.42 20.82 60.42 16 66 C9.54 71.85 4.65 75.33 -4.19 75.12 C-4.94 75.12 -5.69 75.11 -6.46 75.1 C-8.31 75.07 -10.15 75.04 -12 75 C-12 74.67 -12 74.34 -12 74 C-11.31 73.97 -10.62 73.95 -9.91 73.92 C-1.82 73.43 4.36 71.83 10.81 66.81 C15.19 61.18 17.7 55.48 17.32 48.27 C16.36 41.51 14.55 36.29 9 32 C1.93 27.64 -6.96 27.82 -14.91 29.68 C-16.97 30.37 -18.99 31.17 -21 32 C-20.69 24.95 -19.54 20.43 -14.29 15.34 C-9.17 10.78 -5.89 9.86 1.06 9.88 C2.94 9.87 2.94 9.87 4.85 9.87 C8 10 8 10 10 11 C10.33 8.03 10.66 5.06 11 2 C5.56 1.5 5.56 1.5 0 1 C0 0.67 0 0.34 0 0 Z " fill="#E8B182" transform="translate(170,67)"/>
<path d="M0 0 C1.32 0.66 2.64 1.32 4 2 C4.33 23.12 4.66 44.24 5 66 C7.31 66 9.62 66 12 66 C12.99 63.36 13.98 60.72 15 58 C16.46 60.65 17 61.89 17 65 C17.93 65.22 17.93 65.22 18.88 65.44 C21 66 21 66 23 67 C22.67 68.32 22.34 69.64 22 71 C20.51 70.5 20.51 70.5 19 70 C19 69.34 19 68.68 19 68 C18.01 68.5 18.01 68.5 17 69 C15.4 69.15 13.79 69.27 12.19 69.38 C8.14 69.72 8.14 69.72 4.56 71.56 C0.34 73.93 -4.26 73.22 -9 73 C-9 72.34 -9 71.68 -9 71 C-6.03 71 -3.06 71 0 71 C0 47.57 0 24.14 0 0 Z " fill="#EBB07E" transform="translate(123,69)"/>
<path d="M0 0 C11.22 0 22.44 0 34 0 C34.04 5.05 34.08 10.11 34.12 15.31 C34.14 16.9 34.16 18.49 34.18 20.13 C34.19 21.39 34.19 22.64 34.2 23.93 C34.21 25.85 34.21 25.85 34.23 27.81 C34 31 34 31 32 34 C32 24.1 32 14.2 32 4 C24.74 4.33 17.48 4.66 10 5 C12.31 5.33 14.62 5.66 17 6 C17 7.32 17 8.64 17 10 C15.02 10 13.04 10 11 10 C11 9.01 11 8.02 11 7 C10.4 6.86 9.8 6.71 9.19 6.56 C7.44 6.11 5.71 5.57 4 5 C4.01 5.8 4.02 6.59 4.03 7.42 C4.07 11.03 4.1 14.64 4.12 18.25 C4.14 19.5 4.16 20.76 4.18 22.05 C4.18 23.26 4.19 24.46 4.2 25.7 C4.21 26.81 4.22 27.92 4.23 29.07 C4 32 4 32 2 36 C-1.3 36 -4.6 36 -8 36 C-8.33 35.34 -8.66 34.68 -9 34 C-6.03 34 -3.06 34 0 34 C0 22.78 0 11.56 0 0 Z " fill="#E9B182" transform="translate(79,106)"/>
<path d="M0 0 C1.04 0.73 1.04 0.73 2.11 1.48 C1.12 1.97 1.12 1.97 0.11 2.48 C-0.88 2.15 -1.87 1.82 -2.89 1.48 C-5.04 1.38 -7.19 1.35 -9.33 1.35 C-10.47 1.35 -11.6 1.35 -12.77 1.34 C-15.35 1.45 -17.44 1.72 -19.89 2.48 C-19.89 3.14 -19.89 3.8 -19.89 4.48 C-18.24 4.48 -16.59 4.48 -14.89 4.48 C-14.89 5.14 -14.89 5.8 -14.89 6.48 C-13.9 6.48 -12.91 6.48 -11.89 6.48 C-11.89 9.45 -11.89 12.42 -11.89 15.48 C-13.87 15.81 -15.85 16.14 -17.89 16.48 C-17.23 16.81 -16.57 17.14 -15.89 17.48 C-15.94 18.59 -15.98 19.7 -16.02 20.85 C-16.31 24.52 -16.31 24.52 -13.89 26.48 C-16.85 26.16 -17.88 25.49 -20.02 23.35 C-24.57 16.38 -24.13 9.56 -23.89 1.48 C-16.63 -1.94 -7.42 -3.9 0 0 Z " fill="#EFB17E" transform="translate(171.89453125,104.5234375)"/>
<path d="M0 0 C0.66 0.33 1.32 0.66 2 1 C2 24.76 2 48.52 2 73 C-1.63 73 -5.26 73 -9 73 C-9 72.34 -9 71.68 -9 71 C-6.03 71 -3.06 71 0 71 C0 47.57 0 24.14 0 0 Z " fill="#BE946D" transform="translate(123,69)"/>
<path d="M0 0 C11.22 0 22.44 0 34 0 C33.67 0.66 33.34 1.32 33 2 C22.77 2 12.54 2 2 2 C2 13.22 2 24.44 2 36 C-1.3 36 -4.6 36 -8 36 C-8.33 35.34 -8.66 34.68 -9 34 C-6.03 34 -3.06 34 0 34 C0 22.78 0 11.56 0 0 Z " fill="#C1946D" transform="translate(79,106)"/>
<path d="M0 0 C0.66 0 1.32 0 2 0 C3.76 3.09 4 4.23 4 8 C4.66 8 5.32 8 6 8 C6.82 25.42 6.82 25.42 2 31 C-4.46 36.85 -9.35 40.33 -18.19 40.12 C-18.94 40.12 -19.69 40.11 -20.46 40.1 C-22.31 40.07 -24.15 40.04 -26 40 C-26 39.67 -26 39.34 -26 39 C-25.31 38.97 -24.62 38.95 -23.91 38.92 C-15.82 38.43 -9.64 36.83 -3.19 31.81 C1.16 26.22 3.66 20.57 3.34 13.42 C2.69 8.82 1.39 4.42 0 0 Z " fill="#BC9473" transform="translate(184,102)"/>
<path d="M0 0 C1.04 0.73 1.04 0.73 2.11 1.48 C1.12 1.97 1.12 1.97 0.11 2.48 C-0.88 2.15 -1.87 1.82 -2.89 1.48 C-5.04 1.36 -7.19 1.3 -9.33 1.29 C-11.03 1.27 -11.03 1.27 -12.77 1.25 C-15.75 1.47 -17.39 1.92 -19.89 3.48 C-20 6.04 -20.08 8.6 -20.14 11.16 C-20.19 12.25 -20.19 12.25 -20.25 13.35 C-20.32 17.24 -20.19 19.02 -18 22.37 C-17.31 23.07 -16.61 23.76 -15.89 24.48 C-15.23 25.14 -14.57 25.8 -13.89 26.48 C-16.85 26.16 -17.88 25.49 -20.02 23.35 C-24.57 16.38 -24.13 9.56 -23.89 1.48 C-16.63 -1.94 -7.42 -3.9 0 0 Z " fill="#BF9776" transform="translate(171.89453125,104.5234375)"/>
<path d="M0 0 C0.66 0 1.32 0 2 0 C2 2.64 2 5.28 2 8 C-2.75 9.12 -2.75 9.12 -5 8 C-7.21 7.93 -9.42 7.92 -11.62 7.94 C-13.41 7.95 -13.41 7.95 -15.23 7.96 C-16.6 7.98 -16.6 7.98 -18 8 C-18.33 8.99 -18.66 9.98 -19 11 C-21.06 11.69 -21.06 11.69 -23 12 C-23 12.66 -23 13.32 -23 14 C-23.66 14 -24.32 14 -25 14 C-25.31 14.8 -25.62 15.61 -25.94 16.44 C-27 19 -27 19 -28 20 C-28.04 22 -28.04 24 -28 26 C-29.98 26.99 -29.98 26.99 -32 28 C-31.69 20.95 -30.54 16.43 -25.29 11.34 C-20.17 6.78 -16.89 5.86 -9.94 5.88 C-8.06 5.87 -8.06 5.87 -6.15 5.87 C-3 6 -3 6 -1 7 C-0.67 4.69 -0.34 2.38 0 0 Z " fill="#B89272" transform="translate(181,71)"/>
<path d="M0 0 C1.32 0 2.64 0 4 0 C3.48 1.95 2.96 3.91 2.44 5.86 C1.87 8.29 1.87 8.29 2 12 C2.66 12.33 3.32 12.66 4 13 C2.68 13.33 1.36 13.66 0 14 C0 9.38 0 4.76 0 0 Z " fill="#F4E9E1" transform="translate(148,86)"/>
<path d="M0 0 C9.24 0 18.48 0 28 0 C28 0.33 28 0.66 28 1 C18.76 1 9.52 1 0 1 C0 0.67 0 0.34 0 0 Z " fill="#ECB2A6" transform="translate(113,211)"/>
<path d="M0 0 C0.33 0 0.66 0 1 0 C1.96 4 2.1 7.71 2.06 11.81 C2.05 12.97 2.04 14.14 2.04 15.33 C2.02 16.21 2.01 17.09 2 18 C1.67 18 1.34 18 1 18 C0.67 12.06 0.34 6.12 0 0 Z " fill="#E7C195" transform="translate(236,85)"/>
<path d="M0 0 C0.33 0 0.66 0 1 0 C1 4.29 1 8.58 1 13 C0.67 13 0.34 13 0 13 C0 8.71 0 4.42 0 0 Z " fill="#E3BD9D" transform="translate(237,106)"/>
<path d="M0 0 C0.33 0 0.66 0 1 0 C1 4.29 1 8.58 1 13 C0.67 13 0.34 13 0 13 C0 8.71 0 4.42 0 0 Z " fill="#EDB18B" transform="translate(15,98)"/>
<path d="M0 0 C0.33 0 0.66 0 1 0 C1 2.64 1 5.28 1 8 C0.67 8 0.34 8 0 8 C0 5.36 0 2.72 0 0 Z " fill="#C09A7B" transform="translate(16,113)"/>
<path d="M0 0 C0.33 0 0.66 0 1 0 C1 2.64 1 5.28 1 8 C0.67 8 0.34 8 0 8 C0 5.36 0 2.72 0 0 Z " fill="#CDB181" transform="translate(16,88)"/>
<path d="M0 0 C1.98 0 3.96 0 6 0 C6 0.33 6 0.66 6 1 C4.02 1 2.04 1 0 1 C0 0.67 0 0.34 0 0 Z " fill="#F9C199" transform="translate(141,210)"/>
<path d="M0 0 C1.98 0 3.96 0 6 0 C6 0.33 6 0.66 6 1 C4.02 1 2.04 1 0 1 C0 0.67 0 0.34 0 0 Z " fill="#D9B475" transform="translate(107,210)"/>
<path d="M0 0 C0.33 0 0.66 0 1 0 C1 1.98 1 3.96 1 6 C0.67 6 0.34 6 0 6 C0 4.02 0 2.04 0 0 Z " fill="#D9B762" transform="translate(236,119)"/>
<path d="M0 0 C1.65 0 3.3 0 5 0 C5 0.33 5 0.66 5 1 C3.35 1 1.7 1 0 1 C0 0.67 0 0.34 0 0 Z " fill="#F6D8A3" transform="translate(147,209)"/>
<path d="M0 0 C0.33 0 0.66 0 1 0 C1 1.65 1 3.3 1 5 C0.67 5 0.34 5 0 5 C0 3.35 0 1.7 0 0 Z " fill="#E5A176" transform="translate(17,122)"/>
<path d="M0 0 C0.33 0 0.66 0 1 0 C1 1.65 1 3.3 1 5 C0.67 5 0.34 5 0 5 C0 3.35 0 1.7 0 0 Z " fill="#F9C27A" transform="translate(17,83)"/>
<path d="M0 0 C0.33 0 0.66 0 1 0 C1 1.65 1 3.3 1 5 C0.67 5 0.34 5 0 5 C0 3.35 0 1.7 0 0 Z " fill="#DC8A71" transform="translate(235,80)"/>
<path d="M0 0 C4 1 4 1 4 1 Z " fill="#EDBC8E" transform="translate(102,209)"/>
<path d="M0 0 C4 1 4 1 4 1 Z " fill="#EFBF9B" transform="translate(152,208)"/>
<path d="M0 0 C4 1 4 1 4 1 Z " fill="#E0CC8C" transform="translate(156,207)"/>
<path d="M0 0 C1 4 1 4 1 4 Z " fill="#F7E5B6" transform="translate(234,129)"/>
<path d="M0 0 C1 4 1 4 1 4 Z " fill="#E7CF98" transform="translate(235,125)"/>
<path d="M0 0 C1 4 1 4 1 4 Z " fill="#F6A992" transform="translate(18,127)"/>
<path d="M0 0 C1 4 1 4 1 4 Z " fill="#F8E3A8" transform="translate(18,79)"/>
<path d="M0 0 C1 4 1 4 1 4 Z " fill="#D97860" transform="translate(19,75)"/>
<path d="M0 0 C1 4 1 4 1 4 Z " fill="#BC9376" transform="translate(233,73)"/>
<path d="M0 0 C0.99 0.49 0.99 0.49 2 1 C1.67 1.66 1.34 2.32 1 3 C0.67 2.01 0.34 1.02 0 0 Z " fill="#EF916A" transform="translate(215,40)"/>
<path d="M0 0 C4 1 4 1 4 1 Z " fill="#FB9E9E" transform="translate(100,0)"/>
<path d="M0 0 C3 1 3 1 3 1 Z " fill="#F4D085" transform="translate(98,208)"/>
<path d="M0 0 C3 1 3 1 3 1 Z " fill="#BAA488" transform="translate(94,207)"/>
<path d="M0 0 C3 1 3 1 3 1 Z " fill="#F7E1B6" transform="translate(160,206)"/>
<path d="M0 0 C3 1 3 1 3 1 Z " fill="#E69A6C" transform="translate(91,206)"/>
<path d="M0 0 C3 1 3 1 3 1 Z " fill="#F1C292" transform="translate(163,205)"/>
<path d="M0 0 C3 1 3 1 3 1 Z " fill="#F8E2C8" transform="translate(88,205)"/>
<path d="" fill="#D07868" transform="translate(0,0)"/>
<path d="" fill="#D19F66" transform="translate(0,0)"/>
<path d="" fill="#F2D18D" transform="translate(0,0)"/>
<path d="" fill="#F2B4AE" transform="translate(0,0)"/>
<path d="" fill="#F2B8BC" transform="translate(0,0)"/>
<path d="" fill="#E59AA1" transform="translate(0,0)"/>
<path d="" fill="#D19A80" transform="translate(0,0)"/>
<path d="" fill="#EFC591" transform="translate(0,0)"/>
<path d="" fill="#EA8A6E" transform="translate(0,0)"/>
<path d="" fill="#FFDB83" transform="translate(0,0)"/>
<path d="" fill="#E38F6A" transform="translate(0,0)"/>
<path d="" fill="#F3AF95" transform="translate(0,0)"/>
<path d="" fill="#AC8A56" transform="translate(0,0)"/>
<path d="M0 0 C3 1 3 1 3 1 Z " fill="#E9C3A3" transform="translate(87,4)"/>
<path d="M0 0 C3 1 3 1 3 1 Z " fill="#F8DF93" transform="translate(90,3)"/>
<path d="M0 0 C3 1 3 1 3 1 Z " fill="#F1E2AA" transform="translate(93,2)"/>
<path d="M0 0 C3 1 3 1 3 1 Z " fill="#F9AE6D" transform="translate(154,1)"/>
<path d="M0 0 C2 1 2 1 2 1 Z " fill="#F4BA7C" transform="translate(166,204)"/>
<path d="M0 0 C2 1 2 1 2 1 Z " fill="#FEC5B2" transform="translate(175,200)"/>
<path d="M0 0 C2 1 2 1 2 1 Z " fill="#FBCCA5" transform="translate(177,199)"/>
<path d="M0 0 C2 1 2 1 2 1 Z " fill="#F1D57B" transform="translate(179,198)"/>
<path d="" fill="#FFECD4" transform="translate(0,0)"/>
<path d="" fill="#BC8149" transform="translate(0,0)"/>
<path d="" fill="#835B50" transform="translate(0,0)"/>
<path d="" fill="#ECC878" transform="translate(0,0)"/>
<path d="" fill="#C76B5C" transform="translate(0,0)"/>
<path d="" fill="#C58F73" transform="translate(0,0)"/>
<path d="" fill="#D9D0C5" transform="translate(0,0)"/>
<path d="" fill="#FFEFB7" transform="translate(0,0)"/>
<path d="" fill="#E8D084" transform="translate(0,0)"/>
<path d="" fill="#F8D064" transform="translate(0,0)"/>
<path d="" fill="#FFCCB7" transform="translate(0,0)"/>
<path d="" fill="#E75D4B" transform="translate(0,0)"/>
<path d="" fill="#F4DB88" transform="translate(0,0)"/>
<path d="" fill="#FFEFB8" transform="translate(0,0)"/>
<path d="" fill="#F7918F" transform="translate(0,0)"/>
<path d="" fill="#DFA386" transform="translate(0,0)"/>
<path d="" fill="#000000" transform="translate(0,0)"/>
<path d="" fill="#ED9988" transform="translate(0,0)"/>
<path d="" fill="#CE957B" transform="translate(0,0)"/>
<path d="" fill="#DCCB86" transform="translate(0,0)"/>
<path d="" fill="#F2CFC7" transform="translate(0,0)"/>
<path d="" fill="#F4C792" transform="translate(0,0)"/>
<path d="" fill="#F2D3D2" transform="translate(0,0)"/>
<path d="" fill="#FAC585" transform="translate(0,0)"/>
<path d="" fill="#DBA784" transform="translate(0,0)"/>
<path d="" fill="#F7D8BE" transform="translate(0,0)"/>
<path d="" fill="#FE9679" transform="translate(0,0)"/>
<path d="" fill="#F9CA94" transform="translate(0,0)"/>
<path d="" fill="#FFD5BC" transform="translate(0,0)"/>
<path d="" fill="#C7705F" transform="translate(0,0)"/>
<path d="" fill="#F4D060" transform="translate(0,0)"/>
<path d="" fill="#C28B70" transform="translate(0,0)"/>
<path d="" fill="#E7BD84" transform="translate(0,0)"/>
<path d="" fill="#895E5B" transform="translate(0,0)"/>
<path d="" fill="#F08E60" transform="translate(0,0)"/>
<path d="" fill="#F2BAA6" transform="translate(0,0)"/>
<path d="" fill="#EDC893" transform="translate(0,0)"/>
<path d="M0 0 C2 1 2 1 2 1 Z " fill="#F3A885" transform="translate(72,11)"/>
<path d="M0 0 C2 1 2 1 2 1 Z " fill="#F6CFA4" transform="translate(78,8)"/>
<path d="M0 0 C2 1 2 1 2 1 Z " fill="#EFD299" transform="translate(80,7)"/>
<path d="M0 0 C2 1 2 1 2 1 Z " fill="#D0A284" transform="translate(82,6)"/>
<path d="M0 0 C2 1 2 1 2 1 Z " fill="#E1B564" transform="translate(167,5)"/>
<path d="" fill="#FBF0D0" transform="translate(0,0)"/>
<path d="" fill="#ECB792" transform="translate(0,0)"/>
<path d="" fill="#FFAA6E" transform="translate(0,0)"/>
<path d="" fill="#FFE6AF" transform="translate(0,0)"/>
<path d="" fill="#FCABA2" transform="translate(0,0)"/>
<path d="" fill="#FFBC84" transform="translate(0,0)"/>
<path d="" fill="#E09878" transform="translate(0,0)"/>
<path d="" fill="#FFC58C" transform="translate(0,0)"/>
<path d="" fill="#ECC185" transform="translate(0,0)"/>
<path d="" fill="#EFBD73" transform="translate(0,0)"/>
<path d="" fill="#EBC083" transform="translate(0,0)"/>
<path d="" fill="#FFE3B9" transform="translate(0,0)"/>
<path d="" fill="#F9BB83" transform="translate(0,0)"/>
<path d="" fill="#DCA679" transform="translate(0,0)"/>
<path d="" fill="#FABA85" transform="translate(0,0)"/>
<path d="" fill="#E0948E" transform="translate(0,0)"/>
<path d="" fill="#F7BD7C" transform="translate(0,0)"/>
<path d="" fill="#F7C188" transform="translate(0,0)"/>
<path d="" fill="#FFC185" transform="translate(0,0)"/>
<path d="" fill="#E6BB81" transform="translate(0,0)"/>
<path d="" fill="#BDA45A" transform="translate(0,0)"/>
<path d="" fill="#FBC28A" transform="translate(0,0)"/>
<path d="" fill="#F2B088" transform="translate(0,0)"/>
<path d="" fill="#FFB9A2" transform="translate(0,0)"/>
<path d="" fill="#FFF6CA" transform="translate(0,0)"/>
<path d="" fill="#E6BBAA" transform="translate(0,0)"/>
<path d="" fill="#FFE9B8" transform="translate(0,0)"/>
<path d="" fill="#FFDEA9" transform="translate(0,0)"/>
<path d="" fill="#CB8566" transform="translate(0,0)"/>
<path d="" fill="#FFEBB1" transform="translate(0,0)"/>
<path d="" fill="#BCAD55" transform="translate(0,0)"/>
<path d="" fill="#D58E80" transform="translate(0,0)"/>
<path d="" fill="#FFE5B1" transform="translate(0,0)"/>
<path d="" fill="#F9F6A5" transform="translate(0,0)"/>
<path d="" fill="#D7BC3D" transform="translate(0,0)"/>
<path d="" fill="#FFB76D" transform="translate(0,0)"/>
<path d="" fill="#E7A56E" transform="translate(0,0)"/>
<path d="" fill="#F7AA64" transform="translate(0,0)"/>
<path d="" fill="#F4B662" transform="translate(0,0)"/>
<path d="" fill="#F6A76B" transform="translate(0,0)"/>
<path d="" fill="#FFDCC3" transform="translate(0,0)"/>
<path d="" fill="#F7B19B" transform="translate(0,0)"/>
<path d="" fill="#FFAE92" transform="translate(0,0)"/>
<path d="" fill="#D19482" transform="translate(0,0)"/>
<path d="" fill="#ECAE95" transform="translate(0,0)"/>
<path d="" fill="#F0AF7C" transform="translate(0,0)"/>
<path d="" fill="#BEA55C" transform="translate(0,0)"/>
<path d="" fill="#E5C58E" transform="translate(0,0)"/>
<path d="" fill="#FFF998" transform="translate(0,0)"/>
<path d="" fill="#CABB7B" transform="translate(0,0)"/>
<path d="" fill="#FBC585" transform="translate(0,0)"/>
<path d="" fill="#FBC48E" transform="translate(0,0)"/>
<path d="" fill="#BE9F71" transform="translate(0,0)"/>
<path d="" fill="#FFE9C1" transform="translate(0,0)"/>
<path d="" fill="#F3B4AE" transform="translate(0,0)"/>
<path d="" fill="#957F6D" transform="translate(0,0)"/>
<path d="" fill="#EFB5B2" transform="translate(0,0)"/>
<path d="" fill="#DA8982" transform="translate(0,0)"/>
<path d="" fill="#CEB7AA" transform="translate(0,0)"/>
<path d="" fill="#DF8D82" transform="translate(0,0)"/>
<path d="" fill="#CDB9A6" transform="translate(0,0)"/>
<path d="" fill="#FFE2CB" transform="translate(0,0)"/>
<path d="" fill="#AF8E75" transform="translate(0,0)"/>
<path d="" fill="#F1B492" transform="translate(0,0)"/>
<path d="" fill="#F8B293" transform="translate(0,0)"/>
<path d="" fill="#FFBB9D" transform="translate(0,0)"/>
<path d="" fill="#F8AFA5" transform="translate(0,0)"/>
<path d="" fill="#FFB298" transform="translate(0,0)"/>
<path d="" fill="#E3AA82" transform="translate(0,0)"/>
</svg>
