<?xml version="1.0" encoding="UTF-8"?>
<svg version="1.1" xmlns="http://www.w3.org/2000/svg" width="512" height="512">
<path d="M0 0 C168.96 0 337.92 0 512 0 C512 168.96 512 337.92 512 512 C343.04 512 174.08 512 0 512 C0 343.04 0 174.08 0 0 Z " fill="#272F38" transform="translate(0,0)"/>
<path d="M0 0 C2.31 0 4.62 0 7 0 C7.25652344 0.66902344 7.51304687 1.33804687 7.77734375 2.02734375 C20.05750997 32.83112771 39.26386711 55.78181159 69.9296875 69.3125 C97.20810704 80.86270668 127.6243462 79.34529222 154.95605469 68.83691406 C181.45095988 57.9883074 200.82946104 36.91181971 212 11 C213.45083717 7.36674204 214.80081749 3.72377727 216 0 C218.64 0 221.28 0 224 0 C219.93072261 16.91483215 211.15525953 31.80640401 200 45 C199.36835938 45.7940625 198.73671875 46.588125 198.0859375 47.40625 C180.22292919 68.99388557 152.11460778 80.93312606 125 85 C90.02139512 87.16618165 59.53023912 78.11130748 33 55 C17.65289163 41.40184985 5.0251435 21.99515141 0 2 C0 1.34 0 0.68 0 0 Z " fill="#683693" transform="translate(144,289)"/>
<path d="M0 0 C2.70248043 2.17794836 5.30692417 4.43439086 7.90234375 6.73828125 C9.12630859 7.73021484 9.12630859 7.73021484 10.375 8.7421875 C23.58928137 19.77852075 35.05382227 36.53678695 40.90234375 52.73828125 C40.90234375 53.39828125 40.90234375 54.05828125 40.90234375 54.73828125 C38.26234375 54.73828125 35.62234375 54.73828125 32.90234375 54.73828125 C32.42925781 53.73410156 31.95617187 52.72992188 31.46875 51.6953125 C17.45108852 22.47418378 -2.88413268 3.55151917 -33.03515625 -8.07421875 C-60.44245926 -17.19970997 -89.89815773 -15.12914624 -116.09765625 -3.26171875 C-141.5837873 9.51041399 -157.4874962 29.84588494 -170.09765625 54.73828125 C-172.40765625 54.73828125 -174.71765625 54.73828125 -177.09765625 54.73828125 C-174.30304156 34.59376701 -155.10238444 14.79969513 -140.09765625 2.73828125 C-99.23360374 -27.97269045 -41.86499377 -30.5672527 0 0 Z " fill="#9546B2" transform="translate(324.09765625,159.26171875)"/>
<path d="M0 0 C3.76964535 2.34591663 6.19063276 5.13206439 7.375 9.4375 C8.0987797 16.10958411 8.54239711 22.83306941 4.375 28.4375 C-0.6803609 33.11370883 -4.7632065 33.63909171 -11.4375 33.6875 C-12.13681641 33.708125 -12.83613281 33.72875 -13.55664062 33.75 C-18.35580409 33.78591516 -21.5585263 32.97150438 -25.625 30.4375 C-30.8210304 24.82016984 -30.98519843 20.08576243 -30.89453125 12.67578125 C-30.50363829 7.97940067 -29.69237584 6.04166662 -26.625 2.4375 C-19.65058633 -3.41539991 -8.10660257 -3.50678875 0 0 Z " fill="#2783BE" transform="translate(385.625,236.5625)"/>
<path d="M0 0 C0.88602402 0.00222061 1.77204803 0.00444122 2.68492126 0.00672913 C3.68588333 0.00680466 4.6868454 0.00688019 5.71813965 0.00695801 C6.80666733 0.01211929 7.89519501 0.01728058 9.01670837 0.02259827 C10.67928932 0.02472069 10.67928932 0.02472069 12.37545776 0.02688599 C15.93168281 0.03250418 19.48784596 0.04505977 23.04405212 0.05775452 C25.44834809 0.06276717 27.85264504 0.06733048 30.25694275 0.07142639 C36.16518918 0.08163062 42.07330098 0.10120247 47.98155212 0.12025452 C47.98155212 11.34025452 47.98155212 22.56025452 47.98155212 34.12025452 C31.15155212 34.12025452 14.32155212 34.12025452 -3.01844788 34.12025452 C-3.01844788 31.81025452 -3.01844788 29.50025452 -3.01844788 27.12025452 C-2.35844788 27.12025452 -1.69844788 27.12025452 -1.01844788 27.12025452 C-1.01844788 28.77025452 -1.01844788 30.42025452 -1.01844788 32.12025452 C14.49155212 32.12025452 30.00155212 32.12025452 45.98155212 32.12025452 C45.00077493 30.91974996 45.00077493 30.91974996 43.15292358 31 C41.95712425 31.00333092 41.95712425 31.00333092 40.73716736 31.00672913 C39.3858799 31.00684242 39.3858799 31.00684242 38.0072937 31.00695801 C36.53855553 31.01469994 36.53855553 31.01469994 35.04014587 31.02259827 C34.0427388 31.02401321 33.04533173 31.02542816 32.0177002 31.02688599 C28.81812089 31.03250337 25.61861044 31.04505881 22.41905212 31.05775452 C20.25564167 31.06276728 18.09223013 31.06733057 15.92881775 31.07142639 C10.61303887 31.08247845 5.29730041 31.09923348 -0.01844788 31.12025452 C-0.01844788 29.80025452 -0.01844788 28.48025452 -0.01844788 27.12025452 C7.57155212 27.12025452 15.16155212 27.12025452 22.98155212 27.12025452 C22.98155212 20.52025452 22.98155212 13.92025452 22.98155212 7.12025452 C14.40155212 7.12025452 5.82155212 7.12025452 -3.01844788 7.12025452 C-3.01844788 0.17983223 -3.01844788 0.17983223 0 0 Z " fill="#34C4E1" transform="translate(234.01844787597656,162.87974548339844)"/>
<path d="M0 0 C0.66 0 1.32 0 2 0 C2.36351562 0.95519531 2.72703125 1.91039062 3.1015625 2.89453125 C9.29363382 18.92853974 17.54856867 31.1887112 29 44 C28.67 43.01 28.34 42.02 28 41 C27.49828436 34.87906919 27.91166377 31.8832905 32 27 C35.96329956 23.38918478 39.18975342 23.49366089 44.37109375 23.65234375 C48.01339596 24.13401522 49.64183167 25.19967511 52 28 C55.1698076 32.54339089 55.16734751 35.70006225 54.32421875 40.94921875 C53.9219221 43.14782425 53.9219221 43.14782425 54 46 C54.87205078 46.37511719 54.87205078 46.37511719 55.76171875 46.7578125 C58.30135226 48.16724261 59.87730308 49.71572765 61.8125 51.875 C62.43769531 52.55304688 63.06289062 53.23109375 63.70703125 53.9296875 C65 56 65 56 64.69921875 58.2578125 C64.46847656 58.83273437 64.23773438 59.40765625 64 60 C62.02 60.495 62.02 60.495 60 61 C58.53927468 59.39801112 57.08150284 57.79332884 55.625 56.1875 C54.81289062 55.29417969 54.00078125 54.40085937 53.1640625 53.48046875 C51 51 51 51 49 48 C48.01 48.66 47.02 49.32 46 50 C43.51953125 50.1953125 43.51953125 50.1953125 40.8125 50.125 C39.91144531 50.10695313 39.01039063 50.08890625 38.08203125 50.0703125 C37.39496094 50.04710937 36.70789063 50.02390625 36 50 C60.3667179 66.79019155 88.10385387 75.04608099 117.80322266 69.87304688 C139.43794863 65.57893898 157.46282022 56.73867058 173 41 C174.21816406 39.77990234 174.21816406 39.77990234 175.4609375 38.53515625 C186.0938959 27.33970346 192.07853514 14.03198189 198 0 C198.99 0.495 198.99 0.495 200 1 C193.85174102 17.99812777 185.70990944 31.14627263 173 44 C172.11248047 44.99580078 172.11248047 44.99580078 171.20703125 46.01171875 C154.70817906 64.20711101 127.53723888 72.9661355 103.8203125 74.2578125 C74.67411376 75.3007146 48.27365007 63.79953651 26.53515625 44.8515625 C14.6162808 33.58204582 5.43281 18.45634445 0 3 C0 2.01 0 1.02 0 0 Z " fill="#2D99D2" transform="translate(156,289)"/>
<path d="M0 0 C2.64 0 5.28 0 8 0 C8 11.55 8 23.1 8 35 C-1 35 -1 35 -3.15161133 33.70239258 C-3.6236499 33.10579834 -4.09568848 32.5092041 -4.58203125 31.89453125 C-5.12150391 31.24033203 -5.66097656 30.58613281 -6.21679688 29.91210938 C-6.74337891 29.21923828 -7.26996094 28.52636719 -7.8125 27.8125 C-8.35841797 27.13896484 -8.90433594 26.46542969 -9.46679688 25.77148438 C-11.00386681 23.86640979 -12.50207427 21.93590434 -14 20 C-15.32 18.35 -16.64 16.7 -18 15 C-18.33 21.6 -18.66 28.2 -19 35 C-21.97 35 -24.94 35 -28 35 C-28 23.78 -28 12.56 -28 1 C-18 1 -18 1 -15.3359375 2.8359375 C-14.68882812 3.67382812 -14.04171875 4.51171875 -13.375 5.375 C-12.65183594 6.27734375 -11.92867188 7.1796875 -11.18359375 8.109375 C-10.46300781 9.06328125 -9.74242187 10.0171875 -9 11 C-7.48103686 12.87651539 -5.96030548 14.75160135 -4.4375 16.625 C-3.303125 18.06875 -2.16875 19.5125 -1 21 C-0.67 14.07 -0.34 7.14 0 0 Z " fill="#31CFEA" transform="translate(425,235)"/>
<path d="M0 0 C2.97 0 5.94 0 9 0 C9 4.29 9 8.58 9 13 C14.94 13 20.88 13 27 13 C27 8.71 27 4.42 27 0 C33.15234375 -0.09765625 33.15234375 -0.09765625 35 0 C36 1 36 1 36.11352539 4.23461914 C36.11336631 5.66814126 36.10767407 7.10166912 36.09765625 8.53515625 C36.0962413 9.28840683 36.09482635 10.04165741 36.09336853 10.81773376 C36.08775376 13.2326956 36.07519883 15.64756601 36.0625 18.0625 C36.0574869 19.69596221 36.05292366 21.32942586 36.04882812 22.96289062 C36.03777954 26.97529585 36.02050506 30.98763241 36 35 C33.03 35 30.06 35 27 35 C27 30.71 27 26.42 27 22 C21.06 22 15.12 22 9 22 C9 26.29 9 30.58 9 35 C6.03 35 3.06 35 0 35 C0 23.45 0 11.9 0 0 Z " fill="#2690BE" transform="translate(87,235)"/>
<path d="M0 0 C2.64 0 5.28 0 8 0 C8 11.55 8 23.1 8 35 C5.03 35 2.06 35 -1 35 C-1 30.71 -1 26.42 -1 22 C-6.94 22 -12.88 22 -19 22 C-19 26.29 -19 30.58 -19 35 C-21.64 35 -24.28 35 -27 35 C-27 23.78 -27 12.56 -27 1 C-24.36 1 -21.72 1 -19 1 C-19 4.96 -19 8.92 -19 13 C-12.73 13 -6.46 13 0 13 C0 8.71 0 4.42 0 0 Z " fill="#238BC0" transform="translate(343,235)"/>
<path d="M0 0 C1.37478516 0.01740234 1.37478516 0.01740234 2.77734375 0.03515625 C3.69644531 0.04417969 4.61554688 0.05320313 5.5625 0.0625 C6.27277344 0.07410156 6.98304688 0.08570313 7.71484375 0.09765625 C23.71484375 30.0038877 23.71484375 30.0038877 23.71484375 34.09765625 C20.74484375 34.09765625 17.77484375 34.09765625 14.71484375 34.09765625 C14.05484375 32.77765625 13.39484375 31.45765625 12.71484375 30.09765625 C6.77484375 29.76765625 0.83484375 29.43765625 -5.28515625 29.09765625 C-3.28515625 23.09765625 -3.28515625 23.09765625 -2.28515625 21.09765625 C0 20.68359375 0 20.68359375 2.77734375 20.47265625 C4.40671875 20.34890625 6.03609375 20.22515625 7.71484375 20.09765625 C6.06484375 16.79765625 4.41484375 13.49765625 2.71484375 10.09765625 C2.18375 11.15984375 1.65265625 12.22203125 1.10546875 13.31640625 C-2.35807292 20.24348958 -5.82161458 27.17057292 -9.28515625 34.09765625 C-12.25515625 34.09765625 -15.22515625 34.09765625 -18.28515625 34.09765625 C-16.00236162 26.49898323 -12.75829031 19.65717819 -9.16015625 12.59765625 C-8.60972656 11.50195312 -8.05929688 10.40625 -7.4921875 9.27734375 C-2.86939462 0.1226237 -2.86939462 0.1226237 0 0 Z " fill="#31CDE9" transform="translate(143.28515625,235.90234375)"/>
<path d="M0 0 C2.97 0 5.94 0 9 0 C18.70457688 18.31568031 18.70457688 18.31568031 23.125 27.0625 C23.68445313 28.16722656 24.24390625 29.27195312 24.8203125 30.41015625 C26 33 26 33 26 35 C23.03 35 20.06 35 17 35 C16.34 33.35 15.68 31.7 15 30 C9.39 30 3.78 30 -2 30 C-1 25 -1 25 1 22 C3.99460004 21.2918906 6.91735789 21.22018872 10 21 C8.35 17.7 6.7 14.4 5 11 C0.71731709 18.88969983 -3.51273384 26.71774286 -7 35 C-9.97 35 -12.94 35 -16 35 C-13.63330158 27.01132484 -10.09608365 19.84479757 -6.3125 12.4375 C-5.69930687 11.22619626 -5.08667247 10.01460951 -4.47460938 8.80273438 C-2.98852447 5.86566893 -1.49688463 2.93157184 0 0 Z " fill="#31CAE6" transform="translate(257,235)"/>
<path d="M0 0 C2.64 0 5.28 0 8 0 C8.33 4.29 8.66 8.58 9 13 C10.381875 11.5975 11.76375 10.195 13.1875 8.75 C14.43466797 7.52216797 14.43466797 7.52216797 15.70703125 6.26953125 C17.29871445 4.69411739 18.85266339 3.08002108 20.375 1.4375 C24.6702558 -0.91466389 29.21067311 -0.30195406 34 0 C29.59156563 5.29012124 24.92440206 10.18808428 20 15 C21.31723754 17.93063519 22.72148646 19.94715944 25.0390625 22.1640625 C25.61914062 22.72867187 26.19921875 23.29328125 26.796875 23.875 C27.40015625 24.4525 28.0034375 25.03 28.625 25.625 C29.83001989 26.77917517 31.03078487 27.93781463 32.2265625 29.1015625 C32.75846191 29.61025879 33.29036133 30.11895508 33.83837891 30.64306641 C35 32 35 32 35 34 C30.6707673 34.82900201 26.23904296 35.51022696 22.39941406 32.92041016 C18.93663695 29.91698103 15.94222542 26.50563029 13 23 C9.92249827 24.90027295 9.92249827 24.90027295 8.390625 28.04296875 C8.32101563 29.10451172 8.32101563 29.10451172 8.25 30.1875 C8.1675 31.445625 8.085 32.70375 8 34 C5.36 34 2.72 34 0 34 C0 22.78 0 11.56 0 0 Z " fill="#228BC3" transform="translate(204,236)"/>
<path d="M0 0 C8.91 0 17.82 0 27 0 C27 3.63 27 7.26 27 11 C25.09154297 11.20302734 25.09154297 11.20302734 23.14453125 11.41015625 C-7.63281462 15.03362616 -37.75735787 27.99120692 -57.45214844 52.83154297 C-64.94920098 62.60813685 -70.88022457 72.81178487 -76 84 C-76.99 84 -77.98 84 -79 84 C-79.99 84.495 -79.99 84.495 -81 85 C-73.25292482 57.40104469 -51.31732392 34.99041347 -27 21 C-11.68860954 12.51484438 6.34442246 6.32093933 24 7 C24.66 5.02 25.32 3.04 26 1 C17.42 1.33 8.84 1.66 0 2 C0 1.34 0 0.68 0 0 Z " fill="#212729" transform="translate(224,127)"/>
<path d="M0 0 C0.98291016 0.00322266 1.96582031 0.00644531 2.97851562 0.00976562 C4.51475586 0.02233398 4.51475586 0.02233398 6.08203125 0.03515625 C7.63567383 0.04192383 7.63567383 0.04192383 9.22070312 0.04882812 C11.77870391 0.06061615 14.33658858 0.0770711 16.89453125 0.09765625 C15.01953125 6.97265625 15.01953125 6.97265625 13.89453125 8.09765625 C10.09824412 8.30143309 6.30845052 8.44459269 2.5078125 8.52734375 C1.31091797 8.57375 1.31091797 8.57375 0.08984375 8.62109375 C-1.0081958 8.65082275 -1.0081958 8.65082275 -2.12841797 8.68115234 C-4.64010703 9.21028812 -5.54969931 10.08646629 -7.10546875 12.09765625 C-7.58097998 14.73283283 -7.58097998 14.73283283 -7.48046875 17.59765625 C-7.48820313 18.55671875 -7.4959375 19.51578125 -7.50390625 20.50390625 C-7.03570552 23.55180118 -6.49421503 24.23116755 -4.10546875 26.09765625 C-1.98931031 26.59820376 -1.98931031 26.59820376 0.34375 26.609375 C1.61508789 26.66254883 1.61508789 26.66254883 2.91210938 26.71679688 C4.2337207 26.75063477 4.2337207 26.75063477 5.58203125 26.78515625 C6.47470703 26.81931641 7.36738281 26.85347656 8.28710938 26.88867188 C10.48914246 26.97110092 12.69181707 27.03605672 14.89453125 27.09765625 C15.55453125 29.73765625 16.21453125 32.37765625 16.89453125 35.09765625 C13.22829313 35.24425165 9.56281925 35.33215499 5.89453125 35.41015625 C4.34958984 35.47299805 4.34958984 35.47299805 2.7734375 35.53710938 C-4.07164417 35.64610749 -8.93039773 34.81244451 -14.10546875 30.09765625 C-17.71753569 24.45380165 -17.82229255 18.67849695 -17.10546875 12.09765625 C-15.34238879 6.80841638 -12.49391763 4.29756689 -8.10546875 1.09765625 C-5.10530963 0.09760321 -3.13123119 -0.0180996 0 0 Z " fill="#277BBD" transform="translate(183.10546875,234.90234375)"/>
<path d="M0 0 C-2.88359097 17.9423438 -13.39688522 34.42235899 -25 48 C-25.99580078 49.21429688 -25.99580078 49.21429688 -27.01171875 50.453125 C-36.73834696 61.88775632 -48.76913494 70.12721655 -62 77 C-63.02351563 77.54398437 -64.04703125 78.08796875 -65.1015625 78.6484375 C-71.50628087 81.84268945 -77.9854545 84.02254404 -84.875 85.875 C-85.67188232 86.09051514 -86.46876465 86.30603027 -87.28979492 86.52807617 C-91.99324014 87.7186157 -96.1506045 88.21983926 -101 88 C-101 87.01 -101 86.02 -101 85 C-97.93398707 83.19042021 -94.88438559 82.4691708 -91.41650391 81.75830078 C-81.63207451 79.74496203 -72.9435986 76.39508332 -64 72 C-63.00226563 71.5153125 -62.00453125 71.030625 -60.9765625 70.53125 C-53.7332401 66.79543902 -47.3782126 62.04750637 -41 57 C-40.34128906 56.49726563 -39.68257813 55.99453125 -39.00390625 55.4765625 C-33.4959327 51.07527186 -29.26953904 45.57052653 -25 40 C-24.25492187 39.03191406 -23.50984375 38.06382812 -22.7421875 37.06640625 C-15.60425877 27.30460476 -9.5250261 16.14852745 -5.93359375 4.55859375 C-4.78956622 1.42328819 -3.48508934 0 0 0 Z " fill="#1E282A" transform="translate(372,289)"/>
<path d="M0 0 C8.91 0 17.82 0 27 0 C27 0.33 27 0.66 27 1 C18.42 1 9.84 1 1 1 C1 3.97 1 6.94 1 10 C4.3 10 7.6 10 11 10 C11 9.34 11 8.68 11 8 C36.81156816 7.17057943 61.75520007 23.26563539 80 40 C80.67417969 40.59167969 81.34835937 41.18335938 82.04296875 41.79296875 C90.84219914 49.92337403 97.54152804 60.63007739 103.125 71.125 C103.50317871 71.8351123 103.88135742 72.54522461 104.27099609 73.27685547 C107.88176804 80.30853561 107.88176804 80.30853561 108 84 C106.5625 85.8125 106.5625 85.8125 105 87 C104.49210937 85.96101563 103.98421875 84.92203125 103.4609375 83.8515625 C97.61162909 71.96158647 91.54900023 61.2014697 83 51 C82.48050781 50.33355469 81.96101563 49.66710937 81.42578125 48.98046875 C63.05935124 26.26531224 33.00320369 14.5887371 4.72314453 11.45605469 C3.14972677 11.294366 1.57499256 11.14555104 0 11 C0 7.37 0 3.74 0 0 Z " fill="#21282A" transform="translate(260,127)"/>
<path d="M0 0 C0.99 0.33 1.98 0.66 3 1 C3 12.22 3 23.44 3 35 C2.01 35 1.02 35 0 35 C-0.66 32.36 -1.32 29.72 -2 27 C-3.98773438 27.06960938 -3.98773438 27.06960938 -6.015625 27.140625 C-7.76039412 27.17814692 -9.50518762 27.21454663 -11.25 27.25 C-12.55904297 27.30027344 -12.55904297 27.30027344 -13.89453125 27.3515625 C-20.30690541 27.44946134 -20.30690541 27.44946134 -23.578125 25.328125 C-25.29800856 22.51205192 -25.53612958 20.78779212 -25.5 17.5 C-25.5103125 16.5615625 -25.520625 15.623125 -25.53125 14.65625 C-24.81860214 11.09301071 -24.03299201 10.02819711 -21 8 C-17.92010925 7.38521561 -14.88413265 7.3038679 -11.75 7.25 C-10.48929688 7.20552734 -10.48929688 7.20552734 -9.203125 7.16015625 C-7.1359285 7.08968364 -5.06795967 7.04255061 -3 7 C-2.01 4.69 -1.02 2.38 0 0 Z " fill="#252A32" transform="translate(200,235)"/>
<path d="M0 0 C10.89 0 21.78 0 33 0 C32.67 2.31 32.34 4.62 32 7 C28.04 7 24.08 7 20 7 C20 15.91 20 24.82 20 34 C17.03 34 14.06 34 11 34 C11 25.09 11 16.18 11 7 C6.71 7 2.42 7 -2 7 C-1.34 4.69 -0.68 2.38 0 0 Z " fill="#2DD4EB" transform="translate(279,236)"/>
<path d="M0 0 C0.66 0 1.32 0 2 0 C2.36351562 0.95519531 2.72703125 1.91039062 3.1015625 2.89453125 C7.87740458 15.2612965 13.32918742 25.84757284 22 36 C22.61230469 36.74636719 23.22460938 37.49273437 23.85546875 38.26171875 C27.25262698 42.31881058 30.49092456 45.15732201 35 48 C35.73089844 48.76957031 36.46179688 49.53914063 37.21484375 50.33203125 C40.39300341 53.3764675 43.60525183 55.38754034 47.4375 57.5 C48.13907227 57.88945801 48.84064453 58.27891602 49.56347656 58.68017578 C75.29010653 72.58693227 104.38436337 74.42922198 132.18359375 66.36669922 C148.1580715 61.40256333 161.30658199 52.84506176 173 41 C174.21816406 39.77990234 174.21816406 39.77990234 175.4609375 38.53515625 C186.0938959 27.33970346 192.07853514 14.03198189 198 0 C198.99 0.495 198.99 0.495 200 1 C193.85174102 17.99812777 185.70990944 31.14627263 173 44 C172.11248047 44.99580078 172.11248047 44.99580078 171.20703125 46.01171875 C154.70817906 64.20711101 127.53723888 72.9661355 103.8203125 74.2578125 C74.67411376 75.3007146 48.27365007 63.79953651 26.53515625 44.8515625 C14.6162808 33.58204582 5.43281 18.45634445 0 3 C0 2.01 0 1.02 0 0 Z " fill="#6A3696" transform="translate(156,289)"/>
<path d="M0 0 C1.65351243 1.44962068 3.30016146 2.90713557 4.9375 4.375 C5.61683594 4.91253906 6.29617188 5.45007813 6.99609375 6.00390625 C18.9624653 15.61071158 26.29783961 28.83337165 32.9375 42.375 C31.9475 42.375 30.9575 42.375 29.9375 42.375 C29.54820312 41.51519531 29.15890625 40.65539062 28.7578125 39.76953125 C17.04747205 15.02671515 -3.42052749 -3.77596891 -29.2578125 -13.23828125 C-55.62924207 -22.18871856 -84.96371486 -20.8870019 -110.0625 -8.625 C-131.4761865 2.4229315 -150.65267951 20.29179479 -159.0625 43.375 C-159.7225 43.375 -160.3825 43.375 -161.0625 43.375 C-154.90610242 20.59632894 -134.74333841 2.84292434 -115.23242188 -8.70849609 C-79.65307008 -28.87344156 -32.04355043 -25.97167435 0 0 Z " fill="#9147AB" transform="translate(320.0625,170.625)"/>
<path d="M0 0 C2.64 0 5.28 0 8 0 C8 11.55 8 23.1 8 35 C-1 35 -1 35 -3.21508789 33.6706543 C-3.71258545 33.06133057 -4.21008301 32.45200684 -4.72265625 31.82421875 C-5.28017578 31.16099609 -5.83769531 30.49777344 -6.41210938 29.81445312 C-6.95673828 29.11255859 -7.50136719 28.41066406 -8.0625 27.6875 C-8.93165039 26.65206055 -8.93165039 26.65206055 -9.81835938 25.59570312 C-14 20.48590614 -14 20.48590614 -14 17 C-12.59013562 16.6957344 -11.17131189 16.43279092 -9.75 16.1875 C-8.96109375 16.03667969 -8.1721875 15.88585937 -7.359375 15.73046875 C-5 16 -5 16 -1 21 C-0.67 14.07 -0.34 7.14 0 0 Z " fill="#2688C2" transform="translate(425,235)"/>
<path d="M0 0 C0.88602402 0.00222061 1.77204803 0.00444122 2.68492126 0.00672913 C3.68588333 0.00680466 4.6868454 0.00688019 5.71813965 0.00695801 C6.80666733 0.01211929 7.89519501 0.01728058 9.01670837 0.02259827 C10.67928932 0.02472069 10.67928932 0.02472069 12.37545776 0.02688599 C15.93168281 0.03250418 19.48784596 0.04505977 23.04405212 0.05775452 C25.44834809 0.06276717 27.85264504 0.06733048 30.25694275 0.07142639 C36.16518918 0.08163062 42.07330098 0.10120247 47.98155212 0.12025452 C47.98155212 11.34025452 47.98155212 22.56025452 47.98155212 34.12025452 C31.15155212 34.12025452 14.32155212 34.12025452 -3.01844788 34.12025452 C-3.01844788 31.81025452 -3.01844788 29.50025452 -3.01844788 27.12025452 C-2.35844788 27.12025452 -1.69844788 27.12025452 -1.01844788 27.12025452 C-1.01844788 28.77025452 -1.01844788 30.42025452 -1.01844788 32.12025452 C14.49155212 32.12025452 30.00155212 32.12025452 45.98155212 32.12025452 C45.65155212 22.88025452 45.32155212 13.64025452 44.98155212 4.12025452 C30.46155212 4.12025452 15.94155212 4.12025452 0.98155212 4.12025452 C0.98155212 4.78025452 0.98155212 5.44025452 0.98155212 6.12025452 C8.24155212 6.12025452 15.50155212 6.12025452 22.98155212 6.12025452 C22.98155212 6.45025452 22.98155212 6.78025452 22.98155212 7.12025452 C14.40155212 7.12025452 5.82155212 7.12025452 -3.01844788 7.12025452 C-3.01844788 0.17983223 -3.01844788 0.17983223 0 0 Z " fill="#297293" transform="translate(234.01844787597656,162.87974548339844)"/>
<path d="M0 0 C3.73586529 2.30886095 6.17068079 5.1915028 7.375 9.4375 C7.67377876 13.13239731 7.61564689 16.74089632 7.375 20.4375 C7.045 20.4375 6.715 20.4375 6.375 20.4375 C6.375 18.7875 6.375 17.1375 6.375 15.4375 C4.395 15.4375 2.415 15.4375 0.375 15.4375 C0.375 17.0875 0.375 18.7375 0.375 20.4375 C0.045 20.4375 -0.285 20.4375 -0.625 20.4375 C-0.67398437 19.82261719 -0.72296875 19.20773438 -0.7734375 18.57421875 C-0.84820312 17.76597656 -0.92296875 16.95773438 -1 16.125 C-1.06960938 15.32449219 -1.13921875 14.52398437 -1.2109375 13.69921875 C-1.52064426 11.16525559 -1.52064426 11.16525559 -3.625 8.4375 C-8.25242575 6.89502475 -12.79295121 6.94487733 -17.625 7.4375 C-20.43926975 8.66827315 -20.43926975 8.66827315 -21.625 11.4375 C-22.21320723 14.43529301 -22.49465875 17.38751467 -22.625 20.4375 C-22.955 20.4375 -23.285 20.4375 -23.625 20.4375 C-23.625 18.7875 -23.625 17.1375 -23.625 15.4375 C-25.605 15.4375 -27.585 15.4375 -29.625 15.4375 C-29.955 16.0975 -30.285 16.7575 -30.625 17.4375 C-30.99122413 12.21880622 -30.93761933 8.41892981 -27.9921875 3.98046875 C-21.36384106 -3.50009366 -8.73029892 -3.77658998 0 0 Z " fill="#2FCDE6" transform="translate(385.625,236.5625)"/>
<path d="M0 0 C1.67542976 0.28604898 3.34385343 0.61781233 5 1 C4.67 2.65 4.34 4.3 4 6 C2.91972534 5.75552124 2.91972534 5.75552124 1.81762695 5.50610352 C-0.89402117 5.01903597 -3.33219353 4.88547358 -6.08203125 4.90234375 C-7.01337891 4.90556641 -7.94472656 4.90878906 -8.90429688 4.91210938 C-9.86400391 4.92048828 -10.82371094 4.92886719 -11.8125 4.9375 C-12.79154297 4.94201172 -13.77058594 4.94652344 -14.77929688 4.95117188 C-17.18626111 4.96291316 -19.59309857 4.97933581 -22 5 C-22.32871094 5.95777344 -22.65742188 6.91554688 -22.99609375 7.90234375 C-34.63449897 40.87852321 -56.40275324 66.91307775 -88.06982422 82.35375977 C-101.69247977 88.70866695 -116.85511208 93.37081555 -132 93 C-132 92.34 -132 91.68 -132 91 C-130.84886719 90.85304688 -129.69773437 90.70609375 -128.51171875 90.5546875 C-104.09565013 87.21509577 -82.06811379 78.94219349 -63 63 C-62.16597656 62.32839844 -61.33195312 61.65679687 -60.47265625 60.96484375 C-42.15567801 45.48366941 -31.33451445 24.44702563 -24 2 C-23.30849854 1.97494385 -22.61699707 1.9498877 -21.90454102 1.92407227 C-18.79032134 1.80847839 -15.67643211 1.68558758 -12.5625 1.5625 C-10.92958008 1.50352539 -10.92958008 1.50352539 -9.26367188 1.44335938 C-8.22919922 1.40146484 -7.19472656 1.35957031 -6.12890625 1.31640625 C-5.17056885 1.27974854 -4.21223145 1.24309082 -3.22485352 1.20532227 C-1.02861075 1.24165576 -1.02861075 1.24165576 0 0 Z " fill="#28B6D9" transform="translate(396,287)"/>
<path d="M0 0 C0 4.29 0 8.58 0 13 C-14.85 13 -29.7 13 -45 13 C-45 11.68 -45 10.36 -45 9 C-37.41 9 -29.82 9 -22 9 C-22 6.36 -22 3.72 -22 1 C-19.08340625 0.83196579 -16.16673658 0.66552033 -13.25 0.5 C-12.425 0.45230469 -11.6 0.40460938 -10.75 0.35546875 C-9.55117188 0.28779297 -9.55117188 0.28779297 -8.328125 0.21875 C-7.5949707 0.17685547 -6.86181641 0.13496094 -6.10644531 0.09179688 C-4.07266386 0.00316662 -2.03571175 0 0 0 Z " fill="#2483B6" transform="translate(279,181)"/>
<path d="M0 0 C25.96237192 -1.58953297 53.15662045 12.68772871 72 29.3125 C73.67391715 30.86723001 75.3403787 32.43001874 77 34 C77.8971875 34.82113281 78.794375 35.64226562 79.71875 36.48828125 C91.80056704 47.94225106 101.71211326 63.13633978 107 79 C110.91665108 79.02904864 114.8332744 79.04681517 118.75 79.0625 C119.86117187 79.07087891 120.97234375 79.07925781 122.1171875 79.08789062 C123.72207031 79.09272461 123.72207031 79.09272461 125.359375 79.09765625 C126.83615723 79.10551147 126.83615723 79.10551147 128.34277344 79.11352539 C130.95902909 79.10436159 130.95902909 79.10436159 133.22753906 78.36889648 C133.81245117 78.24716064 134.39736328 78.1254248 135 78 C135.66 78.66 136.32 79.32 137 80 C136.625 82.125 136.625 82.125 136 84 C134.68 84.33 133.36 84.66 132 85 C131.67 84.01 131.34 83.02 131 82 C122.42 82 113.84 82 105 82 C104.030625 79.669375 103.06125 77.33875 102.0625 74.9375 C89.27105145 45.33730285 67.49330155 23.94985798 38 11 C25.62508168 6.12944391 13.12518331 3.82670077 0 2 C0 1.34 0 0.68 0 0 Z " fill="#2AC1DB" transform="translate(264,132)"/>
<path d="M0 0 C2.64 0 5.28 0 8 0 C8 9.57 8 19.14 8 29 C7.67 29 7.34 29 7 29 C7 25.04 7 21.08 7 17 C-4.22 17 -15.44 17 -27 17 C-27 11.72 -27 6.44 -27 1 C-24.36 1 -21.72 1 -19 1 C-19 4.96 -19 8.92 -19 13 C-12.73 13 -6.46 13 0 13 C0 8.71 0 4.42 0 0 Z " fill="#31C5E3" transform="translate(343,235)"/>
<path d="M0 0 C0.92683594 -0.00773438 1.85367187 -0.01546875 2.80859375 -0.0234375 C6.16867414 0.46270179 7.97989051 1.15211112 10.5625 3.375 C11.19140625 6.40625 11.19140625 6.40625 11.125 9.875 C11.12693359 11.59203125 11.12693359 11.59203125 11.12890625 13.34375 C10.5625 16.375 10.5625 16.375 8.90234375 18.2578125 C5.9704964 19.65765948 3.80542638 19.77432195 0.5625 19.75 C-0.46875 19.75773437 -1.5 19.76546875 -2.5625 19.7734375 C-5.86342537 19.3159723 -7.23318765 18.88084565 -9.4375 16.375 C-9.96875 13.34375 -9.96875 13.34375 -9.9375 9.875 C-9.9478125 8.7303125 -9.958125 7.585625 -9.96875 6.40625 C-9.4375 3.375 -9.4375 3.375 -7.74609375 1.4921875 C-4.98506469 0.15605499 -3.06114046 -0.02547412 0 0 Z " fill="#242A31" transform="translate(373.4375,242.625)"/>
<path d="M0 0 C0 0.66 0 1.32 0 2 C-1.20011719 2.13535156 -2.40023437 2.27070313 -3.63671875 2.41015625 C-22.33338303 4.73657417 -39.94403703 9.98144144 -56 20 C-56.57766113 20.35900391 -57.15532227 20.71800781 -57.75048828 21.08789062 C-80.66616495 35.66305229 -95.71307166 57.22079526 -106 82 C-106.7520874 82.02505615 -107.5041748 82.0501123 -108.27905273 82.07592773 C-111.66539196 82.19150514 -115.05142613 82.31440345 -118.4375 82.4375 C-119.62150391 82.47681641 -120.80550781 82.51613281 -122.02539062 82.55664062 C-123.15009766 82.59853516 -124.27480469 82.64042969 -125.43359375 82.68359375 C-126.47572021 82.72025146 -127.51784668 82.75690918 -128.59155273 82.79467773 C-130.9499826 82.73515341 -130.9499826 82.73515341 -132 84 C-133.66617115 84.04063832 -135.33388095 84.042721 -137 84 C-137.625 82.125 -137.625 82.125 -138 80 C-137.01 79.01 -137.01 79.01 -136 78 C-134.24121094 78.35522461 -134.24121094 78.35522461 -132 79 C-130.04946236 79.14568403 -128.09534935 79.24659467 -126.140625 79.31640625 C-125.02558594 79.35830078 -123.91054687 79.40019531 -122.76171875 79.44335938 C-121.60285156 79.48267578 -120.44398437 79.52199219 -119.25 79.5625 C-117.48849609 79.62727539 -117.48849609 79.62727539 -115.69140625 79.69335938 C-112.79438549 79.79934794 -109.89728065 79.90141638 -107 80 C-106.8131665 79.41629639 -106.62633301 78.83259277 -106.43383789 78.23120117 C-97.00999817 49.29356017 -74.15619656 25.87389727 -47.40625 12.125 C-32.66310963 4.81090605 -16.59438648 -0.54407825 0 0 Z " fill="#25B9D2" transform="translate(248,132)"/>
<path d="M0 0 C1.32 0 2.64 0 4 0 C4 0.66 4 1.32 4 2 C11.92 2 19.84 2 28 2 C28.825 4.660625 29.65 7.32125 30.5 10.0625 C36.31077053 27.90406654 46.16679455 42.36757357 59 56 C59.60070312 56.67675781 60.20140625 57.35351562 60.8203125 58.05078125 C79.337662 78.05112195 109.56472075 88.72109662 136 91 C136 91.66 136 92.32 136 93 C129.86628134 93.15711989 124.40572023 92.76449399 118.4375 91.375 C117.277948 91.10876831 117.277948 91.10876831 116.0949707 90.8371582 C85.35023024 83.44047011 57.46631762 64.46446855 40.46020508 37.62841797 C34.03146348 27.10666986 28.76054274 16.04236758 26 4 C24.2984375 4.03480469 24.2984375 4.03480469 22.5625 4.0703125 C21.04167332 4.08908814 19.52083943 4.1072864 18 4.125 C16.88431641 4.15013672 16.88431641 4.15013672 15.74609375 4.17578125 C10.49451557 4.22144715 6.0483054 3.45712451 1 2 C1 2.66 1 3.32 1 4 C1.66 4.66 2.32 5.32 3 6 C1.68 5.67 0.36 5.34 -1 5 C-1 1 -1 1 0 0 Z " fill="#22B5D6" transform="translate(112,287)"/>
<path d="M0 0 C-0.5390625 1.796875 -0.5390625 1.796875 -2 4 C-4.46279446 5.23433612 -6.8168616 6.26440072 -9.375 7.25 C-28.23900057 15.01591281 -43.77375246 28.34498231 -55.23217773 45.07250977 C-56.41825792 46.76614389 -57.70247744 48.39014971 -59 50 C-59.99 50 -60.98 50 -62 50 C-62.99 50.495 -62.99 50.495 -64 51 C-60.40200379 41.17938233 -53.06730716 33.50050463 -46 26 C-45.39800781 25.32195312 -44.79601562 24.64390625 -44.17578125 23.9453125 C-36.26028484 15.39451594 -12.0522382 -4.01741273 0 0 Z " fill="#1E2A2C" transform="translate(224,151)"/>
<path d="M0 0 C2.64 0 5.28 0 8 0 C8.33 4.29 8.66 8.58 9 13 C10.381875 11.5975 11.76375 10.195 13.1875 8.75 C14.43466797 7.52216797 14.43466797 7.52216797 15.70703125 6.26953125 C17.29871445 4.69411739 18.85266339 3.08002108 20.375 1.4375 C24.6702558 -0.91466389 29.21067311 -0.30195406 34 0 C22.57142857 13.71428571 22.57142857 13.71428571 18 16 C16.62451844 16.08308638 15.24514204 16.10736016 13.8671875 16.09765625 C13.06152344 16.09443359 12.25585938 16.09121094 11.42578125 16.08789062 C10.58402344 16.07951172 9.74226562 16.07113281 8.875 16.0625 C8.02550781 16.05798828 7.17601562 16.05347656 6.30078125 16.04882812 C4.20049091 16.03702874 2.1002367 16.01909306 0 16 C0 10.72 0 5.44 0 0 Z " fill="#2FCEE8" transform="translate(204,236)"/>
<path d="M0 0 C0.49701416 0.24645264 0.99402832 0.49290527 1.50610352 0.74682617 C19.76542985 9.74524059 37.57856084 16.20864569 58 18 C58 22.62 58 27.24 58 32 C49.09 32 40.18 32 31 32 C31 31.67 31 31.34 31 31 C39.58 31 48.16 31 57 31 C56.47434165 24.68516016 56.47434165 24.68516016 55 22 C53.72382813 22.04382813 52.44765625 22.08765625 51.1328125 22.1328125 C45.83173244 22.12659787 41.00269107 21.14846948 35.875 19.875 C34.95920166 19.65054199 34.04340332 19.42608398 33.09985352 19.19482422 C20.38085576 15.95750388 9.11840835 10.99817881 -2 4 C-1.34 3.67 -0.68 3.34 0 3 C0 2.01 0 1.02 0 0 Z " fill="#1D222A" transform="translate(193,356)"/>
<path d="M0 0 C3.4375 1.9375 3.4375 1.9375 6 5 C7.06256006 9.48546347 6.5480319 12.90393619 4.5 17 C1.12704118 19.69836706 -1.69924396 20.44575974 -6 20 C-11.43209877 17.13580247 -11.43209877 17.13580247 -13 14 C-13.5811138 6.91041162 -13.5811138 6.91041162 -11.125 3.0625 C-7.52217335 -0.43436116 -4.97275774 -0.49727577 0 0 Z " fill="#272A31" transform="translate(201,316)"/>
<path d="M0 0 C1.46469727 0.00966797 1.46469727 0.00966797 2.95898438 0.01953125 C3.96638672 0.03628906 4.97378906 0.05304688 6.01171875 0.0703125 C7.03845703 0.07933594 8.06519531 0.08835938 9.12304688 0.09765625 C11.64867774 0.12115049 14.17382685 0.15400119 16.69921875 0.1953125 C14.82421875 7.0703125 14.82421875 7.0703125 13.69921875 8.1953125 C9.90293162 8.39908934 6.11313802 8.54224894 2.3125 8.625 C1.11560547 8.67140625 1.11560547 8.67140625 -0.10546875 8.71875 C-1.2035083 8.748479 -1.2035083 8.748479 -2.32373047 8.77880859 C-4.84899032 9.31080332 -5.75928356 10.15046862 -7.30078125 12.1953125 C-7.66439745 15.39669318 -7.66439745 15.39669318 -7.48828125 18.8828125 C-7.46121094 20.06230469 -7.43414062 21.24179687 -7.40625 22.45703125 C-7.37144531 23.36066406 -7.33664063 24.26429688 -7.30078125 25.1953125 C-7.96078125 24.8653125 -8.62078125 24.5353125 -9.30078125 24.1953125 C-9.30078125 21.8853125 -9.30078125 19.5753125 -9.30078125 17.1953125 C-11.61078125 17.1953125 -13.92078125 17.1953125 -16.30078125 17.1953125 C-17.01247812 10.43419224 -17.01247812 10.43419224 -15.140625 7.17578125 C-10.85431214 1.96862368 -6.84323596 -0.08003785 0 0 Z " fill="#2DD1EA" transform="translate(183.30078125,234.8046875)"/>
<path d="M0 0 C0.33 0 0.66 0 1 0 C1 3.63 1 7.26 1 11 C5.99275057 9.72278474 8.57611908 7.82669043 12 4 C12.66 4.33 13.32 4.66 14 5 C11.69 7.31 9.38 9.62 7 12 C7.33 12.66 7.66 13.32 8 14 C5.69 14 3.38 14 1 14 C1 14.66 1 15.32 1 16 C1.56847656 15.91621094 2.13695312 15.83242187 2.72265625 15.74609375 C7.75907212 15.0818586 12.01765643 14.96201176 17 16 C17.33 16.33 17.66 16.66 18 17 C20.01594582 17.23427778 22.038474 17.41336124 24.0625 17.5625 C25.16722656 17.64628906 26.27195312 17.73007813 27.41015625 17.81640625 C28.26480469 17.87699219 29.11945313 17.93757813 30 18 C30 18.99 30 19.98 30 21 C26.79226388 22.06924537 24.37015182 22.16684956 21 22.1875 C19.948125 22.20167969 18.89625 22.21585938 17.8125 22.23046875 C15 22 15 22 12 20 C12.66 20.99 13.32 21.98 14 23 C17.01728132 23.5112725 17.01728132 23.5112725 20.4375 23.5625 C26.68953282 23.79302188 26.68953282 23.79302188 30 26 C29.01 28.475 29.01 28.475 28 31 C27.34 30.34 26.68 29.68 26 29 C22.44484214 28.93762881 18.93311694 29.13501477 15.3828125 29.3203125 C12 29 12 29 9.5546875 27.1171875 C8 25 8 25 8 23 C5.69 23 3.38 23 1 23 C0.67 23.66 0.34 24.32 0 25 C0 16.75 0 8.5 0 0 Z " fill="#252035" transform="translate(283,165)"/>
<path d="M0 0 C9.24 0 18.48 0 28 0 C28 2.64 28 5.28 28 8 C21.565 8.495 21.565 8.495 15 9 C15 9.66 15 10.32 15 11 C13.948125 10.979375 12.89625 10.95875 11.8125 10.9375 C7.77343861 10.88929767 7.77343861 10.88929767 3 12 C6.96 12.33 10.92 12.66 15 13 C14.67 13.66 14.34 14.32 14 15 C4.595 15.495 4.595 15.495 -5 16 C-4.67 15.01 -4.34 14.02 -4 13 C-3.34 12.67 -2.68 12.34 -2 12 C-5.96 11.67 -9.92 11.34 -14 11 C-14 10.67 -14 10.34 -14 10 C-11.03 9.34 -8.06 8.68 -5 8 C-5 7.34 -5 6.68 -5 6 C-4.01 5.67 -3.02 5.34 -2 5 C-2 4.34 -2 3.68 -2 3 C-1.34 2.67 -0.68 2.34 0 2 C0 1.34 0 0.68 0 0 Z " fill="#3094A7" transform="translate(228,171)"/>
<path d="M0 0 C3.3 0 6.6 0 10 0 C11.33801 2.78951193 12.67057094 5.58140245 14 8.375 C14.3815625 9.1690625 14.763125 9.963125 15.15625 10.78125 C15.5171875 11.54179687 15.878125 12.30234375 16.25 13.0859375 C16.75273437 14.1385376 16.75273437 14.1385376 17.265625 15.21240234 C18 17 18 17 18 19 C15.03 19 12.06 19 9 19 C8.34 17.68 7.68 16.36 7 15 C1.06 14.67 -4.88 14.34 -11 14 C-9 8 -9 8 -8 6 C-5.71484375 5.5859375 -5.71484375 5.5859375 -2.9375 5.375 C-2.01839844 5.30023438 -1.09929687 5.22546875 -0.15234375 5.1484375 C0.91306641 5.07496094 0.91306641 5.07496094 2 5 C1.34 3.35 0.68 1.7 0 0 Z " fill="#2583BC" transform="translate(149,251)"/>
<path d="M0 0 C2.64 0 5.28 0 8 0 C8 5.28 8 10.56 8 16 C-3.22 16 -14.44 16 -26 16 C-26 11.05 -26 6.1 -26 1 C-23.69 1 -21.38 1 -19 1 C-19 4.96 -19 8.92 -19 13 C-12.73 13 -6.46 13 0 13 C0 8.71 0 4.42 0 0 Z " fill="#32CCE9" transform="translate(114,235)"/>
<path d="M0 0 C0.88506226 -0.00397797 1.77012451 -0.00795593 2.68200684 -0.01205444 C3.68985229 -0.02781525 4.69769775 -0.04357605 5.73608398 -0.05981445 C7.35963806 -0.04463272 7.35963806 -0.04463272 9.01599121 -0.02914429 C10.13284302 -0.03392792 11.24969482 -0.03871155 12.40039062 -0.04364014 C14.76071583 -0.04704124 17.12108801 -0.03782429 19.48132324 -0.01693726 C23.09681101 0.00982251 26.7091939 -0.01668093 30.32458496 -0.04867554 C32.61756057 -0.04537148 34.91053425 -0.03896534 37.20349121 -0.02914429 C38.2858606 -0.03926544 39.36822998 -0.0493866 40.48339844 -0.05981445 C41.99516663 -0.03617325 41.99516663 -0.03617325 43.53747559 -0.01205444 C44.86506897 -0.00608749 44.86506897 -0.00608749 46.21948242 0 C48.60974121 0.63491821 48.60974121 0.63491821 52.60974121 5.63491821 C33.13974121 5.63491821 13.66974121 5.63491821 -6.39025879 5.63491821 C-2.39025879 0.63491821 -2.39025879 0.63491821 0 0 Z " fill="#339DC3" transform="translate(233.3902587890625,197.36508178710938)"/>
<path d="M0 0 C2.64 0 5.28 0 8 0 C9.33819498 2.6226232 10.6707151 5.24786599 12 7.875 C12.3815625 8.62136719 12.763125 9.36773437 13.15625 10.13671875 C13.5171875 10.85214844 13.878125 11.56757813 14.25 12.3046875 C14.58515625 12.96452637 14.9203125 13.62436523 15.265625 14.30419922 C16 16 16 16 16 18 C13.03 18 10.06 18 7 18 C6.34 16.35 5.68 14.7 5 13 C-0.61 13 -6.22 13 -12 13 C-11 8 -11 8 -9 5 C-6.8359375 4.48828125 -6.8359375 4.48828125 -4.375 4.3125 C-3.14910156 4.21388672 -3.14910156 4.21388672 -1.8984375 4.11328125 C-1.27195312 4.07589844 -0.64546875 4.03851563 0 4 C0 2.68 0 1.36 0 0 Z " fill="#2489C0" transform="translate(267,252)"/>
<path d="M0 0 C1.65 0 3.3 0 5 0 C6.58203125 1.6796875 6.58203125 1.6796875 7.8125 3.875 C8.44091797 4.95394531 8.44091797 4.95394531 9.08203125 6.0546875 C10 8 10 8 10 10 C10.66 10 11.32 10 12 10 C12.268125 9.278125 12.53625 8.55625 12.8125 7.8125 C14.02618879 4.93797393 15.08983806 2.47613585 17 0 C18.65 0 20.3 0 22 0 C22 6.27 22 12.54 22 19 C20.68 19 19.36 19 18 19 C17.505 14.05 17.505 14.05 17 9 C15.68 11.31 14.36 13.62 13 16 C10.6875 15.8125 10.6875 15.8125 8 15 C6.1875 12.4375 6.1875 12.4375 5 10 C4.67 12.97 4.34 15.94 4 19 C2.68 19 1.36 19 0 19 C0 12.73 0 6.46 0 0 Z " fill="#33D0EB" transform="translate(215,286)"/>
<path d="M0 0 C1.38294718 0.01329757 2.76582404 0.03715018 4.1484375 0.0703125 C4.85484375 0.07933594 5.56125 0.08835937 6.2890625 0.09765625 C8.03399848 0.12123647 9.77876045 0.15710789 11.5234375 0.1953125 C11.1934375 1.5153125 10.8634375 2.8353125 10.5234375 4.1953125 C6.5634375 4.1953125 2.6034375 4.1953125 -1.4765625 4.1953125 C-1.4765625 5.1853125 -1.4765625 6.1753125 -1.4765625 7.1953125 C-0.32027344 7.16050781 -0.32027344 7.16050781 0.859375 7.125 C1.86226563 7.10695313 2.86515625 7.08890625 3.8984375 7.0703125 C4.89617187 7.04710937 5.89390625 7.02390625 6.921875 7 C9.5234375 7.1953125 9.5234375 7.1953125 11.5234375 9.1953125 C11.8984375 12.6328125 11.8984375 12.6328125 11.5234375 16.1953125 C9.09252604 18.84391753 7.68367726 19.1817175 4.0703125 19.48828125 C2.81734375 19.45347656 1.564375 19.41867187 0.2734375 19.3828125 C-0.98984375 19.35574219 -2.253125 19.32867187 -3.5546875 19.30078125 C-4.51890625 19.26597656 -5.483125 19.23117187 -6.4765625 19.1953125 C-6.1465625 17.5453125 -5.8165625 15.8953125 -5.4765625 14.1953125 C0.4634375 13.7003125 0.4634375 13.7003125 6.5234375 13.1953125 C6.5234375 12.8653125 6.5234375 12.5353125 6.5234375 12.1953125 C5.83636719 12.16953125 5.14929688 12.14375 4.44140625 12.1171875 C3.54035156 12.06046875 2.63929688 12.00375 1.7109375 11.9453125 C0.37095703 11.87570312 0.37095703 11.87570312 -0.99609375 11.8046875 C-3.4765625 11.1953125 -3.4765625 11.1953125 -5.3125 9.3125 C-6.4765625 7.1953125 -6.4765625 7.1953125 -6.2890625 4.5703125 C-4.96736783 0.7068973 -4.10802662 0.23078801 0 0 Z " fill="#2591C8" transform="translate(289.4765625,285.8046875)"/>
<path d="M0 0 C1.98 0 3.96 0 6 0 C7.5066972 2.7881022 9.00419804 5.58103958 10.5 8.375 C10.92925781 9.1690625 11.35851562 9.963125 11.80078125 10.78125 C12.40986328 11.92207031 12.40986328 11.92207031 13.03125 13.0859375 C13.40830078 13.7876709 13.78535156 14.4894043 14.17382812 15.21240234 C15 17 15 17 15 19 C12.625 19.1875 12.625 19.1875 10 19 C9.34 18.01 8.68 17.02 8 16 C5.67182036 15.63239269 3.3381615 15.29758419 1 15 C0.67 14.34 0.34 13.68 0 13 C-0.99 14.98 -1.98 16.96 -3 19 C-4.65 19 -6.3 19 -8 19 C-7.38188466 14.44684052 -5.53234107 10.71540233 -3.4375 6.6875 C-2.9434668 5.71973633 -2.9434668 5.71973633 -2.43945312 4.73242188 C-1.63175745 3.15214772 -0.81662387 1.57567895 0 0 Z " fill="#2374B2" transform="translate(247,286)"/>
<path d="M0 0 C1.26328125 0.03609375 2.5265625 0.0721875 3.828125 0.109375 C5.27445312 0.17898438 5.27445312 0.17898438 6.75 0.25 C6.42 1.57 6.09 2.89 5.75 4.25 C0.305 4.745 0.305 4.745 -5.25 5.25 C-5.25 7.89 -5.25 10.53 -5.25 13.25 C-2.61 13.58 0.03 13.91 2.75 14.25 C2.75 11.94 2.75 9.63 2.75 7.25 C4.4 7.25 6.05 7.25 7.75 7.25 C7.75 11.21 7.75 15.17 7.75 19.25 C5.52191841 19.35853983 3.29230068 19.43583307 1.0625 19.5 C-0.17886719 19.54640625 -1.42023438 19.5928125 -2.69921875 19.640625 C-6.87875182 19.18083038 -8.46283528 18.37246273 -11.25 15.25 C-11.87890625 12.59375 -11.87890625 12.59375 -11.8125 9.75 C-11.81378906 8.8115625 -11.81507813 7.873125 -11.81640625 6.90625 C-10.38456628 0.19141427 -6.18178204 -0.22895489 0 0 Z " fill="#2D90C1" transform="translate(274.25,285.75)"/>
<path d="M0 0 C8.25 0 16.5 0 25 0 C25 0.66 25 1.32 25 2 C29.29 2 33.58 2 38 2 C38 1.34 38 0.68 38 0 C46.25 0 54.5 0 63 0 C62.34 1.32 61.68 2.64 61 4 C41.53 4 22.06 4 2 4 C1.34 2.68 0.68 1.36 0 0 Z " fill="#2B6DA1" transform="translate(225,204)"/>
<path d="M0 0 C0.66 0 1.32 0 2 0 C2.391875 0.9075 2.78375 1.815 3.1875 2.75 C5.64004214 7.14766177 8.22707358 9.40902453 13 11 C13 11.66 13 12.32 13 13 C12.0925 13.391875 11.185 13.78375 10.25 14.1875 C5.85233823 16.64004214 3.59097547 19.22707358 2 24 C1.34 24 0.68 24 0 24 C-0.391875 23.0925 -0.78375 22.185 -1.1875 21.25 C-3.64004214 16.85233823 -6.22707358 14.59097547 -11 13 C-11 12.34 -11 11.68 -11 11 C-10.0925 10.608125 -9.185 10.21625 -8.25 9.8125 C-3.85233823 7.35995786 -1.59097547 4.77292642 0 0 Z " fill="#8F9398" transform="translate(483,472)"/>
<path d="M0 0 C2.31 0 4.62 0 7 0 C2.93072261 16.91483215 -5.84474047 31.80640401 -17 45 C-17.63164062 45.7940625 -18.26328125 46.588125 -18.9140625 47.40625 C-32.79205855 64.17795587 -55.02312729 76.74314515 -76 82 C-79.4375 82.125 -79.4375 82.125 -82 82 C-79.34848363 80.23232242 -77.61734266 79.4526952 -74.640625 78.5546875 C-44.32018525 69.12210309 -20.86271248 51.97051225 -5 24 C-1.10957641 16.5855372 2.10656331 9.38538774 3 1 C2.01 0.67 1.02 0.34 0 0 Z " fill="#9156B5" transform="translate(361,289)"/>
<path d="M0 0 C4.29 0 8.58 0 13 0 C13 2.97 13 5.94 13 9 C2.77 9 -7.46 9 -18 9 C-18 8.01 -18 7.02 -18 6 C-9.585 5.505 -9.585 5.505 -1 5 C-3.79947917 4.8046875 -6.59895833 4.609375 -9.3984375 4.4140625 C-12 4 -12 4 -14 2 C-4.58997722 0.66742597 -4.58997722 0.66742597 0 2 C0 1.34 0 0.68 0 0 Z " fill="#264755" transform="translate(243,180)"/>
<path d="M0 0 C1.32 0.66 2.64 1.32 4 2 C3.67 2.99 3.34 3.98 3 5 C2.77472775 8.18372155 2.81485838 11.37160867 2.8125 14.5625 C2.80025391 15.43841797 2.78800781 16.31433594 2.77539062 17.21679688 C2.77345703 18.05404297 2.77152344 18.89128906 2.76953125 19.75390625 C2.76542236 20.52033447 2.76131348 21.2867627 2.75708008 22.07641602 C2.83056519 24.23919287 2.83056519 24.23919287 5 26 C5 24.7625 5 23.525 5 22.25 C5 19.5 5 16.75 5 14 C6.32 14 7.64 14 9 14 C9 18.95 9 23.9 9 29 C10.23921211 27.98363023 10.23921211 27.98363023 10.11352539 25.86694336 C10.10828857 24.95050049 10.10305176 24.03405762 10.09765625 23.08984375 C10.09443359 22.10048828 10.09121094 21.11113281 10.08789062 20.09179688 C10.07951172 19.05087891 10.07113281 18.00996094 10.0625 16.9375 C10.05798828 15.89271484 10.05347656 14.84792969 10.04882812 13.77148438 C10.03699913 11.1809334 10.02051689 8.59049441 10 6 C11.32 5.67 12.64 5.34 14 5 C14.5625 6.9375 14.5625 6.9375 15 9 C14.67 9.33 14.34 9.66 14 10 C13.82996537 13.76721165 13.70263415 17.52811486 13.65820312 21.29882812 C13.44534993 27.40226964 13.44534993 27.40226964 11.08203125 30.57421875 C9 32 9 32 7 32 C7 34.64 7 37.28 7 40 C6.67 40 6.34 40 6 40 C6 36.04 6 32.08 6 28 C4.68 27.34 3.36 26.68 2 26 C-0.55029002 23.44970998 -0.30774348 22.35331837 -0.44921875 18.80859375 C-0.49240234 17.78185547 -0.53558594 16.75511719 -0.58007812 15.69726562 C-0.61552734 14.62154297 -0.65097656 13.54582031 -0.6875 12.4375 C-0.73455078 11.35791016 -0.78160156 10.27832031 -0.83007812 9.16601562 C-1.05564986 3.2826609 -1.05564986 3.2826609 -1 1 C-0.67 0.67 -0.34 0.34 0 0 Z " fill="#29A6C2" transform="translate(249,316)"/>
<path d="M0 0 C0.33 0 0.66 0 1 0 C1 5.28 1 10.56 1 16 C3.31 16 5.62 16 8 16 C8 14.35 8 12.7 8 11 C10 13 10 13 10.13525391 15.15478516 C10.08288574 16.02409668 10.03051758 16.8934082 9.9765625 17.7890625 C9.925 18.73007813 9.8734375 19.67109375 9.8203125 20.640625 C9.75585938 21.62546875 9.69140625 22.6103125 9.625 23.625 C9.56828125 24.61757813 9.5115625 25.61015625 9.453125 26.6328125 C9.31140759 29.08924767 9.15997723 31.54469735 9 34 C6.03 34 3.06 34 0 34 C0 22.78 0 11.56 0 0 Z " fill="#278ABC" transform="translate(397,236)"/>
<path d="M0 0 C1.32 0.33 2.64 0.66 4 1 C4.144375 1.969375 4.28875 2.93875 4.4375 3.9375 C4.67562341 6.86486773 4.67562341 6.86486773 6 8 C7.68183948 8.23287008 9.3712416 8.41264166 11.0625 8.5625 C11.98160156 8.64628906 12.90070313 8.73007812 13.84765625 8.81640625 C14.55792969 8.87699219 15.26820313 8.93757813 16 9 C16 9.99 16 10.98 16 12 C12.04 12 8.08 12 4 12 C3.67 13.65 3.34 15.3 3 17 C2.67 17 2.34 17 2 17 C2 13.04 2 9.08 2 5 C0.35 5 -1.3 5 -3 5 C-3 7.31 -3 9.62 -3 12 C-9.15234375 12.09765625 -9.15234375 12.09765625 -11 12 C-12 11 -12 11 -12.1328125 9.1875 C-12.13023437 8.465625 -12.12765625 7.74375 -12.125 7 C-12.12757813 6.278125 -12.13015625 5.55625 -12.1328125 4.8125 C-12 3 -12 3 -11 2 C-9.14712498 1.92773498 -7.29166122 1.9161878 -5.4375 1.9375 C-4.42558594 1.94652344 -3.41367187 1.95554687 -2.37109375 1.96484375 C-1.19740234 1.98224609 -1.19740234 1.98224609 0 2 C0 1.34 0 0.68 0 0 Z " fill="#24261C" transform="translate(280,288)"/>
<path d="M0 0 C0.33 0.99 0.66 1.98 1 3 C2.98 3 4.96 3 7 3 C7.33 3.66 7.66 4.32 8 5 C7.37915039 6.69580078 7.37915039 6.69580078 6.34765625 8.6953125 C5.98349609 9.41074219 5.61933594 10.12617188 5.24414062 10.86328125 C4.85419922 11.60964844 4.46425781 12.35601562 4.0625 13.125 C3.67642578 13.87910156 3.29035156 14.63320313 2.89257812 15.41015625 C1.93547868 17.27709097 0.96863894 19.13902628 0 21 C-2.97 21 -5.94 21 -9 21 C-6.76686274 13.55620912 -3.59727921 6.88023305 0 0 Z " fill="#2589BE" transform="translate(134,249)"/>
<path d="M0 0 C-0.64465202 4.33304076 -2.18925122 7.86672065 -4.0625 11.8125 C-4.61035156 12.97394531 -5.15820312 14.13539063 -5.72265625 15.33203125 C-6.14417969 16.21246094 -6.56570312 17.09289062 -7 18 C-9.97 18 -12.94 18 -16 18 C-14.16461042 12.12675336 -12.30310714 6.24217814 -9 1 C-6.04335481 -0.4783226 -3.25770263 -0.06032783 0 0 Z " fill="#2197C1" transform="translate(257,252)"/>
<path d="M0 0 C0.33 0 0.66 0 1 0 C1 2.97 1 5.94 1 9 C3.31 9 5.62 9 8 9 C8.77040851 15.06696699 9.09706112 20.88514973 9 27 C6.03 27 3.06 27 0 27 C0 18.09 0 9.18 0 0 Z " fill="#2681B6" transform="translate(290,243)"/>
<path d="M0 0 C2.125 0.375 2.125 0.375 4 1 C3.37398079 5.63254213 3.37398079 5.63254213 1.65625 7.3203125 C-0.49276378 9.49973685 -1.71562068 11.88095263 -3.1875 14.5625 C-14.12432926 33.59304148 -32.62836516 50.43248573 -54 57 C-56.3125 56.625 -56.3125 56.625 -58 56 C-57.29617188 55.731875 -56.59234375 55.46375 -55.8671875 55.1875 C-32.41111394 45.87856219 -15.67255325 31.59089921 -3.0625 9.625 C-1.93964809 6.85089529 -1.91797957 4.95273554 -2 2 C-1.34 1.34 -0.68 0.68 0 0 Z " fill="#6B3698" transform="translate(339,290)"/>
<path d="M0 0 C0.66 0 1.32 0 2 0 C2.36351562 0.95519531 2.72703125 1.91039062 3.1015625 2.89453125 C7.87740458 15.2612965 13.32918742 25.84757284 22 36 C22.61230469 36.74636719 23.22460938 37.49273437 23.85546875 38.26171875 C27.25262698 42.31881058 30.49092456 45.15732201 35 48 C35.70253906 48.7528125 36.40507812 49.505625 37.12890625 50.28125 C40.7013454 53.66413116 44.54966678 55.90058682 48.8125 58.3125 C49.60076172 58.76689453 50.38902344 59.22128906 51.20117188 59.68945312 C53.13017947 60.80009386 55.06302739 61.90332933 57 63 C56.01 63.495 56.01 63.495 55 64 C28.82637072 53.03162585 11.85614768 30.46064424 0.78125 5.22265625 C0 3 0 3 0 0 Z " fill="#7A3DA3" transform="translate(156,289)"/>
<path d="M0 0 C0.88602402 0.00222061 1.77204803 0.00444122 2.68492126 0.00672913 C3.68588333 0.00680466 4.6868454 0.00688019 5.71813965 0.00695801 C6.80666733 0.01211929 7.89519501 0.01728058 9.01670837 0.02259827 C10.67928932 0.02472069 10.67928932 0.02472069 12.37545776 0.02688599 C15.93168281 0.03250418 19.48784596 0.04505977 23.04405212 0.05775452 C25.44834809 0.06276717 27.85264504 0.06733048 30.25694275 0.07142639 C36.16518918 0.08163062 42.07330098 0.10120247 47.98155212 0.12025452 C47.98155212 11.01025452 47.98155212 21.90025452 47.98155212 33.12025452 C47.65155212 33.12025452 47.32155212 33.12025452 46.98155212 33.12025452 C46.98155212 22.89025452 46.98155212 12.66025452 46.98155212 2.12025452 C31.14155212 2.12025452 15.30155212 2.12025452 -1.01844788 2.12025452 C-1.01844788 3.77025452 -1.01844788 5.42025452 -1.01844788 7.12025452 C-1.67844788 7.12025452 -2.33844788 7.12025452 -3.01844788 7.12025452 C-3.06099144 5.12070706 -3.05925571 3.11983815 -3.01844788 1.12025452 C-2.01844788 0.12025452 -2.01844788 0.12025452 0 0 Z " fill="#2ECFEB" transform="translate(234.01844787597656,162.87974548339844)"/>
<path d="M0 0 C2.64 0 5.28 0 8 0 C8 5.61 8 11.22 8 17 C5.69 17 3.38 17 1 17 C1 18.65 1 20.3 1 22 C0.67 22 0.34 22 0 22 C0 14.74 0 7.48 0 0 Z " fill="#35C9E4" transform="translate(425,235)"/>
<path d="M0 0 C4.38227828 2.37373407 6.24519435 5.3820904 8 10 C8.3125 13.25 8.3125 13.25 8 16 C7.34 16.66 6.68 17.32 6 18 C5.84144531 17.32453125 5.68289062 16.6490625 5.51953125 15.953125 C4.42870384 11.78266884 3.58645385 8.68419615 0.75 5.375 C-2.85879269 3.57060365 -5.01363663 3.35933446 -9 4 C-13.12113087 7.11374332 -14.73080317 10.03859422 -16 15 C-16.99 14.67 -17.98 14.34 -19 14 C-18.63074596 7.84576594 -17.17122773 5.27296499 -13 1 C-9.05517665 -0.97241167 -4.30038811 -0.44186332 0 0 Z " fill="#2EC2E0" transform="translate(203,313)"/>
<path d="M0 0 C2.64 0 5.28 0 8 0 C8 4.29 8 8.58 8 13 C9.32 13.33 10.64 13.66 12 14 C10.26043342 15.73956658 7.8063378 15.37190386 5.4375 15.5625 C2.7459375 15.7790625 2.7459375 15.7790625 0 16 C0 10.72 0 5.44 0 0 Z " fill="#31D1EC" transform="translate(316,236)"/>
<path d="M0 0 C0.33 0.66 0.66 1.32 1 2 C1.66 2 2.32 2 3 2 C5.5175525 5.77632875 5.63802635 8.56196379 5 13 C3.5625 14.5625 3.5625 14.5625 2 16 C1.8453125 17.7015625 1.8453125 17.7015625 1.6875 19.4375 C1 23 1 23 -2.0625 25.4375 C-3.031875 25.953125 -4.00125 26.46875 -5 27 C-5.66 26.67 -6.32 26.34 -7 26 C-6.35289062 25.525625 -5.70578125 25.05125 -5.0390625 24.5625 C-2.09196057 20.85886232 -2.40443807 17.60705753 -2.375 13 C-2.3493719 11.39568083 -2.31578641 9.79146489 -2.2734375 8.1875 C-2.26747559 7.47980469 -2.26151367 6.77210938 -2.25537109 6.04296875 C-1.96106571 3.68852565 -1.16104093 2.05330636 0 0 Z " fill="#24252C" transform="translate(264,322)"/>
<path d="M0 0 C0.66 0 1.32 0 2 0 C2 5.28 2 10.56 2 16 C-7.57 16 -17.14 16 -27 16 C-27 16.66 -27 17.32 -27 18 C-28.65 18 -30.3 18 -32 18 C-32.33 16.35 -32.66 14.7 -33 13 C-31.34385343 12.61781233 -29.67542976 12.28604898 -28 12 C-27.67 12.33 -27.34 12.66 -27 13 C-25.00217874 13.15825258 -22.99911166 13.25119171 -20.99609375 13.31640625 C-19.78115234 13.35830078 -18.56621094 13.40019531 -17.31445312 13.44335938 C-16.03505859 13.48267578 -14.75566406 13.52199219 -13.4375 13.5625 C-12.15423828 13.60568359 -10.87097656 13.64886719 -9.54882812 13.69335938 C-6.36602555 13.79984719 -3.18302757 13.90046421 0 14 C0 9.38 0 4.76 0 0 Z " fill="#5CB760" transform="translate(251,374)"/>
<path d="M0 0 C0.66 0 1.32 0 2 0 C2 4.62 2 9.24 2 14 C6.58354827 13.859382 11.1667655 13.71273322 15.75 13.5625 C17.70292969 13.50352539 17.70292969 13.50352539 19.6953125 13.44335938 C20.94570313 13.40146484 22.19609375 13.35957031 23.484375 13.31640625 C24.63647461 13.27974854 25.78857422 13.24309082 26.97558594 13.20532227 C29.4836426 13.03505462 31.58452649 12.60956861 34 12 C35 13 35 13 35.0625 15.5625 C35.041875 16.366875 35.02125 17.17125 35 18 C33.125 18.625 33.125 18.625 31 19 C30.34 18.34 29.68 17.68 29 17 C25.99027343 16.62703444 25.99027343 16.62703444 22.4609375 16.5859375 C21.15898437 16.54726563 19.85703125 16.50859375 18.515625 16.46875 C17.13542138 16.43729237 15.75521296 16.40604509 14.375 16.375 C12.98695459 16.33682066 11.59893289 16.29776895 10.2109375 16.2578125 C6.80751973 16.16327312 3.40377788 16.08053771 0 16 C0 10.72 0 5.44 0 0 Z " fill="#58AD5F" transform="translate(258,374)"/>
<path d="M0 0 C0 0.66 0 1.32 0 2 C-1.20011719 2.13535156 -2.40023437 2.27070313 -3.63671875 2.41015625 C-20.6623949 4.52995046 -36.85636878 8.83379936 -51.6015625 17.8125 C-54 19 -54 19 -57 18 C-40.48775833 6.99183889 -20.02562365 -0.65657782 0 0 Z " fill="#2EC0DA" transform="translate(248,132)"/>
<path d="M0 0 C1.38294718 0.01329757 2.76582404 0.03715018 4.1484375 0.0703125 C4.85484375 0.07933594 5.56125 0.08835937 6.2890625 0.09765625 C8.03399848 0.12123647 9.77876045 0.15710789 11.5234375 0.1953125 C11.1934375 1.5153125 10.8634375 2.8353125 10.5234375 4.1953125 C6.5634375 4.1953125 2.6034375 4.1953125 -1.4765625 4.1953125 C-1.4765625 5.1853125 -1.4765625 6.1753125 -1.4765625 7.1953125 C2.1534375 7.1953125 5.7834375 7.1953125 9.5234375 7.1953125 C9.8534375 7.8553125 10.1834375 8.5153125 10.5234375 9.1953125 C8.25286373 9.24930237 5.98192462 9.28809992 3.7109375 9.3203125 C1.81408203 9.35511719 1.81408203 9.35511719 -0.12109375 9.390625 C-3.4765625 9.1953125 -3.4765625 9.1953125 -6.4765625 7.1953125 C-5.70919977 2.33534853 -5.36869321 0.30161198 0 0 Z " fill="#2CD0E7" transform="translate(289.4765625,285.8046875)"/>
<path d="M0 0 C1.65 0 3.3 0 5 0 C5 6.27 5 12.54 5 19 C3.68 19 2.36 19 1 19 C0.67 15.7 0.34 12.4 0 9 C-0.99 9.495 -0.99 9.495 -2 10 C-2.66 9.67 -3.32 9.34 -4 9 C-2.94124926 5.59687262 -1.99097846 2.98646769 0 0 Z " fill="#2ECEEC" transform="translate(232,286)"/>
<path d="M0 0 C0.99 0.33 1.98 0.66 3 1 C2.67 2.32 2.34 3.64 2 5 C1.01 4.67 0.02 4.34 -1 4 C-2.53949329 3.90817058 -4.08277855 3.86997648 -5.625 3.875 C-6.42164063 3.87242187 -7.21828125 3.86984375 -8.0390625 3.8671875 C-10.00353536 3.78429926 -10.00353536 3.78429926 -11 5 C-5.68468311 6.77410051 -1.14381195 7.2577668 4.4375 7.125 C5.16904297 7.11597656 5.90058594 7.10695312 6.65429688 7.09765625 C8.43634298 7.07436153 10.21821759 7.0385019 12 7 C12 8.32 12 9.64 12 11 C9.35375716 10.85978195 6.70815422 10.71310224 4.0625 10.5625 C3.30775391 10.52318359 2.55300781 10.48386719 1.77539062 10.44335938 C-3.88671875 10.11328125 -3.88671875 10.11328125 -5 9 C-10.3961507 8.1479762 -15.54257708 7.90254602 -21 8 C-21 7.34 -21 6.68 -21 6 C-19.906875 5.896875 -18.81375 5.79375 -17.6875 5.6875 C-14.08983863 5.39307401 -14.08983863 5.39307401 -12.58984375 3.49609375 C-10.41280029 1.44742632 -8.81822703 1.5380359 -5.875 1.375 C-2.63088186 1.43466212 -2.63088186 1.43466212 0 0 Z " fill="#54B657" transform="translate(305,173)"/>
<path d="M0 0 C1.02613403 0.23771118 1.02613403 0.23771118 2.07299805 0.48022461 C5.35452412 1.0629562 8.50059921 1.21367487 11.83203125 1.31640625 C13.12431641 1.35830078 14.41660156 1.40019531 15.74804688 1.44335938 C17.10286192 1.48316352 18.45767967 1.52287591 19.8125 1.5625 C21.18686105 1.60573723 22.56121024 1.64935312 23.93554688 1.69335938 C27.29024904 1.79929734 30.64511143 1.90013948 34 2 C34 6.29 34 10.58 34 15 C33.34 15 32.68 15 32 15 C32 11.37 32 7.74 32 4 C22.76 4.33 13.52 4.66 4 5 C4 4.01 4 3.02 4 2 C3.01 2 2.02 2 1 2 C1 2.99 1 3.98 1 5 C1.66 5.33 2.32 5.66 3 6 C1.68 5.67 0.36 5.34 -1 5 C-0.67 3.35 -0.34 1.7 0 0 Z " fill="#60BF64" transform="translate(219,123)"/>
<path d="M0 0 C2.31 0 4.62 0 7 0 C2.49953315 18.70716444 -7.80743553 37.92498489 -23 50 C-21.6777028 47.07568889 -20.22872741 45.04301762 -18 42.75 C-7.98713827 31.50382128 1.30434505 16.10847617 3 1 C2.01 0.67 1.02 0.34 0 0 Z " fill="#A766C0" transform="translate(361,289)"/>
<path d="M0 0 C2.52620107 2.40518545 3.82968929 4.45684694 5.1875 7.6875 C5.53167969 8.49574219 5.87585938 9.30398437 6.23046875 10.13671875 C6.48441406 10.75160156 6.73835938 11.36648438 7 12 C6.00419922 11.9690625 6.00419922 11.9690625 4.98828125 11.9375 C-0.44653578 11.95586224 -0.44653578 11.95586224 -4.77734375 14.84765625 C-6.00071678 16.85824323 -7.06562701 18.84110662 -8 21 C-8.33 20.34 -8.66 19.68 -9 19 C-8.28735352 17.02880859 -8.28735352 17.02880859 -7.12890625 14.6484375 C-6.71962891 13.79765625 -6.31035156 12.946875 -5.88867188 12.0703125 C-5.45103516 11.18085938 -5.01339844 10.29140625 -4.5625 9.375 C-4.12873047 8.4778125 -3.69496094 7.580625 -3.24804688 6.65625 C-2.17237245 4.43397755 -1.08945069 2.21554281 0 0 Z " fill="#252329" transform="translate(261,245)"/>
<path d="M0 0 C0.33 0.66 0.66 1.32 1 2 C1.66 2 2.32 2 3 2 C3 1.34 3 0.68 3 0 C3.66 0 4.32 0 5 0 C5 0.66 5 1.32 5 2 C7.97 2 10.94 2 14 2 C14.33 1.34 14.66 0.68 15 0 C15 0.66 15 1.32 15 2 C19.95 2 24.9 2 30 2 C30 2.33 30 2.66 30 3 C24.39 3 18.78 3 13 3 C13 3.66 13 4.32 13 5 C18.61 5 24.22 5 30 5 C30 5.33 30 5.66 30 6 C23.4 6 16.8 6 10 6 C10 6.66 10 7.32 10 8 C13.96 8 17.92 8 22 8 C22 8.33 22 8.66 22 9 C16.39 9 10.78 9 5 9 C5.99 8.67 6.98 8.34 8 8 C8 7.34 8 6.68 8 6 C7.071875 6.309375 7.071875 6.309375 6.125 6.625 C5.42375 6.74875 4.7225 6.8725 4 7 C3.34 6.34 2.68 5.68 2 5 C4.64 5 7.28 5 10 5 C10 4.34 10 3.68 10 3 C7.03 3 4.06 3 1 3 C0.67 3.66 0.34 4.32 0 5 C0 4.34 0 3.68 0 3 C-0.66 2.67 -1.32 2.34 -2 2 C-1.34 2 -0.68 2 0 2 C0 1.34 0 0.68 0 0 Z " fill="#20070C" transform="translate(213,171)"/>
<path d="M0 0 C0 0.99 0 1.98 0 3 C0.99 3 1.98 3 3 3 C3.33 2.34 3.66 1.68 4 1 C3.67 2.32 3.34 3.64 3 5 C2.30688721 4.84152588 1.61377441 4.68305176 0.8996582 4.51977539 C-2.22964465 3.95883527 -5.21741889 3.78899558 -8.39453125 3.68359375 C-9.59658203 3.64169922 -10.79863281 3.59980469 -12.03710938 3.55664062 C-13.28298828 3.51732422 -14.52886719 3.47800781 -15.8125 3.4375 C-17.71032227 3.37272461 -17.71032227 3.37272461 -19.64648438 3.30664062 C-22.76421889 3.2007553 -25.88203035 3.09867595 -29 3 C-29 6.63 -29 10.26 -29 14 C-29.66 14 -30.32 14 -31 14 C-31 9.71 -31 5.42 -31 1 C-26.9065863 0.85726577 -22.81316621 0.71473966 -18.71972656 0.57275391 C-17.3268186 0.52437552 -15.93391492 0.47587355 -14.54101562 0.42724609 C-12.54037587 0.3574232 -10.53971941 0.28807969 -8.5390625 0.21875 C-6.73236084 0.1559082 -6.73236084 0.1559082 -4.88916016 0.09179688 C-3.25997501 0.04003301 -1.63000728 0 0 0 Z " fill="#60B463" transform="translate(289,124)"/>
<path d="M0 0 C1.26328125 0.03609375 2.5265625 0.0721875 3.828125 0.109375 C5.27445312 0.17898438 5.27445312 0.17898438 6.75 0.25 C6.42 1.57 6.09 2.89 5.75 4.25 C0.305 4.745 0.305 4.745 -5.25 5.25 C-5.91 7.56 -6.57 9.87 -7.25 12.25 C-7.58 11.59 -7.91 10.93 -8.25 10.25 C-8.91 10.25 -9.57 10.25 -10.25 10.25 C-10.58 11.24 -10.91 12.23 -11.25 13.25 C-11.35884119 11.83506449 -11.43597617 10.41767057 -11.5 9 C-11.54640625 8.21109375 -11.5928125 7.4221875 -11.640625 6.609375 C-11.25 4.25 -11.25 4.25 -9.6875 1.96875 C-6.34412297 -0.38875944 -4.04641423 -0.14986719 0 0 Z " fill="#2EC5E1" transform="translate(274.25,285.75)"/>
<path d="M0 0 C2.0625 0.4375 2.0625 0.4375 4 1 C3.83862549 1.57363281 3.67725098 2.14726562 3.51098633 2.73828125 C3.00912719 4.9596014 2.86017389 6.91534215 2.82421875 9.1875 C2.80037109 9.96867187 2.77652344 10.74984375 2.75195312 11.5546875 C2.7089914 13.18462924 2.67773656 14.81492168 2.65820312 16.4453125 C2.44683268 22.4030097 2.44683268 22.4030097 0.08203125 25.5625 C-2 27 -2 27 -4 27 C-4 29.64 -4 32.28 -4 35 C-4.33 35 -4.66 35 -5 35 C-5.12886183 27.59760355 -4.79725902 20.36040917 -4 13 C-3.67 13 -3.34 13 -3 13 C-2.67 16.63 -2.34 20.26 -2 24 C-0.7610821 22.9856737 -0.7610821 22.9856737 -0.90234375 20.8828125 C-0.91394531 19.97273438 -0.92554688 19.06265625 -0.9375 18.125 C-0.94523437 17.14015625 -0.95296875 16.1553125 -0.9609375 15.140625 C-0.97382813 14.10421875 -0.98671875 13.0678125 -1 12 C-1.02539322 9.95838496 -1.04646563 7.91671 -1.0625 5.875 C-1.07410156 4.96492188 -1.08570313 4.05484375 -1.09765625 3.1171875 C-1 1 -1 1 0 0 Z " fill="#237897" transform="translate(260,321)"/>
<path d="M0 0 C3.78495275 3.35114728 5.06630313 7.39913504 7 12 C3.37 12 -0.26 12 -4 12 C-4.268125 12.928125 -4.53625 13.85625 -4.8125 14.8125 C-5.91148371 17.76240366 -6.62418561 19.05615186 -9 21 C-7.50640515 16.15713185 -5.54966433 11.68649104 -3.375 7.125 C-2.88773438 6.09246094 -2.88773438 6.09246094 -2.390625 5.0390625 C-1.59676528 3.35794781 -0.79880442 1.67877079 0 0 Z " fill="#241C22" transform="translate(145,245)"/>
<path d="M0 0 C8.91 0 17.82 0 27 0 C27 3.63 27 7.26 27 11 C16.82142857 12.33928571 16.82142857 12.33928571 13 10 C14 8.5 14 8.5 16 7 C18.71846235 6.72654521 21.25677199 6.86508715 24 7 C24.66 5.02 25.32 3.04 26 1 C17.42 1.33 8.84 1.66 0 2 C0 1.34 0 0.68 0 0 Z " fill="#1C152B" transform="translate(224,127)"/>
<path d="M0 0 C2.0625 0.4375 2.0625 0.4375 4 1 C4.625 2.875 4.625 2.875 5 5 C4.34 5.66 3.68 6.32 3 7 C0.875 6.625 0.875 6.625 -1 6 C-1 5.34 -1 4.68 -1 4 C-9.58 4 -18.16 4 -27 4 C-26.67 3.01 -26.34 2.02 -26 1 C-25.2479126 1.00523682 -24.4958252 1.01047363 -23.72094727 1.01586914 C-20.33480658 1.03657227 -16.94867916 1.04963877 -13.5625 1.0625 C-12.37849609 1.07087891 -11.19449219 1.07925781 -9.97460938 1.08789062 C-8.84990234 1.09111328 -7.72519531 1.09433594 -6.56640625 1.09765625 C-5.00321655 1.10551147 -5.00321655 1.10551147 -3.40844727 1.11352539 C-1.04871253 1.27305556 -1.04871253 1.27305556 0 0 Z " fill="#27A4C5" transform="translate(396,210)"/>
<path d="M0 0 C19.47 0 38.94 0 59 0 C59 0.33 59 0.66 59 1 C51.41 1 43.82 1 36 1 C36 1.66 36 2.32 36 3 C31.71 3 27.42 3 23 3 C23 2.34 23 1.68 23 1 C15.41 1 7.82 1 0 1 C0 0.67 0 0.34 0 0 Z " fill="#210F12" transform="translate(227,203)"/>
<path d="M0 0 C1.98 0 3.96 0 6 0 C10 6.75 10 6.75 10 9 C8.1875 9.6875 8.1875 9.6875 6 10 C4.25 8.5625 4.25 8.5625 3 7 C2.01 7.99 1.02 8.98 0 10 C-0.99 9.67 -1.98 9.34 -3 9 C-2.44271087 5.65626525 -1.64826111 2.96687001 0 0 Z " fill="#31CCE5" transform="translate(247,286)"/>
<path d="M0 0 C8.91 0 17.82 0 27 0 C27 0.33 27 0.66 27 1 C18.42 1 9.84 1 1 1 C1 3.97 1 6.94 1 10 C4.3 10 7.6 10 11 10 C11 9.34 11 8.68 11 8 C14.375 7.8125 14.375 7.8125 18 8 C18.99 9.485 18.99 9.485 20 11 C16.08049902 13.78490859 12.21387984 12.81114407 7.75 12.125 C7.00492187 12.02058594 6.25984375 11.91617188 5.4921875 11.80859375 C3.65985489 11.55018787 1.82967766 11.27657918 0 11 C0 7.37 0 3.74 0 0 Z " fill="#191729" transform="translate(260,127)"/>
<path d="M0 0 C3.63 0 7.26 0 11 0 C10.01 0.495 10.01 0.495 9 1 C9 3.64 9 6.28 9 9 C2.84765625 9.09765625 2.84765625 9.09765625 1 9 C0 8 0 8 -0.09765625 6.15234375 C-0.06510417 4.1015625 -0.03255208 2.05078125 0 0 Z " fill="#252729" transform="translate(268,291)"/>
<path d="M0 0 C1.02577148 0.00676758 1.02577148 0.00676758 2.07226562 0.01367188 C3.73571604 0.0253044 5.3991205 0.04323306 7.0625 0.0625 C7.0625 0.7225 7.0625 1.3825 7.0625 2.0625 C5.4125 2.3925 3.7625 2.7225 2.0625 3.0625 C6.0225 3.3925 9.9825 3.7225 14.0625 4.0625 C13.7325 4.7225 13.4025 5.3825 13.0625 6.0625 C3.6575 6.5575 3.6575 6.5575 -5.9375 7.0625 C-5.6075 6.0725 -5.2775 5.0825 -4.9375 4.0625 C-4.2775 3.7325 -3.6175 3.4025 -2.9375 3.0625 C-6.8975 2.7325 -10.8575 2.4025 -14.9375 2.0625 C-14.9375 1.7325 -14.9375 1.4025 -14.9375 1.0625 C-9.89895894 0.23038724 -5.1249338 -0.0453534 0 0 Z " fill="#2E8399" transform="translate(228.9375,179.9375)"/>
<path d="M0 0 C10.89 0 21.78 0 33 0 C33 0.66 33 1.32 33 2 C26.565 2.495 26.565 2.495 20 3 C20 3.66 20 4.32 20 5 C13.125 4.125 13.125 4.125 12 3 C9.98405418 2.76572222 7.961526 2.58663876 5.9375 2.4375 C4.83277344 2.35371094 3.72804687 2.26992187 2.58984375 2.18359375 C1.73519531 2.12300781 0.88054687 2.06242188 0 2 C0 1.34 0 0.68 0 0 Z " fill="#3292A6" transform="translate(223,177)"/>
<path d="M0 0 C1.77246094 0.35522461 1.77246094 0.35522461 4 1 C5.87756738 1.14507848 7.75876493 1.24633699 9.640625 1.31640625 C10.71054688 1.35830078 11.78046875 1.40019531 12.8828125 1.44335938 C13.99398437 1.48267578 15.10515625 1.52199219 16.25 1.5625 C17.93996094 1.62727539 17.93996094 1.62727539 19.6640625 1.69335938 C22.44258954 1.79932015 25.22120391 1.90139142 28 2 C27.67 2.66 27.34 3.32 27 4 C26.00818726 4.03758423 26.00818726 4.03758423 24.99633789 4.07592773 C22.01817695 4.19153102 19.0403608 4.31441754 16.0625 4.4375 C14.50112305 4.49647461 14.50112305 4.49647461 12.90820312 4.55664062 C11.42416992 4.61948242 11.42416992 4.61948242 9.91015625 4.68359375 C8.99371338 4.72025146 8.07727051 4.75690918 7.13305664 4.79467773 C5.0179272 4.77003864 5.0179272 4.77003864 4 6 C2.33382885 6.04063832 0.66611905 6.042721 -1 6 C-1.625 4.125 -1.625 4.125 -2 2 C-1.34 1.34 -0.68 0.68 0 0 Z " fill="#289BBE" transform="translate(112,210)"/>
<path d="M0 0 C1.65 0.33 3.3 0.66 5 1 C4.74412595 2.77305664 4.46972261 4.54344608 4.1875 6.3125 C4.03667969 7.29863281 3.88585937 8.28476562 3.73046875 9.30078125 C2.93980781 12.2224214 2.11279073 12.97240245 0 15 C-0.42521063 16.94667205 -0.42521063 16.94667205 -0.4375 19 C-0.62109375 21.15234375 -0.62109375 21.15234375 -1 23 C-2.31337396 24.0260734 -3.64664105 25.02727325 -5 26 C-5.81314911 29.60465748 -5.81314911 29.60465748 -6 33 C-6.33 33 -6.66 33 -7 33 C-7.26373626 27.63736264 -7.26373626 27.63736264 -7 25 C-5.5625 23.4375 -5.5625 23.4375 -4 22 C-3.835 20.845 -3.67 19.69 -3.5 18.5 C-3 15 -3 15 -1.4375 13.5625 C0.68328906 11.2572945 0.22660275 9.02889655 0.10546875 6.03515625 C0.07066406 5.36355469 0.03585937 4.69195312 0 4 C0 2.68 0 1.36 0 0 Z " fill="#2194BF" transform="translate(268,323)"/>
<path d="M0 0 C3.94139078 1.66751148 6.7892812 4.22710649 10 7 C9.67 8.32 9.34 9.64 9 11 C7.68 11.33 6.36 11.66 5 12 C2.80397934 9.79124879 0.73919133 7.59005725 -1 5 C-0.875 2.0625 -0.875 2.0625 0 0 Z " fill="#2971B6" transform="translate(211,338)"/>
<path d="M0 0 C3 3.75 3 3.75 3 6 C1.02 6 -0.96 6 -3 6 C-3.309375 6.94875 -3.61875 7.8975 -3.9375 8.875 C-5 12 -5 12 -6 14 C-7.65 14 -9.3 14 -11 14 C-10.39301257 9.87248551 -8.96189209 6.6678852 -7 3 C-5.35 3.33 -3.7 3.66 -2 4 C-1.34 2.68 -0.68 1.36 0 0 Z " fill="#288DC4" transform="translate(250,291)"/>
<path d="M0 0 C1.67542976 0.28604898 3.34385343 0.61781233 5 1 C4.67 2.65 4.34 4.3 4 6 C3.27981689 5.84152588 2.55963379 5.68305176 1.81762695 5.51977539 C-0.85282412 5.02714994 -3.37204546 4.79997351 -6.08203125 4.68359375 C-7.01337891 4.64169922 -7.94472656 4.59980469 -8.90429688 4.55664062 C-9.86400391 4.51732422 -10.82371094 4.47800781 -11.8125 4.4375 C-12.79154297 4.39431641 -13.77058594 4.35113281 -14.77929688 4.30664062 C-17.18607027 4.2009774 -19.59293983 4.09887673 -22 4 C-19.21131036 2.44006576 -17.11422444 1.73773954 -13.92578125 1.62109375 C-13.17619141 1.58693359 -12.42660156 1.55277344 -11.65429688 1.51757812 C-10.88150391 1.49115234 -10.10871094 1.46472656 -9.3125 1.4375 C-4.25467362 1.69933622 -4.25467362 1.69933622 0 0 Z " fill="#209BC2" transform="translate(396,287)"/>
<path d="M0 0 C8.85314159 3.67715136 14.9472202 14.23480159 20 22 C20.59425781 22.90621094 21.18851562 23.81242187 21.80078125 24.74609375 C25.01783152 29.84160555 25.01783152 29.84160555 26 32 C25.67 32.99 25.34 33.98 25 35 C24.71914551 34.51233154 24.43829102 34.02466309 24.14892578 33.5222168 C17.67188228 22.36672463 11.13212527 12.75418359 1.71484375 3.8359375 C0 2 0 2 0 0 Z " fill="#BE70D8" transform="translate(334,169)"/>
<path d="M0 0 C14.19 0 28.38 0 43 0 C43 0.33 43 0.66 43 1 C42.15236084 1.03758423 42.15236084 1.03758423 41.28759766 1.07592773 C38.73316258 1.19179956 36.1791045 1.31456537 33.625 1.4375 C32.29082031 1.49647461 32.29082031 1.49647461 30.9296875 1.55664062 C30.07890625 1.59853516 29.228125 1.64042969 28.3515625 1.68359375 C27.56604004 1.72025146 26.78051758 1.75690918 25.97119141 1.79467773 C23.92476504 1.890891 23.92476504 1.890891 22 3 C20.3303193 3.01614884 18.65971714 2.96515778 16.9921875 2.87890625 C16.00605469 2.83056641 15.01992187 2.78222656 14.00390625 2.73242188 C12.45509766 2.64831055 12.45509766 2.64831055 10.875 2.5625 C9.83472656 2.51029297 8.79445312 2.45808594 7.72265625 2.40429688 C5.14814884 2.27439054 2.57400704 2.13941748 0 2 C0 1.34 0 0.68 0 0 Z " fill="#30D7ED" transform="translate(235,167)"/>
<path d="M0 0 C-11.06571731 3.19702494 -21.41765098 5.79216013 -33 6 C-33 5.34 -33 4.68 -33 4 C-31.74445313 3.81824219 -30.48890625 3.63648438 -29.1953125 3.44921875 C-17.34852317 1.76775906 -17.34852317 1.76775906 -5.91015625 -1.64453125 C-3.36403984 -2.11834841 -2.22419042 -1.20896862 0 0 Z " fill="#23A7CC" transform="translate(297,374)"/>
<path d="M0 0 C11.38552641 1.52909066 23.86146139 13.49773033 30.83984375 22.328125 C31.22269531 22.87984375 31.60554688 23.4315625 32 24 C28.33021776 22.45260334 25.96660576 20.19705332 23.125 17.4375 C18.30232206 12.95279949 13.3022714 9.37770397 7.68408203 5.95678711 C4.80519353 4.20019801 2.2358031 2.54721853 0 0 Z " fill="#38CFE9" transform="translate(313,147)"/>
<path d="M0 0 C1.32 0 2.64 0 4 0 C4 0.66 4 1.32 4 2 C11.92 2 19.84 2 28 2 C27.34 3.32 26.68 4.64 26 6 C26 5.34 26 4.68 26 4 C24.2984375 4.03480469 24.2984375 4.03480469 22.5625 4.0703125 C21.04167332 4.08908814 19.52083943 4.1072864 18 4.125 C16.88431641 4.15013672 16.88431641 4.15013672 15.74609375 4.17578125 C10.49451557 4.22144715 6.0483054 3.45712451 1 2 C1 2.66 1 3.32 1 4 C1.66 4.66 2.32 5.32 3 6 C1.68 5.67 0.36 5.34 -1 5 C-1 1 -1 1 0 0 Z " fill="#2096BD" transform="translate(112,287)"/>
<path d="M0 0 C2.64 0 5.28 0 8 0 C8.04241723 2.33294775 8.04092937 4.66702567 8 7 C7 8 7 8 3.4375 8.0625 C2.303125 8.041875 1.16875 8.02125 0 8 C0 5.36 0 2.72 0 0 Z " fill="#2F3B45" transform="translate(359,143)"/>
<path d="M0 0 C4.95 0.33 9.9 0.66 15 1 C15 1.99 15 2.98 15 4 C11.99686252 5.50156874 9.20932478 5.09281204 5.875 5.0625 C4.59367187 5.05347656 3.31234375 5.04445313 1.9921875 5.03515625 C0.51105469 5.01775391 0.51105469 5.01775391 -1 5 C-0.67 3.35 -0.34 1.7 0 0 Z " fill="#2562AC" transform="translate(284,300)"/>
<path d="M0 0 C3.25 -0.3125 3.25 -0.3125 7 0 C7.88171875 1.2375 7.88171875 1.2375 8.78125 2.5 C10.83421187 5.3567293 10.83421187 5.3567293 14.453125 5.48828125 C15.70609375 5.43027344 16.9590625 5.37226563 18.25 5.3125 C19.51328125 5.26738281 20.7765625 5.22226563 22.078125 5.17578125 C23.52445312 5.08876953 23.52445312 5.08876953 25 5 C25.33 6.32 25.66 7.64 26 9 C23.60054192 8.96679995 21.21011893 8.89948338 18.8125 8.8125 C18.13896484 8.80669922 17.46542969 8.80089844 16.77148438 8.79492188 C12.81971623 8.62142961 11.19733192 8.177377 8.21875 5.5 C7.4865625 4.675 6.754375 3.85 6 3 C2.81849108 2.12010026 2.81849108 2.12010026 0 2 C0 1.34 0 0.68 0 0 Z " fill="#51A754" transform="translate(284,188)"/>
<path d="M0 0 C1.65 0.99 3.3 1.98 5 3 C3.125 8.75 3.125 8.75 2 11 C-0.31 11 -2.62 11 -5 11 C-3.35 7.37 -1.7 3.74 0 0 Z " fill="#2A6FB9" transform="translate(247,258)"/>
<path d="M0 0 C1.95803507 -0.05389087 3.91648909 -0.09274217 5.875 -0.125 C7.51082031 -0.15980469 7.51082031 -0.15980469 9.1796875 -0.1953125 C12 0 12 0 14 2 C16.58064129 2.14497985 19.04943884 2.18677545 21.625 2.125 C22.33140625 2.11597656 23.0378125 2.10695312 23.765625 2.09765625 C25.51056098 2.07407603 27.25532295 2.03820461 29 2 C29 3.32 29 4.64 29 6 C26.37251369 5.94014838 23.75083005 5.85323776 21.125 5.75 C20.37863281 5.73582031 19.63226563 5.72164062 18.86328125 5.70703125 C16.6953125 5.609375 16.6953125 5.609375 13 5 C12.34 3.68 11.68 2.36 11 1 C7.37 1 3.74 1 0 1 C0 0.67 0 0.34 0 0 Z " fill="#53B858" transform="translate(284,184)"/>
<path d="M0 0 C2.64 0 5.28 0 8 0 C8 2.31 8 4.62 8 7 C5.36 7 2.72 7 0 7 C0 4.69 0 2.38 0 0 Z " fill="#2F3944" transform="translate(179,135)"/>
<path d="M0 0 C2.59031278 0.32640936 5.02122233 0.75529835 7.5625 1.3125 C9.01120626 1.60928357 10.46042627 1.90357067 11.91015625 2.1953125 C12.96227295 2.40849121 12.96227295 2.40849121 14.03564453 2.62597656 C17.67259106 3.31846999 21.31535515 3.67101385 25 4 C25 4.66 25 5.32 25 6 C18.4576343 6.20956527 12.78261159 5.54580496 6.4375 4 C5.61958984 3.80921875 4.80167969 3.6184375 3.95898438 3.421875 C1.97056956 2.95674873 -0.01503756 2.47964573 -2 2 C-1.34 1.34 -0.68 0.68 0 0 Z " fill="#24A6C7" transform="translate(223,374)"/>
<path d="M0 0 C1.32 0.66 2.64 1.32 4 2 C2.50138964 8.74374661 -0.00164947 12.59364394 -5.16015625 17.17578125 C-7.01941979 19.01925487 -7.98074431 20.60765375 -9 23 C-9.25 20.75 -9.25 20.75 -9 18 C-7.09394887 15.7535826 -4.98003485 13.98280779 -2.75 12.0625 C-0.77393924 10.12928022 -0.77393924 10.12928022 -0.75 7.5 C-0.8325 6.675 -0.915 5.85 -1 5 C-1 1 -1 1 0 0 Z " fill="#2493BB" transform="translate(276,333)"/>
<path d="M0 0 C0.66 0.66 1.32 1.32 2 2 C1.38511719 3.14597656 0.77023438 4.29195312 0.13671875 5.47265625 C-0.67983671 7.00252453 -1.49623459 8.53247694 -2.3125 10.0625 C-2.71662109 10.81466797 -3.12074219 11.56683594 -3.53710938 12.34179688 C-5.92166126 16.82010163 -8.07370984 21.30583659 -10 26 C-10.99 25.67 -11.98 25.34 -13 25 C-9.5434507 17.97658599 -5.98326489 11.03268445 -2.19921875 4.1796875 C-1.44033465 2.80034768 -0.7040573 1.4081146 0 0 Z " fill="#29AECC" transform="translate(152,188)"/>
<path d="M0 0 C2.05859375 -0.3984375 2.05859375 -0.3984375 4.4375 -0.375 C5.21996094 -0.38273438 6.00242187 -0.39046875 6.80859375 -0.3984375 C9.48743699 0.08862491 10.16293148 1.06859553 12 3 C15.61023099 3.73041853 15.61023099 3.73041853 19 4 C19 4.33 19 4.66 19 5 C16.85423363 5.02685938 14.70837355 5.04633088 12.5625 5.0625 C11.36753906 5.07410156 10.17257812 5.08570313 8.94140625 5.09765625 C6 5 6 5 5 4 C2.67182036 3.63239269 0.3381615 3.29758419 -2 3 C-1.34 2.01 -0.68 1.02 0 0 Z " fill="#251737" transform="translate(295,176)"/>
<path d="M0 0 C0.33 0 0.66 0 1 0 C1.226875 1.258125 1.45375 2.51625 1.6875 3.8125 C2.47060397 6.90658213 2.78817308 7.8117094 5.25 10 C8.33663164 11.1224115 10.74140229 11.07241328 14 11 C14.66 11.66 15.32 12.32 16 13 C12.89046621 14.5547669 10.43733239 14.28644437 7 14 C3.12856085 11.87450399 -0.15499218 9.39212471 -3 6 C-3 5.01 -3 4.02 -3 3 C-2.34 3 -1.68 3 -1 3 C-0.67 2.01 -0.34 1.02 0 0 Z " fill="#267BB6" transform="translate(187,324)"/>
<path d="M0 0 C0.33 0.66 0.66 1.32 1 2 C1.66 2 2.32 2 3 2 C3.33 1.34 3.66 0.68 4 0 C4.99 0.99 5.98 1.98 7 3 C5.515 5.475 5.515 5.475 4 8 C1.6875 7.875 1.6875 7.875 -1 7 C-2.8125 3.9375 -2.8125 3.9375 -4 1 C-2.68 0.67 -1.36 0.34 0 0 Z " fill="#2584BA" transform="translate(224,294)"/>
<path d="M0 0 C0.33 0 0.66 0 1 0 C1 3.96 1 7.92 1 12 C-3.62 12 -8.24 12 -13 12 C-13 11.01 -13 10.02 -13 9 C-12.30132812 8.93941406 -11.60265625 8.87882812 -10.8828125 8.81640625 C-9.51769531 8.69072266 -9.51769531 8.69072266 -8.125 8.5625 C-7.22007812 8.48128906 -6.31515625 8.40007812 -5.3828125 8.31640625 C-2.98889139 8.13010715 -2.98889139 8.13010715 -1 7 C-0.59270772 4.67843403 -0.25561323 2.3431213 0 0 Z " fill="#2563A1" transform="translate(281,293)"/>
<path d="M0 0 C0.99 0.33 1.98 0.66 3 1 C2.67 1.33 2.34 1.66 2 2 C1.79303333 4.64326005 1.67563247 7.2283029 1.625 9.875 C1.58761719 10.60847656 1.55023438 11.34195313 1.51171875 12.09765625 C1.41688055 14.52039974 1.41688055 14.52039974 2 18 C4.37247813 20.084786 4.37247813 20.084786 7 21 C6.34 21.33 5.68 21.66 5 22 C2.96855359 21.06553465 0.96466413 20.06775224 -1 19 C-1.02683987 16.02077407 -1.04676037 13.04178705 -1.0625 10.0625 C-1.07087891 9.21236328 -1.07925781 8.36222656 -1.08789062 7.48632812 C-1.09111328 6.67744141 -1.09433594 5.86855469 -1.09765625 5.03515625 C-1.10289307 4.2862915 -1.10812988 3.53742676 -1.11352539 2.76586914 C-1 1 -1 1 0 0 Z " fill="#2B3641" transform="translate(135,185)"/>
<path d="M0 0 C2.31 0 4.62 0 7 0 C7 2.31 7 4.62 7 7 C4.69 7 2.38 7 0 7 C0 4.69 0 2.38 0 0 Z " fill="#6F4582" transform="translate(378,171)"/>
<path d="M0 0 C0.33 0 0.66 0 1 0 C1.04898438 0.61488281 1.09796875 1.22976563 1.1484375 1.86328125 C1.22320312 2.67152344 1.29796875 3.47976563 1.375 4.3125 C1.44460937 5.11300781 1.51421875 5.91351563 1.5859375 6.73828125 C1.89564426 9.27224441 1.89564426 9.27224441 4 12 C4.1953125 14.26171875 4.1953125 14.26171875 4.125 16.6875 C4.10695312 17.49574219 4.08890625 18.30398438 4.0703125 19.13671875 C4.03550781 20.05904297 4.03550781 20.05904297 4 21 C2.015625 20.07421875 2.015625 20.07421875 0 18 C-0.52339018 14.93166378 -0.37472825 11.91391602 -0.25 8.8125 C-0.23195312 7.96751953 -0.21390625 7.12253906 -0.1953125 6.25195312 C-0.14820586 4.16748427 -0.07646233 2.08359856 0 0 Z " fill="#26161B" transform="translate(251,322)"/>
<path d="M0 0 C7.26 0 14.52 0 22 0 C21.67 0.99 21.34 1.98 21 3 C13.74 2.67 6.48 2.34 -1 2 C-0.67 1.34 -0.34 0.68 0 0 Z " fill="#26B6C7" transform="translate(178,235)"/>
<path d="M0 0 C0.33 0 0.66 0 1 0 C1.08069658 2.95887459 1.14034665 5.9155659 1.1875 8.875 C1.22520508 10.13763672 1.22520508 10.13763672 1.26367188 11.42578125 C1.27333984 12.23144531 1.28300781 13.03710938 1.29296875 13.8671875 C1.3086792 14.61081543 1.32438965 15.35444336 1.34057617 16.12060547 C1.17199097 17.05090576 1.17199097 17.05090576 1 18 C0.01 18.66 -0.98 19.32 -2 20 C-2.21133202 12.95559921 -2.07965362 6.75887425 0 0 Z " fill="#25262D" transform="translate(259,326)"/>
<path d="M0 0 C0.66 0 1.32 0 2 0 C2 11.22 2 22.44 2 34 C1.67 34 1.34 34 1 34 C0.67 24.43 0.34 14.86 0 5 C-0.66 5.66 -1.32 6.32 -2 7 C-1.125 1.125 -1.125 1.125 0 0 Z " fill="#242025" transform="translate(313,236)"/>
<path d="M0 0 C3.63 0 7.26 0 11 0 C11 1.65 11 3.3 11 5 C7.7 5 4.4 5 1 5 C0.67 3.35 0.34 1.7 0 0 Z " fill="#2C748A" transform="translate(245,180)"/>
<path d="M0 0 C0.99 0 1.98 0 3 0 C3 2.97 3 5.94 3 9 C0 6 0 6 -0.1875 2.8125 C-0.125625 1.884375 -0.06375 0.95625 0 0 Z M-12 4 C-11.34 4.33 -10.68 4.66 -10 5 C-8.29636178 5.22622081 -6.58671299 5.40888473 -4.875 5.5625 C-3.96492188 5.64628906 -3.05484375 5.73007812 -2.1171875 5.81640625 C-1.41851562 5.87699219 -0.71984375 5.93757813 0 6 C0 6.33 0 6.66 0 7 C-0.92232422 7.09087891 -0.92232422 7.09087891 -1.86328125 7.18359375 C-2.67152344 7.26738281 -3.47976563 7.35117187 -4.3125 7.4375 C-5.11300781 7.51871094 -5.91351563 7.59992188 -6.73828125 7.68359375 C-9.16087179 7.95265693 -9.16087179 7.95265693 -12 9 C-12.5625 7.0625 -12.5625 7.0625 -13 5 C-12.67 4.67 -12.34 4.34 -12 4 Z " fill="#2773BE" transform="translate(278,295)"/>
<path d="M0 0 C1.98 0 3.96 0 6 0 C6 2.31 6 4.62 6 7 C4.02 7 2.04 7 0 7 C0 4.69 0 2.38 0 0 Z " fill="#8948A8" transform="translate(376,327)"/>
<path d="M0 0 C1.98 0 3.96 0 6 0 C6 2.31 6 4.62 6 7 C4.02 7 2.04 7 0 7 C0 4.69 0 2.38 0 0 Z " fill="#603E7C" transform="translate(126,325)"/>
<path d="M0 0 C0 0.66 0 1.32 0 2 C-1.61739155 3.29331861 -3.29673889 4.50956534 -5 5.6875 C-9.94858808 9.18928225 -14.5343692 12.90543881 -19 17 C-19.66 16.67 -20.32 16.34 -21 16 C-6.38906752 0 -6.38906752 0 0 0 Z " fill="#8B42B0" transform="translate(208,176)"/>
<path d="M0 0 C1.32 0 2.64 0 4 0 C4 3.3 4 6.6 4 10 C2.68 10 1.36 10 0 10 C0 6.7 0 3.4 0 0 Z " fill="#2894D7" transform="translate(233,295)"/>
<path d="M0 0 C1.32 0 2.64 0 4 0 C4 3.3 4 6.6 4 10 C2.68 10 1.36 10 0 10 C0 6.7 0 3.4 0 0 Z " fill="#267FC6" transform="translate(215,295)"/>
<path d="M0 0 C0.66 0 1.32 0 2 0 C2 0.99 2 1.98 2 3 C2.99 3 3.98 3 5 3 C5.33 2.34 5.66 1.68 6 1 C5.67 2.32 5.34 3.64 5 5 C4.28432861 4.84152588 3.56865723 4.68305176 2.83129883 4.51977539 C0.08405198 4.01543043 -2.5123923 3.79773833 -5.30078125 3.68359375 C-6.27724609 3.64169922 -7.25371094 3.59980469 -8.25976562 3.55664062 C-9.77086914 3.49766602 -9.77086914 3.49766602 -11.3125 3.4375 C-12.85260742 3.37272461 -12.85260742 3.37272461 -14.42382812 3.30664062 C-16.94909569 3.20093175 -19.47445562 3.09883532 -22 3 C-22 2.67 -22 2.34 -22 2 C-14.74 2 -7.48 2 0 2 C0 1.34 0 0.68 0 0 Z " fill="#62C869" transform="translate(287,124)"/>
<path d="M0 0 C0 0.66 0 1.32 0 2 C-2.95714663 2.38831218 -5.91483273 2.76115547 -8.875 3.125 C-10.13763672 3.29322266 -10.13763672 3.29322266 -11.42578125 3.46484375 C-12.23144531 3.56152344 -13.03710938 3.65820312 -13.8671875 3.7578125 C-14.98262939 3.89920654 -14.98262939 3.89920654 -16.12060547 4.04345703 C-18 4 -18 4 -20 2 C-13.2168636 0.57997892 -6.93302093 -0.22731216 0 0 Z " fill="#2CB2D0" transform="translate(248,132)"/>
<path d="M0 0 C0.66 1.98 1.32 3.96 2 6 C1.34 5.67 0.68 5.34 0 5 C0 4.34 0 3.68 0 3 C-1.65 3.33 -3.3 3.66 -5 4 C-4.01 4.66 -3.02 5.32 -2 6 C-4.64 6 -7.28 6 -10 6 C-10 4.68 -10 3.36 -10 2 C-6.38026598 0.68373308 -3.90432869 0 0 0 Z " fill="#2591C3" transform="translate(258,295)"/>
<path d="M0 0 C1.98 0 3.96 0 6 0 C4.68 0.33 3.36 0.66 2 1 C1.80664062 1.73605469 1.61328125 2.47210938 1.4140625 3.23046875 C1.02347656 4.69419922 1.02347656 4.69419922 0.625 6.1875 C0.36976563 7.15042969 0.11453125 8.11335938 -0.1484375 9.10546875 C-0.94766296 11.82210207 -1.9031362 14.39137175 -3 17 C-3.66 16.67 -4.32 16.34 -5 16 C-3.41078475 10.63904723 -1.81027062 5.29156027 0 0 Z " fill="#25ACD1" transform="translate(372,289)"/>
<path d="M0 0 C0 2.64 0 5.28 0 8 C-1.98 8 -3.96 8 -6 8 C-6 5.69 -6 3.38 -6 1 C-5.34 1 -4.68 1 -4 1 C-4 1.66 -4 2.32 -4 3 C-3.525625 2.505 -3.05125 2.01 -2.5625 1.5 C-1 0 -1 0 0 0 Z " fill="#2A6ABC" transform="translate(211,261)"/>
<path d="M0 0 C4.95 0.33 9.9 0.66 15 1 C14.67 1.66 14.34 2.32 14 3 C4.595 3.495 4.595 3.495 -5 4 C-4.67 3.34 -4.34 2.68 -4 2 C-2.68 2 -1.36 2 0 2 C0 1.34 0 0.68 0 0 Z " fill="#2C5D70" transform="translate(228,183)"/>
<path d="M0 0 C3.3 0 6.6 0 10 0 C11.03290841 1.93108963 12.05098672 3.870118 13.0625 5.8125 C13.63097656 6.89144531 14.19945312 7.97039062 14.78515625 9.08203125 C16 12 16 12 15 15 C13.99515796 13.04414675 12.99626195 11.08523763 12 9.125 C11.443125 8.03445313 10.88625 6.94390625 10.3125 5.8203125 C9 3 9 3 9 1 C6.56282742 1.27034634 6.56282742 1.27034634 4 2 C3.01 3.485 3.01 3.485 2 5 C1.34 3.35 0.68 1.7 0 0 Z " fill="#1DA2C0" transform="translate(149,251)"/>
<path d="M0 0 C2.89213049 2.1484398 5.15576438 4.19171001 7.4375 7 C10.14563469 10.17049915 12.47195041 11.86676071 16 14 C14.35546875 14.82421875 14.35546875 14.82421875 12 15 C9.87105057 13.32875964 8.15259021 11.75982725 6.3125 9.8125 C5.81427734 9.31685547 5.31605469 8.82121094 4.80273438 8.31054688 C2.27198797 5.7111235 0.37913445 3.69435661 0 0 Z " fill="#6D3392" transform="translate(175,323)"/>
<path d="M0 0 C1.98 0 3.96 0 6 0 C6 1.98 6 3.96 6 6 C4.02 6 2.04 6 0 6 C0 4.02 0 2.04 0 0 Z " fill="#624373" transform="translate(125,175)"/>
<path d="M0 0 C-0.33 1.32 -0.66 2.64 -1 4 C-1.70125 3.71125 -2.4025 3.4225 -3.125 3.125 C-5.96092031 2.67502531 -5.96092031 2.67502531 -7.4921875 4.26953125 C-8.50128838 5.38581642 -9.5064788 6.50564849 -10.5078125 7.62890625 C-12 9 -12 9 -14.875 9.375 C-15.57625 9.25125 -16.2775 9.1275 -17 9 C-16.46375 8.79375 -15.9275 8.5875 -15.375 8.375 C-13.12183256 7.07053464 -11.78506129 5.85755109 -10 4 C-4.62192118 -1.54064039 -4.62192118 -1.54064039 0 0 Z " fill="#60CE63" transform="translate(301,167)"/>
<path d="M0 0 C0.66 0.66 1.32 1.32 2 2 C0.41856529 3.43958847 -1.16522779 4.87658645 -2.75 6.3125 C-3.63171875 7.11300781 -4.5134375 7.91351563 -5.421875 8.73828125 C-10.05487449 12.80268535 -10.05487449 12.80268535 -12 14 C-12.99 13.67 -13.98 13.34 -15 13 C-14.33613281 12.48050781 -13.67226563 11.96101563 -12.98828125 11.42578125 C-8.41377883 7.81292606 -3.98940601 4.25536641 0 0 Z " fill="#9156AF" transform="translate(337,338)"/>
<path d="M0 0 C1.98 0.495 1.98 0.495 4 1 C3.84152588 1.57524414 3.68305176 2.15048828 3.51977539 2.74316406 C3.02086674 4.90939777 2.80111676 6.89322683 2.68359375 9.109375 C2.64169922 9.86347656 2.59980469 10.61757813 2.55664062 11.39453125 C2.49766602 12.56048828 2.49766602 12.56048828 2.4375 13.75 C2.39431641 14.54277344 2.35113281 15.33554687 2.30664062 16.15234375 C2.20097009 18.10137815 2.10002034 20.05066748 2 22 C1.67 22 1.34 22 1 22 C0.97310551 19.04160645 0.95321259 16.08345573 0.9375 13.125 C0.92912109 12.28324219 0.92074219 11.44148438 0.91210938 10.57421875 C0.90888672 9.76855469 0.90566406 8.96289062 0.90234375 8.1328125 C0.89710693 7.38918457 0.89187012 6.64555664 0.88647461 5.87939453 C1 4 1 4 2 2 C1.34 2 0.68 2 0 2 C-0.33 2.66 -0.66 3.32 -1 4 C-0.67 2.68 -0.34 1.36 0 0 Z " fill="#27BFDD" transform="translate(260,321)"/>
<path d="M0 0 C0 4.2650016 -2.44473414 6.50032379 -5 9.6875 C-5.71542969 10.59725586 -5.71542969 10.59725586 -6.4453125 11.52539062 C-7.62376394 13.02202396 -8.81105188 14.51169173 -10 16 C-10.33 15.34 -10.66 14.68 -11 14 C-9.9218837 12.41310971 -8.83726048 10.83063918 -7.75 9.25 C-7.14671875 8.36828125 -6.5434375 7.4865625 -5.921875 6.578125 C-4.10858668 4.14566506 -2.19950731 2.08271931 0 0 Z " fill="#28C1DD" transform="translate(164,173)"/>
<path d="M0 0 C6.16356805 1.6658292 11.48259656 4.87805286 17 8 C14.17640563 9.15084889 13.15391535 9.06262458 10.2734375 7.890625 C9.31695312 7.34921875 8.36046875 6.8078125 7.375 6.25 C6.41335937 5.71890625 5.45171875 5.1878125 4.4609375 4.640625 C2 3 2 3 0 0 Z " fill="#2ABCDB" transform="translate(190,360)"/>
<path d="M0 0 C0.33 0 0.66 0 1 0 C1.02505615 0.56509277 1.0501123 1.13018555 1.07592773 1.71240234 C1.19179956 4.26683742 1.31456537 6.8208955 1.4375 9.375 C1.47681641 10.26445312 1.51613281 11.15390625 1.55664062 12.0703125 C1.59853516 12.92109375 1.64042969 13.771875 1.68359375 14.6484375 C1.72025146 15.43395996 1.75690918 16.21948242 1.79467773 17.02880859 C1.890891 19.07523496 1.890891 19.07523496 3 21 C2.34 21.66 1.68 22.32 1 23 C0.01 21.68 -0.98 20.36 -2 19 C-1.67 18.34 -1.34 17.68 -1 17 C-0.76725791 14.12089412 -0.58027243 11.25853505 -0.4375 8.375 C-0.39431641 7.57320313 -0.35113281 6.77140625 -0.30664062 5.9453125 C-0.20048543 3.9637489 -0.09973145 1.98189729 0 0 Z " fill="#271D23" transform="translate(248,321)"/>
<path d="M0 0 C1.65 0.33 3.3 0.66 5 1 C4.34 4.63 3.68 8.26 3 12 C2.67 12 2.34 12 2 12 C1.01 8.37 0.02 4.74 -1 1 C-0.67 0.67 -0.34 0.34 0 0 Z " fill="#2AA3BC" transform="translate(268,323)"/>
<path d="M0 0 C1.32 0.33 2.64 0.66 4 1 C3.67 2.32 3.34 3.64 3 5 C1.02 5 -0.96 5 -3 5 C-3 4.67 -3 4.34 -3 4 C-5.64 3.67 -8.28 3.34 -11 3 C-11 2.67 -11 2.34 -11 2 C-7.37 2 -3.74 2 0 2 C0 1.34 0 0.68 0 0 Z " fill="#230D10" transform="translate(280,288)"/>
<path d="M0 0 C3.81684226 1.55500981 6.19195732 4.03595495 9 7 C8.67 7.66 8.34 8.32 8 9 C7.21625 8.175 6.4325 7.35 5.625 6.5 C3.36278736 3.77011494 3.36278736 3.77011494 1 4 C0.34 4.99 -0.32 5.98 -1 7 C-1.625 5.1875 -1.625 5.1875 -2 3 C-1.34 2.01 -0.68 1.02 0 0 Z " fill="#218BC6" transform="translate(210,335)"/>
<path d="M0 0 C2.83222793 3.37169992 4.52103176 6.85888893 6 11 C5.578125 13.21875 5.578125 13.21875 5 15 C4.15415002 13.44424022 3.32381601 11.8800388 2.5 10.3125 C2.0359375 9.44238281 1.571875 8.57226562 1.09375 7.67578125 C-0.04818792 4.88211171 -0.21504208 2.98370887 0 0 Z " fill="#27B0D0" transform="translate(364,197)"/>
<path d="M0 0 C0.33 0 0.66 0 1 0 C1 2.31 1 4.62 1 7 C1.66 7 2.32 7 3 7 C2 9 2 9 0 10.3125 C-2.49050485 12.41386347 -2.65719878 13.82908867 -3 17 C-3.33 17 -3.66 17 -4 17 C-4.1875 13.6875 -4.1875 13.6875 -4 10 C-3.02149805 8.97895449 -2.02019573 7.9793879 -1 7 C-0.26958147 3.38976901 -0.26958147 3.38976901 0 0 Z " fill="#241D20" transform="translate(271,328)"/>
<path d="M0 0 C-0.33 1.98 -0.66 3.96 -1 6 C-2.65 6 -4.3 6 -6 6 C-5.625 3.5625 -5.625 3.5625 -5 1 C-3 0 -3 0 0 0 Z " fill="#2672B3" transform="translate(245,299)"/>
<path d="M0 0 C0 1.98 0 3.96 0 6 C-1.98 6 -3.96 6 -6 6 C-6 4.68 -6 3.36 -6 2 C-1.125 0 -1.125 0 0 0 Z " fill="#2C67B8" transform="translate(94,263)"/>
<path d="M0 0 C5.15171623 -0.09038099 9.91913204 0.15318867 15 1 C11.35581659 3.42945561 10.07076636 3.0828781 5.8125 2.625 C4.72582031 2.51414063 3.63914062 2.40328125 2.51953125 2.2890625 C1.68808594 2.19367188 0.85664063 2.09828125 0 2 C0 1.34 0 0.68 0 0 Z " fill="#26B2D2" transform="translate(264,132)"/>
<path d="M0 0 C0.33 0 0.66 0 1 0 C1.375 3.25 1.375 3.25 1 7 C-2 9.4375 -2 9.4375 -5 11 C-5.66 10.67 -6.32 10.34 -7 10 C-6.38125 9.4225 -5.7625 8.845 -5.125 8.25 C-3.16755932 6.17741575 -2.11882175 4.58189636 -1 2 C-0.67 1.34 -0.34 0.68 0 0 Z " fill="#271915" transform="translate(264,338)"/>
<path d="M0 0 C0 4.15560231 -2.2820452 5.84099329 -5 8.6875 C-5.47695312 9.19861328 -5.95390625 9.70972656 -6.4453125 10.23632812 C-7.62359915 11.49709484 -8.81095253 12.74937686 -10 14 C-10 9.88181592 -8.33436007 8.84145243 -5.5625 5.875 C-4.73878906 4.98554688 -3.91507813 4.09609375 -3.06640625 3.1796875 C-1 1 -1 1 0 0 Z " fill="#9448B3" transform="translate(183,178)"/>
<path d="M0 0 C2.125 0.375 2.125 0.375 4 1 C4 2.32 4 3.64 4 5 C2.35 5.33 0.7 5.66 -1 6 C-1.625 4.125 -1.625 4.125 -2 2 C-1.34 1.34 -0.68 0.68 0 0 Z " fill="#653F81" transform="translate(339,290)"/>
<path d="M0 0 C3.96 0 7.92 0 12 0 C11.67 0.99 11.34 1.98 11 3 C8.69 3 6.38 3 4 3 C4 2.34 4 1.68 4 1 C2.68 0.67 1.36 0.34 0 0 Z " fill="#29D6EC" transform="translate(269,286)"/>
<path d="M0 0 C0.33 0 0.66 0 1 0 C2.19088986 5.38027025 3.2919519 10.45291384 3 16 C0.49399686 13.49399686 0.02945209 11.81405575 -0.09765625 8.30078125 C-0.08605469 7.31464844 -0.07445312 6.32851562 -0.0625 5.3125 C-0.05347656 4.31863281 -0.04445312 3.32476562 -0.03515625 2.30078125 C-0.02355469 1.54152344 -0.01195312 0.78226563 0 0 Z " fill="#279ABC" transform="translate(166,247)"/>
<path d="M0 0 C0 0.66 0 1.32 0 2 C-1.79133978 2.05391993 -3.58313899 2.09275571 -5.375 2.125 C-6.37273437 2.14820313 -7.37046875 2.17140625 -8.3984375 2.1953125 C-11 2 -11 2 -13 0 C-8.34462607 -0.83796731 -4.62921525 -1.0161692 0 0 Z " fill="#231210" transform="translate(242,182)"/>
<path d="M0 0 C4.23429756 1.31061591 8.07407404 2.94356259 12 5 C11.01 5.66 10.02 6.32 9 7 C5.7 5.35 2.4 3.7 -1 2 C-0.67 1.34 -0.34 0.68 0 0 Z " fill="#34BCD1" transform="translate(303,141)"/>
<path d="M0 0 C0.99 0.33 1.98 0.66 3 1 C2.67 2.32 2.34 3.64 2 5 C-3.94 4.01 -3.94 4.01 -10 3 C-10 2.67 -10 2.34 -10 2 C-9.04287109 1.90912109 -9.04287109 1.90912109 -8.06640625 1.81640625 C-6.82697266 1.69072266 -6.82697266 1.69072266 -5.5625 1.5625 C-4.73878906 1.48128906 -3.91507812 1.40007812 -3.06640625 1.31640625 C-1.01337975 1.21069185 -1.01337975 1.21069185 0 0 Z " fill="#62D363" transform="translate(305,173)"/>
<path d="M0 0 C0.33 0 0.66 0 1 0 C1.48828125 2.01822917 1.9765625 4.03645833 2.46484375 6.0546875 C2.94846992 8.0585657 2.94846992 8.0585657 4 10 C0.76509224 9.44225728 -0.97855006 8.62788492 -3 6 C-3 5.01 -3 4.02 -3 3 C-2.34 3 -1.68 3 -1 3 C-0.67 2.01 -0.34 1.02 0 0 Z " fill="#2C8DBE" transform="translate(187,324)"/>
<path d="M0 0 C4.62 0 9.24 0 14 0 C12.02 0.99 12.02 0.99 10 2 C9.67 2.66 9.34 3.32 9 4 C9 3.34 9 2.68 9 2 C6.03 2 3.06 2 0 2 C0 1.34 0 0.68 0 0 Z " fill="#261E20" transform="translate(214,182)"/>
<path d="M0 0 C1.32 0 2.64 0 4 0 C4 1.32 4 2.64 4 4 C3.34 4 2.68 4 2 4 C2 5.65 2 7.3 2 9 C1.67 9 1.34 9 1 9 C0.63877119 7.68942607 0.28619689 6.37646376 -0.0625 5.0625 C-0.35833984 3.96615234 -0.35833984 3.96615234 -0.66015625 2.84765625 C-0.77230469 2.23792969 -0.88445312 1.62820313 -1 1 C-0.67 0.67 -0.34 0.34 0 0 Z " fill="#2BC5DF" transform="translate(254,330)"/>
<path d="M0 0 C2.31 0 4.62 0 7 0 C6.34 2.64 5.68 5.28 5 8 C4.34 7.67 3.68 7.34 3 7 C3 5.02 3 3.04 3 1 C2.01 0.67 1.02 0.34 0 0 Z " fill="#9858B7" transform="translate(361,289)"/>
<path d="M0 0 C0.33 1.32 0.66 2.64 1 4 C1.99 4 2.98 4 4 4 C4.66 3.34 5.32 2.68 6 2 C6 3.65 6 5.3 6 7 C4.02 7 2.04 7 0 7 C0 4.69 0 2.38 0 0 Z " fill="#2B63B5" transform="translate(115,262)"/>
<path d="M0 0 C0.66 0 1.32 0 2 0 C1.34 2.64 0.68 5.28 0 8 C-0.99 7.67 -1.98 7.34 -3 7 C-3 5.35 -3 3.7 -3 2 C-2.34 2 -1.68 2 -1 2 C-0.67 1.34 -0.34 0.68 0 0 Z " fill="#30B3D9" transform="translate(187,320)"/>
<path d="M0 0 C0.99 0.33 1.98 0.66 3 1 C2.360625 1.4125 1.72125 1.825 1.0625 2.25 C-1.20990931 4.17810487 -1.60196439 5.11424181 -2 8 C-2.99 7.67 -3.98 7.34 -5 7 C-2.25 1.125 -2.25 1.125 0 0 Z " fill="#30A0BB" transform="translate(194,318)"/>
<path d="M0 0 C1.65 0 3.3 0 5 0 C5 0.66 5 1.32 5 2 C5.66 2.33 6.32 2.66 7 3 C6 4 6 4 3.4375 4.0625 C2.2309375 4.0315625 2.2309375 4.0315625 1 4 C0.67 2.68 0.34 1.36 0 0 Z " fill="#237490" transform="translate(110,212)"/>
<path d="M0 0 C-1.49097658 3.7952131 -3.75700849 5.61042731 -7 8 C-7 5 -7 5 -4.625 2.3125 C-2 0 -2 0 0 0 Z " fill="#2CB0CD" transform="translate(172,166)"/>
<path d="M0 0 C1.32 0 2.64 0 4 0 C4 1.65 4 3.3 4 5 C2.68 5 1.36 5 0 5 C0 3.35 0 1.7 0 0 Z " fill="#262D35" transform="translate(363,362)"/>
<path d="M0 0 C1.32 0 2.64 0 4 0 C4 1.65 4 3.3 4 5 C2.68 5 1.36 5 0 5 C0 3.35 0 1.7 0 0 Z " fill="#252D35" transform="translate(141,359)"/>
<path d="M0 0 C1.32 0 2.64 0 4 0 C4 1.65 4 3.3 4 5 C2.68 5 1.36 5 0 5 C0 3.35 0 1.7 0 0 Z " fill="#373649" transform="translate(377,328)"/>
<path d="M0 0 C0.66 0.33 1.32 0.66 2 1 C1.67 2.65 1.34 4.3 1 6 C-0.32 5.34 -1.64 4.68 -3 4 C-2.67 3.01 -2.34 2.02 -2 1 C-1.34 0.67 -0.68 0.34 0 0 Z " fill="#1F6C88" transform="translate(399,287)"/>
<path d="M0 0 C2.97 0 5.94 0 9 0 C9 0.33 9 0.66 9 1 C6.69 1.66 4.38 2.32 2 3 C1.67 4.98 1.34 6.96 1 9 C0.67 9 0.34 9 0 9 C0 6.03 0 3.06 0 0 Z " fill="#2BE0F4" transform="translate(398,236)"/>
<path d="M0 0 C0.99 0 1.98 0 3 0 C3 1.32 3 2.64 3 4 C-0.63 3.67 -4.26 3.34 -8 3 C-8 2.67 -8 2.34 -8 2 C-5.36 2 -2.72 2 0 2 C0 1.34 0 0.68 0 0 Z " fill="#61CD68" transform="translate(314,180)"/>
<path d="M0 0 C1.32 0 2.64 0 4 0 C4 1.65 4 3.3 4 5 C2.68 5 1.36 5 0 5 C0 3.35 0 1.7 0 0 Z " fill="#262E36" transform="translate(361,144)"/>
<path d="M0 0 C1.32 0 2.64 0 4 0 C4 1.65 4 3.3 4 5 C2.68 5 1.36 5 0 5 C0 3.35 0 1.7 0 0 Z " fill="#262E35" transform="translate(181,136)"/>
<path d="M0 0 C1.98 0.495 1.98 0.495 4 1 C3.67 2.32 3.34 3.64 3 5 C1.68 5 0.36 5 -1 5 C-0.67 3.35 -0.34 1.7 0 0 Z " fill="#478552" transform="translate(219,386)"/>
<path d="M0 0 C0 1.65 0 3.3 0 5 C-1.98 5 -3.96 5 -6 5 C-5.67 3.68 -5.34 2.36 -5 1 C-5 1.99 -5 2.98 -5 4 C-4.34 4 -3.68 4 -3 4 C-3 3.01 -3 2.02 -3 1 C-1 0 -1 0 0 0 Z " fill="#2D64B8" transform="translate(350,264)"/>
<path d="M0 0 C1.32 0 2.64 0 4 0 C3.67 1.32 3.34 2.64 3 4 C1.68 4.33 0.36 4.66 -1 5 C-0.67 3.35 -0.34 1.7 0 0 Z " fill="#227189" transform="translate(397,212)"/>
<path d="M0 0 C1.32 0.33 2.64 0.66 4 1 C4 1.99 4 2.98 4 4 C1.36 3.67 -1.28 3.34 -4 3 C-2.68 2.67 -1.36 2.34 0 2 C0 1.34 0 0.68 0 0 Z " fill="#56C35A" transform="translate(306,193)"/>
<path d="M0 0 C1.98 0 3.96 0 6 0 C6.33 0.99 6.66 1.98 7 3 C4.69 3 2.38 3 0 3 C0 2.01 0 1.02 0 0 Z " fill="#24353D" transform="translate(243,174)"/>
<path d="M0 0 C3.7952131 1.49097658 5.61042731 3.75700849 8 7 C5 7 5 7 2.3125 4.625 C0 2 0 2 0 0 Z " fill="#AD61BE" transform="translate(334,169)"/>
<path d="M0 0 C0.66 0.33 1.32 0.66 2 1 C-0.31 3.31 -2.62 5.62 -5 8 C-5.66 7.34 -6.32 6.68 -7 6 C-4.69 4.02 -2.38 2.04 0 0 Z " fill="#2BC1DC" transform="translate(178,159)"/>
<path d="M0 0 C3 3.75 3 3.75 3 6 C1.35 6 -0.3 6 -2 6 C-1.34 4.02 -0.68 2.04 0 0 Z " fill="#261519" transform="translate(250,291)"/>
<path d="M0 0 C2.64 0.66 5.28 1.32 8 2 C5 3.5 5 3.5 2 5 C1.01 4.34 0.02 3.68 -1 3 C-0.67 2.01 -0.34 1.02 0 0 Z " fill="#1E596F" transform="translate(113,288)"/>
<path d="M0 0 C3.3 0 6.6 0 10 0 C9.67 0.66 9.34 1.32 9 2 C8.21625 1.938125 7.4325 1.87625 6.625 1.8125 C5.325625 1.9053125 5.325625 1.9053125 4 2 C3.01 3.485 3.01 3.485 2 5 C1.34 3.35 0.68 1.7 0 0 Z " fill="#28B3D7" transform="translate(149,251)"/>
<path d="M0 0 C0.66 0 1.32 0 2 0 C2 0.99 2 1.98 2 3 C2.99 3 3.98 3 5 3 C5.33 2.34 5.66 1.68 6 1 C5.67 2.32 5.34 3.64 5 5 C3.35 4.67 1.7 4.34 0 4 C0 2.68 0 1.36 0 0 Z " fill="#6CCC6F" transform="translate(287,124)"/>
<path d="M0 0 C1.9451 2.91765 2.45276317 4.62537285 3 8 C1.68 7.67 0.36 7.34 -1 7 C-0.67 4.69 -0.34 2.38 0 0 Z " fill="#2275BA" transform="translate(234,297)"/>
<path d="M0 0 C3.7952131 1.49097658 5.61042731 3.75700849 8 7 C6.25 6.875 6.25 6.875 4 6 C1.75 2.9375 1.75 2.9375 0 0 Z " fill="#34C8E8" transform="translate(344,171)"/>
<path d="M0 0 C1.98 0.495 1.98 0.495 4 1 C3.01 1.33 2.02 1.66 1 2 C1 2.99 1 3.98 1 5 C1.66 5.33 2.32 5.66 3 6 C1.68 5.67 0.36 5.34 -1 5 C-0.67 3.35 -0.34 1.7 0 0 Z " fill="#60BD65" transform="translate(219,123)"/>
</svg>
