<?xml version="1.0" encoding="UTF-8"?>
<!DOCTYPE svg PUBLIC "-//W3C//DTD SVG 1.1//EN" "http://www.w3.org/Graphics/SVG/1.1/DTD/svg11.dtd">
<svg xmlns="http://www.w3.org/2000/svg" version="1.1" width="256px" height="236px" style="shape-rendering:geometricPrecision; text-rendering:geometricPrecision; image-rendering:optimizeQuality; fill-rule:evenodd; clip-rule:evenodd" xmlns:xlink="http://www.w3.org/1999/xlink">
<g><path style="opacity:0.012" fill="#b0b585" d="M 158.5,17.5 C 158.897,16.475 159.563,16.3083 160.5,17C 159.906,17.4643 159.239,17.631 158.5,17.5 Z"/></g>
<g><path style="opacity:0.012" fill="#709964" d="M 192.5,16.5 C 193.833,17.1667 193.833,17.1667 192.5,16.5 Z"/></g>
<g><path style="opacity:0.016" fill="#888d4f" d="M 220.5,17.5 C 222.288,16.3775 224.288,16.2109 226.5,17C 224.527,17.4955 222.527,17.6621 220.5,17.5 Z"/></g>
<g><path style="opacity:0.004" fill="#0c0b09" d="M 165.5,18.5 C 166.833,19.1667 166.833,19.1667 165.5,18.5 Z"/></g>
<g><path style="opacity:0.004" fill="#000100" d="M 183.5,19.5 C 183.897,18.475 184.563,18.3083 185.5,19C 184.906,19.4643 184.239,19.631 183.5,19.5 Z"/></g>
<g><path style="opacity:0.004" fill="#4d4f49" d="M 212.5,19.5 C 212.897,18.475 213.563,18.3083 214.5,19C 213.906,19.4643 213.239,19.631 212.5,19.5 Z"/></g>
<g><path style="opacity:0.004" fill="#020c00" d="M 216.5,19.5 C 215.833,18.1667 215.833,18.1667 216.5,19.5 Z"/></g>
<g><path style="opacity:0.004" fill="#f4ffee" d="M 218.5,18.5 C 219.833,19.1667 219.833,19.1667 218.5,18.5 Z"/></g>
<g><path style="opacity:0.016" fill="#797e5d" d="M 227.5,20.5 C 227.369,19.7611 227.536,19.0944 228,18.5C 228.692,19.4368 228.525,20.1034 227.5,20.5 Z"/></g>
<g><path style="opacity:0.651" fill="#7d895c" d="M 226.5,20.5 C 225.662,20.8417 225.328,21.5084 225.5,22.5C 224.751,23.531 224.085,24.6976 223.5,26C 222.256,26.4561 221.423,25.9561 221,24.5C 220.667,24.8333 220.333,25.1667 220,25.5C 219.735,23.8374 220.235,22.3374 221.5,21C 221.043,20.586 220.709,20.086 220.5,19.5C 221.5,19.1667 222.5,18.8333 223.5,18.5C 225.03,18.6399 226.03,19.3065 226.5,20.5 Z"/></g>
<g><path style="opacity:0.004" fill="#a2a49a" d="M 226.5,20.5 C 226.833,20.5 227.167,20.5 227.5,20.5C 227.672,21.4916 227.338,22.1583 226.5,22.5C 226.5,21.8333 226.5,21.1667 226.5,20.5 Z"/></g>
<g><path style="opacity:0.004" fill="#7bbb5d" d="M 122.5,19.5 C 123.622,21.2884 123.789,23.2884 123,25.5C 122.505,23.5273 122.338,21.5273 122.5,19.5 Z"/></g>
<g><path style="opacity:0.004" fill="#96a081" d="M 164.5,20.5 C 165.833,21.8333 165.833,23.1667 164.5,24.5C 164.5,23.8333 164.167,23.5 163.5,23.5C 163.5,23.1667 163.5,22.8333 163.5,22.5C 164.338,22.1583 164.672,21.4916 164.5,20.5 Z"/></g>
<g><path style="opacity:0.506" fill="#7b9157" d="M 183.5,19.5 C 184.753,21.5027 186.419,21.5027 188.5,19.5C 189.213,21.435 190.213,21.7683 191.5,20.5C 191.66,22.1992 191.494,23.8659 191,25.5C 190.333,21.5 189.667,21.5 189,25.5C 188.667,24.1667 188.333,22.8333 188,21.5C 187.798,23.2556 187.298,24.9223 186.5,26.5C 185.167,25.1667 183.833,25.1667 182.5,26.5C 181.186,25.6872 180.019,24.6872 179,23.5C 177.815,28.3038 176.481,27.9705 175,22.5C 174.535,23.9308 173.701,25.0975 172.5,26C 173.712,27.1068 173.379,27.6068 171.5,27.5C 166.377,25.7118 165.211,22.3784 168,17.5C 170.312,17.9551 172.312,18.9551 174,20.5C 174.308,19.6919 174.808,19.0253 175.5,18.5C 176.281,19.7287 176.781,21.062 177,22.5C 177.483,21.552 177.649,20.552 177.5,19.5C 179.611,18.6201 181.611,18.6201 183.5,19.5 Z M 170.5,21.5 C 170.56,20.9569 170.893,20.6236 171.5,20.5C 172.583,21.365 172.749,22.365 172,23.5C 171.722,22.5842 171.222,21.9175 170.5,21.5 Z"/></g>
<g><path style="opacity:0.757" fill="#7f9857" d="M 146.5,19.5 C 149.026,20.0752 151.359,20.0752 153.5,19.5C 154.91,20.8284 156.076,20.4951 157,18.5C 157.741,19.6405 158.575,19.6405 159.5,18.5C 160.598,22.3605 161.431,22.3605 162,18.5C 162.995,19.0659 163.828,19.7326 164.5,20.5C 163.662,20.8417 163.328,21.5084 163.5,22.5C 162.167,22.8333 162.167,23.1667 163.5,23.5C 164.167,23.5 164.5,23.8333 164.5,24.5C 164.631,25.3764 164.298,26.0431 163.5,26.5C 161.997,25.9478 160.331,25.9478 158.5,26.5C 158.167,19.8333 157.833,19.8333 157.5,26.5C 156.178,26.67 155.011,26.3366 154,25.5C 153.005,26.0659 152.172,26.7326 151.5,27.5C 149.955,26.7703 149.122,25.437 149,23.5C 148.581,24.6721 147.915,25.6721 147,26.5C 144.712,26.2625 142.212,26.2625 139.5,26.5C 138.5,22.5 137.5,22.5 136.5,26.5C 135.5,26.5 134.5,26.5 133.5,26.5C 133.013,25.5266 132.513,24.5266 132,23.5C 131.804,25.2861 130.971,26.6195 129.5,27.5C 129.089,26.7376 128.923,25.7376 129,24.5C 125.814,27.3492 124.314,26.5159 124.5,22C 124.675,20.3419 125.342,19.0086 126.5,18C 126.167,17.6667 125.833,17.3333 125.5,17C 128.219,17.4881 130.719,18.6548 133,20.5C 134.333,19.8333 135.667,19.1667 137,18.5C 137.333,19.1667 137.667,19.8333 138,20.5C 138.219,19.062 138.719,17.7287 139.5,16.5C 139.307,17.6882 139.807,19.0215 141,20.5C 141.333,19.8333 141.667,19.1667 142,18.5C 142.667,19.8333 143.333,21.1667 144,22.5C 144.698,21.3094 145.531,20.3094 146.5,19.5 Z M 151.5,21.5 C 153.76,22.2376 153.927,23.2376 152,24.5C 151.517,23.552 151.351,22.552 151.5,21.5 Z M 140.5,21.5 C 141.848,22.5268 142.348,23.8602 142,25.5C 140.812,24.4366 140.312,23.1033 140.5,21.5 Z"/></g>
<g><path style="opacity:0.004" fill="#f8ffee" d="M 153.5,18.5 C 154.833,19.1667 154.833,19.1667 153.5,18.5 Z"/></g>
<g><path style="opacity:0.004" fill="#a0a29d" d="M 146.5,19.5 C 145.761,19.631 145.094,19.4643 144.5,19C 145.437,18.3083 146.103,18.475 146.5,19.5 Z"/></g>
<g><path style="opacity:0.012" fill="#699e20" d="M 130.5,16.5 C 131.833,17.1667 131.833,17.1667 130.5,16.5 Z"/></g>
<g><path style="opacity:0.016" fill="#5a6a2c" d="M 217.5,22.5 C 218.573,23.2506 218.74,24.2506 218,25.5C 217.517,24.552 217.351,23.552 217.5,22.5 Z"/></g>
<g><path style="opacity:0.012" fill="#5c6635" d="M 225.5,22.5 C 225.833,22.5 226.167,22.5 226.5,22.5C 226.167,26.5 225.833,26.5 225.5,22.5 Z"/></g>
<g><path style="opacity:0.051" fill="#748d51" d="M 198.5,19.5 C 200.451,19.2267 201.951,19.8934 203,21.5C 203.278,20.5842 203.778,19.9175 204.5,19.5C 204.987,20.4734 205.487,21.4734 206,22.5C 207.041,18.8944 209.208,17.8944 212.5,19.5C 213.634,21.7813 214.968,21.7813 216.5,19.5C 217.167,19.5 217.833,19.5 218.5,19.5C 217.572,22.1951 216.239,24.5285 214.5,26.5C 214.362,22.7139 213.695,22.7139 212.5,26.5C 211.508,26.3284 210.842,26.6618 210.5,27.5C 208.876,27.6399 207.71,26.9733 207,25.5C 206.517,26.448 206.351,27.448 206.5,28.5C 206.167,28.5 205.833,28.5 205.5,28.5C 204.144,26.4618 202.477,26.1285 200.5,27.5C 198.316,25.6054 195.816,25.6054 193,27.5C 192.814,24.9644 192.314,22.631 191.5,20.5C 191.821,18.9519 192.821,18.2852 194.5,18.5C 194.338,20.5273 194.505,22.5273 195,24.5C 195.667,19.1667 196.333,19.1667 197,24.5C 197.352,22.7525 197.852,21.0858 198.5,19.5 Z M 214.5,26.5 C 213.833,26.5 213.167,26.5 212.5,26.5C 213.695,22.7139 214.362,22.7139 214.5,26.5 Z"/></g>
<g><path style="opacity:0.004" fill="#dff653" d="M 204.5,18.5 C 205.833,19.1667 205.833,19.1667 204.5,18.5 Z"/></g>
<g><path style="opacity:0.004" fill="#f3ffd6" d="M 198.5,19.5 C 197.833,18.1667 197.833,18.1667 198.5,19.5 Z"/></g>
<g><path style="opacity:0.004" fill="#f7ffd4" d="M 133.5,26.5 C 132.833,27.1667 132.833,27.1667 133.5,26.5 Z"/></g>
<g><path style="opacity:0.008" fill="#357702" d="M 136.5,26.5 C 137.833,27.1667 137.833,27.1667 136.5,26.5 Z"/></g>
<g><path style="opacity:0.004" fill="#49db23" d="M 139.5,26.5 C 138.833,27.1667 138.833,27.1667 139.5,26.5 Z"/></g>
<g><path style="opacity:0.008" fill="#737c13" d="M 151.5,27.5 C 158.167,28.8333 164.833,28.8333 171.5,27.5C 181.115,28.4603 190.782,28.4603 200.5,27.5C 201.919,28.4511 203.585,28.7845 205.5,28.5C 205.833,28.5 206.167,28.5 206.5,28.5C 208.099,28.7678 209.432,28.4345 210.5,27.5C 217.452,28.2612 224.452,28.7612 231.5,29C 193.664,29.1674 155.998,29.6674 118.5,30.5C 117.508,30.3284 116.842,30.6618 116.5,31.5C 116.167,31.5 115.833,31.5 115.5,31.5C 115.167,31.5 114.833,31.5 114.5,31.5C 115.058,30.2101 116.058,29.3768 117.5,29C 129.159,27.541 140.492,27.041 151.5,27.5 Z"/></g>
<g><path style="opacity:0.102" fill="#a1c84f" d="M 118.5,30.5 C 157.827,30.1933 196.827,30.5266 235.5,31.5C 234.833,31.5 234.5,31.8333 234.5,32.5C 196.182,31.3702 157.849,31.2036 119.5,32C 118.584,32.2784 117.918,32.7784 117.5,33.5C 114.697,33.9613 112.363,35.2947 110.5,37.5C 110.859,35.629 111.859,34.129 113.5,33C 112.288,31.8932 112.621,31.3932 114.5,31.5C 114.833,32.8333 115.167,32.8333 115.5,31.5C 115.833,31.5 116.167,31.5 116.5,31.5C 117.492,31.6716 118.158,31.3382 118.5,30.5 Z"/></g>
<g><path style="opacity:0.004" fill="#d4dd6c" d="M 235.5,32.5 C 235.5,32.1667 235.5,31.8333 235.5,31.5C 236.833,31.5 237.5,32.1667 237.5,33.5C 237.167,33.5 236.833,33.5 236.5,33.5C 236.5,32.8333 236.167,32.5 235.5,32.5 Z"/></g>
<g><path style="opacity:1" fill="#7daf13" d="M 234.5,32.5 C 234.833,32.5 235.167,32.5 235.5,32.5C 236.167,32.5 236.5,32.8333 236.5,33.5C 236.5,34.1667 236.833,34.5 237.5,34.5C 237.5,35.1667 237.833,35.5 238.5,35.5C 239.939,37.588 240.606,39.9214 240.5,42.5C 239.947,49.6404 238.614,56.6404 236.5,63.5C 236.825,55.6484 236.492,47.9818 235.5,40.5C 235.573,38.9731 234.906,37.9731 233.5,37.5C 233.5,37.1667 233.5,36.8333 233.5,36.5C 235.017,36.5106 236.184,37.1772 237,38.5C 237.09,36.2319 235.923,34.7319 233.5,34C 194.835,33.5 156.168,33.3333 117.5,33.5C 117.918,32.7784 118.584,32.2784 119.5,32C 157.849,31.2036 196.182,31.3702 234.5,32.5 Z"/></g>
<g><path style="opacity:0.683" fill="#729f19" d="M 117.5,33.5 C 156.168,33.3333 194.835,33.5 233.5,34C 235.923,34.7319 237.09,36.2319 237,38.5C 236.184,37.1772 235.017,36.5106 233.5,36.5C 232.167,36.8333 232.167,37.1667 233.5,37.5C 194.098,36.1679 154.598,36.1679 115,37.5C 114.13,38.1079 113.63,38.9412 113.5,40C 115.139,43.806 114.472,47.1393 111.5,50C 114.619,51.4051 117.952,51.9051 121.5,51.5C 121.5,51.8333 121.5,52.1667 121.5,52.5C 117.486,52.6655 113.486,52.4988 109.5,52C 110.566,50.841 110.233,50.0076 108.5,49.5C 108.672,48.5084 108.338,47.8417 107.5,47.5C 107.672,46.5084 107.338,45.8417 106.5,45.5C 106.338,43.4727 106.505,41.4727 107,39.5C 107.333,40.8333 107.667,42.1667 108,43.5C 108.24,41.1484 109.073,39.1484 110.5,37.5C 112.363,35.2947 114.697,33.9613 117.5,33.5 Z"/></g>
<g><path style="opacity:0.004" fill="#577e38" d="M 237.5,34.5 C 237.5,34.1667 237.5,33.8333 237.5,33.5C 239.424,33.7107 239.757,34.3774 238.5,35.5C 237.833,35.5 237.5,35.1667 237.5,34.5 Z"/></g>
<g><path style="opacity:0.012" fill="#87b052" d="M 105.5,45.5 C 104.475,45.1034 104.308,44.4368 105,43.5C 105.464,44.0944 105.631,44.7611 105.5,45.5 Z"/></g>
<g><path style="opacity:0.004" fill="#959b69" d="M 105.5,45.5 C 105.833,45.5 106.167,45.5 106.5,45.5C 106.5,46.1667 106.5,46.8333 106.5,47.5C 105.662,47.1583 105.328,46.4916 105.5,45.5 Z"/></g>
<g><path style="opacity:0.012" fill="#484a4d" d="M 165.5,48.5 C 168.168,47.3905 171.001,47.3905 174,48.5C 174.833,48.6667 175.667,48.8333 176.5,49C 174.527,49.4955 172.527,49.6621 170.5,49.5C 169.081,48.5489 167.415,48.2155 165.5,48.5 Z"/></g>
<g><path style="opacity:0.008" fill="#6b7a33" d="M 106.5,47.5 C 106.833,47.5 107.167,47.5 107.5,47.5C 107.5,48.1667 107.5,48.8333 107.5,49.5C 106.662,49.1583 106.328,48.4916 106.5,47.5 Z"/></g>
<g><path style="opacity:0.012" fill="#9cab5f" d="M 107.5,49.5 C 107.833,49.5 108.167,49.5 108.5,49.5C 108.315,50.1701 107.981,50.1701 107.5,49.5 Z"/></g>
<g><path style="opacity:0.02" fill="#545453" d="M 185.5,51.5 C 183.708,50.6909 181.708,50.1909 179.5,50C 183.551,49.4823 187.551,49.8157 191.5,51C 189.527,51.4955 187.527,51.6621 185.5,51.5 Z"/></g>
<g><path style="opacity:0.988" fill="#40b3ec" d="M 160.5,58.5 C 160.5,61.5 160.5,64.5 160.5,67.5C 159.527,65.0521 159.194,62.3854 159.5,59.5C 158.167,59.5 156.833,59.5 155.5,59.5C 155.737,60.791 155.404,61.791 154.5,62.5C 154.662,60.4727 154.495,58.4727 154,56.5C 153.667,57.5 153.333,58.5 153,59.5C 151.981,58.3128 150.814,57.3128 149.5,56.5C 148.808,57.0253 148.308,57.6919 148,58.5C 146.444,56.3652 144.611,56.0319 142.5,57.5C 142.428,55.6891 141.595,54.3557 140,53.5C 135.219,54.419 130.385,54.7523 125.5,54.5C 136.646,53.0347 147.979,52.0347 159.5,51.5C 159.198,54.0593 159.532,56.3926 160.5,58.5 Z"/></g>
<g><path style="opacity:0.945" fill="#3d7394" d="M 165.5,48.5 C 165.5,48.8333 165.5,49.1667 165.5,49.5C 163.473,49.3379 161.473,49.5045 159.5,50C 160.056,50.3826 160.389,50.8826 160.5,51.5C 160.5,52.5 160.5,53.5 160.5,54.5C 160.5,55.8333 160.5,57.1667 160.5,58.5C 159.532,56.3926 159.198,54.0593 159.5,51.5C 147.979,52.0347 136.646,53.0347 125.5,54.5C 121.798,54.421 118.132,54.7543 114.5,55.5C 112.97,55.3601 111.97,54.6935 111.5,53.5C 115.042,53.8128 118.375,53.4794 121.5,52.5C 130.833,52.1667 130.833,51.8333 121.5,51.5C 126.275,49.9476 131.275,49.4476 136.5,50C 134.167,50.3333 131.833,50.6667 129.5,51C 130.833,51.1667 132.167,51.3333 133.5,51.5C 144.143,50.1694 154.81,49.1694 165.5,48.5 Z"/></g>
<g><path style="opacity:0.992" fill="#17232a" d="M 185.5,52.5 C 190.152,52.9981 194.819,53.3314 199.5,53.5C 200.209,54.404 201.209,54.7373 202.5,54.5C 203.514,55.7647 205.014,56.4313 207,56.5C 211.479,57.1644 215.979,57.4977 220.5,57.5C 225.833,57.1667 225.833,56.8333 220.5,56.5C 221.946,55.3871 223.613,55.2204 225.5,56C 226.598,56.7697 226.598,57.603 225.5,58.5C 225.5,60.1667 225.5,61.8333 225.5,63.5C 223.824,62.8166 223.157,61.4832 223.5,59.5C 207.981,58.4616 192.648,56.295 177.5,53C 180.146,52.5026 182.813,52.3359 185.5,52.5 Z"/></g>
<g><path style="opacity:1" fill="#4cceef" d="M 108.5,54.5 C 108.5,54.1667 108.5,53.8333 108.5,53.5C 109.5,53.5 110.5,53.5 111.5,53.5C 111.97,54.6935 112.97,55.3601 114.5,55.5C 118.132,54.7543 121.798,54.421 125.5,54.5C 130.385,54.7523 135.219,54.419 140,53.5C 141.595,54.3557 142.428,55.6891 142.5,57.5C 141.167,59.5 141.167,61.5 142.5,63.5C 141.833,63.5 141.167,63.5 140.5,63.5C 140.5,61.5 140.5,59.5 140.5,57.5C 137.772,57.1706 135.438,57.8372 133.5,59.5C 132.604,58.4937 131.938,58.4937 131.5,59.5C 130.833,59.5 130.167,59.5 129.5,59.5C 129.611,58.8826 129.944,58.3826 130.5,58C 127.308,57.8029 124.308,56.9696 121.5,55.5C 120.692,55.8076 120.025,56.3076 119.5,57C 112.174,57.4997 104.841,57.6663 97.5,57.5C 101.727,56.7989 106.06,55.9656 110.5,55C 109.906,54.5357 109.239,54.369 108.5,54.5 Z"/></g>
<g><path style="opacity:0.016" fill="#647982" d="M 82.5,56.5 C 79.8127,56.6641 77.146,56.4974 74.5,56C 80.1294,54.8032 85.796,54.4698 91.5,55C 88.3054,55.1805 85.3054,55.6805 82.5,56.5 Z"/></g>
<g><path style="opacity:0.773" fill="#4b4e50" d="M 199.5,53.5 C 203.372,52.4401 207.372,52.6068 211.5,54C 209.833,54.3333 208.167,54.6667 206.5,55C 211.118,55.994 215.785,56.494 220.5,56.5C 220.5,56.8333 220.5,57.1667 220.5,57.5C 215.979,57.4977 211.479,57.1644 207,56.5C 205.014,56.4313 203.514,55.7647 202.5,54.5C 203.552,54.6495 204.552,54.4828 205.5,54C 203.527,53.5045 201.527,53.3379 199.5,53.5 Z"/></g>
<g><path style="opacity:0.996" fill="#123347" d="M 165.5,49.5 C 167.167,49.5 168.833,49.5 170.5,49.5C 175.29,50.7249 180.29,51.3916 185.5,51.5C 185.5,51.8333 185.5,52.1667 185.5,52.5C 182.813,52.3359 180.146,52.5026 177.5,53C 192.648,56.295 207.981,58.4616 223.5,59.5C 223.157,61.4832 223.824,62.8166 225.5,63.5C 225.5,66.1667 225.5,68.8333 225.5,71.5C 216.84,69.3336 208.507,66.3336 200.5,62.5C 201.376,61.7492 202.376,61.2492 203.5,61C 193.99,56.249 183.99,54.4156 173.5,55.5C 168.669,55.2821 164.336,53.9488 160.5,51.5C 160.389,50.8826 160.056,50.3826 159.5,50C 161.473,49.5045 163.473,49.3379 165.5,49.5 Z"/></g>
<g><path style="opacity:0.012" fill="#757ebb" d="M 55.5,58.5 C 57.9664,57.3659 60.633,57.1993 63.5,58C 60.854,58.4974 58.1873,58.6641 55.5,58.5 Z"/></g>
<g><path style="opacity:1" fill="#1b728f" d="M 154.5,62.5 C 153.206,61.7101 152.039,60.7101 151,59.5C 150.716,61.8856 149.716,62.5523 148,61.5C 146.556,63.1554 144.722,63.822 142.5,63.5C 141.167,61.5 141.167,59.5 142.5,57.5C 144.611,56.0319 146.444,56.3652 148,58.5C 148.308,57.6919 148.808,57.0253 149.5,56.5C 150.814,57.3128 151.981,58.3128 153,59.5C 153.333,58.5 153.667,57.5 154,56.5C 154.495,58.4727 154.662,60.4727 154.5,62.5 Z"/></g>
<g><path style="opacity:0.004" fill="#0b0d11" d="M 228.5,59.5 C 229.908,64.4337 229.741,69.4337 228,74.5C 228.251,69.5444 228.418,64.5444 228.5,59.5 Z"/></g>
<g><path style="opacity:0.792" fill="#5598b3" d="M 108.5,53.5 C 100.5,53.8333 100.5,54.1667 108.5,54.5C 109.239,54.369 109.906,54.5357 110.5,55C 106.06,55.9656 101.727,56.7989 97.5,57.5C 91.3219,57.8442 85.3219,58.5109 79.5,59.5C 73.3685,59.3793 67.3685,60.046 61.5,61.5C 54.1205,61.6973 46.7871,62.3639 39.5,63.5C 31.2411,64.8789 22.9078,65.5456 14.5,65.5C 14.5,65.1667 14.5,64.8333 14.5,64.5C 18.819,63.9645 23.1523,63.4645 27.5,63C 19.5,62.3333 19.5,61.6667 27.5,61C 46.0725,61.2218 64.4058,59.7218 82.5,56.5C 88.8708,56.5118 95.2041,56.0118 101.5,55C 99.1667,54.6667 96.8333,54.3333 94.5,54C 98,53.5 101.5,53 105,52.5C 106.385,52.5143 107.551,52.8476 108.5,53.5 Z"/></g>
<g><path style="opacity:1" fill="#6bd8ef" d="M 143.5,58.5 C 144.5,58.5 145.5,58.5 146.5,58.5C 146.426,62.5412 145.093,63.2079 142.5,60.5C 142.863,59.8165 143.196,59.1499 143.5,58.5 Z"/></g>
<g><path style="opacity:1" fill="#5ffbfd" d="M 100.5,62.5 C 100.34,64.1992 100.506,65.8659 101,67.5C 101.71,66.0267 102.876,65.3601 104.5,65.5C 105.167,66.1667 105.833,66.8333 106.5,67.5C 106.833,67.5 107.167,67.5 107.5,67.5C 112.358,67.4712 117.358,67.3045 122.5,67C 125.367,66.971 127.867,66.1376 130,64.5C 131.018,66.5644 132.351,66.8977 134,65.5C 134.95,66.0223 135.784,66.689 136.5,67.5C 137.609,66.4104 138.609,66.4104 139.5,67.5C 135.613,69.4391 131.613,70.7725 127.5,71.5C 108.611,71.8459 89.9439,73.1792 71.5,75.5C 66.1667,75.5 60.8333,75.5 55.5,75.5C 48.8333,75.5 42.1667,75.5 35.5,75.5C 35.297,73.3618 34.297,71.6951 32.5,70.5C 35.017,67.9427 37.8504,67.276 41,68.5C 47.3017,64.2394 54.1351,61.9061 61.5,61.5C 67.3685,60.046 73.3685,59.3793 79.5,59.5C 83.7535,59.0799 87.7535,59.7465 91.5,61.5C 93.6656,61.5704 93.9989,60.9038 92.5,59.5C 96.8264,58.5654 101.16,58.7321 105.5,60C 103.256,60.0496 101.589,60.8829 100.5,62.5 Z"/></g>
<g><path style="opacity:1" fill="#158095" d="M 140.5,63.5 C 139.057,62.6649 138.057,61.3316 137.5,59.5C 136.702,61.0777 136.202,62.7444 136,64.5C 135.95,62.256 135.117,60.5893 133.5,59.5C 135.438,57.8372 137.772,57.1706 140.5,57.5C 140.5,59.5 140.5,61.5 140.5,63.5 Z"/></g>
<g><path style="opacity:1" fill="#114a6a" d="M 160.5,51.5 C 164.336,53.9488 168.669,55.2821 173.5,55.5C 183.99,54.4156 193.99,56.249 203.5,61C 202.376,61.2492 201.376,61.7492 200.5,62.5C 208.507,66.3336 216.84,69.3336 225.5,71.5C 225.631,72.3764 225.298,73.0431 224.5,73.5C 217.564,72.3542 210.564,71.6875 203.5,71.5C 195.83,69.7531 188.163,68.2531 180.5,67C 178.382,66.7398 176.716,65.7398 175.5,64C 173.167,63.6667 170.833,63.3333 168.5,63C 167.088,61.2085 165.255,60.0418 163,59.5C 162.901,57.3474 162.067,55.6808 160.5,54.5C 160.5,53.5 160.5,52.5 160.5,51.5 Z"/></g>
<g><path style="opacity:0.012" fill="#768fb6" d="M 14.5,63.5 C 15.2506,62.4265 16.2506,62.2599 17.5,63C 16.552,63.4828 15.552,63.6495 14.5,63.5 Z"/></g>
<g><path style="opacity:1" fill="#0a717c" d="M 104.5,65.5 C 102.876,65.3601 101.71,66.0267 101,67.5C 100.506,65.8659 100.34,64.1992 100.5,62.5C 101.151,63.0906 101.818,63.7573 102.5,64.5C 103.711,63.7261 103.711,62.8928 102.5,62C 105.332,61.8259 105.999,62.9925 104.5,65.5 Z"/></g>
<g><path style="opacity:0.004" fill="#0b000e" d="M 14.5,63.5 C 14.5,63.8333 14.5,64.1667 14.5,64.5C 13.8299,64.0187 13.8299,63.6853 14.5,63.5 Z"/></g>
<g><path style="opacity:1" fill="#55e8fc" d="M 61.5,61.5 C 54.1351,61.9061 47.3017,64.2394 41,68.5C 37.8504,67.276 35.017,67.9427 32.5,70.5C 34.297,71.6951 35.297,73.3618 35.5,75.5C 42.1667,75.5 48.8333,75.5 55.5,75.5C 53.0521,76.4731 50.3854,76.8064 47.5,76.5C 39.4931,76.6664 31.4931,76.4997 23.5,76C 24.0682,73.3162 25.0682,70.8162 26.5,68.5C 30.9907,66.9728 35.324,65.3062 39.5,63.5C 46.7871,62.3639 54.1205,61.6973 61.5,61.5 Z"/></g>
<g><path style="opacity:1" fill="#267f90" d="M 95.5,62.5 C 97.952,63.7359 99.1187,65.7359 99,68.5C 97.3333,67.1667 95.6667,67.1667 94,68.5C 94.1503,66.4944 94.6503,64.4944 95.5,62.5 Z"/></g>
<g><path style="opacity:1" fill="#60ecf5" d="M 129.5,59.5 C 128.442,60.6002 127.608,61.9336 127,63.5C 126.667,63.1667 126.333,62.8333 126,62.5C 124.89,64.0368 123.39,64.7035 121.5,64.5C 121.534,60.8238 123.201,59.6571 126.5,61C 124.191,58.949 122.024,59.1157 120,61.5C 119.586,61.0426 119.086,60.7093 118.5,60.5C 117.548,62.0453 117.215,63.712 117.5,65.5C 116.167,65.5 114.833,65.5 113.5,65.5C 113.66,63.8008 113.494,62.1341 113,60.5C 112.505,62.4727 112.338,64.4727 112.5,66.5C 115.394,66.9577 117.894,66.291 120,64.5C 124.29,65.079 128.457,65.079 132.5,64.5C 132.833,64.3333 133.167,64.1667 133.5,64C 132.418,62.6703 131.751,61.1703 131.5,59.5C 131.938,58.4937 132.604,58.4937 133.5,59.5C 135.117,60.5893 135.95,62.256 136,64.5C 136.202,62.7444 136.702,61.0777 137.5,59.5C 138.057,61.3316 139.057,62.6649 140.5,63.5C 141.167,63.5 141.833,63.5 142.5,63.5C 144.722,63.822 146.556,63.1554 148,61.5C 149.716,62.5523 150.716,61.8856 151,59.5C 152.039,60.7101 153.206,61.7101 154.5,62.5C 155.404,61.791 155.737,60.791 155.5,59.5C 156.833,59.5 158.167,59.5 159.5,59.5C 159.194,62.3854 159.527,65.0521 160.5,67.5C 155.073,69.1457 149.406,70.1457 143.5,70.5C 138.167,70.8333 132.833,71.1667 127.5,71.5C 131.613,70.7725 135.613,69.4391 139.5,67.5C 138.609,66.4104 137.609,66.4104 136.5,67.5C 135.784,66.689 134.95,66.0223 134,65.5C 132.351,66.8977 131.018,66.5644 130,64.5C 127.867,66.1376 125.367,66.971 122.5,67C 117.358,67.3045 112.358,67.4712 107.5,67.5C 108.105,65.9743 109.271,64.9743 111,64.5C 111.483,63.552 111.649,62.552 111.5,61.5C 109.833,61.5 108.167,61.5 106.5,61.5C 106.5,63.5 106.5,65.5 106.5,67.5C 105.833,66.8333 105.167,66.1667 104.5,65.5C 105.999,62.9925 105.332,61.8259 102.5,62C 103.711,62.8928 103.711,63.7261 102.5,64.5C 101.818,63.7573 101.151,63.0906 100.5,62.5C 101.589,60.8829 103.256,60.0496 105.5,60C 101.16,58.7321 96.8264,58.5654 92.5,59.5C 93.9989,60.9038 93.6656,61.5704 91.5,61.5C 87.7535,59.7465 83.7535,59.0799 79.5,59.5C 85.3219,58.5109 91.3219,57.8442 97.5,57.5C 104.841,57.6663 112.174,57.4997 119.5,57C 120.025,56.3076 120.692,55.8076 121.5,55.5C 124.308,56.9696 127.308,57.8029 130.5,58C 129.944,58.3826 129.611,58.8826 129.5,59.5 Z"/></g>
<g><path style="opacity:1" fill="#1f7f8c" d="M 129.5,59.5 C 130.167,59.5 130.833,59.5 131.5,59.5C 131.751,61.1703 132.418,62.6703 133.5,64C 133.167,64.1667 132.833,64.3333 132.5,64.5C 128.457,65.079 124.29,65.079 120,64.5C 117.894,66.291 115.394,66.9577 112.5,66.5C 112.338,64.4727 112.505,62.4727 113,60.5C 113.494,62.1341 113.66,63.8008 113.5,65.5C 114.833,65.5 116.167,65.5 117.5,65.5C 117.215,63.712 117.548,62.0453 118.5,60.5C 119.086,60.7093 119.586,61.0426 120,61.5C 122.024,59.1157 124.191,58.949 126.5,61C 123.201,59.6571 121.534,60.8238 121.5,64.5C 123.39,64.7035 124.89,64.0368 126,62.5C 126.333,62.8333 126.667,63.1667 127,63.5C 127.608,61.9336 128.442,60.6002 129.5,59.5 Z"/></g>
<g><path style="opacity:1" fill="#277c89" d="M 107.5,67.5 C 107.167,67.5 106.833,67.5 106.5,67.5C 106.5,65.5 106.5,63.5 106.5,61.5C 108.167,61.5 109.833,61.5 111.5,61.5C 111.649,62.552 111.483,63.552 111,64.5C 109.271,64.9743 108.105,65.9743 107.5,67.5 Z"/></g>
<g><path style="opacity:0.999" fill="#4fd5f7" d="M 39.5,63.5 C 35.324,65.3062 30.9907,66.9728 26.5,68.5C 25.0682,70.8162 24.0682,73.3162 23.5,76C 31.4931,76.4997 39.4931,76.6664 47.5,76.5C 47.5,76.8333 47.5,77.1667 47.5,77.5C 37.0318,77.032 26.6984,77.6987 16.5,79.5C 15.1001,78.9002 14.1001,77.9002 13.5,76.5C 13.244,72.7307 13.5773,69.0641 14.5,65.5C 22.9078,65.5456 31.2411,64.8789 39.5,63.5 Z"/></g>
<g><path style="opacity:1" fill="#28abee" d="M 160.5,67.5 C 162.764,68.2186 165.097,68.552 167.5,68.5C 170.714,69.282 174.048,70.1153 177.5,71C 157.874,72.6096 138.208,73.443 118.5,73.5C 126.878,72.9047 135.211,71.9047 143.5,70.5C 149.406,70.1457 155.073,69.1457 160.5,67.5 Z"/></g>
<g><path style="opacity:1" fill="#2291d0" d="M 167.5,68.5 C 176.915,69.0102 186.248,70.1769 195.5,72C 191.619,73.1901 187.619,73.8568 183.5,74C 151.51,75.1665 119.51,75.6665 87.5,75.5C 97.8333,74.8333 108.167,74.1667 118.5,73.5C 138.208,73.443 157.874,72.6096 177.5,71C 174.048,70.1153 170.714,69.282 167.5,68.5 Z"/></g>
<g><path style="opacity:1" fill="#29b1e3" d="M 143.5,70.5 C 135.211,71.9047 126.878,72.9047 118.5,73.5C 108.167,74.1667 97.8333,74.8333 87.5,75.5C 82.1667,75.5 76.8333,75.5 71.5,75.5C 89.9439,73.1792 108.611,71.8459 127.5,71.5C 132.833,71.1667 138.167,70.8333 143.5,70.5 Z"/></g>
<g><path style="opacity:0.004" fill="#ceedf0" d="M 12.5,76.5 C 11.3592,73.3601 11.1925,70.0267 12,66.5C 12.4983,69.8168 12.665,73.1501 12.5,76.5 Z"/></g>
<g><path style="opacity:0.995" fill="#1b71a3" d="M 160.5,54.5 C 162.067,55.6808 162.901,57.3474 163,59.5C 165.255,60.0418 167.088,61.2085 168.5,63C 170.833,63.3333 173.167,63.6667 175.5,64C 176.716,65.7398 178.382,66.7398 180.5,67C 188.163,68.2531 195.83,69.7531 203.5,71.5C 203.62,74.2048 202.62,74.8715 200.5,73.5C 190.234,74.8488 179.901,75.6821 169.5,76C 128.84,77.037 88.1729,77.537 47.5,77.5C 47.5,77.1667 47.5,76.8333 47.5,76.5C 50.3854,76.8064 53.0521,76.4731 55.5,75.5C 60.8333,75.5 66.1667,75.5 71.5,75.5C 76.8333,75.5 82.1667,75.5 87.5,75.5C 119.51,75.6665 151.51,75.1665 183.5,74C 187.619,73.8568 191.619,73.1901 195.5,72C 186.248,70.1769 176.915,69.0102 167.5,68.5C 165.097,68.552 162.764,68.2186 160.5,67.5C 160.5,64.5 160.5,61.5 160.5,58.5C 160.5,57.1667 160.5,55.8333 160.5,54.5 Z"/></g>
<g><path style="opacity:0.008" fill="#2a7cd3" d="M 12.5,76.5 C 12.8333,76.5 13.1667,76.5 13.5,76.5C 13.1667,80.5 12.8333,80.5 12.5,76.5 Z"/></g>
<g><path style="opacity:1" fill="#2a6386" d="M 225.5,58.5 C 226.391,59.2613 227.058,60.2613 227.5,61.5C 226.86,66.0325 226.194,70.5325 225.5,75C 209.857,76.3222 194.19,77.1555 178.5,77.5C 168.831,77.789 159.165,78.1224 149.5,78.5C 146.351,77.8349 143.018,77.5016 139.5,77.5C 102.172,78.2679 64.8391,78.7679 27.5,79C 31.6877,79.1762 35.6877,79.6762 39.5,80.5C 31.6484,80.8254 23.9818,80.492 16.5,79.5C 26.6984,77.6987 37.0318,77.032 47.5,77.5C 88.1729,77.537 128.84,77.037 169.5,76C 179.901,75.6821 190.234,74.8488 200.5,73.5C 202.62,74.8715 203.62,74.2048 203.5,71.5C 210.564,71.6875 217.564,72.3542 224.5,73.5C 225.298,73.0431 225.631,72.3764 225.5,71.5C 225.5,68.8333 225.5,66.1667 225.5,63.5C 225.5,61.8333 225.5,60.1667 225.5,58.5 Z"/></g>
<g><path style="opacity:1" fill="#1b455e" d="M 149.5,78.5 C 122.194,80.2483 94.861,81.2483 67.5,81.5C 64.5,81.5 61.5,81.5 58.5,81.5C 52.1373,81.593 45.8039,81.2597 39.5,80.5C 35.6877,79.6762 31.6877,79.1762 27.5,79C 64.8391,78.7679 102.172,78.2679 139.5,77.5C 143.018,77.5016 146.351,77.8349 149.5,78.5 Z"/></g>
<g><path style="opacity:0.016" fill="#c9c8c9" d="M 227.5,80.5 C 222.684,79.6739 217.684,79.1739 212.5,79C 218.917,78.1304 225.251,78.4638 231.5,80C 230.207,80.49 228.873,80.6567 227.5,80.5 Z"/></g>
<g><path style="opacity:0.02" fill="#859194" d="M 22.5,81.5 C 29.0221,81.1765 35.3554,81.5098 41.5,82.5C 41.1667,82.5 40.8333,82.5 40.5,82.5C 34.9738,82.1786 29.6405,82.5119 24.5,83.5C 24.1667,83.5 23.8333,83.5 23.5,83.5C 23.1667,82.8333 22.8333,82.1667 22.5,81.5 Z"/></g>
<g><path style="opacity:0.995" fill="#d0d1d1" d="M 178.5,77.5 C 194.637,79.2278 210.97,80.2278 227.5,80.5C 228.878,81.2344 230.378,81.9011 232,82.5C 232.629,103.841 232.462,125.174 231.5,146.5C 229.735,147.461 227.735,147.795 225.5,147.5C 225.489,145.983 224.823,144.816 223.5,144C 219.514,143.501 215.514,143.334 211.5,143.5C 212.833,142.833 214.167,142.167 215.5,141.5C 218.385,141.806 221.052,141.473 223.5,140.5C 224.117,140.389 224.617,140.056 225,139.5C 225.802,134.581 225.635,129.748 224.5,125C 217.508,124.5 210.508,124.334 203.5,124.5C 203.5,124.167 203.5,123.833 203.5,123.5C 210.656,122.986 217.656,122.319 224.5,121.5C 225.833,116.5 225.833,111.5 224.5,106.5C 224.5,106.167 224.5,105.833 224.5,105.5C 224.5,104.833 224.5,104.167 224.5,103.5C 225.338,103.158 225.672,102.492 225.5,101.5C 225.5,99.8333 225.5,98.1667 225.5,96.5C 225.789,92.8936 225.456,89.3936 224.5,86C 203.153,85.4251 181.82,84.5918 160.5,83.5C 151.84,82.8335 143.006,82.5002 134,82.5C 115.226,83.6167 96.3929,84.2833 77.5,84.5C 80.977,83.6773 84.6437,83.1773 88.5,83C 81.3213,82.8285 74.3213,82.3285 67.5,81.5C 94.861,81.2483 122.194,80.2483 149.5,78.5C 159.165,78.1224 168.831,77.789 178.5,77.5 Z"/></g>
<g><path style="opacity:0.008" fill="#c6e5e4" d="M 22.5,81.5 C 22.8333,82.1667 23.1667,82.8333 23.5,83.5C 19.1539,83.6657 14.8206,83.499 10.5,83C 14.466,82.1721 18.466,81.6721 22.5,81.5 Z"/></g>
<g><path style="opacity:1" fill="#ccbe81" d="M 160.5,83.5 C 160.5,83.8333 160.5,84.1667 160.5,84.5C 160.5,84.8333 160.5,85.1667 160.5,85.5C 154.734,84.196 149.067,84.196 143.5,85.5C 135.5,85.5 127.5,85.5 119.5,85.5C 132.968,83.9332 146.635,83.2666 160.5,83.5 Z"/></g>
<g><path style="opacity:1" fill="#393223" d="M 160.5,84.5 C 160.5,84.1667 160.5,83.8333 160.5,83.5C 181.82,84.5918 203.153,85.4251 224.5,86C 225.456,89.3936 225.789,92.8936 225.5,96.5C 224.527,94.0521 224.194,91.3854 224.5,88.5C 208.82,87.6324 193.153,86.6324 177.5,85.5C 171.788,85.687 166.121,85.3537 160.5,84.5 Z"/></g>
<g><path style="opacity:1" fill="#e0ddcd" d="M 160.5,83.5 C 146.635,83.2666 132.968,83.9332 119.5,85.5C 116.833,85.5 114.167,85.5 111.5,85.5C 79.4784,85.8347 47.4784,86.8347 15.5,88.5C 15.62,87.4138 16.2867,86.7472 17.5,86.5C 18.8333,86.8333 20.1667,87.1667 21.5,87.5C 41.5646,86.6998 60.2312,85.6998 77.5,84.5C 96.3929,84.2833 115.226,83.6167 134,82.5C 143.006,82.5002 151.84,82.8335 160.5,83.5 Z"/></g>
<g><path style="opacity:1" fill="#e7e6aa" d="M 111.5,85.5 C 79.8417,88.3237 47.8417,89.657 15.5,89.5C 15.5,89.1667 15.5,88.8333 15.5,88.5C 47.4784,86.8347 79.4784,85.8347 111.5,85.5 Z"/></g>
<g><path style="opacity:1" fill="#fcfba2" d="M 111.5,85.5 C 114.167,85.5 116.833,85.5 119.5,85.5C 127.5,85.5 135.5,85.5 143.5,85.5C 143.527,87.1993 144.194,88.5326 145.5,89.5C 145.167,89.5 144.833,89.5 144.5,89.5C 142.61,89.2965 141.11,89.9632 140,91.5C 137.063,90.1834 134.23,90.1834 131.5,91.5C 131.5,92.1667 131.167,92.5 130.5,92.5C 130.167,91.8333 129.833,91.1667 129.5,90.5C 126.674,89.6575 123.674,88.9908 120.5,88.5C 111.972,89.0459 103.639,90.0459 95.5,91.5C 95.5,93.5 95.5,95.5 95.5,97.5C 97.1667,97.5 98.8333,97.5 100.5,97.5C 101.167,97.5 101.833,97.5 102.5,97.5C 106.66,98.357 110.993,99.0236 115.5,99.5C 121.545,98.3081 127.378,98.3081 133,99.5C 136.742,97.7819 140.575,97.4486 144.5,98.5C 145.85,97.0499 147.516,96.3832 149.5,96.5C 147.157,98.0346 145.157,100.035 143.5,102.5C 100.833,102.5 58.1667,102.5 15.5,102.5C 15.5,98.1667 15.5,93.8333 15.5,89.5C 47.8417,89.657 79.8417,88.3237 111.5,85.5 Z"/></g>
<g><path style="opacity:1" fill="#fdfd86" d="M 16.5,90.5 C 21.5,90.5 26.5,90.5 31.5,90.5C 31.5,91.5 31.5,92.5 31.5,93.5C 34.0728,93.1485 36.4062,93.6485 38.5,95C 37.1667,95.3333 35.8333,95.6667 34.5,96C 37.4363,98.2557 40.7696,99.589 44.5,100C 44.1667,100.333 43.8333,100.667 43.5,101C 34.5062,101.5 25.5062,101.666 16.5,101.5C 16.5,97.8333 16.5,94.1667 16.5,90.5 Z"/></g>
<g><path style="opacity:0.955" fill="#599205" d="M 240.5,42.5 C 240.5,75.1667 240.5,107.833 240.5,140.5C 239.849,141.091 239.182,141.757 238.5,142.5C 237.828,141.051 237.161,139.718 236.5,138.5C 236.5,113.5 236.5,88.5 236.5,63.5C 238.614,56.6404 239.947,49.6404 240.5,42.5 Z"/></g>
<g><path style="opacity:1" fill="#a68230" d="M 160.5,85.5 C 161.609,85.5569 162.609,85.8902 163.5,86.5C 162.699,88.0418 162.366,89.7085 162.5,91.5C 170.802,91.7141 178.469,94.3807 185.5,99.5C 187.5,100 189.5,100.5 191.5,101C 188.183,101.498 184.85,101.665 181.5,101.5C 174.412,101.795 167.412,101.462 160.5,100.5C 160.5,95.5 160.5,90.5 160.5,85.5 Z"/></g>
<g><path style="opacity:1" fill="#bdb98d" d="M 100.5,91.5 C 102.604,91.2011 104.604,91.5344 106.5,92.5C 106.137,93.1835 105.804,93.8501 105.5,94.5C 105.631,95.3764 105.298,96.0431 104.5,96.5C 102.114,95.0116 101.448,95.3449 102.5,97.5C 101.833,97.5 101.167,97.5 100.5,97.5C 99.3915,96.71 98.0581,96.21 96.5,96C 97.6405,95.2588 97.6405,94.4255 96.5,93.5C 97.9492,92.8281 99.2825,92.1614 100.5,91.5 Z"/></g>
<g><path style="opacity:1" fill="#514119" d="M 177.5,85.5 C 193.153,86.6324 208.82,87.6324 224.5,88.5C 224.194,91.3854 224.527,94.0521 225.5,96.5C 225.5,98.1667 225.5,99.8333 225.5,101.5C 225.167,101.5 224.833,101.5 224.5,101.5C 219.746,101.819 215.746,100.319 212.5,97C 210.866,96.5065 209.199,96.3398 207.5,96.5C 207.762,95.0222 207.429,93.6888 206.5,92.5C 204.884,91.8848 203.551,90.8848 202.5,89.5C 198.276,90.2818 194.276,89.4484 190.5,87C 185.981,86.8247 181.647,86.3247 177.5,85.5 Z"/></g>
<g><path style="opacity:1" fill="#837e4f" d="M 88.5,91.5 C 93.8946,90.5548 95.5613,92.5548 93.5,97.5C 92.1667,94.8333 90.8333,94.8333 89.5,97.5C 88.5344,95.604 88.2011,93.604 88.5,91.5 Z"/></g>
<g><path style="opacity:1" fill="#625d32" d="M 95.5,91.5 C 97.1667,91.5 98.8333,91.5 100.5,91.5C 99.2825,92.1614 97.9492,92.8281 96.5,93.5C 97.6405,94.4255 97.6405,95.2588 96.5,96C 98.0581,96.21 99.3915,96.71 100.5,97.5C 98.8333,97.5 97.1667,97.5 95.5,97.5C 95.5,95.5 95.5,93.5 95.5,91.5 Z"/></g>
<g><path style="opacity:1" fill="#7c774e" d="M 116.5,93.5 C 115.566,94.5676 115.232,95.901 115.5,97.5C 111.011,97.0445 106.678,97.0445 102.5,97.5C 101.448,95.3449 102.114,95.0116 104.5,96.5C 105.298,96.0431 105.631,95.3764 105.5,94.5C 107.048,94.1788 107.715,93.1788 107.5,91.5C 109.199,91.3398 110.866,91.5065 112.5,92C 108.5,92.6667 108.5,93.3333 112.5,94C 108.696,95.4943 109.029,96.3276 113.5,96.5C 113.5,94.8333 113.5,93.1667 113.5,91.5C 115.179,91.2852 116.179,91.9519 116.5,93.5 Z"/></g>
<g><path style="opacity:1" fill="#5c582b" d="M 82.5,92.5 C 84.0394,94.9818 85.5394,94.9818 87,92.5C 87.4828,93.448 87.6495,94.448 87.5,95.5C 85.549,95.2267 84.049,95.8934 83,97.5C 82.5065,95.8659 82.3398,94.1992 82.5,92.5 Z"/></g>
<g><path style="opacity:1" fill="#faf786" d="M 160.5,85.5 C 160.5,90.5 160.5,95.5 160.5,100.5C 155.265,102.45 149.598,103.117 143.5,102.5C 145.157,100.035 147.157,98.0346 149.5,96.5C 151.167,96.5 152.833,96.5 154.5,96.5C 154.808,94.076 154.474,91.7427 153.5,89.5C 152.893,89.6236 152.56,89.9569 152.5,90.5C 152.283,94.0595 151.283,94.0595 149.5,90.5C 148.432,89.5655 147.099,89.2322 145.5,89.5C 144.194,88.5326 143.527,87.1993 143.5,85.5C 149.067,84.196 154.734,84.196 160.5,85.5 Z"/></g>
<g><path style="opacity:1" fill="#775e29" d="M 160.5,85.5 C 160.5,85.1667 160.5,84.8333 160.5,84.5C 166.121,85.3537 171.788,85.687 177.5,85.5C 181.647,86.3247 185.981,86.8247 190.5,87C 194.276,89.4484 198.276,90.2818 202.5,89.5C 203.551,90.8848 204.884,91.8848 206.5,92.5C 207.429,93.6888 207.762,95.0222 207.5,96.5C 209.199,96.3398 210.866,96.5065 212.5,97C 215.746,100.319 219.746,101.819 224.5,101.5C 216.35,102.493 208.017,102.826 199.5,102.5C 202.028,101.834 204.694,101.168 207.5,100.5C 205.234,99.6858 202.9,99.1858 200.5,99C 198.066,96.2022 195.232,95.0355 192,95.5C 188.147,93.3006 184.313,91.134 180.5,89C 174.76,88.5665 169.094,87.7331 163.5,86.5C 162.609,85.8902 161.609,85.5569 160.5,85.5 Z"/></g>
<g><path style="opacity:1" fill="#f4f3b0" d="M 129.5,90.5 C 127.821,91.9997 126.488,93.833 125.5,96C 127.833,95.3333 130.167,95.3333 132.5,96C 131.695,94.8873 131.028,93.7206 130.5,92.5C 131.167,92.5 131.5,92.1667 131.5,91.5C 132.999,92.6782 133.999,94.3449 134.5,96.5C 135.833,89.8333 137.167,89.8333 138.5,96.5C 139.192,95.9747 139.692,95.3081 140,94.5C 143.16,97.5015 145.326,97.0015 146.5,93C 146.138,91.5657 145.472,90.3991 144.5,89.5C 144.833,89.5 145.167,89.5 145.5,89.5C 147.099,89.2322 148.432,89.5655 149.5,90.5C 148.351,90.7911 147.684,91.6244 147.5,93C 147.935,96.063 148.768,96.2297 150,93.5C 150.689,94.3567 151.522,95.0233 152.5,95.5C 153.788,93.7015 153.788,92.0348 152.5,90.5C 152.56,89.9569 152.893,89.6236 153.5,89.5C 154.474,91.7427 154.808,94.076 154.5,96.5C 152.833,96.5 151.167,96.5 149.5,96.5C 147.516,96.3832 145.85,97.0499 144.5,98.5C 140.575,97.4486 136.742,97.7819 133,99.5C 127.378,98.3081 121.545,98.3081 115.5,99.5C 110.993,99.0236 106.66,98.357 102.5,97.5C 106.678,97.0445 111.011,97.0445 115.5,97.5C 115.232,95.901 115.566,94.5676 116.5,93.5C 116.179,91.9519 115.179,91.2852 113.5,91.5C 113.5,93.1667 113.5,94.8333 113.5,96.5C 109.029,96.3276 108.696,95.4943 112.5,94C 108.5,93.3333 108.5,92.6667 112.5,92C 110.866,91.5065 109.199,91.3398 107.5,91.5C 107.715,93.1788 107.048,94.1788 105.5,94.5C 105.804,93.8501 106.137,93.1835 106.5,92.5C 104.604,91.5344 102.604,91.2011 100.5,91.5C 98.8333,91.5 97.1667,91.5 95.5,91.5C 103.639,90.0459 111.972,89.0459 120.5,88.5C 123.674,88.9908 126.674,89.6575 129.5,90.5 Z"/></g>
<g><path style="opacity:1" fill="#817e4d" d="M 116.5,93.5 C 117.117,93.6107 117.617,93.944 118,94.5C 118.49,93.2068 118.657,91.8734 118.5,90.5C 120.857,90.3367 123.19,90.5034 125.5,91C 124.897,92.8254 124.23,94.6587 123.5,96.5C 122.833,95.1667 122.167,93.8333 121.5,92.5C 120.568,98.806 118.901,99.1393 116.5,93.5 Z"/></g>
<g><path style="opacity:1" fill="#746b45" d="M 149.5,90.5 C 151.283,94.0595 152.283,94.0595 152.5,90.5C 153.788,92.0348 153.788,93.7015 152.5,95.5C 151.522,95.0233 150.689,94.3567 150,93.5C 148.768,96.2297 147.935,96.063 147.5,93C 147.684,91.6244 148.351,90.7911 149.5,90.5 Z"/></g>
<g><path style="opacity:1" fill="#7e7a43" d="M 144.5,89.5 C 145.472,90.3991 146.138,91.5657 146.5,93C 145.326,97.0015 143.16,97.5015 140,94.5C 139.692,95.3081 139.192,95.9747 138.5,96.5C 137.167,89.8333 135.833,89.8333 134.5,96.5C 133.999,94.3449 132.999,92.6782 131.5,91.5C 134.23,90.1834 137.063,90.1834 140,91.5C 141.11,89.9632 142.61,89.2965 144.5,89.5 Z"/></g>
<g><path style="opacity:1" fill="#f1f0a3" d="M 141.5,91.5 C 142.833,91.5 144.167,91.5 145.5,91.5C 145.778,93.3464 145.111,94.6798 143.5,95.5C 141.889,94.6798 141.222,93.3464 141.5,91.5 Z"/></g>
<g><path style="opacity:1" fill="#716c46" d="M 129.5,90.5 C 129.833,91.1667 130.167,91.8333 130.5,92.5C 131.028,93.7206 131.695,94.8873 132.5,96C 130.167,95.3333 127.833,95.3333 125.5,96C 126.488,93.833 127.821,91.9997 129.5,90.5 Z"/></g>
<g><path style="opacity:1" fill="#8e6e2a" d="M 163.5,86.5 C 169.094,87.7331 174.76,88.5665 180.5,89C 184.313,91.134 188.147,93.3006 192,95.5C 195.232,95.0355 198.066,96.2022 200.5,99C 202.9,99.1858 205.234,99.6858 207.5,100.5C 204.694,101.168 202.028,101.834 199.5,102.5C 193.31,102.823 187.31,102.49 181.5,101.5C 184.85,101.665 188.183,101.498 191.5,101C 189.5,100.5 187.5,100 185.5,99.5C 178.469,94.3807 170.802,91.7141 162.5,91.5C 162.366,89.7085 162.699,88.0418 163.5,86.5 Z"/></g>
<g><path style="opacity:1" fill="#cdbe8a" d="M 160.5,100.5 C 167.412,101.462 174.412,101.795 181.5,101.5C 187.31,102.49 193.31,102.823 199.5,102.5C 208.017,102.826 216.35,102.493 224.5,101.5C 224.833,101.5 225.167,101.5 225.5,101.5C 225.672,102.492 225.338,103.158 224.5,103.5C 156.833,103.5 89.1667,103.5 21.5,103.5C 19.2646,103.795 17.2646,103.461 15.5,102.5C 58.1667,102.5 100.833,102.5 143.5,102.5C 149.598,103.117 155.265,102.45 160.5,100.5 Z"/></g>
<g><path style="opacity:1" fill="#e9e7d6" d="M 21.5,103.5 C 89.1667,103.5 156.833,103.5 224.5,103.5C 224.5,104.167 224.5,104.833 224.5,105.5C 220.167,105.5 215.833,105.5 211.5,105.5C 148.167,104.833 84.8333,104.167 21.5,103.5 Z"/></g>
<g><path style="opacity:0.928" fill="#dddad5" d="M 58.5,81.5 C 61.5,81.5 64.5,81.5 67.5,81.5C 74.3213,82.3285 81.3213,82.8285 88.5,83C 84.6437,83.1773 80.977,83.6773 77.5,84.5C 60.2312,85.6998 41.5646,86.6998 21.5,87.5C 20.1667,87.1667 18.8333,86.8333 17.5,86.5C 16.2867,86.7472 15.62,87.4138 15.5,88.5C 15.5,88.8333 15.5,89.1667 15.5,89.5C 15.5,93.8333 15.5,98.1667 15.5,102.5C 17.2646,103.461 19.2646,103.795 21.5,103.5C 84.8333,104.167 148.167,104.833 211.5,105.5C 168.833,105.5 126.167,105.5 83.5,105.5C 60.8333,105.5 38.1667,105.5 15.5,105.5C 15.3342,110.179 15.5008,114.845 16,119.5C 17.7337,120.249 19.567,120.749 21.5,121C 19.9419,121.21 18.6085,121.71 17.5,122.5C 16.8333,122.5 16.5,122.833 16.5,123.5C 15.3547,127.311 15.1881,131.311 16,135.5C 19.2704,136.132 22.4371,136.799 25.5,137.5C 22.6697,137.963 20.003,138.629 17.5,139.5C 16.5166,143.298 16.1832,147.298 16.5,151.5C 14.8472,142.512 13.6805,133.179 13,123.5C 12.5432,134.506 12.0432,145.506 11.5,156.5C 11.1667,156.5 10.8333,156.5 10.5,156.5C 10.8281,144.988 10.4948,133.654 9.5,122.5C 9.5,109.833 9.5,97.1667 9.5,84.5C 14.6946,84.8205 19.6946,84.4872 24.5,83.5C 30.0262,83.8214 35.3595,83.4881 40.5,82.5C 40.8333,82.5 41.1667,82.5 41.5,82.5C 47.358,82.8222 53.0247,82.4889 58.5,81.5 Z"/></g>
<g><path style="opacity:1" fill="#c8ba7e" d="M 83.5,105.5 C 83.5,105.833 83.5,106.167 83.5,106.5C 71.8333,106.5 60.1667,106.5 48.5,106.5C 37.4476,105.857 26.7809,106.524 16.5,108.5C 16.335,111.85 16.5017,115.183 17,118.5C 20.3936,119.456 23.8936,119.789 27.5,119.5C 32.8221,119.98 38.1554,120.313 43.5,120.5C 38.3839,121.806 33.0506,122.473 27.5,122.5C 24.1667,122.5 20.8333,122.5 17.5,122.5C 18.6085,121.71 19.9419,121.21 21.5,121C 19.567,120.749 17.7337,120.249 16,119.5C 15.5008,114.845 15.3342,110.179 15.5,105.5C 38.1667,105.5 60.8333,105.5 83.5,105.5 Z"/></g>
<g><path style="opacity:1" fill="#877c60" d="M 83.5,106.5 C 83.5,106.167 83.5,105.833 83.5,105.5C 126.167,105.5 168.833,105.5 211.5,105.5C 215.833,105.5 220.167,105.5 224.5,105.5C 224.5,105.833 224.5,106.167 224.5,106.5C 202.993,106.169 181.66,106.503 160.5,107.5C 134.839,106.821 109.172,106.487 83.5,106.5 Z"/></g>
<g><path style="opacity:1" fill="#f9f8a3" d="M 48.5,106.5 C 60.1667,106.5 71.8333,106.5 83.5,106.5C 109.172,106.487 134.839,106.821 160.5,107.5C 160.5,107.833 160.5,108.167 160.5,108.5C 160.5,108.833 160.5,109.167 160.5,109.5C 154.916,108.382 149.249,108.215 143.5,109C 146.691,110.087 150.025,110.92 153.5,111.5C 153.863,112.183 154.196,112.85 154.5,113.5C 155.833,116.167 155.833,118.833 154.5,121.5C 148.439,121.21 142.439,121.543 136.5,122.5C 128.974,121.997 121.641,120.997 114.5,119.5C 113.5,119.5 112.5,119.5 111.5,119.5C 111.5,118.167 111.5,116.833 111.5,115.5C 96.826,115.275 82.1593,114.775 67.5,114C 61.2732,110.985 54.9399,108.485 48.5,106.5 Z"/></g>
<g><path style="opacity:1" fill="#fdf877" d="M 27.5,119.5 C 23.8936,119.789 20.3936,119.456 17,118.5C 16.5017,115.183 16.335,111.85 16.5,108.5C 17.7421,107.957 19.0755,107.623 20.5,107.5C 27.127,108.414 33.4603,109.748 39.5,111.5C 39.238,112.978 39.5713,114.311 40.5,115.5C 42.5405,116.236 44.5405,117.069 46.5,118C 39.9867,118.172 33.6534,118.672 27.5,119.5 Z"/></g>
<g><path style="opacity:1" fill="#fdfc96" d="M 48.5,106.5 C 54.9399,108.485 61.2732,110.985 67.5,114C 82.1593,114.775 96.826,115.275 111.5,115.5C 111.5,116.833 111.5,118.167 111.5,119.5C 112.5,119.5 113.5,119.5 114.5,119.5C 121.641,120.997 128.974,121.997 136.5,122.5C 142.439,121.543 148.439,121.21 154.5,121.5C 147.914,122.377 141.247,123.377 134.5,124.5C 104.148,123.399 73.8151,122.066 43.5,120.5C 38.1554,120.313 32.8221,119.98 27.5,119.5C 33.6534,118.672 39.9867,118.172 46.5,118C 44.5405,117.069 42.5405,116.236 40.5,115.5C 39.5713,114.311 39.238,112.978 39.5,111.5C 33.4603,109.748 27.127,108.414 20.5,107.5C 19.0755,107.623 17.7421,107.957 16.5,108.5C 26.7809,106.524 37.4476,105.857 48.5,106.5 Z"/></g>
<g><path style="opacity:1" fill="#e7e7ad" d="M 143.5,112.5 C 138.813,112.916 137.479,115.249 139.5,119.5C 137.958,120.301 136.292,120.634 134.5,120.5C 135.905,117.586 134.905,115.753 131.5,115C 132.624,114.751 133.624,114.251 134.5,113.5C 134,113.167 133.5,112.833 133,112.5C 130.815,113.758 128.648,113.758 126.5,112.5C 124.889,113.32 124.222,114.654 124.5,116.5C 125.675,116.281 126.675,116.614 127.5,117.5C 126.364,117.964 125.364,118.298 124.5,118.5C 124.167,118.5 123.833,118.5 123.5,118.5C 120.282,118.349 119.949,117.516 122.5,116C 121.5,115.667 120.5,115.333 119.5,115C 120.696,114.346 120.696,113.846 119.5,113.5C 118.749,114.376 118.249,115.376 118,116.5C 115.266,115.638 115.099,114.805 117.5,114C 116.756,112.961 115.756,112.461 114.5,112.5C 117.598,111.179 121.098,110.512 125,110.5C 131.392,110.423 137.559,111.089 143.5,112.5 Z"/></g>
<g><path style="opacity:1" fill="#8a6e32" d="M 160.5,109.5 C 160.5,109.167 160.5,108.833 160.5,108.5C 170.833,108.5 181.167,108.5 191.5,108.5C 199.37,109.452 205.37,113.452 209.5,120.5C 211.396,121.466 213.396,121.799 215.5,121.5C 218.5,121.5 221.5,121.5 224.5,121.5C 217.656,122.319 210.656,122.986 203.5,123.5C 190.962,125.891 178.296,127.891 165.5,129.5C 163.667,129.585 162.334,130.252 161.5,131.5C 161.167,131.5 160.833,131.5 160.5,131.5C 160.5,131.167 160.5,130.833 160.5,130.5C 160.5,129.5 160.5,128.5 160.5,127.5C 162.415,127.784 164.081,127.451 165.5,126.5C 168.096,125.735 170.763,125.401 173.5,125.5C 181.087,125.802 188.42,124.636 195.5,122C 194.692,120.294 193.359,119.461 191.5,119.5C 191.67,118.178 191.337,117.011 190.5,116C 187.061,115.783 184.395,114.283 182.5,111.5C 175.144,110.767 167.81,110.1 160.5,109.5 Z"/></g>
<g><path style="opacity:1" fill="#6d5520" d="M 191.5,108.5 C 199.331,108.583 206.997,109.75 214.5,112C 215.451,115.057 215.784,118.223 215.5,121.5C 213.396,121.799 211.396,121.466 209.5,120.5C 205.37,113.452 199.37,109.452 191.5,108.5 Z"/></g>
<g><path style="opacity:1" fill="#4a3b1b" d="M 224.5,106.5 C 225.833,111.5 225.833,116.5 224.5,121.5C 221.5,121.5 218.5,121.5 215.5,121.5C 215.784,118.223 215.451,115.057 214.5,112C 206.997,109.75 199.331,108.583 191.5,108.5C 181.167,108.5 170.833,108.5 160.5,108.5C 160.5,108.167 160.5,107.833 160.5,107.5C 181.66,106.503 202.993,106.169 224.5,106.5 Z"/></g>
<g><path style="opacity:1" fill="#919263" d="M 134.5,120.5 C 131.246,118.569 127.913,117.902 124.5,118.5C 125.364,118.298 126.364,117.964 127.5,117.5C 126.675,116.614 125.675,116.281 124.5,116.5C 124.222,114.654 124.889,113.32 126.5,112.5C 128.648,113.758 130.815,113.758 133,112.5C 133.5,112.833 134,113.167 134.5,113.5C 133.624,114.251 132.624,114.751 131.5,115C 134.905,115.753 135.905,117.586 134.5,120.5 Z"/></g>
<g><path style="opacity:1" fill="#65642e" d="M 143.5,112.5 C 145.333,114.496 145.833,116.829 145,119.5C 143.172,120.752 141.339,120.752 139.5,119.5C 137.479,115.249 138.813,112.916 143.5,112.5 Z"/></g>
<g><path style="opacity:0.004" fill="#8a8d88" d="M 235.5,40.5 C 235.5,74.1667 235.5,107.833 235.5,141.5C 235.167,141.5 234.833,141.5 234.5,141.5C 234.167,132.167 233.833,132.167 233.5,141.5C 233.5,142.167 233.167,142.5 232.5,142.5C 233.262,108.336 234.262,74.3363 235.5,40.5 Z"/></g>
<g><path style="opacity:1" fill="#828151" d="M 114.5,112.5 C 115.756,112.461 116.756,112.961 117.5,114C 115.099,114.805 115.266,115.638 118,116.5C 118.249,115.376 118.749,114.376 119.5,113.5C 120.696,113.846 120.696,114.346 119.5,115C 120.5,115.333 121.5,115.667 122.5,116C 119.949,117.516 120.282,118.349 123.5,118.5C 120.536,118.98 117.536,119.313 114.5,119.5C 113.244,117.059 113.244,114.726 114.5,112.5 Z"/></g>
<g><path style="opacity:1" fill="#f5f5b4" d="M 140.5,114.5 C 143.5,114.167 144.833,115.5 144.5,118.5C 140.56,119.234 139.227,117.901 140.5,114.5 Z"/></g>
<g><path style="opacity:1" fill="#69652b" d="M 154.5,113.5 C 154.977,121.905 153.31,122.571 149.5,115.5C 150.458,115.953 151.292,116.619 152,117.5C 152.122,115.563 152.955,114.23 154.5,113.5 Z"/></g>
<g><path style="opacity:1" fill="#fdf97f" d="M 160.5,109.5 C 160.5,111.167 160.5,112.833 160.5,114.5C 160.5,118.167 160.5,121.833 160.5,125.5C 156.167,125.5 151.833,125.5 147.5,125.5C 142.968,125.818 138.634,125.485 134.5,124.5C 141.247,123.377 147.914,122.377 154.5,121.5C 155.833,118.833 155.833,116.167 154.5,113.5C 154.196,112.85 153.863,112.183 153.5,111.5C 150.025,110.92 146.691,110.087 143.5,109C 149.249,108.215 154.916,108.382 160.5,109.5 Z"/></g>
<g><path style="opacity:1" fill="#4c4914" d="M 149.5,115.5 C 148.71,116.609 148.21,117.942 148,119.5C 147.192,117.421 147.359,115.421 148.5,113.5C 149.298,113.957 149.631,114.624 149.5,115.5 Z"/></g>
<g><path style="opacity:1" fill="#b08a36" d="M 160.5,109.5 C 167.81,110.1 175.144,110.767 182.5,111.5C 184.395,114.283 187.061,115.783 190.5,116C 191.337,117.011 191.67,118.178 191.5,119.5C 193.359,119.461 194.692,120.294 195.5,122C 188.42,124.636 181.087,125.802 173.5,125.5C 175.075,123.886 175.741,121.886 175.5,119.5C 171.19,118.92 166.857,118.586 162.5,118.5C 162.771,116.62 162.104,115.287 160.5,114.5C 160.5,112.833 160.5,111.167 160.5,109.5 Z"/></g>
<g><path style="opacity:1" fill="#d4aa44" d="M 160.5,114.5 C 162.104,115.287 162.771,116.62 162.5,118.5C 166.857,118.586 171.19,118.92 175.5,119.5C 175.741,121.886 175.075,123.886 173.5,125.5C 170.763,125.401 168.096,125.735 165.5,126.5C 159.5,126.5 153.5,126.5 147.5,126.5C 147.5,126.167 147.5,125.833 147.5,125.5C 151.833,125.5 156.167,125.5 160.5,125.5C 160.5,121.833 160.5,118.167 160.5,114.5 Z"/></g>
<g><path style="opacity:1" fill="#e2c56e" d="M 43.5,120.5 C 73.8151,122.066 104.148,123.399 134.5,124.5C 138.634,125.485 142.968,125.818 147.5,125.5C 147.5,125.833 147.5,126.167 147.5,126.5C 144.482,126.335 141.482,126.502 138.5,127C 140.744,127.05 142.411,127.883 143.5,129.5C 136.847,128.946 130.18,128.612 123.5,128.5C 121.833,128.5 120.167,128.5 118.5,128.5C 97.5493,126.795 76.5493,125.795 55.5,125.5C 46.1518,124.666 36.8184,123.666 27.5,122.5C 33.0506,122.473 38.3839,121.806 43.5,120.5 Z"/></g>
<g><path style="opacity:1" fill="#fcf972" d="M 47.5,136.5 C 42.3993,136.284 37.3993,135.45 32.5,134C 31.8333,132 30.5,130.667 28.5,130C 25.4294,129.853 22.5961,129.02 20,127.5C 19.6174,128.056 19.1174,128.389 18.5,128.5C 18.5,127.167 18.5,125.833 18.5,124.5C 24.1764,124.334 29.8431,124.501 35.5,125C 40.4041,130.2 46.4041,133.533 53.5,135C 51.6547,136.128 49.6547,136.628 47.5,136.5 Z"/></g>
<g><path style="opacity:1" fill="#fdfa89" d="M 17.5,122.5 C 20.8333,122.5 24.1667,122.5 27.5,122.5C 36.8184,123.666 46.1518,124.666 55.5,125.5C 55.4142,126.496 55.7476,127.329 56.5,128C 68.8027,130.412 81.136,132.579 93.5,134.5C 94.086,134.291 94.586,133.957 95,133.5C 96.3712,135.041 97.8712,136.375 99.5,137.5C 99.56,138.043 99.8933,138.376 100.5,138.5C 102.058,133.306 103.058,133.306 103.5,138.5C 109.19,141.004 114.857,141.004 120.5,138.5C 120.811,139.478 121.478,140.145 122.5,140.5C 123.687,139.347 124.687,139.347 125.5,140.5C 128.343,141.687 131.343,141.687 134.5,140.5C 136.055,140.722 137.389,141.389 138.5,142.5C 139.107,142.376 139.44,142.043 139.5,141.5C 140.791,141.737 141.791,141.404 142.5,140.5C 143.167,140.833 143.833,141.167 144.5,141.5C 145.451,140.081 145.784,138.415 145.5,136.5C 147.942,136.354 148.609,137.187 147.5,139C 148,139.5 148.5,140 149,140.5C 151.038,136.427 152.538,136.76 153.5,141.5C 154.318,139.892 154.985,138.225 155.5,136.5C 154.311,135.571 152.978,135.238 151.5,135.5C 145.964,134.338 140.797,132.671 136,130.5C 135.261,131.574 134.261,132.241 133,132.5C 129.639,131.227 126.472,129.893 123.5,128.5C 130.18,128.612 136.847,128.946 143.5,129.5C 149.161,129.907 154.828,130.24 160.5,130.5C 160.5,130.833 160.5,131.167 160.5,131.5C 160.5,131.833 160.5,132.167 160.5,132.5C 159.513,137.305 159.179,142.305 159.5,147.5C 156.833,147.5 154.167,147.5 151.5,147.5C 116.786,144.829 82.1188,141.495 47.5,137.5C 47.5,137.167 47.5,136.833 47.5,136.5C 49.6547,136.628 51.6547,136.128 53.5,135C 46.4041,133.533 40.4041,130.2 35.5,125C 29.8431,124.501 24.1764,124.334 18.5,124.5C 18.5,125.833 18.5,127.167 18.5,128.5C 18.5,129.167 18.1667,129.5 17.5,129.5C 16.5386,127.735 16.2053,125.735 16.5,123.5C 16.5,122.833 16.8333,122.5 17.5,122.5 Z"/></g>
<g><path style="opacity:1" fill="#fefc9b" d="M 55.5,125.5 C 76.5493,125.795 97.5493,126.795 118.5,128.5C 116.708,129.309 114.708,129.809 112.5,130C 111.953,130.925 111.287,131.758 110.5,132.5C 106.036,131.201 101.702,131.201 97.5,132.5C 98.968,133.779 99.6347,135.446 99.5,137.5C 97.8712,136.375 96.3712,135.041 95,133.5C 94.586,133.957 94.086,134.291 93.5,134.5C 81.136,132.579 68.8027,130.412 56.5,128C 55.7476,127.329 55.4142,126.496 55.5,125.5 Z"/></g>
<g><path style="opacity:1" fill="#ac934b" d="M 147.5,126.5 C 153.5,126.5 159.5,126.5 165.5,126.5C 164.081,127.451 162.415,127.784 160.5,127.5C 160.5,128.5 160.5,129.5 160.5,130.5C 154.828,130.24 149.161,129.907 143.5,129.5C 142.411,127.883 140.744,127.05 138.5,127C 141.482,126.502 144.482,126.335 147.5,126.5 Z"/></g>
<g><path style="opacity:1" fill="#f9dc67" d="M 47.5,136.5 C 47.5,136.833 47.5,137.167 47.5,137.5C 41.491,137.299 35.491,136.966 29.5,136.5C 25.6002,135.57 21.6002,135.237 17.5,135.5C 17.5,133.5 17.5,131.5 17.5,129.5C 18.1667,129.5 18.5,129.167 18.5,128.5C 19.1174,128.389 19.6174,128.056 20,127.5C 22.5961,129.02 25.4294,129.853 28.5,130C 30.5,130.667 31.8333,132 32.5,134C 37.3993,135.45 42.3993,136.284 47.5,136.5 Z"/></g>
<g><path style="opacity:1" fill="#f5f5a2" d="M 118.5,128.5 C 120.167,128.5 121.833,128.5 123.5,128.5C 126.472,129.893 129.639,131.227 133,132.5C 134.261,132.241 135.261,131.574 136,130.5C 140.797,132.671 145.964,134.338 151.5,135.5C 149.374,135.85 147.041,135.85 144.5,135.5C 144.5,137.5 144.5,139.5 144.5,141.5C 143.833,141.167 143.167,140.833 142.5,140.5C 144.125,137.551 143.292,135.551 140,134.5C 135.58,136.578 135.413,138.912 139.5,141.5C 139.44,142.043 139.107,142.376 138.5,142.5C 137.389,141.389 136.055,140.722 134.5,140.5C 131.343,141.687 128.343,141.687 125.5,140.5C 126.833,140.5 128.167,140.5 129.5,140.5C 128.591,138.239 128.258,136.072 128.5,134C 126.19,133.503 123.857,133.337 121.5,133.5C 121.649,134.552 121.483,135.552 121,136.5C 120.092,134.561 118.592,133.561 116.5,133.5C 116.657,134.873 116.49,136.207 116,137.5C 113.849,132.377 112.016,132.71 110.5,138.5C 112.929,138.404 115.596,138.737 118.5,139.5C 118.345,136.147 119.012,135.814 120.5,138.5C 114.857,141.004 109.19,141.004 103.5,138.5C 105.838,135.575 107.672,135.908 109,139.5C 109.667,137.5 109.667,135.5 109,133.5C 105.27,132.54 101.437,132.207 97.5,132.5C 101.702,131.201 106.036,131.201 110.5,132.5C 111.287,131.758 111.953,130.925 112.5,130C 114.708,129.809 116.708,129.309 118.5,128.5 Z"/></g>
<g><path style="opacity:1" fill="#9b7a35" d="M 165.5,131.5 C 168.625,130.521 171.958,130.187 175.5,130.5C 183.507,130.334 191.507,130.5 199.5,131C 201.891,132.309 201.891,133.309 199.5,134C 203.131,136.04 204.464,139.207 203.5,143.5C 201.901,143.232 200.568,143.566 199.5,144.5C 196.833,144.833 194.167,145.167 191.5,145.5C 193.249,139.898 191.583,135.564 186.5,132.5C 179.532,131.503 172.532,131.17 165.5,131.5 Z"/></g>
<g><path style="opacity:1" fill="#7d652d" d="M 175.5,130.5 C 185.987,129.506 196.654,129.172 207.5,129.5C 207.178,131.722 207.845,133.556 209.5,135C 208.978,135.561 208.645,136.228 208.5,137C 209.682,140.357 212.015,141.857 215.5,141.5C 214.167,142.167 212.833,142.833 211.5,143.5C 208.833,143.5 206.167,143.5 203.5,143.5C 204.464,139.207 203.131,136.04 199.5,134C 201.891,133.309 201.891,132.309 199.5,131C 191.507,130.5 183.507,130.334 175.5,130.5 Z"/></g>
<g><path style="opacity:1" fill="#908d57" d="M 97.5,132.5 C 101.437,132.207 105.27,132.54 109,133.5C 109.667,135.5 109.667,137.5 109,139.5C 107.672,135.908 105.838,135.575 103.5,138.5C 103.058,133.306 102.058,133.306 100.5,138.5C 99.8933,138.376 99.56,138.043 99.5,137.5C 99.6347,135.446 98.968,133.779 97.5,132.5 Z"/></g>
<g><path style="opacity:1" fill="#bca773" d="M 16.5,123.5 C 16.2053,125.735 16.5386,127.735 17.5,129.5C 17.5,131.5 17.5,133.5 17.5,135.5C 21.6002,135.237 25.6002,135.57 29.5,136.5C 28.4324,137.434 27.099,137.768 25.5,137.5C 22.4371,136.799 19.2704,136.132 16,135.5C 15.1881,131.311 15.3547,127.311 16.5,123.5 Z"/></g>
<g><path style="opacity:1" fill="#614d23" d="M 203.5,123.5 C 203.5,123.833 203.5,124.167 203.5,124.5C 200.978,124.128 198.978,124.961 197.5,127C 205.859,127.295 214.192,127.795 222.5,128.5C 222.958,131.394 222.291,133.894 220.5,136C 220.915,138.026 221.915,139.526 223.5,140.5C 221.052,141.473 218.385,141.806 215.5,141.5C 212.015,141.857 209.682,140.357 208.5,137C 208.645,136.228 208.978,135.561 209.5,135C 207.845,133.556 207.178,131.722 207.5,129.5C 196.654,129.172 185.987,129.506 175.5,130.5C 171.958,130.187 168.625,130.521 165.5,131.5C 164.167,131.5 162.833,131.5 161.5,131.5C 162.334,130.252 163.667,129.585 165.5,129.5C 178.296,127.891 190.962,125.891 203.5,123.5 Z"/></g>
<g><path style="opacity:1" fill="#463923" d="M 203.5,124.5 C 210.508,124.334 217.508,124.5 224.5,125C 225.635,129.748 225.802,134.581 225,139.5C 224.617,140.056 224.117,140.389 223.5,140.5C 221.915,139.526 220.915,138.026 220.5,136C 222.291,133.894 222.958,131.394 222.5,128.5C 214.192,127.795 205.859,127.295 197.5,127C 198.978,124.961 200.978,124.128 203.5,124.5 Z"/></g>
<g><path style="opacity:1" fill="#999a5d" d="M 125.5,140.5 C 124.687,139.347 123.687,139.347 122.5,140.5C 121.478,140.145 120.811,139.478 120.5,138.5C 119.012,135.814 118.345,136.147 118.5,139.5C 115.596,138.737 112.929,138.404 110.5,138.5C 112.016,132.71 113.849,132.377 116,137.5C 116.49,136.207 116.657,134.873 116.5,133.5C 118.592,133.561 120.092,134.561 121,136.5C 121.483,135.552 121.649,134.552 121.5,133.5C 123.857,133.337 126.19,133.503 128.5,134C 128.258,136.072 128.591,138.239 129.5,140.5C 128.167,140.5 126.833,140.5 125.5,140.5 Z"/></g>
<g><path style="opacity:1" fill="#9e9d59" d="M 142.5,140.5 C 141.791,141.404 140.791,141.737 139.5,141.5C 135.413,138.912 135.58,136.578 140,134.5C 143.292,135.551 144.125,137.551 142.5,140.5 Z"/></g>
<g><path style="opacity:1" fill="#deb14a" d="M 160.5,132.5 C 165.45,134.208 170.45,136.042 175.5,138C 179.504,141.264 179.837,144.431 176.5,147.5C 170.9,148.686 165.233,149.353 159.5,149.5C 156.302,150.036 153.635,149.369 151.5,147.5C 154.167,147.5 156.833,147.5 159.5,147.5C 159.179,142.305 159.513,137.305 160.5,132.5 Z"/></g>
<g><path style="opacity:1" fill="#bb933b" d="M 160.5,132.5 C 160.5,132.167 160.5,131.833 160.5,131.5C 160.833,131.5 161.167,131.5 161.5,131.5C 162.833,131.5 164.167,131.5 165.5,131.5C 172.532,131.17 179.532,131.503 186.5,132.5C 191.583,135.564 193.249,139.898 191.5,145.5C 186.364,145.433 181.364,146.1 176.5,147.5C 179.837,144.431 179.504,141.264 175.5,138C 170.45,136.042 165.45,134.208 160.5,132.5 Z"/></g>
<g><path style="opacity:1" fill="#76763b" d="M 130.5,134.5 C 133.95,133.756 135.616,135.09 135.5,138.5C 133.549,138.227 132.049,138.893 131,140.5C 130.505,138.527 130.338,136.527 130.5,134.5 Z"/></g>
<g><path style="opacity:1" fill="#85813b" d="M 151.5,135.5 C 152.978,135.238 154.311,135.571 155.5,136.5C 154.985,138.225 154.318,139.892 153.5,141.5C 152.538,136.76 151.038,136.427 149,140.5C 148.5,140 148,139.5 147.5,139C 148.609,137.187 147.942,136.354 145.5,136.5C 145.784,138.415 145.451,140.081 144.5,141.5C 144.5,139.5 144.5,137.5 144.5,135.5C 147.041,135.85 149.374,135.85 151.5,135.5 Z"/></g>
<g><path style="opacity:1" fill="#fae06e" d="M 31.5,139.5 C 62.264,140.918 92.9307,143.585 123.5,147.5C 127.632,148.533 131.632,149.533 135.5,150.5C 110.097,148.022 84.7633,145.688 59.5,143.5C 49.9117,142.958 40.5784,141.624 31.5,139.5 Z"/></g>
<g><path style="opacity:1" fill="#d9be5b" d="M 29.5,136.5 C 35.491,136.966 41.491,137.299 47.5,137.5C 82.1188,141.495 116.786,144.829 151.5,147.5C 153.635,149.369 156.302,150.036 159.5,149.5C 159.5,150.833 159.5,152.167 159.5,153.5C 151.283,153.14 143.283,152.14 135.5,150.5C 131.632,149.533 127.632,148.533 123.5,147.5C 92.9307,143.585 62.264,140.918 31.5,139.5C 26.8333,139.5 22.1667,139.5 17.5,139.5C 20.003,138.629 22.6697,137.963 25.5,137.5C 27.099,137.768 28.4324,137.434 29.5,136.5 Z"/></g>
<g><path style="opacity:0.008" fill="#e2e2e2" d="M 9.5,122.5 C 9.1719,134.012 9.50523,145.346 10.5,156.5C 10.6665,166.839 10.4998,177.172 10,187.5C 8.4955,153.511 7.82883,119.511 8,85.5C 8.16918,98.0068 8.66918,110.34 9.5,122.5 Z"/></g>
<g><path style="opacity:1" fill="#fcf774" d="M 17.5,139.5 C 22.1667,139.5 26.8333,139.5 31.5,139.5C 40.5784,141.624 49.9117,142.958 59.5,143.5C 58.3915,144.29 57.0581,144.79 55.5,145C 60.9949,145.654 66.1616,147.154 71,149.5C 71.4561,150.744 70.9561,151.577 69.5,152C 80.0307,152.647 90.5307,153.481 101,154.5C 102.584,154.012 103.751,153.012 104.5,151.5C 105.917,154.092 106.917,156.759 107.5,159.5C 108.9,158.9 109.9,157.9 110.5,156.5C 111.691,159.874 114.191,161.54 118,161.5C 121.104,161.149 120.937,160.649 117.5,160C 117.167,159.667 116.833,159.333 116.5,159C 120.5,158.333 120.5,157.667 116.5,157C 118.473,156.505 120.473,156.338 122.5,156.5C 122.598,162.373 123.598,162.706 125.5,157.5C 126.684,159.046 127.684,160.713 128.5,162.5C 129.183,162.137 129.85,161.804 130.5,161.5C 132.522,163.693 135.189,164.693 138.5,164.5C 140.39,164.703 141.89,164.037 143,162.5C 143.464,163.094 143.631,163.761 143.5,164.5C 145.607,165.468 147.941,165.802 150.5,165.5C 151.75,165.423 152.583,164.756 153,163.5C 153.667,164.167 154.333,164.833 155,165.5C 154.207,163.5 154.374,161.5 155.5,159.5C 154.531,158.691 153.698,157.691 153,156.5C 151.484,159.051 150.651,158.718 150.5,155.5C 153.885,154.372 157.219,154.372 160.5,155.5C 161.167,155.5 161.833,155.5 162.5,155.5C 162.5,160.833 162.5,166.167 162.5,171.5C 155.5,170.833 148.5,170.167 141.5,169.5C 112.978,165.015 84.311,160.682 55.5,156.5C 55.5858,155.504 55.2524,154.671 54.5,154C 49.6267,152.3 44.6267,150.967 39.5,150C 35.6356,144.32 30.3022,142.153 23.5,143.5C 21.5,143.5 19.5,143.5 17.5,143.5C 17.5,142.167 17.5,140.833 17.5,139.5 Z"/></g>
<g><path style="opacity:0.008" fill="#76806e" d="M 239.5,145.5 C 240.833,146.167 240.833,146.167 239.5,145.5 Z"/></g>
<g><path style="opacity:1" fill="#fde365" d="M 23.5,143.5 C 30.3022,142.153 35.6356,144.32 39.5,150C 44.6267,150.967 49.6267,152.3 54.5,154C 55.2524,154.671 55.5858,155.504 55.5,156.5C 50.1667,155.833 44.8333,155.167 39.5,154.5C 36.3889,148.761 31.3889,145.761 24.5,145.5C 24.1373,144.817 23.8039,144.15 23.5,143.5 Z"/></g>
<g><path style="opacity:0.008" fill="#597b46" d="M 238.5,146.5 C 238.833,146.5 239.167,146.5 239.5,146.5C 239.315,147.17 238.981,147.17 238.5,146.5 Z"/></g>
<g><path style="opacity:1" fill="#f7cf5c" d="M 17.5,139.5 C 17.5,140.833 17.5,142.167 17.5,143.5C 19.5,143.5 21.5,143.5 23.5,143.5C 23.8039,144.15 24.1373,144.817 24.5,145.5C 31.3889,145.761 36.3889,148.761 39.5,154.5C 32.209,153.285 24.8756,152.285 17.5,151.5C 17.1667,151.5 16.8333,151.5 16.5,151.5C 16.1832,147.298 16.5166,143.298 17.5,139.5 Z"/></g>
<g><path style="opacity:0.02" fill="#6a9a3c" d="M 237.5,147.5 C 237.833,147.5 238.167,147.5 238.5,147.5C 238.315,148.17 237.981,148.17 237.5,147.5 Z"/></g>
<g><path style="opacity:1" fill="#5a8034" d="M 236.5,138.5 C 237.161,139.718 237.828,141.051 238.5,142.5C 239.182,141.757 239.849,141.091 240.5,140.5C 240.371,142.216 240.038,143.883 239.5,145.5C 238.833,145.5 238.5,145.833 238.5,146.5C 237.833,146.5 237.5,146.833 237.5,147.5C 236.833,147.5 236.5,147.833 236.5,148.5C 235.167,148.833 235.167,149.167 236.5,149.5C 236.027,150.906 235.027,151.573 233.5,151.5C 233.5,151.167 233.5,150.833 233.5,150.5C 233.167,150.5 232.833,150.5 232.5,150.5C 232.167,150.5 231.833,150.5 231.5,150.5C 229.5,150.5 227.5,150.5 225.5,150.5C 225.5,149.5 225.5,148.5 225.5,147.5C 227.735,147.795 229.735,147.461 231.5,146.5C 232.434,145.432 232.768,144.099 232.5,142.5C 233.167,142.5 233.5,142.167 233.5,141.5C 233.833,141.5 234.167,141.5 234.5,141.5C 234.833,144.167 235.167,144.167 235.5,141.5C 236.404,140.791 236.737,139.791 236.5,138.5 Z"/></g>
<g><path style="opacity:0.008" fill="#3b5a1f" d="M 236.5,148.5 C 236.833,148.5 237.167,148.5 237.5,148.5C 237.315,149.17 236.981,149.17 236.5,148.5 Z"/></g>
<g><path style="opacity:1" fill="#faf989" d="M 59.5,143.5 C 84.7633,145.688 110.097,148.022 135.5,150.5C 143.283,152.14 151.283,153.14 159.5,153.5C 160.338,153.842 160.672,154.508 160.5,155.5C 157.219,154.372 153.885,154.372 150.5,155.5C 150.651,158.718 151.484,159.051 153,156.5C 153.698,157.691 154.531,158.691 155.5,159.5C 154.542,159.953 153.708,160.619 153,161.5C 152.692,160.692 152.192,160.025 151.5,159.5C 150.534,161.396 150.201,163.396 150.5,165.5C 147.941,165.802 145.607,165.468 143.5,164.5C 144.756,164.096 145.923,163.429 147,162.5C 147.945,162.905 148.612,163.572 149,164.5C 150.333,158.833 148.333,157.167 143,159.5C 140.161,156.591 137.994,156.925 136.5,160.5C 136.752,162.073 137.418,163.406 138.5,164.5C 135.189,164.693 132.522,163.693 130.5,161.5C 130.369,160.761 130.536,160.094 131,159.5C 131.368,160.91 132.201,161.91 133.5,162.5C 134.736,160.966 135.236,159.3 135,157.5C 134.085,158.328 133.419,159.328 133,160.5C 132.065,155.998 130.731,155.665 129,159.5C 128.535,158.069 127.701,156.903 126.5,156C 121.863,155.171 117.196,154.671 112.5,154.5C 112.869,156.993 112.203,157.66 110.5,156.5C 110.585,155.005 109.919,154.005 108.5,153.5C 107.534,155.396 107.201,157.396 107.5,159.5C 106.917,156.759 105.917,154.092 104.5,151.5C 103.751,153.012 102.584,154.012 101,154.5C 90.5307,153.481 80.0307,152.647 69.5,152C 70.9561,151.577 71.4561,150.744 71,149.5C 66.1616,147.154 60.9949,145.654 55.5,145C 57.0581,144.79 58.3915,144.29 59.5,143.5 Z"/></g>
<g><path style="opacity:1" fill="#55451f" d="M 203.5,143.5 C 206.167,143.5 208.833,143.5 211.5,143.5C 215.514,143.334 219.514,143.501 223.5,144C 224.823,144.816 225.489,145.983 225.5,147.5C 225.5,148.5 225.5,149.5 225.5,150.5C 224.681,153.305 224.181,156.305 224,159.5C 214.2,161.283 214.2,162.617 224,163.5C 224.499,168.489 224.666,173.489 224.5,178.5C 222.5,178.833 220.5,179.167 218.5,179.5C 216.932,180.473 215.265,180.64 213.5,180C 214.668,178.594 214.335,177.428 212.5,176.5C 215.635,172.127 214.968,168.627 210.5,166C 211.872,165.598 213.205,165.098 214.5,164.5C 215.487,159.157 215.987,153.824 216,148.5C 210.578,147.772 205.078,147.772 199.5,148.5C 199.5,147.167 199.5,145.833 199.5,144.5C 200.568,143.566 201.901,143.232 203.5,143.5 Z"/></g>
<g><path style="opacity:1" fill="#b1963d" d="M 17.5,151.5 C 24.8756,152.285 32.209,153.285 39.5,154.5C 44.8333,155.167 50.1667,155.833 55.5,156.5C 54.4324,157.434 53.099,157.768 51.5,157.5C 40.5115,156.085 29.5115,154.751 18.5,153.5C 18.1667,152.833 17.8333,152.167 17.5,151.5 Z"/></g>
<g><path style="opacity:1" fill="#838037" d="M 130.5,161.5 C 129.85,161.804 129.183,162.137 128.5,162.5C 127.684,160.713 126.684,159.046 125.5,157.5C 123.598,162.706 122.598,162.373 122.5,156.5C 120.473,156.338 118.473,156.505 116.5,157C 120.5,157.667 120.5,158.333 116.5,159C 116.833,159.333 117.167,159.667 117.5,160C 120.937,160.649 121.104,161.149 118,161.5C 114.191,161.54 111.691,159.874 110.5,156.5C 112.203,157.66 112.869,156.993 112.5,154.5C 117.196,154.671 121.863,155.171 126.5,156C 127.701,156.903 128.535,158.069 129,159.5C 130.731,155.665 132.065,155.998 133,160.5C 133.419,159.328 134.085,158.328 135,157.5C 135.236,159.3 134.736,160.966 133.5,162.5C 132.201,161.91 131.368,160.91 131,159.5C 130.536,160.094 130.369,160.761 130.5,161.5 Z"/></g>
<g><path style="opacity:1" fill="#787439" d="M 110.5,156.5 C 109.9,157.9 108.9,158.9 107.5,159.5C 107.201,157.396 107.534,155.396 108.5,153.5C 109.919,154.005 110.585,155.005 110.5,156.5 Z"/></g>
<g><path style="opacity:1" fill="#807e37" d="M 143.5,164.5 C 143.631,163.761 143.464,163.094 143,162.5C 141.89,164.037 140.39,164.703 138.5,164.5C 137.418,163.406 136.752,162.073 136.5,160.5C 137.994,156.925 140.161,156.591 143,159.5C 148.333,157.167 150.333,158.833 149,164.5C 148.612,163.572 147.945,162.905 147,162.5C 145.923,163.429 144.756,164.096 143.5,164.5 Z"/></g>
<g><path style="opacity:1" fill="#fcd856" d="M 18.5,157.5 C 24.1383,157.453 29.805,158.286 35.5,160C 38.6826,162.645 42.3493,164.311 46.5,165C 48.1667,166.333 49.8333,167.667 51.5,169C 58.1717,171.001 64.8384,173.001 71.5,175C 69.1902,175.497 66.8568,175.663 64.5,175.5C 62.5853,175.784 60.9187,175.451 59.5,174.5C 53.1716,172.412 46.505,170.578 39.5,169C 33.0934,164.816 26.0934,162.316 18.5,161.5C 18.5,160.167 18.5,158.833 18.5,157.5 Z"/></g>
<g><path style="opacity:1" fill="#fcf36b" d="M 18.5,153.5 C 29.5115,154.751 40.5115,156.085 51.5,157.5C 58.3917,158.909 65.3917,160.242 72.5,161.5C 72.9175,162.222 73.5842,162.722 74.5,163C 72.4325,163.687 70.4325,163.52 68.5,162.5C 67.5762,164.39 66.2429,165.89 64.5,167C 67.1056,168.27 69.439,169.937 71.5,172C 83.2534,175.437 95.2534,177.603 107.5,178.5C 107.855,179.522 108.522,180.189 109.5,180.5C 109.715,182.179 109.048,183.179 107.5,183.5C 92.9114,181.559 78.578,178.892 64.5,175.5C 66.8568,175.663 69.1902,175.497 71.5,175C 64.8384,173.001 58.1717,171.001 51.5,169C 49.8333,167.667 48.1667,166.333 46.5,165C 42.3493,164.311 38.6826,162.645 35.5,160C 29.805,158.286 24.1383,157.453 18.5,157.5C 18.1667,157.5 17.8333,157.5 17.5,157.5C 17.2322,155.901 17.5655,154.568 18.5,153.5 Z"/></g>
<g><path style="opacity:1" fill="#c5b748" d="M 55.5,156.5 C 84.311,160.682 112.978,165.015 141.5,169.5C 140.833,169.5 140.5,169.833 140.5,170.5C 122.904,167.707 105.237,165.373 87.5,163.5C 82.7105,162.275 77.7105,161.608 72.5,161.5C 65.3917,160.242 58.3917,158.909 51.5,157.5C 53.099,157.768 54.4324,157.434 55.5,156.5 Z"/></g>
<g><path style="opacity:1" fill="#f1f794" d="M 137.5,159.5 C 138.833,159.5 140.167,159.5 141.5,159.5C 141.5,160.5 141.5,161.5 141.5,162.5C 139.027,162.912 137.694,161.912 137.5,159.5 Z"/></g>
<g><path style="opacity:1" fill="#78712a" d="M 155.5,159.5 C 154.374,161.5 154.207,163.5 155,165.5C 154.333,164.833 153.667,164.167 153,163.5C 152.583,164.756 151.75,165.423 150.5,165.5C 150.201,163.396 150.534,161.396 151.5,159.5C 152.192,160.025 152.692,160.692 153,161.5C 153.708,160.619 154.542,159.953 155.5,159.5 Z"/></g>
<g><path style="opacity:1" fill="#ecbd4f" d="M 162.5,155.5 C 163.5,155.5 164.5,155.5 165.5,155.5C 168.219,155.397 170.885,155.731 173.5,156.5C 175.048,158.376 177.048,159.376 179.5,159.5C 179.5,162.167 179.5,164.833 179.5,167.5C 176.054,168.928 172.387,169.761 168.5,170C 168.167,170.333 167.833,170.667 167.5,171C 169.9,171.186 172.234,171.686 174.5,172.5C 170.834,173.666 167.167,174.833 163.5,176C 168.182,175.536 172.849,175.703 177.5,176.5C 176.77,179.109 176.27,181.776 176,184.5C 175.586,184.043 175.086,183.709 174.5,183.5C 173.515,185.772 172.681,188.105 172,190.5C 167.981,192.046 163.815,193.046 159.5,193.5C 156.572,193.435 153.905,192.768 151.5,191.5C 155.212,192.418 158.878,192.418 162.5,191.5C 162.827,186.786 162.493,182.12 161.5,177.5C 160.817,177.137 160.15,176.804 159.5,176.5C 159.5,175.5 159.5,174.5 159.5,173.5C 153.144,172.607 146.811,171.607 140.5,170.5C 140.5,169.833 140.833,169.5 141.5,169.5C 148.5,170.167 155.5,170.833 162.5,171.5C 162.5,166.167 162.5,160.833 162.5,155.5 Z"/></g>
<g><path style="opacity:1" fill="#edbe53" d="M 17.5,157.5 C 17.8333,157.5 18.1667,157.5 18.5,157.5C 18.5,158.833 18.5,160.167 18.5,161.5C 26.0934,162.316 33.0934,164.816 39.5,169C 46.505,170.578 53.1716,172.412 59.5,174.5C 45.5546,171.847 31.5546,169.514 17.5,167.5C 17.5,164.167 17.5,160.833 17.5,157.5 Z"/></g>
<g><path style="opacity:1" fill="#7a602a" d="M 199.5,144.5 C 199.5,145.833 199.5,147.167 199.5,148.5C 205.078,147.772 210.578,147.772 216,148.5C 215.987,153.824 215.487,159.157 214.5,164.5C 213.205,165.098 211.872,165.598 210.5,166C 214.968,168.627 215.635,172.127 212.5,176.5C 214.335,177.428 214.668,178.594 213.5,180C 215.265,180.64 216.932,180.473 218.5,179.5C 220.167,180.167 221.833,180.833 223.5,181.5C 218.307,183.118 213.307,185.118 208.5,187.5C 208.296,190.545 208.296,193.379 208.5,196C 208.003,199.002 206.337,201.002 203.5,202C 204.094,202.464 204.761,202.631 205.5,202.5C 200.053,204.195 194.72,206.195 189.5,208.5C 185.501,209.5 181.501,210.5 177.5,211.5C 179.364,209.986 181.364,208.653 183.5,207.5C 186.919,205.588 189.919,203.088 192.5,200C 193.448,199.517 194.448,199.351 195.5,199.5C 196.008,195.803 196.674,192.136 197.5,188.5C 200.187,188.664 202.854,188.497 205.5,188C 209.52,185.966 213.52,183.966 217.5,182C 213.888,181.326 210.554,181.826 207.5,183.5C 206.167,183.5 204.833,183.5 203.5,183.5C 204.324,178.825 204.658,174.325 204.5,170C 203.672,169.085 202.672,168.419 201.5,168C 204.266,167.309 204.933,165.809 203.5,163.5C 203.977,162.522 204.643,161.689 205.5,161C 205.342,157.712 205.342,154.212 205.5,150.5C 199.974,150.179 194.64,150.512 189.5,151.5C 185.486,151.666 181.486,151.499 177.5,151C 182.234,150.317 186.9,149.317 191.5,148C 190.402,147.23 190.402,146.397 191.5,145.5C 194.167,145.167 196.833,144.833 199.5,144.5 Z"/></g>
<g><path style="opacity:1" fill="#fefe75" d="M 72.5,161.5 C 77.7105,161.608 82.7105,162.275 87.5,163.5C 85.396,163.201 83.396,163.534 81.5,164.5C 91.8138,166.082 100.147,167.415 106.5,168.5C 106.721,170.664 107.721,172.33 109.5,173.5C 109.5,175.833 109.5,178.167 109.5,180.5C 108.522,180.189 107.855,179.522 107.5,178.5C 95.2534,177.603 83.2534,175.437 71.5,172C 69.439,169.937 67.1056,168.27 64.5,167C 66.2429,165.89 67.5762,164.39 68.5,162.5C 70.4325,163.52 72.4325,163.687 74.5,163C 73.5842,162.722 72.9175,162.222 72.5,161.5 Z"/></g>
<g><path style="opacity:0.008" fill="#dedfde" d="M 232.5,150.5 C 232.833,150.5 233.167,150.5 233.5,150.5C 233.5,150.833 233.5,151.167 233.5,151.5C 233.787,168.362 233.12,185.028 231.5,201.5C 231.5,195.167 231.5,188.833 231.5,182.5C 232.494,172.013 232.828,161.346 232.5,150.5 Z"/></g>
<g><path style="opacity:1" fill="#8b6d2e" d="M 189.5,151.5 C 194.64,150.512 199.974,150.179 205.5,150.5C 205.342,154.212 205.342,157.712 205.5,161C 204.643,161.689 203.977,162.522 203.5,163.5C 204.933,165.809 204.266,167.309 201.5,168C 202.672,168.419 203.672,169.085 204.5,170C 204.658,174.325 204.324,178.825 203.5,183.5C 201.299,184.566 198.965,185.233 196.5,185.5C 193.999,185.489 193.832,184.822 196,183.5C 196.583,179.168 197.083,174.835 197.5,170.5C 196.022,170.762 194.689,170.429 193.5,169.5C 195.966,168.877 198.299,168.043 200.5,167C 197.736,165.456 197.903,164.289 201,163.5C 201.357,159.49 201.19,155.49 200.5,151.5C 196.833,151.5 193.167,151.5 189.5,151.5 Z"/></g>
<g><path style="opacity:1" fill="#a48137" d="M 191.5,145.5 C 190.402,146.397 190.402,147.23 191.5,148C 186.9,149.317 182.234,150.317 177.5,151C 181.486,151.499 185.486,151.666 189.5,151.5C 193.167,151.5 196.833,151.5 200.5,151.5C 201.19,155.49 201.357,159.49 201,163.5C 197.903,164.289 197.736,165.456 200.5,167C 198.299,168.043 195.966,168.877 193.5,169.5C 194.689,170.429 196.022,170.762 197.5,170.5C 197.083,174.835 196.583,179.168 196,183.5C 193.832,184.822 193.999,185.489 196.5,185.5C 193.72,186.82 190.72,187.32 187.5,187C 188.535,183.223 189.035,179.389 189,175.5C 188.5,175 188,174.5 187.5,174C 184.167,173.667 180.833,173.333 177.5,173C 182.153,171.566 186.819,170.066 191.5,168.5C 190.167,167.833 188.833,167.167 187.5,166.5C 188.376,165.749 189.376,165.249 190.5,165C 189.536,160.934 189.203,156.767 189.5,152.5C 183.145,152.406 176.812,152.74 170.5,153.5C 168.36,153.556 166.694,154.223 165.5,155.5C 164.5,155.5 163.5,155.5 162.5,155.5C 161.833,155.5 161.167,155.5 160.5,155.5C 160.672,154.508 160.338,153.842 159.5,153.5C 159.5,152.167 159.5,150.833 159.5,149.5C 165.233,149.353 170.9,148.686 176.5,147.5C 181.364,146.1 186.364,145.433 191.5,145.5 Z"/></g>
<g><path style="opacity:1" fill="#faf778" d="M 87.5,163.5 C 105.237,165.373 122.904,167.707 140.5,170.5C 146.811,171.607 153.144,172.607 159.5,173.5C 159.5,174.5 159.5,175.5 159.5,176.5C 159.665,179.518 159.498,182.518 159,185.5C 158.014,186.171 156.847,186.171 155.5,185.5C 154.691,183.987 154.524,182.32 155,180.5C 153.35,183.106 151.85,183.106 150.5,180.5C 150.167,180.5 149.833,180.5 149.5,180.5C 148.25,180.577 147.417,181.244 147,182.5C 146.617,181.944 146.117,181.611 145.5,181.5C 145.5,180.5 145.5,179.5 145.5,178.5C 143.833,178.5 142.167,178.5 140.5,178.5C 140.5,180.167 140.5,181.833 140.5,183.5C 139.448,183.649 138.448,183.483 137.5,183C 136.901,181.378 136.234,179.878 135.5,178.5C 134.833,179.5 134.167,180.5 133.5,181.5C 133.446,179.368 132.446,178.035 130.5,177.5C 129.391,177.443 128.391,177.11 127.5,176.5C 125.452,176.16 124.452,176.493 124.5,177.5C 124.768,179.099 124.434,180.432 123.5,181.5C 122.597,179.364 121.431,177.364 120,175.5C 119,176.833 118,178.167 117,179.5C 116.79,177.942 116.29,176.609 115.5,175.5C 114.082,173.692 112.082,173.025 109.5,173.5C 107.721,172.33 106.721,170.664 106.5,168.5C 100.147,167.415 91.8138,166.082 81.5,164.5C 83.396,163.534 85.396,163.201 87.5,163.5 Z"/></g>
<g><path style="opacity:1" fill="#c79e41" d="M 196.5,185.5 C 198.965,185.233 201.299,184.566 203.5,183.5C 204.833,183.5 206.167,183.5 207.5,183.5C 208.885,184.302 208.718,184.969 207,185.5C 201.585,186.588 196.419,188.255 191.5,190.5C 189.07,193.639 187.903,197.305 188,201.5C 185.873,203.114 184.373,205.114 183.5,207.5C 181.364,208.653 179.364,209.986 177.5,211.5C 170.348,213.787 163.015,215.121 155.5,215.5C 150.255,213.523 144.922,211.856 139.5,210.5C 142.5,210.5 145.5,210.5 148.5,210.5C 148.539,208.641 147.706,207.308 146,206.5C 142.822,208.167 140.322,207.5 138.5,204.5C 142.148,205.729 145.148,204.729 147.5,201.5C 148.333,202.5 149.167,203.5 150,204.5C 150.423,203.044 151.256,202.544 152.5,203C 153.38,204.356 153.714,205.856 153.5,207.5C 154.5,207.5 155.5,207.5 156.5,207.5C 155.345,209.825 153.345,210.992 150.5,211C 153.148,213.05 156.148,214.216 159.5,214.5C 159.5,213.167 159.5,211.833 159.5,210.5C 161.199,210.66 162.866,210.494 164.5,210C 168.321,206.345 171.988,202.511 175.5,198.5C 174.624,197.749 173.624,197.249 172.5,197C 174.758,196.124 176.758,194.957 178.5,193.5C 181.971,192.635 185.304,191.468 188.5,190C 179.345,190.535 170.345,192.202 161.5,195C 159.288,195.789 157.288,195.622 155.5,194.5C 157.099,194.768 158.432,194.434 159.5,193.5C 163.815,193.046 167.981,192.046 172,190.5C 172.681,188.105 173.515,185.772 174.5,183.5C 175.086,183.709 175.586,184.043 176,184.5C 176.27,181.776 176.77,179.109 177.5,176.5C 172.849,175.703 168.182,175.536 163.5,176C 167.167,174.833 170.834,173.666 174.5,172.5C 172.234,171.686 169.9,171.186 167.5,171C 167.833,170.667 168.167,170.333 168.5,170C 172.387,169.761 176.054,168.928 179.5,167.5C 179.5,164.833 179.5,162.167 179.5,159.5C 177.048,159.376 175.048,158.376 173.5,156.5C 170.885,155.731 168.219,155.397 165.5,155.5C 166.694,154.223 168.36,153.556 170.5,153.5C 176.812,152.74 183.145,152.406 189.5,152.5C 189.203,156.767 189.536,160.934 190.5,165C 189.376,165.249 188.376,165.749 187.5,166.5C 188.833,167.167 190.167,167.833 191.5,168.5C 186.819,170.066 182.153,171.566 177.5,173C 180.833,173.333 184.167,173.667 187.5,174C 188,174.5 188.5,175 189,175.5C 189.035,179.389 188.535,183.223 187.5,187C 190.72,187.32 193.72,186.82 196.5,185.5 Z"/></g>
<g><path style="opacity:0.992" fill="#d1cecb" d="M 225.5,150.5 C 227.5,150.5 229.5,150.5 231.5,150.5C 231.5,161.167 231.5,171.833 231.5,182.5C 230.51,188.645 230.177,194.978 230.5,201.5C 229.833,201.5 229.5,201.833 229.5,202.5C 226.087,205.312 222.087,206.979 217.5,207.5C 216.833,206.167 216.167,206.167 215.5,207.5C 211.5,207.833 211.5,208.167 215.5,208.5C 214.791,209.404 213.791,209.737 212.5,209.5C 212.167,209.5 211.833,209.5 211.5,209.5C 211.158,208.662 210.492,208.328 209.5,208.5C 208.522,208.189 207.855,207.522 207.5,206.5C 209.078,205.702 210.744,205.202 212.5,205C 211.57,204.009 210.404,203.509 209,203.5C 202.595,205.648 196.095,207.315 189.5,208.5C 194.72,206.195 200.053,204.195 205.5,202.5C 211.728,200.223 218.061,198.223 224.5,196.5C 224.821,191.305 224.487,186.305 223.5,181.5C 221.833,180.833 220.167,180.167 218.5,179.5C 220.5,179.167 222.5,178.833 224.5,178.5C 224.666,173.489 224.499,168.489 224,163.5C 214.2,162.617 214.2,161.283 224,159.5C 224.181,156.305 224.681,153.305 225.5,150.5 Z"/></g>
<g><path style="opacity:1" fill="#fcf96c" d="M 143.5,192.5 C 143.38,193.586 142.713,194.253 141.5,194.5C 132.765,193.22 124.098,191.553 115.5,189.5C 114.167,189.833 112.833,190.167 111.5,190.5C 113.396,191.466 115.396,191.799 117.5,191.5C 117.5,192.5 117.5,193.5 117.5,194.5C 116.167,194.5 114.833,194.5 113.5,194.5C 112.167,194.5 110.833,194.5 109.5,194.5C 108.596,195.209 108.263,196.209 108.5,197.5C 107.636,196.312 106.636,195.145 105.5,194C 100.563,192.915 95.5634,192.248 90.5,192C 88.1667,191 85.8333,190 83.5,189C 73.8144,187.701 64.481,185.534 55.5,182.5C 55.0233,181.522 54.3567,180.689 53.5,180C 49.8079,180.004 46.4746,179.004 43.5,177C 39.4899,176.499 35.4899,175.999 31.5,175.5C 27.3642,173.817 23.0309,173.15 18.5,173.5C 18.8807,172.069 19.8807,171.236 21.5,171C 24.1667,170.333 26.8333,170.333 29.5,171C 67.6288,178.207 105.629,185.374 143.5,192.5 Z"/></g>
<g><path style="opacity:1" fill="#94913a" d="M 115.5,175.5 C 116.29,176.609 116.79,177.942 117,179.5C 118,178.167 119,176.833 120,175.5C 121.431,177.364 122.597,179.364 123.5,181.5C 123.565,181.938 123.399,182.272 123,182.5C 122.261,181.426 121.261,180.759 120,180.5C 116.936,180.923 113.769,180.923 110.5,180.5C 110.5,178.5 110.5,176.5 110.5,174.5C 112.292,174.366 113.958,174.699 115.5,175.5 Z"/></g>
<g><path style="opacity:1" fill="#b59f3d" d="M 17.5,167.5 C 31.5546,169.514 45.5546,171.847 59.5,174.5C 60.9187,175.451 62.5853,175.784 64.5,175.5C 78.578,178.892 92.9114,181.559 107.5,183.5C 121.987,186.484 136.654,189.151 151.5,191.5C 153.905,192.768 156.572,193.435 159.5,193.5C 158.432,194.434 157.099,194.768 155.5,194.5C 151.546,193.619 147.546,192.952 143.5,192.5C 105.629,185.374 67.6288,178.207 29.5,171C 26.8333,170.333 24.1667,170.333 21.5,171C 19.8807,171.236 18.8807,172.069 18.5,173.5C 18.5,174.167 18.5,174.833 18.5,175.5C 18.5,177.833 18.5,180.167 18.5,182.5C 31.5099,183.293 43.8433,186.293 55.5,191.5C 54.1667,191.5 52.8333,191.5 51.5,191.5C 49.901,191.768 48.5676,191.434 47.5,190.5C 43.8414,188.658 39.8414,187.658 35.5,187.5C 30.0546,185.674 24.3879,184.341 18.5,183.5C 17.353,179.354 17.1864,175.02 18,170.5C 19.7947,169.281 19.6281,168.281 17.5,167.5 Z"/></g>
<g><path style="opacity:1" fill="#877953" d="M 18.5,183.5 C 24.3879,184.341 30.0546,185.674 35.5,187.5C 29.4562,187.237 23.7896,185.904 18.5,183.5 Z"/></g>
<g><path style="opacity:1" fill="#f3da63" d="M 109.5,173.5 C 112.082,173.025 114.082,173.692 115.5,175.5C 113.958,174.699 112.292,174.366 110.5,174.5C 110.5,176.5 110.5,178.5 110.5,180.5C 113.769,180.923 116.936,180.923 120,180.5C 121.261,180.759 122.261,181.426 123,182.5C 123.399,182.272 123.565,181.938 123.5,181.5C 124.434,180.432 124.768,179.099 124.5,177.5C 125.302,178.952 125.802,180.618 126,182.5C 126.315,180.414 126.815,178.414 127.5,176.5C 128.391,177.11 129.391,177.443 130.5,177.5C 127.047,183.321 128.047,184.655 133.5,181.5C 134.167,180.5 134.833,179.5 135.5,178.5C 135.5,180.5 135.5,182.5 135.5,184.5C 138.448,184.223 141.281,184.556 144,185.5C 144.21,183.942 144.71,182.609 145.5,181.5C 148.089,187.113 149.422,186.779 149.5,180.5C 149.833,180.5 150.167,180.5 150.5,180.5C 150.338,182.527 150.505,184.527 151,186.5C 151.308,185.692 151.808,185.025 152.5,184.5C 153.281,185.737 154.281,186.737 155.5,187.5C 156.463,187.03 156.463,186.363 155.5,185.5C 156.847,186.171 158.014,186.171 159,185.5C 159.498,182.518 159.665,179.518 159.5,176.5C 160.15,176.804 160.817,177.137 161.5,177.5C 162.493,182.12 162.827,186.786 162.5,191.5C 158.878,192.418 155.212,192.418 151.5,191.5C 136.654,189.151 121.987,186.484 107.5,183.5C 109.048,183.179 109.715,182.179 109.5,180.5C 109.5,178.167 109.5,175.833 109.5,173.5 Z"/></g>
<g><path style="opacity:1" fill="#817726" d="M 150.5,180.5 C 151.85,183.106 153.35,183.106 155,180.5C 154.524,182.32 154.691,183.987 155.5,185.5C 156.463,186.363 156.463,187.03 155.5,187.5C 154.281,186.737 153.281,185.737 152.5,184.5C 151.808,185.025 151.308,185.692 151,186.5C 150.505,184.527 150.338,182.527 150.5,180.5 Z"/></g>
<g><path style="opacity:1" fill="#918534" d="M 135.5,178.5 C 136.234,179.878 136.901,181.378 137.5,183C 138.448,183.483 139.448,183.649 140.5,183.5C 140.5,181.833 140.5,180.167 140.5,178.5C 142.167,178.5 143.833,178.5 145.5,178.5C 145.5,179.5 145.5,180.5 145.5,181.5C 144.71,182.609 144.21,183.942 144,185.5C 141.281,184.556 138.448,184.223 135.5,184.5C 135.5,182.5 135.5,180.5 135.5,178.5 Z"/></g>
<g><path style="opacity:1" fill="#857d3d" d="M 149.5,180.5 C 149.422,186.779 148.089,187.113 145.5,181.5C 146.117,181.611 146.617,181.944 147,182.5C 147.417,181.244 148.25,180.577 149.5,180.5 Z"/></g>
<g><path style="opacity:1" fill="#817a31" d="M 130.5,177.5 C 132.446,178.035 133.446,179.368 133.5,181.5C 128.047,184.655 127.047,183.321 130.5,177.5 Z"/></g>
<g><path style="opacity:1" fill="#65650d" d="M 127.5,176.5 C 126.815,178.414 126.315,180.414 126,182.5C 125.802,180.618 125.302,178.952 124.5,177.5C 124.452,176.493 125.452,176.16 127.5,176.5 Z"/></g>
<g><path style="opacity:1" fill="#fbd054" d="M 18.5,173.5 C 23.0309,173.15 27.3642,173.817 31.5,175.5C 31.9528,176.458 32.6195,177.292 33.5,178C 37.5442,178.856 41.2108,180.522 44.5,183C 51.4323,184.629 58.4323,185.963 65.5,187C 67.4105,188.496 69.4105,189.829 71.5,191C 75.6888,191.336 79.8555,191.836 84,192.5C 85.6075,192.769 86.7741,193.603 87.5,195C 93.1903,195.469 98.857,196.136 104.5,197C 105.354,198.022 106.354,198.855 107.5,199.5C 108.298,199.043 108.631,198.376 108.5,197.5C 108.263,196.209 108.596,195.209 109.5,194.5C 109.201,196.604 109.534,198.604 110.5,200.5C 112.071,199.691 113.738,199.357 115.5,199.5C 115.5,200.167 115.5,200.833 115.5,201.5C 110.554,202.644 105.554,202.644 100.5,201.5C 99.8333,201.5 99.1667,201.5 98.5,201.5C 92.2848,199.749 86.4514,197.083 81,193.5C 80.0497,194.022 79.2164,194.689 78.5,195.5C 68.7872,190.487 58.4538,187.487 47.5,186.5C 38.9919,182.071 30.1586,178.071 21,174.5C 20.0979,174.743 19.2646,175.077 18.5,175.5C 18.5,174.833 18.5,174.167 18.5,173.5 Z"/></g>
<g><path style="opacity:1" fill="#fce759" d="M 31.5,175.5 C 35.4899,175.999 39.4899,176.499 43.5,177C 46.4746,179.004 49.8079,180.004 53.5,180C 54.3567,180.689 55.0233,181.522 55.5,182.5C 64.481,185.534 73.8144,187.701 83.5,189C 85.8333,190 88.1667,191 90.5,192C 95.5634,192.248 100.563,192.915 105.5,194C 106.636,195.145 107.636,196.312 108.5,197.5C 108.631,198.376 108.298,199.043 107.5,199.5C 106.354,198.855 105.354,198.022 104.5,197C 98.857,196.136 93.1903,195.469 87.5,195C 86.7741,193.603 85.6075,192.769 84,192.5C 79.8555,191.836 75.6888,191.336 71.5,191C 69.4105,189.829 67.4105,188.496 65.5,187C 58.4323,185.963 51.4323,184.629 44.5,183C 41.2108,180.522 37.5442,178.856 33.5,178C 32.6195,177.292 31.9528,176.458 31.5,175.5 Z"/></g>
<g><path style="opacity:1" fill="#928159" d="M 35.5,187.5 C 39.8414,187.658 43.8414,188.658 47.5,190.5C 43.076,190.728 39.076,189.728 35.5,187.5 Z"/></g>
<g><path style="opacity:0.996" fill="#d8d7d5" d="M 16.5,151.5 C 16.8333,151.5 17.1667,151.5 17.5,151.5C 17.8333,152.167 18.1667,152.833 18.5,153.5C 17.5655,154.568 17.2322,155.901 17.5,157.5C 17.5,160.833 17.5,164.167 17.5,167.5C 19.6281,168.281 19.7947,169.281 18,170.5C 17.1864,175.02 17.353,179.354 18.5,183.5C 23.7896,185.904 29.4562,187.237 35.5,187.5C 39.076,189.728 43.076,190.728 47.5,190.5C 48.5676,191.434 49.901,191.768 51.5,191.5C 68.519,196.374 85.8523,200.374 103.5,203.5C 108.503,205.706 113.836,207.039 119.5,207.5C 119.5,207.833 119.5,208.167 119.5,208.5C 118.078,208.709 116.745,209.209 115.5,210C 118.403,211.486 118.736,212.986 116.5,214.5C 112.521,213.553 108.521,213.386 104.5,214C 102.122,213.489 99.7885,212.822 97.5,212C 98.8333,211.333 98.8333,210.667 97.5,210C 95.8659,209.506 94.1992,209.34 92.5,209.5C 91.5,208.167 90.5,208.167 89.5,209.5C 83.7924,209.508 83.4591,209.008 88.5,208C 86.5,207.5 84.5,207 82.5,206.5C 80.8453,207.228 79.1786,207.395 77.5,207C 78.8333,206.333 78.8333,205.667 77.5,205C 75.6131,204.22 73.9464,204.387 72.5,205.5C 70.0733,205.477 67.74,204.977 65.5,204C 69.2259,202.957 68.8926,202.457 64.5,202.5C 62.8632,201.62 61.0299,200.954 59,200.5C 56.8801,201.459 54.7135,201.626 52.5,201C 53.8333,200.667 55.1667,200.333 56.5,200C 51.2125,198.511 45.8792,197.344 40.5,196.5C 39.5,195.167 38.5,195.167 37.5,196.5C 31.7924,196.508 31.4591,196.008 36.5,195C 34.5,194.5 32.5,194 30.5,193.5C 28.8453,194.228 27.1786,194.395 25.5,194C 26.8333,193.333 26.8333,192.667 25.5,192C 23.6131,191.22 21.9464,191.387 20.5,192.5C 18.0733,192.477 15.74,191.977 13.5,191C 14.5,190.667 15.5,190.333 16.5,190C 14.5975,189.801 13.0975,188.967 12,187.5C 11.5002,177.172 11.3335,166.839 11.5,156.5C 12.0432,145.506 12.5432,134.506 13,123.5C 13.6805,133.179 14.8472,142.512 16.5,151.5 Z"/></g>
<g><path style="opacity:1" fill="#edbd52" d="M 98.5,201.5 C 84.1512,198.16 69.8179,194.827 55.5,191.5C 43.8433,186.293 31.5099,183.293 18.5,182.5C 18.5,180.167 18.5,177.833 18.5,175.5C 19.2646,175.077 20.0979,174.743 21,174.5C 30.1586,178.071 38.9919,182.071 47.5,186.5C 58.4538,187.487 68.7872,190.487 78.5,195.5C 79.2164,194.689 80.0497,194.022 81,193.5C 86.4514,197.083 92.2848,199.749 98.5,201.5 Z"/></g>
<g><path style="opacity:1" fill="#a58233" d="M 183.5,207.5 C 184.373,205.114 185.873,203.114 188,201.5C 187.903,197.305 189.07,193.639 191.5,190.5C 196.419,188.255 201.585,186.588 207,185.5C 208.718,184.969 208.885,184.302 207.5,183.5C 210.554,181.826 213.888,181.326 217.5,182C 213.52,183.966 209.52,185.966 205.5,188C 202.854,188.497 200.187,188.664 197.5,188.5C 196.674,192.136 196.008,195.803 195.5,199.5C 194.448,199.351 193.448,199.517 192.5,200C 189.919,203.088 186.919,205.588 183.5,207.5 Z"/></g>
<g><path style="opacity:1" fill="#5d4b20" d="M 223.5,181.5 C 224.487,186.305 224.821,191.305 224.5,196.5C 218.061,198.223 211.728,200.223 205.5,202.5C 204.761,202.631 204.094,202.464 203.5,202C 206.337,201.002 208.003,199.002 208.5,196C 208.296,193.379 208.296,190.545 208.5,187.5C 213.307,185.118 218.307,183.118 223.5,181.5 Z"/></g>
<g><path style="opacity:0.006" fill="#fdfdfe" d="M 20.5,192.5 C 21.8734,192.343 23.2068,192.51 24.5,193C 22.9343,193.765 21.6009,193.598 20.5,192.5 Z"/></g>
<g><path style="opacity:1" fill="#988359" d="M 51.5,191.5 C 52.8333,191.5 54.1667,191.5 55.5,191.5C 69.8179,194.827 84.1512,198.16 98.5,201.5C 99.1667,201.5 99.8333,201.5 100.5,201.5C 101.5,202.167 102.5,202.833 103.5,203.5C 85.8523,200.374 68.519,196.374 51.5,191.5 Z"/></g>
<g><path style="opacity:1" fill="#faf46c" d="M 143.5,192.5 C 147.546,192.952 151.546,193.619 155.5,194.5C 157.288,195.622 159.288,195.789 161.5,195C 170.345,192.202 179.345,190.535 188.5,190C 185.304,191.468 181.971,192.635 178.5,193.5C 172.545,194.569 166.879,196.403 161.5,199C 159.686,201.481 159.02,204.315 159.5,207.5C 158.5,207.5 157.5,207.5 156.5,207.5C 155.5,207.5 154.5,207.5 153.5,207.5C 153.714,205.856 153.38,204.356 152.5,203C 151.256,202.544 150.423,203.044 150,204.5C 149.167,203.5 148.333,202.5 147.5,201.5C 145.148,204.729 142.148,205.729 138.5,204.5C 138.5,203.5 138.5,202.5 138.5,201.5C 140.39,201.297 141.89,201.963 143,203.5C 142.355,199.284 140.355,198.618 137,201.5C 135.654,199.658 133.821,198.658 131.5,198.5C 130.432,197.566 129.099,197.232 127.5,197.5C 126.542,197.953 125.708,198.619 125,199.5C 123.209,196.173 121.043,195.84 118.5,198.5C 117.265,197.66 116.265,196.66 115.5,195.5C 114.508,195.672 113.842,195.338 113.5,194.5C 114.833,194.5 116.167,194.5 117.5,194.5C 117.5,193.5 117.5,192.5 117.5,191.5C 115.396,191.799 113.396,191.466 111.5,190.5C 112.833,190.167 114.167,189.833 115.5,189.5C 124.098,191.553 132.765,193.22 141.5,194.5C 142.713,194.253 143.38,193.586 143.5,192.5 Z"/></g>
<g><path style="opacity:0.02" fill="#d3d3d3" d="M 37.5,196.5 C 38.5,196.5 39.5,196.5 40.5,196.5C 40.5,196.833 40.5,197.167 40.5,197.5C 39.209,197.737 38.209,197.404 37.5,196.5 Z"/></g>
<g><path style="opacity:0.006" fill="#ebebeb" d="M 40.5,197.5 C 41.8734,197.343 43.2068,197.51 44.5,198C 42.9343,198.765 41.6009,198.598 40.5,197.5 Z"/></g>
<g><path style="opacity:1" fill="#ada44c" d="M 109.5,194.5 C 110.833,194.5 112.167,194.5 113.5,194.5C 113.842,195.338 114.508,195.672 115.5,195.5C 115.5,196.833 115.5,198.167 115.5,199.5C 113.738,199.357 112.071,199.691 110.5,200.5C 109.534,198.604 109.201,196.604 109.5,194.5 Z"/></g>
<g><path style="opacity:1" fill="#766a21" d="M 115.5,195.5 C 116.265,196.66 117.265,197.66 118.5,198.5C 121.043,195.84 123.209,196.173 125,199.5C 125.708,198.619 126.542,197.953 127.5,197.5C 126.928,199.255 126.094,200.922 125,202.5C 122.876,197.604 121.543,197.604 121,202.5C 120.517,201.552 120.351,200.552 120.5,199.5C 118.678,199.831 117.011,200.498 115.5,201.5C 115.5,200.833 115.5,200.167 115.5,199.5C 115.5,198.167 115.5,196.833 115.5,195.5 Z"/></g>
<g><path style="opacity:0.004" fill="#fbfcf8" d="M 230.5,201.5 C 230.833,201.5 231.167,201.5 231.5,201.5C 231.315,202.17 230.981,202.17 230.5,201.5 Z"/></g>
<g><path style="opacity:0.008" fill="#dcdcdc" d="M 64.5,202.5 C 63.3991,203.598 62.0657,203.765 60.5,203C 61.7932,202.51 63.1266,202.343 64.5,202.5 Z"/></g>
<g><path style="opacity:1" fill="#8c7c2c" d="M 131.5,198.5 C 133.821,198.658 135.654,199.658 137,201.5C 140.355,198.618 142.355,199.284 143,203.5C 141.89,201.963 140.39,201.297 138.5,201.5C 138.5,202.5 138.5,203.5 138.5,204.5C 137.504,204.414 136.671,204.748 136,205.5C 135.667,204.833 135.333,204.167 135,203.5C 133.274,204.576 131.441,204.743 129.5,204C 128.304,203.346 128.304,202.846 129.5,202.5C 130.451,203.326 131.451,203.492 132.5,203C 130.939,202.059 129.605,200.892 128.5,199.5C 129.325,198.614 130.325,198.281 131.5,198.5 Z"/></g>
<g><path style="opacity:0.004" fill="#f7f8f5" d="M 229.5,202.5 C 229.833,202.5 230.167,202.5 230.5,202.5C 230.315,203.17 229.981,203.17 229.5,202.5 Z"/></g>
<g><path style="opacity:1" fill="#938253" d="M 103.5,203.5 C 109.256,203.606 114.589,204.939 119.5,207.5C 113.836,207.039 108.503,205.706 103.5,203.5 Z"/></g>
<g><path style="opacity:1" fill="#eec559" d="M 127.5,197.5 C 129.099,197.232 130.432,197.566 131.5,198.5C 130.325,198.281 129.325,198.614 128.5,199.5C 129.605,200.892 130.939,202.059 132.5,203C 131.451,203.492 130.451,203.326 129.5,202.5C 128.304,202.846 128.304,203.346 129.5,204C 131.441,204.743 133.274,204.576 135,203.5C 135.333,204.167 135.667,204.833 136,205.5C 136.671,204.748 137.504,204.414 138.5,204.5C 140.322,207.5 142.822,208.167 146,206.5C 147.706,207.308 148.539,208.641 148.5,210.5C 145.5,210.5 142.5,210.5 139.5,210.5C 132.904,209.067 126.237,208.067 119.5,207.5C 114.589,204.939 109.256,203.606 103.5,203.5C 102.5,202.833 101.5,202.167 100.5,201.5C 105.554,202.644 110.554,202.644 115.5,201.5C 117.011,200.498 118.678,199.831 120.5,199.5C 120.351,200.552 120.517,201.552 121,202.5C 121.543,197.604 122.876,197.604 125,202.5C 126.094,200.922 126.928,199.255 127.5,197.5 Z"/></g>
<g><path style="opacity:0.008" fill="#f9f9f9" d="M 72.5,205.5 C 73.8734,205.343 75.2068,205.51 76.5,206C 74.9343,206.765 73.6009,206.598 72.5,205.5 Z"/></g>
<g><path style="opacity:0.012" fill="#aaaca8" d="M 215.5,208.5 C 215.5,208.167 215.5,207.833 215.5,207.5C 216.167,207.5 216.833,207.5 217.5,207.5C 217.158,208.338 216.492,208.672 215.5,208.5 Z"/></g>
<g><path style="opacity:0.02" fill="#d0d0d0" d="M 89.5,209.5 C 90.5,209.5 91.5,209.5 92.5,209.5C 92.5,209.833 92.5,210.167 92.5,210.5C 91.209,210.737 90.209,210.404 89.5,209.5 Z"/></g>
<g><path style="opacity:0.006" fill="#fdfdfd" d="M 92.5,210.5 C 93.8734,210.343 95.2068,210.51 96.5,211C 94.9343,211.765 93.6009,211.598 92.5,210.5 Z"/></g>
<g><path style="opacity:1" fill="#eebf4b" d="M 178.5,193.5 C 176.758,194.957 174.758,196.124 172.5,197C 173.624,197.249 174.624,197.749 175.5,198.5C 171.988,202.511 168.321,206.345 164.5,210C 162.866,210.494 161.199,210.66 159.5,210.5C 159.5,211.833 159.5,213.167 159.5,214.5C 156.148,214.216 153.148,213.05 150.5,211C 153.345,210.992 155.345,209.825 156.5,207.5C 157.5,207.5 158.5,207.5 159.5,207.5C 159.02,204.315 159.686,201.481 161.5,199C 166.879,196.403 172.545,194.569 178.5,193.5 Z"/></g>
<g><path style="opacity:1" fill="#89764d" d="M 119.5,208.5 C 119.5,208.167 119.5,207.833 119.5,207.5C 126.237,208.067 132.904,209.067 139.5,210.5C 144.922,211.856 150.255,213.523 155.5,215.5C 143.511,213.172 131.511,210.839 119.5,208.5 Z"/></g>
<g><path style="opacity:0.95" fill="#d6d5d5" d="M 209.5,208.5 C 209.842,209.338 210.508,209.672 211.5,209.5C 211.833,209.5 212.167,209.5 212.5,209.5C 210.49,211.58 208.157,211.913 205.5,210.5C 205.264,211.247 204.93,212.08 204.5,213C 202.26,213.977 199.927,214.477 197.5,214.5C 196.833,213.167 196.167,213.167 195.5,214.5C 192.271,214.371 190.605,215.538 190.5,218C 187.406,219.359 184.406,219.859 181.5,219.5C 180.508,219.328 179.842,219.662 179.5,220.5C 175.5,220.833 175.5,221.167 179.5,221.5C 177.786,222.738 175.786,223.405 173.5,223.5C 172.5,222.167 171.5,222.167 170.5,223.5C 169.778,224.551 168.778,225.218 167.5,225.5C 166.5,224.167 165.5,224.167 164.5,225.5C 161.615,225.194 158.948,225.527 156.5,226.5C 154.073,226.477 151.74,225.977 149.5,225C 153.5,224.333 153.5,223.667 149.5,223C 147.613,222.22 145.946,222.387 144.5,223.5C 141.784,223.322 139.117,222.822 136.5,222C 141.541,220.992 141.208,220.492 135.5,220.5C 133.485,219.076 131.152,218.41 128.5,218.5C 127.167,217.167 125.833,217.167 124.5,218.5C 122.073,218.477 119.74,217.977 117.5,217C 121.226,215.957 120.893,215.457 116.5,215.5C 116.5,215.167 116.5,214.833 116.5,214.5C 118.736,212.986 118.403,211.486 115.5,210C 116.745,209.209 118.078,208.709 119.5,208.5C 131.511,210.839 143.511,213.172 155.5,215.5C 156.912,216.533 158.578,217.199 160.5,217.5C 166.41,215.865 172.077,213.865 177.5,211.5C 181.501,210.5 185.501,209.5 189.5,208.5C 196.095,207.315 202.595,205.648 209,203.5C 210.404,203.509 211.57,204.009 212.5,205C 210.744,205.202 209.078,205.702 207.5,206.5C 207.855,207.522 208.522,208.189 209.5,208.5 Z"/></g>
<g><path style="opacity:1" fill="#978258" d="M 177.5,211.5 C 172.077,213.865 166.41,215.865 160.5,217.5C 158.578,217.199 156.912,216.533 155.5,215.5C 163.015,215.121 170.348,213.787 177.5,211.5 Z"/></g>
<g><path style="opacity:0.016" fill="#ebebeb" d="M 195.5,215.5 C 195.5,215.167 195.5,214.833 195.5,214.5C 196.167,214.5 196.833,214.5 197.5,214.5C 197.158,215.338 196.492,215.672 195.5,215.5 Z"/></g>
<g><path style="opacity:0.008" fill="#b2b2b2" d="M 116.5,215.5 C 115.399,216.598 114.066,216.765 112.5,216C 113.793,215.51 115.127,215.343 116.5,215.5 Z"/></g>
<g><path style="opacity:0.012" fill="#8a8a8a" d="M 195.5,215.5 C 195.103,216.525 194.437,216.692 193.5,216C 194.094,215.536 194.761,215.369 195.5,215.5 Z"/></g>
<g><path style="opacity:0.008" fill="#afafaf" d="M 124.5,218.5 C 125.833,218.5 127.167,218.5 128.5,218.5C 127.167,219.833 125.833,219.833 124.5,218.5 Z"/></g>
<g><path style="opacity:0.01" fill="#fdfcfd" d="M 181.5,220.5 C 181.5,220.167 181.5,219.833 181.5,219.5C 184.167,219.833 184.167,220.167 181.5,220.5 Z"/></g>
<g><path style="opacity:0.012" fill="#e6e6e6" d="M 135.5,220.5 C 134.749,221.573 133.749,221.74 132.5,221C 133.448,220.517 134.448,220.351 135.5,220.5 Z"/></g>
<g><path style="opacity:0.012" fill="#c7c7c7" d="M 179.5,221.5 C 179.5,221.167 179.5,220.833 179.5,220.5C 180.167,220.5 180.833,220.5 181.5,220.5C 181.158,221.338 180.492,221.672 179.5,221.5 Z"/></g>
<g><path style="opacity:0.006" fill="#fefffe" d="M 144.5,223.5 C 145.873,223.343 147.207,223.51 148.5,224C 146.934,224.765 145.601,224.598 144.5,223.5 Z"/></g>
<g><path style="opacity:0.005" fill="#fdfdfd" d="M 170.5,223.5 C 171.5,223.5 172.5,223.5 173.5,223.5C 172.5,224.833 171.5,224.833 170.5,223.5 Z"/></g>
<g><path style="opacity:0.016" fill="#dddddd" d="M 164.5,226.5 C 164.5,226.167 164.5,225.833 164.5,225.5C 165.5,225.5 166.5,225.5 167.5,225.5C 166.791,226.404 165.791,226.737 164.5,226.5 Z"/></g>
<g><path style="opacity:0.007" fill="#f4f4f4" d="M 156.5,226.5 C 159.167,226.5 161.833,226.5 164.5,226.5C 161.833,227.833 159.167,227.833 156.5,226.5 Z"/></g>
</svg>
