<?xml version="1.0" encoding="UTF-8"?>
<!DOCTYPE svg PUBLIC "-//W3C//DTD SVG 1.1//EN" "http://www.w3.org/Graphics/SVG/1.1/DTD/svg11.dtd">
<svg xmlns="http://www.w3.org/2000/svg" version="1.1" width="280px" height="280px" style="shape-rendering:geometricPrecision; text-rendering:geometricPrecision; image-rendering:optimizeQuality; fill-rule:evenodd; clip-rule:evenodd" xmlns:xlink="http://www.w3.org/1999/xlink">
<g><path style="opacity:1" fill="#f9f5e8" d="M -0.5,-0.5 C 92.8333,-0.5 186.167,-0.5 279.5,-0.5C 279.5,92.8333 279.5,186.167 279.5,279.5C 186.167,279.5 92.8333,279.5 -0.5,279.5C -0.5,186.167 -0.5,92.8333 -0.5,-0.5 Z"/></g>
<g><path style="opacity:1" fill="#010101" d="M 230.5,158.5 C 216.151,158.167 201.818,158.501 187.5,159.5C 187.624,160.107 187.957,160.44 188.5,160.5C 197.465,168.964 206.298,177.631 215,186.5C 215.615,188.116 216.615,189.449 218,190.5C 218.667,191.5 218.667,192.5 218,193.5C 209.625,202.21 200.958,210.543 192,218.5C 190.177,217.349 188.344,216.182 186.5,215C 177.631,206.298 168.964,197.465 160.5,188.5C 160.44,187.957 160.107,187.624 159.5,187.5C 158.501,201.818 158.167,216.151 158.5,230.5C 158.423,231.75 157.756,232.583 156.5,233C 144.833,233.667 133.167,233.667 121.5,233C 121,232.5 120.5,232 120,231.5C 119.333,221.5 119.333,211.5 120,201.5C 121.059,198.382 122.392,195.382 124,192.5C 139.399,177.085 154.732,161.418 170,145.5C 172.21,140.643 171.877,135.976 169,131.5C 154,116.5 139,101.5 124,86.5C 122.275,83.326 120.942,79.9927 120,76.5C 119.333,66.8333 119.333,57.1667 120,47.5C 120.5,47 121,46.5 121.5,46C 133.742,45.1789 145.909,45.3456 158,46.5C 158.333,61.5 158.667,76.5 159,91.5C 169.407,80.5899 180.24,70.2566 191.5,60.5C 192.938,60.7189 194.271,61.2189 195.5,62C 202.667,69.1667 209.833,76.3333 217,83.5C 218.187,85.0444 218.52,86.7111 218,88.5C 207.833,98.6667 197.667,108.833 187.5,119C 202.167,119.333 216.833,119.667 231.5,120C 232,120.5 232.5,121 233,121.5C 233.667,133.167 233.667,144.833 233,156.5C 232.583,157.756 231.75,158.423 230.5,158.5 Z"/></g>
<g><path style="opacity:1" fill="#010101" d="M 90.5,160.5 C 91.0431,160.44 91.3764,160.107 91.5,159.5C 76.8485,158.501 62.1818,158.167 47.5,158.5C 46.8826,158.389 46.3826,158.056 46,157.5C 45.3333,145.5 45.3333,133.5 46,121.5C 46.5,121 47,120.5 47.5,120C 61.8449,119.833 76.1783,119.333 90.5,118.5C 81.8934,109.639 73.0601,100.972 64,92.5C 62.5962,90.6061 61.4295,88.6061 60.5,86.5C 67.9212,77.5751 75.9212,69.0751 84.5,61C 85.8333,60.3333 87.1667,60.3333 88.5,61C 112.333,84.8333 136.167,108.667 160,132.5C 163.512,137.76 163.179,142.76 159,147.5C 135.5,171 112,194.5 88.5,218C 87.1667,218.667 85.8333,218.667 84.5,218C 75.9212,209.925 67.9212,201.425 60.5,192.5C 61.4295,190.394 62.5962,188.394 64,186.5C 72.6213,177.713 81.4546,169.046 90.5,160.5 Z"/></g>
<g><path style="opacity:1" fill="#52514c" d="M 47.5,158.5 C 62.1818,158.167 76.8485,158.501 91.5,159.5C 91.3764,160.107 91.0431,160.44 90.5,160.5C 76.1667,159.833 61.8333,159.167 47.5,158.5 Z"/></g>
<g><path style="opacity:1" fill="#53524d" d="M 230.5,158.5 C 216.5,159.167 202.5,159.833 188.5,160.5C 187.957,160.44 187.624,160.107 187.5,159.5C 201.818,158.501 216.151,158.167 230.5,158.5 Z"/></g>
<g><path style="opacity:1" fill="#53524d" d="M 160.5,188.5 C 159.833,202.5 159.167,216.5 158.5,230.5C 158.167,216.151 158.501,201.818 159.5,187.5C 160.107,187.624 160.44,187.957 160.5,188.5 Z"/></g>
</svg>
