<?xml version="1.0" encoding="UTF-8"?>
<svg version="1.1" xmlns="http://www.w3.org/2000/svg" width="500" height="500">
<path d="M0 0 C1.20658311 -0.00311998 2.41316623 -0.00623996 3.65631247 -0.00945449 C6.965389 -0.01599558 10.27423461 -0.01371766 13.58329654 -0.00748205 C17.16754322 -0.0029223 20.75177098 -0.00995864 24.33601379 -0.01544189 C31.34174571 -0.02430023 38.34743458 -0.02242983 45.35316813 -0.01661661 C51.05069049 -0.01208605 56.74820084 -0.01149323 62.44572449 -0.01366425 C63.66554969 -0.01412394 63.66554969 -0.01412394 64.91001782 -0.01459293 C66.56243837 -0.01523243 68.21485892 -0.01588086 69.86727947 -0.01653811 C85.33481084 -0.02223098 100.80231844 -0.01569993 116.2698459 -0.00493738 C129.52011912 0.00399718 142.77035729 0.00244484 156.02062988 -0.0067749 C171.43564953 -0.017496 186.85064839 -0.02168175 202.26567125 -0.01555037 C203.91175874 -0.01491333 205.55784623 -0.01428458 207.20393372 -0.01366425 C208.41855636 -0.01320142 208.41855636 -0.01320142 209.65771684 -0.01272924 C215.34344618 -0.01100782 221.02916224 -0.01390545 226.71488953 -0.01862335 C233.65096686 -0.02425267 240.58699897 -0.02267282 247.52307117 -0.01206186 C251.0568623 -0.00683263 254.59057822 -0.00470108 258.12436867 -0.01136017 C261.96617368 -0.01848979 265.80785756 -0.00993412 269.6496582 0 C270.75075346 -0.00446144 271.85184871 -0.00892289 272.98631048 -0.01351953 C280.58544264 0.02439003 287.84951746 0.91178772 295.3248291 2.25396729 C296.45721378 2.45577846 296.45721378 2.45577846 297.61247492 2.66166663 C310.71569379 5.18877022 325.08696431 14.85120287 333.3248291 25.25396729 C333.3248291 25.91396729 333.3248291 26.57396729 333.3248291 27.25396729 C333.9848291 27.25396729 334.6448291 27.25396729 335.3248291 27.25396729 C336.73820087 29.24949218 338.01204531 31.22195517 339.2623291 33.31646729 C339.95197754 34.44181885 340.64162598 35.56717041 341.35217285 36.72662354 C351.08272516 52.84197218 349.76649656 71.54286269 349.71700311 89.6598798 C349.71015321 93.37568148 349.72072291 97.09144242 349.72894287 100.80723572 C349.74221929 108.06704853 349.73942993 115.32676782 349.73070495 122.58658416 C349.72390519 128.49095742 349.72302154 134.39530464 349.7262764 140.29968071 C349.7267361 141.14286678 349.7271958 141.98605285 349.72766943 142.85479001 C349.72862869 144.56816877 349.72960133 146.28154752 349.7305872 147.99492627 C349.73912311 164.026672 349.72933502 180.05836611 349.7131861 196.09010338 C349.69978211 209.8215897 349.70211517 223.55299991 349.71594238 237.28448486 C349.73202586 253.26390233 349.73830186 269.24327467 349.72910559 285.22269911 C349.72815003 286.92915594 349.72720692 288.63561278 349.7262764 290.34206963 C349.72581357 291.18149258 349.72535074 292.02091554 349.72487389 292.88577555 C349.72229248 298.77795248 349.72663657 304.67010057 349.73371506 310.56227303 C349.74216098 317.75008581 349.73978519 324.93780042 349.72387283 332.12560207 C349.71603185 335.78715241 349.71282648 339.44853951 349.72282028 343.11008835 C349.73352259 347.09166457 349.72067564 351.0728348 349.70578003 355.05439758 C349.71247219 356.19401619 349.71916436 357.33363479 349.72605932 358.50778729 C349.59180177 377.12003434 343.77409142 392.40478792 331.3248291 406.25396729 C330.54752441 407.17049072 330.54752441 407.17049072 329.7545166 408.10552979 C318.60750298 420.37284629 302.30061435 427.1511954 286.03716588 428.53337562 C282.71942527 428.63849464 279.41337029 428.65910353 276.09402466 428.64164734 C274.83970119 428.64703288 273.58537772 428.65241841 272.29304445 428.65796715 C268.85520526 428.67226828 265.41760892 428.66822588 261.97975731 428.66080034 C258.25503237 428.65603246 254.53035728 428.6686102 250.8056488 428.67881775 C243.52564943 428.69594068 236.24573661 428.69685936 228.96572234 428.69160485 C223.04370201 428.68754978 217.12170709 428.6890225 211.19968796 428.6943531 C210.35416848 428.69510153 209.50864901 428.69584995 208.63750773 428.69662105 C206.9193819 428.69815266 205.20125608 428.699691 203.48313026 428.70123602 C187.40125798 428.71493748 171.31943445 428.70953993 155.2375633 428.6980508 C140.55403252 428.68812059 125.8706278 428.70105963 111.18711646 428.724985 C96.07605707 428.74941976 80.96505629 428.75897315 65.85397756 428.75233227 C57.38386262 428.7488498 48.91384456 428.7510076 40.44374466 428.7685833 C33.23362054 428.78336016 26.02366154 428.78386952 18.81354047 428.76651239 C15.14157447 428.75804491 11.46990272 428.75574733 7.79795265 428.77116394 C-16.14572668 428.8643849 -35.65533133 427.26076296 -54.6751709 411.25396729 C-55.27458496 410.79892822 -55.87399902 410.34388916 -56.49157715 409.87506104 C-59.79134342 407.33861419 -61.52506896 405.27932409 -62.6751709 401.25396729 C-63.3351709 401.25396729 -63.9951709 401.25396729 -64.6751709 401.25396729 C-66.6751709 398.25396729 -66.6751709 398.25396729 -66.6751709 395.25396729 C-67.3351709 395.25396729 -67.9951709 395.25396729 -68.6751709 395.25396729 C-76.53223256 380.65784483 -78.99603211 366.08838215 -78.92913818 349.57879639 C-78.93225816 348.37221327 -78.93537815 347.16563016 -78.93859267 345.92248392 C-78.94513376 342.61340739 -78.94285584 339.30456177 -78.93662024 335.99549985 C-78.93206049 332.41125316 -78.93909682 328.82702541 -78.94458008 325.24278259 C-78.95343842 318.23705068 -78.95156801 311.2313618 -78.9457548 304.22562826 C-78.94122424 298.5281059 -78.94063141 292.83059554 -78.94280243 287.1330719 C-78.9431089 286.3198551 -78.94341536 285.5066383 -78.94373111 284.66877857 C-78.94437061 283.01635801 -78.94501904 281.36393746 -78.9456763 279.71151692 C-78.95136916 264.24398555 -78.94483811 248.77647795 -78.93407556 233.30895048 C-78.92514101 220.05867726 -78.92669334 206.80843909 -78.93591309 193.5581665 C-78.94663419 178.14314685 -78.95081994 162.72814799 -78.94468856 147.31312513 C-78.94405151 145.66703765 -78.94342277 144.02095016 -78.94280243 142.37486267 C-78.94249388 141.56511424 -78.94218533 140.75536581 -78.94186743 139.92107955 C-78.940146 134.23535021 -78.94304363 128.54963414 -78.94776154 122.86390686 C-78.95339085 115.92782953 -78.95181101 108.99179742 -78.94120005 102.05572522 C-78.93597081 98.52193409 -78.93383926 94.98821816 -78.94049835 91.45442772 C-78.94762797 87.61262271 -78.93907231 83.77093883 -78.92913818 79.92913818 C-78.93359963 78.82804293 -78.93806107 77.72694768 -78.94265771 76.5924859 C-78.85828408 59.67943132 -75.71044783 44.08860833 -65.6751709 30.25396729 C-65.08993652 29.41092041 -64.50470215 28.56787354 -63.9017334 27.69927979 C-57.87533483 19.53694248 -50.05060829 13.83759221 -41.6751709 8.25396729 C-40.6851709 8.25396729 -39.6951709 8.25396729 -38.6751709 8.25396729 C-38.6751709 7.59396729 -38.6751709 6.93396729 -38.6751709 6.25396729 C-36.78358886 5.61621622 -34.88653624 4.99469404 -32.9876709 4.37896729 C-31.40405762 3.85689697 -31.40405762 3.85689697 -29.78845215 3.32427979 C-20.04239421 0.55438185 -10.07520528 -0.04082295 0 0 Z " fill="#1B1515" transform="translate(114.6751708984375,35.74603271484375)"/>
<path d="M0 0 C0.7927684 -0.0033284 1.5855368 -0.0066568 2.40232849 -0.01008606 C4.07037788 -0.01511237 5.73843718 -0.01749573 7.40649414 -0.01733398 C9.90333517 -0.01950494 12.39972206 -0.03766415 14.89648438 -0.05664062 C30.24349073 -0.11097505 44.7194904 1.2576644 59.37109375 6.16796875 C60.17820801 6.43351562 60.98532227 6.6990625 61.81689453 6.97265625 C81.60948556 13.56168306 98.99532426 22.22196156 115.37109375 35.16796875 C116.34433594 35.91820312 117.31757813 36.6684375 118.3203125 37.44140625 C141.74921946 55.95726139 157.51970353 79.98727893 169.37109375 107.16796875 C169.79003906 108.12574219 170.20898438 109.08351563 170.640625 110.0703125 C173.04568916 116.13567351 174.51898989 122.46482458 176.05859375 128.79296875 C176.38102051 130.11820557 176.38102051 130.11820557 176.70996094 131.47021484 C176.91137695 132.33211426 177.11279297 133.19401367 177.3203125 134.08203125 C177.49908936 134.84467285 177.67786621 135.60731445 177.86206055 136.39306641 C179.10050411 143.14421728 179.53422237 149.87253794 179.57421875 156.7265625 C179.57991882 157.51458755 179.5856189 158.30261261 179.5914917 159.11451721 C179.60087039 160.77416677 179.60744699 162.43383434 179.61132812 164.09350586 C179.62095022 166.56854973 179.65200731 169.04273114 179.68359375 171.51757812 C179.78272245 186.30664084 177.85722071 200.53521606 173.62109375 214.73046875 C173.36505371 215.60268066 173.10901367 216.47489258 172.84521484 217.37353516 C170.27044356 225.89557804 167.12398375 234.09764802 163.37109375 242.16796875 C163.08041016 242.7933252 162.78972656 243.41868164 162.49023438 244.06298828 C154.16756039 261.5488712 142.03197338 276.57316351 128.37109375 290.16796875 C127.4584375 291.080625 126.54578125 291.99328125 125.60546875 292.93359375 C110.24968066 307.55377523 91.02120987 318.46115715 71.37109375 326.16796875 C70.28828125 326.60882813 69.20546875 327.0496875 68.08984375 327.50390625 C58.09899918 331.35551689 47.8937597 333.35093294 37.37109375 335.16796875 C36.09234375 335.39613281 34.81359375 335.62429688 33.49609375 335.859375 C-8.44892177 342.43627985 -53.15830339 330.24429235 -87.453125 305.6015625 C-101.91385464 294.68058169 -115.50988592 282.26554708 -125.62890625 267.16796875 C-126.42379189 266.04936493 -127.22077991 264.932253 -128.01953125 263.81640625 C-152.25177804 229.41877871 -163.06806781 183.0829169 -156.17163086 141.60620117 C-150.53975398 111.77091594 -138.68258986 83.25531373 -118.62890625 60.16796875 C-117.92121094 59.35070312 -117.21351562 58.5334375 -116.484375 57.69140625 C-108.55664787 48.72238396 -100.40049093 40.13488485 -90.62890625 33.16796875 C-89.60925781 32.43191406 -88.58960938 31.69585937 -87.5390625 30.9375 C-79.97219391 25.61780116 -72.06369622 21.09536561 -63.87890625 16.79296875 C-62.93321777 16.29321533 -61.9875293 15.79346191 -61.01318359 15.27856445 C-50.87141763 10.05062263 -40.5630005 6.69241225 -29.50390625 3.98046875 C-28.48425781 3.72072266 -27.46460938 3.46097656 -26.4140625 3.19335938 C-25.40988281 2.94392578 -24.40570313 2.69449219 -23.37109375 2.4375 C-22.48276855 2.21682861 -21.59444336 1.99615723 -20.67919922 1.76879883 C-13.81446329 0.41662057 -6.9836841 0.01057996 0 0 Z " fill="#00DA4D" transform="translate(238.62890625,81.83203125)"/>
<path d="M0 0 C3.93151924 0.00314812 7.86227501 -0.0203315 11.79370117 -0.0456543 C33.69811296 -0.10273784 54.79743344 2.01813288 76.15112305 6.87817383 C76.90572815 7.04763519 77.66033325 7.21709656 78.43780518 7.39169312 C97.98846924 11.82361575 116.6305067 18.22534959 134.71362305 26.94067383 C135.59711426 27.35937744 136.48060547 27.77808105 137.39086914 28.20947266 C143.25451143 31.19056811 147.84358708 34.69606561 151.40112305 40.31567383 C152.65101824 45.28116655 152.60799445 50.63824482 150.47143555 55.37817383 C146.87304258 60.08195549 142.36471149 62.05386204 136.65112305 62.81567383 C131.24522705 62.58107834 127.04188502 59.87963072 122.40112305 57.31567383 C113.89151846 52.84113996 105.60972074 49.1278113 96.40112305 46.31567383 C95.34022461 45.93926758 94.27932617 45.56286133 93.1862793 45.17504883 C52.90800367 31.35535817 6.45433428 28.62367552 -35.59887695 34.31567383 C-36.79915527 34.47640381 -36.79915527 34.47640381 -38.02368164 34.64038086 C-45.903636 35.73668071 -53.48602351 37.18158167 -61.09887695 39.50317383 C-73.76048443 43.26071785 -73.76048443 43.26071785 -79.91918945 40.13989258 C-83.9801928 37.32339026 -86.10818058 35.10872627 -87.59887695 30.31567383 C-88.38136566 25.6830637 -88.48713519 21.36523466 -86.5949707 16.99926758 C-80.06243534 8.01063536 -67.08915673 6.6319963 -56.84008789 4.95751953 C-54.39110449 4.5817434 -51.93984727 4.23323307 -49.4855957 3.89379883 C-45.69887135 3.44523387 -45.69887135 3.44523387 -42.59887695 2.31567383 C-28.50109556 -0.170399 -14.26845859 -0.02382047 0 0 Z " fill="#181513" transform="translate(221.598876953125,170.684326171875)"/>
<path d="M0 0 C0.95866974 0.00021149 1.91733948 0.00042297 2.90505981 0.00064087 C19.10837959 0.03614236 34.70978454 1.11759164 50.625 4.375 C52.08631348 4.67180664 52.08631348 4.67180664 53.57714844 4.97460938 C74.21073703 9.29277996 94.03568542 16.21673858 112.75 25.9375 C113.43626465 26.2890918 114.1225293 26.64068359 114.82958984 27.00292969 C120.27626487 29.91263246 126.59743215 33.29229645 128.625 39.375 C128.87385584 43.85440517 129.05763837 47.52332258 126.625 51.375 C122.26398319 55.16219881 118.61697468 56.87712202 112.69970703 56.69799805 C109.14051051 56.1438892 106.34609934 54.28609775 103.375 52.375 C85.67041697 41.7404246 64.91221963 34.95025996 44.625 31.375 C43.7086377 31.20581055 42.79227539 31.03662109 41.84814453 30.86230469 C12.05166628 25.49263794 -30.26290009 21.31895004 -58.375 35.375 C-62.58519538 35.80511819 -66.26192855 35.8449635 -70.1875 34.1875 C-76.09005232 29.29681379 -76.09005232 29.29681379 -76.7265625 25.00390625 C-76.84966984 21.23794085 -76.60828808 18.09041677 -75.4375 14.5 C-72.29782487 11.2651832 -68.53584944 9.9577816 -64.375 8.375 C-63.27865234 7.88580078 -63.27865234 7.88580078 -62.16015625 7.38671875 C-58.244672 5.96440399 -54.26778844 5.18535984 -50.1875 4.375 C-49.40697266 4.21 -48.62644531 4.045 -47.82226562 3.875 C-31.97514215 0.69314619 -16.11755181 -0.0330647 0 0 Z " fill="#191513" transform="translate(221.375,228.625)"/>
<path d="M0 0 C0.89047531 -0.00570007 1.78095062 -0.01140015 2.69841003 -0.01727295 C4.57488851 -0.02665427 6.45138295 -0.03322931 8.32788086 -0.03710938 C11.123198 -0.04672106 13.91774816 -0.07777194 16.71289062 -0.109375 C48.86838265 -0.29862919 91.49191461 6.78752697 116.35546875 29.203125 C117.91023565 32.31265879 117.64191312 34.76579261 117.35546875 38.203125 C115.73890721 41.26304505 114.27923165 43.44431976 111.60546875 45.640625 C107.41473858 46.68830754 103.32702747 46.3233964 99.57495117 44.19140625 C98.98045166 43.78277344 98.38595215 43.37414062 97.7734375 42.953125 C81.80854401 32.65515935 62.75108844 27.9382164 44.35546875 24.203125 C43.62562775 24.03605545 42.89578674 23.8689859 42.14382935 23.69685364 C36.03892178 22.35658151 30.26021683 21.89596614 24.01953125 21.90234375 C23.06009613 21.89805862 22.10066101 21.8937735 21.1121521 21.88935852 C19.09023826 21.88365049 17.06830391 21.88308872 15.04638672 21.88745117 C12.02273455 21.89058125 9.00009207 21.86721091 5.9765625 21.84179688 C-6.82209549 21.80098433 -19.06215479 22.8703131 -31.64453125 25.203125 C-32.7742334 25.41155029 -33.90393555 25.61997559 -35.06787109 25.8347168 C-37.95371811 26.38733162 -40.80810091 26.98138128 -43.6484375 27.734375 C-47.00929397 28.52361722 -50.25489943 28.82859278 -53.64453125 28.203125 C-56.58203125 25.765625 -56.58203125 25.765625 -58.64453125 23.203125 C-58.97453125 22.873125 -59.30453125 22.543125 -59.64453125 22.203125 C-60.33453506 17.43224152 -60.38775026 14.20116195 -57.45703125 10.265625 C-52.87647424 6.90654986 -48.50634314 5.86716312 -42.9453125 4.94921875 C-41.65302734 4.73458984 -40.36074219 4.51996094 -39.02929688 4.29882812 C-38.02443237 4.1365271 -38.02443237 4.1365271 -36.99926758 3.97094727 C-34.97946093 3.6442529 -32.96138058 3.30823166 -30.94335938 2.97070312 C-20.60140655 1.27185132 -10.48378181 0.05413169 0 0 Z " fill="#181513" transform="translate(211.64453125,283.796875)"/>
<path d="M0 0 C0.77886566 -0.00133942 1.55773132 -0.00267883 2.36019897 -0.00405884 C22.06326933 0.00322362 41.59751013 1.71178631 60.8125 6.25 C60.8125 6.58 60.8125 6.91 60.8125 7.25 C59.595625 7.105625 58.37875 6.96125 57.125 6.8125 C51.97092012 6.23071992 46.80764845 5.87379233 41.6328125 5.53125 C38.8125 5.25 38.8125 5.25 35.8125 4.25 C-1.2755791 -0.97770001 -1.2755791 -0.97770001 -37.1875 5.25 C-40.30019291 5.56432523 -43.41367578 5.76089874 -46.53515625 5.96875 C-49.10755405 5.96051998 -49.10755405 5.96051998 -50.1875 7.25 C-51.70678038 7.32179964 -53.22917482 7.33392007 -54.75 7.3125 C-55.57628906 7.30347656 -56.40257812 7.29445312 -57.25390625 7.28515625 C-57.89199219 7.27355469 -58.53007812 7.26195312 -59.1875 7.25 C-59.1875 7.91 -59.1875 8.57 -59.1875 9.25 C-62.1575 8.755 -62.1575 8.755 -65.1875 8.25 C-47.51552716 -1.70120801 -19.63826987 0.02017621 0 0 Z " fill="#13B14C" transform="translate(225.1875,201.75)"/>
<path d="M0 0 C0 0.33 0 0.66 0 1 C-5.05838418 1.29755201 -9.2627192 0.7936952 -14.1875 -0.4375 C-19.67336256 -1.79469605 -24.89954722 -2.44193708 -30.5390625 -2.69140625 C-33.47839758 -2.95349143 -36.16851842 -3.42426373 -39.05078125 -4.015625 C-45.57235119 -5.24132189 -51.94438634 -5.26077165 -58.5625 -5.1875 C-60.39337158 -5.17674438 -60.39337158 -5.17674438 -62.26123047 -5.16577148 C-77.98565861 -6.04791272 -77.98565861 -6.04791272 -93 -3 C-94.5195764 -2.84876169 -96.04472502 -2.75118307 -97.5703125 -2.68359375 C-98.91416016 -2.62075195 -98.91416016 -2.62075195 -100.28515625 -2.55664062 C-101.22230469 -2.51732422 -102.15945312 -2.47800781 -103.125 -2.4375 C-104.06988281 -2.39431641 -105.01476562 -2.35113281 -105.98828125 -2.30664062 C-108.32537092 -2.20040928 -110.6625683 -2.09836824 -113 -2 C-84.24898165 -17.60700576 -29.97403173 -7.17671045 0 0 Z " fill="#033610" transform="translate(285,236)"/>
<path d="M0 0 C1.19489044 -0.00590149 2.38978088 -0.01180298 3.62088013 -0.0178833 C18.63125547 -0.0680246 33.6614562 0.13817517 48.375 3.4375 C48.87 4.4275 48.87 4.4275 49.375 5.4375 C36.84970951 4.64948504 36.84970951 4.64948504 31.2578125 3.92578125 C7.7893195 0.98241712 -16.73109301 1.33560161 -40.19335938 4.14648438 C-42.77807295 4.45581957 -45.36481143 4.73810341 -47.953125 5.015625 C-52.17935028 5.47115108 -56.4026391 5.94749762 -60.625 6.4375 C-60.295 5.7775 -59.965 5.1175 -59.625 4.4375 C-40.77117538 -0.97344318 -19.35991761 0.02708327 0 0 Z " fill="#012D0D" transform="translate(228.625,200.5625)"/>
<path d="M0 0 C7.85500194 -0.22161447 15.40010949 -0.22475427 23 2 C23.33 2.33 23.66 2.66 24 3 C25.51469448 3.23192865 27.03754562 3.41215238 28.5625 3.5625 C29.80193359 3.68818359 29.80193359 3.68818359 31.06640625 3.81640625 C31.70449219 3.87699219 32.34257812 3.93757812 33 4 C33 4.66 33 5.32 33 6 C35.64 6 38.28 6 41 6 C41 6.66 41 7.32 41 8 C41.928125 8.103125 42.85625 8.20625 43.8125 8.3125 C52.08997983 9.5283069 59.62057301 12.08419133 67.15625 15.66796875 C71.17075882 17.54839115 75.26841447 19.20959153 79.37109375 20.88671875 C81.63341942 21.84476157 83.81922103 22.87094422 86 24 C86 24.66 86 25.32 86 26 C82.27157294 24.89154871 78.81843975 23.47263346 75.3125 21.8125 C51.81603619 11.0194089 25.69773732 3.80782878 0 1 C0 0.67 0 0.34 0 0 Z " fill="#16B54F" transform="translate(272,173)"/>
<path d="M0 0 C0.89047531 -0.00570007 1.78095062 -0.01140015 2.69841003 -0.01727295 C4.57488851 -0.02665427 6.45138295 -0.03322931 8.32788086 -0.03710938 C11.123198 -0.04672106 13.91774816 -0.07777194 16.71289062 -0.109375 C32.97648072 -0.20555145 49.16983032 1.23707547 64.85546875 5.765625 C65.62503906 5.97380859 66.39460938 6.18199219 67.1875 6.39648438 C71.01624327 7.45120726 74.7008415 8.62960494 78.35546875 10.203125 C75.11866304 11.24631238 72.89998458 11.12600335 69.58984375 10.42578125 C68.70039063 10.24208984 67.8109375 10.05839844 66.89453125 9.86914062 C65.97414063 9.66998047 65.05375 9.47082031 64.10546875 9.265625 C63.16960937 9.07033203 62.23375 8.87503906 61.26953125 8.67382812 C58.96308848 8.19135795 56.65865275 7.70087923 54.35546875 7.203125 C54.35546875 6.543125 54.35546875 5.883125 54.35546875 5.203125 C52.70546875 5.203125 51.05546875 5.203125 49.35546875 5.203125 C49.35546875 4.543125 49.35546875 3.883125 49.35546875 3.203125 C48.73800781 3.21472656 48.12054688 3.22632813 47.484375 3.23828125 C46.63746094 3.24730469 45.79054688 3.25632812 44.91796875 3.265625 C43.68240234 3.28302734 43.68240234 3.28302734 42.421875 3.30078125 C39.35546875 3.203125 39.35546875 3.203125 35.40234375 2.703125 C29.7771337 2.0658048 24.19437953 2.07759665 18.5390625 2.10546875 C17.44199478 2.1068837 16.34492706 2.10829865 15.21461487 2.10975647 C11.74070406 2.11531488 8.26685979 2.12785954 4.79296875 2.140625 C2.42513114 2.14564538 0.05729252 2.15020734 -2.31054688 2.15429688 C-8.08856403 2.16527065 -13.86654289 2.18196689 -19.64453125 2.203125 C-19.64453125 1.873125 -19.64453125 1.543125 -19.64453125 1.203125 C-13.08111958 0.45174524 -6.60496555 0.03410391 0 0 Z " fill="#044115" transform="translate(211.64453125,283.796875)"/>
<path d="M0 0 C0.99626083 3.17021017 0.96516845 5.4973489 0.44140625 8.765625 C0.30283203 9.65507812 0.16425781 10.54453125 0.02148438 11.4609375 C-0.20571289 12.84152344 -0.20571289 12.84152344 -0.4375 14.25 C-0.65889648 15.65378906 -0.65889648 15.65378906 -0.88476562 17.0859375 C-1.24947522 19.39184331 -1.62144974 21.69633288 -2 24 C-2.66 24 -3.32 24 -4 24 C-3.88159204 28.91145542 -3.75733277 33.8227151 -3.62768555 38.73388672 C-3.58441511 40.40409334 -3.54273451 42.07434194 -3.50268555 43.74462891 C-3.44479149 46.14758955 -3.3811526 48.55034041 -3.31640625 50.953125 C-3.29133751 52.0705307 -3.29133751 52.0705307 -3.26576233 53.21051025 C-3.16871077 56.61870798 -2.93113012 59.72047747 -2 63 C-1.93168013 65.4157906 -1.91512358 67.83334713 -1.9375 70.25 C-1.94652344 71.51328125 -1.95554687 72.7765625 -1.96484375 74.078125 C-1.97644531 75.04234375 -1.98804687 76.0065625 -2 77 C-2.33 77 -2.66 77 -3 77 C-8.56643141 51.95105866 -7.92761251 24.51375215 0 0 Z " fill="#15AD4A" transform="translate(87,205)"/>
<path d="M0 0 C10.06085114 1.42675813 18.74564364 6.25098025 27.5625 11.0625 C28.34850586 11.48587646 29.13451172 11.90925293 29.94433594 12.34545898 C37.06094012 16.31124157 37.06094012 16.31124157 39 20 C39.55685482 24.2957372 39.28425982 26.46193678 37.25 30.3125 C33.94117647 34.26470588 33.94117647 34.26470588 31 35 C24.36518318 34.88941972 20.32788264 32.84004307 15 29 C18.76624671 27.74458443 20.37188934 28.62938042 24 30 C24 30.66 24 31.32 24 32 C27.3 32 30.6 32 34 32 C35.72748457 28.54503087 36.35048679 27.1381548 36.5 23.5 C36.5515625 22.7471875 36.603125 21.994375 36.65625 21.21875 C35.46025465 17.17514668 31.66579334 15.91409584 28.15185547 13.98583984 C26.17856298 12.9372618 24.18919646 11.93072272 22.1875 10.9375 C21.48625 10.58751953 20.785 10.23753906 20.0625 9.87695312 C15.14347762 7.46290425 10.2783164 5.5080904 5 4 C5 3.34 5 2.68 5 2 C3.35 1.67 1.7 1.34 0 1 C0 0.67 0 0.34 0 0 Z " fill="#03370E" transform="translate(290,295)"/>
<path d="M0 0 C1.29099861 0.00022659 1.29099861 0.00022659 2.608078 0.00045776 C3.99571098 0.01594162 3.99571098 0.01594162 5.41137695 0.03173828 C6.36156204 0.03456818 7.31174713 0.03739807 8.29072571 0.04031372 C11.32716435 0.05151363 14.36330863 0.0766179 17.3996582 0.10205078 C19.45759665 0.11208082 21.51553972 0.12120663 23.57348633 0.12939453 C28.6198238 0.15145236 33.66594108 0.18598096 38.7121582 0.22705078 C38.7121582 0.88705078 38.7121582 1.54705078 38.7121582 2.22705078 C39.69055664 2.19224609 40.66895508 2.15744141 41.67700195 2.12158203 C49.30477737 1.96407634 55.58069141 2.22432792 62.7121582 5.22705078 C59.12704322 6.30515454 56.45171804 5.95085314 52.76928711 5.29858398 C33.01607003 1.84922041 12.70090201 2.46642902 -7.2878418 2.22705078 C-4.17476243 0.15166454 -3.52435985 -0.02067073 0 0 Z " fill="#16B950" transform="translate(207.287841796875,226.77294921875)"/>
<path d="M0 0 C0.55042969 0.31710937 1.10085937 0.63421875 1.66796875 0.9609375 C27.68519239 15.56285216 53.27615731 24.13545734 83 27 C83 27.33 83 27.66 83 28 C56.3706301 29.25042259 28.60038216 19.45041772 6 5.875 C5.41089844 5.52590576 4.82179687 5.17681152 4.21484375 4.81713867 C2.77394487 3.93424747 1.38162556 2.97303508 0 2 C0 1.34 0 0.68 0 0 Z " fill="#023510" transform="translate(157,391)"/>
<path d="M0 0 C1.48321747 -0.0049926 1.48321747 -0.0049926 2.99639893 -0.01008606 C5.08418312 -0.01513612 7.17197533 -0.01749498 9.25976562 -0.01733398 C12.4285233 -0.01951432 15.5969291 -0.03767377 18.765625 -0.05664062 C20.80208215 -0.0595763 22.83854095 -0.06155993 24.875 -0.0625 C25.81075867 -0.06968552 26.74651733 -0.07687103 27.71063232 -0.08427429 C33.92260721 -0.06305844 39.66090208 0.73201466 45.703125 2.16796875 C45.703125 2.49796875 45.703125 2.82796875 45.703125 3.16796875 C32.36331815 3.25624688 19.03873187 2.97698981 5.703125 2.66796875 C3.55989952 2.61962776 1.41667037 2.57144957 -0.7265625 2.5234375 C-5.9167109 2.40682107 -11.10680483 2.28801466 -16.296875 2.16796875 C-16.296875 1.83796875 -16.296875 1.50796875 -16.296875 1.16796875 C-10.84479598 0.035414 -5.54123088 0.00653322 0 0 Z " fill="#14B84F" transform="translate(210.296875,304.83203125)"/>
<path d="M0 0 C3.0836642 0.13931138 6.16683417 0.28759281 9.25 0.4375 C10.55904297 0.49647461 10.55904297 0.49647461 11.89453125 0.55664062 C12.73886719 0.59853516 13.58320313 0.64042969 14.453125 0.68359375 C15.61569824 0.73858032 15.61569824 0.73858032 16.80175781 0.79467773 C19 1 19 1 20.83325195 1.51147461 C23.97256014 2.21927807 26.99976023 2.12999666 30.21484375 2.1328125 C31.25397667 2.13424759 31.25397667 2.13424759 32.31410217 2.13571167 C33.77572724 2.13639052 35.23735537 2.13455681 36.69897461 2.13037109 C38.92633909 2.12502678 41.1535012 2.13032183 43.38085938 2.13671875 C44.80468794 2.13605776 46.22851638 2.13477616 47.65234375 2.1328125 C48.94132568 2.13168457 50.23030762 2.13055664 51.55834961 2.12939453 C54.52349459 2.01791501 57.11870781 1.64959694 60 1 C61.76977761 0.93540958 63.54170152 0.91388935 65.3125 0.9375 C66.63701172 0.95103516 66.63701172 0.95103516 67.98828125 0.96484375 C68.98408203 0.98224609 68.98408203 0.98224609 70 1 C70 1.33 70 1.66 70 2 C49.87456108 5.42560662 18.71591676 10.46278293 0 0 Z " fill="#16B24E" transform="translate(212,414)"/>
<path d="M0 0 C1.15878159 0.00157104 1.15878159 0.00157104 2.3409729 0.00317383 C16.22545942 0.04298545 16.22545942 0.04298545 22.5 1.25 C22.5 1.58 22.5 1.91 22.5 2.25 C21.18281982 2.27505615 19.86563965 2.3001123 18.50854492 2.32592773 C13.62758438 2.42000882 8.74676592 2.52022792 3.8659668 2.62231445 C1.7523938 2.66566064 -0.36121414 2.70733594 -2.47485352 2.74731445 C-5.51068664 2.80502449 -8.54634389 2.86871701 -11.58203125 2.93359375 C-12.52899368 2.95030624 -13.47595612 2.96701874 -14.45161438 2.98423767 C-15.33230087 3.00418289 -16.21298737 3.02412811 -17.12036133 3.04467773 C-18.28285149 3.06799416 -18.28285149 3.06799416 -19.46882629 3.09178162 C-21.70332493 3.18355377 -21.70332493 3.18355377 -24.5 4.25 C-27.23865287 4.32051114 -29.95027588 4.34357765 -32.6875 4.3125 C-33.43708984 4.30798828 -34.18667969 4.30347656 -34.95898438 4.29882812 C-36.80602383 4.28706354 -38.65302213 4.26912865 -40.5 4.25 C-40.5 3.92 -40.5 3.59 -40.5 3.25 C-26.96993822 0.77121006 -13.72323321 -0.04119971 0 0 Z " fill="#16B14E" transform="translate(221.5,254.75)"/>
<path d="M0 0 C24.80492486 1.07148704 50.4910866 11.04318168 72 23 C68.22293662 24.25902113 66.8445537 23.19762012 63.40429688 21.49731445 C62.67275391 21.12695068 61.94121094 20.75658691 61.1875 20.375 C48.25228899 14.07031682 34.80829163 9.90860341 21 6 C19.42992187 5.54947266 19.42992187 5.54947266 17.828125 5.08984375 C11.93391494 3.43313781 6.02078708 2.11012343 0 1 C0 0.67 0 0.34 0 0 Z " fill="#02310D" transform="translate(288,177)"/>
<path d="M0 0 C0.72614502 -0.00233643 1.45229004 -0.00467285 2.20043945 -0.00708008 C13.39474438 -0.0207453 24.13389593 0.69999238 35.0625 3.25 C35.0625 3.58 35.0625 3.91 35.0625 4.25 C27.73926541 4.37626267 27.73926541 4.37626267 24.39428711 3.75219727 C20.71435504 3.19752442 17.12841496 3.10616303 13.41796875 3.1171875 C12.68991531 3.11623077 11.96186188 3.11527405 11.21174622 3.11428833 C9.67119256 3.11361022 8.130636 3.11543869 6.59008789 3.11962891 C4.29501455 3.12489668 2.00014473 3.11971625 -0.29492188 3.11328125 C-10.54155028 3.10914905 -20.71645776 3.5385059 -30.9375 4.25 C-27.58750925 2.46020534 -25.05851778 1.92648576 -21.25 1.6875 C-14.14732293 1.22653155 -7.49277037 0.01076191 0 0 Z " fill="#032F0E" transform="translate(216.9375,252.75)"/>
<path d="M0 0 C5.47685859 -0.07489393 10.95341045 -0.12894902 16.43066406 -0.16479492 C18.28878989 -0.17975905 20.14688117 -0.20013773 22.00488281 -0.22631836 C40.69434584 -0.48282068 40.69434584 -0.48282068 49.54296875 2.28320312 C53.61400485 3.47085833 57.78234254 3.72939808 62 4 C62 4.33 62 4.66 62 5 C64.97 5.495 64.97 5.495 68 6 C68 6.66 68 7.32 68 8 C69.32 8 70.64 8 72 8 C72.495 9.485 72.495 9.485 73 11 C71.4579911 10.58460168 69.91642449 10.16756168 68.375 9.75 C66.86099609 9.34201172 66.86099609 9.34201172 65.31640625 8.92578125 C63.10681228 8.3089688 60.90582898 7.66042968 58.71484375 6.98046875 C39.58399293 1.11601735 19.81994285 1.44356859 0 1 C0 0.67 0 0.34 0 0 Z " fill="#095220" transform="translate(236,81)"/>
<path d="M0 0 C19.18690332 0.92839855 38.21861052 8.65208049 54.40234375 18.625 C58.03591211 20.54833242 60.92490504 20.84907056 65 21 C65.66 21.33 66.32 21.66 67 22 C66 23 66 23 62.25 23.1875 C58.76415714 23.15615249 56.15520917 22.57760458 53 21 C53 20.34 53 19.68 53 19 C52.01 19 51.02 19 50 19 C50 18.34 50 17.68 50 17 C49.35804688 16.91621094 48.71609375 16.83242188 48.0546875 16.74609375 C43.82389273 15.71274106 40.06621656 13.89073264 36.125 12.0625 C30.80038403 9.59445661 25.69126489 7.45786096 20 6 C18.95199219 5.70416016 18.95199219 5.70416016 17.8828125 5.40234375 C13.57071803 4.26203432 9.43687171 3.68591685 4.98046875 3.44140625 C2.53082052 2.89542943 1.59596675 1.88797328 0 0 Z " fill="#16C556" transform="translate(256,308)"/>
<path d="M0 0 C0.33 0 0.66 0 1 0 C1.48597153 1.97750678 1.96338757 3.9571165 2.4375 5.9375 C2.70433594 7.03964844 2.97117187 8.14179688 3.24609375 9.27734375 C4.68740288 16.39427431 5.15707899 23.44964346 5.16796875 30.69921875 C5.17129715 31.4967305 5.17462555 32.29424225 5.17805481 33.11592102 C5.18308019 34.79236278 5.18546451 36.46881439 5.18530273 38.14526367 C5.18747975 40.66407421 5.20565673 43.18243902 5.22460938 45.70117188 C5.25694894 55.3344525 4.71848547 64.49429256 3 74 C2.67 74 2.34 74 2 74 C1.97269592 72.43759968 1.95346774 70.8750573 1.9375 69.3125 C1.92589844 68.44238281 1.91429687 67.57226562 1.90234375 66.67578125 C2 64 2 64 2.4934082 61.79296875 C3.49651432 56.26259093 3.22582643 50.58303243 3.24023438 44.9753418 C3.24980786 42.73251317 3.28079885 40.4906556 3.3125 38.24804688 C3.37603522 29.34415294 2.55670798 21.12159741 0.66577148 12.4152832 C-0.16462836 8.1554873 -0.23144049 4.32022246 0 0 Z " fill="#15BE52" transform="translate(413,208)"/>
<path d="M0 0 C2 1 2 1 2.74609375 2.96875 C2.97425781 3.8040625 3.20242188 4.639375 3.4375 5.5 C4.39819552 8.92339215 5.42919846 12.2767557 6.625 15.625 C8.03363863 19.74820265 8.53681437 23.67693409 9 28 C9.33 28.33 9.66 28.66 10 29 C10.0928726 30.41225046 10.11746772 31.82908934 10.11352539 33.24438477 C10.11344986 34.14524307 10.11337433 35.04610138 10.11329651 35.97425842 C10.10813522 36.95341721 10.10297394 37.93257599 10.09765625 38.94140625 C10.0962413 39.93881332 10.09482635 40.9362204 10.09336853 41.96385193 C10.08775114 45.16343124 10.07519571 48.36294169 10.0625 51.5625 C10.05748724 53.72591045 10.05292395 55.88932199 10.04882812 58.05273438 C10.03777607 63.36851325 10.02102104 68.68425171 10 74 C9.67 74 9.34 74 9 74 C8.970271 72.47415283 8.970271 72.47415283 8.93994141 70.91748047 C8.86276689 67.07416666 8.77424222 63.23117775 8.68261719 59.38818359 C8.64478189 57.73785912 8.60985813 56.08746481 8.578125 54.43701172 C8.30896069 40.60028397 7.23027766 27.31913987 3.4375 13.9375 C2.99744792 12.34279232 2.55860771 10.74774964 2.12109375 9.15234375 C1.82307861 8.07122314 1.82307861 8.07122314 1.51904297 6.96826172 C0.91099416 4.66248115 0.42029951 2.34706582 0 0 Z " fill="#084218" transform="translate(409,192)"/>
<path d="M0 0 C3.94727588 -0.17942163 6.5980513 -0.09350689 10 2 C10 2.66 10 3.32 10 4 C10.99 4 11.98 4 13 4 C13 4.66 13 5.32 13 6 C14.010625 6.061875 15.02125 6.12375 16.0625 6.1875 C19.98958146 6.72697786 22.30252338 8.3990452 25.37109375 10.80859375 C27.07051257 12.1648454 27.07051257 12.1648454 29.6875 13 C33.34555854 14.58186315 35.25102487 17.50204973 37 21 C37.07065617 23.04055005 37.08421976 25.08334257 37.0625 27.125 C37.05347656 28.22070312 37.04445313 29.31640625 37.03515625 30.4453125 C37.02355469 31.28835938 37.01195312 32.13140625 37 33 C36.01 33.495 36.01 33.495 35 34 C35.03480469 33.26394531 35.06960938 32.52789062 35.10546875 31.76953125 C35.50838127 24.29489632 35.50838127 24.29489632 32 18 C26.4728983 13.67921018 20.66884095 10.74040339 14.3125 7.8125 C12.45435215 6.94417076 10.59627644 6.0756871 8.73828125 5.20703125 C7.92399658 4.8303833 7.10971191 4.45373535 6.27075195 4.06567383 C4.16270829 3.07635971 2.07774137 2.05122579 0 1 C0 0.67 0 0.34 0 0 Z " fill="#15BC52" transform="translate(314,245)"/>
<path d="M0 0 C0.33 0 0.66 0 1 0 C1.45059618 5.29450514 0.11096216 8.30581622 -2.5 12.875 C-3.00080078 13.76445312 -3.00080078 13.76445312 -3.51171875 14.671875 C-4.32979982 16.12104717 -5.16334743 17.56146981 -6 19 C-6.66 19 -7.32 19 -8 19 C-8.33531415 20.95799514 -8.66819143 22.91640774 -9 24.875 C-9.185625 25.96554687 -9.37125 27.05609375 -9.5625 28.1796875 C-10.05109708 30.85371964 -10.05109708 30.85371964 -10 33 C-10.66 33 -11.32 33 -12 33 C-12.33 32.34 -12.66 31.68 -13 31 C-13.928125 31.99 -13.928125 31.99 -14.875 33 C-17 35 -17 35 -19 35 C-17.71864351 31.45924681 -16.21184495 28.73944632 -13.9375 25.75 C-10.56511835 21.05706469 -7.81190622 16.16573533 -5.125 11.0625 C-4.53513306 9.94343262 -4.53513306 9.94343262 -3.93334961 8.80175781 C-2.41112936 5.87284444 -1.04661755 3.13985266 0 0 Z " fill="#04330E" transform="translate(404,317)"/>
<path d="M0 0 C4.1030329 1.51964182 7.13962882 4.05220446 9 8 C9.80769377 13.04488091 10.1984171 18.30863955 8.078125 23.0703125 C5.40796854 26.52070949 2.05413761 28.5691279 -2 30 C-6.31824744 30.51720454 -9.2699189 30.48672073 -13 28 C-12.18015625 27.93941406 -11.3603125 27.87882812 -10.515625 27.81640625 C-8.89914062 27.69072266 -8.89914062 27.69072266 -7.25 27.5625 C-6.18265625 27.48128906 -5.1153125 27.40007812 -4.015625 27.31640625 C-1.56320038 27.05909227 0.63921291 26.68187782 3 26 C3 25.01 3 24.02 3 23 C3.99 22.34 4.98 21.68 6 21 C6.16699232 18.12521833 6.16699232 18.12521833 6 15 C6.2475 14.175 6.495 13.35 6.75 12.5 C7.13174231 8.68257687 5.32577286 6.90721607 3 4 C2.01 3.34 1.02 2.68 0 2 C0 1.34 0 0.68 0 0 Z " fill="#03330D" transform="translate(364,203)"/>
<path d="M0 0 C2.14576637 -0.02685938 4.29162645 -0.04633088 6.4375 -0.0625 C7.63246094 -0.07410156 8.82742188 -0.08570313 10.05859375 -0.09765625 C13 0 13 0 14 1 C16.51859228 1.5619518 19.02873303 2.07976773 21.5625 2.5625 C22.27341797 2.70107422 22.98433594 2.83964844 23.71679688 2.98242188 C25.47719932 3.32505054 27.23851797 3.66296553 29 4 C29 4.66 29 5.32 29 6 C30.175625 6.1546875 30.175625 6.1546875 31.375 6.3125 C37.96470145 7.56227096 44.43818503 9.10672952 50 13 C48 14 48 14 46.25439453 13.55029297 C45.55427246 13.28361816 44.85415039 13.01694336 44.1328125 12.7421875 C43.33907227 12.44844238 42.54533203 12.15469727 41.72753906 11.85205078 C40.86870117 11.52962402 40.00986328 11.20719727 39.125 10.875 C31.90991439 8.25575308 24.70139468 5.97272072 17.25 4.125 C16.03787842 3.82118408 16.03787842 3.82118408 14.80126953 3.51123047 C9.88020682 2.32522263 5.03311448 1.54008306 0 1 C0 0.67 0 0.34 0 0 Z " fill="#15BF54" transform="translate(254,285)"/>
<path d="M0 0 C0.66 0.33 1.32 0.66 2 1 C1.66266846 1.62865967 1.32533691 2.25731934 0.9777832 2.9050293 C-10.01024649 23.15042552 -10.01024649 23.15042552 -17 45 C-17.33 45 -17.66 45 -18 45 C-18.34548714 38.66606918 -17.29342747 33.89738492 -15 28 C-14.34 28 -13.68 28 -13 28 C-12.67 25.69 -12.34 23.38 -12 21 C-11.34 21 -10.68 21 -10 21 C-9.9175 20.319375 -9.835 19.63875 -9.75 18.9375 C-9.07984855 16.31274015 -8.35885874 14.72195817 -7 12.4375 C-5.44160643 9.75901106 -4.47799966 7.98749787 -4 5 C-3.34 5 -2.68 5 -2 5 C-1.34 3.35 -0.68 1.7 0 0 Z " fill="#042B0B" transform="translate(105,160)"/>
<path d="M0 0 C-0.33 0.66 -0.66 1.32 -1 2 C-3.82716765 2.42451735 -6.5943039 2.75055631 -9.4375 3 C-15.23890144 3.18464464 -15.23890144 3.18464464 -20 6 C-22.625 6.125 -22.625 6.125 -25 6 C-25.33 7.32 -25.66 8.64 -26 10 C-26.886875 9.814375 -27.77375 9.62875 -28.6875 9.4375 C-31.85178811 9.01957516 -33.94839642 9.19222258 -37 10 C-33.40902658 5.34760625 -29.07811632 4.60512132 -23.625 3.3125 C-22.78710938 3.10044922 -21.94921875 2.88839844 -21.0859375 2.66992188 C-13.94824516 0.89111018 -7.35651457 -0.12683646 0 0 Z " fill="#063413" transform="translate(176,175)"/>
<path d="M0 0 C-2.26949102 0.67155349 -4.5403961 1.3373963 -6.8125 2 C-8.07707031 2.37125 -9.34164062 2.7425 -10.64453125 3.125 C-14 4 -14 4 -17 4 C-17.12375 5.258125 -17.2475 6.51625 -17.375 7.8125 C-17.69868059 11.10325263 -18.06604999 12.09907498 -20 15 C-20.66 15 -21.32 15 -22 15 C-22.66 13.68 -23.32 12.36 -24 11 C-24.66 11 -25.32 11 -26 11 C-25.5625 8.75 -25.5625 8.75 -24 6 C-21.13307675 4.31525427 -18.10637027 3.1689477 -15 2 C-14.113125 1.608125 -13.22625 1.21625 -12.3125 0.8125 C-7.93374775 -0.72598052 -4.46126488 -1.2760177 0 0 Z " fill="#0C2A11" transform="translate(172,235)"/>
<path d="M0 0 C3.25395894 3.14899252 6.30045098 6.4304588 9.3125 9.8125 C15.7945257 17.04575385 22.60382697 23.70538465 30 30 C27 31 27 31 25 31 C24.54625 30.21625 24.0925 29.4325 23.625 28.625 C22.26406259 25.91323658 22.26406259 25.91323658 20 25 C18 24 18 24 16.7265625 21.78515625 C14.33912601 17.93392952 11.13865459 15.08131653 7.8515625 12.01757812 C3.36635867 7.70720078 3.36635867 7.70720078 3 4 C1.68 4 0.36 4 -1 4 C-0.67 2.68 -0.34 1.36 0 0 Z " fill="#052D0D" transform="translate(115,352)"/>
<path d="M0 0 C2.97 0 5.94 0 9 0 C6.02874102 1.98083932 4.15500992 2.55893461 0.75 3.4375 C-12.11347393 7.24566968 -24.04862558 13.99397935 -36 20 C-36 19.34 -36 18.68 -36 18 C-34.35 17.34 -32.7 16.68 -31 16 C-31 15.34 -31 14.68 -31 14 C-30.34773437 13.75765625 -29.69546875 13.5153125 -29.0234375 13.265625 C-25.06250606 11.74668374 -21.51004135 10.35065343 -18 7.9375 C-12.5748997 4.43378939 -6.28796624 3.19930907 0 2 C0 1.34 0 0.68 0 0 Z " fill="#03320D" transform="translate(196,87)"/>
<path d="M0 0 C10.47980339 0.64162062 20.47322694 4.80674854 30 9 C30 9.33 30 9.66 30 10 C28.01432292 10.48828125 26.02864583 10.9765625 24.04296875 11.46484375 C22.34316798 11.91010705 20.66698046 12.44433985 19 13 C19.33 11.35 19.66 9.7 20 8 C19.34 8 18.68 8 18 8 C18 7.34 18 6.68 18 6 C17.14148438 5.87753906 16.28296875 5.75507813 15.3984375 5.62890625 C11.99313102 4.99872884 8.89657899 4.06437721 5.625 2.9375 C4.56539063 2.57527344 3.50578125 2.21304688 2.4140625 1.83984375 C1.61742187 1.56269531 0.82078125 1.28554687 0 1 C0 0.67 0 0.34 0 0 Z " fill="#092D11" transform="translate(285,237)"/>
<path d="M0 0 C9.40634425 -0.55331437 18.74492376 1.41384654 27 6 C30.31226694 7.38723168 33.6537276 8.69720225 37 10 C37 10.66 37 11.32 37 12 C35.824375 11.608125 34.64875 11.21625 33.4375 10.8125 C32.61636719 10.54050781 31.79523438 10.26851563 30.94921875 9.98828125 C28.80186481 9.26870437 26.6592238 8.53501701 24.51953125 7.79296875 C16.42502178 5.01651006 8.3937993 2.741041 0 1 C0 0.67 0 0.34 0 0 Z " fill="#044415" transform="translate(261,308)"/>
<path d="M0 0 C0 3.60573896 -0.81707462 4.41336566 -3 7.1875 C-3.556875 7.90292969 -4.11375 8.61835938 -4.6875 9.35546875 C-5.120625 9.89816406 -5.55375 10.44085938 -6 11 C-5.34 11.33 -4.68 11.66 -4 12 C-5.0725 12.391875 -6.145 12.78375 -7.25 13.1875 C-10.90495216 14.74862329 -12.80885755 16.62901161 -15 20 C-15.33 20.99 -15.66 21.98 -16 23 C-17.98 23 -19.96 23 -22 23 C-19.30232922 19.54360931 -16.60606973 16.57581071 -13.25 13.75 C-8.3582411 9.5957391 -4.20307359 4.83548049 0 0 Z " fill="#062F10" transform="translate(378,359)"/>
<path d="M0 0 C0.66 0 1.32 0 2 0 C2 0.66 2 1.32 2 2 C2.66 2 3.32 2 4 2 C4.58007812 3.08667969 4.58007812 3.08667969 5.171875 4.1953125 C8.46490524 10.32025141 8.46490524 10.32025141 12.1875 16.1875 C14.04575114 19.07099314 15.15446139 21.75847131 16.26953125 24.98046875 C16.98924655 26.97026987 17.8454329 28.8385392 18.75 30.75 C20.04440984 34.11546558 20.03797154 34.77387223 19 38 C18.74347656 37.33097656 18.48695313 36.66195312 18.22265625 35.97265625 C13.23090636 23.45126344 6.60990774 11.72725567 0 0 Z " fill="#02350F" transform="translate(389,154)"/>
<path d="M0 0 C0.70189453 0.00451172 1.40378906 0.00902344 2.12695312 0.01367188 C3.85550538 0.02543073 5.58401365 0.04336546 7.3125 0.0625 C7.3125 0.3925 7.3125 0.7225 7.3125 1.0625 C5.76755859 1.22685547 5.76755859 1.22685547 4.19140625 1.39453125 C-4.29357846 2.3290452 -12.67957706 3.48275465 -21.06420898 5.09692383 C-24.65667421 5.77413118 -28.02964974 6.21845486 -31.6875 6.0625 C-28.2522952 3.77236347 -26.702169 3.88407027 -22.6875 4.0625 C-22.6875 3.4025 -22.6875 2.7425 -22.6875 2.0625 C-21.85605469 2.00191406 -21.02460938 1.94132813 -20.16796875 1.87890625 C-18.53794922 1.75322266 -18.53794922 1.75322266 -16.875 1.625 C-15.79605469 1.54378906 -14.71710938 1.46257812 -13.60546875 1.37890625 C-0.79940287 -0.0097033 -0.79940287 -0.0097033 0 0 Z " fill="#15B24C" transform="translate(188.6875,170.9375)"/>
<path d="M0 0 C0 3.53986194 -0.58152803 4.49515403 -3 7 C-4.32 7 -5.64 7 -7 7 C-7.061875 7.556875 -7.12375 8.11375 -7.1875 8.6875 C-8.91413457 13.60176762 -13.44362766 16.78338643 -18 19 C-18.66 18.67 -19.32 18.34 -20 18 C-13.66212743 11.47199125 -7.51068169 5.19970271 0 0 Z " fill="#12C452" transform="translate(147,116)"/>
<path d="M0 0 C5.7623928 -0.19358542 10.63527751 0.3766969 16.1875 1.875 C16.87263672 2.04902344 17.55777344 2.22304688 18.26367188 2.40234375 C21.960602 3.36304744 25.49207452 4.48784572 29 6 C25.76319429 7.04318738 23.54451583 6.92287835 20.234375 6.22265625 C18.90019531 5.94711914 18.90019531 5.94711914 17.5390625 5.66601562 C16.61867188 5.46685547 15.69828125 5.26769531 14.75 5.0625 C13.81414062 4.86720703 12.87828125 4.67191406 11.9140625 4.47070312 C9.60761973 3.98823295 7.303184 3.49775423 5 3 C5 2.34 5 1.68 5 1 C3.35 1 1.7 1 0 1 C0 0.67 0 0.34 0 0 Z " fill="#052A11" transform="translate(261,288)"/>
<path d="M0 0 C5.61 0 11.22 0 17 0 C17 0.66 17 1.32 17 2 C17.87011719 1.96519531 17.87011719 1.96519531 18.7578125 1.9296875 C23.61411166 1.81749577 27.42932395 2.12485085 32 4 C32 4.66 32 5.32 32 6 C25.12558984 5.20744058 18.32198391 4.0921779 11.5 2.9375 C10.39140625 2.75123047 9.2828125 2.56496094 8.140625 2.37304688 C5.42682981 1.91684855 2.7133005 1.45912975 0 1 C0 0.67 0 0.34 0 0 Z " fill="#084E1E" transform="translate(252,257)"/>
<path d="M0 0 C0.66 0.33 1.32 0.66 2 1 C2 1.99 2 2.98 2 4 C3.98 4.66 5.96 5.32 8 6 C8 6.66 8 7.32 8 8 C9.66666667 8.33333333 11.33333333 8.66666667 13 9 C15.66276042 9.53255208 18.32552083 10.06510417 20.98828125 10.59765625 C21.65214844 10.73042969 22.31601562 10.86320312 23 11 C22.67 11.66 22.34 12.32 22 13 C15.20193625 13.53467917 11.38059954 12.14531041 5.625 8.625 C4.91472656 8.2125 4.20445312 7.8 3.47265625 7.375 C0.68189263 5.73337434 -1.7006771 4.2993229 -4 2 C-2.125 0.9375 -2.125 0.9375 0 0 Z " fill="#053511" transform="translate(318,272)"/>
<path d="M0 0 C3.29726252 1.64863126 4.15790852 5.20810961 5.625 8.4375 C5.94984375 9.13166016 6.2746875 9.82582031 6.609375 10.54101562 C9 15.72907366 9 15.72907366 9 18 C8.34 18 7.68 18 7 18 C6.67 19.32 6.34 20.64 6 22 C2.94645373 17.80137389 3 15.08147602 3 10 C2.04788888 7.97676387 1.05226728 5.97300116 0 4 C0 2.68 0 1.36 0 0 Z " fill="#0A2811" transform="translate(93,314)"/>
<path d="M0 0 C1 2 1 2 2 4 C3.80252869 4.70194993 3.80252869 4.70194993 6 5 C8.00382009 5.65509503 10.00458132 6.31974363 12 7 C7.44454185 8.47828217 4.15409546 6.88306287 -0.125 5.1875 C-0.85332031 4.91357422 -1.58164063 4.63964844 -2.33203125 4.35742188 C-7.71851504 2.28148496 -7.71851504 2.28148496 -10 0 C-3.05825243 -1.41990291 -3.05825243 -1.41990291 0 0 Z " fill="#11C350" transform="translate(190,403)"/>
<path d="M0 0 C-4.455 0.495 -4.455 0.495 -9 1 C-9 1.66 -9 2.32 -9 3 C-12.3 3 -15.6 3 -19 3 C-19 3.66 -19 4.32 -19 5 C-23.95 5 -28.9 5 -34 5 C-34.33 4.34 -34.66 3.68 -35 3 C-34.41734375 3.02320313 -33.8346875 3.04640625 -33.234375 3.0703125 C-23.88163292 3.27619047 -14.95993487 1.64475558 -5.9375 -0.73046875 C-4 -1 -4 -1 0 0 Z " fill="#15B54D" transform="translate(191,308)"/>
<path d="M0 0 C-1.1875 1.5 -1.1875 1.5 -3 3 C-5.6875 3.1875 -5.6875 3.1875 -8 3 C-8 3.66 -8 4.32 -8 5 C-13.57067277 6.59162079 -18.21101581 7.20674944 -24 7 C-21.62924841 4.62924841 -19.69736315 4.36746446 -16.5 3.64453125 C-12.42689649 2.59443425 -8.49666362 1.12475418 -4.5390625 -0.29296875 C-2 -1 -2 -1 0 0 Z " fill="#043110" transform="translate(312,408)"/>
<path d="M0 0 C0.6328125 1.84765625 0.6328125 1.84765625 1 4 C-1.125 6.4375 -1.125 6.4375 -4 9 C-7.41176733 12.17373705 -9.59168351 14.51899299 -11 19 C-11.99 19 -12.98 19 -14 19 C-10.63226133 11.83561254 -5.17540762 5.91475157 0 0 Z " fill="#10C04F" transform="translate(126,135)"/>
<path d="M0 0 C3.93136089 1.31045363 6.31206827 2.83208046 9 6 C10.48280019 10.44840058 10.4922756 14.38252304 9.125 18.875 C8 21 8 21 6 22 C6.24556641 20.94232422 6.24556641 20.94232422 6.49609375 19.86328125 C7.01699824 16.90341312 7.09866732 14.18938727 7.0625 11.1875 C7.05347656 10.21167969 7.04445313 9.23585938 7.03515625 8.23046875 C7.02355469 7.49441406 7.01195312 6.75835937 7 6 C6.34 6 5.68 6 5 6 C5 5.34 5 4.68 5 4 C2.525 3.01 2.525 3.01 0 2 C0 1.34 0 0.68 0 0 Z " fill="#033B10" transform="translate(340,259)"/>
<path d="M0 0 C4.14648033 0.47844004 7.31560346 1.09837598 11 3 C12.99110401 3.38290462 14.99100513 3.72604615 17 4 C17 4.66 17 5.32 17 6 C18.670625 6.4021875 18.670625 6.4021875 20.375 6.8125 C24 8 24 8 26 11 C20.5312031 9.2514731 15.26310964 7.30838142 10 5 C6.67335932 3.64977525 3.33757386 2.32294175 0 1 C0 0.67 0 0.34 0 0 Z " fill="#043813" transform="translate(316,215)"/>
<path d="M0 0 C9.05953844 0.41749025 19.35822561 1.90548374 27 7 C22.33260985 7.28575858 19.29749171 6.83622021 15.10546875 4.79296875 C11.37090834 3.386446 7.41727728 3.0407123 3.4765625 2.52734375 C2.25066406 2.26630859 2.25066406 2.26630859 1 2 C0.67 1.34 0.34 0.68 0 0 Z " fill="#17BF51" transform="translate(266,260)"/>
<path d="M0 0 C0.33 0.66 0.66 1.32 1 2 C0.01 3.485 0.01 3.485 -1 5 C-1.309375 6.03125 -1.61875 7.0625 -1.9375 8.125 C-2.288125 9.07375 -2.63875 10.0225 -3 11 C-3.99 11.33 -4.98 11.66 -6 12 C-7.11680706 14.84979639 -7.11680706 14.84979639 -8 18 C-8.63815344 19.34721283 -9.29325371 20.68747118 -10 22 C-10.66 22 -11.32 22 -12 22 C-10.53506506 16.85271493 -8.2231504 12.69822932 -5.4375 8.1875 C-5.02564453 7.50751953 -4.61378906 6.82753906 -4.18945312 6.12695312 C-1.16952328 1.16952328 -1.16952328 1.16952328 0 0 Z " fill="#14C355" transform="translate(111,154)"/>
<path d="M0 0 C-1.875 3.875 -1.875 3.875 -3 5 C-2.8848159 10.78960442 -2.8848159 10.78960442 0.1875 15.4375 C3.20200862 17.11222701 5.58380744 17.68221465 9 18 C9 18.33 9 18.66 9 19 C1.74132492 19.61514196 1.74132492 19.61514196 -1.9375 16.5625 C-2.618125 15.716875 -3.29875 14.87125 -4 14 C-4.33 13.67 -4.66 13.34 -5 13 C-5.43975323 8.83080107 -5.63058262 5.17517669 -3.625 1.4375 C-2 0 -2 0 0 0 Z " fill="#023F14" transform="translate(157,293)"/>
<path d="M0 0 C2.64 0 5.28 0 8 0 C8 0.33 8 0.66 8 1 C10.97 1.495 10.97 1.495 14 2 C14 2.66 14 3.32 14 4 C15.32 4 16.64 4 18 4 C18.33 4.99 18.66 5.98 19 7 C18.29875 6.80664062 17.5975 6.61328125 16.875 6.4140625 C11.26507866 4.874383 5.64989553 3.38582343 0 2 C0 1.34 0 0.68 0 0 Z " fill="#053A16" transform="translate(290,85)"/>
<path d="M0 0 C0.66 0.33 1.32 0.66 2 1 C-2.59856738 6.13781306 -10.38584371 9.42520088 -17 11 C-19.1640625 10.5390625 -19.1640625 10.5390625 -21 10 C-20.23816406 9.69707031 -19.47632813 9.39414062 -18.69140625 9.08203125 C-12.77598995 6.68189355 -7.19199122 4.15407522 -1.7421875 0.8203125 C-1.16726563 0.54960937 -0.59234375 0.27890625 0 0 Z " fill="#043910" transform="translate(333,396)"/>
<path d="M0 0 C0.92941406 0.0721875 1.85882813 0.144375 2.81640625 0.21875 C4.05261719 0.3115625 5.28882813 0.404375 6.5625 0.5 C7.78066406 0.5928125 8.99882812 0.685625 10.25390625 0.78125 C13.84634216 0.99102728 17.40247543 1.03704015 21 1 C17.14913041 2.9254348 14.54372556 4.18840962 10.1875 4.3125 C9.33542969 4.34988281 8.48335937 4.38726562 7.60546875 4.42578125 C4.19614994 3.8686362 2.51746429 2.29148006 0 0 Z " fill="#044216" transform="translate(139,208)"/>
<path d="M0 0 C3.94077657 1.13844656 6.1850952 2.09496278 9 5 C11.29333462 6.72511089 13.61166654 8.41036116 15.94140625 10.0859375 C18.25905691 12.24086886 19.05045746 14.0127905 20 17 C19.113125 16.21625 18.22625 15.4325 17.3125 14.625 C13.11108649 11.00518712 8.70140721 7.66946406 4.26879883 4.34033203 C2.82865936 3.2492344 1.41190227 2.12739865 0 1 C0 0.67 0 0.34 0 0 Z " fill="#02370F" transform="translate(349,113)"/>
<path d="M0 0 C-0.33 0.66 -0.66 1.32 -1 2 C-3.73046875 2.6328125 -3.73046875 2.6328125 -7.1875 3.125 C-8.31542969 3.29257812 -9.44335938 3.46015625 -10.60546875 3.6328125 C-13.77120471 3.97525114 -16.81932036 4.06757134 -20 4 C-19.67 3.34 -19.34 2.68 -19 2 C-16.54869706 1.32877471 -14.17728441 0.78530284 -11.6875 0.3125 C-11.01009766 0.17005859 -10.33269531 0.02761719 -9.63476562 -0.11914062 C-6.15916088 -0.80203071 -3.36221357 -1.28784016 0 0 Z " fill="#053D16" transform="translate(177,289)"/>
<path d="M0 0 C0.33 0 0.66 0 1 0 C1.69888677 2.74755487 2.3843988 5.49731197 3.0625 8.25 C3.26166016 9.02730469 3.46082031 9.80460937 3.66601562 10.60546875 C3.84970703 11.35957031 4.03339844 12.11367188 4.22265625 12.890625 C4.39547119 13.58188477 4.56828613 14.27314453 4.74633789 14.98535156 C5.03156637 17.25070809 4.68076195 18.8368312 4 21 C2 20 2 20 1.3671875 18.3203125 C-0.01479115 12.15624902 -0.21206472 6.30303475 0 0 Z " fill="#053B17" transform="translate(83,277)"/>
<path d="M0 0 C0.66 0.33 1.32 0.66 2 1 C1.01 2.485 1.01 2.485 0 4 C-0.6300298 9.90189682 -0.37705775 15.50305396 2 21 C0.35 20.67 -1.3 20.34 -3 20 C-3.08165496 17.79229195 -3.13948488 15.58369575 -3.1875 13.375 C-3.23970703 11.53035156 -3.23970703 11.53035156 -3.29296875 9.6484375 C-2.9787947 5.73592336 -1.96906533 3.35929782 0 0 Z " fill="#12B84E" transform="translate(135,186)"/>
<path d="M0 0 C2.25 -0.25 2.25 -0.25 5 0 C5.5878125 0.598125 6.175625 1.19625 6.78125 1.8125 C9.3894497 4.3839645 11.95354032 5.67343233 15.25 7.25 C16.32765625 7.77078125 17.4053125 8.2915625 18.515625 8.828125 C19.33546875 9.21484375 20.1553125 9.6015625 21 10 C21 10.66 21 11.32 21 12 C15.84313143 10.53005148 11.65471168 8.21589873 7.125 5.4375 C6.43664062 5.02564453 5.74828125 4.61378906 5.0390625 4.18945312 C3.33910553 3.15902286 1.66662278 2.08351684 0 1 C0 0.67 0 0.34 0 0 Z " fill="#16BF53" transform="translate(155,389)"/>
<path d="M0 0 C0.66 0 1.32 0 2 0 C0.56347895 4.91441412 -1.54159615 9.00238358 -4.125 13.375 C-4.49753906 14.01566406 -4.87007813 14.65632813 -5.25390625 15.31640625 C-6.16434002 16.88048477 -7.08148191 18.44065534 -8 20 C-9 18 -9 18 -8.44140625 16.0546875 C-8.00634766 14.97574219 -8.00634766 14.97574219 -7.5625 13.875 C-7.27503906 13.15054687 -6.98757813 12.42609375 -6.69140625 11.6796875 C-6.46324219 11.12539063 -6.23507812 10.57109375 -6 10 C-5.34 10 -4.68 10 -4 10 C-4 9.01 -4 8.02 -4 7 C-3.34 7 -2.68 7 -2 7 C-1.855625 6.401875 -1.71125 5.80375 -1.5625 5.1875 C-1.1127561 3.43849596 -0.57107659 1.71322977 0 0 Z " fill="#16C055" transform="translate(401,320)"/>
<path d="M0 0 C0.969375 0.66 1.93875 1.32 2.9375 2 C7.26039831 4.47273291 11.12027441 4.65246802 16 4 C17.6792238 3.36562656 19.35008418 2.70710678 21 2 C23.3125 2.375 23.3125 2.375 25 3 C23.35 3.33 21.7 3.66 20 4 C20 4.66 20 5.32 20 6 C17.56242587 6.02698422 15.12515085 6.04683099 12.6875 6.0625 C11.99720703 6.07087891 11.30691406 6.07925781 10.59570312 6.08789062 C7.4516975 6.10307906 5.00579981 6.00193327 2 5 C0.8125 2.4375 0.8125 2.4375 0 0 Z " fill="#15C257" transform="translate(147,259)"/>
<path d="M0 0 C0.66 0 1.32 0 2 0 C2.6708712 1.6232687 3.33657029 3.24867578 4 4.875 C4.556875 6.23238281 4.556875 6.23238281 5.125 7.6171875 C6 10 6 10 6 12 C6.66 12 7.32 12 8 12 C10.125 16.625 10.125 16.625 9 20 C7.48987869 17.23456804 5.99369852 14.46183193 4.5 11.6875 C4.07074219 10.90181641 3.64148438 10.11613281 3.19921875 9.30664062 C2.79316406 8.54931641 2.38710937 7.79199219 1.96875 7.01171875 C1.59169922 6.31522217 1.21464844 5.61872559 0.82617188 4.90112305 C0 3 0 3 0 0 Z " fill="#13C052" transform="translate(95,315)"/>
<path d="M0 0 C4.95998472 0.61632946 8.93671966 2.79835629 13.3125 5.0625 C14.05306641 5.43955078 14.79363281 5.81660156 15.55664062 6.20507812 C17.37387522 7.13128157 19.18732404 8.06490629 21 9 C19.10546875 9.578125 19.10546875 9.578125 17 10 C15.66073801 9.00795408 14.32901064 8.00573778 13 7 C10.04310774 5.85721495 7.03451154 4.91424386 4 4 C4 3.34 4 2.68 4 2 C2.68 2 1.36 2 0 2 C0 1.34 0 0.68 0 0 Z " fill="#032E0C" transform="translate(315,247)"/>
<path d="M0 0 C0.99 0 1.98 0 3 0 C3 2.64 3 5.28 3 8 C2.34 8 1.68 8 1 8 C0.67 7.34 0.34 6.68 0 6 C-0.928125 6.99 -0.928125 6.99 -1.875 8 C-4 10 -4 10 -6 10 C-4.63356852 6.01457486 -2.89890986 3.07460137 0 0 Z " fill="#0C2914" transform="translate(391,342)"/>
<path d="M0 0 C0.66 0.33 1.32 0.66 2 1 C-1.3 7.27 -4.6 13.54 -8 20 C-9 16 -9 16 -7.125 12.5 C-6.75117187 11.90058594 -6.37734375 11.30117187 -5.9921875 10.68359375 C-4.8996878 8.82978521 -4.33978544 7.12365901 -4 5 C-3.34 5 -2.68 5 -2 5 C-1.34 3.35 -0.68 1.7 0 0 Z " fill="#02370F" transform="translate(105,160)"/>
<path d="M0 0 C0.33 0 0.66 0 1 0 C1.51345509 8.30085731 0.70721995 14.51935975 -3 22 C-3.9867097 18.88925167 -3.96838493 16.83557243 -3.22265625 13.671875 C-3.03896484 12.87265625 -2.85527344 12.0734375 -2.66601562 11.25 C-2.46685547 10.425 -2.26769531 9.6 -2.0625 8.75 C-1.86720703 7.90953125 -1.67191406 7.0690625 -1.47070312 6.203125 C-0.98857714 4.13351102 -0.49536137 2.06648605 0 0 Z " fill="#054317" transform="translate(416,276)"/>
<path d="M0 0 C2.5419589 -0.05434116 5.08273682 -0.0938339 7.625 -0.125 C8.33785156 -0.14175781 9.05070312 -0.15851563 9.78515625 -0.17578125 C14.2612164 -0.21684602 17.77949278 0.30913433 22 2 C22 2.33 22 2.66 22 3 C14.6379306 2.5140207 7.30899482 2.02325928 0 1 C0 0.67 0 0.34 0 0 Z " fill="#033A12" transform="translate(256,203)"/>
<path d="M0 0 C4.39400565 6.59100848 6.40862322 14.16425761 7 22 C6.34 22 5.68 22 5 22 C4.896875 20.948125 4.79375 19.89625 4.6875 18.8125 C4.2698381 15.08958276 4.2698381 15.08958276 2.5 12.6875 C0.25745971 8.66961531 0.25535549 4.53476132 0 0 Z " fill="#16B04C" transform="translate(406,186)"/>
<path d="M0 0 C0 0.66 0 1.32 0 2 C-0.66 2.66 -1.32 3.32 -2 4 C-2.33 4.99 -2.66 5.98 -3 7 C-4.32 6.34 -5.64 5.68 -7 5 C-7 5.66 -7 6.32 -7 7 C-8.98 7.33 -10.96 7.66 -13 8 C-3.28571429 0 -3.28571429 0 0 0 Z M-6 7 C-5.34 7 -4.68 7 -4 7 C-4.33 7.66 -4.66 8.32 -5 9 C-5.33 8.34 -5.66 7.68 -6 7 Z " fill="#092E13" transform="translate(348,388)"/>
<path d="M0 0 C1.423125 0.495 1.423125 0.495 2.875 1 C7.55447256 2.3644458 12.16823759 2.17499341 17 2 C17 2.66 17 3.32 17 4 C13.55389094 5.72305453 9.77537825 5.379435 6 5 C2.4375 3.5 2.4375 3.5 0 2 C0 1.34 0 0.68 0 0 Z " fill="#13C252" transform="translate(347,230)"/>
<path d="M0 0 C7.94957992 -0.22428282 15.27111181 0.04596958 23 2 C23 2.33 23 2.66 23 3 C15.10042938 3.27990605 7.7527507 2.51537186 0 1 C0 0.67 0 0.34 0 0 Z " fill="#14C354" transform="translate(272,173)"/>
<path d="M0 0 C1.32 0.33 2.64 0.66 4 1 C2.41728767 2.27160666 0.83380365 3.54225285 -0.75 4.8125 C-1.63171875 5.52019531 -2.5134375 6.22789063 -3.421875 6.95703125 C-5.58992929 8.67505002 -7.77728901 10.35373976 -10 12 C-10 10.68 -10 9.36 -10 8 C-7.38369776 6.09080647 -5.07366722 5.02455574 -2 4 C-0.79117904 1.99983534 -0.79117904 1.99983534 0 0 Z " fill="#042E0D" transform="translate(142,117)"/>
<path d="M0 0 C0.66 0 1.32 0 2 0 C0.61219205 3.89006773 -1.2152227 6.96558708 -3.625 10.3125 C-4.25664063 11.19550781 -4.88828125 12.07851562 -5.5390625 12.98828125 C-6.02117187 13.65214844 -6.50328125 14.31601563 -7 15 C-8.078125 11.2421875 -8.078125 11.2421875 -7.375 9.0625 C-5.57084267 6.356264 -3.32433004 4.26473183 -1 2 C-0.67 1.34 -0.34 0.68 0 0 Z " fill="#04330D" transform="translate(115,145)"/>
<path d="M0 0 C4.59306496 1.4859916 7.43569245 3.85014682 11 7 C8.92446352 7.5534764 7.15634036 8 5 8 C3.375 6.6875 3.375 6.6875 2 5 C2 4.01 2 3.02 2 2 C1.34 2 0.68 2 0 2 C0 1.34 0 0.68 0 0 Z " fill="#10C956" transform="translate(347,113)"/>
<path d="M0 0 C0 3.44122867 -0.70458488 6.34012803 -1.5 9.6875 C-1.7784375 10.86699219 -2.056875 12.04648438 -2.34375 13.26171875 C-2.5603125 14.16535156 -2.776875 15.06898438 -3 16 C-3.33 16 -3.66 16 -4 16 C-4.63019694 6.00437637 -4.63019694 6.00437637 -2 1.8125 C-1.34 1.214375 -0.68 0.61625 0 0 Z " fill="#062C0C" transform="translate(138,185)"/>
<path d="M0 0 C-1.95739042 1.3139058 -3.91594125 2.62608302 -5.875 3.9375 C-6.96554688 4.66839844 -8.05609375 5.39929688 -9.1796875 6.15234375 C-12 8 -12 8 -14 9 C-14 7.68 -14 6.36 -14 5 C-13.195625 4.71125 -12.39125 4.4225 -11.5625 4.125 C-8.8673532 3.26737432 -8.8673532 3.26737432 -8 1 C-4.91025722 -1.02431423 -3.46521435 -1.02430865 0 0 Z " fill="#062F0C" transform="translate(160,108)"/>
<path d="M0 0 C5.61 0 11.22 0 17 0 C17 0.33 17 0.66 17 1 C16.08476562 1.06058594 15.16953125 1.12117187 14.2265625 1.18359375 C13.03804687 1.26738281 11.84953125 1.35117188 10.625 1.4375 C9.44164062 1.51871094 8.25828125 1.59992188 7.0390625 1.68359375 C4.08481099 1.81084936 4.08481099 1.81084936 2 3 C-0.6723621 3.13415472 -3.32250488 3.04318541 -6 3 C-6 2.67 -6 2.34 -6 2 C-4.02 2 -2.04 2 0 2 C0 1.34 0 0.68 0 0 Z " fill="#12C752" transform="translate(186,204)"/>
<path d="M0 0 C4.62 0 9.24 0 14 0 C14 0.99 14 1.98 14 3 C12.41590006 2.88512252 10.83271037 2.75765492 9.25 2.625 C8.36828125 2.55539062 7.4865625 2.48578125 6.578125 2.4140625 C4 2 4 2 0 0 Z " fill="#063514" transform="translate(246,305)"/>
<path d="M0 0 C5.64033795 0.49476649 9.94213419 1.41945622 15 4 C15.33 4.66 15.66 5.32 16 6 C14.26982492 5.54548816 12.54090123 5.08621143 10.8125 4.625 C9.84957031 4.36976563 8.88664062 4.11453125 7.89453125 3.8515625 C5.17789793 3.05233704 2.60862825 2.0968638 0 1 C0 0.67 0 0.34 0 0 Z " fill="#033F13" transform="translate(288,264)"/>
<path d="M0 0 C5.21979128 -0.1799928 9.07262981 0.02905192 14 2 C14 2.66 14 3.32 14 4 C9.03083364 3.48594831 4.70973649 2.76615118 0 1 C0 0.67 0 0.34 0 0 Z " fill="#04300F" transform="translate(270,259)"/>
<path d="M0 0 C1.00796724 3.16069729 0.97083624 5.33511958 0.25 8.5625 C0.09015625 9.32691406 -0.0696875 10.09132812 -0.234375 10.87890625 C-1.08787329 13.24344488 -2.11184497 14.37639417 -4 16 C-3.47606294 10.13190493 -2.23891142 5.45126259 0 0 Z " fill="#13AF4E" transform="translate(92,189)"/>
<path d="M0 0 C5.87024368 2.67865488 10.76646153 5.06087179 15 10 C11.34426939 8.62992438 8.04532353 6.98982135 4.6875 5 C3.80449219 4.484375 2.92148437 3.96875 2.01171875 3.4375 C1.34785156 2.963125 0.68398438 2.48875 0 2 C0 1.34 0 0.68 0 0 Z " fill="#15C255" transform="translate(332,103)"/>
<path d="M0 0 C2.64 0.33 5.28 0.66 8 1 C8 1.66 8 2.32 8 3 C10.475 3.99 10.475 3.99 13 5 C13 5.66 13 6.32 13 7 C8.1725201 5.58707905 4.2837641 3.57025846 0 1 C0 0.67 0 0.34 0 0 Z " fill="#063812" transform="translate(324,98)"/>
<path d="M0 0 C2.64 0 5.28 0 8 0 C5.63699651 2.36300349 4.4201502 2.51433444 1.1875 3.125 C-0.09060547 3.37636719 -0.09060547 3.37636719 -1.39453125 3.6328125 C-3.96843811 3.995552 -6.40461588 4.06523407 -9 4 C-5.5647952 1.70986347 -4.014669 1.82157027 0 2 C0 1.34 0 0.68 0 0 Z " fill="#16C555" transform="translate(166,173)"/>
<path d="M0 0 C0 2 0 2 -2.0625 4.125 C-5.63686538 6.40650982 -7.83783725 6.32644414 -12 6 C-8.59780735 3.25207517 -4.51535412 0 0 0 Z " fill="#11C656" transform="translate(180,97)"/>
<path d="M0 0 C-2.25597827 2.25597827 -4.04603867 2.96574192 -7 4.125 C-7.886875 4.47820312 -8.77375 4.83140625 -9.6875 5.1953125 C-12 6 -12 6 -14 6 C-13 3 -13 3 -11.328125 2.05078125 C-7.43666975 0.66829057 -4.19816517 -0.39357798 0 0 Z " fill="#16BA54" transform="translate(162,235)"/>
<path d="M0 0 C5.41390868 0.46671627 9.20517932 1.24297811 14 4 C14 4.66 14 5.32 14 6 C9.27934033 4.45730076 4.58335908 2.92205381 0 1 C0 0.67 0 0.34 0 0 Z " fill="#053D15" transform="translate(310,92)"/>
<path d="M0 0 C2.475 0.99 2.475 0.99 5 2 C5 2.66 5 3.32 5 4 C5.66 4 6.32 4 7 4 C8.37310707 5.29233607 9.71034824 6.62437146 11 8 C10.67 8.99 10.34 9.98 10 11 C8.33035479 9.35718838 6.6643536 7.71067239 5 6.0625 C4.071875 5.14597656 3.14375 4.22945313 2.1875 3.28515625 C0 1 0 1 0 0 Z " fill="#15BE52" transform="translate(125,363)"/>
<path d="M0 0 C0.66 0.66 1.32 1.32 2 2 C1.74739753 5.78903708 -0.27849443 7.54186593 -3 10 C-2.25 2.25 -2.25 2.25 0 0 Z " fill="#0CCE51" transform="translate(390,337)"/>
<path d="M0 0 C-3.41211416 2.27474277 -5.6568529 2.56629644 -9.6875 3.125 C-10.86699219 3.29257813 -12.04648438 3.46015625 -13.26171875 3.6328125 C-14.16535156 3.75398438 -15.06898438 3.87515625 -16 4 C-11.37112073 -0.62887927 -6.14652632 -0.24104025 0 0 Z " fill="#033613" transform="translate(221,83)"/>
<path d="M0 0 C-1.81817001 2.31459868 -2.75615543 2.95377187 -5.69921875 3.51171875 C-7.17841797 3.59873047 -7.17841797 3.59873047 -8.6875 3.6875 C-10.17830078 3.78611328 -10.17830078 3.78611328 -11.69921875 3.88671875 C-12.45847656 3.92410156 -13.21773438 3.96148437 -14 4 C-11.37350692 2.24900461 -9.38191413 1.30690675 -6.4375 0.3125 C-5.65246094 0.04050781 -4.86742187 -0.23148437 -4.05859375 -0.51171875 C-2 -1 -2 -1 0 0 Z " fill="#03471A" transform="translate(312,408)"/>
<path d="M0 0 C0.66 0 1.32 0 2 0 C2.66 1.32 3.32 2.64 4 4 C3.34 4 2.68 4 2 4 C1.67 4.66 1.34 5.32 1 6 C-2.465 4.02 -2.465 4.02 -6 2 C-4.1875 1.375 -4.1875 1.375 -2 1 C-1.01 1.66 -0.02 2.32 1 3 C0.67 2.01 0.34 1.02 0 0 Z " fill="#0DCA52" transform="translate(370,201)"/>
<path d="M0 0 C-3.81697488 2.54464992 -7.64422959 4.54807653 -12 6 C-12 4.68 -12 3.36 -12 2 C-7.8803623 0.70756464 -4.33168317 -0.26252625 0 0 Z " fill="#15C657" transform="translate(149,179)"/>
<path d="M0 0 C3.21043882 1.38188453 5.04936365 2.92421903 7.25 5.625 C8.03117187 6.57246094 8.03117187 6.57246094 8.828125 7.5390625 C9.40820312 8.26222656 9.40820312 8.26222656 10 9 C8.68 9 7.36 9 6 9 C6 8.01 6 7.02 6 6 C5.01 5.67 4.02 5.34 3 5 C1.3125 3.5625 1.3125 3.5625 0 2 C0 1.34 0 0.68 0 0 Z " fill="#13C252" transform="translate(364,127)"/>
<path d="M0 0 C1.98 0 3.96 0 6 0 C2.59780735 2.74792483 -1.48464588 6 -6 6 C-6 5.34 -6 4.68 -6 4 C-4.02 3.34 -2.04 2.68 0 2 C0 1.34 0 0.68 0 0 Z " fill="#15C256" transform="translate(326,397)"/>
<path d="M0 0 C2.91488977 2.6234008 4.88503898 5.71816394 7 9 C6.67 9.66 6.34 10.32 6 11 C5.34 9.68 4.68 8.36 4 7 C3.01 7 2.02 7 1 7 C0.67 4.69 0.34 2.38 0 0 Z " fill="#04330E" transform="translate(103,334)"/>
<path d="M0 0 C1.60685189 4.01712972 0.43257376 7.06042217 -1 11 C-2.578125 12.71484375 -2.578125 12.71484375 -4 14 C-3.52188823 12.22888156 -3.0424722 10.45811517 -2.5625 8.6875 C-2.29566406 7.70136719 -2.02882813 6.71523438 -1.75390625 5.69921875 C-1.21920575 3.78482474 -0.62855462 1.88566385 0 0 Z " fill="#034B1A" transform="translate(411,298)"/>
<path d="M0 0 C5.37992836 0.33990833 9.53273547 0.68557793 14 4 C12 5 12 5 9.1796875 4.22265625 C8.08914063 3.83980469 6.99859375 3.45695312 5.875 3.0625 C4.77929688 2.68222656 3.68359375 2.30195313 2.5546875 1.91015625 C1.71164062 1.60980469 0.86859375 1.30945313 0 1 C0 0.67 0 0.34 0 0 Z " fill="#16B04E" transform="translate(290,294)"/>
<path d="M0 0 C1.65 0.33 3.3 0.66 5 1 C3.35 2.98 1.7 4.96 0 7 C-0.93423645 3.98968256 -1.04449911 3.13349732 0 0 Z " fill="#0EC54F" transform="translate(363,369)"/>
<path d="M0 0 C2.475 0.99 2.475 0.99 5 2 C5 1.34 5 0.68 5 0 C5.99 0.33 6.98 0.66 8 1 C5.03 3.475 5.03 3.475 2 6 C1.34 4.02 0.68 2.04 0 0 Z " fill="#0FC451" transform="translate(368,362)"/>
<path d="M0 0 C2.0625 0.4375 2.0625 0.4375 4 1 C4 1.66 4 2.32 4 3 C0.696686 3.88935377 -2.62294375 4.46274105 -6 5 C-5.195625 4.360625 -4.39125 3.72125 -3.5625 3.0625 C-1.7249496 1.59396498 -1.7249496 1.59396498 0 0 Z " fill="#10BE4F" transform="translate(348,279)"/>
<path d="M0 0 C0.33 0.99 0.66 1.98 1 3 C-0.9375 5.6875 -0.9375 5.6875 -3 8 C-4.32 7.67 -5.64 7.34 -7 7 C-6.21625 6.401875 -5.4325 5.80375 -4.625 5.1875 C-1.85425677 3.08914751 -1.85425677 3.08914751 0 0 Z " fill="#14C155" transform="translate(372,224)"/>
<path d="M0 0 C4.37934119 0.51958285 8.68803391 1.05675742 13 2 C13 2.33 13 2.66 13 3 C11.39667209 3.08121924 9.79215974 3.13929134 8.1875 3.1875 C7.29417969 3.22230469 6.40085938 3.25710937 5.48046875 3.29296875 C2.58352485 2.95081002 1.77444972 2.24606427 0 0 Z " fill="#05280D" transform="translate(139,208)"/>
<path d="M0 0 C0.99 0.33 1.98 0.66 3 1 C3 1.99 3 2.98 3 4 C3.66 4.33 4.32 4.66 5 5 C3.02 5.66 1.04 6.32 -1 7 C-0.67 4.69 -0.34 2.38 0 0 Z " fill="#10200D" transform="translate(154,389)"/>
<path d="M0 0 C1.13643966 3.40931897 0.86747764 4.00335456 -0.4375 7.1875 C-0.86869141 8.26064453 -0.86869141 8.26064453 -1.30859375 9.35546875 C-1.53675781 9.89816406 -1.76492188 10.44085938 -2 11 C-2.33 11 -2.66 11 -3 11 C-3 8.69 -3 6.38 -3 4 C-2.34 4 -1.68 4 -1 4 C-0.67 2.68 -0.34 1.36 0 0 Z " fill="#12C850" transform="translate(408,304)"/>
<path d="M0 0 C0.33 0 0.66 0 1 0 C1 2.97 1 5.94 1 9 C0.34 9 -0.32 9 -1 9 C-1.625 6.1875 -1.625 6.1875 -2 3 C-1.34 2.01 -0.68 1.02 0 0 Z " fill="#072710" transform="translate(372,215)"/>
<path d="M0 0 C1.65 0 3.3 0 5 0 C5.33 1.98 5.66 3.96 6 6 C3.97945196 4.35830472 1.97956942 2.69088222 0 1 C0 0.67 0 0.34 0 0 Z " fill="#08280D" transform="translate(369,130)"/>
<path d="M0 0 C0.66 0.33 1.32 0.66 2 1 C1.67 1.99 1.34 2.98 1 4 C-2.5625 5.1875 -2.5625 5.1875 -6 6 C-4 4 -2 2 0 0 Z " fill="#524949" transform="translate(70,46)"/>
<path d="M0 0 C0.66 0.33 1.32 0.66 2 1 C0.02 3.31 -1.96 5.62 -4 8 C-4.33 6.68 -4.66 5.36 -5 4 C-4.0409375 3.8453125 -4.0409375 3.8453125 -3.0625 3.6875 C-2.381875 3.460625 -1.70125 3.23375 -1 3 C-0.67 2.01 -0.34 1.02 0 0 Z " fill="#052A0C" transform="translate(122,137)"/>
<path d="" fill="#FFFFFF" transform="translate(0,0)"/>
<path d="" fill="#FFFFFF" transform="translate(0,0)"/>
<path d="" fill="#FFFFFF" transform="translate(0,0)"/>
<path d="" fill="#FFFFFF" transform="translate(0,0)"/>
<path d="" fill="#FFFFFF" transform="translate(0,0)"/>
<path d="" fill="#FFFFFF" transform="translate(0,0)"/>
<path d="" fill="#FFFFFF" transform="translate(0,0)"/>
<path d="" fill="#FFFFFF" transform="translate(0,0)"/>
<path d="" fill="#FFFFFF" transform="translate(0,0)"/>
<path d="" fill="#FFFFFF" transform="translate(0,0)"/>
<path d="" fill="#FFFFFF" transform="translate(0,0)"/>
<path d="" fill="#FFFFFF" transform="translate(0,0)"/>
<path d="" fill="#FFFFFF" transform="translate(0,0)"/>
<path d="" fill="#FFFFFF" transform="translate(0,0)"/>
<path d="" fill="#FFFFFF" transform="translate(0,0)"/>
<path d="" fill="#FFFFFF" transform="translate(0,0)"/>
<path d="" fill="#FFFFFF" transform="translate(0,0)"/>
<path d="" fill="#FFFFFF" transform="translate(0,0)"/>
<path d="" fill="#FFFFFF" transform="translate(0,0)"/>
<path d="" fill="#FFFFFF" transform="translate(0,0)"/>
<path d="" fill="#FFFFFF" transform="translate(0,0)"/>
<path d="" fill="#FFFFFF" transform="translate(0,0)"/>
<path d="" fill="#FFFFFF" transform="translate(0,0)"/>
</svg>
