<?xml version="1.0" encoding="UTF-8"?>
<!DOCTYPE svg PUBLIC "-//W3C//DTD SVG 1.1//EN" "http://www.w3.org/Graphics/SVG/1.1/DTD/svg11.dtd">
<svg xmlns="http://www.w3.org/2000/svg" version="1.1" width="460px" height="460px" style="shape-rendering:geometricPrecision; text-rendering:geometricPrecision; image-rendering:optimizeQuality; fill-rule:evenodd; clip-rule:evenodd" xmlns:xlink="http://www.w3.org/1999/xlink">
<g><path style="opacity:0.004" fill="#fefffe" d="M 312.5,-0.5 C 312.833,-0.5 313.167,-0.5 313.5,-0.5C 313.315,0.170143 312.981,0.170143 312.5,-0.5 Z"/></g>
<g><path style="opacity:0.999" fill="#173547" d="M 210.5,-0.5 C 222.167,-0.5 233.833,-0.5 245.5,-0.5C 307.215,4.94239 359.049,30.2757 401,75.5C 425.933,104.361 443.267,137.361 453,174.5C 455.791,188.552 457.958,202.552 459.5,216.5C 459.5,226.167 459.5,235.833 459.5,245.5C 451.864,323.58 415.197,383.746 349.5,426C 332.696,435.902 315.029,443.902 296.5,450C 279.538,454.161 262.538,457.328 245.5,459.5C 234.833,459.5 224.167,459.5 213.5,459.5C 151.716,454.023 99.883,428.69 58,383.5C 33.0909,355.151 15.7575,322.485 6,285.5C 3.15884,271.793 0.992178,258.127 -0.5,244.5C -0.5,240.167 -0.5,235.833 -0.5,231.5C 0.833333,228.5 0.833333,225.5 -0.5,222.5C -0.5,218.5 -0.5,214.5 -0.5,210.5C 7.1935,142.255 37.8602,87.0886 91.5,45C 127.072,19.2174 166.739,4.05071 210.5,-0.5 Z"/></g>
<g><path style="opacity:0.004" fill="#fefffe" d="M 436.5,13.5 C 437.833,14.1667 437.833,14.1667 436.5,13.5 Z"/></g>
<g><path style="opacity:0.004" fill="#fefffe" d="M 0.5,20.5 C 1.83333,21.1667 1.83333,21.1667 0.5,20.5 Z"/></g>
<g><path style="opacity:1" fill="#1f5227" d="M 239.5,21.5 C 230.494,21.3336 221.494,21.5002 212.5,22C 209.635,22.1829 206.969,22.6829 204.5,23.5C 199.807,23.5401 195.141,23.8734 190.5,24.5C 190.611,23.8826 190.944,23.3826 191.5,23C 207.608,20.6382 223.608,20.1382 239.5,21.5 Z"/></g>
<g><path style="opacity:1" fill="#85e82e" d="M 271.5,26.5 C 276.542,28.462 281.875,29.7953 287.5,30.5C 292.011,32.0402 296.678,33.3736 301.5,34.5C 302.167,34.5 302.833,34.5 303.5,34.5C 304.167,35.1667 304.833,35.8333 305.5,36.5C 313.622,40.8086 321.955,44.9752 330.5,49C 330.957,49.414 331.291,49.914 331.5,50.5C 329.703,51.6951 328.703,53.3618 328.5,55.5C 330.604,55.7989 332.604,55.4656 334.5,54.5C 330.919,53.6441 330.753,52.6441 334,51.5C 336.03,53.6267 338.53,54.9601 341.5,55.5C 342.167,55.5 342.833,55.5 343.5,55.5C 349.161,59.4928 354.828,63.4928 360.5,67.5C 360.973,68.9063 361.973,69.573 363.5,69.5C 365.833,72.1667 368.167,74.8333 370.5,77.5C 371.588,79.5825 372.588,81.7492 373.5,84C 373.043,84.414 372.709,84.914 372.5,85.5C 374.021,85.8797 375.687,86.0464 377.5,86C 380.43,89.2527 383.597,92.4194 387,95.5C 387.333,97.1667 387.667,98.8333 388,100.5C 389.117,100.665 390.284,100.998 391.5,101.5C 392.429,102.689 392.762,104.022 392.5,105.5C 393.5,105.5 394.5,105.5 395.5,105.5C 396.5,106.167 397.5,106.833 398.5,107.5C 400.358,109.883 401.692,112.55 402.5,115.5C 402.201,117.604 402.534,119.604 403.5,121.5C 405.854,123.705 407.854,126.205 409.5,129C 408.107,130.301 407.607,131.801 408,133.5C 409.356,132.62 410.856,132.286 412.5,132.5C 414.37,137.602 416.536,142.602 419,147.5C 419.708,148.381 420.542,149.047 421.5,149.5C 422.73,151.297 423.396,153.297 423.5,155.5C 425.355,160.255 426.522,165.255 427,170.5C 427.705,173.476 428.871,176.142 430.5,178.5C 431.578,186.792 432.411,195.126 433,203.5C 433.738,206.991 434.571,210.325 435.5,213.5C 436.166,218.656 436.499,223.989 436.5,229.5C 436.519,239.89 435.853,250.223 434.5,260.5C 434.5,261.167 434.5,261.833 434.5,262.5C 433.883,262.611 433.383,262.944 433,263.5C 432.608,267.528 432.108,271.528 431.5,275.5C 431.5,276.833 431.5,278.167 431.5,279.5C 431.5,280.167 431.5,280.833 431.5,281.5C 430.203,283.371 429.203,285.371 428.5,287.5C 426.631,291.044 425.631,295.044 425.5,299.5C 425.167,300.833 424.833,302.167 424.5,303.5C 423.599,304.29 422.932,305.29 422.5,306.5C 420.943,309.154 419.11,311.82 417,314.5C 416.506,316.134 416.34,317.801 416.5,319.5C 415.169,322.829 413.836,326.162 412.5,329.5C 411.662,329.842 411.328,330.508 411.5,331.5C 411.167,331.5 410.833,331.5 410.5,331.5C 405.246,330.769 403.079,333.102 404,338.5C 403.692,337.692 403.192,337.025 402.5,336.5C 399.302,339.296 398.635,342.63 400.5,346.5C 398.856,346.714 397.356,346.38 396,345.5C 395.727,347.329 394.893,348.829 393.5,350C 394.34,351.666 393.84,351.833 392,350.5C 388.325,353.881 387.158,357.881 388.5,362.5C 387.178,362.67 386.011,362.337 385,361.5C 384.505,363.473 384.338,365.473 384.5,367.5C 384.5,367.833 384.5,368.167 384.5,368.5C 379.167,373.167 374.167,378.167 369.5,383.5C 364.752,387.721 359.752,391.721 354.5,395.5C 352.5,396.833 350.833,398.5 349.5,400.5C 348.833,400.5 348.167,400.5 347.5,400.5C 345.473,400.338 343.473,400.505 341.5,401C 338.873,403.118 335.873,404.452 332.5,405C 331.4,408.433 329.067,410.433 325.5,411C 325.833,411.333 326.167,411.667 326.5,412C 323.419,412.555 321.086,414.055 319.5,416.5C 316.371,417.899 313.371,419.565 310.5,421.5C 308.883,422.038 307.216,422.371 305.5,422.5C 302.813,422.336 300.146,422.503 297.5,423C 298.167,423.333 298.833,423.667 299.5,424C 298.167,424.667 296.833,425.333 295.5,426C 290.24,426.325 285.073,427.158 280,428.5C 277.624,428.685 275.791,429.685 274.5,431.5C 270.117,433.23 265.45,434.23 260.5,434.5C 250.166,435.899 239.666,436.566 229,436.5C 219.06,436.769 209.226,435.936 199.5,434C 200.5,433.667 201.5,433.333 202.5,433C 196.509,432.501 190.509,432.334 184.5,432.5C 179.891,429.151 174.558,427.484 168.5,427.5C 163.64,427.323 158.974,426.323 154.5,424.5C 152.75,423.13 150.75,422.13 148.5,421.5C 147.972,420.279 147.305,419.113 146.5,418C 140.651,415.329 134.651,413.162 128.5,411.5C 124.946,410.231 121.946,408.231 119.5,405.5C 117.708,402.498 115.041,400.665 111.5,400C 107.237,393.874 101.571,389.707 94.5,387.5C 90.2079,384.543 86.2079,381.21 82.5,377.5C 81.8333,376.167 80.8333,375.167 79.5,374.5C 76.8991,370.229 73.5658,366.563 69.5,363.5C 68.9202,361.251 67.5869,359.585 65.5,358.5C 65.2624,356.596 64.2624,355.262 62.5,354.5C 59.1326,350.055 56.1326,345.388 53.5,340.5C 51.4623,337.474 49.4623,334.474 47.5,331.5C 47.0075,329.181 46.0075,327.181 44.5,325.5C 44.0293,323.421 43.3627,321.421 42.5,319.5C 42.0437,314.587 40.0437,310.587 36.5,307.5C 36.5,306.833 36.5,306.167 36.5,305.5C 33.8217,298.271 31.8217,290.771 30.5,283C 31.2781,279.845 31.4448,276.678 31,273.5C 30.5581,275.679 29.5581,276.345 28,275.5C 27.3171,270.56 26.1504,265.893 24.5,261.5C 22.7822,243.568 22.1155,225.568 22.5,207.5C 24.1611,204.555 25.3278,201.221 26,197.5C 26.3333,193.833 26.6667,190.167 27,186.5C 29.8807,175.791 32.714,165.125 35.5,154.5C 35.5,154.167 35.5,153.833 35.5,153.5C 37.5782,152.257 39.4115,150.59 41,148.5C 42.3242,143.052 43.8242,137.719 45.5,132.5C 46.8333,129.5 48.1667,126.5 49.5,123.5C 54.8022,115.315 60.4688,107.315 66.5,99.5C 68.8062,96.5271 71.4728,93.8605 74.5,91.5C 79.5683,87.4348 83.9016,82.7682 87.5,77.5C 88.2623,75.7376 89.5956,74.7376 91.5,74.5C 94.2254,73.287 96.5588,71.4536 98.5,69C 100.235,68.3486 101.902,68.5153 103.5,69.5C 105.489,67.165 107.822,66.4984 110.5,67.5C 111.229,65.405 110.563,63.5716 108.5,62C 110.041,60.6288 111.375,59.1288 112.5,57.5C 114.076,56.8571 115.41,55.8571 116.5,54.5C 117.167,54.1667 117.833,53.8333 118.5,53.5C 120.749,52.9202 122.415,51.5869 123.5,49.5C 126.5,48.1667 129.5,46.8333 132.5,45.5C 138.269,45.1871 143.602,43.6871 148.5,41C 150.041,39.6288 151.375,38.1288 152.5,36.5C 157.517,35.6072 162.183,33.9405 166.5,31.5C 169.402,30.4222 172.402,29.7556 175.5,29.5C 180.264,29.2311 184.597,27.8978 188.5,25.5C 189.167,25.5 189.5,25.1667 189.5,24.5C 189.833,24.5 190.167,24.5 190.5,24.5C 195.141,23.8734 199.807,23.5401 204.5,23.5C 217.487,22.5338 230.487,22.3671 243.5,23C 252.865,24.1449 262.198,25.3116 271.5,26.5 Z"/></g>
<g><path style="opacity:1" fill="#83d44e" d="M 239.5,21.5 C 244.833,21.8333 250.167,22.1667 255.5,22.5C 260.662,23.731 265.996,24.731 271.5,25.5C 271.5,25.8333 271.5,26.1667 271.5,26.5C 262.198,25.3116 252.865,24.1449 243.5,23C 230.487,22.3671 217.487,22.5338 204.5,23.5C 206.969,22.6829 209.635,22.1829 212.5,22C 221.494,21.5002 230.494,21.3336 239.5,21.5 Z"/></g>
<g><path style="opacity:1" fill="#14412f" d="M 255.5,22.5 C 262.536,21.9662 269.202,22.9662 275.5,25.5C 274.167,25.5 272.833,25.5 271.5,25.5C 265.996,24.731 260.662,23.731 255.5,22.5 Z"/></g>
<g><path style="opacity:1" fill="#124325" d="M 189.5,24.5 C 189.5,25.1667 189.167,25.5 188.5,25.5C 186.139,25.6741 183.806,26.0074 181.5,26.5C 183.635,24.631 186.302,23.9644 189.5,24.5 Z"/></g>
<g><path style="opacity:1" fill="#2e6b2b" d="M 271.5,26.5 C 271.5,26.1667 271.5,25.8333 271.5,25.5C 272.833,25.5 274.167,25.5 275.5,25.5C 276.209,26.404 277.209,26.7373 278.5,26.5C 278.5,26.8333 278.5,27.1667 278.5,27.5C 276.139,27.3259 273.806,26.9926 271.5,26.5 Z"/></g>
<g><path style="opacity:1" fill="#71bc45" d="M 188.5,25.5 C 184.597,27.8978 180.264,29.2311 175.5,29.5C 175.5,29.1667 175.5,28.8333 175.5,28.5C 177.5,27.8333 179.5,27.1667 181.5,26.5C 183.806,26.0074 186.139,25.6741 188.5,25.5 Z"/></g>
<g><path style="opacity:1" fill="#84d44d" d="M 271.5,26.5 C 273.806,26.9926 276.139,27.3259 278.5,27.5C 281.746,28.0541 284.746,29.0541 287.5,30.5C 281.875,29.7953 276.542,28.462 271.5,26.5 Z"/></g>
<g><path style="opacity:1" fill="#1f5324" d="M 175.5,28.5 C 175.5,28.8333 175.5,29.1667 175.5,29.5C 172.402,29.7556 169.402,30.4222 166.5,31.5C 164.139,31.6741 161.806,32.0074 159.5,32.5C 162.092,30.8233 165.092,29.6566 168.5,29C 170.81,28.5034 173.143,28.3367 175.5,28.5 Z"/></g>
<g><path style="opacity:1" fill="#154226" d="M 278.5,27.5 C 278.5,27.1667 278.5,26.8333 278.5,26.5C 280.857,26.3367 283.19,26.5034 285.5,27C 287.432,28.4585 289.432,29.6252 291.5,30.5C 290.167,30.5 288.833,30.5 287.5,30.5C 284.746,29.0541 281.746,28.0541 278.5,27.5 Z"/></g>
<g><path style="opacity:1" fill="#194529" d="M 291.5,30.5 C 294.187,30.3359 296.854,30.5026 299.5,31C 301.544,31.4983 302.878,32.665 303.5,34.5C 302.833,34.5 302.167,34.5 301.5,34.5C 298.468,32.3342 295.134,31.0008 291.5,30.5 Z"/></g>
<g><path style="opacity:1" fill="#79c250" d="M 287.5,30.5 C 288.833,30.5 290.167,30.5 291.5,30.5C 295.134,31.0008 298.468,32.3342 301.5,34.5C 296.678,33.3736 292.011,32.0402 287.5,30.5 Z"/></g>
<g><path style="opacity:1" fill="#194330" d="M 159.5,32.5 C 157.167,33.8333 154.833,35.1667 152.5,36.5C 145.805,39.1841 139.138,41.8507 132.5,44.5C 134.951,43.1687 137.284,41.502 139.5,39.5C 143.059,38.8581 146.393,37.6914 149.5,36C 152.081,33.0122 155.414,31.8456 159.5,32.5 Z"/></g>
<g><path style="opacity:1" fill="#82d34c" d="M 166.5,31.5 C 162.183,33.9405 157.517,35.6072 152.5,36.5C 154.833,35.1667 157.167,33.8333 159.5,32.5C 161.806,32.0074 164.139,31.6741 166.5,31.5 Z"/></g>
<g><path style="opacity:1" fill="#1b492c" d="M 303.5,34.5 C 311.703,36.0645 319.036,39.3979 325.5,44.5C 318.863,41.8516 312.197,39.1849 305.5,36.5C 304.833,35.8333 304.167,35.1667 303.5,34.5 Z"/></g>
<g><path style="opacity:0.004" fill="#fefffe" d="M 376.5,36.5 C 377.833,37.1667 377.833,37.1667 376.5,36.5 Z"/></g>
<g><path style="opacity:1" fill="#83d744" d="M 152.5,36.5 C 151.375,38.1288 150.041,39.6288 148.5,41C 143.602,43.6871 138.269,45.1871 132.5,45.5C 132.5,45.1667 132.5,44.8333 132.5,44.5C 139.138,41.8507 145.805,39.1841 152.5,36.5 Z"/></g>
<g><path style="opacity:1" fill="#18432a" d="M 132.5,44.5 C 132.5,44.8333 132.5,45.1667 132.5,45.5C 129.5,46.8333 126.5,48.1667 123.5,49.5C 125.465,46.0834 128.465,44.4168 132.5,44.5 Z"/></g>
<g><path style="opacity:1" fill="#1a4731" d="M 329.5,46.5 C 334.457,46.6835 338.124,49.0168 340.5,53.5C 336.656,51.4133 332.989,49.08 329.5,46.5 Z"/></g>
<g><path style="opacity:0.004" fill="#fefffe" d="M 397.5,49.5 C 398.833,50.1667 398.833,50.1667 397.5,49.5 Z"/></g>
<g><path style="opacity:1" fill="#2f6b26" d="M 123.5,49.5 C 122.415,51.5869 120.749,52.9202 118.5,53.5C 119.585,51.4131 121.251,50.0798 123.5,49.5 Z"/></g>
<g><path style="opacity:1" fill="#86e043" d="M 305.5,36.5 C 312.197,39.1849 318.863,41.8516 325.5,44.5C 326.514,45.6737 327.847,46.3404 329.5,46.5C 332.989,49.08 336.656,51.4133 340.5,53.5C 340.833,54.1667 341.167,54.8333 341.5,55.5C 338.53,54.9601 336.03,53.6267 334,51.5C 330.753,52.6441 330.919,53.6441 334.5,54.5C 332.604,55.4656 330.604,55.7989 328.5,55.5C 328.703,53.3618 329.703,51.6951 331.5,50.5C 331.291,49.914 330.957,49.414 330.5,49C 321.955,44.9752 313.622,40.8086 305.5,36.5 Z"/></g>
<g><path style="opacity:1" fill="#1c561d" d="M 340.5,53.5 C 342.027,53.427 343.027,54.0937 343.5,55.5C 342.833,55.5 342.167,55.5 341.5,55.5C 341.167,54.8333 340.833,54.1667 340.5,53.5 Z"/></g>
<g><path style="opacity:1" fill="#184b25" d="M 116.5,54.5 C 115.41,55.8571 114.076,56.8571 112.5,57.5C 110.589,58.075 108.922,59.075 107.5,60.5C 109.211,56.7958 112.211,54.7958 116.5,54.5 Z"/></g>
<g><path style="opacity:1" fill="#1c472b" d="M 343.5,55.5 C 346.167,55.8333 348.833,56.1667 351.5,56.5C 351.22,59.3882 352.553,60.8882 355.5,61C 357.054,63.2869 358.721,65.4535 360.5,67.5C 354.828,63.4928 349.161,59.4928 343.5,55.5 Z"/></g>
<g><path style="opacity:1" fill="#1e4e2e" d="M 107.5,60.5 C 105.704,62.9 103.37,64.5667 100.5,65.5C 100.5,64.5 100.5,63.5 100.5,62.5C 103.108,62.5997 105.442,61.9331 107.5,60.5 Z"/></g>
<g><path style="opacity:1" fill="#84de3e" d="M 112.5,57.5 C 111.375,59.1288 110.041,60.6288 108.5,62C 110.563,63.5716 111.229,65.405 110.5,67.5C 107.822,66.4984 105.489,67.165 103.5,69.5C 101.902,68.5153 100.235,68.3486 98.5,69C 96.5588,71.4536 94.2254,73.287 91.5,74.5C 93.8605,71.4728 96.5271,68.8062 99.5,66.5C 100.167,66.5 100.5,66.1667 100.5,65.5C 103.37,64.5667 105.704,62.9 107.5,60.5C 108.922,59.075 110.589,58.075 112.5,57.5 Z"/></g>
<g><path style="opacity:1" fill="#163e37" d="M 99.5,66.5 C 96.5271,68.8062 93.8605,71.4728 91.5,74.5C 89.5956,74.7376 88.2623,75.7376 87.5,77.5C 85.9699,78.2112 84.6366,79.2112 83.5,80.5C 83.6399,78.8762 82.9733,77.7096 81.5,77C 85.0014,75.2992 88.3347,73.4658 91.5,71.5C 91.5,70.5 91.5,69.5 91.5,68.5C 94.0248,67.36 96.6915,66.6933 99.5,66.5 Z"/></g>
<g><path style="opacity:1" fill="#1d5127" d="M 363.5,69.5 C 367.833,71.8333 371.167,75.1667 373.5,79.5C 372.5,78.8333 371.5,78.1667 370.5,77.5C 368.167,74.8333 365.833,72.1667 363.5,69.5 Z"/></g>
<g><path style="opacity:1" fill="#1a4137" d="M 374.5,79.5 C 376.906,81.1042 379.406,82.7709 382,84.5C 387.867,80.3667 388.7,81.2 384.5,87C 384.792,90.1206 386.459,91.6206 389.5,91.5C 389.878,93.921 390.545,96.2543 391.5,98.5C 385.491,92.4903 379.825,86.1569 374.5,79.5 Z"/></g>
<g><path style="opacity:1" fill="#70b94c" d="M 87.5,77.5 C 83.9016,82.7682 79.5683,87.4348 74.5,91.5C 76.0908,88.5691 78.0908,85.9024 80.5,83.5C 81.1667,82.1667 82.1667,81.1667 83.5,80.5C 84.6366,79.2112 85.9699,78.2112 87.5,77.5 Z"/></g>
<g><path style="opacity:1" fill="#174033" d="M 80.5,83.5 C 78.0908,85.9024 76.0908,88.5691 74.5,91.5C 71.4728,93.8605 68.8062,96.5271 66.5,99.5C 67.1667,96.8333 67.8333,94.1667 68.5,91.5C 69.5,91.5 70.5,91.5 71.5,91.5C 71.5,90.5 71.5,89.5 71.5,88.5C 72.5,88.5 73.5,88.5 74.5,88.5C 74.3601,86.8762 75.0267,85.7096 76.5,85C 75.5494,84.2825 75.3828,83.4491 76,82.5C 77.3561,83.3802 78.8561,83.7135 80.5,83.5 Z"/></g>
<g><path style="opacity:1" fill="#85da45" d="M 370.5,77.5 C 371.5,78.1667 372.5,78.8333 373.5,79.5C 373.833,79.5 374.167,79.5 374.5,79.5C 379.825,86.1569 385.491,92.4903 391.5,98.5C 392.512,99.8717 393.512,101.205 394.5,102.5C 395.11,103.391 395.443,104.391 395.5,105.5C 394.5,105.5 393.5,105.5 392.5,105.5C 392.762,104.022 392.429,102.689 391.5,101.5C 390.284,100.998 389.117,100.665 388,100.5C 387.667,98.8333 387.333,97.1667 387,95.5C 383.597,92.4194 380.43,89.2527 377.5,86C 375.687,86.0464 374.021,85.8797 372.5,85.5C 372.709,84.914 373.043,84.414 373.5,84C 372.588,81.7492 371.588,79.5825 370.5,77.5 Z"/></g>
<g><path style="opacity:1" fill="#194c24" d="M 394.5,102.5 C 396.531,103.539 397.864,105.205 398.5,107.5C 397.5,106.833 396.5,106.167 395.5,105.5C 395.443,104.391 395.11,103.391 394.5,102.5 Z"/></g>
<g><path style="opacity:0.004" fill="#fefffe" d="M 453.5,108.5 C 454.833,109.167 454.833,109.167 453.5,108.5 Z"/></g>
<g><path style="opacity:1" fill="#88de4b" d="M 168.5,111.5 C 161.646,111.176 154.979,111.509 148.5,112.5C 144.709,112.659 141.042,113.325 137.5,114.5C 138.678,113.001 140.345,112.001 142.5,111.5C 151.325,110.179 159.991,110.179 168.5,111.5 Z"/></g>
<g><path style="opacity:1" fill="#7ac94a" d="M 323.5,115.5 C 321.901,115.768 320.568,115.434 319.5,114.5C 311.061,112.806 302.395,112.139 293.5,112.5C 302.384,109.935 311.384,110.102 320.5,113C 321.571,113.852 322.571,114.685 323.5,115.5 Z"/></g>
<g><path style="opacity:1" fill="#144425" d="M 148.5,112.5 C 155.167,112.5 161.833,112.5 168.5,112.5C 168.5,120.5 168.5,128.5 168.5,136.5C 163.349,137.327 158.016,137.827 152.5,138C 149.353,138.649 147.353,140.482 146.5,143.5C 145.833,145.5 145.167,147.5 144.5,149.5C 143.069,143.56 145.069,139.393 150.5,137C 155.5,136.667 160.5,136.333 165.5,136C 166,135.5 166.5,135 167,134.5C 167.667,127.833 167.667,121.167 167,114.5C 157.152,113.167 147.319,113.5 137.5,115.5C 137.5,115.167 137.5,114.833 137.5,114.5C 141.042,113.325 144.709,112.659 148.5,112.5 Z"/></g>
<g><path style="opacity:0.004" fill="#fefffe" d="M 24.5,114.5 C 25.8333,115.167 25.8333,115.167 24.5,114.5 Z"/></g>
<g><path style="opacity:1" fill="#1a4335" d="M 66.5,99.5 C 60.4688,107.315 54.8022,115.315 49.5,123.5C 51.1893,117.174 54.6893,111.507 60,106.5C 60.1824,103.178 61.0158,100.844 62.5,99.5C 63.8333,99.5 65.1667,99.5 66.5,99.5 Z"/></g>
<g><path style="opacity:1" fill="#1a4928" d="M 398.5,107.5 C 400.17,107.751 401.67,108.418 403,109.5C 403.683,113.856 405.183,117.856 407.5,121.5C 405.833,119.5 404.167,117.5 402.5,115.5C 401.692,112.55 400.358,109.883 398.5,107.5 Z"/></g>
<g><path style="opacity:1" fill="#7ed345" d="M 327.5,118.5 C 330.058,120.254 332.725,120.921 335.5,120.5C 334.429,122.325 335.096,123.492 337.5,124C 337.043,124.414 336.709,124.914 336.5,125.5C 338.264,128.215 339.264,131.215 339.5,134.5C 338.203,132.629 337.203,130.629 336.5,128.5C 336.5,127.833 336.167,127.5 335.5,127.5C 334.928,125.745 334.094,124.078 333,122.5C 330.537,121.968 328.703,120.634 327.5,118.5 Z"/></g>
<g><path style="opacity:1" fill="#173647" d="M 144.5,149.5 C 144.5,149.833 144.5,150.167 144.5,150.5C 143.732,151.263 143.232,152.263 143,153.5C 142.667,165.167 142.333,176.833 142,188.5C 140.766,195.223 139.599,201.889 138.5,208.5C 135.234,210.456 133.568,213.456 133.5,217.5C 133.672,218.492 133.338,219.158 132.5,219.5C 130.379,221.734 127.712,223.234 124.5,224C 123.663,225.011 123.33,226.178 123.5,227.5C 122.628,230.676 123.961,232.676 127.5,233.5C 128.976,235.5 130.809,237.167 133,238.5C 134.136,240.743 134.97,243.076 135.5,245.5C 137.516,251.903 139.683,258.237 142,264.5C 142.197,272.383 143.031,280.05 144.5,287.5C 145.493,296.318 145.827,305.318 145.5,314.5C 144.887,317.969 146.221,319.969 149.5,320.5C 150.263,321.268 151.263,321.768 152.5,322C 157.489,322.499 162.489,322.666 167.5,322.5C 167.666,329.841 167.5,337.174 167,344.5C 159.921,345.48 152.755,345.813 145.5,345.5C 141.838,345.277 138.505,344.277 135.5,342.5C 131.03,338.498 126.697,334.498 122.5,330.5C 122.277,326.838 121.277,323.505 119.5,320.5C 119.5,320.167 119.5,319.833 119.5,319.5C 118.396,303.357 117.396,287.357 116.5,271.5C 116.666,267.486 116.499,263.486 116,259.5C 115.292,258.619 114.458,257.953 113.5,257.5C 113.443,256.391 113.11,255.391 112.5,254.5C 111.946,250.945 109.946,248.612 106.5,247.5C 104.97,244.979 102.636,243.979 99.5,244.5C 96.8774,242.735 93.8774,242.068 90.5,242.5C 90.5,233.833 90.5,225.167 90.5,216.5C 92.8568,216.663 95.1902,216.497 97.5,216C 98.056,215.617 98.3893,215.117 98.5,214.5C 98.8333,214.5 99.1667,214.5 99.5,214.5C 101.124,214.36 102.29,215.027 103,216.5C 104.706,215.692 105.539,214.359 105.5,212.5C 107.973,212.912 109.306,211.912 109.5,209.5C 111.532,208.439 112.866,206.772 113.5,204.5C 114.97,199.27 115.637,193.937 115.5,188.5C 115.5,188.167 115.5,187.833 115.5,187.5C 116.832,183.736 117.665,179.736 118,175.5C 118.5,166.84 118.666,158.173 118.5,149.5C 119.989,143.596 120.989,137.596 121.5,131.5C 121.402,129.447 122.069,127.78 123.5,126.5C 125.833,124.833 127.833,122.833 129.5,120.5C 131.484,117.836 134.151,116.169 137.5,115.5C 147.319,113.5 157.152,113.167 167,114.5C 167.667,121.167 167.667,127.833 167,134.5C 166.5,135 166,135.5 165.5,136C 160.5,136.333 155.5,136.667 150.5,137C 145.069,139.393 143.069,143.56 144.5,149.5 Z"/></g>
<g><path style="opacity:1" fill="#83d843" d="M 402.5,115.5 C 404.167,117.5 405.833,119.5 407.5,121.5C 408.836,123.508 410.17,125.508 411.5,127.5C 413.99,133 416.656,138.333 419.5,143.5C 419.704,145.685 420.37,147.685 421.5,149.5C 420.542,149.047 419.708,148.381 419,147.5C 416.536,142.602 414.37,137.602 412.5,132.5C 410.856,132.286 409.356,132.62 408,133.5C 407.607,131.801 408.107,130.301 409.5,129C 407.854,126.205 405.854,123.705 403.5,121.5C 402.534,119.604 402.201,117.604 402.5,115.5 Z"/></g>
<g><path style="opacity:1" fill="#5a9a49" d="M 148.5,112.5 C 154.979,111.509 161.646,111.176 168.5,111.5C 169.493,119.65 169.826,127.983 169.5,136.5C 169.167,136.5 168.833,136.5 168.5,136.5C 168.5,128.5 168.5,120.5 168.5,112.5C 161.833,112.5 155.167,112.5 148.5,112.5 Z"/></g>
<g><path style="opacity:1" fill="#1e4e2c" d="M 407.5,121.5 C 410.32,122.465 411.653,124.465 411.5,127.5C 410.17,125.508 408.836,123.508 407.5,121.5 Z"/></g>
<g><path style="opacity:1" fill="#1c5024" d="M 293.5,112.5 C 302.395,112.139 311.061,112.806 319.5,114.5C 309.812,113.399 300.145,113.399 290.5,114.5C 290.5,121.833 290.5,129.167 290.5,136.5C 295.032,136.182 299.366,136.515 303.5,137.5C 302.833,137.5 302.167,137.5 301.5,137.5C 297.5,137.5 293.5,137.5 289.5,137.5C 289.5,129.167 289.5,120.833 289.5,112.5C 290.833,112.5 292.167,112.5 293.5,112.5 Z"/></g>
<g><path style="opacity:1" fill="#235b23" d="M 129.5,120.5 C 127.833,122.833 125.833,124.833 123.5,126.5C 124.5,123.5 126.5,121.5 129.5,120.5 Z"/></g>
<g><path style="opacity:1" fill="#173647" d="M 319.5,114.5 C 320.568,115.434 321.901,115.768 323.5,115.5C 323.833,116.167 324.167,116.833 324.5,117.5C 325.848,120.509 328.181,122.176 331.5,122.5C 331.774,124.981 333.107,126.647 335.5,127.5C 336.167,127.5 336.5,127.833 336.5,128.5C 336.744,133.067 337.91,137.401 340,141.5C 340.333,154.833 340.667,168.167 341,181.5C 341.383,182.056 341.883,182.389 342.5,182.5C 342.5,182.833 342.5,183.167 342.5,183.5C 342.334,187.846 342.501,192.179 343,196.5C 343.383,197.056 343.883,197.389 344.5,197.5C 345.434,198.568 345.768,199.901 345.5,201.5C 345.655,204.868 346.988,207.535 349.5,209.5C 350.167,209.833 350.833,210.167 351.5,210.5C 353.03,212.346 355.03,213.346 357.5,213.5C 357.5,214.167 357.833,214.5 358.5,214.5C 361.337,216.402 364.671,217.069 368.5,216.5C 368.826,225.349 368.493,234.016 367.5,242.5C 362.481,242.752 357.481,243.252 352.5,244C 352.957,244.414 353.291,244.914 353.5,245.5C 350.88,246.76 349.213,248.76 348.5,251.5C 347.662,251.842 347.328,252.508 347.5,253.5C 346.094,253.973 345.427,254.973 345.5,256.5C 345.5,256.833 345.5,257.167 345.5,257.5C 344.85,257.804 344.183,258.137 343.5,258.5C 342.502,268.144 342.168,277.81 342.5,287.5C 341.698,288.952 341.198,290.618 341,292.5C 340.5,298.825 340.334,305.158 340.5,311.5C 340.5,311.833 340.5,312.167 340.5,312.5C 338.783,315.845 338.116,319.511 338.5,323.5C 337.26,326.024 336.093,328.691 335,331.5C 333.989,332.337 332.822,332.67 331.5,332.5C 331.5,334.167 331.5,335.833 331.5,337.5C 329.813,339.166 327.813,340.5 325.5,341.5C 314.474,345.076 303.14,346.409 291.5,345.5C 291.334,338.159 291.5,330.826 292,323.5C 298.597,323.041 305.097,321.874 311.5,320C 312.701,319.097 313.535,317.931 314,316.5C 316.102,298.239 317.269,279.906 317.5,261.5C 317.5,261.167 317.5,260.833 317.5,260.5C 318.494,257.876 319.494,255.21 320.5,252.5C 322.045,251.77 322.878,250.437 323,248.5C 323.414,248.957 323.914,249.291 324.5,249.5C 325.659,245.865 326.659,242.198 327.5,238.5C 330.109,237.557 332.109,235.89 333.5,233.5C 340.167,230.833 340.167,228.167 333.5,225.5C 332.972,224.279 332.305,223.113 331.5,222C 331.833,221.667 332.167,221.333 332.5,221C 330.447,219.92 328.28,219.086 326,218.5C 324.882,214.581 323.048,211.248 320.5,208.5C 321.055,204.988 320.388,201.988 318.5,199.5C 318.5,198.833 318.5,198.167 318.5,197.5C 318.666,192.821 318.499,188.155 318,183.5C 317.053,176.669 315.886,170.003 314.5,163.5C 314.5,162.167 314.5,160.833 314.5,159.5C 315.12,153.074 314.453,147.074 312.5,141.5C 311.5,140.833 310.5,140.167 309.5,139.5C 309.167,139.5 308.833,139.5 308.5,139.5C 307.22,138.069 305.553,137.402 303.5,137.5C 299.366,136.515 295.032,136.182 290.5,136.5C 290.5,129.167 290.5,121.833 290.5,114.5C 300.145,113.399 309.812,113.399 319.5,114.5 Z"/></g>
<g><path style="opacity:1" fill="#16422b" d="M 324.5,117.5 C 325.391,118.11 326.391,118.443 327.5,118.5C 328.703,120.634 330.537,121.968 333,122.5C 334.094,124.078 334.928,125.745 335.5,127.5C 333.107,126.647 331.774,124.981 331.5,122.5C 328.181,122.176 325.848,120.509 324.5,117.5 Z"/></g>
<g><path style="opacity:1" fill="#1a452e" d="M 49.5,123.5 C 48.1667,126.5 46.8333,129.5 45.5,132.5C 44.2171,136.481 42.2171,140.148 39.5,143.5C 41.395,137.89 43.395,132.223 45.5,126.5C 46.5695,125.09 47.9028,124.09 49.5,123.5 Z"/></g>
<g><path style="opacity:1" fill="#193e38" d="M 411.5,127.5 C 412.807,128.153 414.14,128.82 415.5,129.5C 416.88,134.208 418.213,138.875 419.5,143.5C 416.656,138.333 413.99,133 411.5,127.5 Z"/></g>
<g><path style="opacity:1" fill="#85d353" d="M 168.5,136.5 C 168.833,136.5 169.167,136.5 169.5,136.5C 164.593,138.289 159.26,139.122 153.5,139C 150.855,140.044 148.522,141.544 146.5,143.5C 147.353,140.482 149.353,138.649 152.5,138C 158.016,137.827 163.349,137.327 168.5,136.5 Z"/></g>
<g><path style="opacity:1" fill="#6eb252" d="M 301.5,137.5 C 302.167,137.5 302.833,137.5 303.5,137.5C 305.553,137.402 307.22,138.069 308.5,139.5C 305.848,139.59 303.515,138.924 301.5,137.5 Z"/></g>
<g><path style="opacity:1" fill="#184928" d="M 312.5,141.5 C 314.453,147.074 315.12,153.074 314.5,159.5C 313.752,153.634 313.086,147.634 312.5,141.5 Z"/></g>
<g><path style="opacity:1" fill="#1f5323" d="M 121.5,131.5 C 120.989,137.596 119.989,143.596 118.5,149.5C 118.167,149.5 117.833,149.5 117.5,149.5C 118.114,145.865 118.448,142.198 118.5,138.5C 119.349,136.112 120.349,133.779 121.5,131.5 Z"/></g>
<g><path style="opacity:1" fill="#82d445" d="M 45.5,132.5 C 43.8242,137.719 42.3242,143.052 41,148.5C 39.4115,150.59 37.5782,152.257 35.5,153.5C 35.5,153.167 35.5,152.833 35.5,152.5C 35.5,152.167 35.5,151.833 35.5,151.5C 37.017,148.965 38.3503,146.298 39.5,143.5C 42.2171,140.148 44.2171,136.481 45.5,132.5 Z"/></g>
<g><path style="opacity:1" fill="#17412f" d="M 419.5,143.5 C 421.522,144.507 422.855,146.174 423.5,148.5C 424.919,152.086 425.919,155.753 426.5,159.5C 425.143,158.41 424.143,157.076 423.5,155.5C 423.396,153.297 422.73,151.297 421.5,149.5C 420.37,147.685 419.704,145.685 419.5,143.5 Z"/></g>
<g><path style="opacity:1" fill="#164626" d="M 39.5,143.5 C 38.3503,146.298 37.017,148.965 35.5,151.5C 35.3605,147.966 36.6939,145.299 39.5,143.5 Z"/></g>
<g><path style="opacity:1" fill="#184827" d="M 35.5,152.5 C 35.5,152.833 35.5,153.167 35.5,153.5C 35.5,153.833 35.5,154.167 35.5,154.5C 34.6873,156.261 33.6873,157.928 32.5,159.5C 32.1663,156.509 33.1663,154.176 35.5,152.5 Z"/></g>
<g><path style="opacity:1" fill="#1d4c28" d="M 336.5,128.5 C 337.203,130.629 338.203,132.629 339.5,134.5C 341.218,142.385 342.218,150.385 342.5,158.5C 342.5,166.5 342.5,174.5 342.5,182.5C 341.883,182.389 341.383,182.056 341,181.5C 340.667,168.167 340.333,154.833 340,141.5C 337.91,137.401 336.744,133.067 336.5,128.5 Z"/></g>
<g><path style="opacity:1" fill="#114324" d="M 426.5,159.5 C 428.28,160.99 428.946,162.99 428.5,165.5C 427.262,163.786 426.595,161.786 426.5,159.5 Z"/></g>
<g><path style="opacity:1" fill="#82d34a" d="M 309.5,139.5 C 310.5,140.167 311.5,140.833 312.5,141.5C 313.086,147.634 313.752,153.634 314.5,159.5C 314.5,160.833 314.5,162.167 314.5,163.5C 314.974,175.075 316.308,186.408 318.5,197.5C 318.5,198.167 318.5,198.833 318.5,199.5C 319.219,201.764 319.552,204.097 319.5,206.5C 318.883,206.389 318.383,206.056 318,205.5C 317.483,202.08 316.65,198.747 315.5,195.5C 313.476,178.565 312.143,161.565 311.5,144.5C 309.783,143.332 309.116,141.665 309.5,139.5 Z"/></g>
<g><path style="opacity:1" fill="#89db4b" d="M 118.5,138.5 C 118.448,142.198 118.114,145.865 117.5,149.5C 116.264,162.132 115.598,174.799 115.5,187.5C 115.5,187.833 115.5,188.167 115.5,188.5C 114.892,193.689 113.559,198.689 111.5,203.5C 113.612,182.525 115.446,161.525 117,140.5C 117.278,139.584 117.778,138.918 118.5,138.5 Z"/></g>
<g><path style="opacity:1" fill="#81d14c" d="M 35.5,154.5 C 32.714,165.125 29.8807,175.791 27,186.5C 26.6667,190.167 26.3333,193.833 26,197.5C 25.3278,201.221 24.1611,204.555 22.5,207.5C 22.5,205.167 22.5,202.833 22.5,200.5C 22.5,200.167 22.5,199.833 22.5,199.5C 23.8066,194.684 24.8066,189.684 25.5,184.5C 28.7856,176.617 31.1189,168.283 32.5,159.5C 33.6873,157.928 34.6873,156.261 35.5,154.5 Z"/></g>
<g><path style="opacity:1" fill="#81cf4e" d="M 423.5,155.5 C 424.143,157.076 425.143,158.41 426.5,159.5C 426.595,161.786 427.262,163.786 428.5,165.5C 428.5,166.833 428.5,168.167 428.5,169.5C 429.461,172.426 430.127,175.426 430.5,178.5C 428.871,176.142 427.705,173.476 427,170.5C 426.522,165.255 425.355,160.255 423.5,155.5 Z"/></g>
<g><path style="opacity:1" fill="#19452f" d="M 32.5,159.5 C 31.1189,168.283 28.7856,176.617 25.5,184.5C 25.6287,182.784 25.962,181.117 26.5,179.5C 27.3757,174.226 28.3757,168.893 29.5,163.5C 30.0568,161.668 31.0568,160.335 32.5,159.5 Z"/></g>
<g><path style="opacity:1" fill="#19452d" d="M 428.5,169.5 C 429.828,170.507 430.828,171.84 431.5,173.5C 432.384,177.473 433.051,181.473 433.5,185.5C 432.131,183.309 431.131,180.975 430.5,178.5C 430.127,175.426 429.461,172.426 428.5,169.5 Z"/></g>
<g><path style="opacity:1" fill="#84d651" d="M 342.5,158.5 C 343.783,169.311 344.45,180.311 344.5,191.5C 343.833,188.833 343.167,186.167 342.5,183.5C 342.5,183.167 342.5,182.833 342.5,182.5C 342.5,174.5 342.5,166.5 342.5,158.5 Z"/></g>
<g><path style="opacity:1" fill="#153c39" d="M 26.5,179.5 C 25.962,181.117 25.6287,182.784 25.5,184.5C 24.8066,189.684 23.8066,194.684 22.5,199.5C 22.7662,195.429 22.4328,191.429 21.5,187.5C 22.325,186.614 23.325,186.281 24.5,186.5C 23.9898,183.612 24.6565,181.279 26.5,179.5 Z"/></g>
<g><path style="opacity:1" fill="#24582b" d="M 117.5,149.5 C 117.833,149.5 118.167,149.5 118.5,149.5C 118.666,158.173 118.5,166.84 118,175.5C 117.665,179.736 116.832,183.736 115.5,187.5C 115.598,174.799 116.264,162.132 117.5,149.5 Z"/></g>
<g><path style="opacity:1" fill="#164428" d="M 314.5,163.5 C 315.886,170.003 317.053,176.669 318,183.5C 318.499,188.155 318.666,192.821 318.5,197.5C 316.308,186.408 314.974,175.075 314.5,163.5 Z"/></g>
<g><path style="opacity:1" fill="#164828" d="M 342.5,183.5 C 343.167,186.167 343.833,188.833 344.5,191.5C 344.5,193.5 344.5,195.5 344.5,197.5C 343.883,197.389 343.383,197.056 343,196.5C 342.501,192.179 342.334,187.846 342.5,183.5 Z"/></g>
<g><path style="opacity:1" fill="#18432a" d="M 144.5,150.5 C 145.052,167.281 144.052,183.948 141.5,200.5C 140.795,203.354 139.795,206.021 138.5,208.5C 139.599,201.889 140.766,195.223 142,188.5C 142.333,176.833 142.667,165.167 143,153.5C 143.232,152.263 143.732,151.263 144.5,150.5 Z"/></g>
<g><path style="opacity:1" fill="#84d746" d="M 344.5,191.5 C 345.497,191.47 346.164,191.97 346.5,193C 347.318,199.109 348.984,204.942 351.5,210.5C 350.833,210.167 350.167,209.833 349.5,209.5C 348.459,206.609 347.126,203.942 345.5,201.5C 345.768,199.901 345.434,198.568 344.5,197.5C 344.5,195.5 344.5,193.5 344.5,191.5 Z"/></g>
<g><path style="opacity:1" fill="#84d74d" d="M 146.5,143.5 C 146.831,161.89 145.997,180.223 144,198.5C 143.292,199.381 142.458,200.047 141.5,200.5C 144.052,183.948 145.052,167.281 144.5,150.5C 144.5,150.167 144.5,149.833 144.5,149.5C 145.167,147.5 145.833,145.5 146.5,143.5 Z"/></g>
<g><path style="opacity:1" fill="#19482a" d="M 115.5,188.5 C 115.637,193.937 114.97,199.27 113.5,204.5C 112.866,206.772 111.532,208.439 109.5,209.5C 110.63,207.685 111.296,205.685 111.5,203.5C 113.559,198.689 114.892,193.689 115.5,188.5 Z"/></g>
<g><path style="opacity:1" fill="#16422a" d="M 318.5,199.5 C 320.388,201.988 321.055,204.988 320.5,208.5C 319.662,208.158 319.328,207.492 319.5,206.5C 319.552,204.097 319.219,201.764 318.5,199.5 Z"/></g>
<g><path style="opacity:1" fill="#1f5129" d="M 345.5,201.5 C 347.126,203.942 348.459,206.609 349.5,209.5C 346.988,207.535 345.655,204.868 345.5,201.5 Z"/></g>
<g><path style="opacity:1" fill="#84dd3f" d="M 430.5,178.5 C 431.131,180.975 432.131,183.309 433.5,185.5C 434.058,190.516 434.725,195.516 435.5,200.5C 435.5,201.833 435.5,203.167 435.5,204.5C 435.5,207.5 435.5,210.5 435.5,213.5C 434.571,210.325 433.738,206.991 433,203.5C 432.411,195.126 431.578,186.792 430.5,178.5 Z"/></g>
<g><path style="opacity:1" fill="#7ed73c" d="M 241.5,218.5 C 239.772,216.774 237.772,215.441 235.5,214.5C 235.167,214.5 234.833,214.5 234.5,214.5C 230.299,213.264 225.965,213.264 221.5,214.5C 225.804,210.466 230.971,209.466 237,211.5C 238.365,211.156 239.532,210.489 240.5,209.5C 241.696,209.846 241.696,210.346 240.5,211C 241.5,211.333 242.5,211.667 243.5,212C 240.331,213.342 239.665,215.508 241.5,218.5 Z"/></g>
<g><path style="opacity:1" fill="#18442e" d="M 138.5,208.5 C 137.59,211.992 135.924,214.992 133.5,217.5C 133.568,213.456 135.234,210.456 138.5,208.5 Z"/></g>
<g><path style="opacity:1" fill="#77c846" d="M 170.5,213.5 C 173.64,212.359 176.973,212.192 180.5,213C 181.381,213.708 182.047,214.542 182.5,215.5C 178.658,213.998 174.658,213.332 170.5,213.5 Z"/></g>
<g><path style="opacity:1" fill="#2a681f" d="M 99.5,213.5 C 99.5,213.833 99.5,214.167 99.5,214.5C 99.1667,214.5 98.8333,214.5 98.5,214.5C 96.2362,215.219 93.9029,215.552 91.5,215.5C 93.9052,214.232 96.5718,213.565 99.5,213.5 Z"/></g>
<g><path style="opacity:1" fill="#184033" d="M 109.5,209.5 C 109.306,211.912 107.973,212.912 105.5,212.5C 105.539,214.359 104.706,215.692 103,216.5C 102.29,215.027 101.124,214.36 99.5,214.5C 99.5,214.167 99.5,213.833 99.5,213.5C 103.006,212.752 106.34,211.419 109.5,209.5 Z"/></g>
<g><path style="opacity:1" fill="#173d35" d="M 234.5,214.5 C 229.581,215.361 224.581,216.361 219.5,217.5C 220.167,216.5 220.833,215.5 221.5,214.5C 225.965,213.264 230.299,213.264 234.5,214.5 Z"/></g>
<g><path style="opacity:1" fill="#164826" d="M 289.5,214.5 C 291.5,214.833 293.5,215.167 295.5,215.5C 297.252,217.246 298.585,219.246 299.5,221.5C 296.646,218.286 293.313,215.952 289.5,214.5 Z"/></g>
<g><path style="opacity:1" fill="#183d36" d="M 170.5,213.5 C 174.658,213.332 178.658,213.998 182.5,215.5C 184.252,217.246 185.585,219.246 186.5,221.5C 185.038,220.542 183.705,219.376 182.5,218C 179.547,217.108 176.881,217.608 174.5,219.5C 174.167,219.167 173.833,218.833 173.5,218.5C 174.263,217.281 175.263,216.281 176.5,215.5C 175.833,215.167 175.167,214.833 174.5,214.5C 171.245,215.641 167.911,216.474 164.5,217C 163.289,218.113 163.289,219.28 164.5,220.5C 163.349,221.731 162.183,221.731 161,220.5C 160.768,221.737 160.268,222.737 159.5,223.5C 159.343,222.127 159.51,220.793 160,219.5C 161.707,217.963 163.207,216.296 164.5,214.5C 166.435,213.85 168.435,213.517 170.5,213.5 Z"/></g>
<g><path style="opacity:1" fill="#173647" d="M 234.5,214.5 C 234.833,214.5 235.167,214.5 235.5,214.5C 235.539,215.583 235.873,216.583 236.5,217.5C 239.124,218.795 241.457,220.462 243.5,222.5C 244.167,222.5 244.5,222.833 244.5,223.5C 244.906,228.74 244.24,233.74 242.5,238.5C 242.5,239.167 242.167,239.5 241.5,239.5C 240.5,239.5 239.5,239.5 238.5,239.5C 238.473,241.199 237.806,242.533 236.5,243.5C 235.833,243.833 235.167,244.167 234.5,244.5C 230.5,244.167 226.5,243.833 222.5,243.5C 218.242,242.025 215.575,239.025 214.5,234.5C 214.537,228.286 216.204,222.619 219.5,217.5C 224.581,216.361 229.581,215.361 234.5,214.5 Z"/></g>
<g><path style="opacity:1" fill="#77c842" d="M 295.5,215.5 C 297.117,216.038 298.784,216.371 300.5,216.5C 302.653,222.791 302.987,229.124 301.5,235.5C 301.817,231.298 301.483,227.298 300.5,223.5C 300.167,222.833 299.833,222.167 299.5,221.5C 298.585,219.246 297.252,217.246 295.5,215.5 Z"/></g>
<g><path style="opacity:1" fill="#13402b" d="M 235.5,214.5 C 237.772,215.441 239.772,216.774 241.5,218.5C 242.6,219.605 243.267,220.938 243.5,222.5C 241.457,220.462 239.124,218.795 236.5,217.5C 235.873,216.583 235.539,215.583 235.5,214.5 Z"/></g>
<g><path style="opacity:1" fill="#18482d" d="M 289.5,214.5 C 282.686,214.417 277.019,216.751 272.5,221.5C 276.001,213.917 281.667,211.583 289.5,214.5 Z"/></g>
<g><path style="opacity:1" fill="#1b4531" d="M 320.5,208.5 C 323.048,211.248 324.882,214.581 326,218.5C 328.28,219.086 330.447,219.92 332.5,221C 332.167,221.333 331.833,221.667 331.5,222C 332.305,223.113 332.972,224.279 333.5,225.5C 330.112,224.381 327.279,222.381 325,219.5C 323.485,215.808 321.985,212.141 320.5,208.5 Z"/></g>
<g><path style="opacity:1" fill="#173646" d="M 186.5,221.5 C 186.717,224.435 187.383,227.269 188.5,230C 186.935,234.283 185.268,238.45 183.5,242.5C 183.5,242.833 183.5,243.167 183.5,243.5C 182.833,243.5 182.167,243.5 181.5,243.5C 176.189,244.704 170.856,244.704 165.5,243.5C 164.415,241.413 162.749,240.08 160.5,239.5C 157.133,234.186 156.8,228.853 159.5,223.5C 160.268,222.737 160.768,221.737 161,220.5C 162.183,221.731 163.349,221.731 164.5,220.5C 163.289,219.28 163.289,218.113 164.5,217C 167.911,216.474 171.245,215.641 174.5,214.5C 175.167,214.833 175.833,215.167 176.5,215.5C 175.263,216.281 174.263,217.281 173.5,218.5C 173.833,218.833 174.167,219.167 174.5,219.5C 176.881,217.608 179.547,217.108 182.5,218C 183.705,219.376 185.038,220.542 186.5,221.5 Z"/></g>
<g><path style="opacity:1" fill="#1d4832" d="M 22.5,200.5 C 22.5,202.833 22.5,205.167 22.5,207.5C 21.5045,220.323 21.1712,233.323 21.5,246.5C 20.0201,240.231 19.3534,233.731 19.5,227C 19.6542,218.812 20.1542,210.645 21,202.5C 21.2784,201.584 21.7784,200.918 22.5,200.5 Z"/></g>
<g><path style="opacity:1" fill="#87d84f" d="M 22.5,207.5 C 22.1155,225.568 22.7822,243.568 24.5,261.5C 24.1667,261.5 23.8333,261.5 23.5,261.5C 23.2385,256.405 22.5718,251.405 21.5,246.5C 21.1712,233.323 21.5045,220.323 22.5,207.5 Z"/></g>
<g><path style="opacity:1" fill="#134424" d="M 98.5,214.5 C 98.3893,215.117 98.056,215.617 97.5,216C 95.1902,216.497 92.8568,216.663 90.5,216.5C 90.5,225.167 90.5,233.833 90.5,242.5C 93.8774,242.068 96.8774,242.735 99.5,244.5C 96.1933,243.949 92.8599,243.616 89.5,243.5C 88.8611,233.773 89.5278,224.44 91.5,215.5C 93.9029,215.552 96.2362,215.219 98.5,214.5 Z"/></g>
<g><path style="opacity:1" fill="#1e4931" d="M 132.5,219.5 C 131.527,222.135 129.86,224.135 127.5,225.5C 125.938,225.733 124.605,226.4 123.5,227.5C 123.33,226.178 123.663,225.011 124.5,224C 127.712,223.234 130.379,221.734 132.5,219.5 Z"/></g>
<g><path style="opacity:1" fill="#164820" d="M 358.5,214.5 C 361.909,214.249 365.242,214.583 368.5,215.5C 369.498,224.81 369.832,234.143 369.5,243.5C 368.833,243.5 368.167,243.5 367.5,243.5C 367.5,243.167 367.5,242.833 367.5,242.5C 368.493,234.016 368.826,225.349 368.5,216.5C 364.671,217.069 361.337,216.402 358.5,214.5 Z"/></g>
<g><path style="opacity:1" fill="#89d953" d="M 357.5,213.5 C 361.767,213.203 365.934,213.536 370,214.5C 370.825,224.342 370.658,234.009 369.5,243.5C 369.832,234.143 369.498,224.81 368.5,215.5C 365.242,214.583 361.909,214.249 358.5,214.5C 357.833,214.5 357.5,214.167 357.5,213.5 Z"/></g>
<g><path style="opacity:1" fill="#80d443" d="M 164.5,214.5 C 163.207,216.296 161.707,217.963 160,219.5C 159.51,220.793 159.343,222.127 159.5,223.5C 156.8,228.853 157.133,234.186 160.5,239.5C 161.585,241.587 163.251,242.92 165.5,243.5C 165.918,244.222 166.584,244.722 167.5,245C 171.833,245.667 176.167,245.667 180.5,245C 181.056,244.617 181.389,244.117 181.5,243.5C 182.167,243.5 182.833,243.5 183.5,243.5C 183.047,244.458 182.381,245.292 181.5,246C 173.891,247.174 166.558,246.507 159.5,244C 160.601,241.708 159.768,240.208 157,239.5C 155.913,232.54 155.413,225.54 155.5,218.5C 158.588,218.803 160.254,217.47 160.5,214.5C 161.833,214.5 163.167,214.5 164.5,214.5 Z"/></g>
<g><path style="opacity:1" fill="#173f34" d="M 219.5,217.5 C 216.204,222.619 214.537,228.286 214.5,234.5C 212.671,228.843 213.504,223.51 217,218.5C 217.671,217.748 218.504,217.414 219.5,217.5 Z"/></g>
<g><path style="opacity:1" fill="#173646" d="M 289.5,214.5 C 293.313,215.952 296.646,218.286 299.5,221.5C 299.833,222.167 300.167,222.833 300.5,223.5C 300.665,227.182 300.499,230.848 300,234.5C 298.398,236.646 297.232,238.98 296.5,241.5C 295.564,242.974 294.23,243.974 292.5,244.5C 287.284,244.866 282.284,244.032 277.5,242C 275.787,240.075 274.453,237.908 273.5,235.5C 272.482,234.807 271.482,234.141 270.5,233.5C 268.767,229.09 269.434,225.09 272.5,221.5C 277.019,216.751 282.686,214.417 289.5,214.5 Z"/></g>
<g><path style="opacity:1" fill="#7bc752" d="M 127.5,225.5 C 126.524,226.815 125.524,228.148 124.5,229.5C 125.524,230.852 126.524,232.185 127.5,233.5C 123.961,232.676 122.628,230.676 123.5,227.5C 124.605,226.4 125.938,225.733 127.5,225.5 Z"/></g>
<g><path style="opacity:1" fill="#194c27" d="M 186.5,221.5 C 187.315,222.429 188.148,223.429 189,224.5C 189.498,227.817 189.665,231.15 189.5,234.5C 187.5,237.167 185.5,239.833 183.5,242.5C 185.268,238.45 186.935,234.283 188.5,230C 187.383,227.269 186.717,224.435 186.5,221.5 Z"/></g>
<g><path style="opacity:1" fill="#1b4331" d="M 333.5,225.5 C 340.167,228.167 340.167,230.833 333.5,233.5C 334.476,232.185 335.476,230.852 336.5,229.5C 335.476,228.148 334.476,226.815 333.5,225.5 Z"/></g>
<g><path style="opacity:1" fill="#205320" d="M 333.5,233.5 C 332.109,235.89 330.109,237.557 327.5,238.5C 328.865,236.14 330.865,234.473 333.5,233.5 Z"/></g>
<g><path style="opacity:1" fill="#84d451" d="M 435.5,204.5 C 437.016,212.78 437.682,221.28 437.5,230C 437.347,238.513 437.014,247.013 436.5,255.5C 435.833,257.167 435.167,258.833 434.5,260.5C 435.853,250.223 436.519,239.89 436.5,229.5C 436.499,223.989 436.166,218.656 435.5,213.5C 435.5,210.5 435.5,207.5 435.5,204.5 Z"/></g>
<g><path style="opacity:1" fill="#82d93f" d="M 221.5,214.5 C 220.833,215.5 220.167,216.5 219.5,217.5C 218.504,217.414 217.671,217.748 217,218.5C 213.504,223.51 212.671,228.843 214.5,234.5C 215.575,239.025 218.242,242.025 222.5,243.5C 222.611,244.117 222.944,244.617 223.5,245C 227.152,245.499 230.818,245.665 234.5,245.5C 236.027,245.573 237.027,244.906 237.5,243.5C 239.833,243.167 241.167,241.833 241.5,239.5C 242.167,239.5 242.5,239.167 242.5,238.5C 243.315,237.571 244.148,236.571 245,235.5C 245.499,231.514 245.666,227.514 245.5,223.5C 246.836,229.723 246.669,236.056 245,242.5C 243.282,243.85 241.448,245.017 239.5,246C 233.141,246.831 226.807,246.664 220.5,245.5C 217.305,244.135 213.972,243.135 210.5,242.5C 209.128,240.38 209.795,239.38 212.5,239.5C 212.17,233.132 212.504,226.798 213.5,220.5C 214.95,219.15 215.617,217.484 215.5,215.5C 217.5,215.167 219.5,214.833 221.5,214.5 Z"/></g>
<g><path style="opacity:1" fill="#144724" d="M 244.5,223.5 C 244.833,223.5 245.167,223.5 245.5,223.5C 245.666,227.514 245.499,231.514 245,235.5C 244.148,236.571 243.315,237.571 242.5,238.5C 244.24,233.74 244.906,228.74 244.5,223.5 Z"/></g>
<g><path style="opacity:1" fill="#134028" d="M 300.5,223.5 C 301.483,227.298 301.817,231.298 301.5,235.5C 300.31,237.869 298.643,239.869 296.5,241.5C 297.232,238.98 298.398,236.646 300,234.5C 300.499,230.848 300.665,227.182 300.5,223.5 Z"/></g>
<g><path style="opacity:1" fill="#174d1e" d="M 160.5,239.5 C 162.749,240.08 164.415,241.413 165.5,243.5C 163.251,242.92 161.585,241.587 160.5,239.5 Z"/></g>
<g><path style="opacity:1" fill="#194831" d="M 241.5,239.5 C 241.167,241.833 239.833,243.167 237.5,243.5C 237.167,243.5 236.833,243.5 236.5,243.5C 237.806,242.533 238.473,241.199 238.5,239.5C 239.5,239.5 240.5,239.5 241.5,239.5 Z"/></g>
<g><path style="opacity:1" fill="#16452b" d="M 270.5,233.5 C 271.482,234.141 272.482,234.807 273.5,235.5C 274.453,237.908 275.787,240.075 277.5,242C 282.284,244.032 287.284,244.866 292.5,244.5C 283.652,247.62 276.652,245.286 271.5,237.5C 271.167,236.167 270.833,234.833 270.5,233.5 Z"/></g>
<g><path style="opacity:1" fill="#82cc55" d="M 189.5,234.5 C 189.03,238.617 187.03,241.617 183.5,243.5C 183.5,243.167 183.5,242.833 183.5,242.5C 185.5,239.833 187.5,237.167 189.5,234.5 Z"/></g>
<g><path style="opacity:1" fill="#1a4234" d="M 367.5,242.5 C 367.5,242.833 367.5,243.167 367.5,243.5C 364.505,243.294 361.838,243.96 359.5,245.5C 354.955,246.005 351.288,248.005 348.5,251.5C 349.213,248.76 350.88,246.76 353.5,245.5C 353.291,244.914 352.957,244.414 352.5,244C 357.481,243.252 362.481,242.752 367.5,242.5 Z"/></g>
<g><path style="opacity:1" fill="#79c24b" d="M 89.5,243.5 C 92.8599,243.616 96.1933,243.949 99.5,244.5C 100.5,245.167 101.5,245.833 102.5,246.5C 97.8799,246.26 93.5465,245.26 89.5,243.5 Z"/></g>
<g><path style="opacity:1" fill="#1a4b28" d="M 99.5,244.5 C 102.636,243.979 104.97,244.979 106.5,247.5C 105.167,247.167 103.833,246.833 102.5,246.5C 101.5,245.833 100.5,245.167 99.5,244.5 Z"/></g>
<g><path style="opacity:1" fill="#215729" d="M 165.5,243.5 C 170.856,244.704 176.189,244.704 181.5,243.5C 181.389,244.117 181.056,244.617 180.5,245C 176.167,245.667 171.833,245.667 167.5,245C 166.584,244.722 165.918,244.222 165.5,243.5 Z"/></g>
<g><path style="opacity:1" fill="#134329" d="M 222.5,243.5 C 226.5,243.833 230.5,244.167 234.5,244.5C 234.5,244.833 234.5,245.167 234.5,245.5C 230.818,245.665 227.152,245.499 223.5,245C 222.944,244.617 222.611,244.117 222.5,243.5 Z"/></g>
<g><path style="opacity:1" fill="#44832a" d="M 236.5,243.5 C 236.833,243.5 237.167,243.5 237.5,243.5C 237.027,244.906 236.027,245.573 234.5,245.5C 234.5,245.167 234.5,244.833 234.5,244.5C 235.167,244.167 235.833,243.833 236.5,243.5 Z"/></g>
<g><path style="opacity:1" fill="#46873b" d="M 367.5,243.5 C 365.095,244.768 362.428,245.435 359.5,245.5C 361.838,243.96 364.505,243.294 367.5,243.5 Z"/></g>
<g><path style="opacity:1" fill="#83dd3c" d="M 301.5,235.5 C 301.788,238.805 300.788,241.638 298.5,244C 300.863,244.589 301.863,246.089 301.5,248.5C 291.484,247.226 281.484,245.726 271.5,244C 272.605,241.88 272.605,239.713 271.5,237.5C 276.652,245.286 283.652,247.62 292.5,244.5C 294.23,243.974 295.564,242.974 296.5,241.5C 298.643,239.869 300.31,237.869 301.5,235.5 Z"/></g>
<g><path style="opacity:1" fill="#225926" d="M 106.5,247.5 C 109.946,248.612 111.946,250.945 112.5,254.5C 111.194,252.527 109.527,250.861 107.5,249.5C 107.167,248.833 106.833,248.167 106.5,247.5 Z"/></g>
<g><path style="opacity:1" fill="#194a29" d="M 435.5,200.5 C 436.6,202.277 437.434,204.277 438,206.5C 438.167,214.667 438.333,222.833 438.5,231C 438.498,239.528 437.831,247.695 436.5,255.5C 437.014,247.013 437.347,238.513 437.5,230C 437.682,221.28 437.016,212.78 435.5,204.5C 435.5,203.167 435.5,201.833 435.5,200.5 Z"/></g>
<g><path style="opacity:1" fill="#163e38" d="M 326.5,238.5 C 326.833,238.5 327.167,238.5 327.5,238.5C 326.659,242.198 325.659,245.865 324.5,249.5C 323.914,249.291 323.414,248.957 323,248.5C 322.878,250.437 322.045,251.77 320.5,252.5C 320.833,251.167 321.167,249.833 321.5,248.5C 323.153,245.193 324.82,241.86 326.5,238.5 Z"/></g>
<g><path style="opacity:1" fill="#1e4e2b" d="M 135.5,245.5 C 136.885,246.574 138.051,247.907 139,249.5C 141.196,256.887 143.029,264.221 144.5,271.5C 144.5,276.833 144.5,282.167 144.5,287.5C 143.031,280.05 142.197,272.383 142,264.5C 139.683,258.237 137.516,251.903 135.5,245.5 Z"/></g>
<g><path style="opacity:1" fill="#235a27" d="M 321.5,248.5 C 321.167,249.833 320.833,251.167 320.5,252.5C 319.494,255.21 318.494,257.876 317.5,260.5C 317.47,255.921 318.804,251.921 321.5,248.5 Z"/></g>
<g><path style="opacity:1" fill="#2c691d" d="M 347.5,253.5 C 347.573,255.027 346.906,256.027 345.5,256.5C 345.427,254.973 346.094,253.973 347.5,253.5 Z"/></g>
<g><path style="opacity:1" fill="#85dd41" d="M 326.5,238.5 C 324.82,241.86 323.153,245.193 321.5,248.5C 318.804,251.921 317.47,255.921 317.5,260.5C 317.5,260.833 317.5,261.167 317.5,261.5C 316.71,262.609 316.21,263.942 316,265.5C 315.829,273.011 315.329,280.345 314.5,287.5C 314.784,277.467 314.451,267.467 313.5,257.5C 317.105,251.747 320.439,245.747 323.5,239.5C 324.417,238.873 325.417,238.539 326.5,238.5 Z"/></g>
<g><path style="opacity:1" fill="#1e502b" d="M 436.5,255.5 C 436.844,260.122 436.177,264.455 434.5,268.5C 434.5,266.5 434.5,264.5 434.5,262.5C 434.5,261.833 434.5,261.167 434.5,260.5C 435.167,258.833 435.833,257.167 436.5,255.5 Z"/></g>
<g><path style="opacity:1" fill="#18462b" d="M 345.5,257.5 C 345.167,259.5 344.833,261.5 344.5,263.5C 343.833,271.5 343.167,279.5 342.5,287.5C 342.168,277.81 342.502,268.144 343.5,258.5C 344.183,258.137 344.85,257.804 345.5,257.5 Z"/></g>
<g><path style="opacity:1" fill="#7ecd4c" d="M 434.5,262.5 C 434.5,264.5 434.5,266.5 434.5,268.5C 433.549,269.919 433.216,271.585 433.5,273.5C 432.833,274.167 432.167,274.833 431.5,275.5C 432.108,271.528 432.608,267.528 433,263.5C 433.383,262.944 433.883,262.611 434.5,262.5 Z"/></g>
<g><path style="opacity:1" fill="#4f8f3f" d="M 23.5,261.5 C 23.8333,261.5 24.1667,261.5 24.5,261.5C 24.9926,263.806 25.3259,266.139 25.5,268.5C 24.8333,267.5 24.1667,266.5 23.5,265.5C 23.5,264.167 23.5,262.833 23.5,261.5 Z"/></g>
<g><path style="opacity:1" fill="#124029" d="M 113.5,257.5 C 114.458,257.953 115.292,258.619 116,259.5C 116.499,263.486 116.666,267.486 116.5,271.5C 115.667,266.918 114.667,262.252 113.5,257.5 Z"/></g>
<g><path style="opacity:1" fill="#86e041" d="M 367.5,243.5 C 368.167,243.5 368.833,243.5 369.5,243.5C 369.209,244.649 368.376,245.316 367,245.5C 361.641,245.407 357.141,247.24 353.5,251C 353.957,251.414 354.291,251.914 354.5,252.5C 350.253,252.951 347.753,255.284 347,259.5C 346.667,264.833 346.333,270.167 346,275.5C 345.768,274.263 345.268,273.263 344.5,272.5C 344.5,269.5 344.5,266.5 344.5,263.5C 344.833,261.5 345.167,259.5 345.5,257.5C 345.5,257.167 345.5,256.833 345.5,256.5C 346.906,256.027 347.573,255.027 347.5,253.5C 347.328,252.508 347.662,251.842 348.5,251.5C 351.288,248.005 354.955,246.005 359.5,245.5C 362.428,245.435 365.095,244.768 367.5,243.5 Z"/></g>
<g><path style="opacity:1" fill="#15482c" d="M 23.5,265.5 C 24.1667,266.5 24.8333,267.5 25.5,268.5C 25.5,269.833 25.5,271.167 25.5,272.5C 24.0762,270.485 23.4095,268.152 23.5,265.5 Z"/></g>
<g><path style="opacity:1" fill="#1c5425" d="M 25.5,273.5 C 27.2766,276.505 28.2766,279.838 28.5,283.5C 26.7234,280.495 25.7234,277.162 25.5,273.5 Z"/></g>
<g><path style="opacity:1" fill="#85d84b" d="M 144.5,271.5 C 145.117,271.611 145.617,271.944 146,272.5C 146.333,286.167 146.667,299.833 147,313.5C 148.009,315.025 148.509,316.692 148.5,318.5C 147.5,317.167 146.5,315.833 145.5,314.5C 145.827,305.318 145.493,296.318 144.5,287.5C 144.5,282.167 144.5,276.833 144.5,271.5 Z"/></g>
<g><path style="opacity:1" fill="#1f4d2a" d="M 433.5,273.5 C 433.741,275.898 433.074,277.898 431.5,279.5C 431.5,278.167 431.5,276.833 431.5,275.5C 432.167,274.833 432.833,274.167 433.5,273.5 Z"/></g>
<g><path style="opacity:1" fill="#7ccd4a" d="M 344.5,263.5 C 344.5,266.5 344.5,269.5 344.5,272.5C 344.666,282.839 344.5,293.172 344,303.5C 343.243,305.315 342.41,306.981 341.5,308.5C 341.999,301.51 342.332,294.51 342.5,287.5C 343.167,279.5 343.833,271.5 344.5,263.5 Z"/></g>
<g><path style="opacity:1" fill="#86dd47" d="M 24.5,261.5 C 26.1504,265.893 27.3171,270.56 28,275.5C 29.5581,276.345 30.5581,275.679 31,273.5C 31.4448,276.678 31.2781,279.845 30.5,283C 31.8217,290.771 33.8217,298.271 36.5,305.5C 35.5,304.167 34.5,302.833 33.5,301.5C 32.0735,295.33 30.4068,289.33 28.5,283.5C 28.2766,279.838 27.2766,276.505 25.5,273.5C 25.5,273.167 25.5,272.833 25.5,272.5C 25.5,271.167 25.5,269.833 25.5,268.5C 25.3259,266.139 24.9926,263.806 24.5,261.5 Z"/></g>
<g><path style="opacity:1" fill="#144327" d="M 116.5,271.5 C 117.396,287.357 118.396,303.357 119.5,319.5C 117.848,314.423 116.848,309.09 116.5,303.5C 116.5,292.833 116.5,282.167 116.5,271.5 Z"/></g>
<g><path style="opacity:1" fill="#7bc74c" d="M 107.5,249.5 C 109.527,250.861 111.194,252.527 112.5,254.5C 113.11,255.391 113.443,256.391 113.5,257.5C 114.667,262.252 115.667,266.918 116.5,271.5C 116.5,282.167 116.5,292.833 116.5,303.5C 116.167,303.5 115.833,303.5 115.5,303.5C 114.669,290.673 114.169,277.673 114,264.5C 112.38,259.261 110.214,254.261 107.5,249.5 Z"/></g>
<g><path style="opacity:1" fill="#1a462a" d="M 28.5,283.5 C 30.4068,289.33 32.0735,295.33 33.5,301.5C 32.5416,301.047 31.7083,300.381 31,299.5C 29.0382,294.344 28.2049,289.011 28.5,283.5 Z"/></g>
<g><path style="opacity:1" fill="#7ecc51" d="M 428.5,287.5 C 428.342,291.841 427.342,295.841 425.5,299.5C 425.631,295.044 426.631,291.044 428.5,287.5 Z"/></g>
<g><path style="opacity:1" fill="#7ed04a" d="M 314.5,287.5 C 314.941,297.65 314.107,307.65 312,317.5C 309.696,319.068 307.196,320.235 304.5,321C 299.845,321.499 295.179,321.666 290.5,321.5C 290.5,329.833 290.5,338.167 290.5,346.5C 289.507,338.35 289.174,330.017 289.5,321.5C 293.982,320.674 298.649,320.174 303.5,320C 305.221,319.261 306.887,318.427 308.5,317.5C 307.477,315.105 308.477,314.105 311.5,314.5C 312.157,306.519 312.657,298.519 313,290.5C 313.232,289.263 313.732,288.263 314.5,287.5 Z"/></g>
<g><path style="opacity:1" fill="#173c3b" d="M 431.5,281.5 C 431.051,286.207 430.385,290.874 429.5,295.5C 430.213,297.776 430.713,300.109 431,302.5C 431.5,303.667 432.333,304.5 433.5,305C 432.365,305.749 431.365,305.583 430.5,304.5C 430.023,303.069 429.357,301.736 428.5,300.5C 426.436,302.482 425.103,304.816 424.5,307.5C 424.5,306.167 424.5,304.833 424.5,303.5C 424.833,302.167 425.167,300.833 425.5,299.5C 427.342,295.841 428.342,291.841 428.5,287.5C 429.203,285.371 430.203,283.371 431.5,281.5 Z"/></g>
<g><path style="opacity:1" fill="#134025" d="M 342.5,287.5 C 342.332,294.51 341.999,301.51 341.5,308.5C 341.5,309.5 341.5,310.5 341.5,311.5C 341.167,311.5 340.833,311.5 340.5,311.5C 340.334,305.158 340.5,298.825 341,292.5C 341.198,290.618 341.698,288.952 342.5,287.5 Z"/></g>
<g><path style="opacity:1" fill="#1e5228" d="M 33.5,301.5 C 34.5,302.833 35.5,304.167 36.5,305.5C 36.5,306.167 36.5,306.833 36.5,307.5C 37.1098,308.391 37.4431,309.391 37.5,310.5C 34.8352,308.165 33.5018,305.165 33.5,301.5 Z"/></g>
<g><path style="opacity:1" fill="#1f512d" d="M 424.5,303.5 C 424.5,304.833 424.5,306.167 424.5,307.5C 423.5,308.833 422.5,310.167 421.5,311.5C 421.366,309.708 421.699,308.042 422.5,306.5C 422.932,305.29 423.599,304.29 424.5,303.5 Z"/></g>
<g><path style="opacity:1" fill="#87d752" d="M 36.5,307.5 C 40.0437,310.587 42.0437,314.587 42.5,319.5C 41.6873,317.739 40.6873,316.072 39.5,314.5C 39.2671,312.938 38.6005,311.605 37.5,310.5C 37.4431,309.391 37.1098,308.391 36.5,307.5 Z"/></g>
<g><path style="opacity:1" fill="#84d34f" d="M 422.5,306.5 C 421.699,308.042 421.366,309.708 421.5,311.5C 419.32,313.863 417.653,316.53 416.5,319.5C 416.34,317.801 416.506,316.134 417,314.5C 419.11,311.82 420.943,309.154 422.5,306.5 Z"/></g>
<g><path style="opacity:1" fill="#1f532c" d="M 39.5,314.5 C 40.6873,316.072 41.6873,317.739 42.5,319.5C 43.3627,321.421 44.0293,323.421 44.5,325.5C 41.5557,322.514 39.889,318.847 39.5,314.5 Z"/></g>
<g><path style="opacity:1" fill="#18482a" d="M 145.5,314.5 C 146.5,315.833 147.5,317.167 148.5,318.5C 148.833,319.167 149.167,319.833 149.5,320.5C 146.221,319.969 144.887,317.969 145.5,314.5 Z"/></g>
<g><path style="opacity:1" fill="#83d44a" d="M 148.5,318.5 C 155.297,319.469 161.964,320.469 168.5,321.5C 162.131,321.653 155.797,321.32 149.5,320.5C 149.167,319.833 148.833,319.167 148.5,318.5 Z"/></g>
<g><path style="opacity:1" fill="#144423" d="M 340.5,312.5 C 340.192,316.36 339.525,320.026 338.5,323.5C 338.116,319.511 338.783,315.845 340.5,312.5 Z"/></g>
<g><path style="opacity:1" fill="#80d644" d="M 115.5,303.5 C 115.833,303.5 116.167,303.5 116.5,303.5C 116.848,309.09 117.848,314.423 119.5,319.5C 119.5,319.833 119.5,320.167 119.5,320.5C 119.5,321.5 119.5,322.5 119.5,323.5C 118.542,323.047 117.708,322.381 117,321.5C 116.301,315.511 115.801,309.511 115.5,303.5 Z"/></g>
<g><path style="opacity:1" fill="#174924" d="M 119.5,320.5 C 121.277,323.505 122.277,326.838 122.5,330.5C 121.323,328.321 120.323,325.987 119.5,323.5C 119.5,322.5 119.5,321.5 119.5,320.5 Z"/></g>
<g><path style="opacity:1" fill="#7dc84a" d="M 340.5,311.5 C 340.833,311.5 341.167,311.5 341.5,311.5C 341.76,317.194 340.76,322.527 338.5,327.5C 338.5,326.167 338.5,324.833 338.5,323.5C 339.525,320.026 340.192,316.36 340.5,312.5C 340.5,312.167 340.5,311.833 340.5,311.5 Z"/></g>
<g><path style="opacity:1" fill="#1a452c" d="M 421.5,311.5 C 420.241,315.048 419.407,318.715 419,322.5C 417.257,325.297 415.09,327.63 412.5,329.5C 413.836,326.162 415.169,322.829 416.5,319.5C 417.653,316.53 419.32,313.863 421.5,311.5 Z"/></g>
<g><path style="opacity:1" fill="#81ca5f" d="M 168.5,321.5 C 169.166,325.486 169.499,329.653 169.5,334C 169.491,338.557 168.825,342.724 167.5,346.5C 168.469,338.252 168.802,329.918 168.5,321.5 Z"/></g>
<g><path style="opacity:1" fill="#1f4c2a" d="M 338.5,323.5 C 338.5,324.833 338.5,326.167 338.5,327.5C 337.163,331.498 334.83,334.832 331.5,337.5C 331.5,335.833 331.5,334.167 331.5,332.5C 332.822,332.67 333.989,332.337 335,331.5C 336.093,328.691 337.26,326.024 338.5,323.5 Z"/></g>
<g><path style="opacity:1" fill="#194729" d="M 122.5,330.5 C 126.697,334.498 131.03,338.498 135.5,342.5C 134.391,342.443 133.391,342.11 132.5,341.5C 127.781,339.114 124.448,335.447 122.5,330.5 Z"/></g>
<g><path style="opacity:1" fill="#1a4c28" d="M 317.5,261.5 C 317.269,279.906 316.102,298.239 314,316.5C 313.535,317.931 312.701,319.097 311.5,320C 305.097,321.874 298.597,323.041 292,323.5C 291.5,330.826 291.334,338.159 291.5,345.5C 303.14,346.409 314.474,345.076 325.5,341.5C 321.288,344.092 316.622,345.925 311.5,347C 304.321,347.821 297.321,347.655 290.5,346.5C 290.5,338.167 290.5,329.833 290.5,321.5C 295.179,321.666 299.845,321.499 304.5,321C 307.196,320.235 309.696,319.068 312,317.5C 314.107,307.65 314.941,297.65 314.5,287.5C 315.329,280.345 315.829,273.011 316,265.5C 316.21,263.942 316.71,262.609 317.5,261.5 Z"/></g>
<g><path style="opacity:1" fill="#1f512d" d="M 47.5,331.5 C 49.4623,334.474 51.4623,337.474 53.5,340.5C 49.8493,338.53 47.8493,335.53 47.5,331.5 Z"/></g>
<g><path style="opacity:1" fill="#164c1c" d="M 149.5,320.5 C 155.797,321.32 162.131,321.653 168.5,321.5C 168.802,329.918 168.469,338.252 167.5,346.5C 163.151,346.585 158.818,346.918 154.5,347.5C 151.215,347.553 148.215,346.886 145.5,345.5C 152.755,345.813 159.921,345.48 167,344.5C 167.5,337.174 167.666,329.841 167.5,322.5C 162.489,322.666 157.489,322.499 152.5,322C 151.263,321.768 150.263,321.268 149.5,320.5 Z"/></g>
<g><path style="opacity:1" fill="#85d64c" d="M 132.5,341.5 C 133.391,342.11 134.391,342.443 135.5,342.5C 138.505,344.277 141.838,345.277 145.5,345.5C 148.215,346.886 151.215,347.553 154.5,347.5C 158.818,346.918 163.151,346.585 167.5,346.5C 164.062,347.823 160.229,348.49 156,348.5C 147.934,348.264 140.101,346.93 132.5,344.5C 132.5,343.5 132.5,342.5 132.5,341.5 Z"/></g>
<g><path style="opacity:1" fill="#89df46" d="M 289.5,321.5 C 289.174,330.017 289.507,338.35 290.5,346.5C 297.321,347.655 304.321,347.821 311.5,347C 316.622,345.925 321.288,344.092 325.5,341.5C 327.813,340.5 329.813,339.166 331.5,337.5C 331.368,340.797 329.702,342.463 326.5,342.5C 326.714,344.144 326.38,345.644 325.5,347C 313.543,348.532 301.543,348.865 289.5,348C 288.172,339.068 288.172,330.235 289.5,321.5 Z"/></g>
<g><path style="opacity:1" fill="#1a472e" d="M 410.5,331.5 C 410.833,331.5 411.167,331.5 411.5,331.5C 411.425,334.407 410.591,337.073 409,339.5C 406.408,343.169 403.574,346.503 400.5,349.5C 403.314,343.205 406.647,337.205 410.5,331.5 Z"/></g>
<g><path style="opacity:1" fill="#1d4d26" d="M 53.5,340.5 C 56.1326,345.388 59.1326,350.055 62.5,354.5C 57.4834,351.134 54.4834,346.468 53.5,340.5 Z"/></g>
<g><path style="opacity:1" fill="#84e23c" d="M 410.5,331.5 C 406.647,337.205 403.314,343.205 400.5,349.5C 396.75,352.58 393.75,356.247 391.5,360.5C 389.527,363.139 387.194,365.473 384.5,367.5C 384.338,365.473 384.505,363.473 385,361.5C 386.011,362.337 387.178,362.67 388.5,362.5C 387.158,357.881 388.325,353.881 392,350.5C 393.84,351.833 394.34,351.666 393.5,350C 394.893,348.829 395.727,347.329 396,345.5C 397.356,346.38 398.856,346.714 400.5,346.5C 398.635,342.63 399.302,339.296 402.5,336.5C 403.192,337.025 403.692,337.692 404,338.5C 403.079,333.102 405.246,330.769 410.5,331.5 Z"/></g>
<g><path style="opacity:1" fill="#1f4935" d="M 400.5,349.5 C 398.766,353.42 396.766,357.086 394.5,360.5C 393.5,360.5 392.5,360.5 391.5,360.5C 393.75,356.247 396.75,352.58 400.5,349.5 Z"/></g>
<g><path style="opacity:1" fill="#1f512d" d="M 65.5,358.5 C 67.5869,359.585 68.9202,361.251 69.5,363.5C 67.4131,362.415 66.0798,360.749 65.5,358.5 Z"/></g>
<g><path style="opacity:1" fill="#275e2a" d="M 69.5,363.5 C 73.5658,366.563 76.8991,370.229 79.5,374.5C 75.4342,371.437 72.1009,367.771 69.5,363.5 Z"/></g>
<g><path style="opacity:1" fill="#205826" d="M 384.5,368.5 C 380.5,374.5 375.5,379.5 369.5,383.5C 374.167,378.167 379.167,373.167 384.5,368.5 Z"/></g>
<g><path style="opacity:0.004" fill="#fefffe" d="M 456.5,376.5 C 457.833,377.167 457.833,377.167 456.5,376.5 Z"/></g>
<g><path style="opacity:1" fill="#193b3a" d="M 82.5,377.5 C 86.2079,381.21 90.2079,384.543 94.5,387.5C 96.1939,389.861 98.1939,391.861 100.5,393.5C 98.2433,393.038 96.2433,392.038 94.5,390.5C 93.6143,391.325 93.281,392.325 93.5,393.5C 94.9778,393.238 96.3112,393.571 97.5,394.5C 94.0535,395.389 91.0535,397.056 88.5,399.5C 87.4659,396.943 88.4659,395.609 91.5,395.5C 91.8588,393.234 91.1922,391.401 89.5,390C 93.1271,388.779 93.1271,387.112 89.5,385C 87.5,384.167 85.5,383.333 83.5,382.5C 83.7093,381.914 84.0426,381.414 84.5,381C 83.1772,380.184 82.5106,379.017 82.5,377.5 Z"/></g>
<g><path style="opacity:1" fill="#86d946" d="M 94.5,387.5 C 101.571,389.707 107.237,393.874 111.5,400C 115.041,400.665 117.708,402.498 119.5,405.5C 117.372,404.043 115.038,403.043 112.5,402.5C 110.192,400.529 107.858,398.529 105.5,396.5C 104.078,395.075 102.411,394.075 100.5,393.5C 98.1939,391.861 96.1939,389.861 94.5,387.5 Z"/></g>
<g><path style="opacity:1" fill="#1b5020" d="M 105.5,396.5 C 107.858,398.529 110.192,400.529 112.5,402.5C 108.945,401.946 106.612,399.946 105.5,396.5 Z"/></g>
<g><path style="opacity:1" fill="#164528" d="M 354.5,395.5 C 354.001,398.264 352.335,399.931 349.5,400.5C 350.833,398.5 352.5,396.833 354.5,395.5 Z"/></g>
<g><path style="opacity:1" fill="#215a22" d="M 347.5,400.5 C 348.167,400.5 348.833,400.5 349.5,400.5C 347.967,402.245 345.967,403.245 343.5,403.5C 344.59,402.143 345.924,401.143 347.5,400.5 Z"/></g>
<g><path style="opacity:1" fill="#87e041" d="M 347.5,400.5 C 345.924,401.143 344.59,402.143 343.5,403.5C 336.28,408.61 328.613,412.944 320.5,416.5C 320.167,416.5 319.833,416.5 319.5,416.5C 321.086,414.055 323.419,412.555 326.5,412C 326.167,411.667 325.833,411.333 325.5,411C 329.067,410.433 331.4,408.433 332.5,405C 335.873,404.452 338.873,403.118 341.5,401C 343.473,400.505 345.473,400.338 347.5,400.5 Z"/></g>
<g><path style="opacity:1" fill="#183c3a" d="M 112.5,402.5 C 115.038,403.043 117.372,404.043 119.5,405.5C 121.946,408.231 124.946,410.231 128.5,411.5C 130.167,412.833 131.833,414.167 133.5,415.5C 131.139,415.674 128.806,416.007 126.5,416.5C 126.5,415.5 126.5,414.5 126.5,413.5C 120.657,412.978 116.991,409.978 115.5,404.5C 113.821,404.715 112.821,404.048 112.5,402.5 Z"/></g>
<g><path style="opacity:1" fill="#194331" d="M 343.5,403.5 C 343.079,405.91 341.746,407.743 339.5,409C 333.5,412.679 327.167,415.179 320.5,416.5C 328.613,412.944 336.28,408.61 343.5,403.5 Z"/></g>
<g><path style="opacity:1" fill="#154031" d="M 133.5,415.5 C 137.137,416.263 140.47,417.597 143.5,419.5C 139.375,419.908 136.041,418.574 133.5,415.5 Z"/></g>
<g><path style="opacity:1" fill="#7aca46" d="M 128.5,411.5 C 134.651,413.162 140.651,415.329 146.5,418C 147.305,419.113 147.972,420.279 148.5,421.5C 146.833,420.833 145.167,420.167 143.5,419.5C 140.47,417.597 137.137,416.263 133.5,415.5C 131.833,414.167 130.167,412.833 128.5,411.5 Z"/></g>
<g><path style="opacity:1" fill="#1c4c2c" d="M 319.5,416.5 C 319.833,416.5 320.167,416.5 320.5,416.5C 318.08,419.661 314.747,421.327 310.5,421.5C 313.371,419.565 316.371,417.899 319.5,416.5 Z"/></g>
<g><path style="opacity:1" fill="#1c5128" d="M 310.5,421.5 C 309.942,422.79 308.942,423.623 307.5,424C 304.647,425.43 301.647,426.263 298.5,426.5C 300.833,425.167 303.167,423.833 305.5,422.5C 307.216,422.371 308.883,422.038 310.5,421.5 Z"/></g>
<g><path style="opacity:0.004" fill="#fefffe" d="M 389.5,424.5 C 390.833,425.167 390.833,425.167 389.5,424.5 Z"/></g>
<g><path style="opacity:1" fill="#21542a" d="M 154.5,424.5 C 158.974,426.323 163.64,427.323 168.5,427.5C 168.5,427.833 168.5,428.167 168.5,428.5C 163.005,429.399 158.338,428.066 154.5,424.5 Z"/></g>
<g><path style="opacity:1" fill="#85d847" d="M 305.5,422.5 C 303.167,423.833 300.833,425.167 298.5,426.5C 292.229,427.565 286.229,429.232 280.5,431.5C 279.833,431.5 279.167,431.5 278.5,431.5C 277.167,431.5 275.833,431.5 274.5,431.5C 275.791,429.685 277.624,428.685 280,428.5C 285.073,427.158 290.24,426.325 295.5,426C 296.833,425.333 298.167,424.667 299.5,424C 298.833,423.667 298.167,423.333 297.5,423C 300.146,422.503 302.813,422.336 305.5,422.5 Z"/></g>
<g><path style="opacity:1" fill="#79c847" d="M 168.5,428.5 C 168.5,428.167 168.5,427.833 168.5,427.5C 174.558,427.484 179.891,429.151 184.5,432.5C 181.273,432.324 178.273,431.657 175.5,430.5C 173.401,429.388 171.067,428.721 168.5,428.5 Z"/></g>
<g><path style="opacity:1" fill="#1d4e29" d="M 168.5,428.5 C 171.067,428.721 173.401,429.388 175.5,430.5C 173.473,430.662 171.473,430.495 169.5,430C 168.944,429.617 168.611,429.117 168.5,428.5 Z"/></g>
<g><path style="opacity:1" fill="#17422d" d="M 298.5,426.5 C 297.025,428.41 295.025,429.576 292.5,430C 288.49,430.501 284.49,431.001 280.5,431.5C 286.229,429.232 292.229,427.565 298.5,426.5 Z"/></g>
<g><path style="opacity:0.004" fill="#fefffe" d="M 60.5,430.5 C 61.8333,431.167 61.8333,431.167 60.5,430.5 Z"/></g>
<g><path style="opacity:0.004" fill="#fefffe" d="M 16.5,433.5 C 17.8333,434.167 17.8333,434.167 16.5,433.5 Z"/></g>
<g><path style="opacity:1" fill="#1b4c2b" d="M 187.5,433.5 C 194.373,434.419 201.04,435.753 207.5,437.5C 202.167,437.067 196.834,436.567 191.5,436C 189.563,435.878 188.23,435.045 187.5,433.5 Z"/></g>
<g><path style="opacity:1" fill="#81d54a" d="M 184.5,432.5 C 190.509,432.334 196.509,432.501 202.5,433C 201.5,433.333 200.5,433.667 199.5,434C 209.226,435.936 219.06,436.769 229,436.5C 239.666,436.566 250.166,435.899 260.5,434.5C 258.833,435.167 257.167,435.833 255.5,436.5C 239.517,437.366 223.517,437.7 207.5,437.5C 201.04,435.753 194.373,434.419 187.5,433.5C 186.209,433.737 185.209,433.404 184.5,432.5 Z"/></g>
<g><path style="opacity:1" fill="#1f512c" d="M 274.5,431.5 C 275.833,431.5 277.167,431.5 278.5,431.5C 271.327,434.992 263.66,436.658 255.5,436.5C 257.167,435.833 258.833,435.167 260.5,434.5C 265.45,434.23 270.117,433.23 274.5,431.5 Z"/></g>
<g><path style="opacity:1" fill="#174827" d="M 255.5,436.5 C 255.389,437.117 255.056,437.617 254.5,438C 238.661,438.828 222.995,438.661 207.5,437.5C 223.517,437.7 239.517,437.366 255.5,436.5 Z"/></g>
<g><path style="opacity:0.004" fill="#fefffe" d="M 397.5,450.5 C 398.833,451.167 398.833,451.167 397.5,450.5 Z"/></g>
<g><path style="opacity:0.004" fill="#fefffe" d="M 83.5,451.5 C 84.8333,452.167 84.8333,452.167 83.5,451.5 Z"/></g>
<g><path style="opacity:0.004" fill="#fefffe" d="M 295.5,453.5 C 296.833,454.167 296.833,454.167 295.5,453.5 Z"/></g>
</svg>
