<?xml version="1.0" encoding="UTF-8"?>
<!DOCTYPE svg PUBLIC "-//W3C//DTD SVG 1.1//EN" "http://www.w3.org/Graphics/SVG/1.1/DTD/svg11.dtd">
<svg xmlns="http://www.w3.org/2000/svg" version="1.1" width="460px" height="460px" style="shape-rendering:geometricPrecision; text-rendering:geometricPrecision; image-rendering:optimizeQuality; fill-rule:evenodd; clip-rule:evenodd" xmlns:xlink="http://www.w3.org/1999/xlink">
<g><path style="opacity:1" fill="#fefefe" d="M -0.5,-0.5 C 69.8333,-0.5 140.167,-0.5 210.5,-0.5C 150.32,6.34014 99.4867,31.6735 58,75.5C 54.0454,81.1233 49.7121,86.4566 45,91.5C 41.3888,97.444 37.3888,103.111 33,108.5C 31.4159,113.266 29.0825,117.6 26,121.5C 20.1412,134.74 14.4746,148.074 9,161.5C 5.16212,177.493 1.99545,193.493 -0.5,209.5C -0.5,139.5 -0.5,69.5 -0.5,-0.5 Z"/></g>
<g><path style="opacity:1" fill="#183747" d="M 210.5,-0.5 C 220.833,-0.5 231.167,-0.5 241.5,-0.5C 321.174,6.0733 382.674,42.74 426,109.5C 430.299,117.814 434.633,126.147 439,134.5C 444.477,147.598 449.143,160.932 453,174.5C 456.27,190.496 458.437,206.496 459.5,222.5C 459.5,230.167 459.5,237.833 459.5,245.5C 452.479,314.267 422.146,370.1 368.5,413C 361.993,417.086 355.66,421.42 349.5,426C 341.186,430.299 332.853,434.633 324.5,439C 315.177,442.661 305.843,446.327 296.5,450C 280.398,453.291 264.398,456.458 248.5,459.5C 235.5,459.5 222.5,459.5 209.5,459.5C 194.948,456.793 180.282,453.96 165.5,451C 82.6438,423.813 29.4772,368.313 6,284.5C 3.48508,270.42 1.31841,256.42 -0.5,242.5C -0.5,231.5 -0.5,220.5 -0.5,209.5C 1.99545,193.493 5.16212,177.493 9,161.5C 14.4746,148.074 20.1412,134.74 26,121.5C 29.0825,117.6 31.4159,113.266 33,108.5C 37.3888,103.111 41.3888,97.444 45,91.5C 49.7121,86.4566 54.0454,81.1233 58,75.5C 99.4867,31.6735 150.32,6.34014 210.5,-0.5 Z"/></g>
<g><path style="opacity:1" fill="#fdfefe" d="M 241.5,-0.5 C 314.167,-0.5 386.833,-0.5 459.5,-0.5C 459.5,73.8333 459.5,148.167 459.5,222.5C 458.437,206.496 456.27,190.496 453,174.5C 449.143,160.932 444.477,147.598 439,134.5C 434.633,126.147 430.299,117.814 426,109.5C 382.674,42.74 321.174,6.0733 241.5,-0.5 Z"/></g>
<g><path style="opacity:1" fill="#84e92d" d="M 209.5,21.5 C 301.189,17.9112 369.689,55.5778 415,134.5C 440.499,186.848 444.499,240.848 427,296.5C 395.488,377.226 336.655,424.059 250.5,437C 161.074,441.878 93.241,406.378 47,330.5C 19.1012,277.404 13.7679,222.07 31,164.5C 49.5163,113.578 82.0163,74.4118 128.5,47C 154.016,33.5337 181.016,25.0337 209.5,21.5 Z"/></g>
<g><path style="opacity:1" fill="#173646" d="M 145.5,112.5 C 153.167,112.5 160.833,112.5 168.5,112.5C 168.5,120.833 168.5,129.167 168.5,137.5C 163.156,137.334 157.823,137.501 152.5,138C 147.432,139.628 144.932,143.128 145,148.5C 145.474,167.716 143.807,186.716 140,205.5C 137.861,211.112 135.194,216.446 132,221.5C 128.5,224.333 125,227.167 121.5,230C 130.598,234.996 136.765,242.496 140,252.5C 141.975,259.374 143.308,266.374 144,273.5C 144.131,288.245 145.131,302.911 147,317.5C 148.319,319.487 150.152,320.654 152.5,321C 157.823,321.499 163.156,321.666 168.5,321.5C 168.5,329.833 168.5,338.167 168.5,346.5C 159.109,346.853 149.775,346.353 140.5,345C 129.631,342.131 122.798,335.298 120,324.5C 119.107,319.477 118.107,314.477 117,309.5C 116.667,297.167 116.333,284.833 116,272.5C 115.673,264.183 113.339,256.517 109,249.5C 103.226,245.263 96.7264,243.263 89.5,243.5C 89.5,234.167 89.5,224.833 89.5,215.5C 94.9408,214.87 100.274,213.704 105.5,212C 108,210.833 109.833,209 111,206.5C 113.639,199.407 115.305,192.074 116,184.5C 116.334,171.482 117.001,158.482 118,145.5C 119.025,139.776 120.358,134.109 122,128.5C 126.275,121.901 132.108,117.068 139.5,114C 141.708,113.809 143.708,113.309 145.5,112.5 Z"/></g>
<g><path style="opacity:1" fill="#183746" d="M 289.5,112.5 C 299.964,111.945 310.297,112.778 320.5,115C 326.332,117.993 331.499,121.826 336,126.5C 338.234,131.64 339.901,136.973 341,142.5C 341.592,160.902 342.925,179.235 345,197.5C 347.485,210.339 355.319,216.339 368.5,215.5C 369.498,224.81 369.832,234.143 369.5,243.5C 354.766,243.077 346.266,250.077 344,264.5C 343.195,280.513 342.195,296.513 341,312.5C 339.854,320.6 337.52,328.266 334,335.5C 327.873,341.313 320.706,345.146 312.5,347C 305.174,347.5 297.841,347.666 290.5,347.5C 290.5,338.833 290.5,330.167 290.5,321.5C 295.179,321.666 299.845,321.499 304.5,321C 310.294,320.37 313.461,317.203 314,311.5C 314.919,295.844 315.586,280.178 316,264.5C 317.628,255.946 320.628,247.946 325,240.5C 328.556,236.277 332.723,232.777 337.5,230C 333.759,226.714 329.925,223.547 326,220.5C 324.016,216.531 322.016,212.531 320,208.5C 316.431,186.23 313.765,163.896 312,141.5C 310.421,139.959 308.587,138.792 306.5,138C 300.843,137.501 295.176,137.334 289.5,137.5C 289.5,129.167 289.5,120.833 289.5,112.5 Z"/></g>
<g><path style="opacity:1" fill="#183746" d="M 166.5,213.5 C 182.349,211.855 189.849,218.855 189,234.5C 184.378,245.219 176.544,248.386 165.5,244C 157.428,238.041 155.261,230.207 159,220.5C 161.396,217.933 163.896,215.6 166.5,213.5 Z"/></g>
<g><path style="opacity:1" fill="#183746" d="M 223.5,213.5 C 239.155,211.989 246.321,218.989 245,234.5C 241.016,244.241 233.85,247.741 223.5,245C 214.853,240.327 211.686,233.16 214,223.5C 216.056,219.008 219.223,215.675 223.5,213.5 Z"/></g>
<g><path style="opacity:1" fill="#183746" d="M 279.5,213.5 C 299.026,212.825 305.526,221.492 299,239.5C 292.477,246.12 284.977,247.287 276.5,243C 266.361,231.957 267.361,222.124 279.5,213.5 Z"/></g>
<g><path style="opacity:1" fill="#fefefe" d="M -0.5,242.5 C 1.31841,256.42 3.48508,270.42 6,284.5C 29.4772,368.313 82.6438,423.813 165.5,451C 180.282,453.96 194.948,456.793 209.5,459.5C 139.5,459.5 69.5,459.5 -0.5,459.5C -0.5,387.167 -0.5,314.833 -0.5,242.5 Z"/></g>
<g><path style="opacity:1" fill="#fefefe" d="M 459.5,245.5 C 459.5,316.833 459.5,388.167 459.5,459.5C 389.167,459.5 318.833,459.5 248.5,459.5C 264.398,456.458 280.398,453.291 296.5,450C 305.843,446.327 315.177,442.661 324.5,439C 332.853,434.633 341.186,430.299 349.5,426C 355.66,421.42 361.993,417.086 368.5,413C 422.146,370.1 452.479,314.267 459.5,245.5 Z"/></g>
</svg>
