<?xml version="1.0" encoding="UTF-8"?>
<!DOCTYPE svg PUBLIC "-//W3C//DTD SVG 1.1//EN" "http://www.w3.org/Graphics/SVG/1.1/DTD/svg11.dtd">
<svg xmlns="http://www.w3.org/2000/svg" version="1.1" width="300px" height="300px" style="shape-rendering:geometricPrecision; text-rendering:geometricPrecision; image-rendering:optimizeQuality; fill-rule:evenodd; clip-rule:evenodd" xmlns:xlink="http://www.w3.org/1999/xlink">
<g><path style="opacity:0.502" fill="#fdfefe" d="M -0.5,-0.5 C 99.5,-0.5 199.5,-0.5 299.5,-0.5C 299.5,99.5 299.5,199.5 299.5,299.5C 199.5,299.5 99.5,299.5 -0.5,299.5C -0.5,199.5 -0.5,99.5 -0.5,-0.5 Z"/></g>
<g><path style="opacity:0.502" fill="#b5cde1" d="M 142.5,3.5 C 150.656,2.34345 158.99,2.17678 167.5,3C 168.416,3.27842 169.082,3.77842 169.5,4.5C 167.833,4.5 166.167,4.5 164.5,4.5C 157.352,3.50837 150.019,3.17503 142.5,3.5 Z"/></g>
<g><path style="opacity:1" fill="#2e598f" d="M 142.5,3.5 C 150.019,3.17503 157.352,3.50837 164.5,4.5C 153.813,4.16797 143.146,4.5013 132.5,5.5C 131.624,6.25083 130.624,6.75083 129.5,7C 134.018,7.0646 138.351,7.73126 142.5,9C 138.579,9.20304 134.745,9.70304 131,10.5C 128.709,9.38994 126.042,8.38994 123,7.5C 117.922,8.86394 112.755,9.53061 107.5,9.5C 118.66,5.25056 130.326,3.25056 142.5,3.5 Z"/></g>
<g><path style="opacity:1" fill="#205697" d="M 164.5,4.5 C 166.167,4.5 167.833,4.5 169.5,4.5C 217.93,12.4451 254.097,37.7784 278,80.5C 281.476,89.0981 284.643,97.7648 287.5,106.5C 288.498,115.429 289.665,124.429 291,133.5C 292.774,150.864 291.108,167.864 286,184.5C 285.667,184.167 285.333,183.833 285,183.5C 283.788,184.776 282.955,186.276 282.5,188C 283.332,190.478 283.499,192.978 283,195.5C 279.647,202.603 276.147,209.603 272.5,216.5C 271.534,218.396 271.201,220.396 271.5,222.5C 270.325,222.281 269.325,222.614 268.5,223.5C 264.505,228.67 260.672,234.004 257,239.5C 256.667,238.833 256.333,238.167 256,237.5C 255.798,239.256 255.298,240.922 254.5,242.5C 252.161,243.418 250.661,245.084 250,247.5C 248.2,249.317 246.034,250.484 243.5,251C 242.833,252.333 242.167,253.667 241.5,255C 236.853,257.664 232.52,260.664 228.5,264C 227.663,265.011 227.33,266.178 227.5,267.5C 223.741,270.046 219.741,272.046 215.5,273.5C 213.143,273.337 210.81,273.503 208.5,274C 207.663,275.011 207.33,276.178 207.5,277.5C 202.666,278.317 198,279.817 193.5,282C 187.472,282.17 181.472,282.67 175.5,283.5C 176.025,284.192 176.692,284.692 177.5,285C 176.833,285.167 176.167,285.333 175.5,285.5C 173.833,284.833 172.167,284.167 170.5,283.5C 168.627,283.482 168.294,283.982 169.5,285C 165.571,286.142 161.571,286.976 157.5,287.5C 151.92,286.761 146.253,287.094 140.5,288.5C 134.545,287.341 128.545,286.508 122.5,286C 123.905,284.731 125.571,284.231 127.5,284.5C 127.5,283.167 127.5,281.833 127.5,280.5C 122.952,280.275 118.618,280.941 114.5,282.5C 110.192,281.799 105.859,281.466 101.5,281.5C 94.3013,279.565 87.6346,276.565 81.5,272.5C 76.7058,266.62 70.7058,262.454 63.5,260C 59.7267,255.107 55.7267,250.44 51.5,246C 48.9398,245.616 46.6064,244.783 44.5,243.5C 29.5467,228.273 19.2134,210.273 13.5,189.5C 12.7818,181.286 11.2818,173.286 9,165.5C 8.41719,159.006 7.91719,152.506 7.5,146C 8.82867,137.909 9.66201,129.743 10,121.5C 10.8314,117.986 12.3314,114.819 14.5,112C 13.9781,111.439 13.6448,110.772 13.5,110C 15.6802,105.437 16.8469,100.604 17,95.5C 19.2031,93.3312 20.0365,90.6646 19.5,87.5C 19.7936,84.2459 21.127,81.5792 23.5,79.5C 24.4959,79.5858 25.3292,79.2524 26,78.5C 26.7925,74.2037 29.2925,71.8704 33.5,71.5C 33.8901,66.4905 35.2235,61.8239 37.5,57.5C 51.3319,39.3283 68.6653,25.6617 89.5,16.5C 94.9243,15.4731 100.258,13.8064 105.5,11.5C 106.298,11.0431 106.631,10.3764 106.5,9.5C 106.833,9.5 107.167,9.5 107.5,9.5C 112.755,9.53061 117.922,8.86394 123,7.5C 126.042,8.38994 128.709,9.38994 131,10.5C 134.745,9.70304 138.579,9.20304 142.5,9C 138.351,7.73126 134.018,7.0646 129.5,7C 130.624,6.75083 131.624,6.25083 132.5,5.5C 143.146,4.5013 153.813,4.16797 164.5,4.5 Z"/></g>
<g><path style="opacity:0.796" fill="#375882" d="M 106.5,9.5 C 106.631,10.3764 106.298,11.0431 105.5,11.5C 100.258,13.8064 94.9243,15.4731 89.5,16.5C 94.8483,13.6004 100.515,11.2671 106.5,9.5 Z"/></g>
<g><path style="opacity:1" fill="#fbfdfc" d="M 197.5,75.5 C 203.698,82.2039 209.365,89.3705 214.5,97C 213.5,97.3333 212.5,97.6667 211.5,98C 215.213,100.087 218.88,102.253 222.5,104.5C 224.024,106.858 226.024,108.691 228.5,110C 230.839,113.135 232.339,116.302 233,119.5C 233.333,119.167 233.667,118.833 234,118.5C 241.242,120.723 248.408,122.39 255.5,123.5C 262.982,128.086 267.815,134.753 270,143.5C 272.283,158.163 267.783,170.163 256.5,179.5C 245.917,184.85 234.917,185.85 223.5,182.5C 222.614,181.224 221.614,181.224 220.5,182.5C 217.221,189.774 212.221,195.44 205.5,199.5C 190.919,205.57 178.252,202.903 167.5,191.5C 163.731,194.618 159.731,197.285 155.5,199.5C 143.041,202.898 132.208,200.231 123,191.5C 120.216,193.28 117.716,195.447 115.5,198C 107.221,203.239 98.2209,204.906 88.5,203C 83.967,201.24 79.967,198.74 76.5,195.5C 76.1667,195.5 75.8333,195.5 75.5,195.5C 75.3893,194.883 75.056,194.383 74.5,194C 50.1625,195.766 34.9958,184.933 29,161.5C 28.5012,155.484 28.6679,149.484 29.5,143.5C 33.6087,134.614 39.6087,127.281 47.5,121.5C 55.0482,117.764 63.0482,116.097 71.5,116.5C 73.3981,100.284 81.0647,87.6171 94.5,78.5C 108.116,71.2182 122.449,69.5515 137.5,73.5C 139.823,74.778 142.323,75.778 145,76.5C 162.41,64.99 179.91,64.6566 197.5,75.5 Z"/></g>
<g><path style="opacity:1" fill="#395b8a" d="M 137.5,73.5 C 122.449,69.5515 108.116,71.2182 94.5,78.5C 94.4142,77.5041 94.7476,76.6708 95.5,76C 99.7324,74.0496 104.066,72.383 108.5,71C 118.167,70.3333 127.833,70.3333 137.5,71C 138.598,71.7697 138.598,72.603 137.5,73.5 Z"/></g>
<g><path style="opacity:0.922" fill="#2e5686" d="M 37.5,57.5 C 35.2235,61.8239 33.8901,66.4905 33.5,71.5C 29.2925,71.8704 26.7925,74.2037 26,78.5C 25.3292,79.2524 24.4959,79.5858 23.5,79.5C 26.99,71.3585 31.6566,64.0252 37.5,57.5 Z"/></g>
<g><path style="opacity:1" fill="#31577f" d="M 227.5,105.5 C 224.61,102.447 221.276,99.9474 217.5,98C 215.536,96.549 214.203,94.7157 213.5,92.5C 213.56,91.9569 213.893,91.6236 214.5,91.5C 216.99,95.7573 220.657,98.5906 225.5,100C 226.464,101.725 227.131,103.559 227.5,105.5 Z"/></g>
<g><path style="opacity:1" fill="#e8f6fb" d="M 197.5,75.5 C 204.243,79.9071 209.576,85.5738 213.5,92.5C 214.203,94.7157 215.536,96.549 217.5,98C 221.276,99.9474 224.61,102.447 227.5,105.5C 230.873,108.915 233.206,112.915 234.5,117.5C 238.877,117.577 243.21,118.077 247.5,119C 250.633,119.86 253.3,121.36 255.5,123.5C 248.408,122.39 241.242,120.723 234,118.5C 233.667,118.833 233.333,119.167 233,119.5C 232.339,116.302 230.839,113.135 228.5,110C 226.024,108.691 224.024,106.858 222.5,104.5C 218.88,102.253 215.213,100.087 211.5,98C 212.5,97.6667 213.5,97.3333 214.5,97C 209.365,89.3705 203.698,82.2039 197.5,75.5 Z"/></g>
<g><path style="opacity:1" fill="#395c8e" d="M 19.5,87.5 C 20.0365,90.6646 19.2031,93.3312 17,95.5C 16.8469,100.604 15.6802,105.437 13.5,110C 13.6448,110.772 13.9781,111.439 14.5,112C 12.3314,114.819 10.8314,117.986 10,121.5C 9.66201,129.743 8.82867,137.909 7.5,146C 7.91719,152.506 8.41719,159.006 9,165.5C 11.2818,173.286 12.7818,181.286 13.5,189.5C 10.4807,183.278 8.64733,176.611 8,169.5C 5.86417,158.253 5.1975,146.919 6,135.5C 7.6826,125.124 9.6826,114.79 12,104.5C 13.8518,98.4064 16.3518,92.7397 19.5,87.5 Z"/></g>
<g><path style="opacity:1" fill="#2c5687" d="M 94.5,78.5 C 81.0647,87.6171 73.3981,100.284 71.5,116.5C 63.0482,116.097 55.0482,117.764 47.5,121.5C 47.5,120.5 47.5,119.5 47.5,118.5C 51.2196,118.704 54.553,117.704 57.5,115.5C 61.1073,114.511 64.774,114.177 68.5,114.5C 68.3398,112.801 68.5065,111.134 69,109.5C 70.9587,106.544 72.4587,103.377 73.5,100C 73.0116,98.416 72.0116,97.2494 70.5,96.5C 71.325,95.6143 72.325,95.281 73.5,95.5C 73.5,94.5 73.5,93.5 73.5,92.5C 75.2012,92.0338 76.7012,92.0338 78,92.5C 79.3864,89.7087 81.2198,87.2087 83.5,85C 80.7854,84.1253 79.4521,82.2919 79.5,79.5C 80.5,79.5 81.5,79.5 82.5,79.5C 82.5,80.5 82.5,81.5 82.5,82.5C 84.861,82.3259 87.1944,81.9926 89.5,81.5C 89.5,80.5 89.5,79.5 89.5,78.5C 91.1667,78.5 92.8333,78.5 94.5,78.5 Z"/></g>
<g><path style="opacity:1" fill="#315886" d="M 227.5,105.5 C 228.922,105.709 230.255,106.209 231.5,107C 234.207,114.35 239.541,117.684 247.5,117C 255.654,120.229 262.487,125.062 268,131.5C 272.27,142.098 273.603,153.098 272,164.5C 271.439,166.725 270.439,168.725 269,170.5C 268.667,170.167 268.333,169.833 268,169.5C 265.067,171.764 262.9,174.598 261.5,178C 259.975,179.009 258.308,179.509 256.5,179.5C 267.783,170.163 272.283,158.163 270,143.5C 267.815,134.753 262.982,128.086 255.5,123.5C 253.3,121.36 250.633,119.86 247.5,119C 243.21,118.077 238.877,117.577 234.5,117.5C 233.206,112.915 230.873,108.915 227.5,105.5 Z"/></g>
<g><path style="opacity:1" fill="#5e768e" d="M 56.5,126.5 C 69.0113,126.171 81.3446,126.505 93.5,127.5C 93.1667,127.5 92.8333,127.5 92.5,127.5C 80.8333,127.5 69.1667,127.5 57.5,127.5C 57.5,130.167 57.5,132.833 57.5,135.5C 61.5,135.5 65.5,135.5 69.5,135.5C 69.5,145.5 69.5,155.5 69.5,165.5C 68.5062,156.014 68.1729,146.348 68.5,136.5C 64.5,136.5 60.5,136.5 56.5,136.5C 56.5,133.167 56.5,129.833 56.5,126.5 Z"/></g>
<g><path style="opacity:1" fill="#1b4980" d="M 218.5,134.5 C 218.5,137.5 218.5,140.5 218.5,143.5C 219.78,144.931 221.447,145.598 223.5,145.5C 223.5,146.833 223.5,148.167 223.5,149.5C 221.447,149.402 219.78,150.069 218.5,151.5C 218.5,152.167 218.5,152.833 218.5,153.5C 217.679,156.641 217.179,159.975 217,163.5C 214.333,164.833 211.667,164.833 209,163.5C 208.5,151.838 208.333,140.171 208.5,128.5C 216.84,128.334 225.173,128.5 233.5,129C 237.552,132.575 238.219,136.575 235.5,141C 236.337,142.011 236.67,143.178 236.5,144.5C 233.865,145.683 231.198,146.516 228.5,147C 228.167,146 227.833,145 227.5,144C 230.96,141.134 231.293,137.968 228.5,134.5C 225.02,131.891 221.687,131.891 218.5,134.5 Z"/></g>
<g><path style="opacity:1" fill="#304e71" d="M 92.5,127.5 C 92.8333,127.5 93.1667,127.5 93.5,127.5C 93.5,130.5 93.5,133.5 93.5,136.5C 89.5,136.5 85.5,136.5 81.5,136.5C 81.4142,135.504 81.7476,134.671 82.5,134C 85.8168,133.502 89.1501,133.335 92.5,133.5C 92.5,131.5 92.5,129.5 92.5,127.5 Z"/></g>
<g><path style="opacity:1" fill="#1b497f" d="M 189.5,163.5 C 189.5,162.5 189.5,161.5 189.5,160.5C 190.494,150.013 190.828,139.346 190.5,128.5C 193.5,128.5 196.5,128.5 199.5,128.5C 199.667,139.172 199.5,149.839 199,160.5C 198.626,161.416 198.126,162.25 197.5,163C 194.743,162.777 192.076,162.944 189.5,163.5 Z"/></g>
<g><path style="opacity:1" fill="#668097" d="M 231.5,127.5 C 223.5,127.5 215.5,127.5 207.5,127.5C 207.5,140.167 207.5,152.833 207.5,165.5C 211.167,165.5 214.833,165.5 218.5,165.5C 214.702,166.483 210.702,166.817 206.5,166.5C 206.5,153.167 206.5,139.833 206.5,126.5C 215.017,126.174 223.35,126.507 231.5,127.5 Z"/></g>
<g><path style="opacity:1" fill="#264872" d="M 179.5,126.5 C 181.167,126.5 182.833,126.5 184.5,126.5C 181.184,139.763 178.184,153.096 175.5,166.5C 173.833,166.5 172.167,166.5 170.5,166.5C 172.552,152.958 175.552,139.624 179.5,126.5 Z"/></g>
<g><path style="opacity:1" fill="#1e4065" d="M 160.5,127.5 C 161.791,127.263 162.791,127.596 163.5,128.5C 155.592,128.845 147.592,128.845 139.5,128.5C 138.864,139.822 138.531,151.156 138.5,162.5C 141.127,163.092 143.794,163.425 146.5,163.5C 146.335,160.15 146.502,156.817 147,153.5C 147.278,152.584 147.778,151.918 148.5,151.5C 148.5,156.167 148.5,160.833 148.5,165.5C 144.833,165.5 141.167,165.5 137.5,165.5C 137.5,152.833 137.5,140.167 137.5,127.5C 145.167,127.5 152.833,127.5 160.5,127.5 Z"/></g>
<g><path style="opacity:1" fill="#1b4980" d="M 163.5,128.5 C 164.492,128.328 165.158,128.662 165.5,129.5C 168.852,134.485 169.352,139.818 167,145.5C 164.092,145.908 161.592,147.075 159.5,149C 155.367,148.906 151.701,149.74 148.5,151.5C 147.778,151.918 147.278,152.584 147,153.5C 146.502,156.817 146.335,160.15 146.5,163.5C 143.794,163.425 141.127,163.092 138.5,162.5C 138.531,151.156 138.864,139.822 139.5,128.5C 147.592,128.845 155.592,128.845 163.5,128.5 Z"/></g>
<g><path style="opacity:1" fill="#d0e0ee" d="M 148.5,134.5 C 153.137,133.442 156.47,134.942 158.5,139C 158.223,140.892 157.223,142.225 155.5,143C 153.19,143.497 150.857,143.663 148.5,143.5C 148.5,140.5 148.5,137.5 148.5,134.5 Z"/></g>
<g><path style="opacity:1" fill="#f2fcfc" d="M 149.5,135.5 C 151.199,135.34 152.866,135.506 154.5,136C 152.068,137.087 152.402,137.587 155.5,137.5C 155.349,141.314 153.349,142.981 149.5,142.5C 149.5,140.167 149.5,137.833 149.5,135.5 Z"/></g>
<g><path style="opacity:1" fill="#1b477c" d="M 92.5,127.5 C 92.5,129.5 92.5,131.5 92.5,133.5C 89.1501,133.335 85.8168,133.502 82.5,134C 81.7476,134.671 81.4142,135.504 81.5,136.5C 80.5062,145.986 80.1729,155.652 80.5,165.5C 76.8333,165.5 73.1667,165.5 69.5,165.5C 69.5,155.5 69.5,145.5 69.5,135.5C 65.5,135.5 61.5,135.5 57.5,135.5C 57.5,132.833 57.5,130.167 57.5,127.5C 69.1667,127.5 80.8333,127.5 92.5,127.5 Z"/></g>
<g><path style="opacity:1" fill="#284b78" d="M 128.5,130.5 C 130.074,132.643 131.408,134.976 132.5,137.5C 129.32,138.437 126.153,139.437 123,140.5C 120.049,135.847 115.882,134.347 110.5,136C 109.299,136.903 108.465,138.069 108,139.5C 107.161,144.921 107.494,150.254 109,155.5C 111.928,157.75 115.094,158.084 118.5,156.5C 118.315,158.89 116.982,159.89 114.5,159.5C 110.849,159.257 108.016,157.59 106,154.5C 103.717,146.783 104.55,139.616 108.5,133C 107.737,132.056 106.737,131.556 105.5,131.5C 103.964,132.249 102.631,133.249 101.5,134.5C 100.366,138.831 100.366,143.164 101.5,147.5C 100.5,147.5 99.5,147.5 98.5,147.5C 98.6882,145.897 98.1882,144.563 97,143.5C 96.1816,146.227 96.3483,148.894 97.5,151.5C 99.2813,155.131 101.281,158.631 103.5,162C 107.594,162.882 111.594,164.049 115.5,165.5C 119.275,165.279 122.609,163.946 125.5,161.5C 126.386,160.675 126.719,159.675 126.5,158.5C 129.91,158.616 131.244,156.95 130.5,153.5C 126.834,152.273 123.5,152.939 120.5,155.5C 121.038,153.883 121.371,152.216 121.5,150.5C 125.167,151.167 128.833,151.833 132.5,152.5C 131.5,160.833 126.833,165.5 118.5,166.5C 105.999,168.672 98.1658,163.672 95,151.5C 93.577,132.257 102.41,124.09 121.5,127C 124.139,127.653 126.473,128.82 128.5,130.5 Z"/></g>
<g><path style="opacity:1" fill="#3f5975" d="M 200.5,126.5 C 200.5,126.833 200.5,127.167 200.5,127.5C 196.833,127.5 193.167,127.5 189.5,127.5C 189.5,138.5 189.5,149.5 189.5,160.5C 189.5,161.5 189.5,162.5 189.5,163.5C 189.5,164.167 189.5,164.833 189.5,165.5C 189.167,165.5 188.833,165.5 188.5,165.5C 188.5,152.5 188.5,139.5 188.5,126.5C 192.5,126.5 196.5,126.5 200.5,126.5 Z"/></g>
<g><path style="opacity:1" fill="#204269" d="M 200.5,127.5 C 200.5,140.167 200.5,152.833 200.5,165.5C 196.833,165.5 193.167,165.5 189.5,165.5C 189.5,164.833 189.5,164.167 189.5,163.5C 192.076,162.944 194.743,162.777 197.5,163C 198.126,162.25 198.626,161.416 199,160.5C 199.5,149.839 199.667,139.172 199.5,128.5C 196.5,128.5 193.5,128.5 190.5,128.5C 190.828,139.346 190.494,150.013 189.5,160.5C 189.5,149.5 189.5,138.5 189.5,127.5C 193.167,127.5 196.833,127.5 200.5,127.5 Z"/></g>
<g><path style="opacity:1" fill="#b9cde3" d="M 200.5,126.5 C 201.496,139.656 201.829,152.99 201.5,166.5C 196.968,166.818 192.634,166.485 188.5,165.5C 188.833,165.5 189.167,165.5 189.5,165.5C 193.167,165.5 196.833,165.5 200.5,165.5C 200.5,152.833 200.5,140.167 200.5,127.5C 200.5,127.167 200.5,126.833 200.5,126.5 Z"/></g>
<g><path style="opacity:0.502" fill="#acc2dd" d="M 292.5,130.5 C 294.052,135.401 294.719,140.568 294.5,146C 294.719,151.432 294.052,156.599 292.5,161.5C 293.833,151.167 293.833,140.833 292.5,130.5 Z"/></g>
<g><path style="opacity:1" fill="#637b92" d="M 160.5,127.5 C 152.833,127.5 145.167,127.5 137.5,127.5C 137.5,140.167 137.5,152.833 137.5,165.5C 141.167,165.5 144.833,165.5 148.5,165.5C 144.702,166.483 140.702,166.817 136.5,166.5C 136.5,153.167 136.5,139.833 136.5,126.5C 144.684,126.174 152.684,126.508 160.5,127.5 Z"/></g>
<g><path style="opacity:1" fill="#254974" d="M 231.5,127.5 C 237.066,128.921 240.066,132.588 240.5,138.5C 240.425,144.745 237.425,148.912 231.5,151C 227.179,151.499 222.846,151.666 218.5,151.5C 219.78,150.069 221.447,149.402 223.5,149.5C 223.5,148.167 223.5,146.833 223.5,145.5C 221.447,145.598 219.78,144.931 218.5,143.5C 218.833,143.5 219.167,143.5 219.5,143.5C 221.735,143.795 223.735,143.461 225.5,142.5C 228.128,141.375 228.961,139.375 228,136.5C 225.096,134.773 221.93,134.107 218.5,134.5C 221.687,131.891 225.02,131.891 228.5,134.5C 231.293,137.968 230.96,141.134 227.5,144C 227.833,145 228.167,146 228.5,147C 231.198,146.516 233.865,145.683 236.5,144.5C 236.67,143.178 236.337,142.011 235.5,141C 238.219,136.575 237.552,132.575 233.5,129C 225.173,128.5 216.84,128.334 208.5,128.5C 208.333,140.171 208.5,151.838 209,163.5C 211.667,164.833 214.333,164.833 217,163.5C 217.179,159.975 217.679,156.641 218.5,153.5C 218.5,157.5 218.5,161.5 218.5,165.5C 214.833,165.5 211.167,165.5 207.5,165.5C 207.5,152.833 207.5,140.167 207.5,127.5C 215.5,127.5 223.5,127.5 231.5,127.5 Z"/></g>
<g><path style="opacity:1" fill="#f3fafb" d="M 225.5,142.5 C 223.735,143.461 221.735,143.795 219.5,143.5C 219.5,140.833 219.5,138.167 219.5,135.5C 221.722,135.178 223.556,135.845 225,137.5C 224.474,139.227 224.641,140.894 225.5,142.5 Z"/></g>
<g><path style="opacity:1" fill="#c9dcea" d="M 218.5,134.5 C 221.93,134.107 225.096,134.773 228,136.5C 228.961,139.375 228.128,141.375 225.5,142.5C 224.641,140.894 224.474,139.227 225,137.5C 223.556,135.845 221.722,135.178 219.5,135.5C 219.5,138.167 219.5,140.833 219.5,143.5C 219.167,143.5 218.833,143.5 218.5,143.5C 218.5,140.5 218.5,137.5 218.5,134.5 Z"/></g>
<g><path style="opacity:1" fill="#2e4c70" d="M 165.5,129.5 C 167.335,130.122 168.502,131.456 169,133.5C 171.316,141.589 168.816,147.422 161.5,151C 157.179,151.499 152.846,151.666 148.5,151.5C 151.701,149.74 155.367,148.906 159.5,149C 161.592,147.075 164.092,145.908 167,145.5C 169.352,139.818 168.852,134.485 165.5,129.5 Z"/></g>
<g><path style="opacity:0.706" fill="#2f5589" d="M 287.5,106.5 C 290.225,114.154 291.892,122.154 292.5,130.5C 293.833,140.833 293.833,151.167 292.5,161.5C 290.052,183.515 283.052,203.848 271.5,222.5C 271.201,220.396 271.534,218.396 272.5,216.5C 276.147,209.603 279.647,202.603 283,195.5C 283.499,192.978 283.332,190.478 282.5,188C 282.955,186.276 283.788,184.776 285,183.5C 285.333,183.833 285.667,184.167 286,184.5C 291.108,167.864 292.774,150.864 291,133.5C 289.665,124.429 288.498,115.429 287.5,106.5 Z"/></g>
<g><path style="opacity:1" fill="#1b4980" d="M 118.5,156.5 C 119.167,156.167 119.833,155.833 120.5,155.5C 123.5,152.939 126.834,152.273 130.5,153.5C 131.244,156.95 129.91,158.616 126.5,158.5C 126.719,159.675 126.386,160.675 125.5,161.5C 122.609,163.946 119.275,165.279 115.5,165.5C 111.594,164.049 107.594,162.882 103.5,162C 101.281,158.631 99.2813,155.131 97.5,151.5C 96.3483,148.894 96.1816,146.227 97,143.5C 98.1882,144.563 98.6882,145.897 98.5,147.5C 99.5,147.5 100.5,147.5 101.5,147.5C 100.366,143.164 100.366,138.831 101.5,134.5C 102.631,133.249 103.964,132.249 105.5,131.5C 106.737,131.556 107.737,132.056 108.5,133C 104.55,139.616 103.717,146.783 106,154.5C 108.016,157.59 110.849,159.257 114.5,159.5C 116.982,159.89 118.315,158.89 118.5,156.5 Z"/></g>
<g><path style="opacity:1" fill="#ecf8fc" d="M 128.5,130.5 C 126.473,128.82 124.139,127.653 121.5,127C 102.41,124.09 93.577,132.257 95,151.5C 98.1658,163.672 105.999,168.672 118.5,166.5C 113.684,167.65 108.684,167.816 103.5,167C 100.976,165.31 98.9763,163.143 97.5,160.5C 96.3112,159.571 94.9778,159.238 93.5,159.5C 93.1142,154.799 92.4475,150.133 91.5,145.5C 91.8868,143.726 92.5535,142.059 93.5,140.5C 92.6721,139.585 91.6721,138.919 90.5,138.5C 88.6889,139.736 86.8556,139.736 85,138.5C 83.6988,139.098 82.8655,140.098 82.5,141.5C 83.2441,148.47 83.9108,155.47 84.5,162.5C 84.2908,163.994 83.6241,165.161 82.5,166C 82.8333,166.333 83.1667,166.667 83.5,167C 81.7457,169.827 79.9124,169.994 78,167.5C 71.8523,170.62 67.6857,168.953 65.5,162.5C 67.9934,154.583 68.1601,146.583 66,138.5C 64.0548,137.308 62.0548,137.308 60,138.5C 58.5405,138.192 57.3739,137.525 56.5,136.5C 60.5,136.5 64.5,136.5 68.5,136.5C 68.1729,146.348 68.5062,156.014 69.5,165.5C 73.2984,166.483 77.2984,166.817 81.5,166.5C 81.5,156.5 81.5,146.5 81.5,136.5C 85.5,136.5 89.5,136.5 93.5,136.5C 93.5,133.5 93.5,130.5 93.5,127.5C 81.3446,126.505 69.0113,126.171 56.5,126.5C 60.4234,124.943 64.5901,123.943 69,123.5C 76.8177,123.217 84.4843,123.55 92,124.5C 92.6891,123.643 93.5224,122.977 94.5,122.5C 94.583,125.532 95.083,128.866 96,132.5C 96.7504,131.874 97.5838,131.374 98.5,131C 97.3595,130.259 97.3595,129.425 98.5,128.5C 101.847,126.809 105.181,125.142 108.5,123.5C 111.972,124.698 115.472,124.698 119,123.5C 123.491,123.493 126.991,125.326 129.5,129C 128.944,129.383 128.611,129.883 128.5,130.5 Z"/></g>
<g><path style="opacity:1" fill="#748caa" d="M 81.5,136.5 C 81.5,146.5 81.5,156.5 81.5,166.5C 77.2984,166.817 73.2984,166.483 69.5,165.5C 73.1667,165.5 76.8333,165.5 80.5,165.5C 80.1729,155.652 80.5062,145.986 81.5,136.5 Z"/></g>
<g><path style="opacity:1" fill="#2c598a" d="M 256.5,179.5 C 255.972,180.721 255.305,181.887 254.5,183C 246.653,184.753 238.82,186.587 231,188.5C 228.73,187.14 226.23,186.473 223.5,186.5C 223.5,185.167 223.5,183.833 223.5,182.5C 234.917,185.85 245.917,184.85 256.5,179.5 Z"/></g>
<g><path style="opacity:1" fill="#2e598c" d="M 29.5,143.5 C 28.6679,149.484 28.5012,155.484 29,161.5C 34.9958,184.933 50.1625,195.766 74.5,194C 75.056,194.383 75.3893,194.883 75.5,195.5C 66.7471,195.685 58.2471,196.685 50,198.5C 49.2496,197.874 48.4162,197.374 47.5,197C 47.8333,196.667 48.1667,196.333 48.5,196C 46.9578,194.259 46.1245,192.426 46,190.5C 44.6439,191.38 43.1439,191.714 41.5,191.5C 41.719,190.325 41.3857,189.325 40.5,188.5C 38.6666,187.948 36.9999,187.115 35.5,186C 37.2199,181.26 35.7199,177.76 31,175.5C 30.9814,172.692 29.9814,170.359 28,168.5C 27.3333,161.167 27.3333,153.833 28,146.5C 28.2321,145.263 28.7321,144.263 29.5,143.5 Z"/></g>
<g><path style="opacity:1" fill="#325785" d="M 205.5,199.5 C 204.251,201.136 202.584,202.303 200.5,203C 193.833,205 187.167,205 180.5,203C 176.204,200.361 171.704,198.195 167,196.5C 163.296,198.013 159.462,199.013 155.5,199.5C 159.731,197.285 163.731,194.618 167.5,191.5C 178.252,202.903 190.919,205.57 205.5,199.5 Z"/></g>
<g><path style="opacity:1" fill="#325681" d="M 223.5,182.5 C 220.066,187.18 216.733,192.013 213.5,197C 210.978,198.341 208.311,199.174 205.5,199.5C 212.221,195.44 217.221,189.774 220.5,182.5C 221.614,181.224 222.614,181.224 223.5,182.5 Z"/></g>
<g><path style="opacity:1" fill="#2b588e" d="M 155.5,199.5 C 155.119,200.931 154.119,201.764 152.5,202C 146.141,202.169 139.807,202.669 133.5,203.5C 131.219,204.277 129.052,205.277 127,206.5C 125.681,204.513 123.848,203.346 121.5,203C 120.696,201.229 119.529,199.729 118,198.5C 108.956,205.329 98.7893,207.329 87.5,204.5C 84.9316,202.283 81.9316,201.116 78.5,201C 75.9177,199.662 75.2511,197.829 76.5,195.5C 79.967,198.74 83.967,201.24 88.5,203C 98.2209,204.906 107.221,203.239 115.5,198C 117.716,195.447 120.216,193.28 123,191.5C 132.208,200.231 143.041,202.898 155.5,199.5 Z"/></g>
<g><path style="opacity:1" fill="#365787" d="M 271.5,222.5 C 260.213,240.788 245.546,255.788 227.5,267.5C 227.33,266.178 227.663,265.011 228.5,264C 232.52,260.664 236.853,257.664 241.5,255C 242.167,253.667 242.833,252.333 243.5,251C 246.034,250.484 248.2,249.317 250,247.5C 250.661,245.084 252.161,243.418 254.5,242.5C 255.298,240.922 255.798,239.256 256,237.5C 256.333,238.167 256.667,238.833 257,239.5C 260.672,234.004 264.505,228.67 268.5,223.5C 269.325,222.614 270.325,222.281 271.5,222.5 Z"/></g>
<g><path style="opacity:0.857" fill="#325787" d="M 44.5,243.5 C 46.6064,244.783 48.9398,245.616 51.5,246C 55.7267,250.44 59.7267,255.107 63.5,260C 70.7058,262.454 76.7058,266.62 81.5,272.5C 67.1051,265.436 54.7717,255.769 44.5,243.5 Z"/></g>
<g><path style="opacity:1" fill="#31598e" d="M 215.5,273.5 C 213.572,275.474 211.239,276.974 208.5,278C 182.485,288.794 155.485,292.46 127.5,289C 118.457,287.37 109.791,284.87 101.5,281.5C 105.859,281.466 110.192,281.799 114.5,282.5C 118.618,280.941 122.952,280.275 127.5,280.5C 127.5,281.833 127.5,283.167 127.5,284.5C 125.571,284.231 123.905,284.731 122.5,286C 128.545,286.508 134.545,287.341 140.5,288.5C 146.253,287.094 151.92,286.761 157.5,287.5C 161.571,286.976 165.571,286.142 169.5,285C 168.294,283.982 168.627,283.482 170.5,283.5C 172.167,284.167 173.833,284.833 175.5,285.5C 176.167,285.333 176.833,285.167 177.5,285C 176.692,284.692 176.025,284.192 175.5,283.5C 181.472,282.67 187.472,282.17 193.5,282C 198,279.817 202.666,278.317 207.5,277.5C 207.33,276.178 207.663,275.011 208.5,274C 210.81,273.503 213.143,273.337 215.5,273.5 Z"/></g>
</svg>
